<svg width="32" height="32" viewBox="0 0 32 32" fill="none" xmlns="http://www.w3.org/2000/svg">
<rect width="32" height="32" rx="8" fill="url(#paint0_linear_48_662)"/>
<path fill-rule="evenodd" clip-rule="evenodd" d="M12.0732 10.3764C13.0869 10.3342 14.0434 10.5432 15.122 10.8793C15.3028 10.939 15.4805 11.0482 15.6123 11.1908C15.8129 11.0364 16.0617 10.9434 16.331 10.9408C16.3845 10.9404 23.3568 10.8769 23.4131 10.8764C23.7428 10.8764 24.0627 11.0159 24.29 11.2592C24.6664 11.7115 25.0354 12.1712 25.4092 12.6254C25.4836 12.7162 25.5573 12.8071 25.6318 12.8979C25.81 13.1302 25.9036 13.4236 25.8896 13.7201L25.7881 15.8598C25.7678 16.29 25.6055 16.7079 25.331 17.0356L24.0381 18.5785C24.2665 18.6804 24.435 18.8745 24.5859 19.0717C24.6877 19.1962 24.7898 19.3212 24.8916 19.4457C25.176 19.7933 25.4595 20.1411 25.7441 20.4887C25.9228 20.7261 26.0134 21.0244 25.9931 21.3246L25.832 23.6899C25.7888 24.3303 25.2618 24.8348 24.6328 24.8393H17.5146C17.2255 24.8393 16.9598 24.7342 16.751 24.561C16.1581 25.1489 14.3183 25.3625 13.5625 25.3715C11.4276 25.3513 9.56417 24.3274 8.39451 22.6967C7.9698 22.1587 7.50532 21.6568 7.12009 21.0864C4.45721 16.8503 6.73606 10.4972 12.0732 10.3764ZM13.9785 16.7153C12.5713 16.5596 12.1547 17.9722 12.1592 18.4115L12.1582 18.4106C12.1397 18.6253 12.1458 18.8338 12.1738 19.0317C12.618 19.1159 13.043 19.0618 13.5019 18.9496C14.1214 18.7855 14.5883 18.4235 15.2236 18.8178C15.3675 18.4557 16.4487 17.3702 16.7021 17.0561C16.6589 17.0179 16.6176 16.9761 16.582 16.9301C16.2796 17.1546 15.8434 17.22 15.4824 17.0824C15.05 16.9248 14.4286 16.7458 13.9785 16.7153Z" fill="#031256"/>
<path d="M16.7998 7.65178C17.444 6.6397 19.2385 7.32346 19.8701 8.37248C20.1876 8.89933 20.2872 9.42611 20.291 9.83342L20.2871 10.0004C20.2833 10.0666 20.2648 10.2215 20.1865 10.2455C20.14 10.2603 20.0758 10.2525 20.0029 10.1186C19.673 9.51409 18.8152 9.19873 18.3506 9.03655C17.8457 8.8601 17.3619 8.72702 17.0156 8.5551C16.7113 8.4046 16.5307 8.07468 16.7998 7.65178Z" fill="#031256"/>
<path d="M12.04 7.50627C13.03 6.44428 15.0789 6.20223 15.501 7.58928C15.6773 8.16926 15.2868 8.44006 14.9023 8.50237C14.4643 8.57309 13.9628 8.44504 13.3554 8.52678C12.7605 8.60725 12.3015 8.78394 11.5322 9.51213C11.405 9.63267 11.2886 9.65534 11.2236 9.61467C11.1078 9.54204 11.1566 9.29734 11.1758 9.1928C11.2853 8.59072 11.5874 7.99157 12.04 7.50627Z" fill="#031256"/>
<path d="M12.166 11.2186C12.4174 11.2127 12.6764 11.2213 12.9424 11.2459C13.4257 11.2907 14.2855 11.4897 14.8662 11.6824C14.8859 11.6889 14.9051 11.6968 14.9229 11.7059C14.94 11.7149 14.9564 11.7254 14.9717 11.7371C14.9792 11.7422 14.9862 11.7486 14.9932 11.7557C15.0167 11.7751 15.0382 11.7977 15.0566 11.823C15.0573 11.8237 15.0583 11.8247 15.0596 11.826C15.1092 11.8961 15.136 11.9845 15.1309 12.076L15.0039 14.3924C14.9892 14.6516 14.7346 14.8262 14.4941 14.7391C14.0242 14.5678 13.3263 14.3623 12.7666 14.324C11.1768 14.2151 10.1967 15.3338 10.0674 16.7859C9.95979 17.9948 10.4543 19.036 11.2686 19.5564C11.4608 19.6797 11.6714 19.7741 11.8955 19.8338C12.0164 19.8668 12.142 19.8895 12.2705 19.9012C12.7755 19.9479 13.2633 19.881 13.6816 19.7752C13.6872 19.7733 13.6927 19.7716 13.6983 19.7703C13.9885 19.6951 14.2459 19.602 14.4522 19.5144C14.4783 19.5034 14.5052 19.4952 14.5313 19.49C14.5669 19.4835 14.6027 19.4819 14.6377 19.4852C14.6498 19.4864 14.6627 19.4884 14.6748 19.491C14.6824 19.4923 14.6907 19.4943 14.6983 19.4969C14.7005 19.4969 14.7024 19.4977 14.7041 19.4988C14.7124 19.5014 14.7212 19.5044 14.7295 19.5076C14.7874 19.5284 14.8405 19.5635 14.8818 19.6102C14.8856 19.614 14.8895 19.6177 14.8926 19.6209C14.948 19.6877 14.9824 19.7749 14.9824 19.8728L14.9922 22.1561C14.9928 22.3214 14.8918 22.4699 14.7393 22.5252C13.9377 22.8139 12.8014 23.0444 11.9004 22.9607C10.0487 22.7894 8.65642 21.9097 7.80763 20.617C7.44793 20.0713 7.18588 19.4516 7.02735 18.7801C7.01654 18.736 7.00662 18.691 6.99708 18.6463C6.99072 18.6159 6.98488 18.5846 6.97852 18.5535C6.88047 18.0623 6.83654 17.5459 6.84864 17.0125C6.84991 16.9548 6.85098 16.8974 6.85352 16.8396C6.85607 16.7839 6.85947 16.7271 6.86329 16.6707C6.86711 16.6112 6.87286 16.5512 6.87794 16.491C6.98879 15.2466 7.40704 14.1166 8.09083 13.2244C8.09772 13.2149 8.10518 13.2047 8.11329 13.1951C9.0181 12.0297 10.3802 11.2776 12.1006 11.2205C12.1223 11.2199 12.1444 11.2186 12.166 11.2186Z" fill="url(#paint1_linear_48_662)"/>
<path d="M23.4092 11.7195C23.6295 11.7176 23.8058 11.9052 23.7949 12.1297L23.6934 14.2693C23.682 14.5153 23.5902 14.7507 23.4336 14.9383L19.8008 19.2742C19.7082 19.3851 19.7921 19.5543 19.9346 19.5447L23.4912 19.3016C23.7228 19.2855 23.9154 19.4818 23.8994 19.7186L23.7393 22.0828C23.7252 22.2865 23.5593 22.4448 23.3594 22.4461H16.25C16.0386 22.4473 15.8655 22.2739 15.8643 22.0584L15.8516 19.6971C15.8497 19.4175 15.9513 19.1485 16.1358 18.9422L19.6983 14.9598C19.7969 14.8495 19.7119 14.6721 19.5654 14.6844L16.2686 14.9715C16.0382 14.9916 15.8436 14.7999 15.8535 14.5652L15.959 12.158C15.9679 11.9512 16.1344 11.7871 16.3379 11.785L23.4092 11.7195Z" fill="url(#paint2_linear_48_662)"/>
<path d="M22.8443 21.2138C22.984 21.2138 23.0971 21.3604 23.0972 21.541C23.0972 21.7219 22.984 21.8681 22.8443 21.8681C22.7048 21.868 22.5914 21.7218 22.5914 21.541C22.5915 21.3604 22.7048 21.214 22.8443 21.2138Z" fill="#10AD8C"/>
<path d="M21.8355 19.8994C22.076 19.8994 22.271 20.0966 22.271 20.3398C22.271 20.5829 22.076 20.7802 21.8355 20.7802C21.5952 20.7801 21.4 20.5828 21.3999 20.3398C21.3999 20.0967 21.5951 19.8996 21.8355 19.8994Z" fill="#10AD8C"/>
<path d="M9.33452 12.8164C9.64594 12.5805 10.008 12.5333 10.1412 12.7119C10.2759 12.8904 10.0531 13.0686 9.74174 13.3047C9.43019 13.5408 9.14706 13.7478 9.01225 13.5693C8.87746 13.3907 9.02292 13.0526 9.33452 12.8164Z" fill="#10AD8C"/>
<defs>
<linearGradient id="paint0_linear_48_662" x1="16" y1="0" x2="16" y2="32" gradientUnits="userSpaceOnUse">
<stop stop-color="#FC956C"/>
<stop offset="1" stop-color="#EC725B"/>
</linearGradient>
<linearGradient id="paint1_linear_48_662" x1="19.8786" y1="10.8581" x2="19.8786" y2="22.8416" gradientUnits="userSpaceOnUse">
<stop stop-color="#60E052"/>
<stop offset="1" stop-color="#1DBDCA"/>
</linearGradient>
<linearGradient id="paint2_linear_48_662" x1="19.8786" y1="10.8581" x2="19.8786" y2="22.8416" gradientUnits="userSpaceOnUse">
<stop stop-color="#60E052"/>
<stop offset="1" stop-color="#1DBDCA"/>
</linearGradient>
</defs>
</svg>
