<svg preserveAspectRatio="none" width="100%" height="100%" overflow="visible" style="display: block;" viewBox="0 0 32 32" fill="none" xmlns="http://www.w3.org/2000/svg">
<g id="Madlads">
<rect width="32" height="32" rx="8" fill="var(--fill-0, #F72038)"/>
<path id="Union" d="M9.70061 6.01855C9.69913 6.1154 9.67607 6.26638 9.6635 6.36621L9.59221 6.94727L9.34124 9.02539L8.70354 14.2979L8.4926 16.043C8.45296 16.3711 8.40568 16.7161 8.37542 17.043C8.45133 17.0301 8.5339 17.021 8.61077 17.0117C9.31237 16.927 10.0142 16.8249 10.7162 16.7451C10.6887 17.1366 10.6094 17.6764 10.5629 18.0762L10.2602 20.6855L9.86663 24.0713C9.79735 24.6706 9.7352 25.3253 9.65081 25.9189C9.45595 25.948 9.25393 25.9707 9.05803 25.9951L9.02971 25.9941C9.00481 25.9529 9.08429 24.8919 9.09221 24.7676L9.24553 22.3604L9.42718 19.502C9.45958 18.9893 9.48614 18.461 9.52581 17.9502C8.77058 18.0266 7.93272 18.1501 7.17425 18.249C7.23415 17.5278 7.27046 16.7627 7.31682 16.0371L7.59026 11.7627L7.82561 8.08887C7.86406 7.48544 7.92123 6.82086 7.9428 6.2207C8.47936 6.1402 9.09846 6.07301 9.63909 6.00781C9.65365 6.00553 9.67182 6.00552 9.68694 6.00488L9.70061 6.01855ZM13.0004 16.4561C12.9795 16.6786 12.9029 17.2951 12.8803 17.4844L12.5268 20.459C12.4653 20.9766 12.3861 21.5388 12.3403 22.0537L13.4194 21.916C13.3988 22.2738 13.3218 22.7309 13.2875 23.1045L12.0102 23.2646C11.9127 23.2834 11.7391 23.2996 11.6362 23.3125L10.8783 23.4092L11.3276 19.6133C11.4456 18.6163 11.5786 17.5929 11.683 16.5957L12.9379 16.4385C12.9517 16.436 12.973 16.4361 12.9877 16.4355C12.9918 16.4422 12.9963 16.4494 13.0004 16.4561ZM16.9916 15.9404C17.005 15.9881 16.9927 16.3218 16.9916 16.3926C16.9877 16.8158 16.9814 17.24 16.9731 17.6631L16.8998 22.6484C16.4737 22.6917 16.0069 22.7608 15.5785 22.8154L15.6342 21.1406C15.4708 21.1537 15.2204 21.1893 15.0571 21.2139C14.9615 21.6975 14.8637 22.1814 14.7631 22.6641L14.7133 22.9219C14.3039 22.9891 13.8087 23.0381 13.391 23.0908L14.933 16.1875C15.1512 16.1531 15.4028 16.1264 15.6235 16.0986L16.9467 15.9326C16.9805 15.9294 16.967 15.9238 16.9916 15.9404ZM19.7407 15.583C20.0577 15.5467 20.4654 15.6076 20.725 15.8066C21.3052 16.2518 21.0999 17.0963 21.0239 17.7285L20.8578 19.1064L20.7358 20.1406C20.7153 20.3125 20.6969 20.4869 20.6703 20.6562C20.5662 21.3199 20.1865 21.8961 19.5707 22.1846C19.1544 22.3795 18.7934 22.4089 18.3481 22.4648L17.1186 22.6201C17.1304 22.4237 17.1729 22.1325 17.1967 21.9316L17.351 20.6289L17.7182 17.5332C17.7858 16.9627 17.861 16.378 17.9194 15.8076C18.0641 15.7958 18.229 15.766 18.3754 15.75C18.8252 15.7007 19.2914 15.6227 19.7407 15.583ZM23.8442 15.0234C25.1059 15.2106 24.832 16.4379 24.7221 17.3174C24.3012 17.3673 23.818 17.4199 23.4028 17.4854C23.4294 17.159 23.5006 16.8241 23.5102 16.5C23.5214 16.1226 23.078 16.1368 22.8989 16.373C22.8537 16.4326 22.8036 16.5252 22.7885 16.5986C22.7321 16.8736 22.6874 17.1779 22.6899 17.458C22.7441 17.8712 23.4555 18.0259 23.7787 18.1543C24.5275 18.4385 24.4857 19.0994 24.4448 19.7705C24.3673 21.0367 23.6958 21.9306 22.3715 22.0488C21.731 22.1274 21.1473 21.8894 21.016 21.207C20.9503 20.8655 20.983 20.6098 21.0239 20.2705C21.0445 20.0931 21.0663 19.9154 21.0903 19.7383C21.5281 19.6888 21.9715 19.6273 22.4096 19.5732C22.3798 19.8813 22.2941 20.2609 22.3002 20.5605C22.3422 21.0928 22.9953 20.8152 23.0502 20.4502C23.09 20.1861 23.2441 19.5565 23.0414 19.3594C22.7143 19.0414 22.1047 18.99 21.7387 18.7109C21.5076 18.5345 21.4068 18.2242 21.3754 17.9453C21.3402 17.4954 21.4125 16.7757 21.561 16.3613C21.6366 16.1466 21.7477 15.9461 21.8901 15.7686C22.2816 15.2855 22.8155 15.0803 23.4194 15.0195C23.5392 15.0036 23.7261 15.0059 23.8442 15.0234ZM19.4487 16.7773C19.3442 16.7901 19.2148 16.8018 19.1127 16.8193L18.7582 19.752C18.6979 20.2503 18.6413 20.7688 18.5737 21.2646L18.8979 21.2266C19.0412 21.1976 19.1917 21.1474 19.2641 21.0137C19.3912 20.778 19.4079 20.395 19.4389 20.1348L19.56 19.1143L19.7074 17.877C19.7401 17.6021 19.804 17.2315 19.7817 16.9531C19.7703 16.8117 19.5836 16.7518 19.4487 16.7773ZM15.6371 18.374C15.5463 18.7189 15.489 19.1357 15.4067 19.4902C15.3942 19.5444 15.3068 19.9718 15.308 20.0088C15.3425 20.0232 15.3251 20.0182 15.3686 20.0127L15.6742 19.9756C15.6839 19.6182 15.6961 19.2596 15.7094 18.9023C15.7134 18.7881 15.7307 18.4819 15.7211 18.3809C15.6932 18.3663 15.6693 18.3722 15.6371 18.374ZM14.5248 8.58789C14.5296 8.65408 14.4783 9.04684 14.4682 9.13184L14.3158 10.4141L13.728 15.3916C13.335 15.4269 12.918 15.4964 12.5209 15.5391C12.661 14.4959 12.8385 13.4167 12.9955 12.373L13.1323 11.4551C13.1439 11.3742 13.2091 11.1294 13.1576 11.0811L13.1176 11.0859C13.0784 11.1145 13.0572 11.2516 13.0444 11.3057C12.9689 11.6226 12.894 11.9398 12.8188 12.2568L12.019 15.6074C11.7734 15.6236 11.402 15.6823 11.1508 15.7148L11.1323 12.8115L11.1283 11.8828C11.1278 11.7216 11.1332 11.5145 11.1225 11.3564C11.0945 11.3395 11.0837 11.3465 11.0444 11.3477C11.039 11.3537 11.0341 11.3601 11.0287 11.3662C11.0022 11.69 10.9664 12.1213 10.9399 12.4326C10.865 13.5392 10.7317 14.6698 10.6635 15.7754C10.2628 15.8316 9.8468 15.8791 9.44475 15.9297C9.46458 15.6821 9.50801 15.3788 9.53753 15.1289L9.72307 13.5645L10.2504 9.11719C10.8084 9.06027 11.4139 8.97171 11.975 8.90137C11.9488 9.96899 11.899 11.0571 11.8608 12.126L11.8354 12.8525C11.8311 12.9539 11.8123 13.2255 11.8276 13.3145C11.8497 13.3294 11.8551 13.322 11.891 13.3164C11.9402 13.2748 12.0402 12.6742 12.0619 12.5635L12.2612 11.5879L12.8237 8.79004C13.0011 8.77523 13.2154 8.74344 13.3959 8.7207L14.4438 8.58887C14.4741 8.58411 14.4983 8.5754 14.5248 8.58789ZM17.5385 8.20117C17.5623 8.23867 17.5484 8.57683 17.5473 8.65234L17.5278 9.98047L17.4545 14.9189C17.0586 14.9539 16.5326 15.0297 16.1342 15.0859L16.1879 13.4121C16.0124 13.426 15.7919 13.4588 15.6137 13.4814C15.577 13.6299 15.5439 13.8224 15.5131 13.9746L15.3246 14.9141C15.3042 15.0051 15.2859 15.1006 15.267 15.1924C14.8518 15.2552 14.3657 15.3124 13.9467 15.3594C13.9971 15.0986 14.0682 14.8095 14.1264 14.5488L14.4682 13.0186L15.4887 8.45215C15.7065 8.43521 15.972 8.39487 16.1908 8.36719L17.4858 8.2041C17.5074 8.20028 17.5164 8.20133 17.5385 8.20117ZM20.4701 7.84375C21.3418 7.87498 21.7378 8.32701 21.6684 9.20996C21.648 9.46733 21.6113 9.72594 21.5805 9.98242L21.4096 11.4014L21.2905 12.4062C21.2622 12.6434 21.2375 12.9157 21.1791 13.1445C21.1112 13.4161 20.9885 13.6721 20.8198 13.8955C20.2772 14.6015 19.5488 14.6508 18.7494 14.7529L17.6713 14.8887C17.7377 14.173 17.8489 13.3842 17.934 12.665L18.476 8.0791C18.8884 8.0168 19.3096 7.97777 19.7231 7.91992C19.9721 7.88509 20.2188 7.85548 20.4701 7.84375ZM19.9838 9.04883L19.6703 9.08691C19.5818 9.70651 19.5126 10.3674 19.4369 10.9932L19.1303 13.5322C19.2486 13.5201 19.3672 13.506 19.4848 13.4893C19.8805 13.4071 19.9047 13.1113 19.9496 12.7686C19.9666 12.6396 19.9811 12.5081 19.9965 12.3789L20.1215 11.3291L20.2612 10.1523C20.288 9.92793 20.3159 9.70232 20.3393 9.47754C20.3682 9.19981 20.3182 8.99473 19.9838 9.04883ZM16.1899 10.6455C16.1578 10.7862 15.856 12.2443 15.8666 12.2852C15.8974 12.2878 15.889 12.2892 15.9184 12.2832C16.0136 12.2713 16.1366 12.2596 16.2289 12.2422C16.2383 11.8883 16.2498 11.5344 16.2631 11.1807C16.268 11.0426 16.2845 10.7839 16.2758 10.6533C16.2507 10.6371 16.2216 10.6436 16.1899 10.6455Z" fill="var(--fill-0, black)"/>
</g>
</svg>
