<svg width="32" height="32" viewBox="0 0 32 32" fill="none" xmlns="http://www.w3.org/2000/svg">
<rect width="32" height="32" rx="8" fill="#F72038"/>
<path d="M9.70068 6.01855C9.6992 6.1154 9.67615 6.26638 9.66357 6.36621L9.59229 6.94727L8.49268 16.043C8.45303 16.3711 8.40575 16.7161 8.37549 17.043C8.4514 17.0301 8.53397 17.021 8.61084 17.0117C9.31244 16.927 10.0142 16.8249 10.7163 16.7451C10.6888 17.1366 10.6095 17.6764 10.563 18.0762L9.8667 24.0713C9.79742 24.6706 9.73528 25.3253 9.65088 25.9189C9.45602 25.948 9.254 25.9707 9.05811 25.9951L9.02979 25.9941C9.00488 25.9529 9.08436 24.8919 9.09229 24.7676L9.42725 19.502C9.45966 18.9893 9.48621 18.461 9.52588 17.9502C8.77065 18.0266 7.93279 18.1501 7.17432 18.249C7.23422 17.5278 7.27053 16.7627 7.31689 16.0371L7.82568 8.08887C7.86413 7.48544 7.9213 6.82086 7.94287 6.2207C8.47943 6.1402 9.09854 6.07301 9.63916 6.00781C9.65372 6.00553 9.67189 6.00552 9.68701 6.00488L9.70068 6.01855Z" fill="black"/>
<path d="M13.0005 16.4561C12.9795 16.6786 12.9029 17.2951 12.8804 17.4844L12.5269 20.459C12.4653 20.9766 12.3861 21.5388 12.3403 22.0537L13.4194 21.916C13.3989 22.2738 13.3219 22.7309 13.2876 23.1045L12.0103 23.2646C11.9127 23.2834 11.7392 23.2996 11.6362 23.3125L10.8784 23.4092L11.3276 19.6133C11.4456 18.6163 11.5787 17.5929 11.6831 16.5957L12.938 16.4385C12.9518 16.436 12.9731 16.4361 12.9878 16.4355C12.9919 16.4422 12.9964 16.4494 13.0005 16.4561Z" fill="black"/>
<path fill-rule="evenodd" clip-rule="evenodd" d="M16.9917 15.9404C17.0052 15.9872 16.9927 16.3221 16.9917 16.3926C16.9878 16.8157 16.9815 17.2391 16.9731 17.6621L16.8999 22.6484C16.4738 22.6917 16.007 22.7608 15.5786 22.8154L15.6343 21.1406C15.4708 21.1537 15.2204 21.1893 15.0571 21.2139C14.9615 21.6977 14.8638 22.1813 14.7632 22.6641L14.7134 22.9219C14.3039 22.9891 13.8088 23.0381 13.3911 23.0908L14.9331 16.1865C15.1512 16.1521 15.4029 16.1264 15.6235 16.0986L16.9468 15.9316C16.9806 15.9284 16.9671 15.9238 16.9917 15.9404ZM15.6372 18.373C15.5463 18.718 15.4891 19.1355 15.4067 19.4902C15.3943 19.5441 15.3069 19.9718 15.3081 20.0088C15.3424 20.0231 15.3252 20.0182 15.3687 20.0127L15.6743 19.9746C15.6839 19.6173 15.6961 19.2596 15.7095 18.9023C15.7135 18.7882 15.7308 18.4817 15.7212 18.3809C15.6934 18.3664 15.6693 18.3712 15.6372 18.373Z" fill="black"/>
<path fill-rule="evenodd" clip-rule="evenodd" d="M19.7407 15.583C20.0578 15.5467 20.4655 15.6076 20.7251 15.8066C21.3053 16.2518 21.1 17.0963 21.0239 17.7285L20.8579 19.1064L20.7358 20.1406C20.7154 20.3125 20.697 20.4869 20.6704 20.6562C20.5663 21.3199 20.1865 21.8961 19.5708 22.1846C19.1545 22.3795 18.7935 22.4089 18.3481 22.4648L17.1187 22.6201C17.1305 22.4237 17.173 22.1325 17.1968 21.9316L17.7183 17.5332C17.7858 16.9627 17.8611 16.378 17.9194 15.8076C18.0642 15.7958 18.2291 15.766 18.3755 15.75C18.8253 15.7007 19.2915 15.6227 19.7407 15.583ZM19.4487 16.7773C19.3442 16.7901 19.2148 16.8018 19.1128 16.8193L18.7583 19.752C18.6979 20.2503 18.6414 20.7688 18.5737 21.2646L18.8979 21.2266C19.0413 21.1976 19.1917 21.1474 19.2642 21.0137C19.3913 20.778 19.4079 20.395 19.439 20.1348L19.7075 17.877C19.7402 17.6021 19.8041 17.2315 19.7817 16.9531C19.7704 16.8117 19.5837 16.7518 19.4487 16.7773Z" fill="black"/>
<path d="M23.8442 15.0234C25.106 15.2106 24.8321 16.4379 24.7222 17.3174C24.3013 17.3673 23.8181 17.4199 23.4028 17.4854C23.4294 17.159 23.5007 16.8241 23.5103 16.5C23.5215 16.1226 23.078 16.1368 22.8989 16.373C22.8538 16.4326 22.8037 16.5252 22.7886 16.5986C22.7321 16.8736 22.6875 17.1779 22.6899 17.458C22.7441 17.8712 23.4556 18.0259 23.7788 18.1543C24.5276 18.4385 24.4858 19.0994 24.4448 19.7705C24.3674 21.0367 23.6959 21.9306 22.3716 22.0488C21.7311 22.1274 21.1473 21.8894 21.0161 21.207C20.9504 20.8655 20.9831 20.6098 21.0239 20.2705C21.0445 20.0931 21.0664 19.9154 21.0903 19.7383C21.5282 19.6888 21.9716 19.6273 22.4097 19.5732C22.3799 19.8813 22.2942 20.2609 22.3003 20.5605C22.3423 21.0928 22.9953 20.8152 23.0503 20.4502C23.0901 20.1861 23.2442 19.5565 23.0415 19.3594C22.7144 19.0414 22.1048 18.99 21.7388 18.7109C21.5076 18.5345 21.4069 18.2242 21.3755 17.9453C21.3403 17.4954 21.4126 16.7757 21.561 16.3613C21.6367 16.1466 21.7478 15.9461 21.8901 15.7686C22.2816 15.2855 22.8155 15.0803 23.4194 15.0195C23.5393 15.0036 23.7262 15.0059 23.8442 15.0234Z" fill="black"/>
<path d="M14.5249 8.58789C14.5297 8.65408 14.4784 9.04684 14.4683 9.13184L13.728 15.3916C13.3351 15.4269 12.9181 15.4964 12.521 15.5391C12.6611 14.4959 12.8386 13.4167 12.9956 12.373L13.1323 11.4551C13.1439 11.3742 13.2092 11.1294 13.1577 11.0811L13.1177 11.0859C13.0785 11.1145 13.0573 11.2516 13.0444 11.3057C12.9689 11.6226 12.8941 11.9398 12.8188 12.2568L12.019 15.6074C11.7735 15.6236 11.4021 15.6823 11.1509 15.7148L11.1323 12.8115L11.1284 11.8828C11.1279 11.7216 11.1332 11.5145 11.1226 11.3564C11.0946 11.3395 11.0838 11.3465 11.0444 11.3477C11.0391 11.3537 11.0341 11.3601 11.0288 11.3662C11.0023 11.69 10.9664 12.1213 10.9399 12.4326C10.8651 13.5392 10.7318 14.6698 10.6636 15.7754C10.2628 15.8316 9.84687 15.8791 9.44482 15.9297C9.46466 15.6821 9.50808 15.3788 9.5376 15.1289L10.2505 9.11719C10.8085 9.06027 11.4139 8.97171 11.9751 8.90137C11.9489 9.96899 11.8991 11.0571 11.8608 12.126L11.8354 12.8525C11.8312 12.9539 11.8124 13.2255 11.8276 13.3145C11.8497 13.3294 11.8551 13.322 11.8911 13.3164C11.9403 13.2748 12.0403 12.6742 12.062 12.5635L12.2612 11.5879L12.8237 8.79004C13.0011 8.77523 13.2155 8.74344 13.396 8.7207L14.4438 8.58887C14.4742 8.58411 14.4983 8.5754 14.5249 8.58789Z" fill="black"/>
<path fill-rule="evenodd" clip-rule="evenodd" d="M17.5386 8.20117C17.5623 8.23867 17.5485 8.57683 17.5474 8.65234L17.4546 14.9189C17.0587 14.9539 16.5327 15.0297 16.1343 15.0859L16.188 13.4121C16.0124 13.426 15.792 13.4588 15.6138 13.4814C15.5771 13.6299 15.544 13.8224 15.5132 13.9746L15.3247 14.9141C15.3043 15.0051 15.2859 15.1006 15.2671 15.1924C14.8519 15.2552 14.3658 15.3124 13.9468 15.3594C13.9971 15.0986 14.0683 14.8095 14.1265 14.5488L15.4888 8.45215C15.7066 8.43521 15.9721 8.39487 16.1909 8.36719L17.4858 8.2041C17.5075 8.20028 17.5165 8.20133 17.5386 8.20117ZM16.1899 10.6455C16.1578 10.7862 15.8561 12.2443 15.8667 12.2852C15.8975 12.2878 15.8891 12.2892 15.9185 12.2832C16.0137 12.2713 16.1366 12.2596 16.229 12.2422C16.2384 11.8883 16.2499 11.5344 16.2632 11.1807C16.268 11.0426 16.2846 10.7839 16.2759 10.6533C16.2508 10.6371 16.2217 10.6436 16.1899 10.6455Z" fill="black"/>
<path fill-rule="evenodd" clip-rule="evenodd" d="M20.4702 7.84375C21.3419 7.87498 21.7379 8.32701 21.6685 9.20996C21.6481 9.46733 21.6114 9.72594 21.5806 9.98242L21.4097 11.4014L21.2905 12.4062C21.2623 12.6434 21.2376 12.9157 21.1792 13.1445C21.1113 13.4161 20.9886 13.6721 20.8198 13.8955C20.2772 14.6015 19.5488 14.6508 18.7495 14.7529L17.6714 14.8887C17.7377 14.173 17.8489 13.3842 17.9341 12.665L18.4761 8.0791C18.8885 8.0168 19.3096 7.97777 19.7231 7.91992C19.9722 7.88509 20.2188 7.85548 20.4702 7.84375ZM19.9839 9.04883L19.6704 9.08691C19.5819 9.70651 19.5127 10.3674 19.437 10.9932L19.1304 13.5322C19.2486 13.5201 19.3673 13.506 19.4849 13.4893C19.8805 13.4071 19.9048 13.1113 19.9497 12.7686C19.9667 12.6396 19.9812 12.5081 19.9966 12.3789L20.2612 10.1523C20.288 9.92793 20.3159 9.70232 20.3394 9.47754C20.3683 9.19981 20.3183 8.99473 19.9839 9.04883Z" fill="black"/>
</svg>
