<svg preserveAspectRatio="none" width="100%" height="100%" overflow="visible" style="display: block;" viewBox="0 0 19.7132 13.0848" fill="none" xmlns="http://www.w3.org/2000/svg">
<g id="Group">
<path id="Vector" fill-rule="evenodd" clip-rule="evenodd" d="M9.73835 9.57909C9.83058 9.4428 9.84143 9.26288 9.75463 9.12113L4.48684 0.207175C4.41089 0.0763276 4.27526 8.33134e-08 4.12336 8.33134e-08H0.423436C0.0979285 8.33134e-08 -0.108226 0.354378 0.0599533 0.63788L6.98239 12.5123C7.1343 12.7794 7.51948 12.7958 7.69309 12.5395L9.73835 9.57909ZM3.34215 12.3269C3.51033 12.6104 3.30418 12.9702 2.97866 12.9702H2.97324H0.439711C0.206431 12.9702 0.0165524 12.7794 0.0165524 12.5449V8.24882C0.0165524 7.81266 0.58619 7.66001 0.803193 8.03074L3.34215 12.3269Z" fill="var(--fill-0, white)"/>
<path id="Vector_2" d="M19.6554 12.4469C19.8182 12.7303 19.6174 13.0847 19.2919 13.0847H15.6137C15.4618 13.0847 15.3262 13.0029 15.2502 12.872L8.11619 0.63788C7.95344 0.354378 8.15416 0 8.47967 0H12.1741C12.326 0 12.4617 0.0817794 12.5376 0.212627L19.6554 12.4469Z" fill="var(--fill-0, white)"/>
</g>
</svg>
