<svg preserveAspectRatio="none" width="100%" height="100%" overflow="visible" style="display: block;" viewBox="0 0 32 32" fill="none" xmlns="http://www.w3.org/2000/svg">
<g id="phantom white">
<path id="Vector" d="M5.33517 27.6342C8.90093 27.6342 11.5806 24.5332 13.1798 22.0827C12.9853 22.6249 12.8773 23.167 12.8773 23.6875C12.8773 25.1187 13.6985 26.1379 15.3193 26.1379C17.5452 26.1379 19.9223 24.1863 21.1541 22.0827C21.0677 22.3864 21.0245 22.6683 21.0245 22.9285C21.0245 23.926 21.5863 24.5549 22.7317 24.5549C26.3407 24.5549 29.9713 18.1577 29.9713 12.5629C29.9713 8.20406 27.767 4.36573 22.2347 4.36573C12.5099 4.36573 2.02875 16.2494 2.02875 23.926C2.02875 26.9403 3.64954 27.6342 5.33517 27.6342ZM18.885 12.0858C18.885 11.0015 19.4901 10.2425 20.3761 10.2425C21.2406 10.2425 21.8457 11.0015 21.8457 12.0858C21.8457 13.1701 21.2406 13.9507 20.3761 13.9507C19.4901 13.9507 18.885 13.1701 18.885 12.0858ZM23.5097 12.0858C23.5097 11.0015 24.1148 10.2425 25.0008 10.2425C25.8652 10.2425 26.4704 11.0015 26.4704 12.0858C26.4704 13.1701 25.8652 13.9507 25.0008 13.9507C24.1148 13.9507 23.5097 13.1701 23.5097 12.0858Z" fill="var(--fill-0, white)"/>
</g>
</svg>
