<svg width="32" height="32" viewBox="0 0 32 32" fill="none" xmlns="http://www.w3.org/2000/svg">
<path d="M5.33523 27.6342C8.90099 27.6342 11.5807 24.5332 13.1799 22.0827C12.9854 22.6249 12.8773 23.167 12.8773 23.6875C12.8773 25.1187 13.6986 26.1379 15.3193 26.1379C17.5452 26.1379 19.9224 24.1862 21.1542 22.0827C21.0677 22.3864 21.0245 22.6683 21.0245 22.9285C21.0245 23.926 21.5864 24.5549 22.7318 24.5549C26.3408 24.5549 29.9713 18.1577 29.9713 12.5628C29.9713 8.20405 27.767 4.36572 22.2347 4.36572C12.51 4.36572 2.02881 16.2494 2.02881 23.926C2.02881 26.9403 3.6496 27.6342 5.33523 27.6342ZM18.8851 12.0858C18.8851 11.0015 19.4902 10.2425 20.3762 10.2425C21.2406 10.2425 21.8457 11.0015 21.8457 12.0858C21.8457 13.17 21.2406 13.9507 20.3762 13.9507C19.4902 13.9507 18.8851 13.17 18.8851 12.0858ZM23.5097 12.0858C23.5097 11.0015 24.1149 10.2425 25.0009 10.2425C25.8653 10.2425 26.4704 11.0015 26.4704 12.0858C26.4704 13.17 25.8653 13.9507 25.0009 13.9507C24.1149 13.9507 23.5097 13.17 23.5097 12.0858Z" fill="white"/>
</svg>
