<svg width="32" height="32" viewBox="0 0 32 32" fill="none" xmlns="http://www.w3.org/2000/svg">
<path fill-rule="evenodd" clip-rule="evenodd" d="M20.9402 21.3056L15.8172 26.8279C13.1016 29.7553 8.52606 29.9277 5.59856 27.2122C2.67157 24.4966 2.50032 19.921 5.21564 16.9936L10.3386 11.4712L20.9402 21.3056ZM7.2848 24.6958C7.16837 24.5759 6.97541 24.5741 6.85538 24.6904C6.73599 24.8069 6.73368 24.9986 6.84991 25.1184L7.35045 25.6354C7.46695 25.7551 7.65996 25.7572 7.77987 25.6409C7.89913 25.5245 7.90125 25.3326 7.78534 25.2128L7.2848 24.6958ZM6.30971 20.8092C6.14557 20.7789 5.98768 20.8872 5.95687 21.0512C5.79178 21.9357 5.85196 22.8156 6.11004 23.6059C6.16211 23.7647 6.33411 23.852 6.49297 23.8001C6.65127 23.7478 6.73744 23.5771 6.6858 23.4185C6.45998 22.7275 6.40492 21.9507 6.55177 21.1634C6.58244 20.9991 6.47383 20.8401 6.30971 20.8092ZM7.39284 19.0149C7.26298 18.9099 7.07278 18.9304 6.96752 19.06L6.60921 19.5017C6.50409 19.6314 6.52357 19.8217 6.65298 19.9271C6.78282 20.032 6.97441 20.013 7.07966 19.8833L7.43797 19.4402C7.54268 19.3103 7.52221 19.1201 7.39284 19.0149Z" fill="white"/>
<path d="M16.1823 5.17076C18.8978 2.24363 23.4721 2.07281 26.3996 4.78783C29.3271 7.5034 29.4995 12.0775 26.7839 15.0051L21.8155 20.362L11.2139 10.5276L16.1823 5.17076Z" fill="white"/>
</svg>
