<svg preserveAspectRatio="none" width="100%" height="100%" overflow="visible" style="display: block;" viewBox="0 0 28.0016 28.8573" fill="none" xmlns="http://www.w3.org/2000/svg">
<g id="Frame 137">
<g id="Subtract">
<path fill-rule="evenodd" clip-rule="evenodd" d="M18.9413 19.7343L13.8183 25.2567C11.1026 28.1841 6.52712 28.3565 3.59963 25.641C0.67263 22.9253 0.50138 18.3497 3.2167 15.4223L8.33969 9.89999L18.9413 19.7343ZM5.28586 23.1246C5.16943 23.0046 4.97648 23.0029 4.85644 23.1191C4.73705 23.2356 4.73474 23.4273 4.85097 23.5472L5.35151 24.0641C5.46801 24.1838 5.66102 24.1859 5.78093 24.0696C5.90019 23.9532 5.90231 23.7614 5.7864 23.6415L5.28586 23.1246ZM4.31077 19.2379C4.14663 19.2076 3.98874 19.316 3.95793 19.48C3.79284 20.3644 3.85302 21.2443 4.1111 22.0346C4.16317 22.1934 4.33517 22.2807 4.49403 22.2288C4.65233 22.1766 4.7385 22.0059 4.68686 21.8473C4.46104 21.1562 4.40598 20.3795 4.55284 19.5921C4.5835 19.4278 4.47489 19.2689 4.31077 19.2379ZM5.3939 17.4436C5.26404 17.3387 5.07384 17.3591 4.96858 17.4888L4.61027 17.9305C4.50515 18.0602 4.52463 18.2504 4.65404 18.3558C4.78388 18.4607 4.97547 18.4417 5.08073 18.312L5.43903 17.8689C5.54374 17.7391 5.52327 17.5489 5.3939 17.4436Z" fill="var(--fill-0, white)"/>
<path d="M14.1834 3.5995C16.8989 0.672379 21.4732 0.501561 24.4007 3.21658C27.3282 5.93215 27.5005 10.5063 24.785 13.4338L19.8165 18.7907L9.21495 8.95636L14.1834 3.5995Z" fill="var(--fill-0, white)"/>
</g>
</g>
</svg>
