<svg preserveAspectRatio="none" width="100%" height="100%" overflow="visible" style="display: block;" viewBox="0 0 32 32" fill="none" xmlns="http://www.w3.org/2000/svg">
<g id="MarginFi white">
<path id="Vector" d="M16.9506 5.39809C16.9506 8.974 16.9506 12.3691 16.9506 15.8286C20.5615 15.8286 24.1081 15.8286 27.7096 15.8286C27.7096 19.4422 27.7096 22.9914 27.7096 26.6019C24.1316 26.6019 20.5364 26.6019 16.8501 26.6019C16.8501 23.1691 16.8501 19.7017 16.8501 15.9465C16.2253 16.2642 15.7276 16.423 15.3461 16.7281C14.3021 17.5631 13.7259 18.7205 13.3256 19.9706C12.8546 21.4441 12.3428 22.8719 11.3191 24.0985C10.2924 25.3297 9.03014 26.0814 7.49157 26.3283C6.45383 26.495 5.3894 26.4871 4.29042 26.561C4.29042 22.9788 4.29042 19.5319 4.29042 16.0378C4.69233 15.9513 5.09111 15.8742 5.48517 15.7767C7.04728 15.3883 7.71136 14.1114 8.31738 12.8188C8.97675 11.4098 9.46973 9.91593 10.2045 8.55098C11.1904 6.71743 12.8718 5.83839 14.9144 5.62296C15.5486 5.55377 16.1845 5.48143 16.9506 5.39809Z" fill="var(--fill-0, white)"/>
</g>
</svg>
