<svg width="32" height="32" viewBox="0 0 32 32" fill="none" xmlns="http://www.w3.org/2000/svg">
<rect width="32" height="32" rx="8" fill="#111727"/>
<path d="M10.0297 22.8506C10.261 22.9289 10.5365 23.0874 10.768 23.1963C12.633 24.0733 14.8192 24.1128 16.5493 25.2783C16.6801 25.3664 17.2064 25.7503 17.1713 25.9033L17.1371 25.918C16.2672 26.0656 15.1561 26.0081 14.3041 25.791C12.9628 25.4493 11.8129 24.8084 10.8383 23.8271C10.5344 23.5211 10.2537 23.2244 10.0297 22.8506Z" fill="url(#paint0_linear_80_2142)"/>
<path d="M8.57465 18.6133C8.6752 18.6502 9.18148 19.0938 9.33051 19.1934C9.84713 19.54 10.3852 19.8539 10.9418 20.1318C11.7337 20.5283 12.7015 20.8608 13.5532 21.1084C14.2523 21.3115 14.9694 21.4754 15.6655 21.7012C16.9179 22.1072 18.2576 22.7336 19.1069 23.7783C19.3819 24.1166 19.5822 24.4965 19.7797 24.8809L19.3286 25.1475C18.9908 25.3449 18.7481 25.4372 18.3852 25.5859C17.9071 24.7646 16.7028 24.0352 15.8442 23.6777C14.7515 23.2229 13.5544 23.0334 12.4233 22.6885C11.6173 22.4397 10.837 22.1133 10.0942 21.7139C9.77832 21.5412 9.3743 21.3469 9.12055 21.0908C8.77966 20.7464 8.56728 19.1374 8.57465 18.6133Z" fill="url(#paint1_linear_80_2142)"/>
<path d="M9.31684 15.3926C9.58641 15.5975 9.83776 15.8692 10.1039 16.085C11.3505 17.0954 12.8533 17.7948 14.3803 18.2725C15.9966 18.778 17.6067 19.1083 19.0746 20.0107C20.3044 20.767 21.3501 21.8324 21.7123 23.2676C21.5648 23.5168 21.1344 23.8849 20.9135 24.0752L20.642 24.2998C20.5623 24.0811 20.4024 23.8045 20.2856 23.6045C19.4373 22.1521 17.7068 21.2091 16.1489 20.7002C14.9797 20.3185 13.8257 20.0897 12.6352 19.6611C11.6684 19.3121 10.7531 18.8336 9.91449 18.2393C9.5961 18.0102 8.9983 17.5249 8.75434 17.2188C8.77589 16.6769 9.02014 15.8433 9.31684 15.3926Z" fill="url(#paint2_linear_80_2142)"/>
<path d="M10.7524 12.8213C10.9206 12.8458 11.1238 13.0615 11.2495 13.1797C11.841 13.7364 12.5325 14.2175 13.2524 14.5928C15.402 15.6861 17.5854 15.8531 19.7446 17C21.08 17.7093 22.4928 19.0166 23.0942 20.4902C23.2252 20.8115 22.6249 21.8642 22.4311 22.21L22.3725 22.0625C22.148 21.6043 21.8903 21.1448 21.5727 20.7422C20.5449 19.4388 18.9945 18.579 17.4467 18.0488C16.3535 17.6744 15.2391 17.4132 14.1508 17.0293C13.0635 16.6457 12.0327 16.1738 11.1098 15.4766C10.7916 15.2361 10.0807 14.6572 9.86273 14.334C9.93148 14.0702 10.5556 13.0088 10.7524 12.8213Z" fill="url(#paint3_linear_80_2142)"/>
<path d="M12.5659 10.3936C12.6792 10.4489 13.0586 10.8662 13.1938 10.9766C14.615 12.1359 16.3281 12.618 18.0522 13.124C19.3426 13.5028 20.6348 14.0798 21.6752 14.9492C22.1428 15.34 22.6888 15.8203 23.0161 16.3486C23.2017 16.6886 23.3569 17.4781 23.3803 17.8682C23.3917 18.0548 23.4783 18.8183 23.3784 18.9404C23.2871 18.9136 23.0057 18.4544 22.9194 18.334C21.3643 16.2398 19.2862 15.4277 16.8676 14.7295C14.9087 14.164 12.8076 13.4458 11.4496 11.8291L11.4545 11.8154C11.5714 11.5352 12.3376 10.6567 12.5659 10.3936Z" fill="url(#paint4_linear_80_2142)"/>
<path d="M16.0727 6.00977C16.5057 6.17826 18.8679 9.49355 19.3061 10.0898C19.8901 10.8845 20.4909 11.6694 21.0493 12.4824C21.2314 12.7475 21.4005 13.0205 21.5727 13.292C21.7066 13.5033 21.8499 13.7131 21.9614 13.9375C21.6992 13.7812 21.41 13.5449 21.1498 13.3682C20.8369 13.1557 20.5793 13.0166 20.2426 12.8447C19.589 12.5044 18.861 12.2354 18.1557 12.0234C17.6789 11.8802 17.1935 11.7596 16.7202 11.6055C15.7111 11.2769 14.6838 10.7989 13.8422 10.1455C13.6607 10.0046 13.3806 9.81257 13.2641 9.6123C13.2374 9.56636 13.2341 9.52722 13.2495 9.47656C13.3289 9.21559 15.4036 6.57312 15.7006 6.25293C15.7977 6.14829 15.8899 6.06883 16.0151 6C16.0353 6.00155 16.0536 6.00234 16.0727 6.00977Z" fill="url(#paint5_linear_80_2142)"/>
<defs>
<linearGradient id="paint0_linear_80_2142" x1="16.0001" y1="6" x2="16.0001" y2="26" gradientUnits="userSpaceOnUse">
<stop stop-color="#DEF775"/>
<stop offset="1" stop-color="#1DC2D5"/>
</linearGradient>
<linearGradient id="paint1_linear_80_2142" x1="16.0001" y1="6" x2="16.0001" y2="26" gradientUnits="userSpaceOnUse">
<stop stop-color="#DEF775"/>
<stop offset="1" stop-color="#1DC2D5"/>
</linearGradient>
<linearGradient id="paint2_linear_80_2142" x1="16.0001" y1="6" x2="16.0001" y2="26" gradientUnits="userSpaceOnUse">
<stop stop-color="#DEF775"/>
<stop offset="1" stop-color="#1DC2D5"/>
</linearGradient>
<linearGradient id="paint3_linear_80_2142" x1="16.0001" y1="6" x2="16.0001" y2="26" gradientUnits="userSpaceOnUse">
<stop stop-color="#DEF775"/>
<stop offset="1" stop-color="#1DC2D5"/>
</linearGradient>
<linearGradient id="paint4_linear_80_2142" x1="16.0001" y1="6" x2="16.0001" y2="26" gradientUnits="userSpaceOnUse">
<stop stop-color="#DEF775"/>
<stop offset="1" stop-color="#1DC2D5"/>
</linearGradient>
<linearGradient id="paint5_linear_80_2142" x1="16.0001" y1="6" x2="16.0001" y2="26" gradientUnits="userSpaceOnUse">
<stop stop-color="#DEF775"/>
<stop offset="1" stop-color="#1DC2D5"/>
</linearGradient>
</defs>
</svg>
