<svg preserveAspectRatio="none" width="100%" height="100%" overflow="visible" style="display: block;" viewBox="0 0 32 32" fill="none" xmlns="http://www.w3.org/2000/svg">
<g id="Drip Haus">
<rect width="32" height="32" rx="8" fill="var(--fill-0, #111727)"/>
<path id="Union" d="M10.0296 22.8506C10.2609 22.9289 10.5364 23.0874 10.7679 23.1963C12.6329 24.0733 14.8191 24.1128 16.5492 25.2783C16.68 25.3664 17.2063 25.7503 17.1712 25.9033L17.1371 25.918C16.2671 26.0656 15.156 26.0081 14.304 25.791C12.9627 25.4493 11.8128 24.8084 10.8382 23.8271C10.5343 23.5211 10.2537 23.2244 10.0296 22.8506ZM8.57455 18.6133C8.6751 18.6502 9.18138 19.0938 9.33041 19.1934C9.84703 19.54 10.3851 19.8539 10.9417 20.1318C11.7336 20.5283 12.7014 20.8608 13.5531 21.1084C14.2522 21.3115 14.9693 21.4754 15.6654 21.7012C16.9178 22.1072 18.2575 22.7336 19.1068 23.7783C19.3818 24.1166 19.5821 24.4965 19.7796 24.8809L19.3285 25.1475C18.9907 25.3449 18.748 25.4372 18.3851 25.5859C17.907 24.7646 16.7027 24.0352 15.8441 23.6777C14.7514 23.2229 13.5543 23.0334 12.4232 22.6885C11.6172 22.4397 10.8369 22.1133 10.0941 21.7139C9.77823 21.5412 9.3742 21.3469 9.12045 21.0908C8.77957 20.7464 8.56719 19.1374 8.57455 18.6133ZM9.31674 15.3926C9.58631 15.5975 9.83766 15.8692 10.1038 16.085C11.3504 17.0954 12.8532 17.7948 14.3802 18.2725C15.9965 18.778 17.6066 19.1083 19.0746 20.0107C20.3043 20.767 21.35 21.8324 21.7122 23.2676C21.5647 23.5168 21.1343 23.8849 20.9134 24.0752L20.6419 24.2998C20.5622 24.0811 20.4023 23.8045 20.2855 23.6045C19.4372 22.1521 17.7067 21.2091 16.1488 20.7002C14.9796 20.3185 13.8256 20.0897 12.6351 19.6611C11.6683 19.3121 10.753 18.8336 9.91439 18.2393C9.596 18.0102 8.9982 17.5249 8.75424 17.2188C8.77579 16.6769 9.02005 15.8433 9.31674 15.3926ZM10.7523 12.8213C10.9205 12.8458 11.1237 13.0615 11.2494 13.1797C11.8409 13.7364 12.5324 14.2175 13.2523 14.5928C15.4019 15.6861 17.5853 15.8531 19.7445 17C21.0799 17.7093 22.4927 19.0166 23.0941 20.4902C23.2251 20.8115 22.6248 21.8642 22.431 22.21L22.3724 22.0625C22.1479 21.6043 21.8902 21.1448 21.5726 20.7422C20.5448 19.4388 18.9944 18.579 17.4466 18.0488C16.3535 17.6744 15.239 17.4132 14.1507 17.0293C13.0634 16.6457 12.0326 16.1738 11.1097 15.4766C10.7915 15.2361 10.0806 14.6572 9.86264 14.334C9.93138 14.0702 10.5555 13.0088 10.7523 12.8213ZM12.5658 10.3936C12.6791 10.4489 13.0585 10.8662 13.1937 10.9766C14.6149 12.1359 16.328 12.618 18.0521 13.124C19.3425 13.5028 20.6347 14.0798 21.6751 14.9492C22.1427 15.34 22.6887 15.8203 23.016 16.3486C23.2016 16.6886 23.3568 17.4781 23.3802 17.8682C23.3916 18.0548 23.4782 18.8183 23.3783 18.9404C23.287 18.9136 23.0056 18.4544 22.9193 18.334C21.3642 16.2398 19.2861 15.4277 16.8675 14.7295C14.9086 14.164 12.8075 13.4458 11.4496 11.8291L11.4544 11.8154C11.5713 11.5352 12.3375 10.6567 12.5658 10.3936ZM16.0726 6.00977C16.5056 6.17826 18.8678 9.49355 19.306 10.0898C19.89 10.8845 20.4908 11.6694 21.0492 12.4824C21.2313 12.7475 21.4004 13.0205 21.5726 13.292C21.7065 13.5033 21.8498 13.7131 21.9613 13.9375C21.6991 13.7812 21.4099 13.5449 21.1497 13.3682C20.8368 13.1557 20.5792 13.0166 20.2425 12.8447C19.5889 12.5044 18.8609 12.2354 18.1556 12.0234C17.6788 11.8802 17.1934 11.7596 16.7201 11.6055C15.711 11.2769 14.6837 10.7989 13.8421 10.1455C13.6606 10.0046 13.3805 9.81257 13.264 9.6123C13.2373 9.56636 13.234 9.52722 13.2494 9.47656C13.3288 9.21559 15.4035 6.57312 15.7005 6.25293C15.7976 6.14829 15.8898 6.06883 16.015 6C16.0352 6.00155 16.0535 6.00234 16.0726 6.00977Z" fill="url(#paint0_linear_100_2607)"/>
</g>
<defs>
<linearGradient id="paint0_linear_100_2607" x1="16" y1="6" x2="16" y2="26" gradientUnits="userSpaceOnUse">
<stop stop-color="#DEF775"/>
<stop offset="1" stop-color="#1DC2D5"/>
</linearGradient>
</defs>
</svg>
