<svg width="16" height="16" viewBox="0 0 16 16" fill="none" xmlns="http://www.w3.org/2000/svg">
<g opacity="0.4">
<path d="M8 8H8.00667M10.6667 5.33333H10.6733M5.33333 5.33333H5.34M5.33333 10.6667H5.34M10.6667 10.6667H10.6733M7.33333 14H8.66667C10.5335 14 11.4669 14 12.18 13.6367C12.8072 13.3171 13.3171 12.8072 13.6367 12.18C14 11.4669 14 10.5335 14 8.66667V7.33333C14 5.46649 14 4.53307 13.6367 3.82003C13.3171 3.19282 12.8072 2.68289 12.18 2.36331C11.4669 2 10.5335 2 8.66667 2H7.33333C5.46649 2 4.53307 2 3.82003 2.36331C3.19282 2.68289 2.68289 3.19282 2.36331 3.82003C2 4.53307 2 5.46649 2 7.33333V8.66667C2 10.5335 2 11.4669 2.36331 12.18C2.68289 12.8072 3.19282 13.3171 3.82003 13.6367C4.53307 14 5.46649 14 7.33333 14Z" stroke="white" stroke-width="1.5" stroke-linecap="round" stroke-linejoin="round"/>
</g>
</svg>
