<svg preserveAspectRatio="none" width="100%" height="100%" overflow="visible" style="display: block;" viewBox="0 0 27.9854 27.5936" fill="none" xmlns="http://www.w3.org/2000/svg">
<g id="Fuse Logomark White 1" clip-path="url(#clip0_0_4)">
<path id="Vector" d="M23.782 26.03C26.1035 26.03 27.9854 24.1501 27.9854 21.831C27.9854 19.5119 26.1035 17.632 23.782 17.632C21.4606 17.632 19.5786 19.5119 19.5786 21.831C19.5786 24.1501 21.4606 26.03 23.782 26.03Z" fill="var(--fill-0, white)"/>
<path id="Vector_2" d="M23.7367 0.730524C22.6963 0.730116 21.6925 1.11356 20.9177 1.80726C14.7697 6.34758 10.3803 2.58531 9.408 1.60647C9.34772 1.5387 9.20449 1.38811 9.20449 1.38811C8.50934 0.714875 7.63105 0.261159 6.67932 0.083627C5.72759 -0.0939043 4.74456 0.0126189 3.85307 0.389893C2.96157 0.767168 2.2011 1.39847 1.66665 2.20494C1.13219 3.01142 0.847447 3.95733 0.847967 4.92451C0.855568 5.59318 0.993827 6.25394 1.25499 6.86968C1.57156 7.64773 2.32028 8.37557 2.72228 8.99298C3.47603 10.13 3.88054 11.139 3.88054 12.5821C3.86759 14.4126 3.1611 16.1703 1.90321 17.5014C1.76754 17.6621 1.1746 18.3372 1.16706 18.3423C0.519397 19.1991 0.123769 20.2194 0.0246362 21.2884C-0.0744964 22.3575 0.126793 23.433 0.605883 24.3941C1.08497 25.3552 1.82288 26.1637 2.73668 26.7289C3.65047 27.2941 4.70395 27.5936 5.77875 27.5936C6.8535 27.5936 7.90698 27.2941 8.82076 26.7289C9.73459 26.1637 10.4725 25.3552 10.9516 24.3941C11.4307 23.433 11.6319 22.3575 11.5328 21.2884C11.4337 20.2194 11.038 19.1991 10.3904 18.3423L9.8678 17.7474C8.57857 16.4915 7.79694 14.8057 7.67185 13.0112C7.54675 11.2167 8.08693 9.43896 9.18944 8.01668C9.43828 7.69446 9.71489 7.39468 10.016 7.12065C10.0265 7.1085 10.0383 7.09753 10.0512 7.08802C11.4592 5.80774 13.3111 5.12572 15.214 5.18664C17.117 5.24756 18.9213 6.04663 20.2444 7.41427C20.3801 7.55739 20.7921 7.99659 20.8574 8.05178C21.8122 8.87757 22.5986 9.22895 23.7317 9.22895C24.8598 9.22895 25.9417 8.78124 26.7395 7.98439C27.5372 7.18748 27.9854 6.10668 27.9854 4.97972C27.9854 3.85277 27.5372 2.77197 26.7395 1.97509C25.9417 1.17821 24.8598 0.730524 23.7317 0.730524H23.7367Z" fill="var(--fill-0, white)"/>
</g>
<defs>
<clipPath id="clip0_0_4">
<rect width="27.9854" height="27.5936" fill="white"/>
</clipPath>
</defs>
</svg>
