<svg preserveAspectRatio="none" width="100%" height="100%" overflow="visible" style="display: block;" viewBox="0 0 32 32" fill="none" xmlns="http://www.w3.org/2000/svg">
<g id="Fomo">
<rect width="32" height="32" rx="8" fill="var(--fill-0, #0A091F)"/>
<path id="Subtract" fill-rule="evenodd" clip-rule="evenodd" d="M7.16299 12.9823C8.79522 10.4472 12.4772 8.64387 15.2559 10.4615C15.779 10.8037 16.3639 11.4211 16.6466 11.9806C16.6598 11.9658 16.6735 11.951 16.6874 11.9368C17.9674 10.6222 19.5414 9.76154 21.3992 9.73115C23.2122 9.74401 24.6813 10.6078 25.4753 12.2635C26.2009 13.7765 26.1068 15.5064 25.5844 17.0661C24.5129 20.2651 20.9564 23.1536 17.4685 22.0178C16.5457 21.7168 15.5389 20.8921 15.1145 20.0005C15.0116 20.1152 14.9041 20.2258 14.7923 20.3318C12.6634 22.3656 9.25716 23.208 7.02769 20.8538C6.5042 20.2414 6.2568 19.7808 6.00214 19.0126H8.81125C9.26844 19.013 9.73521 19.0169 10.1927 19.0095C10.2527 19.0086 10.3969 18.9894 10.4434 18.9511C10.5095 18.8962 10.5571 18.8315 10.5825 18.7489C10.7171 18.3124 10.8405 17.8667 10.9654 17.4274L11.6281 15.1172L11.9855 13.8779C12.0546 13.6383 12.1371 13.3898 12.1716 13.1453C12.1926 12.9964 11.9956 12.9853 11.8948 12.9823C11.6827 12.9761 11.451 12.979 11.2406 12.9792L10.0382 12.98C9.10561 12.9798 8.08563 12.959 7.16299 12.9823ZM15.854 12.9692C14.6467 14.7476 14.0984 16.9014 14.6855 19.0057C14.9529 19.0238 15.3098 19.0126 15.5873 19.0126L18.6132 19.0118C18.8848 19.0122 19.159 19.017 19.4304 19.0049C19.5856 18.998 19.6523 18.9415 19.7225 18.8066C19.8001 18.6087 19.8864 18.2729 19.9485 18.0555L20.9718 14.4868C21.0826 14.101 21.1959 13.7094 21.3047 13.3221C21.3738 13.0762 21.3448 12.9865 21.0633 12.9823C20.5828 12.9752 20.0984 12.9788 19.6164 12.9792L16.815 12.9808C16.6843 12.9808 15.9483 12.9886 15.854 12.9692Z" fill="var(--fill-0, #EBEDFE)"/>
</g>
</svg>
