<svg preserveAspectRatio="none" width="100%" height="100%" overflow="visible" style="display: block;" viewBox="0 0 28 28" fill="none" xmlns="http://www.w3.org/2000/svg">
<g id="Frame 130">
<path id="Vector" d="M14 28C21.732 28 28 21.732 28 14C28 6.26801 21.732 0 14 0C6.26801 0 0 6.26801 0 14C0 21.732 6.26801 28 14 28Z" fill="var(--fill-0, #0B53BF)"/>
<path id="Union" d="M11.4807 5.60883C7.88459 6.69379 5.25042 10.0359 5.25024 13.9995C5.25024 17.9632 7.88447 21.3148 11.4807 22.3911V24.1938C6.89571 23.0738 3.50024 18.9345 3.50024 13.9995C3.50042 9.06462 6.89583 4.92606 11.4807 3.80609V5.60883ZM16.5208 3.80609C21.1055 4.92611 24.5 9.06472 24.5002 13.9995C24.5002 18.9344 21.1057 23.0737 16.5208 24.1938V22.3911C20.1169 21.306 22.7502 17.9631 22.7502 13.9995C22.75 10.036 20.1168 6.69385 16.5208 5.60883V3.80609ZM14.8752 7.87543V9.28168C16.4005 9.58128 17.3146 10.5873 17.4739 12.1801H15.6887C15.5487 11.3314 15.1029 10.7016 13.8079 10.7016C12.7231 10.7016 12.1547 11.1562 12.1545 11.8647C12.1545 13.8422 17.7629 12.3728 17.7629 15.9516C17.7628 17.4879 16.6698 18.5323 14.8752 18.7641V20.1254H13.1252V18.7455C11.2864 18.473 10.2107 17.3808 10.0979 15.6362H11.8391C12.0316 16.5899 12.5483 17.2817 14.1145 17.2817C15.3131 17.2816 16.0217 16.791 16.0217 16.0561C16.0213 14.1139 10.4045 15.4608 10.4045 11.8647C10.4047 10.4174 11.4545 9.44471 13.1252 9.23187V7.87543H14.8752Z" fill="var(--fill-0, white)"/>
</g>
</svg>
