<svg preserveAspectRatio="none" width="100%" height="100%" overflow="visible" style="display: block;" viewBox="0 0 18.0907 26.2412" fill="none" xmlns="http://www.w3.org/2000/svg">
<g id="Frame 123">
<path id="Union" d="M16.1162 19.0049C17.0465 19.0049 17.5118 19.005 17.8008 19.2939C18.0897 19.583 18.0898 20.0483 18.0898 20.9785V22.2939C18.0898 24.1545 18.0897 25.0851 17.5117 25.6631C16.9337 26.2409 16.003 26.2412 14.1426 26.2412H3.94629C2.08586 26.2412 1.15514 26.2411 0.577148 25.6631C-0.000748989 25.0851 4.80785e-09 24.1544 5.02519e-09 22.2939V20.9785C5.02519e-09 20.0482 5.14841e-05 19.583 0.289063 19.2939C0.578037 19.0052 1.04274 19.0049 1.97266 19.0049H16.1162ZM9.04492 3.79297C18.2216 3.79301 18.0898 9.91046 18.0898 12.8379V16.127C18.0898 16.6718 17.6483 17.1131 17.1035 17.1133H0.986328C0.441453 17.1132 6.53517e-05 16.6718 5.02519e-09 16.127V12.2539C0.019123 9.1697 0.441462 3.79297 9.04492 3.79297ZM9.04492 6.12402C7.50086 6.12402 6.24902 7.37582 6.24902 8.91992C6.24929 10.4637 7.50102 11.7148 9.04492 11.7148C10.5888 11.7148 11.8406 10.4637 11.8408 8.91992C11.8408 7.37585 10.589 6.12407 9.04492 6.12402ZM9.04199 0C11.0221 0 12.7555 0.692213 13.2139 1.81934C13.283 2.01376 13.3171 2.1114 13.2559 2.18359C13.1943 2.25519 13.0757 2.23336 12.8389 2.19043C12.225 2.07916 11.3551 2.00308 10.5898 1.98047C10.1017 1.95425 9.58673 1.94043 9.04492 1.94043C8.50321 1.94043 7.98801 1.95427 7.5 1.98047C6.73127 2.00308 5.85919 2.07903 5.24316 2.18652C5.01066 2.2271 4.89392 2.24778 4.83301 2.17578C4.77234 2.10381 4.8067 2.00811 4.87402 1.81738C5.32886 0.693973 7.06263 4.73673e-05 9.04199 0Z" fill="var(--fill-0, white)"/>
</g>
</svg>
