<svg preserveAspectRatio="none" width="100%" height="100%" overflow="visible" style="display: block;" viewBox="0 0 42.0378 42.0378" fill="none" xmlns="http://www.w3.org/2000/svg">
<g id="phantom">
<rect width="42.0378" height="42.0378" rx="10.5095" fill="var(--fill-0, #AB9FF2)"/>
<path id="Vector" d="M11.3827 31.5309C14.6046 31.5309 17.0258 28.729 18.4707 26.5149C18.295 27.0048 18.1973 27.4946 18.1973 27.9649C18.1973 29.2581 18.9393 30.179 20.4038 30.179C22.415 30.179 24.5628 28.4155 25.6758 26.5149C25.5977 26.7893 25.5587 27.044 25.5587 27.2791C25.5587 28.1804 26.0663 28.7486 27.1012 28.7486C30.3621 28.7486 33.6424 22.9685 33.6424 17.9133C33.6424 13.975 31.6508 10.5069 26.6521 10.5069C17.8654 10.5069 8.39525 21.2443 8.39525 28.1804C8.39525 30.9039 9.85971 31.5309 11.3827 31.5309ZM23.6256 17.4823C23.6256 16.5026 24.1723 15.8168 24.9729 15.8168C25.7539 15.8168 26.3007 16.5026 26.3007 17.4823C26.3007 18.462 25.7539 19.1673 24.9729 19.1673C24.1723 19.1673 23.6256 18.462 23.6256 17.4823ZM27.8042 17.4823C27.8042 16.5026 28.3509 15.8168 29.1514 15.8168C29.9325 15.8168 30.4792 16.5026 30.4792 17.4823C30.4792 18.462 29.9325 19.1673 29.1514 19.1673C28.3509 19.1673 27.8042 18.462 27.8042 17.4823Z" fill="var(--fill-0, white)"/>
</g>
</svg>
