<svg preserveAspectRatio="none" width="100%" height="100%" overflow="visible" style="display: block;" viewBox="0 0 42.0378 42.0378" fill="none" xmlns="http://www.w3.org/2000/svg">
<g id="Solana">
<path id="Vector" d="M33.1658 27.0738L29.1883 31.2294C29.1019 31.3197 28.9972 31.3916 28.881 31.4408C28.7648 31.49 28.6393 31.5154 28.5126 31.5153H9.65753C9.56756 31.5153 9.47956 31.4897 9.40432 31.4416C9.32909 31.3936 9.26991 31.3252 9.23405 31.2448C9.19819 31.1644 9.18721 31.0756 9.20247 30.9892C9.21772 30.9028 9.25855 30.8226 9.31993 30.7586L13.3004 26.603C13.3866 26.513 13.4909 26.4411 13.6068 26.392C13.7227 26.3428 13.8477 26.3173 13.9741 26.3171H32.8281C32.9181 26.3171 33.0061 26.3427 33.0814 26.3907C33.1565 26.4388 33.2157 26.5072 33.2517 26.5876C33.2875 26.668 33.2984 26.7568 33.2832 26.8432C33.2679 26.9296 33.2271 27.0097 33.1658 27.0738ZM29.1883 18.7057C29.1019 18.6154 28.9972 18.5434 28.881 18.4942C28.7648 18.4451 28.6393 18.4197 28.5126 18.4198H9.65753C9.56756 18.4198 9.47956 18.4454 9.40432 18.4934C9.32909 18.5415 9.26991 18.6099 9.23405 18.6903C9.19819 18.7707 9.18721 18.8595 9.20247 18.9459C9.21772 19.0323 9.25855 19.1124 9.31993 19.1765L13.3004 23.3321C13.3866 23.4221 13.4909 23.4939 13.6068 23.5431C13.7227 23.5923 13.8477 23.6178 13.9741 23.618H32.8281C32.9181 23.618 33.0061 23.5924 33.0814 23.5443C33.1565 23.4963 33.2157 23.4278 33.2517 23.3475C33.2875 23.2671 33.2984 23.1782 33.2832 23.0919C33.2679 23.0055 33.2271 22.9253 33.1658 22.8612L29.1883 18.7057ZM9.65753 15.7207H28.5126C28.6393 15.7207 28.7648 15.6954 28.881 15.6462C28.9972 15.597 29.1019 15.525 29.1883 15.4348L33.1658 11.2792C33.2271 11.2151 33.2679 11.135 33.2832 11.0486C33.2984 10.9622 33.2875 10.8734 33.2517 10.793C33.2157 10.7126 33.1565 10.6442 33.0814 10.5961C33.0061 10.5481 32.9181 10.5225 32.8281 10.5224H13.9741C13.8477 10.5227 13.7227 10.5481 13.6068 10.5973C13.4909 10.6465 13.3866 10.7183 13.3004 10.8084L9.32095 14.9639C9.25963 15.0279 9.21883 15.108 9.20354 15.1943C9.18824 15.2806 9.19913 15.3693 9.23487 15.4497C9.2706 15.53 9.32963 15.5985 9.40471 15.6466C9.47979 15.6947 9.56765 15.7205 9.65753 15.7207Z" fill="url(#paint0_linear_0_4)"/>
</g>
<defs>
<linearGradient id="paint0_linear_0_4" x1="11.2296" y1="32.0156" x2="30.4256" y2="9.80291" gradientUnits="userSpaceOnUse">
<stop offset="0.08" stop-color="#9945FF"/>
<stop offset="0.3" stop-color="#8752F3"/>
<stop offset="0.5" stop-color="#5497D5"/>
<stop offset="0.6" stop-color="#43B4CA"/>
<stop offset="0.72" stop-color="#28E0B9"/>
<stop offset="0.97" stop-color="#19FB9B"/>
</linearGradient>
</defs>
</svg>
