<svg preserveAspectRatio="none" width="100%" height="100%" overflow="visible" style="display: block;" viewBox="0 0 136.513 118.942" fill="none" xmlns="http://www.w3.org/2000/svg">
<path id="Vector" d="M135.81 93.7772L113.274 117.322C112.784 117.833 112.192 118.241 111.533 118.52C110.874 118.799 110.164 118.942 109.446 118.942H2.61622C2.10647 118.942 1.60784 118.797 1.18158 118.525C0.75532 118.252 0.42 117.865 0.21682 117.409C0.0136409 116.954 -0.0485474 116.45 0.0378968 115.961C0.124341 115.471 0.355651 115.017 0.703409 114.654L23.256 91.1095C23.7446 90.5994 24.3354 90.1924 24.9919 89.9139C25.6485 89.6352 26.3567 89.4908 27.0729 89.4896H133.897C134.406 89.4896 134.905 89.6348 135.332 89.907C135.757 90.1793 136.093 90.5671 136.297 91.0224C136.499 91.4779 136.562 91.9811 136.475 92.4706C136.389 92.96 136.157 93.4141 135.81 93.7772ZM113.274 46.3646C112.784 45.8532 112.192 45.4454 111.533 45.1667C110.874 44.8881 110.164 44.7445 109.446 44.7449H2.61622C2.10647 44.7449 1.60784 44.8899 1.18158 45.1622C0.75532 45.4346 0.42 45.8222 0.21682 46.2776C0.0136409 46.7331 -0.0485474 47.2364 0.0378968 47.7258C0.124341 48.2151 0.355651 48.6693 0.703409 49.0324L23.256 72.5773C23.7446 73.0874 24.3354 73.4942 24.9919 73.7729C25.6485 74.0515 26.3567 74.196 27.0729 74.197H133.897C134.406 74.197 134.905 74.052 135.332 73.7797C135.757 73.5073 136.093 73.1197 136.297 72.6643C136.499 72.2088 136.562 71.7055 136.475 71.2161C136.389 70.7268 136.157 70.2726 135.81 69.9095L113.274 46.3646ZM2.61622 29.4523H109.446C110.164 29.4526 110.874 29.309 111.533 29.0303C112.192 28.7516 112.784 28.3439 113.274 27.8324L135.81 4.28757C136.157 3.9245 136.389 3.47037 136.475 2.98098C136.562 2.49159 136.499 1.98826 136.297 1.53284C136.093 1.07741 135.757 0.689722 135.332 0.417409C134.905 0.145094 134.406 1.677e-05 133.897 0H27.0729C26.3567 0.00118725 25.6485 0.145567 24.9919 0.424201C24.3354 0.702836 23.7446 1.10979 23.256 1.61988L0.709222 25.1647C0.361801 25.5274 0.130593 25.9811 0.0439524 26.4698C-0.0426878 26.9587 0.0190069 27.4617 0.22147 27.9169C0.423933 28.3721 0.758364 28.7597 1.18375 29.0325C1.60914 29.3053 2.10697 29.4511 2.61622 29.4523Z" fill="url(#paint0_linear_0_4)"/>
<defs>
<linearGradient id="paint0_linear_0_4" x1="11.5233" y1="121.777" x2="120.284" y2="-4.07676" gradientUnits="userSpaceOnUse">
<stop offset="0.08" stop-color="#9945FF"/>
<stop offset="0.3" stop-color="#8752F3"/>
<stop offset="0.5" stop-color="#5497D5"/>
<stop offset="0.6" stop-color="#43B4CA"/>
<stop offset="0.72" stop-color="#28E0B9"/>
<stop offset="0.97" stop-color="#19FB9B"/>
</linearGradient>
</defs>
</svg>
