<svg width="32" height="32" viewBox="0 0 32 32" fill="none" xmlns="http://www.w3.org/2000/svg">
<path d="M7.6426 25.5889C7.96641 25.6985 8.35257 25.9198 8.67678 26.0723C11.287 27.2998 14.3462 27.3551 16.7676 28.9863C16.9501 29.1093 17.6886 29.6472 17.6387 29.8613L17.5908 29.8818C16.3733 30.0885 14.8184 30.008 13.626 29.7041C11.7486 29.2258 10.1395 28.3284 8.77541 26.9551C8.35008 26.5267 7.95615 26.112 7.6426 25.5889Z" fill="white"/>
<path d="M5.60647 19.6572C5.74675 19.7085 6.45497 20.3298 6.66408 20.4697C7.38711 20.9549 8.14095 21.3933 8.91994 21.7822C10.0282 22.3371 11.3822 22.8039 12.5742 23.1504C13.5527 23.4346 14.5571 23.6635 15.5313 23.9795C17.2843 24.5478 19.159 25.4253 20.3477 26.8877C20.7326 27.3612 21.0126 27.8926 21.2891 28.4307L20.6582 28.8027C20.1852 29.0792 19.8453 29.2086 19.3369 29.417C18.6677 28.2676 16.983 27.2463 15.7813 26.7461C14.2518 26.1095 12.5764 25.8442 10.9932 25.3613C9.86501 25.0131 8.77321 24.5562 7.73342 23.9971C7.29145 23.7554 6.72629 23.4842 6.37111 23.126C5.89381 22.6444 5.59606 20.3905 5.60647 19.6572Z" fill="white"/>
<path d="M6.6465 15.1504C7.02366 15.4372 7.37465 15.8172 7.74709 16.1191C9.49171 17.5334 11.5953 18.5122 13.7324 19.1807C15.9946 19.8883 18.2482 20.3502 20.3028 21.6133C22.024 22.6717 23.4881 24.1631 23.9951 26.1719C23.7888 26.5206 23.1863 27.0353 22.877 27.3018L22.4961 27.6162C22.3844 27.3101 22.1606 26.9234 21.9971 26.6436C20.8097 24.6106 18.3877 23.2903 16.2071 22.5781C14.5707 22.0439 12.9563 21.7238 11.2901 21.124C9.93703 20.6355 8.65607 19.9666 7.48244 19.1348C7.03671 18.8142 6.19871 18.1336 5.85744 17.7051C5.88773 16.9466 6.2313 15.7811 6.6465 15.1504Z" fill="white"/>
<path d="M8.65529 11.5508C8.89062 11.585 9.17377 11.8862 9.34963 12.0518C10.1777 12.8312 11.1465 13.5049 12.1543 14.0303C15.1629 15.5605 18.2183 15.7943 21.2403 17.3994C23.1094 18.3922 25.087 20.2224 25.9287 22.2852C26.1119 22.7352 25.2709 24.2091 25 24.6924L24.918 24.4854C24.6038 23.844 24.2443 23.2002 23.7998 22.6367C22.3614 20.8125 20.1906 19.6102 18.0244 18.8682C16.4945 18.3441 14.9352 17.9777 13.4121 17.4404C11.8902 16.9035 10.4472 16.2425 9.15529 15.2666C8.70988 14.9301 7.71526 14.1203 7.41018 13.668C7.50642 13.2986 8.3801 11.8125 8.65529 11.5508Z" fill="white"/>
<path d="M11.1924 8.15332C11.3505 8.23001 11.8832 8.81546 12.0723 8.96973C14.0614 10.5922 16.4582 11.2674 18.8711 11.9756C20.6774 12.5057 22.486 13.3123 23.9424 14.5293C24.5967 15.0763 25.3602 15.7488 25.8184 16.4883C26.0781 16.964 26.2963 18.0681 26.3291 18.6143C26.345 18.8754 26.4666 19.9465 26.3262 20.1162C26.1984 20.0787 25.8043 19.435 25.6836 19.2666C23.507 16.3356 20.5982 15.1989 17.2129 14.2217C14.4712 13.4303 11.5305 12.425 9.6299 10.1621L9.63869 10.1436C9.80248 9.75123 10.8729 8.5216 11.1924 8.15332Z" fill="white"/>
<path d="M16.1016 2.01758C16.7081 2.25437 20.0134 6.89257 20.627 7.72754C21.4443 8.83981 22.286 9.93828 23.0674 11.0762C23.3224 11.4474 23.5577 11.8308 23.7988 12.2109C23.9863 12.5067 24.1878 12.7992 24.3438 13.1133C23.9767 12.8944 23.5714 12.5639 23.2071 12.3164C22.7691 12.019 22.4097 11.8245 21.9385 11.584C21.0235 11.1075 20.0041 10.7312 19.0166 10.4346C18.3493 10.2341 17.6702 10.0653 17.0078 9.84961C15.5955 9.38976 14.1574 8.7211 12.9795 7.80664C12.7254 7.60937 12.334 7.33993 12.1709 7.05957C12.1334 6.99501 12.1287 6.94042 12.1504 6.86914C12.2618 6.50366 15.1644 2.80556 15.5801 2.35742C15.7159 2.21101 15.8454 2.10022 16.0205 2.00391C16.0488 2.00607 16.0748 2.00717 16.1016 2.01758Z" fill="white"/>
</svg>
