<svg preserveAspectRatio="none" width="100%" height="100%" overflow="visible" style="display: block;" viewBox="0 0 25.3705 18.3717" fill="none" xmlns="http://www.w3.org/2000/svg">
<g id="Arcium Logomark 1" clip-path="url(#clip0_0_4)">
<g id="Union">
<path d="M7.81516 1.68468C8.84307 -0.607973 12.6106 -0.514455 13.716 1.68468L20.4771 16.1722H21.925L15.0544 1.50437C14.7571 0.942823 14.6021 0.514691 14.1044 0.0601091C14.1399 0.0561014 16.5989 -0.214827 17.446 1.45772L25.3706 18.3717H19.1073L11.9066 2.96209C11.4542 2.00608 10.051 1.95276 9.56622 2.989L2.40411 18.3655H0L7.81516 1.68468Z" fill="var(--fill-0, white)"/>
<path d="M10.4713 4.0251C10.7622 3.41004 10.6974 3.40327 10.9818 4.01165L11.9192 6.00401L6.24441 18.3655H3.83312L10.4713 4.0251Z" fill="var(--fill-0, white)"/>
</g>
</g>
<defs>
<clipPath id="clip0_0_4">
<rect width="25.3705" height="18.3717" fill="white"/>
</clipPath>
</defs>
</svg>
