<svg width="109" height="109" viewBox="0 0 109 109" fill="none" xmlns="http://www.w3.org/2000/svg">
<path fill-rule="evenodd" clip-rule="evenodd" d="M54.4999 9.35742C83.7763 9.35742 107.51 29.5685 107.51 54.5C107.51 79.4315 83.7763 99.6427 54.4999 99.6427C25.2235 99.6426 1.49023 79.4315 1.49023 54.5C1.49023 29.5685 25.2235 9.35744 54.4999 9.35742ZM54.4999 43.1083C40.7961 43.1084 29.687 54.8487 29.6869 69.3311C29.6869 83.8136 40.7961 95.5541 54.4999 95.5542C68.2037 95.5542 79.3131 83.8136 79.3131 69.3311C79.3131 54.8487 68.2037 43.1083 54.4999 43.1083ZM54.4999 13.3099C40.7961 13.3099 29.687 18.6435 29.6869 25.2229C29.6869 31.8023 40.7961 37.1361 54.4999 37.1362C68.2037 37.1362 79.3131 31.8023 79.3131 25.2229C79.313 18.6435 68.2037 13.3099 54.4999 13.3099Z" fill="white"/>
</svg>
