<svg preserveAspectRatio="none" width="100%" height="100%" overflow="visible" style="display: block;" viewBox="0 0 32 32" fill="none" xmlns="http://www.w3.org/2000/svg">
<g id="Sanctum white">
<path id="Vector" fill-rule="evenodd" clip-rule="evenodd" d="M10.9752 25.6751C10.9718 25.6751 10.9683 25.6752 10.9647 25.6752C6.776 25.6752 3.38032 22.2795 3.38032 18.0908C3.38032 14.4595 5.93223 11.4244 9.34045 10.6807C11.0604 8.27919 13.8741 6.71429 17.0533 6.71429C21.9538 6.71429 25.9858 10.4323 26.4824 15.2013C27.7882 16.2871 28.6195 17.9241 28.6195 19.7552C28.6195 23.0248 25.969 25.6752 22.6995 25.6752C22.6886 25.6752 22.6776 25.6752 22.6668 25.6751H17.0934C17.08 25.6752 17.0667 25.6752 17.0533 25.6752C17.0399 25.6752 17.0266 25.6752 17.0132 25.6751H10.9752ZM15.0622 14.3938C15.9613 14.3938 16.69 13.6651 16.69 12.7661C16.69 11.8672 15.9613 11.1385 15.0622 11.1385C14.1634 11.1385 13.4345 11.8672 13.4345 12.7661C13.4345 13.6651 14.1634 14.3938 15.0622 14.3938ZM21.5726 14.3938C22.4715 14.3938 23.2003 13.6651 23.2003 12.7661C23.2003 11.8672 22.4715 11.1385 21.5726 11.1385C20.6736 11.1385 19.9449 11.8672 19.9449 12.7661C19.9449 13.6651 20.6736 14.3938 21.5726 14.3938ZM21.2815 15.8677C21.8995 15.7808 22.4211 15.7074 22.7351 15.7074C23.5056 15.7074 24.1302 16.3321 24.1302 17.1025C24.1302 20.3128 21.5276 22.9153 18.3174 22.9153C15.1071 22.9153 12.5045 20.3128 12.5045 17.1025C12.5045 16.3321 13.1293 15.7074 13.8997 15.7074C14.2137 15.7074 14.7353 15.7808 15.3533 15.8677C16.2515 15.9942 17.3532 16.1492 18.3174 16.1492C19.2815 16.1492 20.3833 15.9942 21.2815 15.8677ZM18.3172 21.7528C19.5911 21.7528 20.7455 21.2404 21.5852 20.4106H21.5848C21.9585 20.0412 21.8361 19.4096 21.3539 19.2014C20.5392 18.8498 19.4778 18.637 18.3169 18.637C17.1561 18.637 16.0947 18.8498 15.28 19.2014C14.7978 19.4096 14.6754 20.0414 15.0491 20.4106C15.8891 21.2404 17.0432 21.7528 18.3172 21.7528Z" fill="var(--fill-0, white)"/>
</g>
</svg>
