<svg width="32" height="32" viewBox="0 0 32 32" fill="none" xmlns="http://www.w3.org/2000/svg">
<path fill-rule="evenodd" clip-rule="evenodd" d="M10.9753 25.6752C10.9719 25.6752 10.9683 25.6753 10.9648 25.6753C6.77605 25.6753 3.38037 22.2796 3.38037 18.0909C3.38037 14.4596 5.93228 11.4244 9.3405 10.6807C11.0605 8.27926 13.8741 6.71436 17.0533 6.71436C21.9538 6.71436 25.9858 10.4323 26.4825 15.2013C27.7882 16.2872 28.6196 17.9241 28.6196 19.7553C28.6196 23.0249 25.969 25.6753 22.6996 25.6753C22.6887 25.6753 22.6777 25.6753 22.6668 25.6752H17.0934C17.0801 25.6753 17.0667 25.6753 17.0533 25.6753C17.04 25.6753 17.0266 25.6753 17.0132 25.6752H10.9753ZM15.0623 14.3938C15.9613 14.3938 16.69 13.6652 16.69 12.7661C16.69 11.8673 15.9613 11.1386 15.0623 11.1386C14.1634 11.1386 13.4346 11.8673 13.4346 12.7661C13.4346 13.6652 14.1634 14.3938 15.0623 14.3938ZM21.5726 14.3938C22.4715 14.3938 23.2003 13.6652 23.2003 12.7661C23.2003 11.8673 22.4715 11.1386 21.5726 11.1386C20.6736 11.1386 19.9449 11.8673 19.9449 12.7661C19.9449 13.6652 20.6736 14.3938 21.5726 14.3938ZM21.2816 15.8678C21.8996 15.7809 22.4211 15.7074 22.7352 15.7074C23.5056 15.7074 24.1302 16.3321 24.1302 17.1026C24.1302 20.3128 21.5277 22.9153 18.3175 22.9153C15.1071 22.9153 12.5046 20.3128 12.5046 17.1026C12.5046 16.3321 13.1293 15.7074 13.8998 15.7074C14.2138 15.7074 14.7354 15.7809 15.3534 15.8678C16.2516 15.9942 17.3533 16.1493 18.3175 16.1493C19.2815 16.1493 20.3834 15.9942 21.2816 15.8678ZM18.3172 21.7528C19.5912 21.7528 20.7455 21.2404 21.5853 20.4106H21.5848C21.9586 20.0413 21.8362 19.4097 21.3539 19.2015C20.5393 18.8499 19.4779 18.6371 18.317 18.6371C17.1561 18.6371 16.0947 18.8499 15.28 19.2015C14.7978 19.4097 14.6754 20.0415 15.0492 20.4106C15.8892 21.2404 17.0433 21.7528 18.3172 21.7528Z" fill="white"/>
</svg>
