<svg preserveAspectRatio="none" width="100%" height="100%" overflow="visible" style="display: block;" viewBox="0 0 32 32" fill="none" xmlns="http://www.w3.org/2000/svg">
<g id="Sanctum Gateway white">
<g id="Union">
<path d="M19.8105 18.0752C21.1368 18.0752 22.2744 18.3064 23.0811 18.6885C23.5584 18.9147 23.4752 19.6006 22.918 20.002C21.6654 20.9038 20.1656 21.4609 18.71 21.4609C17.2543 21.4609 16.116 20.9038 15.4492 20.002C15.153 19.6008 15.5163 18.9146 16.1406 18.6885C17.1958 18.3064 18.4841 18.0752 19.8105 18.0752Z" fill="var(--fill-0, white)"/>
<path fill-rule="evenodd" clip-rule="evenodd" d="M15.999 2C18.667 2.00004 21.0679 3.75505 22.7373 6.55273C22.726 6.55159 22.7144 6.55089 22.7031 6.5498C27.0567 6.97317 29.5305 10.359 28.6123 14.624C29.5891 15.663 29.918 17.23 29.3486 18.9824C28.3321 22.1105 24.8408 24.6473 21.5518 24.6475H11.2207C11.2444 24.6847 11.2661 24.723 11.29 24.7598C12.7033 26.9267 14.4139 27.913 15.999 27.9131C16.0155 27.9131 16.0323 27.9123 16.0488 27.9121H20.7969C19.4027 29.2351 17.7591 30 15.999 30L15.8809 29.999C12.9978 29.9427 10.4391 27.8359 8.79102 24.5879H8.78809C8.76413 24.5407 8.74232 24.492 8.71875 24.4443C8.68412 24.3742 8.64901 24.3035 8.61523 24.2324C8.56493 24.1265 8.51617 24.0193 8.46777 23.9111C8.43799 23.8446 8.40697 23.7783 8.37793 23.7109C8.2331 23.3751 8.0976 23.0291 7.97168 22.6738C7.94521 22.5991 7.92013 22.5237 7.89453 22.4482C7.85362 22.3276 7.81308 22.2056 7.77441 22.083C7.75086 22.0083 7.72876 21.9329 7.70605 21.8574C7.67331 21.7486 7.64034 21.6386 7.60938 21.5283C7.58629 21.4461 7.56407 21.3633 7.54199 21.2803C7.51114 21.1643 7.48198 21.0472 7.45312 20.9297C7.43168 20.8423 7.40998 20.7542 7.38965 20.666C7.36212 20.5466 7.336 20.4265 7.31055 20.3057C7.29602 20.2367 7.27947 20.1671 7.26562 20.0977C7.18458 19.6913 7.11654 19.2766 7.05957 18.8555C7.04678 18.7608 7.03595 18.6657 7.02441 18.5703C7.01137 18.4626 6.99775 18.3546 6.98633 18.2461C6.9765 18.1527 6.9676 18.0589 6.95898 17.9648C6.9466 17.8297 6.93563 17.694 6.92578 17.5576C6.92065 17.4865 6.9146 17.4152 6.91016 17.3438C6.89886 17.1619 6.89148 16.9787 6.88477 16.7949C6.88325 16.7534 6.88116 16.7115 6.87988 16.6699C6.87306 16.448 6.86817 16.2245 6.86816 16C6.86816 15.9754 6.86905 15.9504 6.86914 15.9258L6.87207 15.6387C6.87302 15.5813 6.87555 15.5239 6.87695 15.4668C6.87975 15.3536 6.88314 15.2404 6.8877 15.1279C6.89221 15.0153 6.89708 14.9029 6.90332 14.791C6.90884 14.6928 6.91601 14.5947 6.92285 14.4971C6.93156 14.372 6.94033 14.2471 6.95117 14.123C6.96003 14.0222 6.97121 13.9215 6.98145 13.8213C6.99443 13.6939 7.00628 13.5666 7.02148 13.4404C7.02309 13.4271 7.02473 13.4127 7.02637 13.3994L7.02734 13.3975C7.81584 6.96675 11.4711 2.08709 15.8809 2.00098L15.999 2ZM24.6855 15.1094C23.91 15.1096 21.7413 15.5331 20.1045 15.5332C18.4672 15.5332 16.5719 15.1094 15.7969 15.1094C15.0218 15.1095 14.1995 15.7082 13.96 16.4453C12.9624 19.5166 14.7716 22.0067 18.001 22.0068C21.2304 22.0067 24.6581 19.5166 25.6562 16.4453C25.8958 15.7082 25.4605 15.1095 24.6855 15.1094ZM18.3877 10.7383C17.4833 10.7383 16.5226 11.4358 16.2432 12.2959C15.9642 13.1556 16.4711 13.8523 17.375 13.8525C18.2791 13.8524 19.2389 13.1556 19.5186 12.2959C19.7979 11.436 19.2917 10.7386 18.3877 10.7383ZM24.9375 10.7383C24.0334 10.7385 23.0735 11.435 22.7939 12.2949C22.5146 13.1549 23.0216 13.8524 23.9258 13.8525C24.8299 13.8522 25.7888 13.1547 26.0684 12.2949C26.3476 11.435 25.8416 10.7385 24.9375 10.7383ZM15.999 4.08691C14.4139 4.08698 12.7033 5.07331 11.29 7.24023C10.5213 8.41896 9.89391 9.88204 9.4834 11.5439C10.5212 10.9518 11.6399 10.5211 12.7725 10.3008C14.863 8.36116 17.5524 6.99144 20.2637 6.61133C18.9447 4.88207 17.4215 4.08695 15.999 4.08691Z" fill="var(--fill-0, white)"/>
<path d="M8.11914 3.97949C7.91894 4.24485 7.72727 4.51826 7.54492 4.79785C5.60541 7.77185 4.48345 11.7396 4.4834 16C4.48347 20.2604 5.60539 24.2282 7.54492 27.2021C7.72707 27.4814 7.91917 27.7545 8.11914 28.0195C4.78822 26.4113 2.37219 21.6385 2.37207 16L2.37402 15.6748C2.46486 10.1782 4.85206 5.55649 8.11914 3.97949Z" fill="var(--fill-0, white)"/>
</g>
</g>
</svg>
