<svg preserveAspectRatio="none" width="100%" height="100%" overflow="visible" style="display: block;" viewBox="0 0 32 32" fill="none" xmlns="http://www.w3.org/2000/svg">
<g id="Dflow white">
<path id="Union" d="M9.53269 17.1063C9.87963 17.1063 10.2134 17.2362 10.4702 17.4686L10.521 17.5165L14.479 21.4725C14.7275 21.721 14.8737 22.0536 14.8911 22.4042L14.893 22.4745V28.6473C14.8929 29.4836 14.1719 30.1421 13.3589 29.9706C7.6929 28.7724 3.23028 24.3139 2.02976 18.6522C1.85926 17.8465 2.49137 17.1295 3.30418 17.1073L3.34226 17.1063H9.53269ZM28.6958 17.1073C29.5087 17.1295 30.1405 17.8465 29.9702 18.6522C28.7697 24.3136 24.3078 28.7721 18.6421 29.9706C17.8288 30.1424 17.1071 29.484 17.1069 28.6473V22.4735L17.1089 22.4032C17.1263 22.0526 17.2724 21.72 17.521 21.4716L21.479 17.5165L21.5288 17.4686C21.7687 17.2516 22.0758 17.1243 22.3979 17.1083L22.4673 17.1063H28.6577L28.6958 17.1073ZM4.34812 19.2245C5.56237 23.248 8.747 26.4316 12.7895 27.6425V23.3524C12.7895 22.9785 12.6409 22.6197 12.3764 22.3553L9.65672 19.6376C9.39233 19.3733 9.03343 19.2245 8.65964 19.2245H4.34812ZM23.3403 19.2245C22.9664 19.2245 22.6076 19.3734 22.3432 19.6376L19.6245 22.3544C19.3599 22.6188 19.2104 22.9784 19.2104 23.3524V27.6425C23.2529 26.4316 26.4377 23.2478 27.6518 19.2245H23.3403ZM13.3589 2.02917C14.172 1.85759 14.893 2.51696 14.893 3.35339V9.52624L14.8911 9.59656C14.8737 9.94707 14.7276 10.2797 14.479 10.5282L10.521 14.4833L10.4702 14.5311C10.2133 14.7636 9.8797 14.8934 9.53269 14.8934H3.34226L3.30418 14.8925C2.49128 14.8702 1.85904 14.1533 2.02976 13.3475C3.23028 7.68583 7.6929 3.22723 13.3589 2.02917ZM17.1069 3.35339C17.107 2.51678 17.8275 1.85774 18.6401 2.02917C24.3044 3.22454 28.7669 7.68241 29.9702 13.3456C30.1442 14.1648 29.4892 14.8934 28.6577 14.8934H22.4643C22.0945 14.8933 21.7394 14.7459 21.477 14.4833L17.521 10.5262C17.2724 10.2776 17.1262 9.94441 17.1089 9.59363L17.1069 9.52331V3.35339ZM12.7895 4.3573C8.74707 5.56798 5.56243 8.75193 4.34812 12.7753H8.65964C9.03334 12.7753 9.39235 12.6273 9.65672 12.3632L12.3764 9.64538C12.641 9.38096 12.7895 9.02139 12.7895 8.64734V4.3573ZM19.2094 8.64538C19.2094 9.01923 19.3582 9.37807 19.6225 9.64245L22.3403 12.3612C22.6048 12.6256 22.9634 12.7742 23.3374 12.7743H27.6528C26.4367 8.75 23.2511 5.56703 19.2094 4.35827V8.64538Z" fill="var(--fill-0, white)"/>
</g>
</svg>
