<svg preserveAspectRatio="none" width="100%" height="100%" overflow="visible" style="display: block;" viewBox="0 0 28 28" fill="none" xmlns="http://www.w3.org/2000/svg">
<g id="Frame 1000002789">
<path id="Vector" d="M14 28C21.732 28 28 21.732 28 14C28 6.26801 21.732 0 14 0C6.26801 0 0 6.26801 0 14C0 21.732 6.26801 28 14 28Z" fill="var(--fill-0, #FDDE00)"/>
<path id="Vector_2" d="M7.18604 9.89844C7.18604 9.89844 6.46417 10.8117 6.70479 14.9406C6.70479 14.9406 5.12432 18.9875 5.66026 21.0547C6.1962 23.1164 8.28526 23.0125 8.28526 23.0125C8.28526 23.0125 11.6376 25.9602 14.2079 23.3625C16.7837 20.7594 12.0642 10.6805 12.0642 10.6805L11.4735 7.19688C11.4735 7.19688 10.8282 7.70547 10.9103 11.0578C10.9923 14.4102 9.59776 12.0477 9.59776 12.0477L7.18604 9.89844Z" fill="var(--fill-0, #3C2D0C)"/>
<path id="Vector_3" d="M7.45401 13.5461L6.56807 16.0398L6.24542 17.7843C6.24542 17.7843 5.1462 21.6726 9.67979 21.6179C9.67979 21.6179 13.2181 24.7843 15.5259 22.6625L16.1439 21.9898L17.2157 20.3273L18.9876 15.0445C18.9876 15.0445 18.4243 11.4242 14.8587 9.92574C14.8587 9.92574 14.5634 9.76715 14.0274 9.98043C14.0274 9.98043 12.5509 6.65543 11.6157 7.06012C11.6157 7.06012 10.8118 7.48668 11.5064 10.7625L10.2485 11.3257C10.2485 11.3257 8.87042 8.71168 7.5962 9.23668C6.40948 9.71246 7.45401 13.5461 7.45401 13.5461Z" fill="var(--fill-0, #E78C19)"/>
<g id="Union">
<path d="M8.16457 10.3193C8.18098 10.3084 8.54238 9.85471 9.2915 10.9593C10.0404 12.0635 9.9639 11.9213 9.9639 11.9213C9.96657 11.9242 10.3656 12.3661 9.54269 12.9329C9.36224 13.0641 9.16522 13.1735 8.95744 13.261C8.82635 13.3101 8.68986 13.3378 8.55332 13.3378C8.39474 13.3324 8.32332 13.2497 8.28504 13.102C8.1593 12.621 8.01692 12.1399 7.94585 11.6479C7.89117 11.2652 7.78209 10.5655 8.16457 10.3193Z" fill="var(--fill-0, #EFB99D)"/>
<path d="M12.1725 7.9954C12.4185 7.95166 12.6432 8.32912 12.7526 8.49863C12.9657 8.83204 13.1131 9.19835 13.2934 9.54269C13.3918 9.72306 13.5401 9.91991 13.5566 10.1331C13.5784 10.4174 13.3595 10.5927 13.108 10.6747C12.2351 10.9675 12.1466 10.1529 12.1451 10.139L12.0358 8.69001C11.9878 7.95918 12.1639 7.9933 12.1725 7.9954Z" fill="var(--fill-0, #EFB99D)"/>
</g>
<g id="Union_2">
<path d="M15.482 15.5534C15.482 15.5534 18.4026 14.0273 19.1136 15.2031C19.8244 16.3789 19.1136 18.1784 19.1136 18.1784C19.1091 18.2082 18.7915 20.2847 16.6577 20.4693L15.5042 20.6283L14.0276 20.6667C14.0276 20.6667 11.6543 20.8028 9.90982 19.5123L9.35696 18.8398C9.3499 18.8301 8.24964 17.3105 9.02371 16.2148C9.80035 15.1158 12.4579 16.8164 12.4579 16.8164C12.4624 16.8188 12.832 17.0174 13.1364 16.7728L15.482 15.5534Z" fill="var(--fill-0, #FBFBFB)"/>
<path d="M10.8728 14.0068C11.1271 13.5576 11.5673 13.3257 11.8564 13.489C12.1454 13.6526 12.1737 14.1496 11.9196 14.599C11.6652 15.0485 11.2244 15.2804 10.9352 15.1168C10.6463 14.9531 10.6185 14.4562 10.8728 14.0068Z" fill="var(--fill-0, #FBFBFB)"/>
<path d="M16.0177 11.8945C16.488 11.8945 16.8714 12.2831 16.8714 12.5456C16.871 12.808 16.4882 13.0207 16.0126 13.0207C15.537 13.0207 15.1542 12.808 15.1538 12.5456C15.1538 12.2832 15.5475 11.8947 16.0177 11.8945Z" fill="var(--fill-0, #FBFBFB)"/>
</g>
<g id="Union_3">
<path d="M18.4571 9.56518C18.7681 9.56521 19.0202 9.81722 19.0202 10.1283C19.0201 10.4393 18.7681 10.6914 18.4571 10.6914C18.146 10.6914 17.894 10.4393 17.894 10.1283C17.894 9.8172 18.146 9.56518 18.4571 9.56518Z" fill="var(--fill-0, #E72D36)"/>
<path d="M21.2846 7.12048C21.8259 6.78696 22.0882 7.01646 22.3014 7.35547C22.5092 7.7 22.5694 7.98471 22.0553 8.36206C20.7046 9.34085 19.3044 9.93105 19.0911 9.58654C18.8786 9.24158 19.9779 7.9351 21.2846 7.12048Z" fill="var(--fill-0, #E72D36)"/>
<path d="M17.2104 8.18091C17.5214 8.18099 17.7735 8.43383 17.7735 8.74487C17.7733 9.05575 17.5213 9.3079 17.2104 9.30798C16.8994 9.30798 16.6474 9.05579 16.6473 8.74487C16.6473 8.43378 16.8993 8.18091 17.2104 8.18091Z" fill="var(--fill-0, #E72D36)"/>
<path d="M15.2143 7.73828C15.5252 7.73836 15.7773 7.99043 15.7774 8.30139C15.7774 8.61243 15.5253 8.86442 15.2143 8.8645C14.9032 8.8645 14.6512 8.61248 14.6512 8.30139C14.6513 7.99038 14.9032 7.73828 15.2143 7.73828Z" fill="var(--fill-0, #E72D36)"/>
<path d="M18.0743 4.70825C18.3531 4.13433 18.6978 4.18893 19.0586 4.36389C19.4196 4.54436 19.6219 4.75251 19.3868 5.34314C18.7743 6.89071 17.9045 8.14313 17.5436 7.96814C17.1827 7.79301 17.4016 6.09725 18.0743 4.70825Z" fill="var(--fill-0, #E72D36)"/>
<path d="M14.9297 3.57092C15.3398 3.57092 15.6131 3.67498 15.6569 4.3092C15.7772 5.97147 15.5368 7.47553 15.1322 7.47595C14.7275 7.47595 14.1914 5.85139 14.1914 4.3092C14.1915 3.67497 14.5251 3.57092 14.9297 3.57092Z" fill="var(--fill-0, #E72D36)"/>
</g>
<g id="Union_4">
<path d="M16.9638 15.2744C18.3568 14.9937 18.4008 15.5018 18.4017 15.5145C18.4892 16.2196 18.1668 16.712 17.948 17.0729C17.7329 17.4332 17.3588 17.2912 17.3466 17.2865C17.3466 17.2865 15.9302 16.9416 15.8591 16.28C15.7883 15.6185 16.9638 15.2744 16.9638 15.2744Z" fill="var(--fill-0, black)"/>
<path d="M13.0268 15.1377C13.4532 15.105 13.8081 15.2469 13.8299 15.4547C13.8462 15.6624 13.5131 15.8593 13.0866 15.8921C12.6658 15.9249 12.3053 15.7828 12.2886 15.5751C12.2832 15.5587 12.2886 15.5471 12.2886 15.5307C12.6219 15.5197 12.89 15.378 12.8901 15.2086C12.8901 15.1868 12.8845 15.1703 12.879 15.1539C12.9281 15.1485 12.9777 15.1431 13.0268 15.1377Z" fill="var(--fill-0, black)"/>
<path d="M15.9898 14.4046C16.4161 14.3718 16.7771 14.514 16.7938 14.7216C16.8102 14.9294 16.4769 15.1262 16.0505 15.159C15.6294 15.1919 15.268 15.0499 15.2516 14.8421C15.2463 14.8258 15.2516 14.8148 15.2516 14.7985C15.5852 14.7876 15.8531 14.6451 15.8531 14.4755C15.8531 14.4538 15.8483 14.4372 15.8428 14.4209C15.8918 14.4154 15.9408 14.4101 15.9898 14.4046Z" fill="var(--fill-0, black)"/>
</g>
</g>
</svg>
