<svg preserveAspectRatio="none" width="100%" height="100%" overflow="visible" style="display: block;" viewBox="0 0 27.9922 27.575" fill="none" xmlns="http://www.w3.org/2000/svg">
<g id="Frame 128">
<path id="Vector" d="M27.9922 13.7874C27.9922 6.18216 21.7259 0.01687 13.9961 0.01687C6.26629 0.01687 2.43187e-05 6.18216 2.43187e-05 13.7874C2.43187e-05 21.3927 6.26629 27.558 13.9961 27.558C21.7259 27.558 27.9922 21.3927 27.9922 13.7874Z" fill="url(#paint0_linear_100_2464)"/>
<path id="Vector_2" d="M13.9961 26.5253C21.1462 26.5253 26.9425 20.8224 26.9425 13.7875C26.9425 6.7526 21.1462 1.04971 13.9961 1.04971C6.846 1.04971 1.04971 6.7526 1.04971 13.7875C1.04971 20.8224 6.846 26.5253 13.9961 26.5253Z" fill="url(#paint1_linear_100_2464)" stroke="url(#paint2_linear_100_2464)" stroke-width="2.09941"/>
<g id="Group" filter="url(#filter0_d_100_2464)">
<path id="Vector_3" fill-rule="evenodd" clip-rule="evenodd" d="M10.5087 20.2204C7.41062 20.2203 4.89919 17.7493 4.89919 14.7012C4.89919 12.0588 6.78652 9.85008 9.30722 9.30881C10.5793 7.56115 12.6605 6.42233 15.0119 6.42233C18.6363 6.42233 21.6184 9.12768 21.9859 12.5979C22.952 13.3882 23.5671 14.5795 23.5671 15.9123C23.5671 18.2916 21.6067 20.2204 19.1884 20.2204L19.188 20.2204H15.0327L15.0119 20.2204L14.9912 20.2204H10.5087ZM15.9199 14.3914C16.1895 14.3914 16.4081 14.6064 16.4081 14.8717V15.3788C16.4081 15.6441 16.1895 15.8591 15.9199 15.8591C15.6503 15.8591 15.4317 15.6441 15.4317 15.3788V14.8717C15.4317 14.6064 15.6503 14.3914 15.9199 14.3914ZM13.0591 10.9226C13.0591 9.99415 13.8241 9.24155 14.7677 9.24155C15.7113 9.24155 16.4763 9.99415 16.4763 10.9226V11.6719C15.9307 11.6529 15.3704 11.6431 14.7677 11.6431C14.165 11.6431 13.6048 11.6529 13.0591 11.6719V10.9226ZM12.0828 11.7762V10.9226C12.0828 9.46364 13.2849 8.28097 14.7677 8.28097C16.2506 8.28097 17.4526 9.46364 17.4526 10.9226V11.7762C18.2179 12.0066 18.7954 12.669 18.9051 13.4707C18.9774 13.9992 19.0391 14.5545 19.0391 15.1252C19.0391 15.6959 18.9774 16.2512 18.9051 16.7797C18.7726 17.7485 17.9568 18.514 16.9522 18.5594C16.2548 18.5909 15.5467 18.6073 14.7677 18.6073C13.9887 18.6073 13.2806 18.5909 12.5833 18.5594C11.5786 18.514 10.7628 17.7485 10.6302 16.7797C10.5579 16.2512 10.4962 15.6959 10.4962 15.1252C10.4962 14.5545 10.5579 13.9992 10.6302 13.4707C10.74 12.669 11.3175 12.0066 12.0828 11.7762ZM13.6154 14.3914C13.885 14.3914 14.1036 14.6064 14.1036 14.8716V15.3787C14.1036 15.644 13.885 15.859 13.6154 15.859C13.3458 15.859 13.1272 15.644 13.1272 15.3787V14.8716C13.1272 14.6064 13.3458 14.3914 13.6154 14.3914Z" fill="var(--fill-0, #F7F9FB)"/>
<path id="Vector_4" fill-rule="evenodd" clip-rule="evenodd" d="M10.5087 20.2204C7.41062 20.2203 4.89919 17.7493 4.89919 14.7012C4.89919 12.0588 6.78652 9.85008 9.30722 9.30881C10.5793 7.56115 12.6605 6.42233 15.0119 6.42233C18.6363 6.42233 21.6184 9.12768 21.9859 12.5979C22.952 13.3882 23.5671 14.5795 23.5671 15.9123C23.5671 18.2916 21.6067 20.2204 19.1884 20.2204L19.188 20.2204H15.0327L15.0119 20.2204L14.9912 20.2204H10.5087ZM15.9199 14.3914C16.1895 14.3914 16.4081 14.6064 16.4081 14.8717V15.3788C16.4081 15.6441 16.1895 15.8591 15.9199 15.8591C15.6503 15.8591 15.4317 15.6441 15.4317 15.3788V14.8717C15.4317 14.6064 15.6503 14.3914 15.9199 14.3914ZM13.0591 10.9226C13.0591 9.99415 13.8241 9.24155 14.7677 9.24155C15.7113 9.24155 16.4763 9.99415 16.4763 10.9226V11.6719C15.9307 11.6529 15.3704 11.6431 14.7677 11.6431C14.165 11.6431 13.6048 11.6529 13.0591 11.6719V10.9226ZM12.0828 11.7762V10.9226C12.0828 9.46364 13.2849 8.28097 14.7677 8.28097C16.2506 8.28097 17.4526 9.46364 17.4526 10.9226V11.7762C18.2179 12.0066 18.7954 12.669 18.9051 13.4707C18.9774 13.9992 19.0391 14.5545 19.0391 15.1252C19.0391 15.6959 18.9774 16.2512 18.9051 16.7797C18.7726 17.7485 17.9568 18.514 16.9522 18.5594C16.2548 18.5909 15.5467 18.6073 14.7677 18.6073C13.9887 18.6073 13.2806 18.5909 12.5833 18.5594C11.5786 18.514 10.7628 17.7485 10.6302 16.7797C10.5579 16.2512 10.4962 15.6959 10.4962 15.1252C10.4962 14.5545 10.5579 13.9992 10.6302 13.4707C10.74 12.669 11.3175 12.0066 12.0828 11.7762ZM13.6154 14.3914C13.885 14.3914 14.1036 14.6064 14.1036 14.8716V15.3787C14.1036 15.644 13.885 15.859 13.6154 15.859C13.3458 15.859 13.1272 15.644 13.1272 15.3787V14.8716C13.1272 14.6064 13.3458 14.3914 13.6154 14.3914Z" fill="url(#paint3_linear_100_2464)"/>
</g>
</g>
<defs>
<filter id="filter0_d_100_2464" x="3.19919" y="4.72233" width="22.0679" height="17.1981" filterUnits="userSpaceOnUse" color-interpolation-filters="sRGB">
<feFlood flood-opacity="0" result="BackgroundImageFix"/>
<feColorMatrix in="SourceAlpha" type="matrix" values="0 0 0 0 0 0 0 0 0 0 0 0 0 0 0 0 0 0 127 0" result="hardAlpha"/>
<feOffset/>
<feGaussianBlur stdDeviation="0.85"/>
<feComposite in2="hardAlpha" operator="out"/>
<feColorMatrix type="matrix" values="0 0 0 0 0 0 0 0 0 0 0 0 0 0 0 0 0 0 0.6 0"/>
<feBlend mode="normal" in2="BackgroundImageFix" result="effect1_dropShadow_100_2464"/>
<feBlend mode="normal" in="SourceGraphic" in2="effect1_dropShadow_100_2464" result="shape"/>
</filter>
<linearGradient id="paint0_linear_100_2464" x1="13.9961" y1="0.01687" x2="13.9961" y2="27.558" gradientUnits="userSpaceOnUse">
<stop stop-color="#363636"/>
<stop offset="1" stop-color="#1B1B1C"/>
</linearGradient>
<linearGradient id="paint1_linear_100_2464" x1="13.9961" y1="0.0169141" x2="13.9961" y2="27.5581" gradientUnits="userSpaceOnUse">
<stop stop-color="#363636"/>
<stop offset="1" stop-color="#1B1B1C"/>
</linearGradient>
<linearGradient id="paint2_linear_100_2464" x1="13.9961" y1="0.0169141" x2="13.9961" y2="27.5581" gradientUnits="userSpaceOnUse">
<stop stop-color="#060606"/>
<stop offset="1" stop-color="#414141"/>
</linearGradient>
<linearGradient id="paint3_linear_100_2464" x1="10.3128" y1="6.42233" x2="10.3128" y2="20.2204" gradientUnits="userSpaceOnUse">
<stop offset="0.47541" stop-color="#F7F9FB"/>
<stop offset="1" stop-color="#E3E3E3"/>
</linearGradient>
</defs>
</svg>
