<svg width="32" height="32" viewBox="0 0 32 32" fill="none" xmlns="http://www.w3.org/2000/svg">
<path d="M16 2H16C8.26799 2 2 8.26799 2 16V16C2 23.732 8.26799 30 16 30H16C23.732 30 30 23.732 30 16V16C30 8.26799 23.732 2 16 2Z" fill="url(#paint0_linear_28_106)"/>
<path d="M22.7832 18.7461C22.9868 18.7464 23.0884 18.9927 22.9443 19.1367L20.7324 21.3467C20.6466 21.4323 20.5304 21.4805 20.4092 21.4805H9.2168C9.01326 21.4801 8.91079 21.2339 9.05469 21.0898L11.2666 18.8799C11.3522 18.7944 11.4689 18.7462 11.5898 18.7461H22.7832Z" fill="white"/>
<path d="M20.4092 14.5918C20.5301 14.5918 20.6467 14.6402 20.7324 14.7256L22.9443 16.9355C23.0885 17.0795 22.9868 17.3259 22.7832 17.3262H11.5898C11.4688 17.326 11.3523 17.278 11.2666 17.1924L9.05469 14.9824C8.91129 14.8384 9.01342 14.5921 9.2168 14.5918H20.4092Z" fill="white"/>
<path d="M22.7832 10.4902C22.987 10.4903 23.0885 10.7368 22.9443 10.8809L20.7334 13.0908C20.6476 13.1764 20.5304 13.2246 20.4092 13.2246H9.2168C9.01333 13.2242 8.91099 12.9781 9.05469 12.834L11.2666 10.624C11.3522 10.5384 11.4689 10.4904 11.5898 10.4902H22.7832Z" fill="white"/>
<path fill-rule="evenodd" clip-rule="evenodd" d="M16 4C22.6274 4.00003 28 9.37263 28 16C27.9999 22.6274 22.6274 28 16 28C9.37266 28 4.00006 22.6274 4 16C4 9.37262 9.37263 4 16 4ZM16 5C9.92491 5 5 9.9249 5 16C5.00006 22.0751 9.92495 27 16 27C22.0751 27 26.9999 22.0751 27 16C27 9.92493 22.0752 5.00003 16 5Z" fill="white"/>
<defs>
<linearGradient id="paint0_linear_28_106" x1="9.99999" y1="10.5" x2="21" y2="21.5" gradientUnits="userSpaceOnUse">
<stop stop-color="#7CD18B"/>
<stop offset="1" stop-color="#39997D"/>
</linearGradient>
</defs>
</svg>
