<svg preserveAspectRatio="none" width="100%" height="100%" overflow="visible" style="display: block;" viewBox="0 0 32 32" fill="none" xmlns="http://www.w3.org/2000/svg">
<g id="Jupiter">
<rect width="32" height="32" rx="8" fill="var(--fill-0, #111727)"/>
<path id="Union" d="M6.41906 18.8767C10.5727 17.242 17.5994 21.1163 18.4513 25.8386C17.8794 25.8939 17.3107 25.9818 16.7452 25.9851C16.599 25.9851 16.4202 25.7378 16.3097 25.572C14.4246 22.7477 11.7849 21.1298 8.44055 20.6326C8.38208 20.6261 8.32323 20.6156 8.26477 20.6091C7.88802 20.5573 7.34617 20.6417 7.16711 20.4246C6.81284 19.9988 6.65633 19.4033 6.41906 18.8767ZM8.05676 21.9744C9.98079 21.6689 13.8744 23.9018 14.9796 25.9656C12.087 25.5398 9.83132 24.2267 8.05676 21.9744ZM6.81555 15.3797C8.18709 14.8402 9.60781 14.8371 11.0216 15.1297C15.0191 15.9617 18.2558 17.9608 20.4269 21.4871C20.7974 22.0883 21.0216 22.8033 21.2003 23.489C21.5026 24.6558 21.3406 24.8672 20.0861 25.2507C19.1923 22.2346 17.2259 20.112 14.59 18.5877C11.9736 17.0763 9.17809 16.413 6.17492 17.1248C5.73313 16.1403 5.87638 15.7501 6.81555 15.3797ZM7.46203 11.9871C8.6581 11.376 9.96205 11.3207 11.2394 11.5222C16.0656 12.2828 20.0143 14.5545 22.8029 18.617C23.3359 19.3938 23.6092 20.3791 23.8497 21.3152C24.0251 21.9976 23.9045 22.7319 23.2286 23.3298C22.2568 19.5077 19.7605 17.0213 16.5655 15.1687C13.387 13.326 10.0098 12.4093 6.24621 13.4461C6.38269 12.6532 6.89013 12.2796 7.46203 11.9871ZM10.8097 8.30446C13.0067 8.04121 15.0775 8.55096 17.0763 9.39918C19.9623 10.6212 22.504 12.3376 24.3468 14.9148C24.9351 15.7371 25.3064 16.7291 25.6964 17.6814C25.8521 18.0648 25.7869 18.5391 25.7804 18.9646C21.8997 12.5456 16.2537 9.2957 8.74914 9.10719C9.3373 8.61327 10.0493 8.3955 10.8097 8.30446ZM13.7511 6.37379C18.3403 4.95674 24.5485 7.75477 26.0763 13.5691C22.7514 9.70473 18.6946 7.34884 13.7511 6.37379Z" fill="url(#paint0_linear_100_2320)"/>
</g>
<defs>
<linearGradient id="paint0_linear_100_2320" x1="21.8264" y1="7.43924" x2="11.2186" y2="24.4563" gradientUnits="userSpaceOnUse">
<stop offset="0.16" stop-color="#C6F462"/>
<stop offset="0.89" stop-color="#33D9FF"/>
</linearGradient>
</defs>
</svg>
