<svg width="33" height="33" viewBox="0 0 33 33" fill="none" xmlns="http://www.w3.org/2000/svg">
<circle cx="16.0001" cy="16.0219" r="13.996" fill="#111727"/>
<path d="M6.72119 24.8622C8.46994 24.513 10.4049 24.8078 12.0864 25.3495C14.2995 26.0651 16.3354 27.2437 18.0571 28.8075C18.3226 29.0518 18.7301 29.4241 18.9419 29.7079C18.5685 29.8178 18.0534 29.8692 17.6646 29.9286C17.4835 29.9564 17.2518 29.9628 17.0815 30.0175H16.0122C15.9782 29.9887 15.9435 29.9603 15.9087 29.9325C13.9399 28.3607 11.4424 27.2358 8.94189 26.9208C8.45364 26.8594 7.6264 26.8046 7.13721 26.8593C6.69547 26.5545 5.8193 25.6711 5.48389 25.2616C5.84565 25.0764 6.32391 24.9415 6.72119 24.8622Z" fill="url(#paint0_linear_44_199)"/>
<path d="M5.13428 22.6864C6.12201 20.701 9.51961 20.7897 11.189 21.0858C14.8534 21.7359 18.5719 23.7376 21.1763 26.33C21.7714 26.9288 22.317 27.5752 22.8071 28.2626C22.3816 28.5336 21.5612 28.8793 21.0923 29.0692C21.002 28.9044 20.5388 28.3916 20.3794 28.2216C18.8208 26.561 16.8132 25.151 14.7456 24.1981C11.7533 22.819 8.16612 22.0799 4.98877 23.245C5.02028 23.1144 5.08226 22.7912 5.13428 22.6864Z" fill="url(#paint1_linear_44_199)"/>
<path d="M8.0083 18.2079C9.47016 17.2412 11.7628 17.3454 13.4087 17.66C17.3463 18.4127 21.634 20.9091 24.2017 23.9852C24.5707 24.424 24.9081 24.8887 25.2104 25.3759C25.3643 25.625 25.5117 25.92 25.6714 26.1552C25.408 26.4121 25.081 26.685 24.7964 26.9179C23.5323 25.1573 21.9737 23.6274 20.1899 22.3964C16.7606 19.983 11.7265 17.9304 7.46924 18.6708C7.63848 18.5001 7.80688 18.3411 8.0083 18.2079Z" fill="url(#paint2_linear_44_199)"/>
<path d="M15.6558 15.039C17.6848 15.0021 19.6859 15.5178 21.4448 16.5302C24.1645 18.0975 25.9131 20.5324 26.7231 23.539C26.5515 23.3362 26.3792 23.1012 26.2065 22.8915C25.9537 22.5852 25.6905 22.2883 25.4155 22.0018C24.991 21.5274 24.3081 20.9086 23.8179 20.497C21.4406 18.5002 18.6868 17.0001 15.7202 16.0848C15.1266 15.9065 14.5247 15.7569 13.9165 15.6376C13.6756 15.5922 13.0251 15.5056 12.8306 15.4472L12.811 15.4413C13.9072 15.1978 14.5252 15.0708 15.6558 15.039Z" fill="url(#paint3_linear_44_199)"/>
<path d="M10.4854 6.79783C11.3736 6.77499 12.2792 7.03795 12.6729 7.91697C12.7689 8.13162 12.7895 8.33528 12.8174 8.56443C12.4439 8.58106 11.9953 8.57079 11.6162 8.57224C11.5393 7.75163 10.3686 7.6395 9.84082 8.08103C9.74052 8.16498 9.65697 8.33696 9.66016 8.46775C9.68014 9.25694 10.9597 9.22252 11.5068 9.45408C11.8737 9.57315 12.2291 9.75094 12.4971 10.0351C13.0651 10.6377 12.9962 11.7376 12.3789 12.2812C11.821 12.7723 11.0682 12.8622 10.3574 12.831C9.50921 12.7953 8.61027 12.4261 8.34082 11.5498C8.27167 11.3246 8.24892 11.1425 8.22363 10.9101L9.42969 10.9072C9.55499 11.632 10.0245 11.8098 10.7295 11.7949C11.1274 11.7864 11.7031 11.4892 11.6299 11.0185C11.5232 10.336 10.2518 10.3193 9.73242 10.1025C9.39389 9.96458 9.13712 9.8946 8.85449 9.64353C8.22941 9.13534 8.25539 8.08065 8.78223 7.50681C9.23121 7.01782 9.83931 6.83255 10.4854 6.79783Z" fill="url(#paint4_linear_44_199)"/>
<path fill-rule="evenodd" clip-rule="evenodd" d="M16.2158 6.79783C17.8731 6.73033 19.0051 7.84443 19.1152 9.46482C19.1758 10.3565 19.0257 11.257 18.4229 11.9551C17.9115 12.547 17.282 12.7653 16.5293 12.8301C14.8381 12.8868 13.7578 11.7965 13.6309 10.1562C13.4961 8.4124 14.3458 6.92442 16.2158 6.79783ZM16.2012 7.90135C15.0088 8.06054 14.7819 9.2923 14.9111 10.2871C15.0336 11.2292 15.6032 11.801 16.5684 11.7226C17.7708 11.5475 17.9716 10.2783 17.8252 9.27927C17.6947 8.38955 17.1107 7.83192 16.2012 7.90135Z" fill="url(#paint5_linear_44_199)"/>
<path d="M21.2988 6.88181L21.3008 11.7314H23.8145L23.8135 12.7558L20.0508 12.7568L20.0527 8.68455L20.0488 7.55174C20.0477 7.3651 20.0382 7.05293 20.0557 6.87693C20.4458 6.87048 20.9139 6.86492 21.2988 6.88181Z" fill="url(#paint6_linear_44_199)"/>
<defs>
<linearGradient id="paint0_linear_44_199" x1="21.3978" y1="15.8536" x2="4.9885" y2="30.3656" gradientUnits="userSpaceOnUse">
<stop stop-color="#C8F484"/>
<stop offset="1" stop-color="#4CD2C7"/>
</linearGradient>
<linearGradient id="paint1_linear_44_199" x1="21.3978" y1="15.8536" x2="4.9885" y2="30.3656" gradientUnits="userSpaceOnUse">
<stop stop-color="#C8F484"/>
<stop offset="1" stop-color="#4CD2C7"/>
</linearGradient>
<linearGradient id="paint2_linear_44_199" x1="21.3978" y1="15.8536" x2="4.9885" y2="30.3656" gradientUnits="userSpaceOnUse">
<stop stop-color="#C8F484"/>
<stop offset="1" stop-color="#4CD2C7"/>
</linearGradient>
<linearGradient id="paint3_linear_44_199" x1="21.3978" y1="15.8536" x2="4.9885" y2="30.3656" gradientUnits="userSpaceOnUse">
<stop stop-color="#C8F484"/>
<stop offset="1" stop-color="#4CD2C7"/>
</linearGradient>
<linearGradient id="paint4_linear_44_199" x1="21.7322" y1="6.79492" x2="8.2245" y2="12.8385" gradientUnits="userSpaceOnUse">
<stop stop-color="#BEF089"/>
<stop offset="1" stop-color="#16C4E3"/>
</linearGradient>
<linearGradient id="paint5_linear_44_199" x1="21.7322" y1="6.79492" x2="8.2245" y2="12.8385" gradientUnits="userSpaceOnUse">
<stop stop-color="#BEF089"/>
<stop offset="1" stop-color="#16C4E3"/>
</linearGradient>
<linearGradient id="paint6_linear_44_199" x1="21.7322" y1="6.79492" x2="8.2245" y2="12.8385" gradientUnits="userSpaceOnUse">
<stop stop-color="#BEF089"/>
<stop offset="1" stop-color="#16C4E3"/>
</linearGradient>
</defs>
</svg>
