<svg preserveAspectRatio="none" width="100%" height="100%" overflow="visible" style="display: block;" viewBox="0 0 27.9919 27.9921" fill="none" xmlns="http://www.w3.org/2000/svg">
<g id="Frame 136">
<circle id="Ellipse 4" cx="13.996" cy="13.9961" r="13.996" fill="var(--fill-0, #111727)"/>
<path id="Union" d="M4.71706 22.8365C6.46581 22.4873 8.40073 22.7821 10.0823 23.3238C12.2954 24.0394 14.3313 25.218 16.053 26.7818C16.3184 27.0261 16.726 27.3984 16.9378 27.6822C16.5644 27.7921 16.0493 27.8435 15.6604 27.9029C15.4794 27.9307 15.2477 27.9371 15.0774 27.9918H14.0081C13.9741 27.963 13.9393 27.9346 13.9046 27.9068C11.9358 26.335 9.43826 25.2101 6.93776 24.8951C6.44951 24.8337 5.62227 24.7789 5.13307 24.8336C4.69133 24.5288 3.81517 23.6454 3.47975 23.2359C3.84152 23.0507 4.31978 22.9158 4.71706 22.8365ZM3.13014 20.6607C4.11788 18.6753 7.51547 18.764 9.18483 19.0601C12.8493 19.7102 16.5678 21.7119 19.1721 24.3043C19.7673 24.9031 20.3128 25.5495 20.803 26.2369C20.3775 26.5079 19.557 26.8536 19.0882 27.0435C18.9979 26.8787 18.5347 26.3659 18.3753 26.1959C16.8167 24.5353 14.8091 23.1253 12.7415 22.1724C9.74913 20.7933 6.16199 20.0542 2.98464 21.2193C3.01614 21.0887 3.07813 20.7655 3.13014 20.6607ZM6.00417 16.1822C7.46603 15.2155 9.75865 15.3198 11.4046 15.6344C15.3421 16.387 19.6299 18.8834 22.1975 21.9595C22.5665 22.3983 22.9039 22.863 23.2063 23.3502C23.3602 23.5993 23.5075 23.8943 23.6673 24.1295C23.4039 24.3864 23.0768 24.6593 22.7923 24.8922C21.5281 23.1316 19.9696 21.6017 18.1858 20.3707C14.7565 17.9573 9.72233 15.9047 5.46511 16.6451C5.63435 16.4745 5.80274 16.3154 6.00417 16.1822ZM13.6516 13.0133C15.6807 12.9764 17.6817 13.4921 19.4407 14.5045C22.1603 16.0718 23.909 18.5067 24.719 21.5133C24.5474 21.3105 24.375 21.0755 24.2024 20.8658C23.9496 20.5595 23.6864 20.2626 23.4114 19.9761C22.9869 19.5017 22.304 18.8829 21.8137 18.4713C19.4365 16.4745 16.6827 14.9744 13.7161 14.0592C13.1225 13.8808 12.5206 13.7312 11.9124 13.6119C11.6715 13.5665 11.021 13.4799 10.8264 13.4215L10.8069 13.4156C11.9031 13.1721 12.5211 13.0451 13.6516 13.0133Z" fill="url(#paint0_linear_100_2491)"/>
<path id="Union_2" d="M8.48127 4.77185C9.36956 4.74902 10.2751 5.01198 10.6688 5.89099C10.7649 6.10565 10.7854 6.3093 10.8133 6.53845C10.4398 6.55508 9.99126 6.54481 9.61213 6.54627C9.53517 5.72565 8.36456 5.61352 7.83674 6.05505C7.73643 6.139 7.65288 6.31098 7.65607 6.44177C7.67605 7.23096 8.95557 7.19654 9.50275 7.4281C9.8696 7.54717 10.225 7.72496 10.493 8.00916C11.061 8.61167 10.9921 9.71164 10.3748 10.2553C9.81689 10.7463 9.06416 10.8362 8.35334 10.8051C7.50513 10.7693 6.60619 10.4001 6.33674 9.5238C6.26758 9.29866 6.24484 9.11648 6.21955 8.88416L7.4256 8.88123C7.55091 9.60599 8.02045 9.78379 8.72541 9.76892C9.12334 9.7604 9.69904 9.46325 9.6258 8.99255C9.51911 8.31001 8.24774 8.29337 7.72834 8.07654C7.38981 7.9386 7.13304 7.86863 6.85041 7.61755C6.22532 7.10936 6.25131 6.05467 6.77814 5.48084C7.22712 4.99184 7.83522 4.80657 8.48127 4.77185ZM14.2117 4.77185C15.869 4.70436 17.001 5.81845 17.1112 7.43884C17.1718 8.33057 17.0217 9.23105 16.4188 9.92908C15.9075 10.521 15.278 10.7393 14.5252 10.8041C12.834 10.8608 11.7538 9.77055 11.6268 8.13025C11.492 6.38642 12.3418 4.89844 14.2117 4.77185ZM19.2947 4.85584L19.2967 9.70545H21.8104L21.8094 10.7299L18.0467 10.7308L18.0487 6.65857L18.0447 5.52576C18.0437 5.33912 18.0341 5.02695 18.0516 4.85095C18.4417 4.8445 18.9098 4.83895 19.2947 4.85584ZM14.1971 5.87537C13.0047 6.03457 12.7779 7.26632 12.907 8.26111C13.0295 9.20323 13.5991 9.775 14.5643 9.69666C15.7667 9.52156 15.9675 8.25235 15.8211 7.2533C15.6906 6.36357 15.1066 5.80594 14.1971 5.87537Z" fill="url(#paint1_linear_100_2491)"/>
</g>
<defs>
<linearGradient id="paint0_linear_100_2491" x1="19.3937" y1="13.8279" x2="2.98437" y2="28.3399" gradientUnits="userSpaceOnUse">
<stop stop-color="#C8F484"/>
<stop offset="1" stop-color="#4CD2C7"/>
</linearGradient>
<linearGradient id="paint1_linear_100_2491" x1="19.7281" y1="4.76894" x2="6.22042" y2="10.8125" gradientUnits="userSpaceOnUse">
<stop stop-color="#BEF089"/>
<stop offset="1" stop-color="#16C4E3"/>
</linearGradient>
</defs>
</svg>
