<svg width="32" height="32" viewBox="0 0 32 32" fill="none" xmlns="http://www.w3.org/2000/svg">
<circle cx="16" cy="16.0007" r="13.9978" fill="#111727"/>
<path d="M6.7182 25.4947C8.05681 25.0967 9.5904 25.1664 10.9464 25.4384C13.3652 25.9236 15.7055 27.0868 17.6164 28.6405C17.9093 28.8785 18.562 29.438 18.7903 29.7196C18.3958 29.8279 17.8284 29.8764 17.4122 29.9374C17.2764 29.9573 16.9892 29.9599 16.8774 29.9989H15.7966C13.869 28.5737 11.5398 27.579 9.14629 27.3333C8.76072 27.2937 8.10312 27.2526 7.71695 27.288C7.24108 26.9796 6.37398 26.1996 5.98773 25.7869C6.14145 25.6841 6.53286 25.5499 6.7182 25.4947Z" fill="url(#paint0_linear_28_173)"/>
<path d="M6.21584 22.578C7.19778 21.6762 8.86149 21.4786 10.1425 21.5374C13.8976 21.71 18.0625 23.7994 20.8091 26.3329C21.2625 26.7522 21.6928 27.1964 22.0975 27.6631C22.2737 27.8683 22.4551 28.1267 22.6281 28.3175L22.6383 28.3287C22.1453 28.634 21.4814 28.8699 20.9518 29.0993C20.8726 29.039 20.4888 28.5969 20.3922 28.4961C20.1262 28.2187 19.8717 27.9712 19.5857 27.7118C18.2274 26.48 16.648 25.4542 14.9807 24.6857C12.5264 23.5542 9.61564 22.8953 6.9224 23.4024C6.44975 23.4915 6.02764 23.6264 5.57935 23.7895C5.70808 23.2082 5.74181 23.0134 6.21584 22.578Z" fill="url(#paint1_linear_28_173)"/>
<path d="M7.98436 19.3494C9.70576 17.4489 13.8007 18.1945 15.9034 18.935C19.0893 20.0571 22.1799 22.012 24.3368 24.6395C24.7183 25.1043 25.2088 25.779 25.4705 26.3184C25.2853 26.4855 24.7822 26.937 24.5828 27.0642C24.3628 26.7281 23.9631 26.2516 23.696 25.951C22.5515 24.6698 21.243 23.5445 19.8053 22.6045C16.9368 20.6984 13.3194 19.2386 9.84088 19.2041C9.26858 19.1984 8.54654 19.236 7.98436 19.3494Z" fill="url(#paint2_linear_28_173)"/>
<path d="M15.9102 15.8115C17.916 15.7742 19.8931 16.291 21.6242 17.3049C24.2003 18.813 25.9185 21.1957 26.67 24.0671C26.5318 23.9081 26.3694 23.6836 26.23 23.5126C25.9693 23.1933 25.6965 22.8834 25.4133 22.584C22.7227 19.815 19.3556 17.7961 15.6454 16.7282C14.9697 16.5387 13.8394 16.2806 13.1379 16.2275C14.1589 15.9649 14.8433 15.8484 15.9102 15.8115Z" fill="url(#paint3_linear_28_173)"/>
<path d="M15.7758 7.52294C16.9273 7.46656 17.9757 7.94933 18.0555 9.20973L16.9151 9.21094C16.8315 8.56158 16.1992 8.44697 15.6565 8.53931C15.6202 8.54536 15.584 8.55235 15.5481 8.56031C15.4284 8.63038 15.3138 8.64105 15.1892 8.77832C15.08 8.89854 15.0474 9.03743 15.055 9.19552C15.09 9.66854 15.7973 9.81399 16.1781 9.89229C17.0728 10.0762 18.0734 10.4464 18.1244 11.5137C18.1441 11.9269 18.0331 12.3562 17.7362 12.6662C16.9365 13.5012 15.0639 13.4944 14.2173 12.7338C13.8467 12.3999 13.7059 11.9356 13.6863 11.4517C14.0638 11.4449 14.456 11.4499 14.8346 11.4496C14.8732 11.8636 15.1064 12.1365 15.5106 12.2419C15.862 12.3335 16.2963 12.3142 16.6174 12.1325C16.7593 12.0522 16.8902 11.8859 16.9209 11.7253C17.0466 11.1139 16.2655 10.982 15.8401 10.8683C15.5798 10.7986 15.307 10.7423 15.0505 10.6569C14.6824 10.5344 14.2796 10.3182 14.0543 9.99153C13.8412 9.68262 13.7934 9.25725 13.8653 8.89418C13.941 8.51243 14.1641 8.17587 14.4862 7.95737L14.5162 7.93265C14.8342 7.68086 15.3857 7.54205 15.7758 7.52294Z" fill="url(#paint4_linear_28_173)"/>
<path fill-rule="evenodd" clip-rule="evenodd" d="M8.23598 7.59588C8.60869 7.58373 9.05258 7.58868 9.42858 7.59397L9.42902 10.3702C9.42901 10.6409 9.40888 11.2203 9.46506 11.4598C9.50834 11.6367 9.59992 11.798 9.72959 11.9259C10.1578 12.352 10.9793 12.3554 11.4046 11.9197C11.7101 11.6068 11.717 11.234 11.7042 10.8245C11.7004 10.6053 11.6988 10.3485 11.705 10.1302C11.6947 9.2891 11.7023 8.43464 11.7025 7.59255C12.093 7.58995 12.5066 7.60171 12.8923 7.59189L12.8927 10.2077C12.8951 11.0752 13.0228 11.9647 12.3449 12.6378C11.4637 13.5128 9.66247 13.5199 8.78452 12.6396C8.55606 12.4118 8.39265 12.1271 8.31122 11.815C8.20393 11.4004 8.23658 10.6767 8.23669 10.2255L8.23751 8.24082L8.23598 7.59588Z" fill="url(#paint5_linear_28_173)"/>
<path fill-rule="evenodd" clip-rule="evenodd" d="M20.2916 7.59069C21.2715 7.59105 22.114 7.56357 22.8996 8.30731C23.3507 8.73437 23.5899 9.37122 23.6448 9.98596L23.6496 10.0454L23.6559 10.1079C23.7779 11.4222 23.1873 12.7563 21.8191 13.0993C21.2761 13.2355 20.8192 13.2096 20.2686 13.21C19.8209 13.2121 19.3733 13.2113 18.9258 13.2075L18.9271 8.86362L18.9258 7.59277L20.2916 7.59069ZM20.1154 8.8862L20.116 9.29733C20.1181 10.2593 20.1257 11.2372 20.1153 12.192C20.7458 12.1929 21.5533 12.2808 22.0401 11.7976C22.4332 11.4075 22.5176 10.7048 22.4732 10.1759C22.4343 9.60654 22.2767 9.05775 21.7292 8.78608C21.2246 8.53569 20.6595 8.64173 20.1171 8.61373L20.1154 8.8862Z" fill="url(#paint6_linear_28_173)"/>
<defs>
<linearGradient id="paint0_linear_28_173" x1="22.2913" y1="15.8096" x2="10.7734" y2="29.9984" gradientUnits="userSpaceOnUse">
<stop stop-color="#A6D856"/>
<stop offset="1" stop-color="#3FC3B0"/>
</linearGradient>
<linearGradient id="paint1_linear_28_173" x1="22.2913" y1="15.8096" x2="10.7734" y2="29.9984" gradientUnits="userSpaceOnUse">
<stop stop-color="#A6D856"/>
<stop offset="1" stop-color="#3FC3B0"/>
</linearGradient>
<linearGradient id="paint2_linear_28_173" x1="22.2913" y1="15.8096" x2="10.7734" y2="29.9984" gradientUnits="userSpaceOnUse">
<stop stop-color="#A6D856"/>
<stop offset="1" stop-color="#3FC3B0"/>
</linearGradient>
<linearGradient id="paint3_linear_28_173" x1="22.2913" y1="15.8096" x2="10.7734" y2="29.9984" gradientUnits="userSpaceOnUse">
<stop stop-color="#A6D856"/>
<stop offset="1" stop-color="#3FC3B0"/>
</linearGradient>
<linearGradient id="paint4_linear_28_173" x1="23.6715" y1="7.51856" x2="8.23193" y2="13.2986" gradientUnits="userSpaceOnUse">
<stop stop-color="#B3EC8E"/>
<stop offset="1" stop-color="#12C0E6"/>
</linearGradient>
<linearGradient id="paint5_linear_28_173" x1="23.6715" y1="7.51856" x2="8.23193" y2="13.2986" gradientUnits="userSpaceOnUse">
<stop stop-color="#B3EC8E"/>
<stop offset="1" stop-color="#12C0E6"/>
</linearGradient>
<linearGradient id="paint6_linear_28_173" x1="23.6715" y1="7.51856" x2="8.23193" y2="13.2986" gradientUnits="userSpaceOnUse">
<stop stop-color="#B3EC8E"/>
<stop offset="1" stop-color="#12C0E6"/>
</linearGradient>
</defs>
</svg>
