<svg preserveAspectRatio="none" width="100%" height="100%" overflow="visible" style="display: block;" viewBox="0 0 27.9956 27.9965" fill="none" xmlns="http://www.w3.org/2000/svg">
<g id="Frame 135">
<circle id="Ellipse 3" cx="13.9978" cy="13.9983" r="13.9978" fill="var(--fill-0, #111727)"/>
<g id="Union">
<path d="M4.716 23.4923C6.05461 23.0942 7.58819 23.1639 8.94422 23.4359C11.363 23.9211 13.7033 25.0844 15.6142 26.638C15.9071 26.8761 16.5598 27.4355 16.7881 27.7171C16.3936 27.8254 15.8262 27.8739 15.41 27.935C15.2742 27.9548 14.987 27.9574 14.8752 27.9965H13.7944C11.8668 26.5712 9.53756 25.5765 7.14408 25.3309C6.75852 25.2913 6.10091 25.2502 5.71474 25.2856C5.23887 24.9771 4.37178 24.1972 3.98552 23.7845C4.13924 23.6816 4.53066 23.5475 4.716 23.4923Z" fill="url(#paint0_linear_100_2507)"/>
<path d="M4.21364 20.5755C5.19557 19.6737 6.85928 19.4762 8.14027 19.5349C11.8954 19.7075 16.0603 21.797 18.8069 24.3304C19.2603 24.7498 19.6906 25.194 20.0953 25.6607C20.2715 25.8658 20.4529 26.1242 20.6259 26.3151L20.6361 26.3262C20.1431 26.6316 19.4792 26.8674 18.9496 27.0968C18.8704 27.0365 18.4866 26.5945 18.39 26.4936C18.124 26.2162 17.8695 25.9687 17.5835 25.7093C16.2252 24.4775 14.6457 23.4518 12.9785 22.6832C10.5242 21.5518 7.61344 20.8928 4.92019 21.4C4.44754 21.489 4.02543 21.6239 3.57714 21.787C3.70587 21.2058 3.7396 21.011 4.21364 20.5755Z" fill="url(#paint1_linear_100_2507)"/>
<path d="M5.98216 17.3469C7.70355 15.4464 11.7985 16.192 13.9012 16.9325C17.0871 18.0546 20.1777 20.0095 22.3346 22.6371C22.7161 23.1019 23.2066 23.7765 23.4683 24.3159C23.2831 24.483 22.78 24.9345 22.5806 25.0617C22.3606 24.7257 21.9609 24.2492 21.6938 23.9485C20.5493 22.6673 19.2408 21.5421 17.8031 20.602C14.9346 18.6959 11.3172 17.2361 7.83868 17.2017C7.26638 17.1959 6.54434 17.2335 5.98216 17.3469Z" fill="url(#paint2_linear_100_2507)"/>
<path d="M13.908 13.809C15.9138 13.7717 17.8909 14.2886 19.622 15.3024C22.1981 16.8105 23.9163 19.1932 24.6678 22.0647C24.5296 21.9056 24.3672 21.6812 24.2278 21.5102C23.9671 21.1908 23.6943 20.881 23.4111 20.5815C20.7205 17.8125 17.3534 15.7936 13.6432 14.7257C12.9675 14.5362 11.8372 14.2781 11.1356 14.2251C12.1566 13.9624 12.8411 13.8459 13.908 13.809Z" fill="url(#paint3_linear_100_2507)"/>
</g>
<g id="Union_2">
<path d="M13.7736 5.52052C14.9251 5.46414 15.9735 5.94691 16.0533 7.20731L14.9129 7.20852C14.8293 6.55916 14.197 6.44455 13.6542 6.5369C13.618 6.54294 13.5818 6.54993 13.5459 6.55789C13.4262 6.62796 13.3116 6.63863 13.187 6.7759C13.0778 6.89612 13.0452 7.03501 13.0528 7.1931C13.0878 7.66612 13.795 7.81157 14.1759 7.88987C15.0706 8.07382 16.0712 8.44403 16.1222 9.51132C16.1419 9.92453 16.0309 10.3537 15.734 10.6637C14.9343 11.4988 13.0616 11.492 12.2151 10.7314C11.8445 10.3974 11.7037 9.93323 11.6841 9.44931C12.0615 9.4425 12.4538 9.44752 12.8324 9.44718C12.871 9.86117 13.1042 10.1341 13.5084 10.2395C13.8598 10.3311 14.2941 10.3118 14.6152 10.1301C14.7571 10.0498 14.888 9.88349 14.9186 9.72287C15.0443 9.11148 14.2633 8.97962 13.8379 8.86583C13.5776 8.7962 13.3048 8.73988 13.0482 8.6545C12.6802 8.53198 12.2774 8.31575 12.0521 7.98911C11.839 7.6802 11.7912 7.25483 11.8631 6.89176C11.9388 6.51001 12.1619 6.17345 12.484 5.95495L12.514 5.93023C12.8319 5.67844 13.3835 5.53963 13.7736 5.52052Z" fill="url(#paint4_linear_100_2507)"/>
<path fill-rule="evenodd" clip-rule="evenodd" d="M6.23377 5.59347C6.60647 5.58132 7.05036 5.58626 7.42637 5.59155L7.42681 8.36776C7.42679 8.63847 7.40667 9.21783 7.46284 9.45735C7.50612 9.63424 7.5977 9.79559 7.72738 9.92343C8.15558 10.3496 8.97711 10.353 9.40241 9.91731C9.70785 9.60439 9.71482 9.23155 9.70194 8.82209C9.6982 8.60286 9.69656 8.34603 9.70276 8.12778C9.69249 7.28668 9.70009 6.43222 9.7003 5.59013C10.0908 5.58753 10.5044 5.59929 10.8901 5.58947L10.8905 8.20526C10.8928 9.0728 11.0206 9.96233 10.3427 10.6354C9.46147 11.5103 7.66025 11.5175 6.78231 10.6372C6.55384 10.4094 6.39043 10.1247 6.30901 9.81255C6.20171 9.39801 6.23437 8.67432 6.23448 8.22308L6.2353 6.2384L6.23377 5.59347Z" fill="url(#paint5_linear_100_2507)"/>
<path fill-rule="evenodd" clip-rule="evenodd" d="M18.2894 5.58827C19.2693 5.58863 20.1118 5.56115 20.8973 6.30489C21.3485 6.73195 21.5876 7.3688 21.6426 7.98354L21.6474 8.04297L21.6537 8.10552C21.7757 9.41981 21.1851 10.7539 19.8169 11.0969C19.2739 11.233 18.817 11.2072 18.2664 11.2076C17.8187 11.2097 17.3711 11.2088 16.9236 11.2051L16.9249 6.8612L16.9236 5.59035L18.2894 5.58827ZM18.1132 6.88378L18.1137 7.29491C18.1159 8.25686 18.1234 9.23476 18.113 10.1896C18.7436 10.1905 19.5511 10.2784 20.0379 9.79516C20.431 9.40511 20.5154 8.70241 20.471 8.17349C20.4321 7.60412 20.2744 7.05533 19.727 6.78366C19.2224 6.53327 18.6573 6.63931 18.1149 6.61131L18.1132 6.88378Z" fill="url(#paint6_linear_100_2507)"/>
</g>
</g>
<defs>
<linearGradient id="paint0_linear_100_2507" x1="20.2891" y1="13.8071" x2="8.77117" y2="27.9959" gradientUnits="userSpaceOnUse">
<stop stop-color="#A6D856"/>
<stop offset="1" stop-color="#3FC3B0"/>
</linearGradient>
<linearGradient id="paint1_linear_100_2507" x1="20.2891" y1="13.8071" x2="8.77117" y2="27.9959" gradientUnits="userSpaceOnUse">
<stop stop-color="#A6D856"/>
<stop offset="1" stop-color="#3FC3B0"/>
</linearGradient>
<linearGradient id="paint2_linear_100_2507" x1="20.2891" y1="13.8071" x2="8.77117" y2="27.9959" gradientUnits="userSpaceOnUse">
<stop stop-color="#A6D856"/>
<stop offset="1" stop-color="#3FC3B0"/>
</linearGradient>
<linearGradient id="paint3_linear_100_2507" x1="20.2891" y1="13.8071" x2="8.77117" y2="27.9959" gradientUnits="userSpaceOnUse">
<stop stop-color="#A6D856"/>
<stop offset="1" stop-color="#3FC3B0"/>
</linearGradient>
<linearGradient id="paint4_linear_100_2507" x1="21.6693" y1="5.51614" x2="6.22972" y2="11.2961" gradientUnits="userSpaceOnUse">
<stop stop-color="#B3EC8E"/>
<stop offset="1" stop-color="#12C0E6"/>
</linearGradient>
<linearGradient id="paint5_linear_100_2507" x1="21.6693" y1="5.51614" x2="6.22972" y2="11.2961" gradientUnits="userSpaceOnUse">
<stop stop-color="#B3EC8E"/>
<stop offset="1" stop-color="#12C0E6"/>
</linearGradient>
<linearGradient id="paint6_linear_100_2507" x1="21.6693" y1="5.51614" x2="6.22972" y2="11.2961" gradientUnits="userSpaceOnUse">
<stop stop-color="#B3EC8E"/>
<stop offset="1" stop-color="#12C0E6"/>
</linearGradient>
</defs>
</svg>
