<svg preserveAspectRatio="none" width="100%" height="100%" overflow="visible" style="display: block;" viewBox="0 0 32 32" fill="none" xmlns="http://www.w3.org/2000/svg">
<g id="Solana">
<rect width="32" height="32" rx="8" fill="var(--fill-0, #1A1A1A)"/>
<path id="Vector" d="M25.076 20.6091L22.0483 23.7724C21.9825 23.8412 21.9028 23.8959 21.8143 23.9334C21.7258 23.9708 21.6304 23.9901 21.5339 23.9901H7.18106C7.11257 23.9901 7.04558 23.9706 6.98831 23.934C6.93104 23.8974 6.88599 23.8453 6.85869 23.7841C6.83139 23.723 6.82304 23.6553 6.83465 23.5896C6.84627 23.5238 6.87734 23.4628 6.92407 23.414L9.95406 20.2507C10.0197 20.1822 10.0991 20.1275 10.1873 20.0901C10.2755 20.0526 10.3707 20.0332 10.4669 20.0331H24.8189C24.8874 20.0331 24.9544 20.0526 25.0117 20.0892C25.0689 20.1258 25.114 20.1778 25.1414 20.239C25.1686 20.3002 25.177 20.3678 25.1653 20.4336C25.1537 20.4993 25.1227 20.5604 25.076 20.6091ZM22.0483 14.2391C21.9825 14.1704 21.9028 14.1156 21.8143 14.0782C21.7258 14.0408 21.6304 14.0215 21.5339 14.0215H7.18106C7.11257 14.0215 7.04558 14.041 6.98831 14.0776C6.93104 14.1142 6.88599 14.1663 6.85869 14.2274C6.83139 14.2886 6.82304 14.3563 6.83465 14.422C6.84627 14.4877 6.87734 14.5488 6.92407 14.5976L9.95406 17.7609C10.0197 17.8294 10.0991 17.8841 10.1873 17.9215C10.2755 17.9589 10.3707 17.9783 10.4669 17.9785H24.8189C24.8874 17.9785 24.9544 17.959 25.0117 17.9224C25.0689 17.8858 25.114 17.8337 25.1414 17.7726C25.1686 17.7114 25.177 17.6437 25.1653 17.578C25.1537 17.5123 25.1227 17.4512 25.076 17.4024L22.0483 14.2391ZM7.18106 11.9669H21.5339C21.6304 11.967 21.7258 11.9477 21.8143 11.9102C21.9028 11.8728 21.9825 11.818 22.0483 11.7493L25.076 8.58596C25.1227 8.53719 25.1537 8.47617 25.1653 8.41042C25.177 8.34467 25.1686 8.27705 25.1414 8.21586C25.114 8.15467 25.0689 8.10258 25.0117 8.066C24.9544 8.02941 24.8874 8.00992 24.8189 8.00992H10.4669C10.3707 8.01008 10.2755 8.02948 10.1873 8.06691C10.0991 8.10435 10.0197 8.15902 9.95406 8.22755L6.92485 11.3909C6.87817 11.4396 6.84711 11.5005 6.83547 11.5662C6.82383 11.6319 6.83211 11.6995 6.85932 11.7606C6.88652 11.8218 6.93145 11.8739 6.9886 11.9105C7.04575 11.9472 7.11264 11.9668 7.18106 11.9669Z" fill="url(#paint0_linear_100_2338)"/>
</g>
<defs>
<linearGradient id="paint0_linear_100_2338" x1="8.37774" y1="24.3709" x2="22.9901" y2="7.46219" gradientUnits="userSpaceOnUse">
<stop offset="0.08" stop-color="#9945FF"/>
<stop offset="0.3" stop-color="#8752F3"/>
<stop offset="0.5" stop-color="#5497D5"/>
<stop offset="0.6" stop-color="#43B4CA"/>
<stop offset="0.72" stop-color="#28E0B9"/>
<stop offset="0.97" stop-color="#19FB9B"/>
</linearGradient>
</defs>
</svg>
