<svg width="32" height="32" viewBox="0 0 32 32" fill="none" xmlns="http://www.w3.org/2000/svg">
<rect width="32" height="32" rx="8" fill="white" fill-opacity="0.05"/>
<path d="M25.076 20.609L22.0483 23.7723C21.9825 23.841 21.9028 23.8958 21.8144 23.9332C21.7259 23.9707 21.6304 23.99 21.5339 23.9899H7.18109C7.1126 23.9899 7.04561 23.9704 6.98834 23.9339C6.93107 23.8973 6.88602 23.8452 6.85872 23.784C6.83142 23.7228 6.82307 23.6552 6.83468 23.5894C6.8463 23.5237 6.87737 23.4627 6.92409 23.4139L9.95409 20.2506C10.0197 20.182 10.0991 20.1274 10.1873 20.0899C10.2755 20.0525 10.3707 20.0331 10.4669 20.0329H24.819C24.8874 20.0329 24.9544 20.0524 25.0117 20.089C25.0689 20.1256 25.114 20.1777 25.1414 20.2389C25.1686 20.3001 25.177 20.3677 25.1654 20.4334C25.1538 20.4992 25.1227 20.5602 25.076 20.609ZM22.0483 14.239C21.9825 14.1703 21.9028 14.1155 21.8144 14.078C21.7259 14.0406 21.6304 14.0213 21.5339 14.0214H7.18109C7.1126 14.0214 7.04561 14.0408 6.98834 14.0774C6.93107 14.114 6.88602 14.1661 6.85872 14.2273C6.83142 14.2885 6.82307 14.3561 6.83468 14.4219C6.8463 14.4876 6.87737 14.5486 6.92409 14.5974L9.95409 17.7607C10.0197 17.8292 10.0991 17.8839 10.1873 17.9214C10.2755 17.9588 10.3707 17.9782 10.4669 17.9783H24.819C24.8874 17.9783 24.9544 17.9589 25.0117 17.9223C25.0689 17.8857 25.114 17.8336 25.1414 17.7724C25.1686 17.7112 25.177 17.6436 25.1654 17.5778C25.1538 17.5121 25.1227 17.4511 25.076 17.4023L22.0483 14.239ZM7.18109 11.9668H21.5339C21.6304 11.9668 21.7259 11.9475 21.8144 11.9101C21.9028 11.8726 21.9825 11.8178 22.0483 11.7491L25.076 8.58581C25.1227 8.53703 25.1538 8.47602 25.1654 8.41027C25.177 8.34452 25.1686 8.27689 25.1414 8.21571C25.114 8.15452 25.0689 8.10243 25.0117 8.06585C24.9544 8.02926 24.8874 8.00977 24.819 8.00977H10.4669C10.3707 8.00993 10.2755 8.02932 10.1873 8.06676C10.0991 8.10419 10.0197 8.15887 9.95409 8.2274L6.92488 11.3907C6.8782 11.4394 6.84714 11.5004 6.83549 11.5661C6.82385 11.6317 6.83214 11.6993 6.85934 11.7605C6.88655 11.8216 6.93148 11.8737 6.98863 11.9104C7.04578 11.947 7.11267 11.9666 7.18109 11.9668Z" fill="url(#paint0_linear_2_149)"/>
<defs>
<linearGradient id="paint0_linear_2_149" x1="8.37777" y1="24.3708" x2="22.9901" y2="7.46204" gradientUnits="userSpaceOnUse">
<stop offset="0.08" stop-color="#9945FF"/>
<stop offset="0.3" stop-color="#8752F3"/>
<stop offset="0.5" stop-color="#5497D5"/>
<stop offset="0.6" stop-color="#43B4CA"/>
<stop offset="0.72" stop-color="#28E0B9"/>
<stop offset="0.97" stop-color="#19FB9B"/>
</linearGradient>
</defs>
</svg>
