<svg width="32" height="32" viewBox="0 0 32 32" fill="none" xmlns="http://www.w3.org/2000/svg">
<path d="M16 30C23.732 30 30 23.732 30 16C30 8.268 23.732 2 16 2C8.268 2 2 8.268 2 16C2 23.732 8.268 30 16 30Z" fill="#1B262D"/>
<path fill-rule="evenodd" clip-rule="evenodd" d="M10.0646 8.61035H22.1792C22.4683 8.61035 22.7353 8.76439 22.8795 9.0143L26.4089 15.1327C26.592 15.45 26.5376 15.8505 26.2765 16.1078L16.5615 25.6824C16.2468 25.9926 15.7405 25.9926 15.4258 25.6824L5.72397 16.1208C5.45682 15.8575 5.4068 15.4453 5.60324 15.126L9.376 8.99467C9.52291 8.75589 9.78365 8.61035 10.0646 8.61035ZM20.615 11.342V13.0588H17.164V14.249C19.5877 14.3762 21.4062 14.8987 21.4197 15.5248L21.4196 16.8302C21.4061 17.4564 19.5877 17.9788 17.164 18.106V21.027H14.8725V18.106C12.4488 17.9788 10.6304 17.4564 10.6168 16.8302L10.6169 15.5248C10.6304 14.8987 12.4488 14.3762 14.8725 14.249V13.0588H11.4215V11.342H20.615ZM16.0183 17.2092C18.6048 17.2092 20.7667 16.7674 21.2958 16.1775C20.8472 15.6773 19.2243 15.2835 17.164 15.1754V16.4216C16.7947 16.441 16.4114 16.4512 16.0183 16.4512C15.6251 16.4512 15.2418 16.441 14.8725 16.4216V15.1754C12.8122 15.2835 11.1894 15.6773 10.7407 16.1775C11.2698 16.7674 13.4317 17.2092 16.0183 17.2092Z" fill="#009393"/>
</svg>
