<svg preserveAspectRatio="none" width="100%" height="100%" overflow="visible" style="display: block;" viewBox="0 0 32 32" fill="none" xmlns="http://www.w3.org/2000/svg">
<g id="Helius">
<rect width="32" height="32" rx="8" fill="var(--fill-0, #1A1A1A)"/>
<path id="Union" d="M16.0029 24.2188C16.9648 24.2189 17.7451 25.0068 17.7451 25.9776H14.2597C14.2597 25.0067 15.0402 24.2188 16.0029 24.2188ZM11.0429 20.4912C12.2195 21.8809 13.9588 22.7693 15.9052 22.7988L11.7822 25.6358C11.6316 25.7397 11.4261 25.64 11.4121 25.4561L11.0429 20.4912ZM20.5791 25.4502C20.565 25.6335 20.3601 25.7339 20.2089 25.6299L16.0937 22.7988C18.0333 22.7711 19.7688 21.8905 20.9453 20.5108L20.5791 25.4502ZM22.373 21.3399C22.9729 20.5806 24.0692 20.4555 24.8222 21.0615L22.6494 23.8115C21.8964 23.2055 21.7731 22.0991 22.373 21.3399ZM7.42769 21.0615C8.18005 20.4561 9.27697 20.5806 9.87691 21.3399C10.4767 22.099 10.3537 23.2051 9.60152 23.8106L7.42769 21.0615ZM9.57027 15.1406C9.51296 15.4919 9.4814 15.8528 9.4814 16.2207C9.48204 17.7522 10.0008 19.1627 10.871 20.2803L6.16695 18.8164C5.9929 18.7621 5.94211 18.5376 6.07613 18.4121L9.57027 15.1406ZM25.9238 18.3955C26.0572 18.5216 26.0071 18.7452 25.833 18.7988L21.1503 20.2569C22.0098 19.1428 22.5224 17.7419 22.5224 16.2207C22.5224 15.8473 22.4907 15.4816 22.4316 15.126L25.9238 18.3955ZM6.93941 12.4365C7.87772 12.6525 8.46493 13.5951 8.25093 14.542C8.03673 15.4885 7.10305 16.081 6.16499 15.8652L6.93941 12.4365ZM25.8867 15.8643C24.949 16.0809 24.0138 15.488 23.7998 14.541C23.5861 13.5951 24.173 12.6523 25.1103 12.4356L25.8867 15.8643ZM23.7822 9.76662C23.9625 9.73895 24.1052 9.91866 24.039 10.0908L22.3076 14.543C21.8515 12.7938 20.6998 11.3293 19.1689 10.4697L23.7822 9.76662ZM8.22261 9.7588L12.8466 10.4619C11.3122 11.3202 10.1567 12.7852 9.6982 14.5361L7.96675 10.083C7.89969 9.91198 8.04214 9.73112 8.22261 9.7588ZM15.7968 6.084C15.8877 5.92405 16.1165 5.92404 16.208 6.084L18.539 10.1582C17.7599 9.8254 16.9021 9.64163 16.0029 9.64162C15.1036 9.64162 14.2462 9.82536 13.4658 10.1582L15.7968 6.084ZM13.2148 6.81545C13.6324 7.69031 13.2682 8.7416 12.4013 9.1631C11.5344 9.58456 10.4928 9.21672 10.0751 8.34181L13.2148 6.81545ZM21.8505 8.34181C21.4329 9.2165 20.3922 9.58425 19.5253 9.1631C18.6583 8.74164 18.2933 7.69035 18.7109 6.81545L21.8505 8.34181Z" fill="url(#paint0_linear_100_2422)"/>
</g>
<defs>
<linearGradient id="paint0_linear_100_2422" x1="10.2383" y1="22.0645" x2="7.65263" y2="22.4511" gradientUnits="userSpaceOnUse">
<stop stop-color="#E35930"/>
<stop offset="1" stop-color="#E84125"/>
</linearGradient>
</defs>
</svg>
