<svg preserveAspectRatio="none" width="100%" height="100%" overflow="visible" style="display: block;" viewBox="0 0 28.4961 9.23494" fill="none" xmlns="http://www.w3.org/2000/svg">
<g id="Frame 1000002792">
<path id="Vector" d="M26.8865 0.329957H1.61005C0.903223 0.329957 0.330228 0.902952 0.330228 1.60978V7.6251C0.330228 8.33193 0.903223 8.90492 1.61005 8.90492H26.8865C27.5934 8.90492 28.1663 8.33193 28.1663 7.6251V1.60978C28.1663 0.902952 27.5934 0.329957 26.8865 0.329957Z" fill="var(--fill-0, #181728)"/>
<path id="Vector_2" d="M26.8863 0.25H1.60981C0.858808 0.25 0.25 0.858808 0.25 1.60981V7.62513C0.25 8.37614 0.858808 8.98494 1.60981 8.98494H26.8863C27.6373 8.98494 28.2461 8.37614 28.2461 7.62513V1.60981C28.2461 0.858808 27.6373 0.25 26.8863 0.25Z" stroke="var(--stroke-0, white)" stroke-opacity="0.52" stroke-width="0.5"/>
<path id="Union" d="M3.50941 1.60991C3.84168 1.61009 4.08641 1.86845 4.08656 2.2183C4.08656 2.56832 3.84178 2.82554 3.50941 2.82573C3.17686 2.82573 2.93226 2.56845 2.93226 2.2183C2.93241 1.86832 3.17696 1.60991 3.50941 1.60991ZM4.59535 2.41752L4.82777 1.86869H5.04945L5.29554 2.41557L5.37464 1.63432H5.59242L5.45863 2.80326H5.22816L4.93617 2.10209L4.65101 2.80326H4.41761L4.28187 1.63432H4.49964L4.59535 2.41752ZM2.41078 1.63432C2.60947 1.63443 2.74281 1.77384 2.74281 1.98491C2.74262 2.18518 2.60933 2.32171 2.41078 2.32182H1.83363V2.80229H1.61V1.63432H2.41078ZM6.93031 1.8433H6.06605V2.11284H6.70961V2.3228H6.06605V2.59135H6.93031V2.80229H5.84242V1.63432H6.93031V1.8433ZM8.02503 1.63432C8.22376 1.63437 8.35707 1.7738 8.35707 1.98491C8.35691 2.17122 8.23911 2.30326 8.06507 2.32084L8.35707 2.80229H8.10609L7.82386 2.3228H7.44789V2.80229H7.22425V1.63432H8.02503ZM9.72621 1.8433H8.86195V2.11284H9.50648V2.3228H8.86195V2.59135H9.72621V2.80229H8.63832V1.63432H9.72621V1.8433ZM10.5768 1.63432C10.9091 1.63452 11.1538 1.87898 11.1539 2.2183C11.1539 2.55424 10.9091 2.80209 10.5768 2.80229H10.0202V1.63432H10.5768ZM12.7164 1.63432C12.9153 1.63432 13.0494 1.77376 13.0494 1.98491C13.0493 2.07624 13.0104 2.15367 12.9489 2.20463C13.0385 2.25216 13.0944 2.34013 13.0944 2.45268C13.0943 2.662 12.9609 2.80229 12.7604 2.80229H11.983V1.63432H12.7164ZM13.7877 2.15873H13.7916L14.108 1.63432H14.3668L13.9 2.39311V2.80229H13.6764V2.39311L13.2125 1.63432H13.4674L13.7877 2.15873ZM3.50941 1.83159C3.31068 1.83159 3.1658 1.99501 3.16566 2.2183C3.16566 2.44 3.31058 2.60405 3.50941 2.60405C3.70981 2.60385 3.85609 2.43987 3.85609 2.2183C3.85595 1.99514 3.70972 1.83178 3.50941 1.83159ZM10.2438 2.59135H10.5768C10.7754 2.59114 10.9196 2.43634 10.9196 2.2183C10.9195 2.00215 10.7753 1.84352 10.5768 1.8433H10.2438V2.59135ZM12.2067 2.59135H12.7604C12.8255 2.59135 12.8717 2.54552 12.8717 2.47514V2.43998C12.8716 2.36975 12.8254 2.3228 12.7604 2.3228H12.2067V2.59135ZM1.83363 2.11284H2.41078C2.4775 2.11272 2.51918 2.06497 2.51918 1.99467V1.96147C2.51912 1.89124 2.47746 1.84342 2.41078 1.8433H1.83363V2.11284ZM7.44789 2.11284H8.02503C8.09183 2.11278 8.13441 2.06501 8.13441 1.99467V1.96147C8.13433 1.89123 8.09177 1.84336 8.02503 1.8433H7.44789V2.11284ZM12.2067 2.11284H12.7164C12.7833 2.11284 12.8258 2.06505 12.8258 1.99467V1.96147C12.8257 1.89119 12.7832 1.8433 12.7164 1.8433H12.2067V2.11284Z" fill="var(--fill-0, white)" fill-opacity="0.66"/>
<g id="Frame 1000002793">
<path id="Vector_3" d="M5.76093 6.84608L5.07207 7.57421C5.05717 7.59003 5.03913 7.60265 5.01906 7.61129C4.999 7.61992 4.97734 7.6244 4.95545 7.62441H1.68998C1.6744 7.6244 1.65917 7.61992 1.64614 7.6115C1.63311 7.60309 1.62286 7.59112 1.61663 7.57705C1.6104 7.56297 1.60846 7.54742 1.61107 7.53228C1.61367 7.51714 1.62069 7.50308 1.63128 7.49182L2.31936 6.76368C2.33426 6.74787 2.3523 6.73525 2.37237 6.72661C2.39244 6.71798 2.41409 6.71351 2.43598 6.71348H5.70145C5.71716 6.71316 5.73263 6.71743 5.74589 6.72576C5.75915 6.73408 5.76962 6.74608 5.77598 6.76026C5.78234 6.77443 5.7843 6.79014 5.78162 6.80542C5.77895 6.82068 5.77174 6.83483 5.76093 6.84608ZM5.07207 5.37947C5.05711 5.36373 5.03906 5.35116 5.01901 5.34253C4.99895 5.33389 4.97732 5.32938 4.95545 5.32927H1.68998C1.6744 5.32928 1.65917 5.33376 1.64614 5.34218C1.63311 5.35059 1.62286 5.36256 1.61663 5.37664C1.6104 5.39071 1.60846 5.40627 1.61107 5.4214C1.61367 5.43654 1.62069 5.4506 1.63128 5.46186L2.31936 6.19038C2.33432 6.20613 2.35237 6.21869 2.37242 6.22733C2.39248 6.23596 2.4141 6.24047 2.43598 6.24058H5.70145C5.71699 6.2405 5.73217 6.23596 5.74514 6.22752C5.75811 6.21907 5.76831 6.20709 5.77449 6.19304C5.78067 6.17898 5.78257 6.16346 5.77995 6.14835C5.77734 6.13325 5.77032 6.11922 5.75976 6.10799L5.07207 5.37947ZM1.68998 4.85637H4.95545C4.97734 4.85635 4.999 4.85188 5.01906 4.84324C5.03913 4.83461 5.05717 4.82198 5.07207 4.80617L5.76093 4.07803C5.769 4.06962 5.77509 4.05955 5.77876 4.04854C5.78243 4.03754 5.78359 4.02587 5.78215 4.01438C5.78071 4.00288 5.77671 3.99184 5.77044 3.98204C5.76417 3.97225 5.75578 3.96394 5.74588 3.95771C5.73262 3.94939 5.71716 3.94512 5.70145 3.94544H2.43598C2.41409 3.94546 2.39244 3.94993 2.37237 3.95857C2.3523 3.96721 2.33426 3.97983 2.31936 3.99564L1.63128 4.72377C1.62069 4.73503 1.61367 4.74909 1.61107 4.76423C1.60846 4.77937 1.6104 4.79493 1.61663 4.809C1.62286 4.82307 1.63311 4.83505 1.64614 4.84346C1.65917 4.85187 1.6744 4.85636 1.68998 4.85637Z" fill="url(#paint0_linear_100_2590)"/>
<path id="Vector_4" d="M9.81117 5.50181H8.06389V4.93455H10.2653V4.36729H8.05805C7.98264 4.36689 7.90788 4.38112 7.83805 4.40919C7.76821 4.43727 7.70467 4.47863 7.65106 4.53091C7.59744 4.5832 7.5548 4.64538 7.52557 4.71392C7.49633 4.78245 7.48108 4.85599 7.48069 4.93034V5.50526C7.48098 5.57966 7.49616 5.65329 7.52535 5.72191C7.55453 5.79054 7.59716 5.85281 7.65078 5.90518C7.70441 5.95754 7.76798 5.99897 7.83787 6.02709C7.90775 6.05521 7.98257 6.06947 8.05805 6.06906H9.80765V6.63631H7.52229V7.20357H9.81117C9.92475 7.20419 10.0359 7.17159 10.1307 7.10989C10.2255 7.04818 10.2996 6.96016 10.3436 6.85693C10.3729 6.7884 10.3881 6.71487 10.3885 6.64053V6.06561C10.3882 5.9912 10.373 5.91758 10.3438 5.84896C10.3147 5.78034 10.2721 5.71807 10.2184 5.6657C10.1648 5.61334 10.1012 5.57191 10.0313 5.54379C9.96147 5.51566 9.8866 5.5014 9.81117 5.50181ZM13.1961 4.36729H11.4421C11.3284 4.36641 11.2169 4.39884 11.1219 4.46049C11.0268 4.52214 10.9525 4.61024 10.9083 4.71359C10.8789 4.78221 10.8637 4.85587 10.8633 4.93034V6.64053C10.8637 6.715 10.8789 6.78867 10.9083 6.85731C10.9525 6.96067 11.0268 7.04876 11.1219 7.11041C11.2169 7.17206 11.3284 7.20448 11.4421 7.20357H13.1961C13.2715 7.20398 13.3462 7.18975 13.416 7.16167C13.4859 7.1336 13.5494 7.09224 13.603 7.03995C13.6566 6.98766 13.6993 6.92548 13.7285 6.85695C13.7577 6.78841 13.773 6.71488 13.7734 6.64053V4.93034C13.773 4.85599 13.7577 4.78245 13.7285 4.71393C13.6993 4.6454 13.6566 4.58322 13.603 4.53096C13.5494 4.47865 13.4859 4.43728 13.416 4.4092C13.3462 4.38112 13.2715 4.36688 13.1961 4.36729ZM13.1917 6.63631H11.4465V4.93455H13.191L13.1917 6.63631ZM19.3391 4.36729H17.6284C17.553 4.36689 17.4782 4.38112 17.4084 4.40919C17.3385 4.43727 17.275 4.47863 17.2213 4.53091C17.1677 4.5832 17.1251 4.64538 17.0959 4.71392C17.0666 4.78245 17.0514 4.85599 17.051 4.93034V7.20357H17.6342V6.27181H19.3371V7.20357H19.9203V4.93034C19.92 4.85567 19.9046 4.7818 19.8751 4.71301C19.8456 4.64422 19.8027 4.58186 19.7487 4.52952C19.6946 4.47718 19.6306 4.43591 19.5603 4.40806C19.49 4.38022 19.4149 4.36637 19.3391 4.36729ZM19.3348 5.70456H17.6318V4.93455H19.3348V5.70456ZM26.1489 4.36729H24.4382C24.3628 4.36689 24.288 4.38112 24.2182 4.40919C24.1484 4.43727 24.0849 4.47863 24.0312 4.53091C23.9776 4.5832 23.935 4.64538 23.9057 4.71392C23.8765 4.78245 23.8612 4.85599 23.8608 4.93034V7.20357H24.444V6.27181H26.1431V7.20357H26.7263V4.93034C26.7259 4.85599 26.7107 4.78245 26.6814 4.71393C26.6522 4.6454 26.6095 4.58322 26.5559 4.53096C26.4477 4.42537 26.3012 4.36649 26.1489 4.36729ZM26.1431 5.70456H24.4402V4.93455H26.1431V5.70456ZM22.7606 6.63631H22.5272L21.6933 4.60493C21.6647 4.53484 21.6155 4.47477 21.5521 4.43242C21.4886 4.39008 21.4138 4.36741 21.3372 4.36729H20.8196C20.7439 4.36689 20.6697 4.38866 20.6065 4.42984C20.5434 4.47102 20.4939 4.52975 20.4646 4.59861C20.4451 4.64431 20.435 4.69334 20.4347 4.74291V7.20357H21.0179V4.93455H21.2512L22.0848 6.96593C22.1139 7.0359 22.1634 7.09573 22.2271 7.13779C22.2908 7.17985 22.3658 7.20222 22.4425 7.20203H22.96C23.0103 7.2023 23.0601 7.19279 23.1067 7.17405C23.1533 7.15531 23.1956 7.12769 23.2314 7.0928C23.3035 7.02236 23.3444 6.92654 23.3449 6.82642V4.36729H22.7606V6.63631ZM14.8717 4.36729H14.2885V6.64053C14.2889 6.71503 14.3043 6.78872 14.3337 6.85738C14.363 6.92603 14.4058 6.9883 14.4596 7.0406C14.5135 7.0929 14.5772 7.13422 14.6473 7.16218C14.7174 7.19015 14.7923 7.20421 14.8679 7.20357H16.6175V6.63631H14.8717V4.36729Z" fill="var(--fill-0, white)"/>
</g>
</g>
<defs>
<linearGradient id="paint0_linear_100_2590" x1="1.9621" y1="7.71217" x2="5.33146" y2="3.85889" gradientUnits="userSpaceOnUse">
<stop offset="0.08" stop-color="#9945FF"/>
<stop offset="0.3" stop-color="#8752F3"/>
<stop offset="0.5" stop-color="#5497D5"/>
<stop offset="0.6" stop-color="#43B4CA"/>
<stop offset="0.72" stop-color="#28E0B9"/>
<stop offset="0.97" stop-color="#19FB9B"/>
</linearGradient>
</defs>
</svg>
