<svg preserveAspectRatio="none" width="100%" height="100%" overflow="visible" style="display: block;" viewBox="0 0 19.9954 20.6064" fill="none" xmlns="http://www.w3.org/2000/svg">
<g id="Frame 137">
<path id="Vector" d="M1.94595 18.9832C-0.516661 16.6989 -0.661162 12.8507 1.6232 10.388L9.4544 1.9458C11.7387 -0.51681 15.5869 -0.661311 18.0496 1.62304C20.5122 3.90741 20.6567 7.75559 18.3723 10.2182L10.5411 18.6605C8.25674 21.1231 4.40856 21.2676 1.94595 18.9832Z" fill="var(--fill-0, white)"/>
<path id="Vector_2" fill-rule="evenodd" clip-rule="evenodd" d="M1.62317 10.388C-0.66119 12.8506 -0.516689 16.6989 1.94592 18.9832C4.40853 21.2676 8.25671 21.123 10.5411 18.6605L14.714 14.1618L5.79614 5.88945L1.62317 10.388ZM3.88346 12.7601C3.95868 12.6673 3.94445 12.5311 3.85168 12.4559C3.75891 12.3807 3.62273 12.3949 3.54751 12.4877L3.29159 12.8034C3.21637 12.8961 3.2306 13.0323 3.32337 13.1075C3.41614 13.1827 3.55231 13.1685 3.62753 13.0757L3.88346 12.7601ZM3.25102 13.9897C3.27294 13.8722 3.19554 13.7593 3.07813 13.7373C2.96073 13.7155 2.84778 13.7929 2.82587 13.9102C2.70793 14.542 2.75119 15.1702 2.93565 15.7347C2.97274 15.8482 3.09484 15.9102 3.20836 15.8731C3.32189 15.836 3.38385 15.7139 3.34674 15.6004C3.18543 15.1067 3.14603 14.5521 3.25102 13.9897ZM3.77372 16.5128C3.69054 16.4271 3.55364 16.425 3.46793 16.5082C3.38222 16.5913 3.38016 16.7282 3.46332 16.814L3.82147 17.183C3.90464 17.2687 4.04155 17.2708 4.12726 17.1877C4.21297 17.1045 4.21503 16.9676 4.13186 16.8819L3.77372 16.5128Z" fill="var(--fill-0, #5FCB88)"/>
<path id="Vector_3" fill-rule="evenodd" clip-rule="evenodd" d="M0.00682373 14.2337C0.285204 15.149 0.802213 16.0049 1.55413 16.7024C3.81973 18.804 7.36006 18.6711 9.46167 16.4054L16.337 8.9937C18.4386 6.7281 18.3056 3.18778 16.04 1.08617C15.538 0.620473 14.9733 0.264499 14.3757 0.0171376C15.6997 0.117241 17.0003 0.649605 18.0495 1.62278C20.512 3.90714 20.6566 7.75533 18.3721 10.2179L10.5409 18.6603C8.2566 21.1228 4.40841 21.2674 1.9458 18.983C0.577759 17.7139 -0.0748977 15.9623 0.00682373 14.2337Z" fill="var(--fill-0, #629393)" fill-opacity="0.4"/>
<path id="Union" d="M9.4547 1.94554C11.739 -0.516886 15.5868 -0.660931 18.0494 1.62327C20.5119 3.90758 20.6569 7.75538 18.3727 10.218L14.1998 14.717L5.95567 7.06956L2.29747 11.0129C0.358305 13.1034 0.480426 16.3706 2.57091 18.3098C4.6614 20.2489 7.92862 20.1259 9.86778 18.0354L13.526 14.092L14.1998 14.717L10.5416 18.6604C8.25729 21.1229 4.40853 21.268 1.94591 18.9836C-0.516699 16.6993 -0.660721 12.8506 1.62364 10.3879L5.28185 6.44456L9.4547 1.94554ZM17.4244 2.2971C15.334 0.358023 12.0677 0.48023 10.1285 2.57054L6.58067 6.39573L14.151 13.4182L17.6988 9.593C19.638 7.50251 19.5149 4.23622 17.4244 2.2971Z" fill="var(--fill-0, #1D3934)"/>
</g>
</svg>
