<svg width="32" height="32" viewBox="0 0 32 32" fill="none" xmlns="http://www.w3.org/2000/svg">
<rect width="32" height="32" rx="8" fill="white" fill-opacity="0.05"/>
<path d="M7.9458 24.68C5.48319 22.3957 5.33869 18.5475 7.62305 16.0848L15.4543 7.64258C17.7386 5.17997 21.5868 5.03547 24.0494 7.31982C26.512 9.60418 26.6566 13.4524 24.3721 15.915L16.5409 24.3573C14.2566 26.8199 10.4084 26.9644 7.9458 24.68Z" fill="white"/>
<path fill-rule="evenodd" clip-rule="evenodd" d="M7.62305 16.085C5.33869 18.5476 5.48319 22.3959 7.9458 24.6802C10.4084 26.9646 14.2566 26.82 16.5409 24.3575L20.7139 19.8588L11.796 11.5864L7.62305 16.085ZM9.88333 18.4571C9.95856 18.3642 9.94433 18.2281 9.85156 18.1529C9.75879 18.0777 9.62261 18.0919 9.54739 18.1846L9.29147 18.5003C9.21625 18.5931 9.23047 18.7293 9.32324 18.8045C9.41601 18.8797 9.55219 18.8655 9.6274 18.7727L9.88333 18.4571ZM9.2509 19.6866C9.27282 19.5692 9.19541 19.4563 9.07801 19.4343C8.9606 19.4125 8.84766 19.4899 8.82575 19.6072C8.70781 20.239 8.75107 20.8672 8.93553 21.4317C8.97262 21.5452 9.09472 21.6071 9.20824 21.5701C9.32177 21.533 9.38372 21.4109 9.34662 21.2973C9.18531 20.8037 9.14591 20.2491 9.2509 19.6866ZM9.77359 22.2098C9.69042 22.1241 9.55352 22.122 9.46781 22.2051C9.3821 22.2883 9.38004 22.4252 9.4632 22.5109L9.82135 22.88C9.90452 22.9657 10.0414 22.9678 10.1271 22.8846C10.2128 22.8015 10.2149 22.6646 10.1317 22.5788L9.77359 22.2098Z" fill="#5FCB88"/>
<path fill-rule="evenodd" clip-rule="evenodd" d="M6.00682 19.9305C6.2852 20.8457 6.80221 21.7017 7.55413 22.3991C9.81973 24.5007 13.3601 24.3678 15.4617 22.1022L22.337 14.6904C24.4386 12.4248 24.3056 8.88451 22.04 6.7829C21.538 6.3172 20.9733 5.96123 20.3757 5.71387C21.6997 5.81397 23.0003 6.34633 24.0495 7.31951C26.512 9.60387 26.6566 13.4521 24.3721 15.9147L16.5409 24.357C14.2566 26.8196 10.4084 26.9641 7.9458 24.6797C6.57776 23.4107 5.9251 21.659 6.00682 19.9305Z" fill="#629393" fill-opacity="0.4"/>
<path fill-rule="evenodd" clip-rule="evenodd" d="M15.4546 7.64268C17.7389 5.18025 21.5867 5.03621 24.0493 7.32041C26.5118 9.60472 26.6568 13.4525 24.3725 15.9151L20.1997 20.4142L11.9555 12.7667L8.29735 16.7101C6.35818 18.8006 6.4803 22.0678 8.57078 24.0069C10.6613 25.946 13.9285 25.823 15.8677 23.7325L19.5259 19.7892L20.1997 20.4142L16.5415 24.3575C14.2572 26.8201 10.4084 26.9651 7.94578 24.6808C5.48318 22.3965 5.33915 18.5477 7.62352 16.0851L15.4546 7.64268ZM23.4243 7.99424C21.3338 6.05516 18.0676 6.17737 16.1284 8.26768L12.5805 12.0929L20.1509 19.1153L23.6987 15.2901C25.6378 13.1996 25.5148 9.93336 23.4243 7.99424Z" fill="#1D3934"/>
</svg>
