<svg width="32" height="32" viewBox="0 0 32 32" fill="none" xmlns="http://www.w3.org/2000/svg">
<rect width="32" height="32" rx="8" fill="white"/>
<path d="M25.4861 11.3603L22.7797 8.65367L20.644 6.51461C20.6035 6.47415 20.5609 6.4359 20.5171 6.39981C20.2085 6.14742 19.8223 6.00914 19.4236 6.0083H12.5771C12.1784 6.00896 11.7921 6.14726 11.4836 6.39981C11.4398 6.4359 11.3972 6.47415 11.3567 6.51461L9.22216 8.64929L6.5157 11.3559C6.35496 11.5164 6.22742 11.7069 6.14036 11.9167C6.0533 12.1265 6.00843 12.3514 6.0083 12.5786V19.4255C6.00825 19.6526 6.05303 19.8776 6.14011 20.0874C6.22718 20.2972 6.35482 20.4877 6.5157 20.6481L11.3567 25.4905C11.3972 25.5309 11.4398 25.5692 11.4836 25.5998C11.7921 25.8524 12.1784 25.9907 12.5771 25.9913H19.4236C19.8223 25.9905 20.2085 25.8522 20.5171 25.5998C20.5609 25.5637 20.6035 25.5254 20.644 25.4905L25.485 20.6481C25.6456 20.4875 25.7729 20.2969 25.8598 20.0871C25.9467 19.8773 25.9913 19.6525 25.9913 19.4255V12.5786C25.99 12.1217 25.8084 11.6839 25.4861 11.3603ZM23.3516 16.0102V21.7504C23.3511 21.9618 23.309 22.1711 23.2276 22.3663C23.1463 22.5614 23.0273 22.7386 22.8773 22.8877C22.7274 23.0368 22.5496 23.1549 22.354 23.2352C22.1584 23.3155 21.949 23.3565 21.7375 23.3558H10.2555C10.0443 23.3559 9.83502 23.3144 9.63979 23.2336C9.44457 23.1528 9.26719 23.0343 9.11779 22.8849C8.9684 22.7355 8.84991 22.5582 8.76912 22.3629C8.68834 22.1677 8.64683 21.9584 8.64697 21.7471V10.2645C8.64683 10.0532 8.68833 9.84387 8.7691 9.64857C8.84987 9.45328 8.96834 9.27579 9.11772 9.12629C9.26711 8.9768 9.44448 8.85825 9.63971 8.77734C9.83494 8.69643 10.0442 8.65474 10.2555 8.65474H21.7375C22.1644 8.65474 22.5739 8.82435 22.8757 9.12624C23.1776 9.42813 23.3472 9.83758 23.3472 10.2645V16.0113L23.3516 16.0102Z" fill="black"/>
</svg>
