<svg width="32" height="32" viewBox="0 0 32 32" fill="none" xmlns="http://www.w3.org/2000/svg">
<rect width="32" height="32" rx="8" fill="#6D45FF"/>
<path d="M11.7614 9.47152C12.656 7.47617 15.935 7.55756 16.8971 9.47152L22.7814 22.0803H24.0415L18.0619 9.31459C17.8031 8.82586 17.6682 8.45325 17.2351 8.05762C17.266 8.05413 19.4061 7.81834 20.1433 9.27399L27.0403 23.9946H21.5892L15.3223 10.5833C14.9285 9.75124 13.7073 9.70483 13.2854 10.6067L7.05207 23.9892H4.95972L11.7614 9.47152Z" fill="white"/>
<path d="M14.0732 11.5084C14.3263 10.9731 14.2699 10.9672 14.5174 11.4967L15.3333 13.2307L10.3944 23.9892H8.29577L14.0732 11.5084Z" fill="white"/>
</svg>
