<svg preserveAspectRatio="none" width="100%" height="100%" overflow="visible" style="display: block;" viewBox="0 0 22.0805 15.9893" fill="none" xmlns="http://www.w3.org/2000/svg">
<g id="Arcium Logomark 1" clip-path="url(#clip0_0_4)">
<g id="Union">
<path d="M6.80171 1.46622C7.69631 -0.529122 10.9753 -0.447731 11.9373 1.46622L17.8217 14.075H19.0818L13.1022 1.3093C12.8434 0.82057 12.7085 0.447957 12.2754 0.0523242C12.3063 0.0488362 14.4464 -0.186958 15.1836 1.2687L22.0806 15.9893H16.6295L10.3626 2.57798C9.96881 1.74594 8.74758 1.69954 8.32569 2.6014L2.09235 15.9839H0L6.80171 1.46622Z" fill="var(--fill-0, white)"/>
<path d="M9.11344 3.50314C9.36661 2.96784 9.31015 2.96195 9.55768 3.49143L10.3735 5.22543L5.43465 15.9839H3.33605L9.11344 3.50314Z" fill="var(--fill-0, white)"/>
</g>
</g>
<defs>
<clipPath id="clip0_0_4">
<rect width="22.0805" height="15.9893" fill="white"/>
</clipPath>
</defs>
</svg>
