<svg width="32" height="32" viewBox="0 0 32 32" fill="none" xmlns="http://www.w3.org/2000/svg">
<rect width="32" height="32" rx="8" fill="#E33E3F"/>
<path d="M21.3831 20.479C22.0909 20.479 22.4454 20.4788 22.6653 20.6987C22.8852 20.9188 22.885 21.2731 22.885 21.981V22.9829C22.885 24.3991 22.8846 25.1074 22.4446 25.5474C22.0046 25.9871 21.2963 25.9868 19.8801 25.9868H12.1184C10.7023 25.9868 9.99392 25.9873 9.55396 25.5474C9.11404 25.1074 9.1145 24.3991 9.1145 22.9829V21.981C9.1145 21.273 9.11426 20.9187 9.33423 20.6987C9.55423 20.4789 9.90841 20.479 10.6165 20.479H21.3831Z" fill="white"/>
<path fill-rule="evenodd" clip-rule="evenodd" d="M15.9993 8.89893C22.9848 8.89893 22.885 13.5562 22.885 15.7847V18.2886C22.8848 18.7032 22.5487 19.0395 22.134 19.0396H9.86548C9.45074 19.0396 9.11467 18.7033 9.1145 18.2886V15.3403C9.12904 12.9927 9.4503 8.89907 15.9993 8.89893ZM15.9993 10.6733C14.8241 10.6735 13.8713 11.627 13.8713 12.8022C13.8715 13.9773 14.8242 14.93 15.9993 14.9302C17.1745 14.9302 18.128 13.9774 18.1282 12.8022C18.1282 11.6268 17.1747 10.6733 15.9993 10.6733Z" fill="white"/>
<path d="M15.9973 6.01221C17.5046 6.01221 18.8241 6.53906 19.1731 7.39697C19.2257 7.545 19.252 7.61936 19.2053 7.67432C19.1586 7.72897 19.0682 7.71284 18.8879 7.68018C18.4206 7.59547 17.7585 7.53723 17.176 7.52002C16.8044 7.50005 16.4118 7.48975 15.9993 7.48975C15.587 7.48975 15.1948 7.50008 14.8235 7.52002C14.2383 7.53724 13.5746 7.59542 13.1057 7.67725C12.9289 7.7081 12.8406 7.72305 12.7942 7.66846C12.7478 7.61368 12.7732 7.54116 12.8245 7.396C13.1706 6.54076 14.4905 6.01227 15.9973 6.01221Z" fill="white"/>
</svg>
