<svg preserveAspectRatio="none" width="100%" height="100%" overflow="visible" style="display: block;" viewBox="0 0 32 32" fill="none" xmlns="http://www.w3.org/2000/svg">
<g id="bags">
<rect width="32" height="32" rx="8" fill="var(--fill-0, #1A1A1A)"/>
<g id="Subtract">
<path fill-rule="evenodd" clip-rule="evenodd" d="M19.7441 12.0502C20.0405 12.0236 20.2733 12.2533 20.4899 12.4253C21.3693 13.1206 22.1193 13.9658 22.7054 14.9217C23.3017 15.9006 23.7802 17.1475 24.0173 18.2658C24.0467 18.4045 24.0643 18.5454 24.0879 18.6851C24.1169 18.8572 24.1515 19.0297 24.17 19.2032C24.2525 19.9806 24.2087 20.8495 24.0212 21.6073C23.6854 22.9628 22.8121 24.0664 21.6236 24.7801C20.8631 25.2369 19.9295 25.5608 19.0612 25.7369C18.9167 25.7662 18.7698 25.7875 18.6245 25.8125C18.4514 25.8424 18.2783 25.8766 18.1038 25.8978C17.3735 25.9865 16.6368 26.0073 15.9018 26.0055C15.2026 26.004 14.4867 25.9835 13.794 25.8831C13.2719 25.8063 12.7541 25.7007 12.2435 25.5669C12.114 25.5338 11.991 25.4771 11.8562 25.4445L11.8395 25.4406C11.0957 25.1929 10.4135 24.8588 9.79331 24.3819C8.6458 23.5217 7.96179 22.1575 7.82213 20.7339C7.6023 18.4927 8.53918 15.7666 9.91707 14.015C10.1275 13.7445 10.3529 13.4861 10.5923 13.241C10.9119 12.9118 11.2945 12.5877 11.6568 12.3048C11.7995 12.1933 11.9257 12.0826 12.1127 12.0598C12.2164 12.0465 12.3217 12.0576 12.4205 12.0919C12.5735 12.1461 12.8027 12.3043 12.9719 12.3894C13.3976 12.5989 13.8446 12.762 14.3051 12.8761C14.4352 12.9092 14.5641 12.9237 14.6943 12.9505C15.272 13.0696 15.8777 13.0903 16.468 13.0576C17.2404 13.0122 17.9991 12.83 18.7079 12.5196C18.8264 12.4666 18.9826 12.3974 19.0958 12.3381C19.361 12.1992 19.4411 12.0864 19.7441 12.0502ZM15.4593 15.5039C15.157 15.5696 15.3448 15.898 15.097 15.9643C14.9821 15.9951 14.7239 15.9802 14.5674 15.9778C13.8636 15.9672 12.5313 15.999 12.3685 16.8929C12.3209 17.155 12.3507 17.6964 12.391 17.9669C12.5684 18.6292 13.6165 18.7867 14.1756 18.966C14.6349 19.1081 15.0922 19.2304 15.5536 19.368C15.7762 19.4302 15.9646 19.4781 16.1743 19.5765C16.4271 19.6951 16.4047 20.0757 16.3115 20.2837C16.2111 20.5075 15.6232 20.5143 15.6087 20.1972C15.6003 20.0088 15.5643 19.7808 15.3894 19.672C15.2463 19.5937 14.8701 19.6176 14.7014 19.6175H13.844L13.2207 19.6181C13.0921 19.6182 12.907 19.6125 12.7841 19.6342C12.6667 19.6548 12.4993 19.7858 12.4359 19.89C12.4018 19.9463 12.3783 20.0088 12.3666 20.0734C12.3335 20.2501 12.3652 20.4367 12.3531 20.6044C12.3265 20.9747 12.506 21.3029 12.8245 21.4745C13.5286 21.8541 14.3308 21.7428 15.0932 21.7849C15.1437 21.7878 15.2083 21.8574 15.2426 21.8971C15.262 21.9892 15.265 22.1412 15.3445 22.1825C15.503 22.2647 15.9295 22.2336 16.1153 22.2325C16.267 22.235 16.4684 22.2615 16.5802 22.1562C16.5951 22.1421 16.6095 22.1272 16.6232 22.1119C16.6429 22.022 16.6489 21.8634 16.7251 21.8195C16.8767 21.7477 17.0985 21.7709 17.2651 21.7708C18.0378 21.7709 19.3091 21.7954 19.5376 20.8455C19.5786 20.675 19.5748 20.4422 19.5735 20.2639C19.5709 19.9059 19.602 19.4739 19.401 19.1596C19.1462 18.7615 18.5456 18.6532 18.1192 18.5235L17.3202 18.2767C16.954 18.167 16.5807 18.0647 16.2166 17.9439C16.0209 17.8789 15.8062 17.8462 15.6382 17.7143C15.5914 17.6775 15.5758 17.6125 15.5574 17.5565C15.5865 17.4607 15.6013 17.4024 15.6998 17.3488C15.8132 17.2871 16.0044 17.2832 16.1262 17.3244C16.2265 17.3584 16.265 17.3984 16.3141 17.4841C16.353 17.5523 16.3492 17.739 16.3878 17.7444C16.544 17.7656 16.7783 17.7572 16.9374 17.7572H18.6354C18.8459 17.7572 19.1042 17.7847 19.2907 17.6777C19.3961 17.6172 19.534 17.4512 19.5543 17.3327C19.7775 16.0277 18.1906 15.952 17.2901 15.9791C17.1493 15.9833 16.961 15.9826 16.8188 15.9695C16.487 15.8571 16.8252 15.4735 16.2763 15.4975C16.0248 15.5086 15.7172 15.4855 15.4593 15.5039Z" fill="var(--fill-0, #00D82B)"/>
<path d="M14.4 6.00906C15.0302 5.9305 15.5595 6.18294 16.1326 6.38226C16.276 6.4321 16.5779 6.48919 16.7315 6.50794C17.3605 6.58452 17.9781 6.24406 18.5822 6.60092C19.0088 6.83424 19.2713 7.22736 19.6454 7.53457C19.827 7.69796 20.0455 7.80396 20.2244 7.96933C20.5289 8.25098 20.4031 8.72373 20.2263 9.04149C19.8937 9.63234 19.4243 10.1084 18.9317 10.5632C18.4553 11.0028 18.1986 11.2273 17.5748 11.4211C17.1507 11.5578 16.5378 11.6407 16.0865 11.6417C15.3111 11.6434 14.1637 11.5129 13.5478 10.9864C12.8354 10.3575 11.8602 9.58239 11.6696 8.60031C11.5722 8.09735 12.0927 7.81922 12.4275 7.56022C12.5775 7.44294 12.7227 7.31905 12.8617 7.18894C13.1216 6.94985 13.3676 6.65172 13.6119 6.39508C13.8513 6.14365 14.0582 6.04441 14.4 6.00906Z" fill="var(--fill-0, #00D82B)"/>
</g>
</g>
</svg>
