<svg width="32" height="32" viewBox="0 0 32 32" fill="none" xmlns="http://www.w3.org/2000/svg">
<path d="M16 30C23.732 30 30 23.732 30 16C30 8.26801 23.732 2 16 2C8.26801 2 2 8.26801 2 16C2 23.732 8.26801 30 16 30Z" fill="#FDDE00"/>
<path d="M9.18601 11.8983C9.18601 11.8983 8.46413 12.8116 8.70476 16.9405C8.70476 16.9405 7.12429 20.9874 7.66023 23.0546C8.19616 25.1163 10.2852 25.0124 10.2852 25.0124C10.2852 25.0124 13.6376 27.9601 16.2079 25.3624C18.7837 22.7593 14.0641 12.6804 14.0641 12.6804L13.4735 9.19678C13.4735 9.19678 12.8282 9.70537 12.9102 13.0577C12.9923 16.4101 11.5977 14.0476 11.5977 14.0476L9.18601 11.8983Z" fill="#3C2D0C"/>
<path d="M9.45399 15.546L8.56806 18.0397L8.2454 19.7843C8.2454 19.7843 7.14618 23.6725 11.6798 23.6178C11.6798 23.6178 15.2181 26.7843 17.5259 24.6624L18.1438 23.9897L19.2157 22.3272L20.9876 17.0444C20.9876 17.0444 20.4243 13.4241 16.8587 11.9257C16.8587 11.9257 16.5634 11.7671 16.0274 11.9803C16.0274 11.9803 14.5509 8.65535 13.6157 9.06004C13.6157 9.06004 12.8118 9.4866 13.5063 12.7624L12.2485 13.3257C12.2485 13.3257 10.8704 10.7116 9.59618 11.2366C8.40946 11.7124 9.45399 15.546 9.45399 15.546Z" fill="#E78C19"/>
<path d="M10.1645 12.3191C10.1809 12.3082 10.5423 11.8545 11.2914 12.959C12.0403 14.0633 11.9638 13.9211 11.9638 13.9211C11.9664 13.924 12.3655 14.3659 11.5426 14.9327C11.3621 15.0639 11.1651 15.1733 10.9573 15.2607C10.8262 15.3099 10.6897 15.3376 10.5532 15.3376C10.3946 15.3322 10.3232 15.2495 10.2849 15.1018C10.1592 14.6208 10.0168 14.1397 9.94573 13.6477C9.89106 13.265 9.78197 12.5653 10.1645 12.3191Z" fill="#EFB99D"/>
<path d="M14.1724 9.9952C14.4184 9.95146 14.6431 10.3289 14.7525 10.4984C14.9656 10.8318 15.113 11.1981 15.2933 11.5425C15.3917 11.7229 15.5399 11.9197 15.5565 12.1329C15.5783 12.4172 15.3594 12.5925 15.1079 12.6745C14.235 12.9673 14.1464 12.1527 14.145 12.1388L14.0357 10.6898C13.9876 9.95898 14.1637 9.99309 14.1724 9.9952Z" fill="#EFB99D"/>
<path d="M17.4819 17.5535C17.4819 17.5535 20.4025 16.0273 21.1135 17.2031C21.8243 18.3789 21.1135 20.1785 21.1135 20.1785C21.109 20.2083 20.7915 22.2848 18.6577 22.4694L17.5041 22.6283L16.0275 22.6667C16.0275 22.6667 13.6542 22.8028 11.9097 21.5123L11.3569 20.8398C11.3498 20.8301 10.2495 19.3105 11.0236 18.2148C11.8003 17.1158 14.4578 18.8164 14.4578 18.8164C14.4624 18.8189 14.8319 19.0174 15.1363 18.7728L17.4819 17.5535Z" fill="#FBFBFB"/>
<path d="M12.8727 16.0068C13.1271 15.5576 13.5672 15.3257 13.8563 15.489C14.1453 15.6526 14.1736 16.1496 13.9195 16.599C13.6651 17.0485 13.2243 17.2804 12.9351 17.1168C12.6462 16.9531 12.6184 16.4562 12.8727 16.0068Z" fill="#FBFBFB"/>
<path d="M18.0176 13.8945C18.488 13.8945 18.8713 14.2832 18.8713 14.5457C18.8709 14.808 18.4881 15.0207 18.0125 15.0208C17.5369 15.0208 17.1541 14.808 17.1537 14.5457C17.1537 14.2832 17.5475 13.8947 18.0176 13.8945Z" fill="#FBFBFB"/>
<path d="M20.457 11.5651C20.7681 11.5651 21.0201 11.8171 21.0201 12.1282C21.0201 12.4392 20.7681 12.6913 20.457 12.6913C20.146 12.6913 19.894 12.4392 19.8939 12.1282C19.8939 11.8171 20.1459 11.5651 20.457 11.5651Z" fill="#E72D36"/>
<path d="M23.2845 9.12036C23.8259 8.78684 24.0881 9.01634 24.3014 9.35535C24.5092 9.69988 24.5694 9.98459 24.0553 10.3619C22.7046 11.3407 21.3043 11.9309 21.0911 11.5864C20.8786 11.2415 21.9779 9.93498 23.2845 9.12036Z" fill="#E72D36"/>
<path d="M19.2103 10.1808C19.5214 10.1809 19.7734 10.4337 19.7734 10.7448C19.7732 11.0556 19.5212 11.3078 19.2103 11.3079C18.8994 11.3079 18.6474 11.0557 18.6472 10.7448C18.6472 10.4337 18.8992 10.1808 19.2103 10.1808Z" fill="#E72D36"/>
<path d="M17.2142 9.73816C17.5252 9.73824 17.7773 9.99031 17.7773 10.3013C17.7773 10.6123 17.5253 10.8643 17.2142 10.8644C16.9031 10.8644 16.6511 10.6124 16.6511 10.3013C16.6512 9.99026 16.9032 9.73816 17.2142 9.73816Z" fill="#E72D36"/>
<path d="M20.0742 6.70813C20.3531 6.13421 20.6977 6.18881 21.0586 6.36377C21.4195 6.54424 21.6219 6.75239 21.3867 7.34302C20.7742 8.8906 19.9045 10.143 19.5436 9.96802C19.1827 9.79289 19.4016 8.09713 20.0742 6.70813Z" fill="#E72D36"/>
<path d="M16.9297 5.5708C17.3398 5.5708 17.6131 5.67486 17.6569 6.30908C17.7772 7.97135 17.5368 9.47541 17.1322 9.47583C16.7275 9.47583 16.1914 7.85127 16.1914 6.30908C16.1915 5.67485 16.525 5.5708 16.9297 5.5708Z" fill="#E72D36"/>
<path d="M18.9637 17.2744C20.3567 16.9937 20.4008 17.5018 20.4017 17.5144C20.4891 18.2196 20.1667 18.712 19.948 19.0728C19.7329 19.4332 19.3588 19.2912 19.3465 19.2864C19.3465 19.2864 17.9301 18.9416 17.859 18.28C17.7882 17.6185 18.9637 17.2744 18.9637 17.2744Z" fill="black"/>
<path d="M15.0267 17.1377C15.4531 17.105 15.808 17.2469 15.8299 17.4546C15.8462 17.6624 15.513 17.8593 15.0866 17.8921C14.6657 17.9249 14.3053 17.7827 14.2886 17.5751C14.2831 17.5587 14.2886 17.5471 14.2886 17.5307C14.6219 17.5196 14.8899 17.378 14.89 17.2086C14.89 17.1868 14.8844 17.1703 14.8789 17.1539C14.9281 17.1484 14.9776 17.1431 15.0267 17.1377Z" fill="black"/>
<path d="M17.9897 16.4046C18.416 16.3718 18.777 16.514 18.7937 16.7216C18.8101 16.9293 18.4768 17.1262 18.0504 17.159C17.6294 17.1918 17.268 17.0498 17.2516 16.8421C17.2462 16.8258 17.2515 16.8148 17.2516 16.7985C17.5851 16.7875 17.853 16.645 17.853 16.4755C17.853 16.4538 17.8482 16.4372 17.8428 16.4208C17.8918 16.4154 17.9408 16.41 17.9897 16.4046Z" fill="black"/>
</svg>
