<svg width="32" height="32" viewBox="0 0 32 32" fill="none" xmlns="http://www.w3.org/2000/svg">
<rect width="32" height="32" rx="8" fill="white" fill-opacity="0.05"/>
<path fill-rule="evenodd" clip-rule="evenodd" d="M23.5393 10.1612L22.5447 11.153C22.3942 11.3031 22.3727 11.5371 22.4894 11.7147C22.8537 12.2699 23.144 12.8675 23.3549 13.493L23.3575 13.4904C23.627 14.2886 23.7664 15.1309 23.7664 15.9812C23.7664 20.2772 20.262 23.772 15.9545 23.772C14.6582 23.772 13.413 23.4615 12.2933 22.8656L13.9788 21.1847C14.6077 21.4226 15.2779 21.5461 15.9545 21.5461C19.0313 21.5461 21.5344 19.0497 21.5344 15.9812C21.5344 15.7896 21.5228 15.5973 21.5027 15.4055C21.4356 14.7605 21.2568 14.1351 20.9762 13.5563C20.8422 13.2799 20.475 13.217 20.2573 13.4342L19.2479 14.441C19.1387 14.5498 19.0937 14.7072 19.1288 14.8571L19.2135 15.2185C19.2725 15.4706 19.3024 15.7273 19.3024 15.9812C19.3024 17.8224 17.8006 19.3201 15.9545 19.3201C15.3735 19.3201 14.8003 19.1683 14.297 18.8807L13.8529 18.627C13.678 18.5271 13.4579 18.5563 13.3154 18.6984L9.19982 22.8027C9.00909 22.9928 9.02986 23.307 9.24386 23.4708L9.85006 23.9343C11.6155 25.2844 13.7266 25.998 15.9545 25.998C21.4926 25.998 25.9983 21.5044 25.9983 15.9812C25.9983 14.2375 25.5415 12.5196 24.6774 11.0133L24.2423 10.2549C24.1583 10.1084 24.0071 10.0308 23.8542 10.0308C23.7413 10.0308 23.6276 10.0731 23.5393 10.1612Z" fill="url(#paint0_linear_8_232)"/>
<path fill-rule="evenodd" clip-rule="evenodd" d="M16.0892 6.00146C10.5269 6.00146 6.00171 10.4949 6.00171 16.0181C6.00171 17.7621 6.46034 19.48 7.3282 20.9861L7.7653 21.7445C7.91204 21.9992 8.26247 22.0457 8.47141 21.8383L9.4701 20.8466C9.6212 20.6965 9.64272 20.4626 9.52579 20.285C9.16028 19.7302 8.86835 19.1321 8.65646 18.5066L8.65402 18.5091C8.38339 17.7108 8.24331 16.8687 8.24331 16.0181C8.24331 11.7224 11.763 8.22734 16.0892 8.22734C17.391 8.22734 18.6416 8.53785 19.7663 9.13383L18.0735 10.8147C17.4419 10.5769 16.7687 10.4533 16.0892 10.4533C12.999 10.4533 10.4851 12.9497 10.4851 16.0181C10.4851 16.111 10.4885 16.204 10.4932 16.297C10.4948 16.3272 10.4967 16.3572 10.4988 16.3873C10.5037 16.4599 10.51 16.5324 10.5178 16.6049C10.5864 17.2446 10.7657 17.8669 11.046 18.4428C11.1804 18.7192 11.5494 18.782 11.7679 18.5648L12.7815 17.5585C12.891 17.4497 12.9362 17.2923 12.901 17.1425L12.8159 16.7808C12.7568 16.5291 12.7267 16.2725 12.7267 16.0181C12.7267 14.1771 14.2351 12.6792 16.0892 12.6792C16.6727 12.6792 17.2483 12.8312 17.7536 13.1186L18.1999 13.3725C18.3755 13.4725 18.5966 13.4431 18.7398 13.3011L22.8731 9.19677C23.0647 9.00649 23.0439 8.69238 22.829 8.52867L22.22 8.06518C20.4468 6.7151 18.3267 6.00146 16.0892 6.00146Z" fill="url(#paint1_linear_8_232)"/>
<defs>
<linearGradient id="paint0_linear_8_232" x1="1365.93" y1="338.475" x2="82.2895" y2="1593.49" gradientUnits="userSpaceOnUse">
<stop stop-color="#5FBFFF"/>
<stop offset="1" stop-color="#B090F5"/>
</linearGradient>
<linearGradient id="paint1_linear_8_232" x1="6.00173" y1="1508.44" x2="1801.59" y2="-248.773" gradientUnits="userSpaceOnUse">
<stop stop-color="#68D7FA"/>
<stop offset="1" stop-color="#7EF1B3"/>
</linearGradient>
</defs>
</svg>
