<svg width="32" height="32" viewBox="0 0 32 32" fill="none" xmlns="http://www.w3.org/2000/svg">
<rect width="32" height="32" rx="8" fill="#0E171B"/>
<path fill-rule="evenodd" clip-rule="evenodd" d="M22.289 17.2438C20.6114 16.3852 18.3732 16.0967 17.0586 15.999C18.8478 15.8664 22.3495 15.3801 23.8152 13.5839C26.1093 11.8669 26 6.05722 26 6.05722C26 6.05722 20.4951 5.44997 18.0917 8.19076C16.598 9.67749 16.135 12.2601 16 14.0586C15.8651 12.2624 15.4021 9.67749 13.9084 8.19076C11.5049 5.44764 6.00007 6.05722 6.00007 6.05722C6.00007 6.05722 5.9326 9.67982 7.03311 12.0507C7.57522 13.2187 8.56637 14.1703 9.71108 14.7566C11.3886 15.6151 13.6268 15.9036 14.9414 16.0013C13.6268 16.0991 11.3886 16.3876 9.71108 17.2461C8.56637 17.8324 7.57522 18.784 7.03311 19.952C5.9326 22.3205 6.00007 25.9431 6.00007 25.9431C6.00007 25.9431 11.5049 26.5504 13.9084 23.8096C15.4021 22.3228 15.8651 19.7379 16 17.9418C16.135 19.7379 16.598 22.3228 18.0917 23.8096C20.4951 26.5504 26 25.9431 26 25.9431C26 25.9431 26.0698 22.3205 24.9669 19.9497C24.4248 18.7817 23.4337 17.8301 22.289 17.2438ZM22.4728 22.3252C22.4448 22.3182 19.5714 21.4992 15.8837 16.5737C14.8018 17.4183 12.0843 19.6519 9.49703 22.7021L9.3807 22.8394L9.42723 22.6649C9.43421 22.6346 10.2765 19.6751 15.4067 15.9059C14.9111 15.1707 13.7455 13.4792 9.24575 9.49369L9.14571 9.40528L9.27833 9.42389C9.37372 9.43785 11.6864 9.80081 15.9116 15.2452C15.9116 15.2452 15.9651 15.3196 16.0628 15.4499C16.6585 15.0381 18.3825 13.8143 22.2587 9.43552L22.3471 9.33548L22.3285 9.4681C22.3146 9.56349 21.9516 11.8645 16.5421 16.0735C17.5635 17.3624 19.6761 19.8519 22.51 22.253L22.6496 22.3717L22.4751 22.3252H22.4728Z" fill="url(#paint0_linear_72_1808)"/>
<defs>
<linearGradient id="paint0_linear_72_1808" x1="5.99927" y1="5.99951" x2="26.0009" y2="26.0004" gradientUnits="userSpaceOnUse">
<stop stop-color="#01FF85"/>
<stop offset="1" stop-color="#00E1FD"/>
</linearGradient>
</defs>
</svg>
