<svg width="32" height="32" viewBox="0 0 32 32" fill="none" xmlns="http://www.w3.org/2000/svg">
<rect width="32" height="32" rx="8" fill="white" fill-opacity="0.05"/>
<path fill-rule="evenodd" clip-rule="evenodd" d="M11.3804 16.7905C11.6283 16.7905 11.8668 16.8832 12.0503 17.0493L12.0865 17.0835L14.9136 19.9096C15.0911 20.0871 15.1961 20.3243 15.2085 20.5747L15.2095 20.6245V25.0346C15.2094 25.6322 14.6938 26.1027 14.1128 25.98C10.0656 25.1239 6.87858 21.9392 6.02103 17.895C5.89904 17.3194 6.35048 16.8074 6.93119 16.7915L6.95853 16.7905H11.3804ZM7.67631 18.3042C8.54376 21.1781 10.819 23.4519 13.7066 24.3169V21.2524C13.7066 20.9852 13.6007 20.7284 13.4117 20.5395L11.4693 18.5981C11.2805 18.4095 11.0242 18.3043 10.7574 18.3042H7.67631Z" fill="#90D2F2"/>
<path fill-rule="evenodd" clip-rule="evenodd" d="M25.0699 16.7915C25.6505 16.8076 26.1009 17.3194 25.979 17.895C25.1215 21.9392 21.9346 25.1239 17.8872 25.98C17.3063 26.1027 16.7906 25.6323 16.7906 25.0346V20.6245L16.7915 20.5747C16.8039 20.3242 16.9089 20.0862 17.0865 19.9087L19.9136 17.0835L19.9497 17.0493C20.1211 16.8943 20.3407 16.8039 20.5708 16.7925L20.6197 16.7905H25.0415L25.0699 16.7915ZM21.2437 18.3042C20.9768 18.3042 20.7206 18.4096 20.5318 18.5981L18.5894 20.5395C18.4004 20.7284 18.2935 20.9852 18.2935 21.2524V24.3169C21.1811 23.452 23.4564 21.178 24.3238 18.3042H21.2437Z" fill="#90D2F2"/>
<path fill-rule="evenodd" clip-rule="evenodd" d="M14.1128 6.02098C14.6938 5.89813 15.2095 6.36867 15.2095 6.96629V11.3755L15.2085 11.4253C15.1961 11.6757 15.0912 11.9138 14.9136 12.0913L12.0865 14.9165L12.0503 14.9507C11.8668 15.1168 11.6283 15.2094 11.3804 15.2095H6.93119C6.35045 15.1936 5.89896 14.6806 6.02103 14.105C6.87866 10.0609 10.0657 6.87694 14.1128 6.02098ZM13.7066 7.68309C10.8188 8.54794 8.5437 10.8227 7.67631 13.6968H10.7574C11.0242 13.6967 11.2805 13.5905 11.4693 13.4018L13.4117 11.4604C13.6005 11.2717 13.7065 11.0155 13.7066 10.7485V7.68309Z" fill="#90D2F2"/>
<path fill-rule="evenodd" clip-rule="evenodd" d="M16.7906 6.96629C16.7906 6.36861 17.3057 5.89748 17.8863 6.02C21.9324 6.87392 25.1194 10.0586 25.979 14.104C26.1033 14.6891 25.6363 15.2092 25.0425 15.2095H20.6177C20.3536 15.2093 20.1 15.104 19.9126 14.9165L17.0865 12.0893C16.9092 11.9118 16.804 11.6746 16.7915 11.4243L16.7906 11.3735V6.96629ZM18.2925 10.7466C18.2925 11.0135 18.3988 11.2697 18.5874 11.4585L20.5298 13.4009C20.7188 13.5897 20.9746 13.6958 21.2417 13.6958H24.3238C23.455 10.8212 21.1796 8.54751 18.2925 7.68406V10.7466Z" fill="#90D2F2"/>
</svg>
