<svg width="32" height="32" viewBox="0 0 32 32" fill="none" xmlns="http://www.w3.org/2000/svg">
<path d="M16 30C23.732 30 30 23.732 30 16C30 8.268 23.732 2 16 2C8.268 2 2 8.268 2 16C2 23.732 8.268 30 16 30Z" fill="#0B53BF"/>
<path d="M13.4844 7.62281L13.4815 7.61304C9.88729 8.69756 7.25478 12.0381 7.25461 15.9996C7.25461 19.9613 9.88714 23.3113 13.4815 24.3871L13.4961 24.391H13.4844V26.1754L13.4805 26.194L13.4795 26.1979C8.8926 25.0774 5.49658 20.9366 5.49658 15.9996C5.49676 11.068 8.88553 6.93186 13.4649 5.80615H13.4844V7.62281Z" fill="white"/>
<path d="M18.521 26.1979C18.5259 26.1967 18.5308 26.1952 18.5357 26.194H18.5386L18.521 26.1979Z" fill="white"/>
<path d="M18.521 5.80225C23.1078 6.92269 26.5038 11.0627 26.5039 15.9996C26.5039 20.9313 23.1151 25.0682 18.5357 26.194H18.5161V24.3763L18.52 24.391L18.5191 24.3871C22.1134 23.3025 24.7459 19.9612 24.7459 15.9996C24.7457 12.0381 22.1132 8.69756 18.5191 7.61304L18.5054 7.60913H18.5161V5.82374L18.52 5.80615L18.521 5.80225Z" fill="white"/>
<path d="M17.0845 10.746C17.9337 10.746 18.7833 10.9384 19.5363 11.3324L19.5833 11.3568L19.5393 11.3382L18.9783 12.6682L18.8845 12.892L18.9725 12.6692C18.3608 12.4247 17.6958 12.2851 17.0581 12.2851C15.7965 12.2853 14.6074 12.8222 14.0375 14.1145H18.3519L18.3627 14.1184L18.3666 14.1204L17.8242 15.4328L17.8194 15.4426V15.4357H13.7111C13.6942 15.615 13.6857 15.8028 13.6857 15.9996C13.6857 16.1965 13.6941 16.385 13.7111 16.5644H17.3454L17.3562 16.5683L17.3601 16.5703L16.8177 17.8827L16.8138 17.8924V17.8856H14.0375C14.6075 19.1777 15.7966 19.7138 17.0581 19.714C17.6962 19.714 18.3615 19.5747 18.9735 19.3299L19.1982 19.2391L18.9783 19.3319L19.5393 20.6619L19.5588 20.7098L19.5363 20.6678C18.7833 21.0616 17.9337 21.2541 17.0845 21.2541C15.0355 21.2539 12.9642 20.1089 12.213 17.8856H10.8723V17.8807H10.8684V16.5683H10.8723V16.5644H11.9423C11.9265 16.3815 11.9179 16.1929 11.9179 15.9996C11.9179 15.8064 11.9266 15.6184 11.9423 15.4357H10.8723V15.4308H10.8684V14.1184H10.8723V14.1145H12.213C12.9641 11.8911 15.0355 10.7462 17.0845 10.746Z" fill="white"/>
<path d="M13.4649 5.80615H13.4619L13.4795 5.80225C13.4747 5.80343 13.4697 5.80496 13.4649 5.80615Z" fill="white"/>
</svg>
