<svg width="32" height="32" viewBox="0 0 32 32" fill="none" xmlns="http://www.w3.org/2000/svg">
<rect width="32" height="32" rx="8" fill="#0A091F"/>
<path fill-rule="evenodd" clip-rule="evenodd" d="M7.16305 12.9821C8.79528 10.447 12.4773 8.64368 15.256 10.4613C15.7791 10.8035 16.364 11.4209 16.6467 11.9804C16.6599 11.9656 16.6736 11.9508 16.6874 11.9366C17.9675 10.622 19.5415 9.76135 21.3993 9.73096C23.2123 9.74382 24.6813 10.6076 25.4753 12.2633C26.2009 13.7763 26.1069 15.5062 25.5845 17.0659C24.5129 20.2649 20.9564 23.1534 17.4685 22.0176C16.5457 21.7166 15.539 20.8919 15.1145 20.0003C15.0116 20.115 14.9042 20.2256 14.7924 20.3316C12.6634 22.3654 9.25722 23.2078 7.02775 20.8536C6.50427 20.2412 6.25686 19.7806 6.0022 19.0124H8.81131C9.2685 19.0128 9.73527 19.0167 10.1928 19.0093C10.2528 19.0084 10.3969 18.9892 10.4434 18.9509C10.5096 18.896 10.5571 18.8313 10.5826 18.7487C10.7172 18.3122 10.8406 17.8665 10.9654 17.4272L11.6281 15.117L11.9856 13.8777C12.0546 13.6381 12.1371 13.3896 12.1716 13.1451C12.1927 12.9962 11.9956 12.9851 11.8949 12.9821C11.6828 12.9759 11.4511 12.9788 11.2406 12.979L10.0383 12.9798C9.10567 12.9796 8.08569 12.9588 7.16305 12.9821ZM15.8541 12.969C14.6467 14.7474 14.0984 16.9012 14.6855 19.0055C14.953 19.0236 15.3098 19.0124 15.5873 19.0124L18.6132 19.0116C18.8848 19.012 19.1591 19.0168 19.4304 19.0047C19.5857 18.9978 19.6524 18.9413 19.7226 18.8064C19.8002 18.6085 19.8864 18.2727 19.9486 18.0553L20.9718 14.4866C21.0826 14.1008 21.196 13.7092 21.3047 13.3219C21.3739 13.076 21.3449 12.9863 21.0633 12.9821C20.5829 12.975 20.0985 12.9786 19.6165 12.979L16.8151 12.9806C16.6843 12.9806 15.9483 12.9884 15.8541 12.969Z" fill="#EBEDFE"/>
</svg>
