<svg width="32" height="32" viewBox="0 0 32 32" fill="none" xmlns="http://www.w3.org/2000/svg">
<rect width="32" height="32" rx="8" fill="white" fill-opacity="0.05"/>
<path d="M18.4961 25.7404L17.3304 25.8957L17.1699 25.9155C16.7943 25.9593 16.4127 25.9823 16.0265 25.9834C15.6402 25.9844 15.2586 25.9634 14.8829 25.9216L14.7221 25.9025L13.5556 25.7535L13.8537 23.4203L15.0202 23.5694L15.1432 23.5839C15.4306 23.616 15.7232 23.6321 16.0202 23.6314C16.3596 23.6304 16.6934 23.6076 17.0199 23.5641L18.1856 23.4089L18.4961 25.7404ZM9.94708 20.6564L10.0245 20.7549C10.3894 21.2116 10.8056 21.6257 11.2643 21.9882L11.363 22.0651L12.2976 22.7792L10.8694 24.6479L9.93502 23.9338L9.80574 23.8334C9.20682 23.3601 8.66355 22.8194 8.18699 22.223L8.08573 22.0945L7.36668 21.1639L9.22804 19.7258L9.94708 20.6564ZM24.6606 21.1181L23.9465 22.0525C23.4165 22.746 22.7978 23.3679 22.1072 23.9016L21.1766 24.6206L19.7385 22.7595L20.6691 22.0405C21.198 21.6318 21.6719 21.1553 22.0778 20.6243L22.7919 19.6899L24.6606 21.1181ZM6.00394 16.0138C6.00277 15.5723 6.03037 15.1369 6.08498 14.7094L6.23403 13.5429L8.56697 13.841L8.41792 15.0075C8.37617 15.3343 8.35506 15.6681 8.35596 16.0075C8.35685 16.3469 8.37973 16.6807 8.42322 17.0072L8.57844 18.1729L6.24711 18.4834L6.09189 17.3177L6.0718 17.1572C6.02796 16.7816 6.00496 16.4 6.00394 16.0138ZM23.6441 15.9671C23.6433 15.6701 23.6255 15.3776 23.592 15.0902L23.5768 14.9674L23.4216 13.8017L25.7531 13.4912L25.9083 14.6569L25.9282 14.8177C25.972 15.1931 25.995 15.5746 25.9961 15.9608C25.9972 16.4023 25.9698 16.8377 25.9152 17.2652L25.7662 18.4317L23.433 18.1336L23.5821 16.9671L23.5966 16.8443C23.6287 16.5568 23.6448 16.2641 23.6441 15.9671ZM12.2617 9.21534L11.3309 9.93439L11.2326 10.0118C10.7432 10.4028 10.3027 10.8525 9.92223 11.3503L9.20834 12.2849L7.3394 10.8567L8.05351 9.92232L8.15409 9.79304C8.66128 9.15137 9.24557 8.57332 9.89303 8.07304L10.8236 7.35399L12.2617 9.21534ZM22.0652 8.04082L22.1943 8.14139C22.7932 8.61479 23.3367 9.15519 23.8132 9.75159L23.9142 9.88034L24.6333 10.8109L22.7722 12.249L22.0531 11.3182L21.9757 11.2199C21.6108 10.7632 21.1946 10.3492 20.7359 9.98664L20.637 9.90954L19.7026 9.19565L21.1308 7.32671L22.0652 8.04082ZM15.9735 5.99125C16.3598 5.99022 16.7415 6.0112 17.1173 6.05305L17.2779 6.07229L18.4444 6.22134L18.1463 8.55428L16.9798 8.40522C16.653 8.36347 16.3192 8.34236 15.9798 8.34326C15.6404 8.34416 15.3066 8.36704 14.9801 8.41052L13.8144 8.56574L13.5039 6.23441L14.6696 6.07919C15.0968 6.02232 15.5321 5.99242 15.9735 5.99125Z" fill="#E84125"/>
</svg>
