<svg preserveAspectRatio="none" width="100%" height="100%" overflow="visible" style="display: block;" viewBox="0 0 28 28" fill="none" xmlns="http://www.w3.org/2000/svg">
<g id="Frame 134">
<path id="Vector" d="M14 0H14C6.26799 0 0 6.26799 0 14V14C0 21.732 6.26799 28 14 28H14C21.732 28 28 21.732 28 14V14C28 6.26799 21.732 0 14 0Z" fill="url(#paint0_linear_0_4)"/>
<g id="Union">
<path d="M20.7832 16.7461C20.9868 16.7464 21.0884 16.9927 20.9443 17.1367L18.7324 19.3467C18.6466 19.4323 18.5304 19.4805 18.4092 19.4805H7.2168C7.01326 19.4801 6.91079 19.2339 7.05469 19.0898L9.2666 16.8799C9.35224 16.7944 9.46889 16.7462 9.58984 16.7461H20.7832Z" fill="var(--fill-0, white)"/>
<path d="M18.4092 12.5918C18.5301 12.5918 18.6467 12.6402 18.7324 12.7256L20.9443 14.9355C21.0885 15.0795 20.9868 15.3259 20.7832 15.3262H9.58984C9.46877 15.326 9.35226 15.278 9.2666 15.1924L7.05469 12.9824C6.91129 12.8384 7.01342 12.5921 7.2168 12.5918H18.4092Z" fill="var(--fill-0, white)"/>
<path d="M20.7832 8.49023C20.987 8.49031 21.0885 8.73682 20.9443 8.88086L18.7334 11.0908C18.6476 11.1764 18.5304 11.2246 18.4092 11.2246H7.2168C7.01333 11.2242 6.91099 10.9781 7.05469 10.834L9.2666 8.62402C9.3522 8.53843 9.46886 8.49045 9.58984 8.49023H20.7832Z" fill="var(--fill-0, white)"/>
<path fill-rule="evenodd" clip-rule="evenodd" d="M14 2C20.6274 2.00003 26 7.37263 26 14C25.9999 20.6274 20.6274 26 14 26C7.37266 26 2.00006 20.6274 2 14C2 7.37262 7.37263 2 14 2ZM14 3C7.92491 3 3 7.9249 3 14C3.00006 20.0751 7.92495 25 14 25C20.0751 25 24.9999 20.0751 25 14C25 7.92493 20.0752 3.00003 14 3Z" fill="var(--fill-0, white)"/>
</g>
</g>
<defs>
<linearGradient id="paint0_linear_0_4" x1="7.99999" y1="8.49995" x2="19" y2="19.5" gradientUnits="userSpaceOnUse">
<stop stop-color="#7CD18B"/>
<stop offset="1" stop-color="#39997D"/>
</linearGradient>
</defs>
</svg>
