<svg width="32" height="32" viewBox="0 0 32 32" fill="none" xmlns="http://www.w3.org/2000/svg">
<rect width="32" height="32" rx="8" fill="#3A7861"/>
<path d="M11.3213 16.2565C11.3213 17.2734 10.9737 18.1265 10.2784 18.8137C9.58316 19.503 8.73606 19.8466 7.73714 19.8466H6.25073V18.3722H7.73714C8.3285 18.3722 8.82597 18.1704 9.22952 17.7649C9.63311 17.3613 9.83488 16.8578 9.83488 16.2585L9.82291 12.1509H11.3213V16.2565Z" fill="white"/>
<path d="M12.3903 12.221H13.8766L13.8527 13.6714H12.3783L12.3903 12.221ZM12.3903 14.2588H13.8766V19.8448H12.3783L12.3903 14.2588Z" fill="white"/>
<path d="M16.4703 13.7432H19.0236V15.2296H16.4464V17.2874C16.4464 17.5931 16.5422 17.8488 16.736 18.0566C16.9298 18.2643 17.1716 18.3702 17.4613 18.3702H19.0096V19.8447H17.4752C16.772 19.8447 16.1786 19.5949 15.6951 19.0935C15.2117 18.592 14.9699 17.9827 14.9699 17.2614V12.1709H16.4444L16.4683 13.7412L16.4703 13.7432Z" fill="white"/>
<path d="M24.8656 18.9697C24.2742 19.5551 23.551 19.8468 22.696 19.8468C21.8409 19.8468 21.1077 19.5531 20.5203 18.9637C19.9329 18.3743 19.6392 17.6531 19.6392 16.7961C19.6392 15.939 19.9349 15.2157 20.5263 14.6224C21.1176 14.029 21.8409 13.7333 22.696 13.7333C23.551 13.7333 24.2742 14.029 24.8656 14.6224C25.457 15.2157 25.7527 15.939 25.7527 16.7961C25.7527 17.6531 25.457 18.3863 24.8656 18.9697ZM23.7928 15.6593C23.5011 15.3656 23.1355 15.2197 22.696 15.2197C22.2564 15.2197 21.8848 15.3716 21.5811 15.6773C21.2775 15.9829 21.1256 16.3545 21.1256 16.7961C21.1256 17.2376 21.2775 17.6112 21.5811 17.9148C21.8848 18.2205 22.2564 18.3724 22.696 18.3724C23.1355 18.3724 23.5171 18.2225 23.8167 17.9208C24.1164 17.6192 24.2663 17.2456 24.2663 16.7961C24.2663 16.3705 24.0845 15.953 23.7928 15.6593Z" fill="white"/>
</svg>
