<svg width="32" height="32" viewBox="0 0 32 32" fill="none" xmlns="http://www.w3.org/2000/svg">
<path d="M30.0001 15.9999C30.0001 8.26798 23.7321 2 16.0002 2C8.26822 2 2.00024 8.26798 2.00024 15.9999C2.00024 23.7319 8.26822 29.9998 16.0002 29.9998C23.7321 29.9998 30.0001 23.7319 30.0001 15.9999Z" fill="black"/>
<path d="M14.7678 18.6094C15.5694 18.0561 16.4311 17.8668 17.3518 18.042C18.2741 18.2161 19.0075 18.6974 19.552 19.4863L20.3616 20.6602L19.1995 21.4629L18.3889 20.2891C18.0665 19.822 17.6366 19.5385 17.0969 19.4404C16.5588 19.3413 16.0518 19.4561 15.5793 19.7822L13.5286 21.2061C12.8769 21.6584 11.9822 21.4957 11.5315 20.8428L14.7678 18.6094Z" fill="white"/>
<path d="M13.2688 14.8096C13.8231 15.6127 14.0135 16.4764 13.8401 17.3975C13.6677 18.3199 13.1879 19.0523 12.4006 19.5957L11.2288 20.4043L10.425 19.2393L11.5969 18.4307C12.0628 18.109 12.3446 17.6792 12.4417 17.1396C12.5398 16.6013 12.4246 16.0935 12.0979 15.6201L10.6682 13.5615C10.2165 12.911 10.3788 12.0172 11.0305 11.5674L13.2688 14.8096Z" fill="white"/>
<path d="M21.5266 12.6025L20.3547 13.4111C19.8887 13.7328 19.607 14.1633 19.51 14.7031C19.412 15.2412 19.5271 15.7484 19.8538 16.2217L21.2834 18.2803C21.7352 18.9307 21.5728 19.8245 20.9211 20.2744L18.6829 17.0322C18.1286 16.2292 17.9382 15.3662 18.1116 14.4453C18.2839 13.5227 18.7636 12.7896 19.551 12.2461L20.7229 11.4375L21.5266 12.6025Z" fill="white"/>
<path d="M18.3528 10.5342C19.0043 10.082 19.8992 10.2448 20.3499 10.8975L17.1135 13.1318C16.3121 13.6848 15.4501 13.8743 14.5295 13.6992C13.6073 13.5252 12.8749 13.0427 12.3303 12.2539L11.5198 11.0801L12.6819 10.2783L13.4924 11.4521C13.8147 11.919 14.2449 12.2018 14.7844 12.2998C15.3225 12.399 15.8296 12.285 16.302 11.959L18.3528 10.5342Z" fill="white"/>
<path fill-rule="evenodd" clip-rule="evenodd" d="M15.9973 4.19434C22.4386 4.19434 27.6602 9.41627 27.6604 15.8574C27.6603 22.2986 22.4386 27.5205 15.9973 27.5205C9.55635 27.5202 4.33436 22.2984 4.33423 15.8574C4.3344 9.41645 9.55637 4.19462 15.9973 4.19434ZM15.9973 5.16699C10.0931 5.16728 5.30705 9.95322 5.30688 15.8574C5.30702 21.7616 10.0931 26.5485 15.9973 26.5488C21.9018 26.5488 26.6886 21.7618 26.6887 15.8574C26.6886 9.95305 21.9018 5.16699 15.9973 5.16699Z" fill="white"/>
</svg>
