<svg preserveAspectRatio="none" width="100%" height="100%" overflow="visible" style="display: block;" viewBox="0 0 32 32" fill="none" xmlns="http://www.w3.org/2000/svg">
<g id="Jupiter">
<rect width="32" height="32" rx="8" fill="var(--fill-0, #111727)"/>
<path id="Union" d="M6.41941 18.8768C10.5731 17.2424 17.5999 21.1165 18.4516 25.8387C17.8796 25.894 17.3101 25.982 16.7446 25.9852C16.5984 25.9848 16.4195 25.7378 16.3091 25.5721C14.424 22.748 11.785 21.13 8.44089 20.6327C8.38239 20.6262 8.32362 20.6157 8.26511 20.6092C7.8882 20.5573 7.34538 20.6422 7.16648 20.4247C6.81221 19.9989 6.65667 19.4033 6.41941 18.8768ZM8.05711 21.9745C9.98128 21.6692 13.8749 23.9019 14.98 25.9657C12.0873 25.5399 9.8317 24.2268 8.05711 21.9745ZM6.81589 15.3797C8.18729 14.8404 9.60734 14.8373 11.021 15.1297C15.0187 15.9618 18.2561 17.9607 20.4272 21.4872C20.7977 22.0884 21.0219 22.8034 21.2007 23.4891C21.5029 24.6558 21.3407 24.8674 20.0864 25.2508C19.1926 22.2348 17.2261 20.1121 14.5903 18.5877C11.974 17.0764 9.17838 16.4131 6.17527 17.1248C5.73337 16.1402 5.87666 15.7502 6.81589 15.3797ZM7.46238 11.9872C8.6584 11.3761 9.96147 11.3208 11.2387 11.5223C16.0653 12.2829 20.0145 14.5543 22.8032 18.617C23.3362 19.3937 23.6096 20.3783 23.8501 21.3143C24.0256 21.9968 23.905 22.7319 23.229 23.3299C22.2572 19.5077 19.7608 17.0214 16.5659 15.1688C13.3872 13.326 10.0103 12.4093 6.24656 13.4461C6.38306 12.6531 6.89038 12.2797 7.46238 11.9872ZM10.81 8.30454C13.0072 8.04127 15.0778 8.55096 17.0766 9.39926C19.9627 10.6213 22.5043 12.3376 24.3471 14.9149C24.9353 15.737 25.3058 16.7284 25.6958 17.6805C25.8518 18.064 25.7872 18.5389 25.7807 18.9647C21.9 12.5456 16.2542 9.29578 8.74949 9.10727C9.33774 8.61327 10.0495 8.39555 10.81 8.30454ZM13.7514 6.37387C18.3406 4.95683 24.5479 7.75491 26.0757 13.5692C22.7508 9.70499 18.6947 7.34891 13.7514 6.37387Z" fill="url(#paint0_linear_0_4)"/>
</g>
<defs>
<linearGradient id="paint0_linear_0_4" x1="21.8264" y1="7.43924" x2="11.2186" y2="24.4563" gradientUnits="userSpaceOnUse">
<stop offset="0.16" stop-color="#C6F462"/>
<stop offset="0.89" stop-color="#33D9FF"/>
</linearGradient>
</defs>
</svg>
