<svg width="32" height="32" viewBox="0 0 32 32" fill="none" xmlns="http://www.w3.org/2000/svg">
<rect width="32" height="32" rx="8" fill="#111727"/>
<path fill-rule="evenodd" clip-rule="evenodd" d="M6.41873 18.8777C10.5725 17.2428 17.5994 21.1171 18.451 25.8396C17.879 25.8948 17.3103 25.9818 16.7449 25.9851C16.5987 25.9851 16.4199 25.7387 16.3094 25.573C14.4242 22.7486 11.7847 21.1298 8.44022 20.6326C8.38196 20.6261 8.32367 20.6166 8.26541 20.6101C7.8885 20.5581 7.34569 20.6421 7.16678 20.4245C6.81255 19.9988 6.65595 19.4042 6.41873 18.8777ZM8.05643 21.9743C9.98054 21.6688 13.8742 23.9027 14.9793 25.9665C12.0868 25.5407 9.83096 24.2266 8.05643 21.9743ZM6.81522 15.3796C8.18679 14.8401 9.60745 14.8371 11.0213 15.1296C15.0189 15.9617 18.2564 17.9606 20.4275 21.487C20.798 22.0883 21.0222 22.8033 21.201 23.489C21.5032 24.6558 21.3403 24.8672 20.0857 25.2507C19.1919 22.2346 17.2255 20.1119 14.5896 18.5876C11.9733 17.0764 9.17766 16.414 6.17459 17.1257C5.73257 16.1409 5.87591 15.7501 6.81522 15.3796ZM7.4617 11.987C8.65777 11.376 9.96172 11.3207 11.239 11.5222C16.0655 12.2828 20.0149 14.5543 22.8035 18.6169C23.3365 19.3937 23.6089 20.3791 23.8494 21.3152C24.0249 21.9977 23.9043 22.7318 23.2283 23.3298C22.2564 19.5079 19.761 17.0212 16.5662 15.1687C13.3876 13.3259 10.0104 12.4094 6.24686 13.446C6.38341 12.6534 6.8899 12.2795 7.4617 11.987ZM10.8103 8.30443C13.0073 8.04126 15.0773 8.55193 17.076 9.40013C19.9621 10.6222 22.5046 12.3384 24.3474 14.9158C24.9355 15.738 25.3061 16.7293 25.6961 17.6814C25.8519 18.0647 25.7866 18.539 25.7801 18.9646C21.8994 12.5459 16.2541 9.29577 8.74979 9.10716C9.33802 8.61329 10.0499 8.39542 10.8103 8.30443ZM13.7517 6.37376C18.341 4.95702 24.5484 7.75567 26.076 13.5701C22.7511 9.7057 18.6951 7.34887 13.7517 6.37376Z" fill="url(#paint0_linear_2_170)"/>
<defs>
<linearGradient id="paint0_linear_2_170" x1="21.826" y1="7.43939" x2="11.2181" y2="24.4565" gradientUnits="userSpaceOnUse">
<stop offset="0.16" stop-color="#C6F462"/>
<stop offset="0.89" stop-color="#33D9FF"/>
</linearGradient>
</defs>
</svg>
