<svg preserveAspectRatio="none" width="100%" height="100%" overflow="visible" style="display: block;" viewBox="0 0 42.0378 42.0378" fill="none" xmlns="http://www.w3.org/2000/svg">
<g id="Jupiter">
<rect width="42.0378" height="42.0378" rx="10.5095" fill="var(--fill-0, #111727)"/>
<path id="Union" d="M8.43262 24.7982C13.8893 22.6507 23.1206 27.7408 24.2393 33.9447C23.4878 34.0173 22.74 34.1318 21.9971 34.1361C21.8051 34.1356 21.5709 33.8117 21.4258 33.5941C18.9493 29.8837 15.4814 27.7571 11.0879 27.1039C11.0112 27.0953 10.9341 27.0831 10.8574 27.0746C10.3624 27.0064 9.65023 27.1168 9.41504 26.8314C8.94964 26.2721 8.74431 25.4899 8.43262 24.7982ZM10.584 28.8675C13.1116 28.4662 18.227 31.3994 19.6787 34.1107C15.8787 33.5514 12.9152 31.8264 10.584 28.8675ZM8.95313 20.2044C10.7549 19.4957 12.6212 19.4911 14.4785 19.8753C19.7302 20.9684 23.9828 23.5943 26.835 28.2269C27.3217 29.0167 27.6167 29.9559 27.8516 30.8568C28.2486 32.3896 28.0347 32.6674 26.3867 33.1712C25.2125 29.209 22.6287 26.4208 19.166 24.4183C15.729 22.4331 12.0574 21.5624 8.11231 22.4974C7.53166 21.2038 7.71941 20.6912 8.95313 20.2044ZM9.80273 15.7464C11.374 14.9437 13.0867 14.8714 14.7646 15.1361C21.1051 16.1352 26.2927 19.1203 29.9561 24.4574C30.6561 25.4777 31.0152 26.7709 31.3311 28.0003C31.5616 28.8969 31.4035 29.8622 30.5156 30.6478C29.239 25.6268 25.9596 22.3608 21.7627 19.9271C17.5869 17.5062 13.1504 16.3014 8.20606 17.6634C8.38547 16.6219 9.05138 16.1307 9.80273 15.7464ZM14.2012 10.9095C17.0873 10.5637 19.8069 11.2337 22.4326 12.348C26.2241 13.9534 29.5634 16.2082 31.9844 19.5941C32.757 20.6742 33.2436 21.9761 33.7559 23.2269C33.9608 23.7306 33.8758 24.3542 33.8672 24.9134C28.7692 16.4809 21.3528 12.2109 11.4941 11.9632C12.2669 11.3144 13.2022 11.0291 14.2012 10.9095ZM18.0645 8.37241C24.0933 6.51081 32.2491 10.188 34.2559 17.8265C29.8879 12.7498 24.5587 9.65332 18.0645 8.37241Z" fill="url(#paint0_linear_0_4)"/>
</g>
<defs>
<linearGradient id="paint0_linear_0_4" x1="28.6728" y1="9.7727" x2="14.7367" y2="32.1278" gradientUnits="userSpaceOnUse">
<stop offset="0.16" stop-color="#C6F462"/>
<stop offset="0.89" stop-color="#33D9FF"/>
</linearGradient>
</defs>
</svg>
