<svg width="32" height="32" viewBox="0 0 32 32" fill="none" xmlns="http://www.w3.org/2000/svg">
<rect width="32" height="32" rx="8" fill="#111727"/>
<path d="M10.7681 15.1126C11.9883 15.0523 13.9791 15.5155 15.0073 16.1755C14.2857 16.1924 13.5638 16.1958 12.842 16.1858L8.62793 16.1883C8.6277 16.049 8.62803 15.9309 8.63775 15.792C9.04025 15.3407 10.1915 15.1434 10.7681 15.1126Z" fill="url(#paint0_linear_73_1979)"/>
<path d="M11.3085 12.5441C11.8508 12.5204 12.3409 12.5477 12.8763 12.638C15.2361 13.0358 17.9801 14.4381 19.6143 16.19C19.4488 16.1751 19.2715 16.1847 19.1038 16.1859L18.3213 16.1875C17.62 16.1906 17.7105 16.2161 17.1455 15.793C16.7768 15.543 16.3965 15.3105 16.006 15.0963C14.8779 14.4698 13.6499 14.0429 12.3763 13.8346C12.1846 13.8032 11.9044 13.7428 11.7142 13.7402C11.2466 13.734 10.7115 13.7038 10.2499 13.7531C9.76155 13.8053 9.2564 13.9563 8.78993 14.094C8.84577 13.8077 8.91765 13.6038 9.11711 13.3835C9.64164 12.8041 10.5535 12.5777 11.3085 12.5441Z" fill="url(#paint1_linear_73_1979)"/>
<path d="M12.6312 10.1835C13.9141 10.1161 15.322 10.4593 16.514 10.9443C18.6235 11.8026 20.7564 13.2593 22.0856 15.1299C22.3324 15.4772 22.5306 15.7923 22.698 16.1802C22.3699 16.1803 22.1311 16.2025 21.7951 16.1704C21.6216 16.0086 21.3606 15.6584 21.1765 15.4563C20.6675 14.9059 20.1161 14.3965 19.5272 13.9326C17.7243 12.5111 15.3525 11.3733 13.0684 11.0156C12.4942 10.9257 11.8062 10.9127 11.2238 10.9258C11.0521 10.9297 10.6506 10.9878 10.4627 11.01C11.069 10.3921 11.7941 10.2307 12.6312 10.1835Z" fill="url(#paint2_linear_73_1979)"/>
<path d="M15.8027 8.54519C16.0317 8.52228 16.381 8.54029 16.6082 8.5595C17.616 8.63788 18.5982 8.91553 19.498 9.37626C21.0655 10.1781 22.3006 11.5062 22.9864 13.1276C23.1733 13.5656 23.2386 13.8399 23.3796 14.2772C23.1243 14.0017 22.87 13.6605 22.6004 13.3652C20.6709 11.2476 17.5628 9.46509 14.7401 8.95088C14.5196 8.9107 14.2935 8.85421 14.0715 8.82836C14.5541 8.67357 15.299 8.57511 15.8027 8.54519Z" fill="url(#paint3_linear_73_1979)"/>
<path fill-rule="evenodd" clip-rule="evenodd" d="M7.83142 10.233C10.2161 6.85686 14.4331 5.29587 18.4421 6.30519C22.9345 7.43625 26.0617 11.5041 25.9991 16.1352C25.9364 20.7663 22.7002 24.748 18.1788 25.7571C14.144 26.6576 9.97079 24.9831 7.67832 21.5437C5.38584 18.1043 5.44669 13.6091 7.83142 10.233ZM16.0711 7.00642C15.7269 7.00334 15.341 7.00099 14.9989 7.02551C14.8397 7.03691 14.596 7.08766 14.4326 7.11685C13.1773 7.33298 11.9834 7.81751 10.9326 8.53732C8.94836 9.88779 7.58064 11.9698 7.12935 14.3268C7.03439 14.8435 6.98631 15.3639 7.00013 15.8877C7.00806 16.1885 6.98872 16.4957 7.01293 16.796C7.14952 18.3366 7.68079 19.816 8.55551 21.0916C9.92747 23.0968 12.0513 24.4633 14.4452 24.881C15.2925 25.0346 16.1733 25.0022 17.0328 24.9625C17.327 24.9489 17.65 24.8333 17.9407 24.8138C18.3214 24.7026 18.607 24.6497 18.9988 24.5065C20.1155 24.0985 21.1386 23.5177 22.0195 22.7138C22.1659 22.5802 22.3628 22.3952 22.4856 22.2415C21.9936 22.1899 21.4883 22.2243 20.9934 22.2163C20.7747 22.21 20.5436 22.2311 20.3277 22.1938C18.4685 21.8722 17.7216 19.5886 19.0625 18.24C19.9171 17.3805 20.9047 17.5374 22.007 17.5375L24.8715 17.5362C25.001 17.0205 24.974 16.6858 24.9922 16.1716C25.0443 14.7035 24.7513 13.3412 24.092 12.0121C23.139 10.0904 21.5366 8.5677 19.5685 7.71357C19.2883 7.59276 18.9741 7.47459 18.6827 7.38164C18.494 7.32145 18.2973 7.28256 18.1057 7.21816C17.7793 7.15811 17.4001 7.0757 17.0775 7.03267C16.7907 6.99444 16.3669 7.00907 16.0711 7.00642ZM20.7062 18.5792C19.9847 18.6032 19.4198 19.208 19.4452 19.9293C19.4706 20.6505 20.0768 21.2142 20.7982 21.1873C21.5174 21.1605 22.0792 20.5565 22.0538 19.8374C22.0286 19.1182 21.4256 18.5554 20.7062 18.5792Z" fill="url(#paint4_linear_73_1979)"/>
<defs>
<linearGradient id="paint0_linear_73_1979" x1="25.6134" y1="13.4905" x2="6.00016" y2="16.0011" gradientUnits="userSpaceOnUse">
<stop stop-color="#B4D88E"/>
<stop offset="1" stop-color="#46C5CE"/>
</linearGradient>
<linearGradient id="paint1_linear_73_1979" x1="25.6134" y1="13.4905" x2="6.00016" y2="16.0011" gradientUnits="userSpaceOnUse">
<stop stop-color="#B4D88E"/>
<stop offset="1" stop-color="#46C5CE"/>
</linearGradient>
<linearGradient id="paint2_linear_73_1979" x1="25.6134" y1="13.4905" x2="6.00016" y2="16.0011" gradientUnits="userSpaceOnUse">
<stop stop-color="#B4D88E"/>
<stop offset="1" stop-color="#46C5CE"/>
</linearGradient>
<linearGradient id="paint3_linear_73_1979" x1="25.6134" y1="13.4905" x2="6.00016" y2="16.0011" gradientUnits="userSpaceOnUse">
<stop stop-color="#B4D88E"/>
<stop offset="1" stop-color="#46C5CE"/>
</linearGradient>
<linearGradient id="paint4_linear_73_1979" x1="25.6134" y1="13.4905" x2="6.00016" y2="16.0011" gradientUnits="userSpaceOnUse">
<stop stop-color="#B4D88E"/>
<stop offset="1" stop-color="#46C5CE"/>
</linearGradient>
</defs>
</svg>
