<svg width="32" height="32" viewBox="0 0 32 32" fill="none" xmlns="http://www.w3.org/2000/svg">
<rect width="32" height="32" rx="8" fill="#04162E"/>
<path d="M20.277 12.1622C20.5865 12.1658 21.4176 12.1419 21.6926 12.194C21.7012 12.2585 21.6635 12.4061 21.6153 12.4421C18.2289 14.9702 17.972 20.5405 21.1963 23.4192C21.4293 23.6068 21.594 23.729 21.7547 23.9817C21.2866 24.0243 20.532 24.0042 20.0437 24.0041L17.0945 24.0027C16.9191 23.7593 16.798 23.5182 16.6594 23.257C15.3689 20.8254 15.0602 17.9544 15.7507 15.2957C16.0524 14.1344 16.5056 13.1948 17.1108 12.1598C18.1588 12.179 19.2278 12.15 20.277 12.1622Z" fill="#C9F2FA"/>
<path d="M13.791 24.0076L10.2465 24.0041L10.2451 7.9921L13.7889 7.99072L13.791 24.0076Z" fill="#C9F2FA"/>
</svg>
