<svg preserveAspectRatio="none" width="100%" height="100%" overflow="visible" style="display: block;" viewBox="0 0 42.0378 42.0378" fill="none" xmlns="http://www.w3.org/2000/svg">
<g id="Kamino">
<rect width="42.0378" height="42.0378" rx="10.5095" fill="var(--fill-0, #04162E)"/>
<g id="Union">
<path d="M26.6377 15.9776C27.0442 15.9823 28.1361 15.9509 28.4973 16.0193C28.5087 16.1042 28.4591 16.298 28.3957 16.3453C23.9471 19.6665 23.6096 26.9841 27.8454 30.7657C28.1514 31.0122 28.3678 31.1728 28.5789 31.5046C27.964 31.5606 26.9727 31.5342 26.3312 31.5341L22.4569 31.5323C22.2265 31.2125 22.0674 30.8958 21.8853 30.5526C20.1899 27.3583 19.7845 23.5868 20.6916 20.094C21.0878 18.5684 21.6833 17.3341 22.4782 15.9744C23.855 15.9997 25.2593 15.9616 26.6377 15.9776Z" fill="var(--fill-0, #C9F2FA)"/>
<path d="M18.1171 31.5386L13.4608 31.5341L13.459 10.4994L18.1143 10.4976L18.1171 31.5386Z" fill="var(--fill-0, #C9F2FA)"/>
</g>
</g>
</svg>
