<svg width="32" height="32" viewBox="0 0 32 32" fill="none" xmlns="http://www.w3.org/2000/svg">
<rect width="32" height="32" rx="8" fill="#B5B5B5"/>
<path d="M16.8115 6.95068C16.8115 10.0029 16.8115 12.9008 16.8115 15.8537C19.8936 15.8537 22.9208 15.8537 25.9949 15.8537C25.9949 18.9381 25.9949 21.9675 25.9949 25.0493C22.9409 25.0493 19.8722 25.0493 16.7258 25.0493C16.7258 22.1192 16.7258 19.1596 16.7258 15.9544C16.1924 16.2255 15.7676 16.361 15.442 16.6214C14.5509 17.3342 14.0591 18.322 13.7173 19.3891C13.3153 20.6468 12.8785 21.8655 12.0048 22.9125C11.1284 23.9634 10.051 24.605 8.73772 24.8157C7.85196 24.958 6.94341 24.9513 6.00537 25.0144C6.00537 21.9568 6.00537 19.0146 6.00537 16.0322C6.34842 15.9584 6.6888 15.8926 7.02515 15.8094C8.35849 15.4779 8.92532 14.388 9.44259 13.2847C10.0054 12.082 10.4262 10.8069 11.0533 9.64185C11.8949 8.07681 13.3301 7.32651 15.0735 7.14262C15.6149 7.08356 16.1576 7.02182 16.8115 6.95068Z" fill="#0F1110"/>
</svg>
