<svg preserveAspectRatio="none" width="100%" height="100%" overflow="visible" style="display: block;" viewBox="0 0 19.9963 13.5281" fill="none" xmlns="http://www.w3.org/2000/svg">
<g id="Frame 1000002794">
<path id="Subtract" d="M15.6247 0.00479497C17.9776 -0.0928268 20.5224 1.37009 19.901 4.14054C19.6193 5.39679 18.2856 6.52224 17.3717 7.36026C16.6029 8.06534 17.3331 9.24877 17.0612 10.1513C16.9199 10.6208 16.529 10.979 16.0221 11.0556C13.3163 11.2046 10.7249 11.8044 8.17057 12.6923C7.77803 12.8258 7.39004 12.9729 7.00749 13.1327C6.03523 13.5296 5.31773 13.9173 4.65397 12.7509C4.47068 12.4248 4.31406 12.0503 4.15788 11.7089C4.03094 11.4313 3.89384 10.9238 3.70768 10.7069C3.41265 10.4201 2.93343 10.3139 2.55338 10.1571C0.657398 9.37518 -0.353641 8.0607 0.112954 5.96671C0.269814 5.26946 0.696098 4.66179 1.2985 4.27726C2.71256 3.38853 4.94187 3.5163 6.47331 4.0253C6.81782 4.13985 7.16281 4.28571 7.51627 4.3671C7.91542 4.20742 8.59903 3.72661 8.98014 3.47062C9.60431 3.05256 10.222 2.62494 10.8327 2.18741C12.3526 1.10109 13.6691 0.111795 15.6247 0.00479497ZM18.5133 2.17276C17.8058 1.24895 16.5248 1.03968 15.4333 1.14151C14.8268 1.18633 14.3448 1.30422 13.7956 1.57804C12.6084 2.16992 11.517 3.04752 10.4274 3.80265C9.18532 4.64822 7.91843 5.45675 6.62858 6.22745C6.17784 6.4974 5.45506 6.9823 4.98795 7.13956C4.788 7.08601 4.60601 7.03816 4.49381 6.84659C4.42852 6.73499 4.39286 6.61182 4.42838 6.48429C4.57461 5.96039 6.20195 5.48827 5.96647 5.10147C5.86949 4.9426 5.45674 4.84877 5.27995 4.81534C4.30366 4.63076 2.70533 4.6357 1.86979 5.21085C1.45235 5.49822 1.21277 5.91249 1.1237 6.40714C1.01774 6.99542 1.0625 7.54559 1.41178 8.04581C1.81833 8.62796 2.71947 9.18603 3.41667 9.30948C3.59976 9.34189 3.79424 9.35476 3.97624 9.31144C4.64203 9.15273 6.8681 7.73261 7.38151 8.4755C7.4696 8.60308 7.47506 8.79498 7.44303 8.94229C7.41751 9.05934 7.33561 9.1516 7.236 9.21378C6.74727 9.5185 5.05675 9.68071 4.89323 10.2978C4.79678 10.6626 5.08967 11.124 5.23502 11.4433C5.30624 11.5997 5.35814 11.7703 5.44694 11.9179C5.54722 12.0845 5.69328 12.2059 5.88542 12.2489C6.27859 12.3369 7.54889 11.7373 7.97331 11.5761C9.35034 11.0769 10.7641 10.6851 12.2018 10.4052C13.0515 10.2333 13.8612 10.0868 14.7272 10.0351C15.0403 10.0164 15.8271 10.0401 15.984 9.70694C16.1163 9.42599 15.985 8.55692 15.8708 8.26651C15.8029 8.09428 15.6616 7.96737 15.4928 7.8964C14.8395 7.62201 12.6438 7.94444 11.8981 8.10245C11.517 8.18327 11.0008 8.39135 10.6198 8.34366C10.4586 8.32341 10.3275 8.1833 10.2643 8.04093C10.2111 7.9207 10.2011 7.75759 10.2487 7.6337C10.3112 7.47097 10.4766 7.36546 10.6305 7.30167C11.0528 7.12687 11.5275 7.07289 11.9733 6.98331C12.1397 6.47747 12.2797 5.95871 12.4274 5.45206C12.4979 5.21038 12.8197 4.98741 13.0661 5.08683C13.313 5.16916 13.4136 5.43357 13.4977 5.65226C13.414 5.79406 13.3914 5.96028 13.3464 6.12979C13.2974 6.33077 13.2163 6.60752 13.4274 6.74601C13.4659 6.77128 13.5536 6.78073 13.5905 6.75968C14.2528 6.37557 14.6527 4.65333 15.1432 4.24503C15.6598 4.17974 15.7826 4.26149 15.9557 4.74112C15.8312 5.17197 15.3909 6.10514 15.1364 6.49308C15.2054 6.57635 15.2793 6.66028 15.3346 6.75284C15.9048 6.82686 16.3083 6.83779 16.7682 6.43448C17.9206 5.42409 19.7573 3.79717 18.5133 2.17276Z" fill="var(--fill-0, #FEFEFE)"/>
</g>
</svg>
