<svg preserveAspectRatio="none" width="100%" height="100%" overflow="visible" style="display: block;" viewBox="0 0 32 32" fill="none" xmlns="http://www.w3.org/2000/svg">
<g id="MetaDao">
<rect width="32" height="32" rx="8" fill="var(--fill-0, #1A1A1A)"/>
<path id="Vector" d="M6.45597 6.00397C6.19837 6.02824 6.00186 6.24507 6.00298 6.5038V10.0026C6.00043 10.1829 6.09514 10.3506 6.25084 10.4414C6.40654 10.5323 6.59912 10.5323 6.75482 10.4414C6.91052 10.3506 7.00523 10.1829 7.00267 10.0026V7.70653L9.86899 10.5728C10.0923 10.3241 10.3309 10.0931 10.5797 9.86988L7.7134 7.00364H10.0018C10.182 7.00619 10.3497 6.91148 10.4406 6.75578C10.5314 6.60008 10.5314 6.40752 10.4406 6.25182C10.3497 6.09612 10.182 6.00142 10.0018 6.00397H6.50283C6.48722 6.00323 6.47158 6.00323 6.45597 6.00397ZM10.5797 9.86988L15.3517 14.6417C15.5437 14.8244 15.5459 15.1718 15.3595 15.3602C15.1731 15.5486 14.8335 15.5424 14.6488 15.3524L9.86899 10.5728C8.39817 12.2102 7.50252 14.3761 7.50252 16.7504C7.50252 21.8574 11.6426 25.9974 16.7497 25.9974C21.8568 25.9974 25.9969 21.8574 25.9969 16.7504C25.9969 11.6435 21.8568 7.50347 16.7497 7.50347C14.3775 7.50347 12.2167 8.4014 10.5797 9.86988Z" fill="url(#paint0_linear_0_4)"/>
</g>
<defs>
<linearGradient id="paint0_linear_0_4" x1="15.9999" y1="6.00342" x2="15.9999" y2="25.9974" gradientUnits="userSpaceOnUse">
<stop stop-color="#FF7B7B"/>
<stop offset="1" stop-color="#FF4949"/>
</linearGradient>
</defs>
</svg>
