<svg preserveAspectRatio="none" width="100%" height="100%" overflow="visible" style="display: block;" viewBox="0 0 24.2425 26.2627" fill="none" xmlns="http://www.w3.org/2000/svg">
<g id="Meteora Logo 1" clip-path="url(#clip0_0_4)">
<path id="Vector" d="M20.723 6.09251C21.1621 5.65348 21.8425 5.6799 22.1237 6.14479C22.4277 6.64403 22.6575 7.18352 22.821 7.74872C22.9128 8.06996 22.8065 8.44564 22.5399 8.71246L13.9393 17.3132C13.4198 17.8326 12.7737 18.1917 12.0878 18.338L11.3736 18.49C10.6905 18.6391 10.0386 18.9982 9.52205 19.5148L2.9189 26.1179C2.63767 25.0332 2.51434 24.3011 3.39535 23.4201L20.723 6.09251ZM22.5863 9.79852C22.8732 9.51168 23.3141 9.67746 23.2857 10.056C23.1077 12.3748 22.0031 14.8177 20.0344 16.7864C18.5333 18.4308 14.2974 20.9445 11.27 22.6289C10.6502 22.973 10.1456 22.2382 10.6534 21.7304L22.5834 9.80148L22.5863 9.79852ZM18.6278 2.61535C18.9003 2.34279 19.3023 2.28507 19.5777 2.47429C20.1515 2.86452 20.6881 3.42989 20.9637 4.11275C21.0669 4.37673 20.9782 4.70083 20.7515 4.92753L11.488 14.1921C10.9687 14.7113 10.323 15.0696 9.63746 15.216L8.92231 15.3679C8.23939 15.5171 7.58826 15.8763 7.07176 16.3928L1.35738 22.1062C1.07628 21.0217 1.21157 20.0317 2.09227 19.1509L18.6278 2.61535ZM14.7017 0.968014C15.2182 0.451594 15.9588 0.250447 16.5671 0.479731C16.9488 0.62609 17.3168 0.804881 17.6641 1.01438C18.1229 1.29001 18.1457 1.96109 17.7153 2.39143L9.24387 10.8629C8.75888 11.3479 8.09867 11.6062 7.46732 11.5602C6.80444 11.5116 6.10676 11.7845 5.59311 12.2981L0.952947 16.9383C0.67174 15.8535 1.03667 14.6341 1.91768 13.7531L3.42099 12.2488L14.7017 0.968014ZM13.3455 0.144346C13.7526 0.138885 13.9105 0.623632 13.6009 0.933488L5.528 9.00642L4.59484 9.93859L3.17439 11.359L3.16649 11.3679C2.86803 11.6664 2.42594 11.3966 2.59239 11.0177L3.98128 7.86118C4.05876 7.6689 4.14503 7.47325 4.23972 7.27523L4.24762 7.25551C5.04828 5.55948 6.33717 3.7603 7.5482 2.54926C9.49104 0.60642 11.2362 0.164434 13.3455 0.144346Z" fill="url(#paint0_linear_0_4)"/>
</g>
<defs>
<linearGradient id="paint0_linear_0_4" x1="27.4688" y1="0.175261" x2="5.08805" y2="26.0531" gradientUnits="userSpaceOnUse">
<stop stop-color="#F5BD00"/>
<stop offset="0.364891" stop-color="#F54B00"/>
<stop offset="1" stop-color="#6E45FF"/>
</linearGradient>
<clipPath id="clip0_0_4">
<rect width="24.2425" height="26.2627" fill="white"/>
</clipPath>
</defs>
</svg>
