<svg preserveAspectRatio="none" width="100%" height="100%" overflow="visible" style="display: block;" viewBox="0 0 32 32" fill="none" xmlns="http://www.w3.org/2000/svg">
<g id="Moonshot">
<rect width="32" height="32" rx="8" fill="var(--fill-0, #231C51)"/>
<g id="Subtract">
<path fill-rule="evenodd" clip-rule="evenodd" d="M21.7379 7.83076C21.9731 7.91616 22.8303 8.70104 23.0353 8.90639C24.4308 10.2814 25.3873 12.0394 25.7838 13.958C26.3287 16.5487 25.8211 19.2499 24.3734 21.4663C22.9226 23.6873 20.6483 25.2404 18.0515 25.7832C17.3971 25.9213 16.7357 25.992 16.0769 25.9974C16.1187 25.9971 16.1605 25.9966 16.2021 25.9958C16.1379 25.997 16.0735 25.9979 16.0089 25.9979C14.8258 25.9979 13.6907 25.7923 12.6371 25.4153C13.0264 25.5546 13.4267 25.6704 13.8366 25.7611C12.6323 25.4939 11.4763 25.0029 10.4324 24.3005C9.92934 23.9529 9.32521 23.4903 8.66137 22.7841C8.89818 23.0401 9.14821 23.2838 9.41037 23.5139C8.88231 23.0503 8.39752 22.5241 7.97675 21.96C8.24736 22.0789 8.51269 22.1786 8.78101 22.2721C9.75832 22.6184 10.7725 22.8503 11.8033 22.963C17.1521 23.5223 21.1447 20.6084 22.2271 15.3673C22.3661 14.6938 22.4382 14.0742 22.508 13.3908C22.9034 13.4064 23.3417 13.5325 23.7387 13.573C23.9574 13.5953 24.0944 13.5307 23.9976 13.2956C23.3996 11.8425 22.7931 10.3922 22.1967 8.93806C22.0448 8.56773 21.8771 8.20674 21.7379 7.83076ZM15.9821 25.9976C15.991 25.9977 16 25.9979 16.0089 25.9979C16.0212 25.9979 16.0336 25.9976 16.0459 25.9976C16.0246 25.9977 16.0034 25.9977 15.9821 25.9976Z" fill="url(#paint0_linear_0_4)"/>
<path d="M15.6223 6.01359C16.2432 5.97645 16.8672 6.03417 17.4805 6.12168C19.0644 6.34767 20.2386 6.86902 21.5782 7.69598C21.3714 7.94274 21.1514 8.23681 20.9502 8.49315L19.5482 10.291C19.0647 10.909 18.2308 11.9432 17.7545 12.6111C17.5957 12.8338 18.2519 12.8885 18.4092 12.91C18.6926 12.947 18.9753 12.9886 19.2573 13.0346C19.103 14.6069 18.7321 16.1129 17.739 17.3864C16.9251 18.4418 15.7823 19.1955 14.4917 19.528C14.1297 19.6198 13.8102 19.6589 13.4418 19.7045C12.6939 19.7583 12.0847 19.7402 11.3382 19.604C9.17213 19.1872 7.25755 17.9336 6.00939 16.1149C6.0082 16.0991 6.00722 16.0832 6.00641 16.0673C6.0042 16.0241 6.00307 15.9782 6.00262 15.9304C6.00324 15.827 6.00529 15.724 6.00902 15.6214C6.0254 15.2675 6.06893 14.8734 6.11009 14.5924C6.38443 12.6197 7.24676 10.7756 8.58469 9.30026C10.4259 7.26025 12.8938 6.15633 15.6223 6.01359Z" fill="url(#paint1_linear_0_4)"/>
</g>
</g>
<defs>
<linearGradient id="paint0_linear_0_4" x1="16" y1="6.00214" x2="16" y2="25.9979" gradientUnits="userSpaceOnUse">
<stop stop-color="white"/>
<stop offset="1" stop-color="#C7C3DD"/>
</linearGradient>
<linearGradient id="paint1_linear_0_4" x1="16" y1="6.00214" x2="16" y2="25.9979" gradientUnits="userSpaceOnUse">
<stop stop-color="#FD85FD"/>
<stop offset="1" stop-color="#F869F7"/>
</linearGradient>
</defs>
</svg>
