<svg width="32" height="32" viewBox="0 0 32 32" fill="none" xmlns="http://www.w3.org/2000/svg">
<rect width="32" height="32" rx="8" fill="#7E00FE"/>
<path d="M13.3301 12.0569C16.6287 11.6907 19.596 14.0771 19.946 17.3775C20.2959 20.6779 17.8949 23.6335 14.5928 23.9671C11.3138 24.2983 8.38332 21.9177 8.03581 18.6404C7.68834 15.363 10.0545 12.4206 13.3301 12.0569Z" fill="white"/>
<path d="M21.145 8.03499C22.0162 7.89062 22.8979 8.22599 23.453 8.91287C24.0082 9.59978 24.1511 10.5323 23.8271 11.3539C23.5031 12.1755 22.7623 12.7592 21.8877 12.8823C20.5583 13.0694 19.3254 12.1526 19.122 10.8255C18.9187 9.49845 19.8205 8.25454 21.145 8.03499Z" fill="white"/>
</svg>
