<svg width="32" height="32" viewBox="0 0 32 32" fill="none" xmlns="http://www.w3.org/2000/svg">
<rect width="32" height="32" rx="8" fill="#291368"/>
<path d="M25.998 15.9968C25.998 15.9873 25.998 15.9779 25.998 15.9671C25.9899 14.6835 25.5724 13.4026 24.7496 12.3676C24.1753 11.6447 23.4119 11.1178 22.7134 10.5259C22.1067 10.0125 21.6364 9.35586 21.1338 8.7424C20.2245 7.67228 19.026 6.97102 17.7167 6.64674C17.6991 6.64269 17.6816 6.63864 17.6654 6.63323C17.6113 6.61972 17.5573 6.6062 17.5019 6.59404C17.0506 6.49136 16.5872 6.43191 16.1264 6.41569C16.0724 6.41164 16.0264 6.41029 15.9981 6.41164C15.9643 6.41164 15.9129 6.41164 15.8535 6.41569C15.4306 6.43191 15.0049 6.48325 14.5861 6.56973C13.6133 6.75889 12.6769 7.15073 11.8878 7.75604C11.1866 8.29381 10.6582 9.00047 10.1029 9.67874C9.01118 11.011 7.42627 11.7568 6.62368 13.3526C6.35074 13.8971 6.17104 14.4767 6.07781 15.0672C6.067 15.1334 6.05754 15.201 6.04808 15.2685C6.04403 15.3023 6.03862 15.3374 6.03457 15.3712C6.02106 15.4915 6.01295 15.6117 6.00755 15.732C6.00755 15.7442 6.00619 15.7576 6.00619 15.7698C6.00079 15.8927 6.00079 16.0157 6.00485 16.1387C6.00485 16.1562 6.00485 16.1738 6.00485 16.1914C6.0089 16.2981 6.01565 16.4048 6.02511 16.5102C6.03052 16.5683 6.03592 16.6264 6.04268 16.6845C6.04943 16.7426 6.05754 16.8007 6.06565 16.8588C6.21157 17.8587 6.60747 18.8221 7.25332 19.6328C7.79243 20.3097 8.50045 20.8286 9.16521 21.3731C9.75027 21.8527 10.1975 22.4391 10.6744 23.0215C11.1771 23.6349 11.7514 24.143 12.385 24.5416C12.3878 24.5429 12.3891 24.5442 12.3918 24.547C12.3945 24.5483 12.3972 24.551 12.4012 24.5524C12.4323 24.5726 12.4634 24.5915 12.4958 24.6105C14.3659 25.8022 16.9506 25.9021 18.9314 24.9293C19.1382 24.828 19.3368 24.7118 19.5273 24.5848C20.238 24.1443 20.8784 23.5687 21.45 22.8715C21.9324 22.2824 22.3958 21.7339 22.9863 21.2501C23.6564 20.7016 24.3482 20.1773 24.8698 19.4747C25.6197 18.464 25.9926 17.2452 25.998 16.0265C25.998 16.0157 25.998 16.0049 25.998 15.9941V15.9968ZM13.243 24.0051C12.4837 23.3796 11.9472 22.5284 11.7365 21.5893C11.7041 21.4474 11.8027 21.3096 11.9472 21.2933C12.0554 21.2812 12.1634 21.2677 12.2716 21.2488C13.9713 20.9529 15.2806 19.8611 15.9845 18.4181C16.0534 18.5626 16.1264 18.7045 16.2075 18.8424C17.0276 20.2259 18.4328 21.065 19.9637 21.2771C19.9961 21.0717 20.011 20.8637 20.0096 20.6556C19.0882 20.4205 18.2613 19.7679 17.6978 18.9275C16.6642 17.3858 16.5399 15.2888 17.3708 13.6282C17.8289 12.7135 18.6382 11.8501 19.6016 11.4515C19.9718 11.2988 20.3582 11.6285 20.2839 12.0217C20.1042 12.9715 19.5976 13.8579 18.8382 14.4997C18.3477 14.9145 17.791 15.209 17.2087 15.382C17.1857 15.5765 17.1749 15.7725 17.1749 15.9684C17.1749 15.9684 17.1735 15.9684 17.1722 15.9684C17.1722 15.9846 17.1722 16.0022 17.1735 16.0184C17.1735 16.0292 17.1735 16.04 17.1735 16.0522C17.1735 16.0522 17.1735 16.0522 17.1749 16.0522C17.1776 16.2387 17.1885 16.4251 17.21 16.6088C18.5288 17.0156 19.6503 18.0208 20.1258 19.3409C20.7163 20.9785 20.1556 22.8269 18.8382 23.9403C18.7787 23.9903 18.7166 24.0376 18.6544 24.0835C16.9615 25.2766 14.8726 25.2064 13.2444 24.0065L13.243 24.0051ZM13.243 7.99655C15.0738 6.63864 17.3154 6.83591 18.9666 8.17761C19.4773 8.64782 19.884 9.23287 20.1232 9.89897C20.1839 10.0679 20.2312 10.2395 20.2677 10.4125C20.2961 10.5503 20.2002 10.684 20.061 10.7002C18.7693 10.8556 17.5424 11.4569 16.6831 12.4811C16.4021 12.8148 16.1696 13.181 15.9845 13.5688C15.3954 12.3513 14.3753 11.3731 13.0147 10.9286C12.6904 10.8232 12.358 10.7516 12.0229 10.707C11.9932 10.9083 11.9797 11.111 11.9838 11.311C11.9892 11.3123 11.9959 11.3137 12.0013 11.315C14.0308 11.8771 15.1319 14.0174 15.1671 15.9955C15.1347 17.7803 14.2848 19.6004 12.6336 20.4286C12.5458 20.4718 12.4593 20.511 12.3715 20.5448C12.0067 20.6867 11.627 20.3814 11.6933 19.9963V19.9881C11.9784 18.3735 13.243 17.0899 14.7712 16.6102C14.7995 16.3994 14.8158 16.1927 14.8199 15.9941C14.8158 15.7941 14.7969 15.5874 14.7685 15.3807C14.3901 15.2671 14.02 15.101 13.67 14.8753C12.2256 13.9444 11.3933 12.2622 11.6946 10.5475C11.8635 9.58553 12.3796 8.74105 13.0917 8.11411C13.1417 8.07357 13.1903 8.03169 13.2417 7.99385L13.243 7.99655ZM24.505 16.567C24.3645 17.9884 23.7794 19.1072 22.8133 19.949C22.7485 20.0057 22.685 20.057 22.6228 20.1043C22.2607 20.3827 21.7405 20.18 21.6351 19.7355C21.6351 19.7328 21.6338 19.73 21.6324 19.7274C21.1284 17.652 19.3517 16.4224 17.3857 16.0089C17.9235 15.8995 18.445 15.7279 18.9301 15.4901C20.2637 14.8348 21.296 13.6349 21.6324 12.2379C21.7364 11.8028 22.2459 11.6163 22.6106 11.8758C22.7444 11.9703 22.8701 12.073 22.9903 12.1824C24.0848 13.3661 24.6685 14.8996 24.5037 16.5657L24.505 16.567ZM9.01118 12.1838C9.13144 12.0744 9.25842 11.9716 9.39084 11.8771C9.75568 11.6177 10.2651 11.8055 10.3691 12.2392C10.7055 13.6349 11.7378 14.8361 13.0714 15.4915C13.5565 15.7292 14.0781 15.9009 14.6158 16.0103C12.6499 16.4238 10.8731 17.652 10.3691 19.7287C10.3691 19.7314 10.3678 19.7341 10.3664 19.7368C10.2596 20.18 9.73946 20.3827 9.37873 20.1057C9.31652 20.0584 9.25301 20.0071 9.1882 19.9503C8.2221 19.1099 7.63705 17.9898 7.49653 16.5683C7.33168 14.9024 7.91539 13.3688 9.00984 12.1852L9.01118 12.1838Z" fill="#FFFEF7"/>
</svg>
