<svg preserveAspectRatio="none" width="100%" height="100%" overflow="visible" style="display: block;" viewBox="0 0 32 32" fill="none" xmlns="http://www.w3.org/2000/svg">
<g id="Raydium">
<rect width="32" height="32" rx="8" fill="var(--fill-0, #131A34)"/>
<path id="Union" d="M23.8809 9.0547L22.8213 9.67774L15.9688 5.69044L7.06055 10.8613V21.1397L15.9688 26.3096L24.877 21.2022V13.166L25.9365 12.543V21.7627L15.9688 27.4932L6.00195 21.7627V10.2383L15.9688 4.50684L23.8809 9.0547ZM16.9658 11.1104C17.8378 11.1104 18.6476 11.4837 19.2705 12.1065C19.8935 12.7294 20.2676 13.54 20.2676 14.4121C20.2675 15.0971 20.0806 15.7198 19.707 16.2803C19.3333 16.7786 18.8341 17.2147 18.2734 17.4639C17.713 17.6506 17.0905 17.7129 16.4678 17.7129H13.4775V21.2022H11.9824V16.2178H16.9658C17.4641 16.2178 17.9005 16.031 18.2119 15.6572C18.5231 15.3458 18.7098 14.8479 18.71 14.4121C18.71 14.1629 18.6473 13.9757 18.585 13.7266C18.5227 13.5398 18.3365 13.2907 18.2119 13.166C18.0252 12.9793 17.8381 12.8543 17.6514 12.792C17.4645 12.7297 17.215 12.6055 16.9658 12.6055H11.9824V11.1104H16.9658ZM20.2051 21.0772H18.4609L17.0908 18.71C17.6512 18.6477 18.1493 18.5852 18.6475 18.3984L20.2051 21.0772ZM25.998 10.2373V11.4834L24.9395 12.044L23.8809 11.4834V10.2373L24.9395 9.61524L25.998 10.2373Z" fill="url(#paint0_linear_0_4)"/>
</g>
<defs>
<linearGradient id="paint0_linear_0_4" x1="25.9778" y1="10.4224" x2="4.84256" y2="18.8743" gradientUnits="userSpaceOnUse">
<stop stop-color="#C200FB"/>
<stop offset="0.4897" stop-color="#3772FF"/>
<stop offset="1" stop-color="#5AC4BE"/>
</linearGradient>
</defs>
</svg>
