<svg preserveAspectRatio="none" width="100%" height="100%" overflow="visible" style="display: block;" viewBox="0 0 32 32" fill="none" xmlns="http://www.w3.org/2000/svg">
<g id="Sanctum Gateway">
<rect width="32" height="32" rx="8" fill="var(--fill-0, #0A6BF6)"/>
<g id="Union">
<path d="M18.7946 17.5182C19.7674 17.5182 20.602 17.6878 21.1937 17.9681C21.5438 18.134 21.4828 18.6372 21.074 18.9316C20.1552 19.5931 19.0551 20.0018 17.9873 20.0018C16.9194 20.0018 16.0844 19.5931 15.5953 18.9316C15.378 18.6373 15.6445 18.1339 16.1025 17.9681C16.8765 17.6878 17.8216 17.5182 18.7946 17.5182Z" fill="var(--fill-0, white)"/>
<path fill-rule="evenodd" clip-rule="evenodd" d="M15.9986 5.7262C17.9557 5.72623 19.7169 7.01363 20.9415 9.06587C20.9332 9.06503 20.9247 9.06451 20.9164 9.06372C24.11 9.37428 25.9247 11.858 25.2511 14.9866C25.9676 15.7487 26.2089 16.8982 25.7913 18.1837C25.0456 20.4783 22.4845 22.3391 20.0719 22.3393H12.4935C12.5108 22.3666 12.5268 22.3947 12.5444 22.4217C13.581 24.0112 14.8359 24.7347 15.9986 24.7348C16.0107 24.7348 16.023 24.7342 16.0352 24.7341H19.5181C18.4954 25.7045 17.2898 26.2656 15.9986 26.2656L15.912 26.2649C13.7971 26.2236 11.9201 24.6782 10.7112 22.2956H10.709C10.6915 22.2609 10.6755 22.2253 10.6582 22.1903C10.6328 22.1389 10.607 22.087 10.5822 22.0348C10.5453 21.9571 10.5096 21.8785 10.4741 21.7991C10.4522 21.7503 10.4295 21.7017 10.4082 21.6523C10.3019 21.406 10.2025 21.1521 10.1102 20.8915C10.0908 20.8367 10.0723 20.7814 10.0536 20.726C10.0236 20.6376 9.99382 20.5481 9.96546 20.4581C9.94819 20.4033 9.93197 20.348 9.91532 20.2926C9.89129 20.2128 9.86711 20.1321 9.8444 20.0512C9.82746 19.9909 9.81116 19.9302 9.79497 19.8693C9.77234 19.7842 9.75095 19.6983 9.72978 19.6121C9.71405 19.548 9.69813 19.4834 9.68322 19.4187C9.66302 19.3311 9.64387 19.243 9.62519 19.1544C9.61453 19.1037 9.60239 19.0527 9.59224 19.0018C9.53279 18.7037 9.48287 18.3995 9.44109 18.0906C9.4317 18.0211 9.42376 17.9513 9.4153 17.8814C9.40573 17.8024 9.39574 17.7232 9.38736 17.6436C9.38015 17.575 9.37362 17.5062 9.3673 17.4372C9.35822 17.3381 9.35017 17.2385 9.34295 17.1385C9.33918 17.0864 9.33474 17.034 9.33148 16.9816C9.3232 16.8483 9.31778 16.7139 9.31286 16.579C9.31175 16.5486 9.31022 16.5179 9.30928 16.4873C9.30427 16.3246 9.30068 16.1606 9.30068 15.9959C9.30068 15.9779 9.30133 15.9595 9.3014 15.9415L9.30355 15.7309C9.30424 15.6888 9.3061 15.6467 9.30713 15.6048C9.30918 15.5217 9.31167 15.4388 9.31501 15.3562C9.31832 15.2736 9.32189 15.1911 9.32647 15.1091C9.33052 15.037 9.33578 14.9651 9.3408 14.8934C9.34718 14.8017 9.35362 14.7101 9.36157 14.6191C9.36807 14.5451 9.37627 14.4712 9.38378 14.3977C9.3933 14.3043 9.402 14.2109 9.41315 14.1183C9.41433 14.1086 9.41553 14.098 9.41673 14.0883L9.41745 14.0868C9.99585 9.36957 12.6772 5.79009 15.912 5.72692L15.9986 5.7262ZM22.3707 15.3426C21.8017 15.3428 20.2109 15.6535 19.0102 15.6535C17.8092 15.6535 16.4189 15.3426 15.8504 15.3426C15.2818 15.3427 14.6786 15.7819 14.5029 16.3226C13.7711 18.5755 15.0983 20.4022 17.4672 20.4022C19.8361 20.4021 22.3505 18.5755 23.0827 16.3226C23.2584 15.7819 22.9391 15.3427 22.3707 15.3426ZM17.7509 12.1362C17.0875 12.1362 16.3827 12.6479 16.1777 13.2788C15.9731 13.9094 16.345 14.4205 17.008 14.4207C17.6712 14.4206 18.3752 13.9094 18.5804 13.2788C18.7853 12.648 18.414 12.1364 17.7509 12.1362ZM22.5555 12.1362C21.8922 12.1363 21.1881 12.6473 20.9831 13.2781C20.7782 13.9089 21.1501 14.4206 21.8133 14.4207C22.4765 14.4204 23.1799 13.9087 23.385 13.2781C23.5898 12.6473 23.2187 12.1363 22.5555 12.1362ZM15.9986 7.25706C14.8359 7.25711 13.581 7.98063 12.5444 9.57018C11.9804 10.4348 11.5202 11.5081 11.2191 12.7272C11.9804 12.2928 12.801 11.9769 13.6318 11.8153C15.1653 10.3924 17.1381 9.38768 19.127 9.10885C18.1594 7.84035 17.0421 7.25709 15.9986 7.25706Z" fill="var(--fill-0, white)"/>
<path d="M10.2183 7.17826C10.0715 7.37291 9.93088 7.57348 9.79712 7.77857C8.37438 9.96015 7.55137 12.8707 7.55133 15.9959C7.55139 19.1212 8.37437 22.0317 9.79712 24.2133C9.93073 24.4182 10.0716 24.6185 10.2183 24.8129C7.77493 23.6332 6.00265 20.132 6.00256 15.9959L6.004 15.7574C6.07063 11.7253 7.82176 8.33507 10.2183 7.17826Z" fill="var(--fill-0, white)"/>
</g>
</g>
</svg>
