<svg width="32" height="32" viewBox="0 0 32 32" fill="none" xmlns="http://www.w3.org/2000/svg">
<rect width="32" height="32" rx="8" fill="url(#paint0_linear_86_2264)"/>
<path d="M8.41772 19.7119C8.67401 19.7405 9.25618 19.7294 9.52905 19.7304L11.5603 19.7382C12.0269 22.1958 14.0337 23.2922 16.3796 23.2666C17.3695 23.2557 18.8143 23.0062 19.5271 22.2783L19.5291 25.0654L19.5232 25.4697C18.5187 25.7458 17.8178 25.9467 16.7468 25.9873C14.4894 26.0728 12.1276 25.5485 10.4177 23.9951C9.24965 22.9339 8.47375 21.2941 8.41772 19.7119Z" fill="#FEFEFE"/>
<path d="M12.5154 9.98433C12.1242 10.6239 11.8569 11.6911 12.1843 12.3916C13.0476 14.2383 16.3199 14.2753 18.0505 14.7304C19.0378 14.9901 19.8716 15.1564 20.7888 15.5771C21.9255 16.11 22.8446 16.9805 23.282 18.1611C23.6857 19.2511 23.7019 20.9717 23.2087 22.0195C23.0607 22.0107 22.8871 22.0106 22.738 22.0146C21.7641 22.0406 20.7473 21.9689 19.7791 22.0166C20.5009 21.1459 20.5515 19.5681 19.6912 18.7714C18.9535 18.0752 18.0035 17.9055 17.0554 17.6757C14.2927 17.0042 10.5252 16.9369 9.18823 13.9033C8.69132 12.7756 8.73819 11.1445 9.10718 9.98628C9.93845 10.0065 10.7822 9.97567 11.615 9.99214C11.893 9.99765 12.2425 10.0082 12.5154 9.98433Z" fill="#FEFEFE"/>
<path d="M15.2947 6.01948C19.0061 5.80748 22.8043 7.76184 23.1638 11.7343C22.8181 11.7356 20.1457 11.7733 19.9978 11.7226L19.9646 11.6347C19.8288 11.1544 19.6878 10.7917 19.3894 10.3867C18.7692 9.56108 17.8491 9.0126 16.8279 8.85933C15.9004 8.72287 14.455 8.76109 13.614 9.1689C13.2871 9.32751 13.0866 9.46939 12.8005 9.68257C12.8323 8.66152 12.7993 7.50582 12.8054 6.46773C13.1356 6.40966 13.462 6.29473 13.7888 6.22359C14.2818 6.1163 14.785 6.05156 15.2878 6.02046C15.29 6.02023 15.2925 6.01971 15.2947 6.01948Z" fill="#FEFEFE"/>
<defs>
<linearGradient id="paint0_linear_86_2264" x1="16" y1="10.5544" x2="16" y2="28.8739" gradientUnits="userSpaceOnUse">
<stop/>
<stop offset="0.5" stop-color="#125D74"/>
<stop offset="1" stop-color="#85CBC1"/>
</linearGradient>
</defs>
</svg>
