<svg width="32" height="32" viewBox="0 0 32 32" fill="none" xmlns="http://www.w3.org/2000/svg">
<rect width="32" height="32" rx="8" fill="#FFEF46"/>
<path d="M16.0719 16.7973L17.4474 15.4685L20.0118 16.3077C21.6904 16.8673 22.5298 17.8931 22.5298 19.3385C22.5298 20.4343 22.1101 21.1571 21.2708 22.0896L21.0144 22.3694L21.1076 21.7165C21.4806 19.3385 20.7813 18.3128 18.4732 17.5666L16.0719 16.7973ZM12.6214 8.66083L19.6156 10.9922L18.1001 12.4377L14.4632 11.2253C13.2043 10.8057 12.7846 10.1296 12.6214 8.70746V8.66083ZM12.2017 20.5042L13.7871 18.9888L16.7713 19.9681C18.3332 20.4809 18.8694 21.1571 18.7063 22.8589L12.2017 20.5042ZM10.1968 13.7432C10.1968 13.3003 10.4299 12.8806 10.8262 12.5309C11.2459 13.1371 11.9686 13.6733 13.111 14.0463L15.5823 14.8623L14.2067 16.1912L11.7821 15.3985C10.663 15.0255 10.1968 14.4659 10.1968 13.7432ZM17.5173 25.983C22.6463 22.5792 25.3973 20.2711 25.3973 17.4268C25.3973 15.5384 24.2783 14.4892 21.807 13.6733L19.9419 13.0438L25.0477 8.14793L24.0218 7.05218L22.5065 8.38106L15.3491 6.02637C13.1343 6.7491 10.3366 8.87065 10.3366 10.9922C10.3366 11.2253 10.36 11.4585 10.4299 11.715C8.58811 12.764 7.84208 13.7432 7.84208 14.9555C7.84208 16.0979 8.44823 17.2403 10.3833 17.8698L11.922 18.3827L6.60645 23.4883L7.63225 24.5841L9.28753 23.0688L17.5173 25.983Z" fill="black"/>
</svg>
