<svg width="32" height="32" viewBox="0 0 32 32" fill="none" xmlns="http://www.w3.org/2000/svg">
<rect width="32" height="32" rx="8" fill="url(#paint0_linear_44_269)"/>
<path fill-rule="evenodd" clip-rule="evenodd" d="M15.3838 8C17.472 8 19.2552 9.30583 19.9621 11.1451C21.2938 10.5904 22.8836 10.8086 24.0275 11.8376C25.611 13.2623 25.7394 15.7009 24.3148 17.2845C24.0033 17.6307 23.6434 17.9075 23.2545 18.1135C23.4484 18.5747 23.5555 19.0812 23.5555 19.6128C23.5555 21.7507 21.8227 23.4842 19.6848 23.4842C18.7318 23.4842 17.8593 23.1393 17.1848 22.5682C16.4752 23.4415 15.3928 23.9999 14.1798 24C12.2953 24 10.7252 22.6534 10.3795 20.87C8.30232 20.6089 6.6956 18.8362 6.69556 16.6882C6.69558 14.4998 8.36342 12.7012 10.4973 12.4935C10.7056 9.97741 12.8139 8 15.3838 8ZM14.368 14.023C13.8093 14.023 13.3565 14.4759 13.3565 15.0345V16.9655C13.3565 17.5242 13.8093 17.977 14.368 17.977C14.9266 17.977 15.3795 17.5242 15.3795 16.9655V15.0345C15.3794 14.4759 14.9266 14.023 14.368 14.023ZM17.7703 14.023C17.2116 14.023 16.7588 14.4759 16.7588 15.0345V16.9655C16.7588 17.5242 17.2116 17.977 17.7703 17.977C18.3289 17.977 18.7818 17.5242 18.7818 16.9655V15.0345C18.7817 14.4759 18.3289 14.023 17.7703 14.023Z" fill="white"/>
<defs>
<linearGradient id="paint0_linear_44_269" x1="16" y1="0" x2="16" y2="32" gradientUnits="userSpaceOnUse">
<stop stop-color="#216FE9"/>
<stop offset="1" stop-color="#4CCBF6"/>
</linearGradient>
</defs>
</svg>
