<svg preserveAspectRatio="none" width="100%" height="100%" overflow="visible" style="display: block;" viewBox="0 0 32 32" fill="none" xmlns="http://www.w3.org/2000/svg">
<g id="Helius">
<rect width="32" height="32" rx="8" fill="var(--fill-0, #1A1A1A)"/>
<path id="Union" d="M16.0029 24.2189C16.9649 24.2191 17.7451 25.0069 17.7451 25.9777H14.2598C14.2598 25.0068 15.0402 24.2189 16.0029 24.2189ZM11.043 20.4914C12.2195 21.8811 13.9589 22.7695 15.9053 22.799L11.7822 25.6359C11.6316 25.7399 11.4261 25.6401 11.4121 25.4562L11.043 20.4914ZM20.5791 25.4504C20.5651 25.6337 20.3602 25.734 20.209 25.63L16.0938 22.799C18.0334 22.7713 19.7688 21.8906 20.9453 20.5109L20.5791 25.4504ZM22.373 21.34C22.9729 20.5807 24.0693 20.4556 24.8223 21.0617L22.6494 23.8117C21.8964 23.2056 21.7732 22.0992 22.373 21.34ZM7.42773 21.0617C8.1801 20.4563 9.27702 20.5808 9.87695 21.34C10.4768 22.0992 10.3538 23.2053 9.60156 23.8107L7.42773 21.0617ZM9.57031 15.1408C9.51301 15.492 9.48145 15.853 9.48145 16.2209C9.48209 17.7524 10.0008 19.1628 10.8711 20.2804L6.16699 18.8166C5.99295 18.7622 5.94216 18.5377 6.07617 18.4123L9.57031 15.1408ZM25.9238 18.3957C26.0573 18.5217 26.0071 18.7453 25.833 18.799L21.1504 20.257C22.0098 19.143 22.5224 17.742 22.5225 16.2209C22.5225 15.8475 22.4908 15.4817 22.4316 15.1261L25.9238 18.3957ZM6.93945 12.4367C7.87777 12.6527 8.46498 13.5953 8.25098 14.5422C8.03677 15.4886 7.1031 16.0812 6.16504 15.8654L6.93945 12.4367ZM25.8867 15.8644C24.949 16.081 24.0138 15.4881 23.7998 14.5412C23.5862 13.5952 24.1731 12.6525 25.1104 12.4357L25.8867 15.8644ZM23.7822 9.76677C23.9626 9.7391 24.1052 9.91882 24.0391 10.091L22.3076 14.5431C21.8516 12.794 20.6999 11.3294 19.1689 10.4699L23.7822 9.76677ZM8.22266 9.75896L12.8467 10.4621C11.3122 11.3203 10.1568 12.7854 9.69824 14.5363L7.9668 10.0832C7.89973 9.91213 8.04219 9.73127 8.22266 9.75896ZM15.7969 6.08415C15.8877 5.9242 16.1166 5.92419 16.208 6.08415L18.5391 10.1584C17.7599 9.82555 16.9022 9.64178 16.0029 9.64177C15.1036 9.64177 14.2462 9.82551 13.4658 10.1584L15.7969 6.08415ZM13.2148 6.8156C13.6325 7.69046 13.2682 8.74175 12.4014 9.16325C11.5344 9.58471 10.4928 9.21687 10.0752 8.34196L13.2148 6.8156ZM21.8506 8.34196C21.433 9.21665 20.3922 9.58441 19.5254 9.16325C18.6584 8.74179 18.2933 7.6905 18.7109 6.8156L21.8506 8.34196Z" fill="url(#paint0_linear_0_4)"/>
</g>
<defs>
<linearGradient id="paint0_linear_0_4" x1="10.2383" y1="22.0645" x2="7.65263" y2="22.4511" gradientUnits="userSpaceOnUse">
<stop stop-color="#E35930"/>
<stop offset="1" stop-color="#E84125"/>
</linearGradient>
</defs>
</svg>
