<svg width="32" height="32" viewBox="0 0 32 32" fill="none" xmlns="http://www.w3.org/2000/svg">
<rect width="32" height="32" rx="8" fill="white" fill-opacity="0.05"/>
<path fill-rule="evenodd" clip-rule="evenodd" d="M16.0029 24.2186C16.9648 24.2187 17.7451 25.0066 17.7451 25.9774H14.2597C14.2597 25.0065 15.0402 24.2186 16.0029 24.2186ZM11.0429 20.4911C12.2195 21.8807 13.9588 22.7692 15.9052 22.7987L11.7822 25.6356C11.6316 25.7396 11.4261 25.6398 11.4121 25.4559L11.0429 20.4911ZM20.5791 25.45C20.565 25.6334 20.3601 25.7337 20.2089 25.6297L16.0937 22.7987C18.0333 22.771 19.7688 21.8903 20.9453 20.5106L20.5791 25.45ZM22.373 21.3397C22.9729 20.5804 24.0692 20.4553 24.8222 21.0614L22.6494 23.8114C21.8964 23.2053 21.7731 22.0989 22.373 21.3397ZM7.42769 21.0614C8.18005 20.456 9.27697 20.5805 9.87691 21.3397C10.4767 22.0989 10.3537 23.205 9.60152 23.8104L7.42769 21.0614ZM9.57027 15.1405C9.51296 15.4917 9.4814 15.8527 9.4814 16.2206C9.48204 17.7521 10.0008 19.1625 10.871 20.2801L6.16695 18.8163C5.9929 18.7619 5.94211 18.5374 6.07613 18.412L9.57027 15.1405ZM25.9238 18.3954C26.0572 18.5214 26.0071 18.745 25.833 18.7987L21.1503 20.2567C22.0098 19.1427 22.5224 17.7417 22.5224 16.2206C22.5224 15.8472 22.4907 15.4814 22.4316 15.1258L25.9238 18.3954ZM6.93941 12.4364C7.87772 12.6523 8.46493 13.595 8.25093 14.5418C8.03673 15.4883 7.10305 16.0809 6.16499 15.8651L6.93941 12.4364ZM25.8867 15.8641C24.949 16.0807 24.0138 15.4878 23.7998 14.5409C23.5861 13.5949 24.173 12.6521 25.1103 12.4354L25.8867 15.8641ZM23.7822 9.76645C23.9625 9.73878 24.1052 9.9185 24.039 10.0907L22.3076 14.5428C21.8515 12.7937 20.6998 11.3291 19.1689 10.4696L23.7822 9.76645ZM8.22261 9.75864L12.8466 10.4618C11.3122 11.32 10.1567 12.7851 9.6982 14.536L7.96675 10.0829C7.89969 9.91181 8.04214 9.73095 8.22261 9.75864ZM15.7968 6.08383C15.8877 5.92389 16.1165 5.92387 16.208 6.08383L18.539 10.1581C17.7599 9.82523 16.9021 9.64146 16.0029 9.64145C15.1036 9.64145 14.2462 9.82519 13.4658 10.1581L15.7968 6.08383ZM13.2148 6.81528C13.6324 7.69014 13.2682 8.74143 12.4013 9.16294C11.5344 9.58439 10.4928 9.21655 10.0751 8.34165L13.2148 6.81528ZM21.8505 8.34165C21.4329 9.21633 20.3922 9.58409 19.5253 9.16294C18.6583 8.74148 18.2933 7.69019 18.7109 6.81528L21.8505 8.34165Z" fill="url(#paint0_linear_21_466)"/>
<defs>
<linearGradient id="paint0_linear_21_466" x1="10.2383" y1="22.0643" x2="7.65263" y2="22.451" gradientUnits="userSpaceOnUse">
<stop stop-color="#E35930"/>
<stop offset="1" stop-color="#E84125"/>
</linearGradient>
</defs>
</svg>
