<svg preserveAspectRatio="none" width="100%" height="100%" overflow="visible" style="display: block;" viewBox="0 0 32 32" fill="none" xmlns="http://www.w3.org/2000/svg">
<g id="infSOL white">
<path id="Subtract" d="M10.465 8.17139C12.145 8.17144 13.7005 8.7021 14.9757 9.60303L9.98938 14.5894C9.7298 14.849 9.72985 15.2701 9.98938 15.5298C10.249 15.7894 10.6702 15.7894 10.9298 15.5298L15.9972 10.4624L15.9796 10.4438C15.9865 10.4507 15.9933 10.4575 16.0001 10.4644C17.4167 9.04791 19.3737 8.17236 21.5353 8.17236C25.8586 8.17236 29.3634 11.6771 29.3634 16.0005C29.3632 20.3237 25.8585 23.8286 21.5353 23.8286C19.8535 23.8286 18.2966 23.2967 17.0206 22.394L22.005 17.4106C22.2646 17.151 22.2646 16.7299 22.005 16.4702C21.7454 16.2107 21.3252 16.2107 21.0655 16.4702L15.9972 21.5376C14.5808 22.9526 12.6252 23.8276 10.465 23.8276C6.1416 23.8276 2.63684 20.3229 2.63684 15.9995C2.63704 11.6763 6.14173 8.17139 10.465 8.17139Z" fill="var(--fill-0, white)"/>
</g>
</svg>
