<svg width="32" height="32" viewBox="0 0 32 32" fill="none" xmlns="http://www.w3.org/2000/svg">
<path d="M10.4648 8.17139C12.1448 8.17144 13.7004 8.7021 14.9756 9.60303L9.98926 14.5894C9.72968 14.849 9.72973 15.2701 9.98926 15.5298C10.2489 15.7894 10.67 15.7894 10.9297 15.5298L15.9971 10.4624L15.9795 10.4438C15.9864 10.4507 15.9932 10.4575 16 10.4644C17.4166 9.04791 19.3736 8.17236 21.5352 8.17236C25.8585 8.17236 29.3633 11.6771 29.3633 16.0005C29.3631 20.3237 25.8584 23.8286 21.5352 23.8286C19.8534 23.8286 18.2964 23.2967 17.0205 22.394L22.0049 17.4106C22.2645 17.151 22.2645 16.7299 22.0049 16.4702C21.7453 16.2107 21.325 16.2107 21.0654 16.4702L15.9971 21.5376C14.5807 22.9526 12.6251 23.8276 10.4648 23.8276C6.14149 23.8276 2.63672 20.3229 2.63672 15.9995C2.63692 11.6763 6.14161 8.17139 10.4648 8.17139Z" fill="white"/>
</svg>
