<svg preserveAspectRatio="none" width="100%" height="100%" overflow="visible" style="display: block;" viewBox="0 0 32 32" fill="none" xmlns="http://www.w3.org/2000/svg">
<g id="Drip Haus">
<rect width="32" height="32" rx="8" fill="var(--fill-0, #111727)"/>
<path id="Union" d="M10.0294 22.8506C10.2607 22.9289 10.5362 23.0874 10.7677 23.1963C12.6327 24.0733 14.819 24.1128 16.549 25.2783C16.6798 25.3664 17.2061 25.7503 17.171 25.9033L17.1369 25.918C16.2669 26.0656 15.1558 26.0081 14.3039 25.791C12.9625 25.4493 11.8126 24.8084 10.838 23.8271C10.5341 23.5211 10.2535 23.2244 10.0294 22.8506ZM8.57437 18.6133C8.67492 18.6502 9.18119 19.0938 9.33022 19.1934C9.84684 19.54 10.3849 19.8539 10.9416 20.1318C11.7334 20.5283 12.7012 20.8608 13.5529 21.1084C14.252 21.3115 14.9692 21.4754 15.6652 21.7012C16.9176 22.1072 18.2573 22.7336 19.1066 23.7783C19.3816 24.1166 19.5819 24.4965 19.7794 24.8809L19.3283 25.1475C18.9905 25.3449 18.7479 25.4372 18.3849 25.5859C17.9069 24.7646 16.7026 24.0352 15.8439 23.6777C14.7512 23.2229 13.5541 23.0334 12.423 22.6885C11.617 22.4397 10.8368 22.1133 10.0939 21.7139C9.77804 21.5412 9.37402 21.3469 9.12026 21.0908C8.77938 20.7464 8.567 19.1374 8.57437 18.6133ZM9.31655 15.3926C9.58612 15.5975 9.83748 15.8692 10.1037 16.085C11.3502 17.0954 12.853 17.7948 14.38 18.2725C15.9963 18.778 17.6064 19.1083 19.0744 20.0107C20.3041 20.767 21.3498 21.8324 21.7121 23.2676C21.5645 23.5168 21.1341 23.8849 20.9132 24.0752L20.6417 24.2998C20.562 24.0811 20.4022 23.8045 20.2853 23.6045C19.437 22.1521 17.7065 21.2091 16.1486 20.7002C14.9794 20.3185 13.8254 20.0897 12.6349 19.6611C11.6681 19.3121 10.7528 18.8336 9.91421 18.2393C9.59581 18.0102 8.99802 17.5249 8.75405 17.2188C8.7756 16.6769 9.01986 15.8433 9.31655 15.3926ZM10.7521 12.8213C10.9204 12.8458 11.1235 13.0615 11.2492 13.1797C11.8407 13.7364 12.5322 14.2175 13.2521 14.5928C15.4017 15.6861 17.5851 15.8531 19.7443 17C21.0797 17.7093 22.4925 19.0166 23.0939 20.4902C23.2249 20.8115 22.6246 21.8642 22.4308 22.21L22.3722 22.0625C22.1477 21.6043 21.89 21.1448 21.5724 20.7422C20.5446 19.4388 18.9942 18.579 17.4464 18.0488C16.3533 17.6744 15.2388 17.4132 14.1505 17.0293C13.0633 16.6457 12.0325 16.1738 11.1095 15.4766C10.7913 15.2361 10.0804 14.6572 9.86245 14.334C9.93119 14.0702 10.5553 13.0088 10.7521 12.8213ZM12.5656 10.3936C12.6789 10.4489 13.0584 10.8662 13.1935 10.9766C14.6147 12.1359 16.3278 12.618 18.0519 13.124C19.3424 13.5028 20.6345 14.0798 21.675 14.9492C22.1425 15.34 22.6885 15.8203 23.0158 16.3486C23.2014 16.6886 23.3566 17.4781 23.38 17.8682C23.3914 18.0548 23.478 18.8183 23.3781 18.9404C23.2868 18.9136 23.0054 18.4544 22.9191 18.334C21.364 16.2398 19.2859 15.4277 16.8673 14.7295C14.9084 14.164 12.8073 13.4458 11.4494 11.8291L11.4542 11.8154C11.5711 11.5352 12.3373 10.6567 12.5656 10.3936ZM16.0724 6.00977C16.5054 6.17826 18.8676 9.49355 19.3058 10.0898C19.8898 10.8845 20.4907 11.6694 21.049 12.4824C21.2311 12.7475 21.4002 13.0205 21.5724 13.292C21.7063 13.5033 21.8496 13.7131 21.9611 13.9375C21.6989 13.7812 21.4098 13.5449 21.1496 13.3682C20.8366 13.1557 20.579 13.0166 20.2423 12.8447C19.5888 12.5044 18.8607 12.2354 18.1554 12.0234C17.6786 11.8802 17.1932 11.7596 16.7199 11.6055C15.7108 11.2769 14.6835 10.7989 13.8419 10.1455C13.6604 10.0046 13.3803 9.81257 13.2638 9.6123C13.2372 9.56636 13.2338 9.52722 13.2492 9.47656C13.3286 9.21559 15.4033 6.57312 15.7003 6.25293C15.7974 6.14829 15.8897 6.06883 16.0148 6C16.035 6.00155 16.0533 6.00234 16.0724 6.00977Z" fill="url(#paint0_linear_0_4)"/>
</g>
<defs>
<linearGradient id="paint0_linear_0_4" x1="16" y1="6" x2="16" y2="26" gradientUnits="userSpaceOnUse">
<stop stop-color="#DEF775"/>
<stop offset="1" stop-color="#1DC2D5"/>
</linearGradient>
</defs>
</svg>
