<svg preserveAspectRatio="none" width="100%" height="100%" overflow="visible" style="display: block;" viewBox="0 0 20.004 8.22687" fill="none" xmlns="http://www.w3.org/2000/svg">
<g id="Jito Green Logo 1">
<path id="Vector" d="M5.3213 4.36967C5.3213 5.38657 4.97367 6.23967 4.2784 6.92693C3.58315 7.61618 2.73605 7.95982 1.73713 7.95982H0.250729V6.4854H1.73713C2.3285 6.4854 2.82596 6.28362 3.22952 5.87805C3.6331 5.47447 3.83488 4.97102 3.83488 4.37168L3.82291 0.264078H5.3213V4.36967Z" fill="var(--fill-0, white)"/>
<path id="Vector_2" d="M6.39025 0.334154H7.87664L7.85267 1.7846H6.37825L6.39025 0.334154ZM6.39025 2.37197H7.87664V7.95798H6.37825L6.39025 2.37197Z" fill="var(--fill-0, white)"/>
<path id="Vector_3" d="M10.4703 1.8564H13.0236V3.34281H10.4464V5.4006C10.4464 5.70627 10.5422 5.96201 10.736 6.16979C10.9298 6.37755 11.1716 6.48344 11.4613 6.48344H13.0096V7.95786H11.4752C10.772 7.95786 10.1786 7.70812 9.69514 7.20667C9.21167 6.7052 8.96993 6.09587 8.96993 5.37463V0.28409H10.4444L10.4683 1.8544L10.4703 1.8564Z" fill="var(--fill-0, white)"/>
<path id="Vector_4" d="M18.8656 7.08292C18.2742 7.6683 17.551 7.95998 16.696 7.95998C15.8409 7.95998 15.1077 7.66629 14.5203 7.07692C13.9329 6.48754 13.6392 5.76632 13.6392 4.90926C13.6392 4.05217 13.9349 3.32894 14.5263 2.73558C15.1176 2.14222 15.8409 1.84653 16.696 1.84653C17.551 1.84653 18.2742 2.14222 18.8656 2.73558C19.457 3.32894 19.7527 4.05217 19.7527 4.90926C19.7527 5.76632 19.457 6.49954 18.8656 7.08292ZM17.7928 3.77246C17.5011 3.47879 17.1355 3.33293 16.696 3.33293C16.2564 3.33293 15.8848 3.48476 15.5811 3.79045C15.2775 4.09612 15.1256 4.46773 15.1256 4.90926C15.1256 5.35077 15.2775 5.72438 15.5811 6.02804C15.8848 6.33371 16.2564 6.48556 16.696 6.48556C17.1355 6.48556 17.5171 6.33572 17.8167 6.03404C18.1164 5.73236 18.2663 5.35877 18.2663 4.90926C18.2663 4.48371 18.0845 4.06615 17.7928 3.77246Z" fill="var(--fill-0, white)"/>
</g>
</svg>
