<svg preserveAspectRatio="none" width="100%" height="100%" overflow="visible" style="display: block;" viewBox="0 0 32 32" fill="none" xmlns="http://www.w3.org/2000/svg">
<g id="Superteam">
<rect width="32" height="32" rx="8" fill="var(--fill-0, #3F3ECA)"/>
<g id="Union">
<path d="M14.4913 8.27895V16.1452H10.8493C13.0613 16.7042 14.4912 18.1568 14.4913 20.2349C14.4913 21.9333 14.022 23.7211 9.99962 23.7211H5.99963V15.8556H10.1562C7.96608 15.5203 5.99963 14.5139 5.99963 11.7652C5.9997 10.0669 6.46923 8.27895 10.4914 8.27895H14.4913Z" fill="var(--fill-0, #FFB443)"/>
<path d="M21.7769 10.6479H26.0004V12.2797C26.0003 14.492 24.2121 16.2797 21.9996 16.2797H21.7769V23.6762H21.0617C16.7041 23.6762 15.8329 20.6374 15.8328 17.9335L15.7651 8.27895H21.7769V10.6479Z" fill="var(--fill-0, #FFB443)"/>
</g>
</g>
</svg>
