<svg preserveAspectRatio="none" width="100%" height="100%" overflow="visible" style="display: block;" viewBox="0 0 18.7909 19.9566" fill="none" xmlns="http://www.w3.org/2000/svg">
<g id="Group">
<path id="Vector" d="M9.46542 10.771L10.8409 9.44215L13.4054 10.2814C15.084 10.841 15.9233 11.8668 15.9233 13.3122C15.9233 14.408 15.5036 15.1307 14.6644 16.0633L14.408 16.343L14.5012 15.6902C14.8741 13.3122 14.1748 12.2864 11.8667 11.5403L9.46542 10.771ZM6.01493 2.6345L13.0091 4.96587L11.4937 6.41134L7.85674 5.19901C6.59783 4.77936 6.17816 4.10325 6.01493 2.68112V2.6345ZM5.59526 14.4779L7.18063 12.9624L10.1648 13.9417C11.7268 14.4546 12.263 15.1307 12.0999 16.8326L5.59526 14.4779ZM3.59032 7.71686C3.59032 7.27398 3.82345 6.85431 4.21979 6.50455C4.63944 7.11075 5.36216 7.64695 6.50452 8.02001L8.97583 8.83595L7.6003 10.1649L5.17565 9.37214C4.05659 8.99917 3.59032 8.43958 3.59032 7.71686ZM10.9109 19.9566C16.0398 16.5529 18.7909 14.2448 18.7909 11.4005C18.7909 9.51206 17.6718 8.46289 15.2006 7.64695L13.3355 7.01744L18.4412 2.12159L17.4154 1.02584L15.9 2.35472L8.74269 2.90419e-05C6.52782 0.722761 3.7302 2.84431 3.7302 4.96586C3.7302 5.199 3.75352 5.43214 3.82346 5.68861C1.98167 6.73769 1.23563 7.71686 1.23563 8.92916C1.23563 10.0716 1.84178 11.214 3.77683 11.8435L5.31553 12.3563L0 17.462L1.0258 18.5578L2.68108 17.0424L10.9109 19.9566Z" fill="var(--fill-0, #1A1A1A)"/>
</g>
</svg>
