<svg preserveAspectRatio="none" width="100%" height="100%" overflow="visible" style="display: block;" viewBox="0 0 32 32" fill="none" xmlns="http://www.w3.org/2000/svg">
<g id="xStock white">
<path id="Vector" d="M5.00293 4.99609H12.3262C12.5714 5.22763 12.8171 5.47863 13.0543 5.72002C14.027 6.71006 15.0332 7.6744 16.0021 8.66761C16.1985 8.43967 16.526 8.13349 16.7446 7.91434L18.1813 6.47789L19.1651 5.49457C19.2799 5.3795 19.566 5.07919 19.6734 4.99609H26.9969V12.3337L24.5632 14.7691C24.1723 15.1605 23.7289 15.6263 23.3284 16.0002C23.6482 16.303 23.9767 16.643 24.2905 16.9566L25.958 18.6223L26.6469 19.3114C26.7425 19.4068 26.9004 19.5753 26.9969 19.6568V26.9987C26.9969 26.9987 26.2116 26.9987 25.9167 26.9987H23.9949L21.0954 26.9988C20.6337 26.9988 20.1286 27.01 19.6705 26.9993C19.5825 26.928 19.3429 26.6751 19.2532 26.5852L18.3809 25.7116L16.845 24.175C16.5701 23.9 16.2659 23.6066 16.0005 23.3258C15.8024 23.5429 15.5185 23.8115 15.3064 24.0238L13.9683 25.3631L12.8977 26.4361C12.7354 26.5989 12.4909 26.8589 12.3269 27.0022C11.6931 26.9906 11.0377 26.9988 10.4027 26.9988L6.91423 26.9989L5.65015 26.9993C5.49546 26.9998 5.00293 26.9993 5.00293 26.9993V19.6662C5.10894 19.5344 5.35612 19.3019 5.48505 19.1731L6.42668 18.2324L7.85431 16.805C8.10748 16.5519 8.40382 16.2408 8.66541 16.003C8.54614 15.8674 8.36792 15.6996 8.23605 15.5675L7.43018 14.761L5.00293 12.3338V4.99609Z" fill="var(--fill-0, white)"/>
</g>
</svg>
