<svg width="32" height="32" viewBox="0 0 32 32" fill="none" xmlns="http://www.w3.org/2000/svg">
<path d="M15.3751 3.0586C16.0464 3.0586 16.7699 3.00695 17.4203 3.21017C19.6149 3.69951 21.023 5.46357 22.1858 7.29124C24.2986 10.5729 26.2642 13.9773 28.1132 17.4141C29.1698 19.3933 30.4561 21.6728 29.8229 23.9888C29.5052 25.1515 28.8735 26.2857 27.9801 27.1208C27.8854 27.2093 27.7396 27.2087 27.6415 27.1241L17.1016 18.0324C16.7734 17.7493 16.2778 17.7858 15.9946 18.1141C15.7115 18.4423 15.7481 18.9379 16.0763 19.221L26.0822 27.8521C26.2306 27.9801 26.19 28.2181 26.0035 28.2783C23.9373 28.9459 20.7626 28.9115 18.7553 28.9235C16.0444 28.9499 13.3397 28.9753 10.6306 28.8779C8.97901 28.8156 7.00382 28.7365 5.47777 28.0858C3.78959 27.3661 2.5213 25.5636 2.12829 23.8116C1.60662 21.4855 2.90578 19.2158 3.97063 17.2338C5.49751 14.4502 7.10422 11.7074 8.73974 8.98642C10.1856 6.60672 11.759 3.76401 14.7157 3.17983C14.8404 3.15517 15.2894 3.11188 15.3751 3.0586Z" fill="white"/>
</svg>
