<svg preserveAspectRatio="none" width="100%" height="100%" overflow="visible" style="display: block;" viewBox="0 0 32 32" fill="none" xmlns="http://www.w3.org/2000/svg">
<g id="Avici white">
<path id="Subtract" d="M15.3751 3.05845C16.0463 3.05845 16.7698 3.0068 17.4202 3.21002C19.6148 3.69935 21.023 5.46341 22.1857 7.29109C24.2986 10.5727 26.2642 13.9771 28.1131 17.414C29.1697 19.3931 30.456 21.6726 29.8229 23.9886C29.5051 25.1513 28.8734 26.2855 27.98 27.1206C27.8854 27.2091 27.7396 27.2086 27.6414 27.1239L17.1016 18.0323C16.7733 17.7492 16.2777 17.7857 15.9946 18.1139C15.7115 18.4421 15.748 18.9378 16.0762 19.2209L26.0822 27.852C26.2306 27.98 26.1899 28.2179 26.0035 28.2782C23.9373 28.9457 20.7626 28.9113 18.7552 28.9234C16.0443 28.9497 13.3397 28.9751 10.6305 28.8777C8.97895 28.8154 7.00376 28.7363 5.47771 28.0857C3.78953 27.3659 2.52124 25.5635 2.12823 23.8114C1.60656 21.4854 2.90572 19.2156 3.97057 17.2336C5.49745 14.4501 7.10415 11.7073 8.73968 8.98627C10.1855 6.60656 11.759 3.76385 14.7156 3.17968C14.8404 3.15502 15.2893 3.11172 15.3751 3.05845Z" fill="var(--fill-0, white)"/>
</g>
</svg>
