<svg preserveAspectRatio="none" width="100%" height="100%" overflow="visible" style="display: block;" viewBox="0 0 32 32" fill="none" xmlns="http://www.w3.org/2000/svg">
<g id="Perena white">
<g clip-path="url(#clip0_0_4)">
<g id="Vector">
</g>
<path id="Vector_2" d="M27.6873 15.9961C27.6873 15.985 27.6873 15.9739 27.6873 15.9613C27.6778 14.4608 27.1897 12.9635 26.2279 11.7536C25.5566 10.9086 24.6642 10.2926 23.8476 9.60079C23.1384 9.00063 22.5888 8.23303 22.0012 7.51592C20.9383 6.26499 19.5372 5.44525 18.0068 5.06618C17.9862 5.06144 17.9657 5.05671 17.9468 5.05039C17.8836 5.03459 17.8204 5.01879 17.7556 5.00458C17.2281 4.88455 16.6864 4.81505 16.1477 4.79609C16.0846 4.79135 16.0308 4.78978 15.9977 4.79135C15.9582 4.79135 15.8982 4.79135 15.8287 4.79609C15.3344 4.81505 14.8368 4.87507 14.3472 4.97615C13.21 5.19727 12.1154 5.65532 11.193 6.36291C10.3732 6.99155 9.75563 7.8176 9.10651 8.61047C7.8303 10.1678 5.9776 11.0397 5.0394 12.905C4.72034 13.5416 4.51028 14.2191 4.4013 14.9094C4.38866 14.9868 4.37761 15.0658 4.36655 15.1447C4.36181 15.1842 4.35549 15.2253 4.35075 15.2648C4.33496 15.4054 4.32548 15.5459 4.31917 15.6865C4.31917 15.7007 4.31758 15.7165 4.31758 15.7307C4.31126 15.8744 4.31126 16.0182 4.31601 16.1619C4.31601 16.1824 4.31601 16.203 4.31601 16.2235C4.32074 16.3482 4.32864 16.473 4.3397 16.5962C4.34602 16.6642 4.35234 16.7321 4.36023 16.8C4.36813 16.8679 4.37761 16.9358 4.38708 17.0038C4.55766 18.1726 5.02045 19.2987 5.77542 20.2464C6.40563 21.0377 7.23327 21.6442 8.01035 22.2807C8.69427 22.8414 9.21707 23.5269 9.77459 24.2077C10.3622 24.9247 11.0335 25.5186 11.7742 25.9846C11.7774 25.9862 11.779 25.9877 11.7821 25.9909C11.7853 25.9925 11.7884 25.9956 11.7932 25.9972C11.8295 26.0209 11.8658 26.043 11.9037 26.0651C14.0897 27.4582 17.1112 27.575 19.4267 26.4378C19.6684 26.3194 19.9005 26.1836 20.1232 26.0351C20.954 25.5202 21.7027 24.8474 22.3708 24.0323C22.9347 23.3437 23.4764 22.7025 24.1667 22.137C24.95 21.4958 25.7588 20.8829 26.3684 20.0616C27.245 18.8802 27.681 17.4554 27.6873 16.0308C27.6873 16.0182 27.6873 16.0055 27.6873 15.9929V15.9961ZM12.7772 25.3575C11.8896 24.6262 11.2624 23.6312 11.0161 22.5334C10.9782 22.3676 11.0935 22.2065 11.2624 22.1875C11.3888 22.1734 11.5152 22.1575 11.6416 22.1354C13.6285 21.7895 15.159 20.5133 15.9819 18.8265C16.0624 18.9954 16.1477 19.1613 16.2425 19.3224C17.2012 20.9398 18.8439 21.9206 20.6334 22.1686C20.6713 21.9285 20.6887 21.6853 20.6871 21.442C19.61 21.1672 18.6433 20.4043 17.9847 19.4219C16.7764 17.6198 16.6311 15.1684 17.6024 13.2273C18.1379 12.158 19.084 11.1487 20.2101 10.6827C20.6429 10.5042 21.0946 10.8897 21.0077 11.3493C20.7976 12.4596 20.2054 13.4958 19.3177 14.246C18.7444 14.7309 18.0936 15.0752 17.4129 15.2774C17.386 15.5048 17.3734 15.7338 17.3734 15.9629C17.3734 15.9629 17.3718 15.9629 17.3703 15.9629C17.3703 15.9818 17.3703 16.0024 17.3718 16.0214C17.3718 16.0339 17.3718 16.0466 17.3718 16.0608C17.3718 16.0608 17.3718 16.0608 17.3734 16.0608C17.3766 16.2788 17.3892 16.4967 17.4144 16.7115C18.956 17.187 20.267 18.3621 20.8229 19.9052C21.5132 21.8195 20.8577 23.9802 19.3177 25.2817C19.2482 25.3402 19.1756 25.3954 19.1029 25.4491C17.1239 26.8438 14.682 26.7617 12.7788 25.3591L12.7772 25.3575ZM12.7772 6.64406C14.9173 5.05671 17.5376 5.28731 19.4678 6.85571C20.0648 7.40536 20.5402 8.08927 20.8198 8.86791C20.8908 9.06535 20.9461 9.26599 20.9888 9.46815C21.022 9.62927 20.9098 9.78559 20.7472 9.80455C19.2372 9.98623 17.803 10.689 16.7985 11.8863C16.47 12.2764 16.1983 12.7045 15.9819 13.1578C15.2932 11.7346 14.1008 10.5911 12.5103 10.0715C12.1312 9.94831 11.7426 9.86455 11.3509 9.81247C11.3162 10.0478 11.3004 10.2847 11.3052 10.5185C11.3115 10.5201 11.3193 10.5217 11.3256 10.5232C13.698 11.1802 14.9852 13.6822 15.0264 15.9945C14.9884 18.081 13.9949 20.2085 12.0648 21.1767C11.9622 21.2272 11.8611 21.273 11.7584 21.3125C11.332 21.4783 10.8881 21.1214 10.9656 20.6713V20.6618C11.2988 18.7743 12.7772 17.2738 14.5636 16.7131C14.5967 16.4667 14.6156 16.225 14.6204 15.9929C14.6156 15.7591 14.5936 15.5174 14.5604 15.2758C14.1181 15.1431 13.6854 14.9489 13.2763 14.6851C11.5879 13.5969 10.6149 11.6304 10.9672 9.62607C11.1645 8.50151 11.7679 7.51435 12.6003 6.78147C12.6588 6.73409 12.7156 6.68513 12.7756 6.64091L12.7772 6.64406ZM25.942 16.6626C25.7777 18.3242 25.0938 19.632 23.9645 20.616C23.8887 20.6823 23.8144 20.7423 23.7418 20.7976C23.3185 21.123 22.7104 20.8861 22.5872 20.3664C22.5872 20.3633 22.5856 20.3601 22.584 20.357C21.9949 17.9309 19.918 16.4936 17.6198 16.0102C18.2484 15.8823 18.8581 15.6818 19.4252 15.4038C20.984 14.6377 22.1908 13.2351 22.584 11.602C22.7056 11.0934 23.3012 10.8754 23.7276 11.1787C23.884 11.2893 24.0308 11.4093 24.1714 11.5372C25.4508 12.9209 26.1331 14.7135 25.9404 16.661L25.942 16.6626ZM7.8303 11.5388C7.97088 11.4109 8.11931 11.2908 8.27411 11.1802C8.70059 10.877 9.29603 11.0966 9.41763 11.6036C9.81091 13.2351 11.0176 14.6393 12.5766 15.4054C13.1436 15.6833 13.7533 15.8839 14.3819 16.0118C12.0838 16.4952 10.0068 17.9309 9.41763 20.3586C9.41763 20.3617 9.41611 20.3648 9.41451 20.368C9.28971 20.8861 8.68163 21.123 8.25995 20.7992C8.18723 20.7439 8.11299 20.6839 8.03723 20.6175C6.9079 19.6351 6.22399 18.3258 6.05973 16.6642C5.86703 14.7167 6.54936 12.924 7.82873 11.5404L7.8303 11.5388Z" fill="var(--fill-0, white)"/>
</g>
</g>
<defs>
<clipPath id="clip0_0_4">
<rect width="32" height="32" rx="8" fill="white"/>
</clipPath>
</defs>
</svg>
