<svg preserveAspectRatio="none" width="100%" height="100%" overflow="visible" style="display: block;" viewBox="0 0 32 32" fill="none" xmlns="http://www.w3.org/2000/svg">
<g id="phantom">
<rect width="32" height="32" rx="8" fill="var(--fill-0, #AB9FF2)"/>
<path id="Vector" d="M8.66477 24.002C11.1173 24.002 12.9604 21.8691 14.0603 20.1837C13.9265 20.5566 13.8522 20.9294 13.8522 21.2874C13.8522 22.2718 14.417 22.9728 15.5318 22.9728C17.0627 22.9728 18.6977 21.6305 19.5449 20.1837C19.4855 20.3925 19.4558 20.5864 19.4558 20.7654C19.4558 21.4515 19.8422 21.884 20.63 21.884C23.1122 21.884 25.6093 17.484 25.6093 13.636C25.6093 10.638 24.0932 7.99805 20.2881 7.99805C13.5995 7.99805 6.39064 16.1715 6.39064 21.4515C6.39064 23.5247 7.50541 24.002 8.66477 24.002ZM17.9843 13.3078C17.9843 12.5621 18.4004 12.0401 19.0098 12.0401C19.6044 12.0401 20.0206 12.5621 20.0206 13.3078C20.0206 14.0536 19.6044 14.5905 19.0098 14.5905C18.4004 14.5905 17.9843 14.0536 17.9843 13.3078ZM21.1651 13.3078C21.1651 12.5621 21.5813 12.0401 22.1906 12.0401C22.7852 12.0401 23.2014 12.5621 23.2014 13.3078C23.2014 14.0536 22.7852 14.5905 22.1906 14.5905C21.5813 14.5905 21.1651 14.0536 21.1651 13.3078Z" fill="var(--fill-0, white)"/>
</g>
</svg>
