<svg width="32" height="32" viewBox="0 0 32 32" fill="none" xmlns="http://www.w3.org/2000/svg">
<rect width="32" height="32" rx="8" fill="#0B9890"/>
<path fill-rule="evenodd" clip-rule="evenodd" d="M21.6261 9.24042C23.979 9.1428 26.5248 10.6067 25.9034 13.3771C25.6215 14.6332 24.2869 15.7579 23.3731 16.5959C22.6043 17.3009 23.3344 18.4844 23.0626 19.3869C22.9214 19.8566 22.5306 20.2156 22.0235 20.2922C19.3177 20.4412 16.7262 21.041 14.172 21.9289C13.7795 22.0624 13.3914 22.2085 13.0089 22.3684C12.0366 22.7653 11.3201 23.153 10.6563 21.9865C10.4731 21.6604 10.3154 21.2869 10.1593 20.9455C10.0324 20.6681 9.89618 20.1606 9.71006 19.9436C9.41502 19.6565 8.935 19.5506 8.55479 19.3937C6.65864 18.6117 5.64845 17.2966 6.11533 15.2023C6.27224 14.5051 6.69841 13.8984 7.30088 13.5139C8.71494 12.6252 10.9433 12.7529 12.4747 13.2619C12.8194 13.3765 13.165 13.5223 13.5187 13.6037C13.9177 13.444 14.6005 12.9632 14.9815 12.7072C15.6058 12.2891 16.2233 11.8606 16.8341 11.423C18.354 10.3368 19.6706 9.3475 21.6261 9.24042ZM24.5147 11.4094C23.8073 10.4857 22.5271 10.2754 21.4356 10.3771C20.829 10.4219 20.3472 10.5408 19.7979 10.8146C18.6106 11.4065 17.5185 12.2831 16.4288 13.0383C15.1867 13.8839 13.9199 14.6933 12.63 15.4641C12.1793 15.734 11.4574 16.2178 10.9903 16.3752C10.7902 16.3216 10.6075 16.274 10.4952 16.0822C10.43 15.9707 10.3942 15.8474 10.4298 15.7199C10.5765 15.1962 12.2028 14.7248 11.9679 14.3381C11.8709 14.1793 11.4592 14.0854 11.2823 14.0519C10.3061 13.8673 8.70689 13.8713 7.87119 14.4465C7.45374 14.7339 7.21417 15.1491 7.1251 15.6437C7.01922 16.2319 7.06391 16.7823 7.41318 17.2824C7.81969 17.8645 8.7209 18.4226 9.41807 18.5461C9.60127 18.5785 9.79652 18.5915 9.97861 18.548C10.6447 18.3891 12.8696 16.9693 13.3829 17.7121C13.4708 17.8396 13.4773 18.0307 13.4454 18.1779C13.42 18.2949 13.3379 18.3872 13.2384 18.4494C12.7501 18.7542 11.0584 18.9163 10.8946 19.5334C10.7979 19.8984 11.0921 20.3605 11.2374 20.6799C11.3086 20.8363 11.3606 21.006 11.4493 21.1535C11.5497 21.3203 11.6954 21.4415 11.8878 21.4846C12.2812 21.5723 13.5503 20.9729 13.9747 20.8117C15.3517 20.3125 16.7655 19.9217 18.2032 19.6418C19.0531 19.4699 19.8634 19.3224 20.7296 19.2707C21.0429 19.2521 21.8286 19.2757 21.9854 18.9426C22.1175 18.6612 21.9864 17.7921 21.8722 17.5021C21.8042 17.33 21.6629 17.2039 21.4942 17.133C20.841 16.8587 18.6465 17.18 17.9005 17.3381C17.5192 17.4189 17.0024 17.6281 16.6212 17.5803C16.4598 17.56 16.3288 17.4191 16.2657 17.2766C16.2126 17.1565 16.2027 16.9941 16.2501 16.8703C16.3127 16.7074 16.4789 16.6011 16.6329 16.5373C17.0551 16.3626 17.529 16.3085 17.9747 16.2189C18.1411 15.7131 18.2811 15.1944 18.4288 14.6877C18.4993 14.4459 18.8221 14.2237 19.0685 14.3234C19.3149 14.4058 19.4151 14.6694 19.4991 14.8879C19.4154 15.0297 19.3928 15.1969 19.3478 15.3664C19.2988 15.5673 19.2188 15.8433 19.4298 15.9816C19.4685 16.0069 19.5562 16.0166 19.5929 15.9953C20.2548 15.6107 20.6542 13.89 21.1446 13.4816C21.6614 13.4163 21.784 13.4979 21.9571 13.9777C21.8325 14.4086 21.3923 15.3408 21.1378 15.7287C21.2068 15.812 21.2807 15.8959 21.336 15.9885C21.9063 16.0625 22.3096 16.0743 22.7696 15.6711C23.9219 14.6607 25.7586 13.0338 24.5147 11.4094Z" fill="#FEFEFE"/>
</svg>
