<svg preserveAspectRatio="none" width="100%" height="100%" overflow="visible" style="display: block;" viewBox="0 0 27.9998 27.9998" fill="none" xmlns="http://www.w3.org/2000/svg">
<g id="Frame 132">
<path id="Vector" d="M27.9998 13.9999C27.9998 6.26798 21.7319 0 13.9999 0C6.26798 0 0 6.26798 0 13.9999C0 21.7319 6.26798 27.9998 13.9999 27.9998C21.7319 27.9998 27.9998 21.7319 27.9998 13.9999Z" fill="var(--fill-0, black)"/>
<g id="Union">
<path d="M12.7676 16.6094C13.5692 16.0562 14.4309 15.8668 15.3516 16.042C16.2739 16.2161 17.0072 16.6974 17.5518 17.4864L18.3614 18.6602L17.1992 19.4629L16.3887 18.2891C16.0663 17.8221 15.6364 17.5385 15.0967 17.4405C14.5586 17.3413 14.0516 17.4561 13.5791 17.7823L11.5283 19.2061C10.8767 19.6585 9.98195 19.4957 9.53128 18.8428L12.7676 16.6094Z" fill="var(--fill-0, white)"/>
<path d="M11.2686 12.8096C11.8229 13.6127 12.0133 14.4764 11.8399 15.3975C11.6675 16.3199 11.1877 17.0523 10.4004 17.5957L9.22854 18.4043L8.42483 17.2393L9.59671 16.4307C10.0626 16.1091 10.3444 15.6792 10.4414 15.1397C10.5396 14.6014 10.4244 14.0935 10.0977 13.6201L8.668 11.5616C8.21625 10.9111 8.37853 10.0173 9.0303 9.56741L11.2686 12.8096Z" fill="var(--fill-0, white)"/>
<path d="M19.5264 10.6026L18.3545 11.4112C17.8885 11.7329 17.6068 12.1634 17.5098 12.7032C17.4118 13.2413 17.5269 13.7485 17.8535 14.2217L19.2832 16.2803C19.7349 16.9307 19.5725 17.8246 18.9209 18.2744L16.6826 15.0323C16.1284 14.2292 15.938 13.3663 16.1114 12.4453C16.2837 11.5227 16.7634 10.7896 17.5508 10.2461L18.7227 9.43753L19.5264 10.6026Z" fill="var(--fill-0, white)"/>
<path d="M16.3526 8.53421C17.0041 8.082 17.899 8.24483 18.3496 8.89749L15.1133 11.1319C14.3119 11.6849 13.4499 11.8744 12.5293 11.6992C11.6071 11.5252 10.8746 11.0427 10.3301 10.2539L9.51956 9.08011L10.6817 8.27835L11.4922 9.45218C11.8145 9.91903 12.2447 10.2018 12.7842 10.2998C13.3223 10.399 13.8294 10.285 14.3018 9.95901L16.3526 8.53421Z" fill="var(--fill-0, white)"/>
<path fill-rule="evenodd" clip-rule="evenodd" d="M13.9971 2.19436C20.4383 2.19436 25.66 7.4163 25.6602 13.8575C25.6601 20.2986 20.4384 25.5205 13.9971 25.5205C7.55613 25.5203 2.33414 20.2985 2.33401 13.8575C2.33418 7.41648 7.55615 2.19465 13.9971 2.19436ZM13.9971 3.16702C8.09293 3.16731 3.30684 7.95325 3.30667 13.8575C3.3068 19.7617 8.09291 24.5486 13.9971 24.5489C19.9016 24.5489 24.6884 19.7619 24.6885 13.8575C24.6883 7.95308 19.9016 3.16702 13.9971 3.16702Z" fill="var(--fill-0, white)"/>
</g>
</g>
</svg>
