<svg width="32" height="32" viewBox="0 0 32 32" fill="none" xmlns="http://www.w3.org/2000/svg">
<path fill-rule="evenodd" clip-rule="evenodd" d="M8.64764 6.7832H23.6203C23.9776 6.7832 24.3076 6.97358 24.4858 7.28245L28.8479 14.8443C29.0741 15.2364 29.0069 15.7314 28.6842 16.0494L16.6773 27.8828C16.2884 28.2661 15.6627 28.2661 15.2737 27.8828L3.28304 16.0654C2.95288 15.74 2.89106 15.2306 3.13384 14.836L7.79665 7.25819C7.97822 6.96307 8.30047 6.7832 8.64764 6.7832ZM21.687 10.1593V12.281H17.422V13.7521C20.4175 13.9093 22.6649 14.555 22.6816 15.3289L22.6815 16.9422C22.6648 17.7161 20.4175 18.3618 17.422 18.519V22.1292H14.5899V18.519C11.5943 18.3618 9.34692 17.7161 9.33022 16.9422L9.33033 15.3289C9.34699 14.555 11.5943 13.9093 14.5899 13.7521V12.281H10.3248V10.1593H21.687ZM16.0059 17.4106C19.2027 17.4106 21.8746 16.8646 22.5285 16.1356C21.974 15.5173 19.9683 15.0307 17.422 14.8971V16.4373C16.9656 16.4612 16.4918 16.4738 16.0059 16.4738C15.52 16.4738 15.0462 16.4612 14.5899 16.4373V14.8971C12.0435 15.0307 10.0378 15.5173 9.48329 16.1356C10.1372 16.8646 12.8091 17.4106 16.0059 17.4106Z" fill="white"/>
</svg>
