<svg preserveAspectRatio="none" width="100%" height="100%" overflow="visible" style="display: block;" viewBox="0 0 13.771 19.9753" fill="none" xmlns="http://www.w3.org/2000/svg">
<g id="Frame 123">
<path id="Union" d="M12.2686 14.4668C12.9764 14.4668 13.3309 14.4666 13.5508 14.6865C13.7707 14.9065 13.7705 15.2609 13.7705 15.9688V16.9707C13.7705 18.3869 13.7701 19.0952 13.3301 19.5352C12.8901 19.9749 12.1818 19.9746 10.7656 19.9746H3.00391C1.58778 19.9746 0.879419 19.9751 0.439453 19.5352C-0.000457105 19.0952 4.15374e-09 18.3869 3.92925e-09 16.9707V15.9688C6.89056e-09 15.2608 -0.000243803 14.9065 0.219727 14.6865C0.439733 14.4667 0.793906 14.4668 1.50195 14.4668H12.2686ZM6.88477 2.88672C13.8703 2.88672 13.7705 7.54404 13.7705 9.77246V12.2764C13.7703 12.691 13.4342 13.0272 13.0195 13.0273H0.750977C0.336242 13.0273 0.000164885 12.6911 3.92925e-09 12.2764V9.32812C0.0145389 6.98044 0.335797 2.88687 6.88477 2.88672ZM6.88477 4.66113C5.70956 4.66132 4.75684 5.61476 4.75684 6.79004C4.75704 7.96508 5.70968 8.91778 6.88477 8.91797C8.06004 8.91797 9.01349 7.9652 9.01367 6.79004C9.01367 5.61464 8.06016 4.66113 6.88477 4.66113ZM6.88281 0C8.39006 0 9.7096 0.526852 10.0586 1.38477C10.1112 1.5328 10.1375 1.60715 10.0908 1.66211C10.0441 1.71677 9.9537 1.70064 9.77344 1.66797C9.30612 1.58327 8.64402 1.52502 8.06152 1.50781C7.68985 1.48785 7.29732 1.47754 6.88477 1.47754C6.47255 1.47755 6.08035 1.48787 5.70898 1.50781C5.12381 1.52503 4.4601 1.58322 3.99121 1.66504C3.81442 1.69589 3.7261 1.71084 3.67969 1.65625C3.63335 1.60147 3.65871 1.52896 3.70996 1.38379C4.05608 0.528557 5.37604 6.4693e-05 6.88281 0Z" fill="var(--fill-0, white)"/>
</g>
</svg>
