<svg width="32" height="32" viewBox="0 0 32 32" fill="none" xmlns="http://www.w3.org/2000/svg">
<rect width="32" height="32" rx="8" fill="#6DC4FE"/>
<path fill-rule="evenodd" clip-rule="evenodd" d="M11.7591 24.0019C11.7562 24.0019 11.7532 24.002 11.7502 24.002C8.21474 24.002 5.34863 21.1358 5.34863 17.6004C5.34863 14.5354 7.50256 11.9736 10.3793 11.3458C11.831 9.31889 14.2058 7.99805 16.8892 7.99805C21.0255 7.99805 24.4287 11.1362 24.8479 15.1614C25.95 16.078 26.6517 17.4596 26.6517 19.0052C26.6517 21.7649 24.4145 24.002 21.6549 24.002C21.6457 24.002 21.6365 24.002 21.6273 24.0019H16.9231C16.9118 24.002 16.9005 24.002 16.8892 24.002C16.878 24.002 16.8667 24.002 16.8554 24.0019H11.7591ZM15.2087 14.4799C15.9675 14.4799 16.5826 13.8648 16.5826 13.106C16.5826 12.3473 15.9675 11.7323 15.2087 11.7323C14.45 11.7323 13.8349 12.3473 13.8349 13.106C13.8349 13.8648 14.45 14.4799 15.2087 14.4799ZM20.7037 14.4799C21.4625 14.4799 22.0776 13.8648 22.0776 13.106C22.0776 12.3473 21.4625 11.7323 20.7037 11.7323C19.9449 11.7323 19.3299 12.3473 19.3299 13.106C19.3299 13.8648 19.9449 14.4799 20.7037 14.4799ZM20.4581 15.724C20.9797 15.6506 21.4199 15.5886 21.685 15.5886C22.3353 15.5886 22.8625 16.1159 22.8625 16.7662C22.8625 19.4758 20.6658 21.6724 17.9562 21.6724C15.2466 21.6724 13.0499 19.4758 13.0499 16.7662C13.0499 16.1159 13.5772 15.5886 14.2275 15.5886C14.4925 15.5886 14.9328 15.6506 15.4544 15.724C16.2125 15.8307 17.1424 15.9616 17.9562 15.9616C18.7699 15.9616 19.7 15.8307 20.4581 15.724ZM17.956 20.6912C19.0313 20.6912 20.0056 20.2587 20.7144 19.5583H20.714C21.0295 19.2466 20.9262 18.7135 20.5192 18.5378C19.8315 18.241 18.9357 18.0614 17.9558 18.0614C16.976 18.0614 16.0801 18.241 15.3925 18.5378C14.9855 18.7135 14.8822 19.2468 15.1976 19.5583C15.9066 20.2587 16.8808 20.6912 17.956 20.6912Z" fill="white"/>
</svg>
