<svg preserveAspectRatio="none" width="100%" height="100%" overflow="visible" style="display: block;" viewBox="0 0 32 32" fill="none" xmlns="http://www.w3.org/2000/svg">
<g id="Sanctum">
<rect width="32" height="32" rx="8" fill="var(--fill-0, #6DC4FE)"/>
<path id="Vector" fill-rule="evenodd" clip-rule="evenodd" d="M11.759 24.0019C11.7561 24.0019 11.7531 24.002 11.7501 24.002C8.21466 24.002 5.34855 21.1358 5.34855 17.6004C5.34855 14.5354 7.50247 11.9736 10.3792 11.3458C11.8309 9.31889 14.2057 7.99805 16.8892 7.99805C21.0254 7.99805 24.4286 11.1362 24.8478 15.1614C25.9499 16.078 26.6516 17.4596 26.6516 19.0052C26.6516 21.7649 24.4144 24.002 21.6548 24.002C21.6457 24.002 21.6364 24.002 21.6272 24.0019H16.923C16.9117 24.002 16.9004 24.002 16.8892 24.002C16.8779 24.002 16.8666 24.002 16.8553 24.0019H11.759ZM15.2086 14.4799C15.9674 14.4799 16.5825 13.8648 16.5825 13.106C16.5825 12.3473 15.9674 11.7323 15.2086 11.7323C14.4499 11.7323 13.8348 12.3473 13.8348 13.106C13.8348 13.8648 14.4499 14.4799 15.2086 14.4799ZM20.7037 14.4799C21.4624 14.4799 22.0775 13.8648 22.0775 13.106C22.0775 12.3473 21.4624 11.7323 20.7037 11.7323C19.9449 11.7323 19.3298 12.3473 19.3298 13.106C19.3298 13.8648 19.9449 14.4799 20.7037 14.4799ZM20.458 15.724C20.9796 15.6506 21.4198 15.5886 21.6849 15.5886C22.3352 15.5886 22.8624 16.1159 22.8624 16.7662C22.8624 19.4758 20.6657 21.6724 17.9561 21.6724C15.2465 21.6724 13.0498 19.4758 13.0498 16.7662C13.0498 16.1159 13.5771 15.5886 14.2274 15.5886C14.4925 15.5886 14.9327 15.6506 15.4543 15.724C16.2124 15.8307 17.1423 15.9616 17.9561 15.9616C18.7699 15.9616 19.6999 15.8307 20.458 15.724ZM17.9559 20.6912C19.0312 20.6912 20.0055 20.2587 20.7143 19.5583H20.7139C21.0294 19.2466 20.9261 18.7135 20.5191 18.5378C19.8314 18.241 18.9356 18.0614 17.9557 18.0614C16.9759 18.0614 16.08 18.241 15.3924 18.5378C14.9854 18.7135 14.8821 19.2468 15.1976 19.5583C15.9065 20.2587 16.8807 20.6912 17.9559 20.6912Z" fill="var(--fill-0, white)"/>
</g>
</svg>
