<svg preserveAspectRatio="none" width="100%" height="100%" overflow="visible" style="display: block;" viewBox="0 0 27.9527 27.9528" fill="none" xmlns="http://www.w3.org/2000/svg">
<g id="Frame 124">
<path id="Fill-1" fill-rule="evenodd" clip-rule="evenodd" d="M24.5153 5.81502L23.1251 7.20138C22.9146 7.41122 22.8846 7.73841 23.0476 7.98664C23.5569 8.76267 23.9627 9.59803 24.2575 10.4724L24.2612 10.4688C24.6379 11.5847 24.8327 12.762 24.8327 13.9507C24.8327 19.9559 19.934 24.8413 13.9127 24.8413C12.1007 24.8413 10.3601 24.4072 8.79485 23.5742L11.1509 21.2246C12.0301 21.557 12.9669 21.7297 13.9127 21.7297C18.2137 21.7297 21.7127 18.2401 21.7127 13.9507C21.7127 13.6828 21.6965 13.414 21.6683 13.1459C21.5746 12.2443 21.3247 11.3701 20.9324 10.5609C20.7451 10.1746 20.2318 10.0867 19.9275 10.3903L18.5164 11.7977C18.3639 11.9497 18.3009 12.1697 18.35 12.3793L18.4683 12.8846C18.5509 13.2369 18.5927 13.5957 18.5927 13.9507C18.5927 16.5244 16.4933 18.6181 13.9127 18.6181C13.1005 18.6181 12.2993 18.4058 11.5957 18.0038L10.9749 17.6491C10.7304 17.5095 10.4227 17.5504 10.2236 17.749L4.47053 23.4862C4.20392 23.752 4.23295 24.1912 4.53209 24.4201L5.3795 25.068C7.84738 26.9554 10.7984 27.9528 13.9127 27.9528C21.6543 27.9528 27.9526 21.6714 27.9526 13.9507C27.9526 11.5132 27.3142 9.11182 26.1063 7.00622L25.498 5.94602C25.3806 5.74121 25.1692 5.6327 24.9555 5.6327C24.7977 5.6327 24.6387 5.69183 24.5153 5.81502Z" fill="var(--fill-0, white)"/>
<path id="Fill-4" fill-rule="evenodd" clip-rule="evenodd" d="M14.1011 0C6.32568 0 0 6.2813 0 14.002C0 16.4398 0.641108 18.8413 1.85426 20.9466L2.46528 22.0068C2.6704 22.3629 3.16025 22.4278 3.45232 22.1378L4.84837 20.7517C5.05959 20.5418 5.08968 20.2149 4.92622 19.9665C4.41528 19.191 4.00721 18.355 3.711 17.4806L3.70759 17.484C3.32929 16.3682 3.13348 15.191 3.13348 14.002C3.13348 7.9971 8.0536 3.11149 14.1011 3.11149C15.9208 3.11149 17.669 3.54555 19.2411 4.37866L16.8748 6.72829C15.9919 6.39587 15.0509 6.22309 14.1011 6.22309C9.78131 6.22309 6.26716 9.71279 6.26716 14.002C6.26716 14.1319 6.27192 14.2619 6.27853 14.3918C6.2807 14.434 6.28349 14.476 6.28639 14.5181C6.29321 14.6195 6.302 14.721 6.31296 14.8223C6.4088 15.7165 6.65952 16.5863 7.05125 17.3914C7.23921 17.7778 7.75491 17.8655 8.06042 17.5619L9.47725 16.1553C9.63036 16.0031 9.69353 15.7831 9.64432 15.5737L9.52543 15.0682C9.44272 14.7163 9.40074 14.3576 9.40074 14.002C9.40074 11.4285 11.5092 9.33469 14.1011 9.33469C14.9167 9.33469 15.7212 9.54709 16.4277 9.94891L17.0515 10.3038C17.297 10.4435 17.6061 10.4025 17.8063 10.2039L23.5841 4.46664C23.8519 4.20064 23.8228 3.76155 23.5224 3.53272L22.6712 2.88481C20.1924 0.997571 17.2287 0 14.1011 0Z" fill="var(--fill-0, white)"/>
</g>
</svg>
