<svg width="32" height="32" viewBox="0 0 32 32" fill="none" xmlns="http://www.w3.org/2000/svg">
<path fill-rule="evenodd" clip-rule="evenodd" d="M26.5282 7.8492L25.138 9.23556C24.9276 9.4454 24.8975 9.77259 25.0606 10.0208C25.5698 10.7968 25.9756 11.6322 26.2704 12.5066L26.2741 12.503C26.6508 13.6188 26.8457 14.7962 26.8457 15.9849C26.8457 21.99 21.9469 26.8754 15.9257 26.8754C14.1136 26.8754 12.373 26.4414 10.8078 25.6084L13.1639 23.2587C14.043 23.5912 14.9798 23.7638 15.9257 23.7638C20.2266 23.7638 23.7256 20.2742 23.7256 15.9849C23.7256 15.7169 23.7095 15.4482 23.6813 15.1801C23.5875 14.2784 23.3377 13.4043 22.9454 12.5951C22.758 12.2088 22.2448 12.1209 21.9405 12.4245L20.5294 13.8319C20.3768 13.9839 20.3138 14.2039 20.3629 14.4134L20.4813 14.9187C20.5638 15.2711 20.6056 15.6299 20.6056 15.9849C20.6056 18.5585 18.5063 20.6522 15.9257 20.6522C15.1135 20.6522 14.3123 20.4399 13.6087 20.038L12.9879 19.6833C12.7434 19.5437 12.4357 19.5845 12.2365 19.7832L6.48347 25.5204C6.21686 25.7862 6.24589 26.2254 6.54503 26.4543L7.39244 27.1022C9.86032 28.9896 12.8113 29.987 15.9257 29.987C23.6673 29.987 29.9656 23.7056 29.9656 15.9849C29.9656 13.5474 29.3271 11.146 28.1192 9.0404L27.511 7.9802C27.3935 7.77539 27.1822 7.66688 26.9685 7.66688C26.8107 7.66688 26.6516 7.72601 26.5282 7.8492Z" fill="white"/>
<path fill-rule="evenodd" clip-rule="evenodd" d="M16.114 2.03418C8.33862 2.03418 2.01294 8.31548 2.01294 16.0362C2.01294 18.474 2.65405 20.8755 3.8672 22.9808L4.47822 24.041C4.68334 24.397 5.17319 24.462 5.46526 24.172L6.86131 22.7859C7.07253 22.576 7.10262 22.249 6.93916 22.0007C6.42822 21.2252 6.02015 20.3892 5.72394 19.5148L5.72053 19.5182C5.34223 18.4024 5.14642 17.2251 5.14642 16.0362C5.14642 10.0313 10.0665 5.14567 16.114 5.14567C17.9337 5.14567 19.6819 5.57973 21.254 6.41284L18.8878 8.76247C18.0049 8.43005 17.0638 8.25727 16.114 8.25727C11.7942 8.25727 8.2801 11.747 8.2801 16.0362C8.2801 16.1661 8.28485 16.296 8.29147 16.426C8.29364 16.4682 8.29643 16.5102 8.29933 16.5523C8.30615 16.6537 8.31494 16.7552 8.3259 16.8565C8.42174 17.7507 8.67246 18.6205 9.06419 19.4256C9.25215 19.812 9.76785 19.8997 10.0734 19.5961L11.4902 18.1894C11.6433 18.0373 11.7065 17.8173 11.6573 17.6079L11.5384 17.1024C11.4557 16.7504 11.4137 16.3918 11.4137 16.0362C11.4137 13.4627 13.5222 11.3689 16.114 11.3689C16.9296 11.3689 17.7342 11.5813 18.4406 11.9831L19.0645 12.338C19.3099 12.4777 19.619 12.4367 19.8192 12.2381L25.597 6.50082C25.8648 6.23482 25.8358 5.79573 25.5353 5.5669L24.6841 4.91899C22.2053 3.03175 19.2417 2.03418 16.114 2.03418Z" fill="white"/>
</svg>
