<svg preserveAspectRatio="none" width="100%" height="100%" overflow="visible" style="display: block;" viewBox="0 0 32 32" fill="none" xmlns="http://www.w3.org/2000/svg">
<g id="Helius white">
<path id="Union" d="M16.0035 27.3093C17.3258 27.3093 18.399 28.3919 18.399 29.7263H13.609C13.609 28.392 14.6806 27.3095 16.0035 27.3093ZM9.18616 22.1853C10.8034 24.0955 13.1942 25.3165 15.8698 25.3572L10.2018 29.2566C9.99481 29.3993 9.71228 29.2622 9.69299 29.0095L9.18616 22.1853ZM22.2955 29.0017C22.2762 29.2537 21.9946 29.3917 21.7867 29.2488L16.1295 25.3572C18.7959 25.3191 21.1822 24.1084 22.7994 22.2117L22.2955 29.0017ZM4.21741 22.9685C5.25139 22.1365 6.75904 22.307 7.58362 23.3503C8.40817 24.3938 8.23876 25.9157 7.20471 26.7478L4.21741 22.9685ZM24.7604 23.3503C25.5849 22.307 27.0917 22.1357 28.1266 22.9685L25.1403 26.7478C24.1053 25.9148 23.9358 24.3938 24.7604 23.3503ZM7.16174 14.8298C7.08298 15.3126 7.04066 15.8086 7.04065 16.3142C7.04148 18.4198 7.75427 20.3588 8.95081 21.8953L2.48401 19.8826C2.24466 19.8079 2.17476 19.4993 2.35901 19.3269L7.16174 14.8298ZM29.6422 19.3035C29.8257 19.4767 29.7566 19.7854 29.5172 19.8591L23.0807 21.863C24.2621 20.3316 24.9655 18.4053 24.9655 16.3142C24.9655 15.8011 24.9227 15.299 24.8414 14.8103L29.6422 19.3035ZM3.54651 11.1121C4.83587 11.4091 5.64231 12.7044 5.34827 14.0056C5.05415 15.307 3.77067 16.1217 2.48108 15.8249L3.54651 11.1121ZM29.5895 15.824C28.3009 16.1213 27.0164 15.3069 26.7223 14.0056C26.4283 12.7051 27.2353 11.4087 28.524 11.1111L29.5895 15.824ZM26.6979 7.44311C26.9459 7.40505 27.1408 7.65165 27.0494 7.88842L24.6705 14.0066C24.0437 11.6026 22.4611 9.59027 20.3571 8.40893L26.6979 7.44311ZM5.3092 7.43237L11.6647 8.39819C9.55572 9.57779 7.9677 11.5913 7.33752 13.9978L4.95764 7.8767C4.86547 7.64162 5.06116 7.39432 5.3092 7.43237ZM15.7203 2.38061C15.8452 2.16075 16.1601 2.16075 16.2858 2.38061L19.4899 7.98022C18.419 7.52274 17.2395 7.27026 16.0035 7.27026C14.7677 7.27031 13.5896 7.52279 12.5172 7.98022L15.7203 2.38061ZM12.1715 3.38647C12.7455 4.58884 12.2447 6.03271 11.0533 6.61205C9.86179 7.19131 8.43008 6.68562 7.85608 5.48315L12.1715 3.38647ZM24.0426 5.48315C23.4686 6.68562 22.0369 7.19131 20.8453 6.61205C19.654 6.03266 19.1533 4.58879 19.7272 3.38647L24.0426 5.48315Z" fill="var(--fill-0, white)"/>
</g>
</svg>
