<svg preserveAspectRatio="none" width="100%" height="100%" overflow="visible" style="display: block;" viewBox="0 0 32 32" fill="none" xmlns="http://www.w3.org/2000/svg">
<g id="SendAI">
<rect width="32" height="32" rx="8" fill="var(--fill-0, #1A1A1A)"/>
<path id="Subtract" fill-rule="evenodd" clip-rule="evenodd" d="M16 25.998C21.5218 25.998 25.998 21.5218 25.998 16C25.998 10.4782 21.5218 6.00195 16 6.00195C10.4782 6.00195 6.00195 10.4782 6.00195 16C6.00195 21.5218 10.4782 25.998 16 25.998ZM24.4682 14.3996C23.9547 11.6656 22.1498 9.38704 19.7112 8.22147C19.1543 7.9553 18.8759 7.82221 18.8356 7.88243C18.7953 7.94265 19.035 8.15836 19.5142 8.58976C21.1347 10.0484 22.4698 12.3691 22.7558 13.37C22.3962 13.6397 21.677 13.9993 21.2565 14.1135C21.3303 14.7141 21.369 15.3363 21.369 15.9732C21.369 16.359 21.3605 16.7412 21.3426 17.118C21.3322 17.3377 21.327 17.4475 21.3971 17.5008C21.4671 17.554 21.5681 17.5208 21.7703 17.4543C22.325 17.2718 22.7882 17.0675 23.1466 16.852C23.599 16.5801 24.0999 16.2092 24.309 15.8327C24.5182 15.4562 24.56 14.8889 24.4682 14.3996ZM15.3104 8.67857C15.3104 8.56443 15.3104 8.50736 15.2703 8.48069C15.2301 8.45401 15.1798 8.47514 15.079 8.51739C14.2702 8.85654 13.5664 9.57949 13.0229 10.6853C12.7721 11.1953 12.5638 11.7724 12.401 12.4028C12.3732 12.5106 12.3593 12.5645 12.3891 12.5979C12.419 12.6312 12.475 12.6233 12.587 12.6073C13.4412 12.486 14.3571 12.4094 15.3104 12.3844V8.67857ZM15.3104 13.7664C14.4318 13.7908 13.5962 13.8611 12.8241 13.9691C12.475 14.018 12.3004 14.0424 12.179 14.1725C12.0577 14.3027 12.0456 14.4771 12.0215 14.8259C11.9957 15.1991 11.9826 15.582 11.9826 15.9727C11.9826 16.4207 12.002 16.8658 12.039 17.3033C12.0636 17.5939 12.0759 17.7391 12.1758 17.8453C12.2758 17.9515 12.4208 17.9726 12.7109 18.0149C13.7129 18.161 14.8246 18.2433 16 18.2433C16.0866 18.2433 16.1728 18.2429 16.2587 18.242C16.4085 18.2404 16.5277 18.3717 16.5113 18.5207C16.4402 19.1662 15.8743 19.6251 15.2252 19.6019C14.2159 19.5658 13.1638 19.483 12.3517 19.3581C12.352 19.3592 12.3522 19.3602 12.3525 19.3613C12.0464 19.3141 11.7178 19.2597 11.4974 19.2134C11.2462 19.1608 10.946 19.0874 10.7041 19.0258C10.5841 18.9953 10.4804 18.9682 10.4067 18.9488C10.37 18.939 10.3408 18.9313 10.3209 18.9259L10.3204 18.9258C10.1 18.8637 9.88784 18.7979 9.68456 18.7287C8.86379 18.4492 8.14997 18.1009 7.62745 17.6802C7.59519 17.6543 7.5633 17.6277 7.53188 17.6006C8.04132 20.3125 9.82131 22.5763 12.2301 23.7502C12.4964 23.88 12.6295 23.9448 12.6715 23.8948C12.7135 23.8448 12.6226 23.7194 12.4409 23.4686C12.1308 23.0407 11.8576 22.5447 11.6216 22.0077C11.5268 21.7922 11.4371 21.5677 11.3525 21.3354C11.2267 20.9896 11.1639 20.8167 11.256 20.7059C11.3481 20.5951 11.5375 20.6266 11.9164 20.6898C12.0413 20.7106 12.1601 20.7296 12.2603 20.7448C12.5725 20.7922 12.8317 21.0069 12.952 21.2988C12.9795 21.3655 13.0075 21.4312 13.0359 21.4958C13.3583 22.2292 13.7239 22.7922 14.0933 23.16C14.4648 23.5298 14.7733 23.6406 15.0023 23.6406C15.9061 23.6406 16.6619 23.0664 17.2208 21.6503C17.4559 21.0547 17.6359 20.3516 17.7651 19.5649C17.7629 19.5651 17.7607 19.5652 17.7584 19.5654C17.839 19.0985 17.8927 18.6577 17.9323 18.1671C17.9334 18.167 17.9344 18.1669 17.9355 18.1668C17.9938 17.4756 18.022 16.7402 18.022 15.9727C18.022 15.5537 18.0075 15.1425 17.9798 14.7416C17.2129 14.7894 16.233 14.8173 15.3126 14.7783V14.7567H15.3104V13.7664ZM10.46 15.9727C10.46 16.3593 10.4734 16.745 10.4993 17.1272C10.5102 17.2869 10.5156 17.3667 10.4796 17.416C10.4609 17.4415 10.4348 17.4616 10.4052 17.4731C10.3484 17.4953 10.2755 17.4705 10.1299 17.4209C9.39137 17.1694 8.84332 16.8855 8.49381 16.6041C8.13808 16.3177 8.07428 16.1092 8.07428 16.0001C8.07428 15.8936 8.1346 15.6927 8.47005 15.4155C8.80084 15.1422 9.32154 14.8641 10.0276 14.6149C10.037 14.6115 10.0465 14.6082 10.0561 14.6048C10.2623 14.5328 10.3655 14.4967 10.4369 14.5506C10.5084 14.6044 10.5019 14.7177 10.4889 14.9443C10.4696 15.2828 10.46 15.626 10.46 15.9727ZM11.6322 10.1226C11.3049 10.7885 11.0467 11.5343 10.8569 12.3369C10.7833 12.6483 10.7464 12.8041 10.6542 12.902C10.5621 12.9998 10.4091 13.0458 10.1031 13.1377C9.91828 13.1932 9.73965 13.2514 9.56767 13.3121C8.77894 13.5905 8.0926 13.9352 7.59001 14.3505C7.57046 14.3667 7.55106 14.3831 7.53184 14.3997C8.06935 11.5378 10.0218 9.17493 12.635 8.06532C12.9868 7.91593 13.1627 7.84123 13.2015 7.8975C13.2402 7.95377 13.101 8.09829 12.8227 8.38732C12.3474 8.88082 11.9518 9.47247 11.6322 10.1226ZM19.3613 23.5174C19.0889 23.8258 18.9526 23.9799 18.9929 24.0344C19.0332 24.0888 19.2107 24.008 19.5656 23.8465C21.9362 22.7675 23.732 20.6457 24.3669 18.0672C24.4136 17.8775 24.437 17.7827 24.3898 17.7498C24.3426 17.717 24.2578 17.7745 24.0882 17.8895C24.0128 17.9406 23.936 17.9895 23.8584 18.0361C23.3022 18.3704 22.6028 18.6565 21.8049 18.8898C21.4851 18.9834 21.3251 19.0301 21.2305 19.1334C21.1358 19.2367 21.1031 19.3999 21.0378 19.7263C20.855 20.6401 20.5897 21.4813 20.2255 22.2128C19.9824 22.7011 19.695 23.1398 19.3613 23.5174Z" fill="var(--fill-0, white)"/>
</g>
</svg>
