<svg width="32" height="32" viewBox="0 0 32 32" fill="none" xmlns="http://www.w3.org/2000/svg">
<path d="M12.1614 10.3311C16.904 9.80451 21.1703 13.2356 21.6734 17.9808C22.1765 22.726 18.7244 26.9755 13.9768 27.4551C9.26234 27.9313 5.04906 24.5085 4.54941 19.7965C4.04983 15.0844 7.4518 10.854 12.1614 10.3311Z" fill="white"/>
<path d="M23.3973 4.54847C24.65 4.34091 25.9176 4.82308 26.7158 5.81067C27.5139 6.79828 27.7195 8.13903 27.2536 9.32032C26.7878 10.5015 25.7226 11.3407 24.4652 11.5178C22.5538 11.7868 20.7812 10.4687 20.4888 8.56062C20.1965 6.65258 21.493 4.86413 23.3973 4.54847Z" fill="white"/>
</svg>
