<svg preserveAspectRatio="none" width="100%" height="100%" overflow="visible" style="display: block;" viewBox="0 0 28.4961 9.23494" fill="none" xmlns="http://www.w3.org/2000/svg">
<g id="Frame 1000002792">
<path id="Vector" d="M26.8865 0.329957H1.61005C0.903223 0.329957 0.330228 0.902952 0.330228 1.60978V7.6251C0.330228 8.33193 0.903223 8.90492 1.61005 8.90492H26.8865C27.5934 8.90492 28.1663 8.33193 28.1663 7.6251V1.60978C28.1663 0.902952 27.5934 0.329957 26.8865 0.329957Z" fill="var(--fill-0, #181728)"/>
<path id="Vector_2" d="M26.8863 0.25H1.60981C0.858808 0.25 0.25 0.858808 0.25 1.60981V7.62513C0.25 8.37614 0.858808 8.98494 1.60981 8.98494H26.8863C27.6373 8.98494 28.2461 8.37614 28.2461 7.62513V1.60981C28.2461 0.858808 27.6373 0.25 26.8863 0.25Z" stroke="var(--stroke-0, white)" stroke-opacity="0.52" stroke-width="0.5"/>
<g id="Union">
<path d="M5.74601 6.72556C5.7591 6.73381 5.76994 6.74575 5.77629 6.75974C5.78262 6.77386 5.78478 6.79041 5.78214 6.80564C5.77947 6.82054 5.7721 6.8346 5.76164 6.84568L5.07218 7.57419C5.05738 7.58986 5.03933 7.6027 5.01945 7.6113C4.99953 7.61987 4.9777 7.62392 4.95597 7.624H1.69035C1.67483 7.62399 1.6594 7.61965 1.6464 7.6113C1.63348 7.60294 1.62333 7.59106 1.61711 7.57712C1.61089 7.56307 1.60866 7.54731 1.61125 7.5322C1.61386 7.51721 1.6213 7.50335 1.63175 7.49216L2.31925 6.76364C2.33412 6.74793 2.35299 6.73513 2.37296 6.72653C2.39289 6.71803 2.41472 6.71289 2.43644 6.71286H5.70207C5.71751 6.71267 5.73296 6.71741 5.74601 6.72556Z" fill="var(--fill-0, white)"/>
<path d="M10.2655 4.93454H8.06437V5.50193H9.81144C9.88667 5.50156 9.96151 5.5159 10.0312 5.54392C10.101 5.57204 10.1651 5.61367 10.2187 5.66599C10.2721 5.71821 10.3146 5.78024 10.3437 5.84861C10.3728 5.91717 10.3882 5.99106 10.3886 6.0654V6.6406C10.3882 6.71471 10.3728 6.78808 10.3437 6.85642C10.2997 6.95955 10.2254 7.04765 10.1308 7.10935C10.0361 7.171 9.92492 7.20367 9.81144 7.2031H7.52238V6.63571H9.80753V6.06931H8.05851C7.9831 6.06972 7.90763 6.05538 7.83781 6.02732C7.76812 5.99924 7.7048 5.95743 7.65129 5.90525C7.59766 5.85288 7.5545 5.79027 7.52531 5.72165C7.49618 5.65309 7.48166 5.57918 7.48136 5.50486V4.93064C7.48177 4.85634 7.49707 4.78234 7.52629 4.71384C7.55546 4.64554 7.59787 4.58338 7.65129 4.53122C7.70486 4.47904 7.76904 4.43719 7.83879 4.40915C7.90844 4.38124 7.98332 4.36675 8.05851 4.36716H10.2655V4.93454Z" fill="var(--fill-0, white)"/>
<path fill-rule="evenodd" clip-rule="evenodd" d="M13.1962 4.36716C13.2714 4.36678 13.3463 4.38119 13.4159 4.40915C13.4857 4.43724 13.5498 4.47897 13.6034 4.53122C13.6568 4.58339 13.6992 4.64549 13.7284 4.71384C13.7576 4.78233 13.7729 4.85634 13.7734 4.93064V6.6406C13.7729 6.71474 13.7575 6.78806 13.7284 6.85642C13.6992 6.92486 13.6569 6.98776 13.6034 7.04001C13.5499 7.0922 13.4856 7.13304 13.4159 7.16111C13.3462 7.18909 13.2715 7.20347 13.1962 7.2031H11.4423C11.3287 7.20398 11.2169 7.17188 11.122 7.11032C11.027 7.04868 10.9523 6.9607 10.9081 6.85739C10.8788 6.78881 10.8636 6.71499 10.8632 6.6406V4.93064C10.8636 4.85639 10.8789 4.78228 10.9081 4.71384C10.9524 4.61057 11.027 4.52155 11.122 4.45993C11.2169 4.39844 11.3287 4.3663 11.4423 4.36716H13.1962ZM11.4472 6.63571H13.1923L13.1913 4.93454H11.4472V6.63571Z" fill="var(--fill-0, white)"/>
<path d="M14.872 6.63571H16.6181V7.2031H14.8681C14.7926 7.20372 14.7174 7.18998 14.6474 7.16208C14.5774 7.13413 14.5136 7.09222 14.4599 7.04001C14.4062 6.98779 14.3632 6.92589 14.3339 6.85739C14.3046 6.78881 14.2894 6.71502 14.289 6.6406V4.36716H14.872V6.63571Z" fill="var(--fill-0, white)"/>
<path fill-rule="evenodd" clip-rule="evenodd" d="M19.3398 4.36716C19.4153 4.36631 19.4904 4.38041 19.5605 4.40818C19.6307 4.43601 19.6949 4.47701 19.7489 4.52927C19.8029 4.58159 19.8464 4.64411 19.8759 4.71286C19.9053 4.78157 19.9205 4.85607 19.9208 4.93064V7.2031H19.3378V6.27146H17.6347V7.2031H17.0517V4.93064C17.052 4.85634 17.0673 4.78234 17.0966 4.71384C17.1257 4.64552 17.1682 4.58339 17.2216 4.53122C17.2752 4.47904 17.3394 4.43719 17.4091 4.40915C17.4787 4.38124 17.5536 4.36675 17.6288 4.36716H19.3398ZM17.6318 5.70407H19.3349V4.93454H17.6318V5.70407Z" fill="var(--fill-0, white)"/>
<path d="M21.3378 4.36716C21.4142 4.36739 21.4893 4.39037 21.5527 4.43259C21.6157 4.47484 21.6648 4.5347 21.6933 4.60446L22.5273 6.63571H22.7607V4.36716H23.3456V6.82614C23.3451 6.92616 23.3034 7.02232 23.2314 7.09275C23.1958 7.12738 23.1536 7.1551 23.1073 7.1738C23.0609 7.19251 23.0101 7.20235 22.9599 7.20212H22.4433C22.3666 7.2023 22.2911 7.17965 22.2275 7.13767C22.1637 7.09561 22.1139 7.03576 22.0849 6.96579L21.2519 4.93454H21.0185V7.2031H20.4355V4.74314C20.4357 4.69368 20.4453 4.64422 20.4648 4.59861C20.494 4.52984 20.5442 4.4708 20.6073 4.42966C20.6704 4.38874 20.7447 4.36676 20.8202 4.36716H21.3378Z" fill="var(--fill-0, white)"/>
<path fill-rule="evenodd" clip-rule="evenodd" d="M26.1493 4.36716C26.3015 4.36647 26.4484 4.42572 26.5566 4.53122C26.61 4.58339 26.6524 4.64552 26.6816 4.71384C26.7108 4.78233 26.7261 4.85634 26.7265 4.93064V7.2031H26.1435V6.27146H24.4443V7.2031H23.8612V4.93064C23.8617 4.85634 23.877 4.78234 23.9062 4.71384C23.9354 4.64556 23.9778 4.58338 24.0312 4.53122C24.0848 4.47904 24.1489 4.43719 24.2187 4.40915C24.2884 4.38119 24.3632 4.36676 24.4384 4.36716H26.1493ZM24.4403 5.70407H26.1435V4.93454H24.4403V5.70407Z" fill="var(--fill-0, white)"/>
<path d="M5.01945 5.34275C5.03919 5.3513 5.05739 5.36341 5.07218 5.37888L5.75968 6.10739C5.77019 6.1186 5.77757 6.13337 5.78019 6.14841C5.78275 6.16339 5.78139 6.17938 5.77531 6.19333C5.76916 6.20722 5.75785 6.21911 5.74504 6.22751C5.7323 6.23569 5.71726 6.24002 5.70207 6.24021H2.43644C2.41474 6.2401 2.39288 6.236 2.37296 6.22751C2.35295 6.21889 2.3342 6.20611 2.31925 6.1904L1.63175 5.46189C1.62116 5.45063 1.61385 5.43601 1.61125 5.42087C1.60878 5.406 1.61105 5.39077 1.61711 5.37693C1.62334 5.36293 1.63344 5.35014 1.6464 5.34177C1.65936 5.3335 1.67491 5.32908 1.69035 5.32907H4.95597C4.97768 5.32925 4.99954 5.33417 5.01945 5.34275Z" fill="var(--fill-0, white)"/>
<path d="M5.74601 3.95798C5.75583 3.9642 5.7642 3.97266 5.77043 3.98239C5.7766 3.99211 5.78071 4.00324 5.78214 4.01462C5.78351 4.02594 5.78279 4.03796 5.77921 4.0488C5.77558 4.05956 5.76949 4.06982 5.76164 4.0781L5.07218 4.80564C5.0574 4.82133 5.03933 4.83411 5.01945 4.84275C4.99953 4.85132 4.9777 4.85633 4.95597 4.85642H1.69035C1.67489 4.85641 1.65937 4.85202 1.6464 4.84372C1.63337 4.83531 1.62334 4.82264 1.61711 4.80857C1.61094 4.79455 1.60865 4.77872 1.61125 4.76364C1.61393 4.74873 1.6213 4.73472 1.63175 4.72361L2.31925 3.99509C2.33412 3.97938 2.35299 3.96658 2.37296 3.95798C2.39284 3.94953 2.41479 3.94531 2.43644 3.94528H5.70207C5.71758 3.94508 5.73291 3.94976 5.74601 3.95798Z" fill="var(--fill-0, white)"/>
<path fill-rule="evenodd" clip-rule="evenodd" d="M3.50968 1.61032C3.84181 1.61065 4.08668 1.86897 4.08683 2.21872C4.08663 2.56843 3.84177 2.82582 3.50968 2.82614C3.17727 2.82614 2.93273 2.56865 2.93253 2.21872C2.93269 1.86874 3.17724 1.61032 3.50968 1.61032ZM3.50968 1.832C3.31095 1.832 3.16607 1.99543 3.16593 2.21872C3.16612 2.44021 3.31099 2.60446 3.50968 2.60446C3.70981 2.60412 3.85618 2.43997 3.85636 2.21872C3.85622 1.99567 3.70984 1.83235 3.50968 1.832Z" fill="var(--fill-0, white)"/>
<path d="M4.59562 2.41794L4.82804 1.86911H5.04972L5.29582 2.41599L5.37492 1.63474H5.59269L5.4589 2.80368H5.22843L4.93644 2.10251L4.65128 2.80368H4.41789L4.28214 1.63474H4.49992L4.59562 2.41794Z" fill="var(--fill-0, white)"/>
<path fill-rule="evenodd" clip-rule="evenodd" d="M2.41105 1.63474C2.60959 1.63498 2.74308 1.77436 2.74308 1.98532C2.7427 2.18527 2.60931 2.322 2.41105 2.32224H1.8339V2.80271H1.61027V1.63474H2.41105ZM1.8339 2.11325H2.41105C2.47748 2.11301 2.51928 2.06506 2.51945 1.99509V1.96189C2.5194 1.89176 2.47757 1.84397 2.41105 1.84372H1.8339V2.11325Z" fill="var(--fill-0, white)"/>
<path d="M6.93058 1.84372H6.06632V2.11325H6.70988V2.32321H6.06632V2.59177H6.93058V2.80271H5.84269V1.63474H6.93058V1.84372Z" fill="var(--fill-0, white)"/>
<path fill-rule="evenodd" clip-rule="evenodd" d="M8.02531 1.63474C8.22388 1.63492 8.35734 1.77432 8.35734 1.98532C8.357 2.17133 8.23912 2.30359 8.06535 2.32126L8.35734 2.80271H8.10636L7.82414 2.32321H7.44816V2.80271H7.22453V1.63474H8.02531ZM7.44816 2.11325H8.02531C8.09181 2.11306 8.13451 2.0651 8.13468 1.99509V1.96189C8.13461 1.89175 8.09188 1.84391 8.02531 1.84372H7.44816V2.11325Z" fill="var(--fill-0, white)"/>
<path d="M9.72648 1.84372H8.86222V2.11325H9.50675V2.32321H8.86222V2.59177H9.72648V2.80271H8.63859V1.63474H9.72648V1.84372Z" fill="var(--fill-0, white)"/>
<path fill-rule="evenodd" clip-rule="evenodd" d="M10.5771 1.63474C10.9092 1.63507 11.1541 1.87949 11.1542 2.21872C11.154 2.55435 10.9091 2.80237 10.5771 2.80271H10.0204V1.63474H10.5771ZM10.2441 2.59177H10.5771C10.7754 2.59141 10.9197 2.43643 10.9198 2.21872C10.9197 2.00267 10.7755 1.84409 10.5771 1.84372H10.2441V2.59177Z" fill="var(--fill-0, white)"/>
<path fill-rule="evenodd" clip-rule="evenodd" d="M12.7167 1.63474C12.9154 1.63487 13.0497 1.77428 13.0497 1.98532C13.0495 2.07647 13.0105 2.15417 12.9491 2.20505C13.0386 2.25263 13.0946 2.34071 13.0946 2.4531C13.0944 2.66209 12.9609 2.80257 12.7607 2.80271H11.9833V1.63474H12.7167ZM12.2069 2.59177H12.7607C12.8255 2.59164 12.8718 2.5456 12.872 2.47556V2.4404C12.8719 2.37027 12.8255 2.32335 12.7607 2.32321H12.2069V2.59177ZM12.2069 2.11325H12.7167C12.7833 2.11312 12.8259 2.06514 12.8261 1.99509V1.96189C12.826 1.89171 12.7834 1.84386 12.7167 1.84372H12.2069V2.11325Z" fill="var(--fill-0, white)"/>
<path d="M13.788 2.15915H13.7919L14.1083 1.63474H14.3671L13.9003 2.39353V2.80271H13.6767V2.39353L13.2128 1.63474H13.4677L13.788 2.15915Z" fill="var(--fill-0, white)"/>
</g>
</g>
</svg>
