<svg preserveAspectRatio="none" width="100%" height="100%" overflow="visible" style="display: block;" viewBox="0 0 18.4538 19.9916" fill="none" xmlns="http://www.w3.org/2000/svg">
<g id="Meteora Logo 1" clip-path="url(#clip0_0_4)">
<path id="Vector" d="M15.7747 4.63779C16.109 4.3036 16.6269 4.32371 16.841 4.67759C17.0724 5.05762 17.2473 5.46829 17.3718 5.89853C17.4416 6.14307 17.3607 6.42904 17.1578 6.63215L10.6109 13.1792C10.2154 13.5746 9.72356 13.8479 9.20147 13.9593L8.65777 14.075C8.13784 14.1885 7.64159 14.4619 7.24838 14.8551L2.22194 19.8815C2.00786 19.0558 1.91397 18.4985 2.58461 17.8279L15.7747 4.63779ZM17.1931 7.45888C17.4115 7.24053 17.7471 7.36673 17.7255 7.65486C17.59 9.41998 16.7492 11.2796 15.2506 12.7782C14.1079 14.0299 10.8835 15.9434 8.57896 17.2256C8.10716 17.4875 7.72301 16.9282 8.10962 16.5416L17.1909 7.46113L17.1931 7.45888ZM14.1799 1.99091C14.3873 1.78344 14.6933 1.7395 14.9029 1.88354C15.3397 2.18059 15.7482 2.61095 15.958 3.13076C16.0365 3.33171 15.969 3.57842 15.7965 3.75099L8.74489 10.8033C8.3496 11.1985 7.85811 11.4714 7.33623 11.5828L6.79184 11.6984C6.27199 11.812 5.77634 12.0854 5.38317 12.4786L1.03328 16.8277C0.819299 16.0022 0.922279 15.2485 1.59269 14.5781L14.1799 1.99091ZM11.1913 0.736931C11.5844 0.343823 12.1482 0.190706 12.6112 0.365241C12.9018 0.476652 13.1819 0.612752 13.4462 0.772223C13.7955 0.982043 13.8128 1.49288 13.4852 1.82046L7.03662 8.26908C6.66744 8.63831 6.16487 8.83492 5.68428 8.79994C5.17968 8.76287 4.64859 8.97063 4.25759 9.36162L0.725413 12.8938C0.511353 12.068 0.789142 11.1398 1.45978 10.4692L2.60414 9.3241L11.1913 0.736931ZM10.1588 0.10994C10.4688 0.105783 10.589 0.474782 10.3533 0.71065L4.20803 6.85592L3.49769 7.56551L2.41642 8.64677L2.4104 8.65354C2.18321 8.88075 1.84668 8.67537 1.97339 8.38695L3.03064 5.98414C3.08962 5.83777 3.15528 5.68884 3.22737 5.53811L3.23338 5.52309C3.84286 4.23205 4.82399 2.86247 5.74585 1.9406C7.22477 0.46168 8.5532 0.125231 10.1588 0.10994Z" fill="url(#paint0_linear_0_4)"/>
</g>
<defs>
<linearGradient id="paint0_linear_0_4" x1="20.9098" y1="0.133473" x2="3.87313" y2="19.8322" gradientUnits="userSpaceOnUse">
<stop stop-color="#F5BD00"/>
<stop offset="0.364891" stop-color="#F54B00"/>
<stop offset="1" stop-color="#6E45FF"/>
</linearGradient>
<clipPath id="clip0_0_4">
<rect width="18.4538" height="19.9916" fill="white"/>
</clipPath>
</defs>
</svg>
