<svg width="32" height="32" viewBox="0 0 32 32" fill="none" xmlns="http://www.w3.org/2000/svg">
<path d="M29.2943 9.49832L25.5015 5.70527L22.5085 2.7076C22.4519 2.65089 22.3921 2.59729 22.3308 2.54671C21.8983 2.19301 21.3571 1.99923 20.7983 1.99805H11.2036C10.6448 1.99898 10.1035 2.19279 9.67111 2.54671C9.60978 2.59729 9.55001 2.65089 9.49333 2.7076L6.50196 5.69914L2.70911 9.49221C2.48386 9.71709 2.30512 9.98414 2.18311 10.2781C2.06111 10.5722 1.99822 10.8873 1.99805 11.2056V20.8009C1.99797 21.1193 2.06074 21.4345 2.18276 21.7285C2.30478 22.0225 2.48366 22.2896 2.70911 22.5143L9.49333 29.3004C9.55001 29.3571 9.60978 29.4108 9.67111 29.4537C10.1035 29.8076 10.6448 30.0014 11.2036 30.0023H20.7983C21.3571 30.0011 21.8983 29.8074 22.3308 29.4537C22.3921 29.4031 22.4519 29.3494 22.5085 29.3004L29.2928 22.5143C29.5178 22.2893 29.6962 22.0221 29.8179 21.7281C29.9397 21.4341 30.0023 21.1191 30.0023 20.8009V11.2056C30.0005 10.5654 29.746 9.95188 29.2943 9.49832ZM26.303 16.0147V24.059C26.3023 24.3554 26.2433 24.6487 26.1293 24.9222C26.0152 25.1957 25.8484 25.444 25.6384 25.6529C25.4283 25.8618 25.1791 26.0273 24.905 26.1399C24.6309 26.2524 24.3373 26.3098 24.041 26.3088H7.95013C7.65407 26.3091 7.36082 26.2509 7.08723 26.1377C6.81364 26.0244 6.56506 25.8584 6.3557 25.649C6.14633 25.4396 5.98029 25.1911 5.86707 24.9174C5.75386 24.6438 5.69569 24.3506 5.69589 24.0545V7.96273C5.69569 7.66656 5.75384 7.37323 5.86703 7.09953C5.98023 6.82584 6.14626 6.57711 6.3556 6.36761C6.56495 6.15811 6.81352 5.99197 7.08712 5.87858C7.36071 5.7652 7.65396 5.70677 7.95013 5.70677H24.041C24.6393 5.70677 25.2131 5.94447 25.6361 6.36753C26.0591 6.7906 26.2968 7.36441 26.2968 7.96273V16.0163L26.303 16.0147Z" fill="white"/>
</svg>
