<svg preserveAspectRatio="none" width="100%" height="100%" overflow="visible" style="display: block;" viewBox="0 0 32 32" fill="none" xmlns="http://www.w3.org/2000/svg">
<g id="Squads white">
<path id="Vector" d="M29.2941 9.49814L25.5013 5.70509L22.5084 2.70741C22.4517 2.65071 22.3919 2.5971 22.3306 2.54653C21.8981 2.19283 21.3569 1.99904 20.7981 1.99786H11.2034C10.6446 1.99879 10.1033 2.1926 9.67092 2.54653C9.60959 2.5971 9.54983 2.65071 9.49315 2.70741L6.50178 5.69895L2.70893 9.49203C2.48368 9.71691 2.30494 9.98395 2.18293 10.2779C2.06092 10.572 1.99804 10.8871 1.99786 11.2054V20.8007C1.99779 21.1191 2.06055 21.4343 2.18258 21.7283C2.3046 22.0223 2.48348 22.2894 2.70893 22.5141L9.49315 29.3002C9.54983 29.3569 9.60959 29.4106 9.67092 29.4535C10.1033 29.8074 10.6446 30.0012 11.2034 30.0021H20.7981C21.3569 30.001 21.8981 29.8072 22.3306 29.4535C22.3919 29.4029 22.4517 29.3492 22.5084 29.3002L29.2926 22.5141C29.5176 22.2891 29.696 22.0219 29.8178 21.7279C29.9395 21.4339 30.0021 21.1189 30.0021 20.8007V11.2054C30.0003 10.5653 29.7458 9.95169 29.2941 9.49814ZM26.3028 16.0146V24.0588C26.3022 24.3552 26.2431 24.6485 26.1291 24.922C26.0151 25.1955 25.8483 25.4438 25.6382 25.6527C25.4281 25.8616 25.1789 26.0272 24.9048 26.1397C24.6307 26.2523 24.3372 26.3097 24.0409 26.3087H7.94995C7.65389 26.3089 7.36064 26.2507 7.08705 26.1375C6.81346 26.0242 6.56488 25.8582 6.35551 25.6488C6.14615 25.4395 5.9801 25.1909 5.86689 24.9172C5.75367 24.6436 5.6955 24.3504 5.6957 24.0543V7.96255C5.6955 7.66638 5.75366 7.37304 5.86685 7.09935C5.98005 6.82566 6.14607 6.57693 6.35542 6.36743C6.56477 6.15793 6.81333 5.99179 7.08693 5.8784C7.36053 5.76502 7.65377 5.70659 7.94995 5.70659H24.0409C24.6391 5.70659 25.2129 5.94429 25.6359 6.36735C26.059 6.79041 26.2966 7.36423 26.2966 7.96255V16.0161L26.3028 16.0146Z" fill="var(--fill-0, white)"/>
</g>
</svg>
