<svg width="33" height="33" viewBox="0 0 33 33" fill="none" xmlns="http://www.w3.org/2000/svg">
<path d="M8.26587 24.0532C9.69189 23.8502 11.2311 24.1014 12.5823 24.5366C14.2933 25.0898 15.8827 25.9614 17.2668 27.103C16.8517 27.1499 16.4299 27.1772 16.0022 27.1772C14.9085 27.1772 13.8525 27.0166 12.8538 26.7231C12.4519 26.5555 12.0421 26.4082 11.6272 26.2847C10.3711 25.7484 9.23495 24.9871 8.26587 24.0532Z" fill="white"/>
<path d="M6.62231 22.0552C7.58309 20.4965 10.3964 20.5765 11.802 20.8257C14.9913 21.3915 18.2276 23.134 20.4944 25.3901C20.6818 25.5787 20.8614 25.7749 21.0374 25.9741C20.5182 26.2373 19.9763 26.4617 19.4143 26.6421C18.1201 25.3684 16.5299 24.2873 14.8967 23.5347C12.4608 22.4121 9.57177 21.7766 6.94556 22.5288C6.83403 22.3738 6.72594 22.216 6.62231 22.0552Z" fill="white"/>
<path d="M9.03247 18.3208C10.3048 17.4796 12.3011 17.5705 13.7336 17.8442C17.1608 18.4993 20.8932 20.6718 23.1282 23.3491C23.3291 23.5881 23.5179 23.8373 23.6965 24.0933C23.4177 24.3591 23.1257 24.6111 22.8206 24.8472C21.8912 23.7536 20.8212 22.7847 19.637 21.9673C16.6519 19.8666 12.2693 18.0797 8.56372 18.7241C8.71082 18.5758 8.85746 18.4366 9.03247 18.3208Z" fill="white"/>
<path d="M15.6897 15.562C17.4557 15.53 19.1978 15.9788 20.7288 16.8599C22.9226 18.1241 24.389 20.0385 25.1536 22.395C25.1096 22.458 25.066 22.5215 25.0208 22.5835C24.9717 22.5208 24.9234 22.4577 24.8743 22.3979C24.6543 22.1315 24.424 21.8728 24.1848 21.6235C23.8153 21.2106 23.2208 20.6712 22.7942 20.313C20.7252 18.5752 18.3282 17.2698 15.7463 16.4731C15.2298 16.318 14.7053 16.1873 14.176 16.0835C13.9659 16.0439 13.3986 15.9683 13.2297 15.9175L13.2141 15.9126C14.168 15.7007 14.706 15.5898 15.6897 15.562Z" fill="white"/>
<path d="M11.1897 8.38818C11.9627 8.36836 12.7513 8.59795 13.094 9.36279C13.1774 9.54933 13.1957 9.72716 13.22 9.92627C12.895 9.94075 12.5041 9.93184 12.1741 9.93311C12.1069 9.21933 11.0888 9.1217 10.6292 9.50537C10.542 9.57838 10.4683 9.7285 10.4709 9.84229C10.4887 10.5288 11.602 10.4993 12.0784 10.7007C12.3976 10.8043 12.7074 10.9592 12.9407 11.2065C13.4349 11.731 13.3743 12.6884 12.8372 13.1616C12.3516 13.5887 11.6969 13.6673 11.0784 13.6401C10.3399 13.6091 9.55694 13.287 9.32251 12.5239C9.26254 12.3284 9.24291 12.17 9.22095 11.9683L10.2708 11.9653C10.3799 12.5959 10.7882 12.7507 11.4016 12.7378C11.748 12.7304 12.2495 12.4717 12.1858 12.062C12.0922 11.4686 10.9864 11.4528 10.5344 11.2642C10.2398 11.1441 10.0158 11.0834 9.76978 10.8647C9.22613 10.4223 9.24886 9.50474 9.70728 9.00537C10.0981 8.58007 10.6276 8.41839 11.1897 8.38818Z" fill="white"/>
<path fill-rule="evenodd" clip-rule="evenodd" d="M16.177 8.38818C17.6191 8.32962 18.6053 9.29951 18.7014 10.7095C18.7542 11.4854 18.6223 12.2699 18.0979 12.8774C17.653 13.3922 17.1052 13.5827 16.4504 13.6392C14.9782 13.6886 14.0384 12.739 13.928 11.311C13.8109 9.79353 14.5498 8.4985 16.177 8.38818ZM16.1643 9.34912C15.1268 9.48785 14.9289 10.5605 15.0413 11.4263C15.148 12.2461 15.6447 12.7435 16.4846 12.6753C17.5309 12.5225 17.7059 11.4169 17.5784 10.5474C17.4645 9.7736 16.9556 9.28879 16.1643 9.34912Z" fill="white"/>
<path d="M20.6018 8.46143L20.6038 12.6831H22.7922L22.7913 13.5747H19.5159L19.5178 10.0308L19.5139 9.04443C19.513 8.88187 19.5056 8.60954 19.5208 8.45654C19.8601 8.45093 20.267 8.44675 20.6018 8.46143Z" fill="white"/>
<path fill-rule="evenodd" clip-rule="evenodd" d="M16.0012 2.02588C23.7308 2.026 29.9973 8.29241 29.9973 16.022C29.9972 23.7515 23.7307 30.0179 16.0012 30.0181C8.27159 30.0181 2.00523 23.7516 2.00513 16.022C2.00518 8.29233 8.27157 2.02588 16.0012 2.02588ZM16.0012 3.44971C9.05785 3.44971 3.42901 9.07862 3.42896 16.022C3.42905 22.9653 9.05788 28.5942 16.0012 28.5942C22.9445 28.5941 28.5734 22.9652 28.5735 16.022C28.5734 9.07869 22.9445 3.44983 16.0012 3.44971Z" fill="white"/>
</svg>
