<svg preserveAspectRatio="none" width="100%" height="100%" overflow="visible" style="display: block;" viewBox="0 0 32 32" fill="none" xmlns="http://www.w3.org/2000/svg">
<g id="Raydium white">
<path id="Union" d="M25.4402 7.44971L24.1716 8.19678L15.9626 3.42041L5.29075 9.61475V21.9282L15.9626 28.1216L26.6345 22.0024V12.3755L27.9031 11.6294V22.6743L15.9626 29.5396L4.0222 22.6743V8.86768L15.9626 2.00244L25.4402 7.44971ZM17.156 9.9126C18.2008 9.9126 19.1714 10.3607 19.9177 11.1069C20.6638 11.8531 21.1119 12.8231 21.112 13.8677C21.112 14.6885 20.8879 15.4353 20.4402 16.1069C19.9924 16.7039 19.395 17.2264 18.7234 17.5249C18.0518 17.7487 17.3055 17.8237 16.5593 17.8237H12.9773V22.0024H11.1863V16.0327H17.156C17.753 16.0327 18.276 15.8086 18.6491 15.3608C19.0223 14.9877 19.2458 14.3901 19.2458 13.8677C19.2457 13.5694 19.171 13.3457 19.0964 13.0474C19.0218 12.8235 18.7984 12.5248 18.6491 12.3755C18.4253 12.1516 18.2011 12.0029 17.9773 11.9282C17.7534 11.8536 17.4545 11.7036 17.156 11.7036H11.1863V9.9126H17.156ZM21.0368 21.853H18.948L17.3064 19.0171C17.9778 18.9425 18.5747 18.8679 19.1716 18.644L21.0368 21.853ZM27.9773 8.86768V10.3608L26.7087 11.0327L25.4402 10.3608V8.86768L26.7087 8.12158L27.9773 8.86768Z" fill="var(--fill-0, white)"/>
</g>
</svg>
