<svg preserveAspectRatio="none" width="100%" height="100%" overflow="visible" style="display: block;" viewBox="0 0 27.9912 27.9912" fill="none" xmlns="http://www.w3.org/2000/svg">
<g id="Group">
<path id="Subtract" d="M27.9912 0V27.9912H0V0H27.9912ZM4.24414 2.55957L3.30859 17.1523L6.16113 16.7871L5.54004 26.5576L6.31348 26.46L7.60742 15.3262L4.76074 15.6895L6.3623 2.22656L4.24414 2.55957ZM8.78027 15.1484L7.80176 23.4131L10.7207 23.0439L10.8877 21.6035L9.57129 21.7705L10.3828 14.9463L8.78027 15.1484ZM12.7217 14.6504L10.8506 23.0273L12.4531 22.8252L12.873 20.748L13.5732 20.6602L13.5059 22.6914L15.1084 22.4893L15.2285 14.334L12.7217 14.6504ZM19.2246 13.9561C18.9776 13.9021 18.69 13.8961 18.3623 13.9375L16.3477 14.1924L15.3691 22.4561L17.3838 22.2012C17.7039 22.1606 18 22.0805 18.2715 21.9609C18.543 21.8414 18.7796 21.683 18.9795 21.4873C19.1793 21.2915 19.3403 21.0619 19.4619 20.7988C19.5902 20.5268 19.6723 20.2214 19.707 19.8838L20.2051 15.7275C20.2474 15.3892 20.2381 15.0994 20.1768 14.8594C20.1144 14.6116 20.0001 14.4123 19.834 14.2627C19.6755 14.1124 19.4716 14.0102 19.2246 13.9561ZM24.3535 13.6221C24.0326 13.2906 23.5434 13.1663 22.8877 13.249C22.2317 13.3319 21.7037 13.5768 21.3057 13.9834C20.9141 14.3818 20.6788 14.9122 20.5996 15.5732L20.5703 15.7979C20.5337 16.1202 20.5184 16.4013 20.5254 16.6406C20.539 16.8714 20.5805 17.0756 20.6494 17.2529C20.7173 17.4225 20.8126 17.5655 20.9355 17.6816C21.0654 17.7892 21.2324 17.881 21.4355 17.9561L21.8506 18.1133C22.0461 18.1892 22.203 18.2585 22.3193 18.3213C22.4355 18.3839 22.5217 18.4502 22.5771 18.5205C22.6315 18.5833 22.6652 18.6616 22.6768 18.7529C22.6873 18.8368 22.6882 18.9377 22.6797 19.0547L22.6045 19.6572C22.5819 19.8459 22.5197 19.9976 22.418 20.1113C22.3239 20.2238 22.2 20.2901 22.0479 20.3096C21.9028 20.3279 21.7964 20.2907 21.7305 20.1982C21.6646 20.1059 21.6425 19.9611 21.6641 19.7646L21.793 18.7598L20.1914 18.9619L20.082 19.8486C20.0002 20.5487 20.1112 21.0619 20.416 21.3877C20.7209 21.7134 21.2053 21.834 21.8691 21.75C22.5326 21.666 23.0711 21.4161 23.4834 21C23.8947 20.5759 24.1427 20.0168 24.2256 19.3242L24.248 19.1357C24.2838 18.8057 24.2949 18.5248 24.2812 18.2939C24.2751 18.0623 24.2388 17.8651 24.1719 17.7031C24.104 17.5337 24.0047 17.3947 23.875 17.2871C23.7529 17.1786 23.5897 17.0867 23.3867 17.0117L23.0215 16.8828C22.8098 16.8012 22.6417 16.7297 22.5176 16.668C22.4002 16.5975 22.3092 16.5274 22.2461 16.458C22.1831 16.3885 22.1463 16.3114 22.1357 16.2275C22.1242 16.136 22.1265 16.027 22.1416 15.9014L22.2109 15.3457C22.2337 15.1571 22.2915 15.002 22.3848 14.8818C22.4779 14.7621 22.6009 14.6921 22.7529 14.6729C22.89 14.6556 22.9927 14.6969 23.0596 14.7969C23.1255 14.8891 23.1443 15.0344 23.1152 15.2314L22.9961 16.2236L24.5986 16.0215L24.707 15.1348C24.7907 14.4502 24.6731 13.9458 24.3535 13.6221ZM18.4043 15.374C18.4679 15.3892 18.5143 15.4181 18.543 15.4609C18.5792 15.5028 18.6026 15.5626 18.6123 15.6387C18.6218 15.7148 18.6206 15.8003 18.6094 15.8945L18.1074 20.1094C18.0961 20.2037 18.0721 20.2921 18.0361 20.374C18.0077 20.4549 17.9694 20.5227 17.9219 20.5752C17.8821 20.6264 17.829 20.6678 17.7637 20.6992C17.698 20.7307 17.6228 20.7521 17.5391 20.7627L17.1387 20.8135L17.793 15.416L18.1934 15.3652C18.2771 15.3546 18.348 15.3579 18.4043 15.374ZM13.6201 19.2471L13.166 19.3037L13.5693 17.3105L13.6846 17.2969L13.6201 19.2471ZM10.1641 5.68066L9.05566 11.1699L8.94043 11.1846L9.13379 5.81055L7.03906 6.0752L6.06055 14.3398L7.53711 14.1523L7.98535 8.78125L8.10059 8.76758L8.13184 14.0771L9.18555 13.9443L10.4922 8.46484L10.6064 8.4502L9.79199 13.8682L11.2568 13.6826L12.2354 5.41895L10.1641 5.68066ZM13.3945 5.27148L11.5234 13.6484L13.125 13.4463L13.5459 11.3691L14.2461 11.2812L14.1787 13.3125L15.7812 13.1104L15.9014 4.95508L13.3945 5.27148ZM19.8975 4.57715C19.6506 4.52325 19.3628 4.51722 19.0352 4.55859L17.0205 4.81348L16.042 13.0771L18.0566 12.8223C18.3768 12.7818 18.6729 12.7015 18.9443 12.582C19.2158 12.4625 19.4524 12.305 19.6523 12.1094C19.8522 11.9136 20.0132 11.6832 20.1348 11.4199C20.2632 11.1479 20.345 10.8425 20.3799 10.5049L20.8779 6.34863C20.9203 6.01024 20.9109 5.72061 20.8496 5.48047C20.7871 5.23264 20.6729 5.0333 20.5068 4.88379C20.3483 4.73338 20.1445 4.63119 19.8975 4.57715ZM19.0771 5.99512C19.1408 6.01028 19.1872 6.0394 19.2158 6.08203C19.252 6.12391 19.2755 6.1836 19.2852 6.25977C19.2948 6.33591 19.2935 6.4214 19.2822 6.51562L18.7803 10.7305C18.769 10.8248 18.745 10.9141 18.709 10.9961C18.6806 11.0768 18.6421 11.1439 18.5947 11.1963C18.5549 11.2476 18.502 11.2898 18.4365 11.3213C18.3709 11.3528 18.2955 11.3732 18.2119 11.3838L17.8115 11.4346L18.4658 6.03809L18.8672 5.9873C18.9506 5.97681 19.0211 5.97903 19.0771 5.99512ZM14.292 9.86816L13.8389 9.92578L14.2422 7.93262L14.3564 7.91797L14.292 9.86816Z" fill="var(--fill-0, white)"/>
</g>
</svg>
