<svg width="32" height="32" viewBox="0 0 32 32" fill="none" xmlns="http://www.w3.org/2000/svg">
<path fill-rule="evenodd" clip-rule="evenodd" d="M23.0992 17.4039C21.2055 16.4348 18.6789 16.1091 17.195 15.9988C19.2147 15.8491 23.1675 15.3002 24.8221 13.2726C27.4118 11.3343 27.2883 4.77609 27.2883 4.77609C27.2883 4.77609 21.0742 4.09059 18.3611 7.18451C16.6749 8.8628 16.1523 11.7781 16 13.8083C15.8476 11.7807 15.325 8.8628 13.6388 7.18451C10.9257 4.08796 4.7116 4.77609 4.7116 4.77609C4.7116 4.77609 4.63544 8.86542 5.87773 11.5417C6.48969 12.8602 7.60854 13.9344 8.90074 14.5963C10.7944 15.5654 13.321 15.8911 14.8049 16.0014C13.321 16.1117 10.7944 16.4374 8.90074 17.4065C7.60854 18.0684 6.48969 19.1426 5.87773 20.4611C4.63544 23.1348 4.7116 27.2241 4.7116 27.2241C4.7116 27.2241 10.9257 27.9096 13.6388 24.8157C15.325 23.1374 15.8476 20.2194 16 18.1918C16.1523 20.2194 16.6749 23.1374 18.3611 24.8157C21.0742 27.9096 27.2883 27.2241 27.2883 27.2241C27.2883 27.2241 27.3671 23.1348 26.1222 20.4584C25.5102 19.14 24.3914 18.0658 23.0992 17.4039ZM23.3067 23.14C23.2751 23.1321 20.0315 22.2076 15.8686 16.6475C14.6474 17.6009 11.5797 20.1223 8.65911 23.5655L8.52779 23.7205L8.58032 23.5235C8.5882 23.4893 9.53896 20.1485 15.3302 15.8937C14.7708 15.0638 13.455 13.1544 8.37546 8.65531L8.26252 8.5555L8.41223 8.57652C8.51991 8.59227 11.1306 9.002 15.9002 15.1478C15.9002 15.1478 15.9606 15.2319 16.0709 15.3789C16.7432 14.9141 18.6894 13.5326 23.065 8.58965L23.1648 8.47671L23.1438 8.62642C23.1281 8.7341 22.7183 11.3316 16.6119 16.0828C17.7649 17.5379 20.1497 20.3481 23.3487 23.0586L23.5063 23.1925L23.3093 23.14H23.3067Z" fill="white"/>
</svg>
