<svg preserveAspectRatio="none" width="100%" height="100%" overflow="visible" style="display: block;" viewBox="0 0 24.4507 25.9675" fill="none" xmlns="http://www.w3.org/2000/svg">
<g id="Group">
<path id="Vector" d="M12.3164 14.0152L14.1062 12.2861L17.4431 13.3781C19.6272 14.1063 20.7194 15.441 20.7194 17.3218C20.7194 18.7476 20.1733 19.6881 19.0813 20.9015L18.7476 21.2655L18.8689 20.4161C19.3542 17.3218 18.4442 15.9871 15.441 15.0162L12.3164 14.0152ZM7.82662 3.42799L16.9274 6.46157L14.9555 8.34241L10.2232 6.76494C8.58508 6.21889 8.03901 5.33914 7.82662 3.48866V3.42799ZM7.28054 18.8386L9.34342 16.8667L13.2265 18.1409C15.2589 18.8083 15.9566 19.6881 15.7443 21.9025L7.28054 18.8386ZM4.67172 10.0412C4.67172 9.46488 4.97507 8.91881 5.49078 8.46371C6.03683 9.25249 6.97723 9.95019 8.46366 10.4356L11.6793 11.4973L9.8895 13.2265L6.73454 12.195C5.27843 11.7097 4.67172 10.9816 4.67172 10.0412ZM14.1972 25.9675C20.871 21.5385 24.4507 18.5353 24.4507 14.8343C24.4507 12.3771 22.9945 11.0119 19.779 9.95019L17.3521 9.13107L23.9957 2.7606L22.6608 1.33482L20.6891 3.06395L11.376 2.90419e-05C8.49399 0.940447 4.85373 3.701 4.85373 6.46156C4.85373 6.76492 4.88407 7.06828 4.97508 7.40201C2.57854 8.76707 1.6078 10.0412 1.6078 11.6186C1.6078 13.1051 2.39652 14.5916 4.91441 15.4107L6.91656 16.078L0 22.7215L1.33477 24.1474L3.48862 22.1756L14.1972 25.9675Z" fill="var(--fill-0, white)"/>
</g>
</svg>
