<svg width="32" height="32" viewBox="0 0 32 32" fill="none" xmlns="http://www.w3.org/2000/svg">
<path d="M4.20003 19.5436C9.31205 17.5319 17.9596 22.3001 19.0076 28.112C18.3038 28.18 17.6039 28.2876 16.908 28.2917C16.728 28.2917 16.5079 27.9879 16.3719 27.7838C14.052 24.308 10.8041 22.3158 6.68831 21.7038C6.61631 21.6958 6.54351 21.6844 6.47151 21.6764C6.00753 21.6125 5.3399 21.7159 5.11995 21.4479C4.68396 20.9239 4.49203 20.1916 4.20003 19.5436Z" fill="white"/>
<path d="M6.21566 23.3561C8.58366 22.9801 13.3762 25.7282 14.7362 28.2682C11.1762 27.7442 8.39966 26.1281 6.21566 23.3561Z" fill="white"/>
<path d="M4.68831 15.2399C6.37621 14.576 8.12421 14.5723 9.86409 14.9323C14.7839 15.9563 18.7683 18.4157 21.4403 22.7555C21.8963 23.4955 22.1724 24.3764 22.3924 25.2204C22.7642 26.6559 22.5639 26.9164 21.0203 27.3883C19.9203 23.6763 17.4997 21.0641 14.2557 19.1881C11.0358 17.3282 7.59612 16.5124 3.90023 17.3883C3.35623 16.1763 3.53231 15.6959 4.68831 15.2399Z" fill="white"/>
<path d="M5.48421 11.0641C6.95607 10.3122 8.55982 10.2439 10.1317 10.4919C16.0717 11.4279 20.9321 14.2243 24.3641 19.2243C25.0199 20.1802 25.3562 21.3918 25.6522 22.5436C25.8682 23.3836 25.7195 24.2881 24.8875 25.0241C23.6916 20.3202 20.6202 17.2601 16.6883 14.9801C12.7763 12.7122 8.62007 11.5841 3.98812 12.86C4.15612 11.884 4.78021 11.4241 5.48421 11.0641Z" fill="white"/>
<path d="M9.60433 6.5319C12.3082 6.20801 14.8564 6.8356 17.3162 7.87955C20.868 9.38348 23.9956 11.4959 26.2635 14.6676C26.9875 15.6796 27.4437 16.9 27.9237 18.0719C28.1157 18.5439 28.0362 19.128 28.0282 19.652C23.2522 11.7521 16.3041 7.75225 7.06819 7.52018C7.79218 6.91222 8.66835 6.64389 9.60433 6.5319Z" fill="white"/>
<path d="M13.2235 4.15592C18.8715 2.41192 26.5124 5.85637 28.3924 13.0124C24.3004 8.25636 19.3075 5.35592 13.2235 4.15592Z" fill="white"/>
</svg>
