<svg preserveAspectRatio="none" width="100%" height="100%" overflow="visible" style="display: block;" viewBox="0 0 32 32" fill="none" xmlns="http://www.w3.org/2000/svg">
<g id="Jupiter white">
<path id="Union" d="M4.20011 19.5442C9.312 17.5323 17.9594 22.2998 19.0077 28.1116C18.3038 28.1796 17.604 28.2883 16.9081 28.2923C16.7282 28.2923 16.508 27.9885 16.372 27.7845C14.0521 24.3086 10.8042 22.3165 6.68839 21.7044C6.61639 21.6964 6.5436 21.6841 6.4716 21.6761C6.00761 21.6122 5.33998 21.7155 5.12003 21.4476C4.68422 20.9236 4.49201 20.1921 4.20011 19.5442ZM6.21574 23.3558C8.58374 22.9798 13.3762 25.7279 14.7362 28.2679C11.1762 27.7439 8.39974 26.1278 6.21574 23.3558ZM4.68839 15.2396C6.37624 14.5757 8.12434 14.572 9.86417 14.9319C14.7841 15.956 18.7684 18.4162 21.4403 22.7562C21.8962 23.4961 22.1715 24.3762 22.3915 25.22C22.7635 26.6559 22.5641 26.9161 21.0204 27.388C19.9204 23.676 17.4998 21.0638 14.2558 19.1878C11.0359 17.3279 7.5961 16.5121 3.90031 17.388C3.35631 16.176 3.53239 15.6956 4.68839 15.2396ZM5.48429 11.0638C6.95614 10.312 8.55993 10.2445 10.1318 10.4925C16.0718 11.4285 20.9322 14.2239 24.3642 19.2239C25.0202 20.1799 25.3563 21.3922 25.6523 22.5442C25.8682 23.3842 25.7195 24.2878 24.8876 25.0237C23.6916 20.32 20.6202 17.2597 16.6884 14.9798C12.7765 12.7118 8.6201 11.5838 3.9882 12.8597C4.15629 11.8839 4.78038 11.4237 5.48429 11.0638ZM9.60441 6.53155C12.3082 6.20768 14.8565 6.83624 17.3163 7.88018C20.8682 9.38417 23.9957 11.4964 26.2636 14.6683C26.9875 15.6801 27.4438 16.8997 27.9237 18.0716C28.1157 18.5435 28.0363 19.1278 28.0282 19.6517C23.2523 11.7518 16.3041 7.7519 7.06828 7.51983C7.79223 6.91198 8.66852 6.64353 9.60441 6.53155ZM13.2235 4.15557C18.8715 2.41158 26.5115 5.8561 28.3915 13.012C24.2996 8.25616 19.3074 5.35555 13.2235 4.15557Z" fill="var(--fill-0, white)"/>
</g>
</svg>
