<svg width="32" height="32" viewBox="0 0 32 32" fill="none" xmlns="http://www.w3.org/2000/svg">
<rect width="32" height="32" rx="8" fill="#0A6BF6"/>
<path d="M18.7945 17.5181C19.7673 17.5181 20.6018 17.6877 21.1936 17.9679C21.5437 18.1339 21.4827 18.6371 21.0739 18.9314C20.1551 19.593 19.0549 20.0017 17.9871 20.0017C16.9193 20.0017 16.0843 19.593 15.5952 18.9314C15.3779 18.6372 15.6444 18.1338 16.1024 17.9679C16.8764 17.6876 17.8214 17.5181 18.7945 17.5181Z" fill="white"/>
<path fill-rule="evenodd" clip-rule="evenodd" d="M15.9985 5.72607C17.9556 5.72611 19.7168 7.0135 20.9414 9.06574C20.9331 9.0649 20.9246 9.06438 20.9163 9.06359C24.1099 9.37415 25.9245 11.8578 25.251 14.9864C25.9675 15.7486 26.2088 16.8981 25.7911 18.1836C25.0455 20.4782 22.4844 22.339 20.0717 22.3392H12.4934C12.5107 22.3665 12.5267 22.3946 12.5442 22.4215C13.5809 24.0111 14.8358 24.7346 15.9985 24.7347C16.0106 24.7347 16.0229 24.7341 16.0351 24.7339H19.518C18.4953 25.7044 17.2896 26.2655 15.9985 26.2655L15.9118 26.2648C13.7969 26.2235 11.92 24.6781 10.7111 22.2955H10.7089C10.6913 22.2608 10.6753 22.2252 10.6581 22.1902C10.6327 22.1387 10.6069 22.0869 10.5821 22.0347C10.5452 21.957 10.5095 21.8783 10.474 21.799C10.4521 21.7502 10.4294 21.7016 10.408 21.6522C10.3018 21.4058 10.2024 21.152 10.11 20.8914C10.0906 20.8366 10.0722 20.7813 10.0535 20.7259C10.0234 20.6374 9.9937 20.548 9.96534 20.458C9.94807 20.4032 9.93185 20.3479 9.91519 20.2925C9.89117 20.2127 9.86699 20.132 9.84427 20.0511C9.82734 19.9908 9.81104 19.9301 9.79485 19.8692C9.77222 19.7841 9.75083 19.6982 9.72966 19.612C9.71393 19.5479 9.69801 19.4833 9.68309 19.4186C9.6629 19.331 9.64374 19.2429 9.62507 19.1542C9.61441 19.1036 9.60227 19.0526 9.59212 19.0016C9.53267 18.7035 9.48275 18.3994 9.44096 18.0904C9.43158 18.021 9.42364 17.9512 9.41518 17.8813C9.40561 17.8023 9.39562 17.723 9.38724 17.6434C9.38003 17.5749 9.3735 17.5061 9.36718 17.4371C9.35809 17.338 9.35005 17.2384 9.34282 17.1384C9.33906 17.0862 9.33462 17.0339 9.33136 16.9815C9.32307 16.8481 9.31766 16.7137 9.31274 16.5789C9.31162 16.5485 9.31009 16.5177 9.30915 16.4872C9.30415 16.3245 9.30056 16.1605 9.30056 15.9958C9.30056 15.9777 9.30121 15.9594 9.30127 15.9414L9.30342 15.7307C9.30412 15.6887 9.30598 15.6466 9.30701 15.6047C9.30906 15.5216 9.31155 15.4386 9.31489 15.3561C9.3182 15.2735 9.32177 15.191 9.32635 15.1089C9.3304 15.0369 9.33566 14.9649 9.34067 14.8933C9.34706 14.8016 9.3535 14.7099 9.36145 14.619C9.36794 14.545 9.37615 14.4711 9.38366 14.3976C9.39318 14.3042 9.40188 14.2108 9.41303 14.1182C9.41421 14.1084 9.41541 14.0979 9.41661 14.0881L9.41733 14.0867C9.99573 9.36944 12.677 5.78996 15.9118 5.72679L15.9985 5.72607ZM22.3705 15.3425C21.8016 15.3426 20.2108 15.6533 19.0101 15.6534C17.8091 15.6534 16.4188 15.3425 15.8502 15.3425C15.2817 15.3426 14.6784 15.7818 14.5028 16.3225C13.771 18.5754 15.0981 20.402 17.4671 20.4021C19.836 20.402 22.3504 18.5754 23.0826 16.3225C23.2583 15.7817 22.939 15.3426 22.3705 15.3425ZM17.7507 12.1361C17.0873 12.1361 16.3826 12.6477 16.1776 13.2786C15.973 13.9093 16.3448 14.4204 17.0079 14.4205C17.6711 14.4204 18.3751 13.9093 18.5803 13.2786C18.7852 12.6478 18.4139 12.1363 17.7507 12.1361ZM22.5553 12.1361C21.8921 12.1362 21.188 12.6471 20.9829 13.2779C20.778 13.9087 21.1499 14.4204 21.8132 14.4205C22.4764 14.4203 23.1798 13.9086 23.3849 13.2779C23.5897 12.6472 23.2185 12.1362 22.5553 12.1361ZM15.9985 7.25693C14.8358 7.25698 13.5809 7.9805 12.5442 9.57006C11.9803 10.4347 11.5201 11.508 11.219 12.7271C11.9803 12.2927 12.8008 11.9768 13.6317 11.8151C15.1652 10.3923 17.138 9.38756 19.1269 9.10872C18.1593 7.84022 17.042 7.25696 15.9985 7.25693Z" fill="white"/>
<path d="M10.2182 7.17813C10.0714 7.37279 9.93076 7.57335 9.797 7.77844C8.37426 9.96003 7.55125 12.8706 7.55121 15.9958C7.55127 19.121 8.37425 22.0316 9.797 24.2132C9.93061 24.418 10.0715 24.6183 10.2182 24.8127C7.77481 23.633 6.00253 20.1319 6.00244 15.9958L6.00387 15.7572C6.0705 11.7252 7.82164 8.33494 10.2182 7.17813Z" fill="white"/>
</svg>
