<svg preserveAspectRatio="none" width="100%" height="100%" overflow="visible" style="display: block;" viewBox="0 0 32 32" fill="none" xmlns="http://www.w3.org/2000/svg">
<g id="MarginFi">
<rect width="32" height="32" rx="8" fill="var(--fill-0, #B5B5B5)"/>
<path id="Vector" d="M16.8114 6.95073C16.8114 10.003 16.8114 12.9008 16.8114 15.8537C19.8935 15.8537 22.9207 15.8537 25.9948 15.8537C25.9948 18.9382 25.9948 21.9676 25.9948 25.0493C22.9408 25.0493 19.8721 25.0493 16.7256 25.0493C16.7256 22.1192 16.7256 19.1596 16.7256 15.9544C16.1923 16.2255 15.7675 16.3611 15.4419 16.6215C14.5507 17.3342 14.0589 18.3221 13.7172 19.3892C13.3152 20.6468 12.8784 21.8656 12.0046 22.9125C11.1283 23.9635 10.0509 24.6051 8.7376 24.8158C7.85184 24.9581 6.94328 24.9514 6.00525 25.0144C6.00525 21.9568 6.00525 19.0147 6.00525 16.0323C6.3483 15.9584 6.68867 15.8927 7.02503 15.8094C8.35837 15.4779 8.9252 14.388 9.44247 13.2847C10.0053 12.0821 10.4261 10.8069 11.0532 9.64189C11.8948 8.07686 13.3299 7.32655 15.0734 7.14266C15.6147 7.08361 16.1575 7.02186 16.8114 6.95073Z" fill="var(--fill-0, #0F1110)"/>
</g>
</svg>
