<svg preserveAspectRatio="none" width="100%" height="100%" overflow="visible" style="display: block;" viewBox="0 0 32 32" fill="none" xmlns="http://www.w3.org/2000/svg">
<g id="Jupiter white">
<path id="Union" d="M4.19999 19.5439C9.312 17.532 17.9596 22.3003 19.0076 28.1123C18.3037 28.1803 17.6039 28.288 16.908 28.292C16.728 28.292 16.5079 27.9882 16.3719 27.7842C14.0519 24.3083 10.8041 22.3161 6.68827 21.7041C6.61627 21.6961 6.54347 21.6838 6.47147 21.6758C6.00756 21.6119 5.33993 21.716 5.11991 21.4482C4.68391 20.9242 4.49199 20.1919 4.19999 19.5439ZM6.21562 23.3564C8.58354 22.9804 13.3759 25.7276 14.7361 28.2676C11.1762 27.7436 8.3996 26.1284 6.21562 23.3564ZM4.68827 15.2402C6.37622 14.5763 8.12411 14.5716 9.86405 14.9316C14.7841 15.9556 18.7682 18.4159 21.4402 22.7559C21.8962 23.4958 22.1724 24.3758 22.3924 25.2197C22.7643 26.6556 22.564 26.9158 21.0203 27.3877C19.9203 23.6758 17.4996 21.0644 14.2557 19.1885C11.0357 17.3285 7.59608 16.5118 3.90019 17.3877C3.35628 16.1758 3.53233 15.6962 4.68827 15.2402ZM5.48417 11.0644C6.95605 10.3125 8.55975 10.2442 10.1316 10.4922C16.0715 11.4282 20.9321 14.2238 24.3641 19.2236C25.02 20.1796 25.3561 21.392 25.6521 22.5439C25.8681 23.3839 25.7204 24.2884 24.8885 25.0244C23.6925 20.3205 20.6201 17.2604 16.6883 14.9805C12.7763 12.7125 8.62008 11.5843 3.98808 12.8603C4.15607 11.8844 4.78019 11.4244 5.48417 11.0644ZM9.60429 6.53222C12.3082 6.20829 14.8563 6.83591 17.3162 7.87987C20.8682 9.38387 23.9965 11.496 26.2644 14.668C26.9884 15.6799 27.4437 16.9003 27.9236 18.0723C28.1156 18.5442 28.0361 19.1284 28.0281 19.6523C23.2521 11.7524 16.3041 7.75254 7.06815 7.5205C7.79215 6.9125 8.66829 6.64422 9.60429 6.53222ZM13.2244 4.15624C18.8723 2.41248 26.5123 5.85597 28.3924 13.0117C24.3005 8.25582 19.3082 5.35629 13.2244 4.15624Z" fill="var(--fill-0, white)"/>
</g>
</svg>
