<svg preserveAspectRatio="none" width="100%" height="100%" overflow="visible" style="display: block;" viewBox="0 0 25.5381 27.6663" fill="none" xmlns="http://www.w3.org/2000/svg">
<g id="Meteora Logo 1" clip-path="url(#clip0_0_28)">
<path id="Vector" d="M21.8307 6.41826C22.2933 5.95577 23.0101 5.9836 23.3063 6.47334C23.6266 6.99926 23.8687 7.56758 24.041 8.16299C24.1376 8.50141 24.0256 8.89716 23.7448 9.17824L14.6845 18.2386C14.1373 18.7858 13.4566 19.1641 12.7341 19.3183L11.9816 19.4783C11.2621 19.6355 10.5753 20.0138 10.0312 20.5579L3.07511 27.514C2.77885 26.3713 2.64892 25.6 3.57702 24.6719L21.8307 6.41826ZM23.7937 10.3224C24.0959 10.0202 24.5603 10.1948 24.5304 10.5936C24.343 13.0363 23.1793 15.6098 21.1054 17.6837C19.524 19.416 15.0617 22.064 11.8726 23.8385C11.2196 24.2009 10.688 23.4269 11.223 22.8919L23.7906 10.3255L23.7937 10.3224ZM19.6236 2.75526C19.9107 2.46814 20.3341 2.40732 20.6243 2.60666C21.2288 3.01775 21.794 3.61333 22.0843 4.33269C22.1931 4.61078 22.0996 4.9522 21.8609 5.19102L12.1022 14.9507C11.5551 15.4977 10.875 15.8752 10.1528 16.0294L9.39938 16.1894C8.67996 16.3466 7.99404 16.725 7.44992 17.269L1.43014 23.2879C1.13401 22.1453 1.27652 21.1024 2.2043 20.1745L19.6236 2.75526ZM15.4877 1.01988C16.0318 0.475859 16.812 0.263961 17.4528 0.5055C17.8549 0.659681 18.2425 0.848028 18.6084 1.06872C19.0917 1.35909 19.1157 2.06603 18.6623 2.51937L9.73813 11.4436C9.22722 11.9546 8.53172 12.2266 7.86663 12.1782C7.16832 12.1269 6.43335 12.4145 5.89225 12.9555L1.00408 17.8438C0.707846 16.7009 1.09228 15.4164 2.02038 14.4883L3.60404 12.9036L15.4877 1.01988ZM14.059 0.152189C14.4879 0.146437 14.6542 0.657092 14.3281 0.983509L5.82366 9.48791L4.84063 10.4699L3.34425 11.9663L3.33593 11.9756C3.02152 12.2901 2.5558 12.0058 2.73115 11.6067L4.19427 8.28146C4.27589 8.07891 4.36677 7.8728 4.46653 7.6642L4.47485 7.64342C5.3183 5.85675 6.67608 3.96141 7.95183 2.68564C9.99851 0.63896 11.8369 0.173351 14.059 0.152189Z" fill="var(--fill-0, white)"/>
</g>
<defs>
<clipPath id="clip0_0_28">
<rect width="25.5381" height="27.6663" fill="white"/>
</clipPath>
</defs>
</svg>
