<svg preserveAspectRatio="none" width="100%" height="100%" overflow="visible" style="display: block;" viewBox="0 0 32 32" fill="none" xmlns="http://www.w3.org/2000/svg">
<g id="SendAI white">
<path id="Subtract" fill-rule="evenodd" clip-rule="evenodd" d="M16 29.9987C23.7312 29.9987 29.9987 23.7312 29.9987 16C29.9987 8.26875 23.7312 2.00134 16 2.00134C8.26875 2.00134 2.00134 8.26875 2.00134 16C2.00134 23.7312 8.26875 29.9987 16 29.9987ZM27.8566 13.7593C27.1376 9.93126 24.6106 6.74094 21.1962 5.10897C20.4165 4.73629 20.0266 4.54996 19.9702 4.63428C19.9139 4.71859 20.2494 5.02061 20.9204 5.62463C23.1892 7.66695 25.0586 10.9162 25.459 12.3177C24.9555 12.6953 23.9486 13.1988 23.3598 13.3587C23.4632 14.1996 23.5173 15.0707 23.5173 15.9625C23.5173 16.5026 23.5054 17.0378 23.4804 17.5654C23.4659 17.8729 23.4586 18.0267 23.5566 18.1013C23.6547 18.1758 23.7962 18.1293 24.0792 18.0362C24.8559 17.7807 25.5045 17.4946 26.0062 17.193C26.6396 16.8122 27.341 16.2929 27.6338 15.7657C27.9267 15.2386 27.9853 14.4442 27.8566 13.7593ZM15.0344 5.74898C15.0344 5.58917 15.0344 5.50927 14.9783 5.47191C14.9221 5.43456 14.8515 5.46414 14.7104 5.52331C13.578 5.99816 12.5927 7.01039 11.8316 8.55868C11.4806 9.27279 11.1888 10.0808 10.961 10.9635C10.922 11.1144 10.9025 11.1898 10.9443 11.2365C10.9861 11.2832 11.0645 11.2721 11.2214 11.2498C12.4173 11.0799 13.6997 10.9727 15.0344 10.9376V5.74898ZM15.0344 12.8727C13.8043 12.9068 12.6344 13.0053 11.5533 13.1565C11.0645 13.2249 10.8201 13.2591 10.6501 13.4413C10.4802 13.6236 10.4633 13.8677 10.4296 14.356C10.3935 14.8787 10.3751 15.4147 10.3751 15.9617C10.3751 16.589 10.4023 17.2123 10.4541 17.8248C10.4885 18.2316 10.5057 18.435 10.6456 18.5837C10.7856 18.7324 10.9886 18.762 11.3948 18.8212C12.7977 19.0257 14.3542 19.141 16 19.141C16.1212 19.141 16.2419 19.1403 16.3622 19.1391C16.572 19.1369 16.7388 19.3208 16.7158 19.5293C16.6163 20.4331 15.8239 21.0757 14.9152 21.0431C13.5021 20.9925 12.029 20.8767 10.8919 20.7018C10.8923 20.7033 10.8926 20.7048 10.8929 20.7063C10.4644 20.6402 10.0044 20.564 9.69576 20.4993C9.34396 20.4255 8.92374 20.3228 8.58494 20.2366C8.41696 20.1939 8.27173 20.1559 8.16866 20.1287C8.11716 20.1151 8.07628 20.1042 8.04847 20.0967L8.04771 20.0965C7.7392 20.0095 7.44213 19.9174 7.1575 19.8205C6.00831 19.4292 5.00887 18.9415 4.27727 18.3526C4.23209 18.3162 4.18745 18.279 4.14346 18.241C4.85674 22.0381 7.34897 25.2077 10.7216 26.8513C11.0944 27.033 11.2808 27.1239 11.3396 27.0538C11.3984 26.9838 11.2712 26.8082 11.0168 26.4571C10.5826 25.8579 10.2001 25.1634 9.86958 24.4116C9.73696 24.1099 9.61124 23.7956 9.49289 23.4703C9.31678 22.9861 9.22872 22.7441 9.35771 22.5889C9.4867 22.4337 9.75191 22.4779 10.2823 22.5664C10.4573 22.5955 10.6236 22.6222 10.764 22.6434C11.2011 22.7097 11.5639 23.0104 11.7324 23.4191C11.7709 23.5125 11.81 23.6045 11.8498 23.6949C12.3012 24.7217 12.8131 25.51 13.3303 26.0249C13.8505 26.5428 14.2824 26.698 14.6031 26.698C15.8685 26.698 16.9268 25.8939 17.7093 23.9112C18.0384 23.0773 18.2904 22.0929 18.4714 20.9914C18.4683 20.9916 18.4652 20.9918 18.462 20.9921C18.5749 20.3383 18.6501 19.7211 18.7055 19.0342C18.707 19.0341 18.7085 19.034 18.7099 19.0339C18.7917 18.066 18.831 17.0364 18.831 15.9617C18.831 15.3751 18.8108 14.7994 18.772 14.2381C17.6982 14.305 16.3262 14.344 15.0375 14.2894V14.2592H15.0344V12.8727ZM8.24317 15.9617C8.24317 16.503 8.26193 17.0431 8.29832 17.5783C8.31353 17.8018 8.32113 17.9136 8.27069 17.9825C8.24452 18.0183 8.20788 18.0465 8.16656 18.0626C8.08694 18.0936 7.98496 18.0588 7.78101 17.9894C6.74699 17.6373 5.97966 17.2398 5.49028 16.8458C4.99221 16.4448 4.90288 16.1529 4.90288 16.0002C4.90288 15.851 4.98735 15.5698 5.45702 15.1817C5.92017 14.799 6.64923 14.4096 7.63776 14.0606C7.65102 14.0559 7.66432 14.0513 7.67766 14.0466C7.96645 13.9457 8.11085 13.8952 8.21089 13.9706C8.31093 14.046 8.30187 14.2046 8.28375 14.5219C8.25668 14.9958 8.24317 15.4763 8.24317 15.9617ZM9.88452 7.77079C9.42619 8.70317 9.0647 9.7474 8.79898 10.8711C8.69585 11.3072 8.64428 11.5253 8.5152 11.6623C8.38611 11.7993 8.17192 11.8637 7.74353 11.9924C7.48474 12.0701 7.23463 12.1516 6.99384 12.2366C5.88952 12.6264 4.92853 13.109 4.22484 13.6905C4.19747 13.7131 4.17031 13.7361 4.14339 13.7593C4.89599 9.75226 7.62969 6.44396 11.2885 4.89034C11.7811 4.68117 12.0274 4.57659 12.0817 4.65537C12.1359 4.73416 11.941 4.93651 11.5513 5.34119C10.8858 6.03216 10.332 6.86055 9.88452 7.77079ZM20.7063 26.5254C20.3248 26.9571 20.1341 27.173 20.1905 27.2492C20.2469 27.3254 20.4954 27.2123 20.9923 26.9861C24.3115 25.4754 26.8259 22.5047 27.7149 18.8944C27.7803 18.6288 27.813 18.496 27.7469 18.45C27.6809 18.404 27.5621 18.4845 27.3246 18.6455C27.219 18.7171 27.1115 18.7855 27.0028 18.8508C26.2241 19.3189 25.2449 19.7195 24.1277 20.0462C23.6799 20.1771 23.4559 20.2426 23.3234 20.3872C23.1908 20.5319 23.1451 20.7603 23.0537 21.2173C22.7977 22.4968 22.4262 23.6746 21.9163 24.6988C21.5759 25.3825 21.1735 25.9967 20.7063 26.5254Z" fill="var(--fill-0, white)"/>
</g>
</svg>
