<svg width="32" height="32" viewBox="0 0 32 32" fill="none" xmlns="http://www.w3.org/2000/svg">
<path fill-rule="evenodd" clip-rule="evenodd" d="M16.0001 29.9988C23.7314 29.9988 29.9988 23.7314 29.9988 16.0001C29.9988 8.26888 23.7314 2.00146 16.0001 2.00146C8.26888 2.00146 2.00146 8.26888 2.00146 16.0001C2.00146 23.7314 8.26888 29.9988 16.0001 29.9988ZM27.8567 13.7594C27.1377 9.93138 24.6107 6.74106 21.1963 5.10909C20.4166 4.73642 20.0267 4.55008 19.9704 4.6344C19.914 4.71872 20.2495 5.02073 20.9205 5.62475C23.1894 7.66707 25.0587 10.9163 25.4591 12.3178C24.9557 12.6954 23.9487 13.1989 23.3599 13.3588C23.4633 14.1997 23.5175 15.0708 23.5175 15.9626C23.5175 16.5028 23.5056 17.0379 23.4806 17.5655C23.466 17.873 23.4587 18.0268 23.5567 18.1014C23.6548 18.1759 23.7963 18.1294 24.0793 18.0363C24.8561 17.7808 25.5046 17.4947 26.0064 17.1931C26.6398 16.8123 27.3411 16.293 27.6339 15.7658C27.9268 15.2387 27.9854 14.4444 27.8567 13.7594ZM15.0345 5.7491C15.0345 5.58929 15.0345 5.50939 14.9784 5.47204C14.9222 5.43468 14.8517 5.46426 14.7106 5.52343C13.5782 5.99828 12.5928 7.01051 11.8317 8.5588C11.4807 9.27291 11.1889 10.0809 10.9611 10.9636C10.9221 11.1145 10.9026 11.19 10.9444 11.2367C10.9862 11.2834 11.0646 11.2722 11.2215 11.2499C12.4174 11.08 13.6999 10.9728 15.0345 10.9378V5.7491ZM15.0345 12.8728C13.8044 12.9069 12.6345 13.0054 11.5534 13.1566C11.0646 13.225 10.8202 13.2592 10.6503 13.4414C10.4803 13.6237 10.4635 13.8678 10.4297 14.3562C10.3936 14.8788 10.3752 15.4149 10.3752 15.9619C10.3752 16.5891 10.4024 17.2124 10.4542 17.8249C10.4886 18.2317 10.5058 18.4351 10.6457 18.5838C10.7857 18.7325 10.9887 18.7621 11.3949 18.8213C12.7978 19.0259 14.3544 19.1411 16.0001 19.1411C16.1213 19.1411 16.2421 19.1405 16.3623 19.1392C16.5721 19.1371 16.7389 19.3209 16.716 19.5294C16.6164 20.4332 15.8241 21.0758 14.9153 21.0433C13.5022 20.9927 12.0291 20.8768 10.8921 20.7019C10.8924 20.7034 10.8927 20.7049 10.8931 20.7064C10.4646 20.6403 10.0045 20.5641 9.69588 20.4994C9.34408 20.4256 8.92387 20.3229 8.58506 20.2367C8.41709 20.194 8.27185 20.156 8.16878 20.1288C8.11728 20.1152 8.0764 20.1043 8.04859 20.0968L8.04783 20.0966C7.73932 20.0096 7.44225 19.9175 7.15762 19.8206C6.00843 19.4293 5.00899 18.9417 4.27739 18.3527C4.23221 18.3163 4.18757 18.2791 4.14358 18.2412C4.85686 22.0382 7.34909 25.2079 10.7217 26.8515C11.0945 27.0332 11.2809 27.124 11.3397 27.054C11.3986 26.9839 11.2713 26.8084 11.0169 26.4572C10.5828 25.858 10.2002 25.1636 9.8697 24.4117C9.73708 24.11 9.61137 23.7957 9.49302 23.4704C9.3169 22.9863 9.22884 22.7442 9.35783 22.589C9.48683 22.4339 9.75204 22.4781 10.2825 22.5665C10.4574 22.5957 10.6237 22.6223 10.7641 22.6436C11.2012 22.7098 11.5641 23.0105 11.7325 23.4192C11.771 23.5126 11.8102 23.6046 11.8499 23.6951C12.3013 24.7218 12.8132 25.5102 13.3304 26.0251C13.8506 26.543 14.2826 26.6981 14.6032 26.6981C15.8686 26.6981 16.9269 25.894 17.7094 23.9114C18.0386 23.0774 18.2906 22.093 18.4715 20.9915C18.4684 20.9917 18.4653 20.992 18.4622 20.9922C18.575 20.3385 18.6502 19.7212 18.7057 19.0344C18.7071 19.0342 18.7086 19.0341 18.71 19.034C18.7918 18.0661 18.8311 17.0365 18.8311 15.9619C18.8311 15.3752 18.8109 14.7996 18.7721 14.2382C17.6983 14.3052 16.3264 14.3441 15.0376 14.2895V14.2593H15.0345V12.8728ZM8.2433 15.9619C8.2433 16.5031 8.26205 17.0432 8.29844 17.5784C8.31365 17.8019 8.32125 17.9137 8.27081 17.9827C8.24464 18.0185 8.208 18.0466 8.16669 18.0627C8.08707 18.0937 7.98509 18.059 7.78113 17.9895C6.74711 17.6374 5.97978 17.2399 5.49041 16.8459C4.99234 16.4449 4.90301 16.153 4.90301 16.0003C4.90301 15.8512 4.98747 15.5699 5.45714 15.1818C5.92029 14.7991 6.64935 14.4097 7.63788 14.0607C7.65115 14.056 7.66445 14.0514 7.67778 14.0467C7.96658 13.9458 8.11097 13.8953 8.21101 13.9707C8.31106 14.0461 8.30199 14.2048 8.28387 14.522C8.2568 14.9959 8.2433 15.4764 8.2433 15.9619ZM9.88464 7.77091C9.42631 8.70329 9.06482 9.74752 8.7991 10.8712C8.69597 11.3073 8.64441 11.5254 8.51532 11.6624C8.38624 11.7994 8.17204 11.8638 7.74366 11.9925C7.48487 12.0702 7.23475 12.1517 6.99396 12.2367C5.88964 12.6265 4.92865 13.1092 4.22497 13.6906C4.1976 13.7133 4.17044 13.7362 4.14351 13.7594C4.89611 9.75238 7.62981 6.44408 11.2887 4.89046C11.7813 4.68129 12.0276 4.57671 12.0818 4.6555C12.136 4.73428 11.9412 4.93663 11.5514 5.34131C10.886 6.03228 10.3321 6.86067 9.88464 7.77091ZM20.7065 26.5255C20.3249 26.9573 20.1342 27.1731 20.1906 27.2493C20.247 27.3256 20.4955 27.2124 20.9925 26.9862C24.3117 25.4755 26.826 22.5048 27.715 18.8945C27.7804 18.6289 27.8131 18.4961 27.747 18.4501C27.681 18.4041 27.5622 18.4846 27.3247 18.6457C27.2192 18.7172 27.1116 18.7856 27.003 18.851C26.2242 19.3191 25.245 19.7196 24.1278 20.0463C23.68 20.1772 23.4561 20.2427 23.3235 20.3874C23.1909 20.532 23.1452 20.7605 23.0538 21.2174C22.7978 22.4969 22.4263 23.6747 21.9164 24.699C21.576 25.3826 21.1736 25.9969 20.7065 26.5255Z" fill="white"/>
</svg>
