<svg preserveAspectRatio="none" width="100%" height="100%" overflow="visible" style="display: block;" viewBox="0 0 32 32" fill="none" xmlns="http://www.w3.org/2000/svg">
<g id="Asgard white">
<path id="Vector" d="M14.5789 4.22562C14.5845 4.04698 14.7247 3.90142 14.9033 3.89373C15.5943 3.86397 16.3292 3.87845 16.9911 3.88496C17.1836 3.88686 17.3386 4.04378 17.3392 4.23629C17.3439 5.72697 17.4483 7.48396 17.4977 8.93704L17.7786 18.4758C17.804 19.5098 17.8665 20.5033 17.8792 21.5409C17.8803 21.6358 17.9244 21.7229 17.9978 21.7829C18.1255 21.8872 18.315 21.8764 18.4078 21.7401C18.6567 21.3747 18.8241 20.9571 18.9854 20.5361C20.4475 16.7171 22.1438 12.9859 23.5797 9.16237C23.7105 8.8139 23.8409 8.50611 23.9856 8.19442C24.0868 7.97649 24.3756 7.93216 24.5439 8.10365C25.2278 8.80041 25.6559 9.22367 26.2136 10.2574C26.2591 10.3418 26.2663 10.4417 26.2353 10.5324C25.8582 11.6349 25.5508 12.7098 25.2052 13.8198C24.6794 15.5082 24.1589 17.199 23.6325 18.8872C23.4666 19.4194 23.3548 20.0453 23.1952 20.5928C22.9495 21.4353 22.6413 22.2306 22.4346 23.081C22.4074 23.1928 22.4482 23.3098 22.5374 23.3825C22.6602 23.4827 22.8393 23.4718 22.9491 23.3575L27.3848 18.7395C27.6873 18.4199 28.0495 18.1269 28.3644 17.8164C28.463 17.7193 28.5585 17.6192 28.652 17.5171C28.8637 17.2862 29.2998 17.4101 29.3775 17.7136C29.4602 18.0367 29.5555 18.3632 29.6134 18.6453C29.7182 19.1548 29.8017 19.656 29.8952 20.1636C29.9162 20.2779 29.8607 20.3848 29.7904 20.4773C28.752 21.8452 27.7187 23.2157 26.7949 24.6651C26.5312 25.0789 26.1828 25.4575 25.9527 25.8932C25.8958 26.0008 25.8592 26.0981 25.8539 26.2112C25.8512 26.2698 25.8757 26.3253 25.9277 26.3525C26.3921 26.5962 28.8256 27.1325 29.7305 27.3335C29.8881 27.3685 29.9982 27.5077 29.9986 27.6691L29.9988 27.7622C29.9993 27.9542 29.8439 28.1101 29.6519 28.1103L24.3691 28.116C24.27 28.1161 24.1752 28.074 24.1107 27.9988C23.5034 27.2904 23.0941 26.5746 22.3517 25.9445C20.7585 24.5922 19.2006 23.76 17.1509 23.368C16.2349 23.2401 15.3042 23.2637 14.3959 23.4378C13.1939 23.668 11.4326 24.5032 10.4264 25.2535C9.73762 25.7672 8.46815 27.1686 7.89447 27.9596C7.82679 28.0529 7.71953 28.1104 7.60426 28.1106C5.88687 28.1138 4.06358 28.144 2.34844 28.1035C2.15901 28.099 2.00886 27.9425 2.00343 27.7531C2.00278 27.7306 2.00209 27.7082 2.00135 27.6858C1.99559 27.5101 2.11983 27.3572 2.29246 27.3238C3.19733 27.1484 5.13917 26.6877 5.96325 26.3665C6.12474 26.3036 6.18644 26.1228 6.0993 25.973C5.70229 25.2904 4.75262 24.095 4.37565 23.5581C3.74577 22.661 2.88728 21.2524 2.1876 20.4026C2.11543 20.3149 2.08788 20.1989 2.11268 20.0881C2.20954 19.6552 2.27897 19.1787 2.37908 18.7503C2.47593 18.336 2.57797 17.9239 2.67951 17.5114C2.74242 17.2558 3.04633 17.1692 3.21861 17.3681C3.38324 17.5583 3.54727 17.755 3.72062 17.9196C4.86878 18.9786 5.89881 20.0906 6.92914 21.2621C7.53121 21.9466 8.40561 22.6354 9.02078 23.3343C9.1108 23.4366 9.17502 23.4763 9.2914 23.4849C9.33921 23.4885 9.38697 23.4774 9.43094 23.4583C9.47982 23.4371 9.5307 23.4111 9.54577 23.3782C9.68775 23.0682 9.38468 22.4152 9.29662 22.1336L8.66493 20.0957L6.41144 12.5383C6.2216 11.8791 5.92121 11.0983 5.76067 10.4376C5.7383 10.3456 5.75765 10.2485 5.81068 10.17C6.36839 9.34426 6.72651 8.80642 7.33418 8.10514C7.50024 7.91351 7.80762 7.96756 7.90491 8.20172L12.4204 19.0706C12.756 19.8701 13.0909 20.6696 13.3986 21.4805C13.4309 21.5658 13.535 21.8849 13.639 21.8803C13.9043 21.8685 14.0323 21.6895 14.0475 21.4317C14.083 20.8304 14.0828 20.2245 14.0993 19.621L14.5789 4.22562Z" fill="var(--fill-0, #FEFEFE)"/>
</g>
</svg>
