<svg width="32" height="32" viewBox="0 0 32 32" fill="none" xmlns="http://www.w3.org/2000/svg">
<path d="M14.579 4.22545C14.5846 4.0468 14.7248 3.90124 14.9034 3.89355C15.5944 3.8638 16.3292 3.87828 16.9911 3.88479C17.1836 3.88668 17.3387 4.04361 17.3393 4.23611C17.344 5.7268 17.4484 7.48378 17.4978 8.93686L17.7787 18.4756C17.804 19.5096 17.8666 20.5032 17.8792 21.5408C17.8804 21.6356 17.9244 21.7227 17.9979 21.7827C18.1256 21.887 18.3151 21.8762 18.4079 21.7399C18.6568 21.3746 18.8242 20.9569 18.9854 20.5359C20.4476 16.7169 22.1438 12.9857 23.5797 9.16219C23.7106 8.81373 23.8409 8.50593 23.9857 8.19425C24.0869 7.97631 24.3757 7.93199 24.544 8.10348C25.2278 8.80024 25.656 9.2235 26.2137 10.2573C26.2592 10.3416 26.2664 10.4415 26.2354 10.5322C25.8582 11.6347 25.5509 12.7096 25.2052 13.8196C24.6794 15.5081 24.159 17.1988 23.6326 18.887C23.4667 19.4192 23.3549 20.0451 23.1953 20.5927C22.9496 21.4352 22.6414 22.2305 22.4346 23.0808C22.4074 23.1926 22.4483 23.3096 22.5375 23.3823C22.6602 23.4825 22.8394 23.4716 22.9491 23.3573L27.3848 18.7393C27.6873 18.4197 28.0495 18.1268 28.3645 17.8163C28.4631 17.7191 28.5586 17.619 28.6521 17.517C28.8637 17.286 29.2999 17.4099 29.3775 17.7134C29.4602 18.0365 29.5555 18.3631 29.6135 18.6451C29.7182 19.1546 29.8018 19.6558 29.8952 20.1635C29.9163 20.2777 29.8607 20.3847 29.7905 20.4772C28.7521 21.845 27.7188 23.2155 26.795 24.665C26.5312 25.0787 26.1828 25.4573 25.9527 25.893C25.8959 26.0006 25.8592 26.0979 25.854 26.211C25.8513 26.2697 25.8757 26.3251 25.9277 26.3524C26.3921 26.5961 28.8256 27.1323 29.7305 27.3333C29.8881 27.3683 29.9983 27.5075 29.9987 27.6689L29.9989 27.762C29.9994 27.954 29.844 28.1099 29.652 28.1102L24.3692 28.1158C24.27 28.1159 24.1752 28.0738 24.1107 27.9986C23.5035 27.2903 23.0941 26.5744 22.3517 25.9443C20.7585 24.5921 19.2007 23.7599 17.1509 23.3678C16.235 23.2399 15.3042 23.2635 14.3959 23.4376C13.194 23.6679 11.4326 24.503 10.4265 25.2533C9.73768 25.7671 8.46821 27.1685 7.89453 27.9594C7.82685 28.0527 7.71959 28.1102 7.60432 28.1104C5.88693 28.1136 4.06364 28.1438 2.3485 28.1033C2.15907 28.0988 2.00892 27.9423 2.00349 27.7529C2.00284 27.7305 2.00215 27.7081 2.00141 27.6856C1.99565 27.5099 2.11989 27.3571 2.29252 27.3236C3.19739 27.1482 5.13923 26.6875 5.96331 26.3664C6.1248 26.3034 6.1865 26.1226 6.09936 25.9728C5.70235 25.2903 4.75268 24.0948 4.37571 23.5579C3.74583 22.6608 2.88734 21.2522 2.18766 20.4024C2.11549 20.3148 2.08794 20.1987 2.11274 20.0879C2.2096 19.6551 2.27903 19.1785 2.37914 18.7502C2.47599 18.3358 2.57803 17.9237 2.67957 17.5112C2.74248 17.2556 3.04639 17.169 3.21867 17.368C3.3833 17.5581 3.54733 17.7548 3.72068 17.9194C4.86884 18.9784 5.89887 20.0904 6.9292 21.2619C7.53127 21.9464 8.40567 22.6353 9.02084 23.3342C9.11086 23.4364 9.17508 23.4761 9.29146 23.4848C9.33927 23.4883 9.38703 23.4772 9.431 23.4581C9.47988 23.4369 9.53076 23.411 9.54583 23.3781C9.68782 23.0681 9.38474 22.415 9.29669 22.1334L8.66499 20.0956L6.4115 12.5381C6.22166 11.8789 5.92127 11.0981 5.76073 10.4374C5.73836 10.3454 5.75771 10.2483 5.81074 10.1698C6.36845 9.34408 6.72657 8.80624 7.33424 8.10497C7.5003 7.91334 7.80768 7.96739 7.90497 8.20155L12.4205 19.0704C12.7561 19.8699 13.091 20.6695 13.3986 21.4803C13.431 21.5656 13.5351 21.8847 13.6391 21.8801C13.9044 21.8683 14.0324 21.6894 14.0476 21.4316C14.0831 20.8302 14.0829 20.2244 14.0994 19.6209L14.579 4.22545Z" fill="#FEFEFE"/>
</svg>
