<svg width="32" height="32" viewBox="0 0 32 32" fill="none" xmlns="http://www.w3.org/2000/svg">
<path d="M22.9766 21.8062C23.8942 21.8062 24.3536 21.8055 24.6387 22.0903C24.9238 22.3755 24.9238 22.8348 24.9238 23.7524V25.0513C24.9238 26.8869 24.9238 27.8052 24.3535 28.3755C23.7832 28.9455 22.8648 28.9458 21.0293 28.9458H10.9688C9.13365 28.9458 8.21581 28.9453 7.64551 28.3755C7.07522 27.8052 7.0752 26.8869 7.0752 25.0513V23.7524C7.0752 22.8348 7.07524 22.3755 7.36035 22.0903C7.64554 21.8057 8.10501 21.8062 9.02246 21.8062H22.9766Z" fill="white"/>
<path fill-rule="evenodd" clip-rule="evenodd" d="M15.999 6.79639C24.4872 6.79639 24.9049 12.1008 24.9238 15.144V18.9663C24.9237 19.5039 24.4878 19.9399 23.9502 19.9399H8.04883C7.5112 19.9399 7.07532 19.5039 7.0752 18.9663V15.144C7.09412 12.1009 7.51133 6.79659 15.999 6.79639ZM15.999 9.09619C14.4758 9.09645 13.2412 10.3316 13.2412 11.855C13.2414 13.3781 14.4758 14.6135 15.999 14.6138C17.5225 14.6138 18.7577 13.3783 18.7578 11.855C18.7578 10.3315 17.5225 9.09619 15.999 9.09619Z" fill="white"/>
<path d="M15.9971 3.0542C17.9507 3.05427 19.661 3.73707 20.1133 4.84912C20.1815 5.04099 20.2148 5.13726 20.1543 5.2085C20.0936 5.27929 19.9762 5.25774 19.7422 5.21533C19.1365 5.1056 18.2792 5.03061 17.5244 5.0083C17.0428 4.98243 16.5346 4.96925 16 4.96924C15.4655 4.96924 14.9571 4.98245 14.4756 5.0083C13.7169 5.0306 12.856 5.10632 12.248 5.2124C12.0189 5.2524 11.9038 5.27169 11.8438 5.20068C11.7841 5.12969 11.8174 5.0352 11.8838 4.84717C12.3326 3.73873 14.044 3.05421 15.9971 3.0542Z" fill="white"/>
</svg>
