<svg preserveAspectRatio="none" width="100%" height="100%" overflow="visible" style="display: block;" viewBox="0 0 17.8496 25.8916" fill="none" xmlns="http://www.w3.org/2000/svg">
<g id="Frame 123">
<path id="Union" d="M15.9014 18.752C16.819 18.752 17.2784 18.7513 17.5635 19.0361C17.8486 19.3213 17.8486 19.7806 17.8486 20.6982V21.9971C17.8486 23.8327 17.8486 24.751 17.2783 25.3213C16.708 25.8913 15.7896 25.8916 13.9541 25.8916H3.89355C2.05845 25.8916 1.14062 25.8911 0.570313 25.3213C2.51904e-05 24.751 5.34391e-10 23.8327 0 21.9971V20.6982C6.17482e-09 19.7806 4.39736e-05 19.3213 0.285156 19.0361C0.570346 18.7515 1.02981 18.752 1.94727 18.752H15.9014ZM8.92383 3.74219C17.412 3.74219 17.8297 9.04662 17.8486 12.0898V15.9121C17.8485 16.4497 17.4126 16.8857 16.875 16.8857H0.973633C0.436008 16.8857 0.000125232 16.4497 0 15.9121V12.0898C0.0189283 9.04667 0.436131 3.74239 8.92383 3.74219ZM8.92383 6.04199C7.40056 6.04225 6.16602 7.27741 6.16602 8.80078C6.16616 10.3239 7.40065 11.5593 8.92383 11.5596C10.4473 11.5596 11.6825 10.3241 11.6826 8.80078C11.6826 7.27725 10.4473 6.04199 8.92383 6.04199ZM8.92188 0C10.8755 6.65067e-05 12.5858 0.682871 13.0381 1.79492C13.1063 1.98679 13.1396 2.08306 13.0791 2.1543C13.0184 2.22509 12.901 2.20354 12.667 2.16113C12.0613 2.0514 11.204 1.97641 10.4492 1.9541C9.9676 1.92823 9.45938 1.91505 8.9248 1.91504C8.39031 1.91504 7.8819 1.92825 7.40039 1.9541C6.64175 1.9764 5.78077 2.05212 5.17285 2.1582C4.94367 2.1982 4.82863 2.21749 4.76855 2.14648C4.70889 2.07549 4.74222 1.981 4.80859 1.79297C5.25742 0.684527 6.96884 6.08457e-06 8.92188 0Z" fill="var(--fill-0, white)"/>
</g>
</svg>
