<svg width="32" height="32" viewBox="0 0 32 32" fill="none" xmlns="http://www.w3.org/2000/svg">
<path d="M20.5046 18.8786C20.7217 18.8597 21.0579 18.8548 21.2601 18.9134C21.4685 18.9744 21.6443 19.1157 21.7475 19.3067C22.0851 19.9352 21.3608 21.3584 20.7831 21.7304C20.5293 21.8937 20.0227 21.7245 19.7434 21.6354C19.366 21.5253 18.8844 21.335 18.5917 21.0803C18.1182 20.6683 18.1173 20.1291 18.54 19.6793C19.0496 19.1368 19.784 18.9159 20.5046 18.8786Z" fill="#FEFEFE"/>
<path fill-rule="evenodd" clip-rule="evenodd" d="M12.2048 7.32703C12.3559 7.32011 12.541 7.38909 12.6687 7.46253C13.8562 8.14577 15.0447 10.0866 15.419 11.3447C17.4078 10.8904 19.0435 12.348 20.243 13.7459C21.1072 14.7532 21.6684 15.7754 22.1634 16.9949C22.5764 17.0596 22.8762 17.1513 23.2182 17.4079C23.7409 17.8038 24.1122 18.5161 24.1976 19.1759C24.4631 21.2273 23.8355 23.5975 22.6517 25.2805C21.8248 26.4562 20.4341 27.0712 19.0716 27.2903C18.6487 27.9086 17.6723 29.2244 17.0355 29.5898C16.3772 29.9674 15.1093 30.0548 14.3623 29.9643C13.9409 29.9133 13.6514 29.8502 13.2436 29.7385C12.2346 29.4396 11.3054 28.923 10.4482 28.3177C10.1851 28.1319 9.91475 27.8119 9.62299 27.6892C9.35134 27.575 8.95709 27.6541 8.66703 27.6337C8.37102 27.6128 8.05612 27.5553 7.76752 27.485C6.78178 27.2449 5.74483 26.6338 5.21107 25.7481C4.88922 25.214 4.80561 24.7842 4.70581 24.1862C4.47394 22.7968 4.70861 21.5102 5.01348 20.1563C5.15001 19.55 5.30807 18.9252 5.50181 18.3319C5.646 17.8903 5.82255 17.4452 5.96756 17.0024C6.01088 16.8701 6.16463 16.453 6.16233 16.3343C6.1556 15.9918 5.95799 15.5967 5.87535 15.2401C5.60935 14.0907 5.43087 12.647 5.66271 11.4811C5.72867 11.1495 5.92141 10.7274 6.21973 10.5609C6.54576 10.3791 6.88741 10.3863 7.24061 10.4753C8.54641 10.8046 9.65413 12.1229 10.3061 13.2378C10.5615 13.1253 11.729 12.6459 11.8482 12.5001C11.9179 12.4145 11.9204 12.2641 11.9103 12.1586C11.8735 11.7747 11.7427 11.3925 11.676 11.0116C11.6168 10.6846 11.5743 10.3541 11.5481 10.0227C11.503 9.40668 11.4941 8.20776 11.7918 7.63377C11.8817 7.46033 12.0183 7.37503 12.2048 7.32703ZM21.2526 18.1512C20.9983 18.1618 20.7726 18.17 20.5187 18.2058C19.0132 18.4185 17.6293 19.0762 16.3251 19.826C16.0435 19.9883 15.7628 20.1523 15.4839 20.3191C15.0947 20.5514 14.7374 20.7816 14.3238 20.9758C13.8369 21.2042 13.6512 21.0346 13.2389 20.7877C12.2085 20.1704 10.71 19.2408 9.46774 19.6388C9.19014 19.725 8.93951 19.8814 8.74042 20.0933C8.19138 20.6884 8.41595 21.4151 8.57858 22.1049C8.84056 23.2162 9.28796 24.11 10.1339 24.8862C12.3708 26.7768 15.9516 26.3861 18.666 26.1856C19.0021 26.1607 19.3658 26.1259 19.6954 26.0426C20.8094 25.6923 21.5442 25.0483 22.0787 24.0178C22.7825 22.6607 23.1629 21.1796 23.0413 19.6454C23.0043 19.2002 22.8661 18.7084 22.5172 18.4053C22.1847 18.1167 21.6807 18.1429 21.2526 18.1512ZM14.1422 18.2698C14.1261 18.2709 14.1102 18.2729 14.0942 18.2745L13.8975 18.2971C14.03 18.4134 14.1853 18.5951 14.017 18.7638C13.7667 19.0147 13.3678 18.9988 13.0601 18.8691C13.0751 19.053 13.1065 19.121 13.2464 19.2502C13.4323 19.4215 13.8722 19.5423 14.1224 19.54C14.5205 19.5505 14.9528 19.4934 15.2628 19.221C15.3454 19.1484 15.426 19.0056 15.4162 18.8983C15.367 18.3665 14.5242 18.2467 14.1422 18.2698ZM12.2453 15.4696C11.718 15.5241 11.3597 15.7836 11.0353 16.1904C10.6666 16.6527 10.3467 17.2666 10.4105 17.8727C10.4625 18.3655 10.7736 18.5146 11.2272 18.4984C12.2332 18.3458 12.8636 17.3541 13.0488 16.42C13.1453 15.933 12.7607 15.4288 12.2453 15.4696ZM18.4487 16.5507C18.358 16.5588 18.265 16.5663 18.1749 16.579C18.2656 16.6391 18.3467 16.6975 18.3697 16.8133C18.3836 16.8837 18.3682 16.9575 18.3273 17.0165C18.1729 17.2413 17.712 17.3032 17.4833 17.1915C17.4544 17.1775 17.3913 17.1585 17.3601 17.1576C17.3462 17.1974 17.3634 17.3013 17.3836 17.3373C17.5709 17.6713 18.0366 17.7759 18.38 17.8097C18.7759 17.8314 19.225 17.7664 19.5392 17.5039C19.7403 17.3358 19.765 17.079 19.575 16.8867C19.3204 16.6291 18.8015 16.5168 18.4487 16.5507ZM7.43067 11.6928C7.06066 11.778 7.07638 12.122 7.05431 12.4409C6.99131 13.2852 7.06905 14.135 7.28389 14.954C7.43473 15.5072 7.63112 15.9642 8.29348 15.7679C8.56303 15.6856 8.82048 15.5674 9.05938 15.4179C10.0739 14.7433 10.0098 14.2571 9.36894 13.3074C9.01781 12.7901 8.57863 12.338 8.07143 11.9723C7.88321 11.836 7.67287 11.6821 7.43067 11.6928ZM17.7759 13.9651C17.407 13.9851 17.1275 14.0942 16.8699 14.3725C16.7103 14.545 16.5843 14.8406 16.6008 15.0782C16.6106 15.2196 16.6776 15.3512 16.7861 15.4424C17.0675 15.6826 17.6278 15.6943 17.9877 15.6842C18.4536 15.6585 19.1512 15.5401 19.1186 14.9314C19.1053 14.6851 18.9615 14.4706 18.779 14.3114C18.4727 14.0537 18.1668 13.9641 17.7759 13.9651ZM12.8362 8.54363C12.4942 8.77464 12.5769 9.5074 12.6019 9.88254C12.6488 10.5875 12.7541 11.3578 13.0949 11.9845C13.3185 12.3827 13.9984 12.2883 14.335 12.1257C14.4951 12.0287 14.6394 11.906 14.6841 11.7154C14.8084 11.1848 14.1001 9.79072 13.7931 9.3227C13.6146 9.05056 13.3417 8.61637 13.0037 8.54363C12.9479 8.53165 12.8922 8.53791 12.8362 8.54363Z" fill="#FEFEFE"/>
<path d="M21.4954 10.7096C21.9083 10.6376 22.301 10.9162 22.3695 11.3297C22.4377 11.7434 22.1554 12.1336 21.7409 12.1981C21.332 12.2616 20.9486 11.9842 20.8809 11.5762C20.8135 11.1679 21.0877 10.7809 21.4954 10.7096Z" fill="#FEFEFE"/>
<path d="M26.2855 6.83682C26.9278 6.79576 27.4377 7.22626 27.3845 7.90193C27.3369 8.50361 26.6872 8.91507 26.2291 9.22484C25.4321 9.76373 24.5986 10.2261 23.6943 10.5732C23.4083 10.6856 23.0732 10.7657 22.7891 10.6136C22.6291 10.3755 22.7706 10.0104 22.9208 9.80068C23.6518 8.78027 24.5982 7.88465 25.6212 7.16049C25.8411 7.00485 26.0175 6.88825 26.2855 6.83682Z" fill="#FEFEFE"/>
<path d="M19.7914 8.78262C20.2019 8.71916 20.586 9.0006 20.6485 9.41114C20.7109 9.822 20.4273 10.2053 20.0162 10.2664C19.607 10.3271 19.2259 10.0459 19.1638 9.63696C19.1017 9.22794 19.3825 8.84601 19.7914 8.78262Z" fill="#FEFEFE"/>
<path d="M16.915 8.17856C17.3254 8.10375 17.7185 8.376 17.7929 8.78638C17.867 9.19658 17.5945 9.58946 17.1841 9.66331C16.7743 9.73699 16.3823 9.46419 16.3081 9.05454C16.2341 8.64497 16.5054 8.25325 16.915 8.17856Z" fill="#FEFEFE"/>
<path d="M22.1192 2.92923C22.3747 2.9368 22.6164 3.04745 22.79 3.23503C22.996 3.45661 23.072 3.7392 23.061 4.03668C23.0301 4.86582 21.6151 7.40713 21.0465 7.93486C20.9105 8.06077 20.6044 8.31788 20.418 8.16256C20.1207 7.91448 20.1793 7.37838 20.2185 7.03724C20.3543 5.8607 20.6702 4.69708 21.1491 3.61422C21.3233 3.22047 21.535 3.00251 21.9762 2.93676C22.0231 2.93259 22.0722 2.92795 22.1192 2.92923Z" fill="#FEFEFE"/>
<path d="M16.6657 2.00244C16.8035 2.02841 16.9392 2.05645 17.0656 2.12005C17.3292 2.25276 17.496 2.50993 17.5849 2.78434C17.851 3.60589 17.6752 6.48685 17.2886 7.23106C17.2036 7.39448 17.1082 7.50987 16.9282 7.56697C16.8555 7.54239 16.8067 7.52187 16.7419 7.47946C16.6406 7.41355 16.5546 7.32611 16.4907 7.22354C16.2469 6.8392 15.9787 5.76207 15.8819 5.29185C15.7435 4.63187 15.6671 3.96004 15.6542 3.28584C15.6512 3.12476 15.6431 2.9224 15.6711 2.7674C15.6928 2.64603 15.7403 2.53075 15.8095 2.42867C15.9941 2.15343 16.2315 2.0623 16.5396 2.00244H16.6657Z" fill="#FEFEFE"/>
</svg>
