<svg preserveAspectRatio="none" width="100%" height="100%" overflow="visible" style="display: block;" viewBox="0 0 32 32" fill="none" xmlns="http://www.w3.org/2000/svg">
<g id="bonk white">
<g id="Union">
<path d="M20.5045 18.8787C20.7217 18.8599 21.0579 18.855 21.2601 18.9135C21.4684 18.9745 21.6443 19.1158 21.7475 19.3068C22.085 19.9354 21.3607 21.3586 20.783 21.7306C20.5292 21.8939 20.0227 21.7247 19.7433 21.6356C19.3659 21.5255 18.8844 21.3352 18.5916 21.0805C18.1182 20.6684 18.1172 20.1293 18.5399 19.6794C19.0495 19.137 19.7839 18.9161 20.5045 18.8787Z" fill="var(--fill-0, #FEFEFE)"/>
<path fill-rule="evenodd" clip-rule="evenodd" d="M12.2048 7.32722C12.3558 7.3203 12.541 7.38927 12.6686 7.46271C13.8561 8.14595 15.0446 10.0868 15.4189 11.3449C17.4078 10.8906 19.0434 12.3482 20.2429 13.7461C21.1072 14.7534 21.6683 15.7756 22.1633 16.995C22.5763 17.0597 22.8761 17.1514 23.2181 17.4081C23.7408 17.804 24.1121 18.5163 24.1976 19.1761C24.463 21.2275 23.8355 23.5977 22.6517 25.2807C21.8247 26.4564 20.4341 27.0714 19.0715 27.2904C18.6487 27.9088 17.6723 29.2246 17.0354 29.59C16.3771 29.9676 15.1093 30.055 14.3623 29.9645C13.9408 29.9135 13.6513 29.8504 13.2435 29.7387C12.2345 29.4398 11.3054 28.9231 10.4481 28.3179C10.185 28.1321 9.91469 27.8121 9.62292 27.6894C9.35128 27.5752 8.95703 27.6543 8.66696 27.6339C8.37095 27.6129 8.05606 27.5555 7.76745 27.4852C6.78172 27.2451 5.74477 26.634 5.21101 25.7483C4.88916 25.2142 4.80554 24.7844 4.70574 24.1864C4.47387 22.797 4.70855 21.5103 5.01342 20.1565C5.14995 19.5502 5.30801 18.9254 5.50175 18.3321C5.64594 17.8905 5.82249 17.4454 5.9675 17.0026C6.01082 16.8702 6.16456 16.4532 6.16227 16.3345C6.15553 15.992 5.95793 15.5969 5.87529 15.2402C5.60928 14.0909 5.4308 12.6471 5.66265 11.4813C5.7286 11.1497 5.92135 10.7276 6.21966 10.5611C6.5457 10.3793 6.88735 10.3865 7.24055 10.4755C8.54634 10.8048 9.65406 12.123 10.306 13.238C10.5614 13.1255 11.729 12.6461 11.8482 12.5003C11.9178 12.4147 11.9204 12.2643 11.9103 12.1588C11.8734 11.7749 11.7427 11.3927 11.676 11.0118C11.6167 10.6847 11.5742 10.3543 11.548 10.0229C11.503 9.40687 11.494 8.20794 11.7917 7.63395C11.8817 7.46051 12.0182 7.37521 12.2048 7.32722ZM21.2525 18.1514C20.9982 18.1619 20.7725 18.1702 20.5186 18.206C19.0131 18.4187 17.6292 19.0764 16.325 19.8262C16.0435 19.9885 15.7627 20.1525 15.4838 20.3193C15.0947 20.5516 14.7374 20.7818 14.3237 20.976C13.8368 21.2044 13.6511 21.0348 13.2388 20.7878C12.2085 20.1706 10.7099 19.2409 9.46767 19.639C9.19008 19.7252 8.93945 19.8816 8.74035 20.0934C8.19131 20.6886 8.41588 21.4152 8.57852 22.1051C8.84049 23.2164 9.28789 24.1102 10.1338 24.8864C12.3708 26.777 15.9516 26.3862 18.666 26.1858C19.002 26.1609 19.3657 26.1261 19.6953 26.0428C20.8093 25.6924 21.5442 25.0485 22.0786 24.018C22.7825 22.6609 23.1628 21.1798 23.0412 19.6456C23.0042 19.2004 22.866 18.7086 22.5171 18.4055C22.1847 18.1169 21.6806 18.1431 21.2525 18.1514ZM14.1421 18.27C14.1261 18.271 14.1101 18.2731 14.0941 18.2747L13.8975 18.2973C14.03 18.4135 14.1852 18.5953 14.017 18.7639C13.7667 19.0148 13.3677 18.999 13.0601 18.8693C13.075 19.0532 13.1064 19.1212 13.2464 19.2504C13.4322 19.4217 13.8721 19.5425 14.1223 19.5402C14.5204 19.5507 14.9527 19.4936 15.2627 19.2212C15.3454 19.1486 15.426 19.0057 15.4161 18.8985C15.3669 18.3667 14.5241 18.2468 14.1421 18.27ZM12.2452 15.4698C11.7179 15.5243 11.3596 15.7838 11.0352 16.1906C10.6665 16.6529 10.3466 17.2668 10.4105 17.8729C10.4624 18.3657 10.7735 18.5148 11.2272 18.4986C12.2331 18.3459 12.8635 17.3543 13.0488 16.4201C13.1453 15.9332 12.7607 15.429 12.2452 15.4698ZM18.4486 16.5509C18.3579 16.559 18.2649 16.5664 18.1748 16.5792C18.2655 16.6393 18.3467 16.6977 18.3696 16.8134C18.3836 16.8839 18.3682 16.9577 18.3273 17.0167C18.1728 17.2414 17.7119 17.3034 17.4833 17.1917C17.4544 17.1776 17.3912 17.1587 17.36 17.1578C17.3462 17.1976 17.3634 17.3015 17.3835 17.3375C17.5708 17.6715 18.0365 17.776 18.3799 17.8099C18.7759 17.8316 19.225 17.7666 19.5391 17.5041C19.7402 17.336 19.7649 17.0792 19.5749 16.8868C19.3203 16.6293 18.8014 16.517 18.4486 16.5509ZM7.43061 11.693C7.06059 11.7782 7.07632 12.1222 7.05425 12.441C6.99124 13.2854 7.06899 14.1352 7.28383 14.9542C7.43467 15.5074 7.63106 15.9644 8.29342 15.7681C8.56296 15.6857 8.82041 15.5676 9.05932 15.4181C10.0739 14.7435 10.0097 14.2573 9.36888 13.3076C9.01775 12.7903 8.57857 12.3382 8.07137 11.9725C7.88314 11.8362 7.67281 11.6823 7.43061 11.693ZM17.7759 13.9653C17.4069 13.9853 17.1274 14.0944 16.8698 14.3727C16.7103 14.5452 16.5842 14.8407 16.6007 15.0784C16.6105 15.2198 16.6775 15.3514 16.786 15.4425C17.0674 15.6828 17.6277 15.6945 17.9876 15.6844C18.4535 15.6586 19.1511 15.5403 19.1186 14.9316C19.1053 14.6853 18.9615 14.4708 18.7789 14.3116C18.4727 14.0539 18.1667 13.9643 17.7759 13.9653ZM12.8361 8.54381C12.4941 8.77482 12.5769 9.50758 12.6018 9.88272C12.6487 10.5877 12.754 11.3579 13.0949 11.9847C13.3184 12.3829 13.9983 12.2885 14.335 12.1258C14.4951 12.0288 14.6393 11.9062 14.6841 11.7156C14.8083 11.185 14.1 9.79091 13.793 9.32288C13.6145 9.05075 13.3417 8.61655 13.0036 8.54381C12.9479 8.53183 12.8921 8.53809 12.8361 8.54381Z" fill="var(--fill-0, #FEFEFE)"/>
<path d="M21.4953 10.7098C21.9083 10.6378 22.301 10.9164 22.3694 11.3298C22.4377 11.7436 22.1554 12.1338 21.7409 12.1983C21.332 12.2618 20.9485 11.9844 20.8809 11.5764C20.8134 11.1681 21.0876 10.7811 21.4953 10.7098Z" fill="var(--fill-0, #FEFEFE)"/>
<path d="M26.2854 6.83701C26.9277 6.79594 27.4376 7.22644 27.3844 7.90211C27.3368 8.50379 26.6871 8.91526 26.229 9.22503C25.432 9.76392 24.5985 10.2263 23.6942 10.5733C23.4082 10.6858 23.0731 10.7659 22.789 10.6138C22.6291 10.3757 22.7705 10.0106 22.9208 9.80086C23.6518 8.78046 24.5982 7.88484 25.6212 7.16068C25.841 7.00503 26.0175 6.88843 26.2854 6.83701Z" fill="var(--fill-0, #FEFEFE)"/>
<path d="M19.7913 8.7828C20.2019 8.71934 20.5859 9.00078 20.6485 9.41133C20.7109 9.82218 20.4273 10.2055 20.0162 10.2666C19.607 10.3273 19.2259 10.0461 19.1637 9.63714C19.1016 9.22812 19.3824 8.8462 19.7913 8.7828Z" fill="var(--fill-0, #FEFEFE)"/>
<path d="M16.915 8.17874C17.3254 8.10393 17.7185 8.37619 17.7928 8.78656C17.8669 9.19676 17.5944 9.58965 17.1841 9.66349C16.7742 9.73717 16.3823 9.46438 16.3081 9.05472C16.234 8.64515 16.5054 8.25343 16.915 8.17874Z" fill="var(--fill-0, #FEFEFE)"/>
<path d="M22.1191 2.92942C22.3747 2.93698 22.6163 3.04763 22.79 3.23521C22.9959 3.45679 23.0719 3.73938 23.061 4.03687C23.03 4.86601 21.615 7.40731 21.0465 7.93504C20.9104 8.06095 20.6043 8.31807 20.4179 8.16274C20.1206 7.91466 20.1792 7.37857 20.2185 7.03742C20.3542 5.86088 20.6701 4.69726 21.149 3.6144C21.3232 3.22066 21.5349 3.00269 21.9761 2.93695C22.0231 2.93277 22.0721 2.92813 22.1191 2.92942Z" fill="var(--fill-0, #FEFEFE)"/>
<path d="M16.6656 2.00262C16.8034 2.02859 16.9391 2.05663 17.0655 2.12024C17.3291 2.25294 17.4959 2.51011 17.5849 2.78452C17.851 3.60608 17.6751 6.48703 17.2885 7.23125C17.2036 7.39466 17.1081 7.51005 16.9281 7.56715C16.8555 7.54257 16.8066 7.52205 16.7418 7.47964C16.6405 7.41373 16.5545 7.3263 16.4906 7.22372C16.2468 6.83938 15.9787 5.76225 15.8818 5.29204C15.7434 4.63205 15.667 3.96023 15.6541 3.28602C15.6511 3.12494 15.643 2.92259 15.6711 2.76758C15.6927 2.64621 15.7402 2.53093 15.8094 2.42886C15.994 2.15362 16.2314 2.06248 16.5395 2.00262H16.6656Z" fill="var(--fill-0, #FEFEFE)"/>
</g>
</g>
</svg>
