<svg preserveAspectRatio="none" width="100%" height="100%" overflow="visible" style="display: block;" viewBox="0 0 32 32" fill="none" xmlns="http://www.w3.org/2000/svg">
<g id="Crossmint white">
<path id="Vector" fill-rule="evenodd" clip-rule="evenodd" d="M23.0992 17.4041C21.2055 16.435 18.6789 16.1093 17.195 15.999C19.2147 15.8493 23.1675 15.3004 24.8221 13.2728C27.4118 11.3345 27.2883 4.77629 27.2883 4.77629C27.2883 4.77629 21.0742 4.09079 18.3611 7.18471C16.6749 8.863 16.1523 11.7783 16 13.8085C15.8476 11.7809 15.325 8.863 13.6388 7.18471C10.9257 4.08816 4.7116 4.77629 4.7116 4.77629C4.7116 4.77629 4.63544 8.86562 5.87773 11.5419C6.48969 12.8604 7.60854 13.9346 8.90074 14.5965C10.7944 15.5656 13.321 15.8913 14.8049 16.0016C13.321 16.1119 10.7944 16.4376 8.90074 17.4067C7.60854 18.0686 6.48969 19.1428 5.87773 20.4613C4.63544 23.135 4.7116 27.2243 4.7116 27.2243C4.7116 27.2243 10.9257 27.9098 13.6388 24.8159C15.325 23.1376 15.8476 20.2196 16 18.192C16.1523 20.2196 16.6749 23.1376 18.3611 24.8159C21.0742 27.9098 27.2883 27.2243 27.2883 27.2243C27.2883 27.2243 27.3671 23.135 26.1222 20.4586C25.5102 19.1402 24.3914 18.066 23.0992 17.4041ZM23.3067 23.1402C23.2751 23.1323 20.0315 22.2078 15.8686 16.6477C14.6474 17.6011 11.5797 20.1225 8.65911 23.5657L8.52779 23.7207L8.58032 23.5237C8.5882 23.4895 9.53896 20.1487 15.3302 15.8939C14.7708 15.064 13.455 13.1546 8.37546 8.65551L8.26252 8.55571L8.41223 8.57672C8.51991 8.59248 11.1306 9.0022 15.9002 15.148C15.9002 15.148 15.9606 15.2321 16.0709 15.3791C16.7432 14.9143 18.6894 13.5328 23.065 8.58985L23.1648 8.47691L23.1438 8.62662C23.1281 8.7343 22.7183 11.3318 16.6119 16.083C17.7649 17.5381 20.1497 20.3483 23.3487 23.0588L23.5063 23.1927L23.3093 23.1402H23.3067Z" fill="var(--fill-0, white)"/>
</g>
</svg>
