<svg width="32" height="32" viewBox="0 0 32 32" fill="none" xmlns="http://www.w3.org/2000/svg">
<path fill-rule="evenodd" clip-rule="evenodd" d="M9.53317 17.1066C9.88009 17.1067 10.2139 17.2364 10.4707 17.4689L10.5205 17.5167L14.4785 21.4718C14.727 21.7202 14.8741 22.0529 14.8916 22.4034L14.8935 22.4738V28.6476C14.8933 29.484 14.1715 30.1427 13.3584 29.9708C7.69241 28.7726 3.23076 24.3141 2.03024 18.6525C1.85956 17.8467 2.49083 17.1298 3.30368 17.1075L3.34274 17.1066H9.53317ZM4.34762 19.2247C5.56185 23.2482 8.74659 26.4318 12.789 27.6427V23.3527C12.789 22.9786 12.6405 22.62 12.3759 22.3556L9.65622 19.6378C9.39186 19.3736 9.03386 19.2248 8.66012 19.2247H4.34762Z" fill="white"/>
<path fill-rule="evenodd" clip-rule="evenodd" d="M28.6963 17.1075C29.5092 17.1298 30.1402 17.8467 29.9697 18.6525C28.7692 24.3139 24.3075 28.7724 18.6416 29.9708C17.8284 30.1426 17.1067 29.4841 17.1064 28.6476V22.4738L17.1084 22.4034C17.1257 22.0527 17.2728 21.7202 17.5215 21.4718L21.4795 17.5167L21.5293 17.4689C21.7692 17.2518 22.0763 17.1245 22.3984 17.1085L22.4677 17.1066H28.6572L28.6963 17.1075ZM23.3398 19.2247C22.966 19.2248 22.6081 19.3737 22.3437 19.6378L19.624 22.3546C19.3595 22.6189 19.211 22.9778 19.2109 23.3517V27.6427C23.2534 26.4319 26.4382 23.248 27.6523 19.2247H23.3398Z" fill="white"/>
<path fill-rule="evenodd" clip-rule="evenodd" d="M13.3584 2.02942C14.1715 1.85747 14.8933 2.51625 14.8935 3.35266V9.52649L14.8916 9.5968C14.8741 9.94727 14.727 10.28 14.4785 10.5284L10.5205 14.4835L10.4707 14.5314C10.2139 14.7638 9.88009 14.8936 9.53317 14.8937H3.34274L3.30368 14.8927C2.49084 14.8704 1.85958 14.1535 2.03024 13.3478C3.23076 7.68608 7.69241 3.22748 13.3584 2.02942ZM12.789 4.35754C8.74659 5.56829 5.56187 8.75213 4.34762 12.7755H8.66012C9.03385 12.7755 9.39186 12.6266 9.65622 12.3624L12.3759 9.64465C12.6405 9.38024 12.789 9.02159 12.789 8.64758V4.35754Z" fill="white"/>
<path fill-rule="evenodd" clip-rule="evenodd" d="M17.1064 3.35364C17.1065 2.51695 17.8279 1.85791 18.6406 2.02942C24.3047 3.22491 28.7664 7.68275 29.9697 13.3458C30.1437 14.165 29.4895 14.8935 28.6582 14.8937H22.4648C22.095 14.8937 21.7399 14.746 21.4775 14.4835L17.5215 10.5255C17.2729 10.2769 17.1257 9.94463 17.1084 9.59387L17.1064 9.52356V3.35364ZM19.2099 8.64563C19.2099 9.01943 19.3578 9.37833 19.622 9.6427L22.3408 12.3614C22.6054 12.6258 22.9639 12.7745 23.3379 12.7745H27.6523C26.4363 8.75033 23.2515 5.56734 19.2099 4.35852V8.64563Z" fill="white"/>
</svg>
