<svg width="32" height="32" viewBox="0 0 32 32" fill="none" xmlns="http://www.w3.org/2000/svg">
<path d="M23.9991 23.6167C23.9991 24.441 23.6904 25.1632 23.1954 25.7158C23.1945 25.7168 23.194 25.7179 23.1937 25.7192L23.1779 25.7945C23.1768 25.7997 23.1815 25.8043 23.1867 25.8031C24.6305 25.4756 25.8088 24.2549 25.8088 22.6444V14.4187C25.8088 11.9871 24.4506 9.74017 22.2459 8.52437L13.3436 3.61523L11.5801 4.61305L20.4362 9.49668C22.6409 10.7125 23.9991 12.9594 23.9991 15.391V23.6167Z" fill="white"/>
<path d="M21.5107 25.0211V16.7954C21.5107 14.3638 20.1525 12.1169 17.9478 10.9011L9.09173 6.01748L10.8552 5.01967L19.7575 9.92881C21.9622 11.1446 23.3204 13.3915 23.3204 15.8231V24.0488C23.3204 25.6594 22.1421 26.88 20.6983 27.2075C20.6931 27.2087 20.6884 27.2041 20.6895 27.1989L20.7053 27.1236C20.7056 27.1224 20.7062 27.1212 20.707 27.1202C21.202 26.5677 21.5107 25.8455 21.5107 25.0211Z" fill="white"/>
<path fill-rule="evenodd" clip-rule="evenodd" d="M6.49023 7.48894L8.27669 6.47813L17.179 11.3873C19.3837 12.6031 20.7419 14.8499 20.7419 17.2815V25.5479L20.7417 25.5477C20.7113 28.019 17.902 29.5548 15.652 28.3141L7.58363 23.8648L6.49023 23.2774V7.48894ZM18.9322 18.2795V23.0549L12.9374 19.7491V11.0442L15.3693 12.3852C17.574 13.601 18.9322 15.8479 18.9322 18.2795ZM10.6752 9.79675L11.5801 10.2957V20.4971L11.6751 20.548L18.9322 24.5499V25.4737L10.6869 20.9269L10.6752 20.9335V9.79675ZM9.20484 8.98589V21.7182L9.24736 21.7414L9.20484 21.7655L18.9211 27.1235C18.8398 27.5508 18.3294 27.7946 17.9142 27.5656L8.29997 22.2639V8.48691L9.20484 8.98589Z" fill="white"/>
</svg>
