<svg preserveAspectRatio="none" width="100%" height="100%" overflow="visible" style="display: block;" viewBox="0 0 32 32" fill="none" xmlns="http://www.w3.org/2000/svg">
<g id="Drip Haus white">
<path id="Union" d="M7.64314 25.5887C7.9669 25.6983 8.35318 25.9196 8.67732 26.0721C11.2875 27.2994 14.3469 27.3549 16.7681 28.9861C16.951 29.1093 17.6888 29.647 17.6392 29.8611L17.5904 29.8816C16.3727 30.0882 14.8179 30.0078 13.6256 29.7039C11.7482 29.2256 10.139 28.3283 8.77497 26.9549C8.34974 26.5266 7.95664 26.1117 7.64314 25.5887ZM5.60701 19.657C5.74766 19.7086 6.45596 20.33 6.66462 20.4695C7.38752 20.9546 8.14066 21.3931 8.91951 21.782C10.0278 22.3369 11.3826 22.8037 12.5748 23.1502C13.5533 23.4344 14.5576 23.6633 15.5318 23.9793C17.2848 24.5476 19.1596 25.4251 20.3482 26.8875C20.7331 27.3609 21.0123 27.8925 21.2886 28.4305L20.6578 28.8025C20.185 29.0788 19.8456 29.2085 19.3375 29.4168C18.6683 28.2672 16.9826 27.2461 15.7808 26.7459C14.2514 26.1093 12.5759 25.844 10.9927 25.3611C9.86458 25.0129 8.77277 24.556 7.73298 23.9969C7.2909 23.7552 6.72584 23.4841 6.37068 23.1258C5.89337 22.6442 5.5966 20.3903 5.60701 19.657ZM6.64607 15.1502C7.02338 15.437 7.37506 15.8169 7.74763 16.1189C9.49226 17.5331 11.5958 18.512 13.733 19.1805C15.9951 19.888 18.2488 20.35 20.3033 21.6131C22.0244 22.6715 23.4887 24.163 23.9957 26.1717C23.7894 26.5203 23.1869 27.0351 22.8775 27.3015L22.4967 27.616C22.385 27.3098 22.1602 26.9233 21.9967 26.6433C20.8092 24.6106 18.3881 23.2901 16.2076 22.5779C14.5712 22.0436 12.9569 21.7236 11.2906 21.1238C9.93754 20.6353 8.65664 19.9664 7.48298 19.1346C7.03725 18.814 6.19925 18.1334 5.85798 17.7049C5.88827 16.9465 6.23093 15.7809 6.64607 15.1502ZM8.65583 11.5506C8.89121 11.585 9.1744 11.8861 9.35017 12.0515C10.1782 12.8309 11.1462 13.5047 12.1539 14.0301C15.1626 15.5603 18.2187 15.794 21.2408 17.3992C23.1099 18.392 25.0876 20.2223 25.9293 22.2849C26.1122 22.7352 25.2714 24.2089 25.0006 24.6922L24.9185 24.4851C24.6043 23.8438 24.2439 23.2 23.7994 22.6365C22.3609 20.8123 20.1902 19.61 18.024 18.868C16.494 18.3439 14.9349 17.9776 13.4117 17.4402C11.8898 16.9033 10.4467 16.2423 9.15486 15.2664C8.70926 14.9297 7.71472 14.12 7.40974 13.6678C7.50598 13.2984 8.38064 11.8123 8.65583 11.5506ZM11.1929 8.15311C11.3515 8.2305 11.8828 8.81529 12.0718 8.96951C14.061 10.5921 16.4586 11.2672 18.8717 11.9754C20.6777 12.5055 22.4857 13.3123 23.942 14.5291C24.5964 15.0761 25.3608 15.7485 25.8189 16.4881C26.0787 16.9638 26.2968 18.0679 26.3297 18.614C26.3455 18.8752 26.4661 19.9463 26.3258 20.116C26.198 20.0785 25.8049 19.4348 25.6842 19.2664C23.5076 16.3352 20.5987 15.1987 17.2135 14.2215C14.4716 13.43 11.5311 12.4248 9.63044 10.1619L9.63826 10.1433C9.80178 9.75121 10.8735 8.5214 11.1929 8.15311ZM16.1011 2.01736C16.7072 2.2532 20.0142 6.89274 20.6275 7.72733C21.4448 8.8395 22.2856 9.93817 23.067 11.076C23.322 11.4472 23.5582 11.8306 23.7994 12.2107C23.9868 12.5063 24.1874 12.7991 24.3433 13.1131C23.9762 12.8942 23.5709 12.5636 23.2066 12.3162C22.7687 12.0189 22.4093 11.8242 21.9381 11.5838C21.0231 11.1073 20.0036 10.731 19.0162 10.4344C18.3489 10.2339 17.6698 10.0651 17.0074 9.8494C15.5952 9.38958 14.1578 8.72073 12.9801 7.80643C12.726 7.60915 12.3335 7.33972 12.1705 7.05936C12.1331 6.99489 12.1293 6.94012 12.151 6.86893C12.2629 6.50275 15.1638 2.80553 15.5797 2.35721C15.7157 2.21059 15.8457 2.1001 16.0211 2.00369C16.0493 2.00585 16.0745 2.00705 16.1011 2.01736Z" fill="var(--fill-0, white)"/>
</g>
</svg>
