<svg preserveAspectRatio="none" width="100%" height="100%" overflow="visible" style="display: block;" viewBox="0 0 32 32" fill="none" xmlns="http://www.w3.org/2000/svg">
<g id="EURC Token white">
<path id="Union" d="M12.6514 4.84974L12.6475 4.83607C7.86331 6.2795 4.35944 10.7271 4.35938 16.0001C4.35957 21.273 7.86346 25.7314 12.6475 27.1632L12.666 27.1681H12.6514V29.5441L12.6465 29.5607L12.6475 29.5617L12.6455 29.5675L12.6445 29.5734C6.53954 28.082 2.01876 22.5711 2.01855 16.0001C2.01862 9.43671 6.52882 3.93082 12.623 2.43178H12.6514V4.84974ZM19.3555 2.42592C25.4605 3.91732 29.9813 9.42914 29.9814 16.0001C29.9812 22.5631 25.4716 28.0682 19.3779 29.5675H19.3486V27.1495L19.3535 27.1622C24.137 25.7185 27.6404 21.2726 27.6406 16.0001C27.6405 10.7272 24.1366 6.27952 19.3525 4.83607L19.334 4.83119H19.3486V2.45521L19.3545 2.43178L19.3555 2.42592ZM17.4434 9.00599C18.5737 9.00599 19.7047 9.26293 20.707 9.78724L20.7686 9.81947L20.71 9.79408L19.9648 11.5646L19.8389 11.8624L19.957 11.5675C19.1427 11.2419 18.2582 11.0559 17.4092 11.0558C15.7302 11.0559 14.1475 11.77 13.3887 13.4894H19.1299L19.1436 13.4953L19.1494 13.4982L18.4277 15.2453L18.4219 15.2579V15.2482H12.9541C12.9315 15.4868 12.919 15.7372 12.9189 15.9992C12.9189 16.2613 12.9315 16.5123 12.9541 16.7511H17.791L17.7988 16.754L17.8047 16.757L17.8105 16.7589L17.0879 18.506L17.083 18.5187V18.5089H13.3887C14.1473 20.229 15.7299 20.9434 17.4092 20.9435C18.2583 20.9434 19.1427 20.7575 19.957 20.4318L20.2568 20.3117L19.959 20.4367L19.9648 20.4347L20.71 22.2052L20.7373 22.2687L20.707 22.212C19.7046 22.7365 18.5738 22.9933 17.4434 22.9933C14.716 22.993 11.9586 21.4685 10.959 18.5089H9.1748V18.504H9.16895V16.757H9.1748V16.7511H10.5986C10.5776 16.5077 10.5664 16.2564 10.5664 15.9992C10.5664 15.7421 10.5777 15.4914 10.5986 15.2482H9.1748V15.2423H9.16895V13.4953H9.1748V13.4894H10.96C11.9599 10.5307 14.7165 9.00628 17.4434 9.00599ZM12.623 2.43178H12.6211L12.6445 2.42592C12.6374 2.42766 12.6302 2.43002 12.623 2.43178Z" fill="var(--fill-0, white)"/>
</g>
</svg>
