<svg width="32" height="32" viewBox="0 0 32 32" fill="none" xmlns="http://www.w3.org/2000/svg">
<path d="M12.6514 4.84961L12.6475 4.83594C7.86331 6.27937 4.35944 10.727 4.35938 16C4.35957 21.2729 7.86346 25.7313 12.6475 27.1631L12.666 27.168H12.6514V29.5439L12.6465 29.5605L12.6475 29.5615L12.6455 29.5674L12.6445 29.5732C6.53954 28.0819 2.01876 22.571 2.01855 16C2.01862 9.43657 6.52882 3.93068 12.623 2.43164H12.6514V4.84961Z" fill="white"/>
<path d="M19.3555 2.42578C25.4605 3.91718 29.9813 9.429 29.9814 16C29.9812 22.563 25.4716 28.068 19.3779 29.5674H19.3486V27.1494L19.3535 27.1621C24.137 25.7183 27.6404 21.2725 27.6406 16C27.6405 10.7271 24.1366 6.27939 19.3525 4.83594L19.334 4.83105H19.3486V2.45508L19.3545 2.43164L19.3555 2.42578Z" fill="white"/>
<path d="M17.4434 9.00586C18.5737 9.00586 19.7047 9.2628 20.707 9.78711L20.7686 9.81934L20.71 9.79395L19.9648 11.5645L19.8389 11.8623L19.957 11.5674C19.1427 11.2418 18.2582 11.0557 17.4092 11.0557C15.7302 11.0558 14.1475 11.7699 13.3887 13.4893H19.1299L19.1436 13.4951L19.1494 13.498L18.4277 15.2451L18.4219 15.2578V15.248H12.9541C12.9315 15.4867 12.919 15.7371 12.9189 15.999C12.9189 16.2611 12.9315 16.5122 12.9541 16.751H17.791L17.7988 16.7539L17.8047 16.7568L17.8105 16.7588L17.0879 18.5059L17.083 18.5186V18.5088H13.3887C14.1473 20.2289 15.7299 20.9432 17.4092 20.9434C18.2583 20.9433 19.1427 20.7573 19.957 20.4316L20.2568 20.3115L19.959 20.4365L19.9648 20.4346L20.71 22.2051L20.7373 22.2686L20.707 22.2119C19.7046 22.7364 18.5738 22.9932 17.4434 22.9932C14.716 22.9929 11.9586 21.4684 10.959 18.5088H9.1748V18.5039H9.16895V16.7568H9.1748V16.751H10.5986C10.5776 16.5076 10.5664 16.2563 10.5664 15.999C10.5664 15.742 10.5777 15.4913 10.5986 15.248H9.1748V15.2422H9.16895V13.4951H9.1748V13.4893H10.96C11.9599 10.5306 14.7165 9.00615 17.4434 9.00586Z" fill="white"/>
<path d="M12.623 2.43164H12.6211L12.6445 2.42578C12.6374 2.42753 12.6302 2.42989 12.623 2.43164Z" fill="white"/>
</svg>
