<svg preserveAspectRatio="none" width="100%" height="100%" overflow="visible" style="display: block;" viewBox="0 0 32 32" fill="none" xmlns="http://www.w3.org/2000/svg">
<g id="Fomo white">
<path id="Subtract" fill-rule="evenodd" clip-rule="evenodd" d="M3.62862 11.7754C5.91366 8.22642 11.0683 5.70179 14.9583 8.24636C15.6906 8.72544 16.5094 9.58976 16.9053 10.373C16.9237 10.3523 16.9429 10.3316 16.9623 10.3117C18.7543 8.47138 20.9578 7.26647 23.5586 7.22392C26.0967 7.24193 28.1534 8.45113 29.2649 10.7691C30.2807 12.8872 30.149 15.309 29.4178 17.4924C27.9176 21.971 22.9387 26.0147 18.0558 24.4246C16.7639 24.0032 15.3545 22.8487 14.7603 21.6005C14.6162 21.761 14.4658 21.9159 14.3093 22.0643C11.3289 24.9115 6.56036 26.0908 3.4392 22.7951C2.70635 21.9378 2.36 21.2929 2.00348 20.2175H5.9361C6.57615 20.218 7.22959 20.2235 7.87012 20.2132C7.95413 20.2118 8.15589 20.185 8.22098 20.1314C8.3136 20.0545 8.38014 19.964 8.41578 19.8483C8.60422 19.2372 8.77695 18.6132 8.95176 17.9983L9.87949 14.7641L10.3799 13.0292C10.4766 12.6937 10.5921 12.3459 10.6404 12.0036C10.6698 11.7951 10.394 11.7795 10.2529 11.7754C9.95603 11.7667 9.63166 11.7708 9.33706 11.7711L7.6538 11.7722C6.34819 11.7718 4.92026 11.7427 3.62862 11.7754ZM15.7956 11.7571C14.1054 14.2468 13.3378 17.262 14.1597 20.2078C14.5342 20.2332 15.0337 20.2175 15.4222 20.2175L19.6583 20.2164C20.0386 20.2169 20.4225 20.2236 20.8024 20.2067C21.0197 20.1971 21.113 20.118 21.2113 19.9291C21.3199 19.652 21.4407 19.182 21.5278 18.8776L22.9602 13.8816C23.1154 13.3415 23.274 12.7932 23.4263 12.2511C23.5231 11.9068 23.4824 11.7812 23.0883 11.7754C22.4157 11.7655 21.7376 11.7705 21.0628 11.7711L17.141 11.7732C16.9579 11.7732 15.9276 11.7842 15.7956 11.7571Z" fill="var(--fill-0, white)"/>
</g>
</svg>
