<svg width="32" height="32" viewBox="0 0 32 32" fill="none" xmlns="http://www.w3.org/2000/svg">
<path d="M25.7894 28.2331C28.1108 28.2331 29.9928 26.3532 29.9928 24.0341C29.9928 21.7151 28.1108 19.8351 25.7894 19.8351C23.4679 19.8351 21.586 21.7151 21.586 24.0341C21.586 26.3532 23.4679 28.2331 25.7894 28.2331Z" fill="white"/>
<path d="M25.7441 2.93365C24.7037 2.93324 23.6998 3.31668 22.925 4.01039C16.777 8.55071 12.3877 4.78844 11.4153 3.80959C11.355 3.74183 11.2118 3.59123 11.2118 3.59123C10.5167 2.918 9.63837 2.46428 8.68664 2.28675C7.73492 2.10922 6.75189 2.21574 5.86039 2.59302C4.96889 2.97029 4.20842 3.60159 3.67397 4.40807C3.13952 5.21455 2.85477 6.16045 2.85529 7.12764C2.86289 7.79631 3.00115 8.45707 3.26232 9.0728C3.57889 9.85085 4.32761 10.5787 4.7296 11.1961C5.48335 12.3331 5.88786 13.3421 5.88786 14.7852C5.87492 16.6158 5.16842 18.3734 3.91054 19.7045C3.77486 19.8652 3.18192 20.5404 3.17438 20.5454C2.52672 21.4022 2.13109 22.4225 2.03196 23.4915C1.93283 24.5606 2.13412 25.6362 2.61321 26.5972C3.09229 27.5583 3.8302 28.3669 4.744 28.932C5.65779 29.4972 6.71128 29.7967 7.78608 29.7967C8.86083 29.7967 9.9143 29.4972 10.8281 28.932C11.7419 28.3669 12.4798 27.5583 12.9589 26.5972C13.438 25.6362 13.6393 24.5606 13.5401 23.4915C13.441 22.4225 13.0454 21.4022 12.3977 20.5454L11.8751 19.9505C10.5859 18.6947 9.80427 17.0088 9.67917 15.2144C9.55408 13.4198 10.0943 11.6421 11.1968 10.2198C11.4456 9.89759 11.7222 9.59781 12.0233 9.32377C12.0339 9.31163 12.0456 9.30066 12.0585 9.29114C13.4665 8.01087 15.3184 7.32885 17.2213 7.38976C19.1243 7.45068 20.9287 8.24975 22.2517 9.6174C22.3874 9.76051 22.7994 10.1997 22.8647 10.2549C23.8195 11.0807 24.6059 11.4321 25.739 11.4321C26.8672 11.4321 27.9491 10.9844 28.7468 10.1875C29.5445 9.3906 29.9927 8.30981 29.9927 7.18285C29.9927 6.05589 29.5445 4.97509 28.7468 4.17821C27.9491 3.38133 26.8672 2.93365 25.739 2.93365H25.7441Z" fill="white"/>
</svg>
