<svg width="32" height="32" viewBox="0 0 32 32" fill="none" xmlns="http://www.w3.org/2000/svg">
<path fill-rule="evenodd" clip-rule="evenodd" d="M16.0036 27.3089C17.3258 27.3089 18.3991 28.3915 18.3991 29.7259H13.609C13.609 28.3917 14.6806 27.3091 16.0036 27.3089ZM9.18617 22.1849C10.8034 24.0951 13.1943 25.3161 15.8698 25.3568L10.2018 29.2562C9.99483 29.3989 9.7123 29.2619 9.69301 29.0091L9.18617 22.1849ZM22.2955 29.0013C22.2763 29.2533 21.9946 29.3913 21.7868 29.2484L16.1295 25.3568C18.7959 25.3187 21.1822 24.108 22.7995 22.2113L22.2955 29.0013ZM4.21742 22.9681C5.25141 22.1361 6.75906 22.3066 7.58363 23.35C8.40818 24.3934 8.23877 25.9153 7.20473 26.7474L4.21742 22.9681ZM24.7604 23.35C25.5849 22.3066 27.0917 22.1353 28.1266 22.9681L25.1403 26.7474C24.1053 25.9144 23.9358 24.3934 24.7604 23.35ZM7.16176 14.8294C7.08299 15.3122 7.04067 15.8082 7.04067 16.3138C7.0415 18.4194 7.75428 20.3584 8.95082 21.8949L2.48403 19.8822C2.24468 19.8076 2.17477 19.499 2.35903 19.3265L7.16176 14.8294ZM29.6422 19.3031C29.8257 19.4764 29.7566 19.785 29.5172 19.8587L23.0807 21.8626C24.2622 20.3312 24.9655 18.4049 24.9655 16.3138C24.9655 15.8007 24.9227 15.2986 24.8414 14.8099L29.6422 19.3031ZM3.54653 11.1117C4.83589 11.4087 5.64233 12.704 5.34828 14.0052C5.05417 15.3066 3.77068 16.1214 2.4811 15.8246L3.54653 11.1117ZM29.5895 15.8236C28.3009 16.121 27.0164 15.3065 26.7223 14.0052C26.4283 12.7047 27.2353 11.4083 28.5241 11.1107L29.5895 15.8236ZM26.6979 7.44273C26.9459 7.40467 27.1408 7.65127 27.0495 7.88804L24.6705 14.0062C24.0437 11.6022 22.4611 9.58989 20.3571 8.40855L26.6979 7.44273ZM5.30922 7.43199L11.6647 8.39781C9.55574 9.57742 7.96772 11.591 7.33754 13.9974L4.95766 7.87632C4.86549 7.64124 5.06118 7.39394 5.30922 7.43199ZM15.7204 2.38023C15.8452 2.16037 16.1601 2.16037 16.2858 2.38023L19.4899 7.97984C18.419 7.52236 17.2396 7.26988 16.0036 7.26988C14.7677 7.26993 13.5897 7.52241 12.5172 7.97984L15.7204 2.38023ZM12.1715 3.38609C12.7455 4.58846 12.2447 6.03233 11.0534 6.61167C9.86181 7.19093 8.4301 6.68524 7.8561 5.48277L12.1715 3.38609ZM24.0426 5.48277C23.4687 6.68524 22.0369 7.19093 20.8454 6.61167C19.654 6.03228 19.1533 4.58841 19.7272 3.38609L24.0426 5.48277Z" fill="white"/>
</svg>
