<svg preserveAspectRatio="none" width="100%" height="100%" overflow="visible" style="display: block;" viewBox="0 0 28 28" fill="none" xmlns="http://www.w3.org/2000/svg">
<g id="Frame 134">
<g id="Union">
<path d="M21.9137 17.2038C22.1513 17.2041 22.2698 17.4915 22.1017 17.6595L19.5212 20.2378C19.4211 20.3376 19.2854 20.3939 19.144 20.3939H6.08626C5.8488 20.3935 5.72925 20.1062 5.89714 19.9382L8.4777 17.3599C8.57761 17.2601 8.71371 17.204 8.85482 17.2038H21.9137Z" fill="var(--fill-0, white)"/>
<path d="M19.144 12.3571C19.2851 12.3571 19.4211 12.4136 19.5212 12.5132L22.1017 15.0915C22.2699 15.2595 22.1513 15.5469 21.9137 15.5472H8.85482C8.71356 15.547 8.57764 15.491 8.4777 15.3911L5.89714 12.8128C5.72984 12.6448 5.84899 12.3575 6.08626 12.3571H19.144Z" fill="var(--fill-0, white)"/>
<path d="M21.9137 7.57194C22.1515 7.57203 22.27 7.85962 22.1017 8.02767L19.5223 10.606C19.4222 10.7058 19.2855 10.762 19.144 10.762H6.08626C5.84889 10.7616 5.72949 10.4744 5.89714 10.3063L8.4777 7.72803C8.57757 7.62816 8.71367 7.57219 8.85482 7.57194H21.9137Z" fill="var(--fill-0, white)"/>
<path fill-rule="evenodd" clip-rule="evenodd" d="M14 0C21.732 3.187e-05 28 6.26807 28 14C27.9999 21.732 21.732 28 14 28C6.26811 28 6.49418e-05 21.732 0 14C0 6.26806 6.26807 0 14 0ZM14 1.16667C6.9124 1.16667 1.16667 6.91239 1.16667 14C1.16673 21.0876 6.91244 26.8333 14 26.8333C21.0876 26.8333 26.8333 21.0876 26.8333 14C26.8333 6.91241 21.0877 1.1667 14 1.16667Z" fill="var(--fill-0, white)"/>
</g>
</g>
</svg>
