<svg preserveAspectRatio="none" width="100%" height="100%" overflow="visible" style="display: block;" viewBox="0 0 27.9961 11.5137" fill="none" xmlns="http://www.w3.org/2000/svg">
<g id="Jito Green Logo 1" clip-path="url(#clip0_0_4)">
<path id="Vector" d="M7.44763 6.11568C7.44763 7.53885 6.96111 8.73278 5.98806 9.69462C5.01505 10.6592 3.82952 11.1402 2.43151 11.1402H0.351251V9.07669H2.43151C3.25914 9.07669 3.95535 8.79429 4.52014 8.22669C5.08496 7.66187 5.36735 6.95728 5.36735 6.11849L5.3506 0.369808H7.44763V6.11568Z" fill="var(--fill-0, white)"/>
<path id="Vector_2" d="M8.94347 0.467862H11.0237L10.9902 2.49779H8.92668L8.94347 0.467862ZM8.94347 3.31983H11.0237V11.1376H8.92668L8.94347 3.31983Z" fill="var(--fill-0, white)"/>
<path id="Vector_3" d="M14.6534 2.59815H18.2268V4.67841H14.6199V7.55834C14.6199 7.98613 14.7541 8.34405 15.0253 8.63484C15.2965 8.92559 15.6348 9.0738 16.0402 9.0738H18.2072V11.1373H16.0598C15.0756 11.1373 14.2452 10.7878 13.5685 10.086C12.8919 9.38416 12.5536 8.53139 12.5536 7.52199V0.397665H14.6171L14.6506 2.59535L14.6534 2.59815Z" fill="var(--fill-0, white)"/>
<path id="Vector_4" d="M26.4028 9.91282C25.5752 10.7321 24.563 11.1403 23.3663 11.1403C22.1696 11.1403 21.1435 10.7293 20.3214 9.90442C19.4994 9.07958 19.0883 8.07022 19.0883 6.87074C19.0883 5.67122 19.5022 4.65904 20.3298 3.82862C21.1574 2.9982 22.1696 2.58438 23.3663 2.58438C24.563 2.58438 25.5752 2.9982 26.4028 3.82862C27.2304 4.65904 27.6442 5.67122 27.6442 6.87074C27.6442 8.07022 27.2304 9.09637 26.4028 9.91282ZM24.9013 5.27976C24.4931 4.86876 23.9814 4.66463 23.3663 4.66463C22.7512 4.66463 22.2311 4.87712 21.8061 5.30494C21.3811 5.73273 21.1686 6.2528 21.1686 6.87074C21.1686 7.48864 21.3811 8.01152 21.8061 8.4365C22.2311 8.86428 22.7512 9.07681 23.3663 9.07681C23.9814 9.07681 24.5155 8.86709 24.9349 8.44489C25.3543 8.02269 25.564 7.49984 25.564 6.87074C25.564 6.27518 25.3096 5.69079 24.9013 5.27976Z" fill="var(--fill-0, white)"/>
</g>
<defs>
<clipPath id="clip0_0_4">
<rect width="27.9961" height="11.5137" fill="white"/>
</clipPath>
</defs>
</svg>
