<svg preserveAspectRatio="none" width="100%" height="100%" overflow="visible" style="display: block;" viewBox="0 0 32 32" fill="none" xmlns="http://www.w3.org/2000/svg">
<g id="Jupiter Lend white">
<g id="Union">
<path d="M8.67532 14.7576C10.3837 14.6732 13.1707 15.3217 14.6102 16.2459C13.5999 16.2696 12.5893 16.2744 11.5789 16.2604L5.67911 16.2639C5.67877 16.0688 5.67924 15.9035 5.69285 15.7089C6.25634 15.077 7.86817 14.8007 8.67532 14.7576Z" fill="var(--fill-0, white)"/>
<path d="M9.43187 11.1609C10.1911 11.1278 10.8773 11.166 11.6268 11.2924C14.9305 11.8495 18.7721 13.813 21.06 16.2662C20.8283 16.2453 20.5801 16.2589 20.3453 16.2605L19.2498 16.2627C18.268 16.2671 18.3947 16.3027 17.6037 15.7103C17.0875 15.3603 16.5551 15.0347 16.0084 14.7347C14.429 13.8575 12.7098 13.2597 10.9268 12.9679C10.6584 12.9241 10.2662 12.8394 9.99991 12.8359C9.34529 12.8272 8.59608 12.7848 7.9499 12.8539C7.26618 12.9269 6.55896 13.1384 5.9059 13.3313C5.98408 12.9303 6.08471 12.6448 6.36396 12.3363C7.09829 11.5249 8.37487 11.208 9.43187 11.1609Z" fill="var(--fill-0, white)"/>
<path d="M11.2837 7.85536C13.0797 7.76109 15.0508 8.24163 16.7196 8.92076C19.6729 10.1226 22.6589 12.1624 24.5199 14.7817C24.8654 15.2681 25.1428 15.7093 25.3771 16.2525C24.9179 16.2527 24.5836 16.2837 24.1131 16.2389C23.8702 16.0122 23.5049 15.5219 23.2471 15.2389C22.5345 14.4682 21.7625 13.7548 20.9381 13.1052C18.414 11.1147 15.0935 9.5214 11.8957 9.02063C11.0919 8.89476 10.1287 8.87652 9.31339 8.89486C9.07292 8.90027 8.5109 8.98164 8.24779 9.01273C9.09655 8.14746 10.1117 7.92151 11.2837 7.85536Z" fill="var(--fill-0, white)"/>
<path d="M15.7238 5.56128C16.0444 5.5292 16.5334 5.55443 16.8514 5.58133C18.2624 5.69109 19.6375 6.07987 20.8971 6.72503C23.0917 7.84784 24.8208 9.70762 25.781 11.978C26.0427 12.5913 26.134 12.9754 26.3314 13.5878C25.974 13.202 25.618 12.7243 25.2406 12.3107C22.5393 9.34538 18.1879 6.84941 14.2361 6.12937C13.9274 6.07311 13.6108 5.99401 13.3002 5.95781C13.9758 5.74106 15.0186 5.60319 15.7238 5.56128Z" fill="var(--fill-0, white)"/>
<path fill-rule="evenodd" clip-rule="evenodd" d="M4.56399 7.9247C7.90261 3.19713 13.8063 1.0113 19.4189 2.42464C25.7083 4.00845 30.0864 9.70459 29.9987 16.1895C29.911 22.6744 25.3802 28.2499 19.0503 29.663C13.4016 30.9239 7.55911 28.5791 4.34965 23.763C1.14018 18.9469 1.22537 12.6523 4.56399 7.9247ZM16.0996 3.40657C15.6176 3.40225 15.0775 3.39897 14.5985 3.4333C14.3756 3.44927 14.0343 3.52033 13.8056 3.5612C12.0482 3.86384 10.3768 4.54233 8.90568 5.55027C6.1277 7.44132 4.2129 10.3567 3.5811 13.6572C3.44814 14.3807 3.38083 15.1094 3.40018 15.8429C3.41128 16.2641 3.38421 16.6943 3.4181 17.1148C3.60933 19.272 4.35311 21.3437 5.57771 23.1299C7.49846 25.9378 10.4718 27.8512 13.8233 28.4362C15.0095 28.6513 16.2427 28.6059 17.446 28.5503C17.8578 28.5312 18.31 28.3693 18.7169 28.3421C19.2499 28.1864 19.6499 28.1122 20.1983 27.9118C21.7617 27.3404 23.194 26.5271 24.4273 25.4014C24.6322 25.2144 24.908 24.9554 25.0799 24.7401C24.391 24.6678 23.6836 24.716 22.9908 24.7048C22.6846 24.696 22.3611 24.7255 22.0587 24.6732C19.4559 24.2229 18.4102 21.0253 20.2875 19.1368C21.4839 17.9333 22.8666 18.153 24.4098 18.1532L28.4201 18.1513C28.6015 17.4292 28.5636 16.9604 28.589 16.2405C28.662 14.1847 28.2518 12.2771 27.3289 10.4159C25.9946 7.72499 23.7513 5.59281 20.9959 4.39678C20.6036 4.22761 20.1637 4.06214 19.7558 3.93198C19.4917 3.84769 19.2162 3.79324 18.948 3.70307C18.491 3.61898 17.9601 3.50358 17.5085 3.44333C17.107 3.38979 16.5136 3.41028 16.0996 3.40657ZM22.5887 19.6119C21.5786 19.6454 20.7877 20.4923 20.8232 21.5023C20.8588 22.5122 21.7076 23.3016 22.7175 23.2639C23.7244 23.2263 24.5109 22.3806 24.4754 21.3737C24.44 20.3666 23.5959 19.5784 22.5887 19.6119Z" fill="var(--fill-0, white)"/>
</g>
</g>
</svg>
