<svg preserveAspectRatio="none" width="100%" height="100%" overflow="visible" style="display: block;" viewBox="0 0 27.9932 27.9922" fill="none" xmlns="http://www.w3.org/2000/svg">
<g id="Frame 136">
<g id="Union">
<path d="M6.26172 22.0273C7.68774 21.8243 9.22693 22.0755 10.5781 22.5107C12.2892 23.0639 13.8786 23.9355 15.2627 25.0771C14.8475 25.124 14.4257 25.1514 13.998 25.1514C12.9044 25.1513 11.8483 24.9907 10.8496 24.6973C10.4477 24.5296 10.0379 24.3823 9.62305 24.2588C8.36693 23.7225 7.2308 22.9612 6.26172 22.0273Z" fill="var(--fill-0, white)"/>
<path d="M4.61816 20.0293C5.57893 18.4706 8.39229 18.5506 9.79785 18.7998C12.9872 19.3657 16.2235 21.1081 18.4902 23.3643C18.6776 23.5528 18.8573 23.7491 19.0332 23.9482C18.514 24.2114 17.9721 24.4358 17.4102 24.6162C16.1159 23.3426 14.5258 22.2614 12.8926 21.5088C10.4566 20.3862 7.56762 19.7507 4.94141 20.5029C4.82988 20.3479 4.72179 20.1901 4.61816 20.0293Z" fill="var(--fill-0, white)"/>
<path d="M7.02832 16.2949C8.30067 15.4537 10.2969 15.5446 11.7295 15.8184C15.1567 16.4735 18.889 18.6459 21.124 21.3232C21.325 21.5622 21.5138 21.8114 21.6924 22.0674C21.4136 22.3332 21.1215 22.5852 20.8164 22.8213C19.887 21.7277 18.8171 20.7588 17.6328 19.9414C14.6478 17.8408 10.2652 16.0538 6.55957 16.6982C6.70667 16.5499 6.85331 16.4107 7.02832 16.2949Z" fill="var(--fill-0, white)"/>
<path d="M13.6855 13.5361C15.4516 13.5041 17.1937 13.953 18.7246 14.834C20.9184 16.0983 22.3849 18.0127 23.1494 20.3691C23.1055 20.4321 23.0618 20.4956 23.0166 20.5576C22.9675 20.4949 22.9192 20.4318 22.8701 20.3721C22.6501 20.1056 22.4199 19.8469 22.1807 19.5977C21.8111 19.1847 21.2166 18.6453 20.79 18.2871C18.721 16.5493 16.3241 15.2439 13.7422 14.4473C13.2257 14.2921 12.7011 14.1614 12.1719 14.0576C11.9617 14.018 11.3944 13.9425 11.2256 13.8916L11.21 13.8867C12.1638 13.6749 12.7018 13.5639 13.6855 13.5361Z" fill="var(--fill-0, white)"/>
<path d="M9.18555 6.3623C9.95858 6.34248 10.7472 6.57207 11.0898 7.33691C11.1733 7.52345 11.1916 7.70128 11.2158 7.90039C10.8908 7.91487 10.4999 7.90596 10.1699 7.90723C10.1028 7.19345 9.08469 7.09582 8.625 7.47949C8.5378 7.5525 8.46418 7.70262 8.4668 7.81641C8.48454 8.50288 9.59787 8.47339 10.0742 8.6748C10.3935 8.77843 10.7033 8.93335 10.9365 9.18066C11.4308 9.7051 11.3701 10.6626 10.833 11.1357C10.3475 11.5628 9.69271 11.6414 9.07422 11.6143C8.33578 11.5832 7.55279 11.2611 7.31836 10.498C7.25839 10.3026 7.23876 10.1441 7.2168 9.94238L8.2666 9.93945C8.37571 10.57 8.78409 10.7248 9.39746 10.7119C9.7438 10.7045 10.2453 10.4458 10.1816 10.0361C10.0881 9.44267 8.98225 9.42693 8.53027 9.23828C8.23562 9.11823 8.01165 9.05747 7.76562 8.83887C7.22198 8.3964 7.24471 7.47886 7.70312 6.97949C8.0939 6.5542 8.6234 6.39251 9.18555 6.3623Z" fill="var(--fill-0, white)"/>
<path fill-rule="evenodd" clip-rule="evenodd" d="M14.1729 6.3623C15.615 6.30374 16.6011 7.27363 16.6973 8.68359C16.75 9.45955 16.6181 10.244 16.0938 10.8516C15.6489 11.3663 15.1011 11.5569 14.4463 11.6133C12.974 11.6627 12.0343 10.7131 11.9238 9.28516C11.8068 7.76765 12.5456 6.47262 14.1729 6.3623ZM14.1602 7.32324C13.1226 7.46197 12.9247 8.53462 13.0371 9.40039C13.1438 10.2202 13.6405 10.7176 14.4805 10.6494C15.5267 10.4967 15.7017 9.39098 15.5742 8.52148C15.4603 7.74772 14.9514 7.26291 14.1602 7.32324Z" fill="var(--fill-0, white)"/>
<path d="M18.5977 6.43555L18.5996 10.6572H20.7881L20.7871 11.5488H17.5117L17.5137 8.00488L17.5098 7.01855C17.5088 6.85599 17.5014 6.58366 17.5166 6.43066C17.8559 6.42505 18.2628 6.42087 18.5977 6.43555Z" fill="var(--fill-0, white)"/>
<path fill-rule="evenodd" clip-rule="evenodd" d="M13.9971 0C21.7266 0.000119739 27.9931 6.26653 27.9932 13.9961C27.9931 21.7256 21.7266 27.9921 13.9971 27.9922C6.26744 27.9922 0.00107603 21.7257 0.000976562 13.9961C0.00103432 6.26645 6.26742 0 13.9971 0ZM13.9971 1.42383C7.0537 1.42383 1.42486 7.05274 1.4248 13.9961C1.4249 20.9394 7.05373 26.5684 13.9971 26.5684C20.9403 26.5682 26.5692 20.9393 26.5693 13.9961C26.5693 7.05281 20.9403 1.42395 13.9971 1.42383Z" fill="var(--fill-0, white)"/>
</g>
</g>
</svg>
