<svg preserveAspectRatio="none" width="100%" height="100%" overflow="visible" style="display: block;" viewBox="0 0 28.0293 28.0293" fill="none" xmlns="http://www.w3.org/2000/svg">
<g id="Frame 135">
<g id="Subtract">
<path d="M6.79785 22.3359C7.69064 22.2482 8.61961 22.3303 9.4707 22.501C11.4375 22.8955 13.3459 23.7898 14.9639 24.9902C14.6512 25.0169 14.3352 25.0342 14.0156 25.0342C11.254 25.0341 8.73142 24.0154 6.79785 22.3359Z" fill="var(--fill-0, white)"/>
<path d="M8.74805 18.9932C12.1245 19.1483 15.8692 21.0277 18.3389 23.3057C18.5393 23.4911 18.7346 23.682 18.9248 23.8779C18.3883 24.1457 17.828 24.3725 17.2461 24.5508C17.2439 24.5488 17.2415 24.5469 17.2393 24.5449C16.0181 23.4374 14.5976 22.5152 13.0986 21.8242C10.8918 20.8069 8.27416 20.2139 5.85254 20.6699C5.67283 20.7038 5.50164 20.7464 5.33301 20.7939C5.19228 20.6139 5.05628 20.43 4.92676 20.2412C4.99659 20.1466 5.08868 20.0473 5.21777 19.9287C6.10072 19.1182 7.59642 18.9404 8.74805 18.9932Z" fill="var(--fill-0, white)"/>
<path d="M6.80762 17.0264C8.35532 15.3176 12.037 15.9876 13.9277 16.6533C16.7923 17.6622 19.5714 19.4206 21.5107 21.7832C21.5553 21.8375 21.6003 21.896 21.6475 21.9561C21.3575 22.235 21.0525 22.498 20.7334 22.7441C19.7527 21.6829 18.6464 20.7443 17.4365 19.9531C14.8573 18.2393 11.6043 16.9265 8.47656 16.8955C7.96203 16.8904 7.31299 16.9244 6.80762 17.0264Z" fill="var(--fill-0, white)"/>
<path d="M13.9346 13.8447C15.7379 13.8113 17.5159 14.276 19.0723 15.1875C21.0194 16.3275 22.4181 18.0248 23.2168 20.0703C23.1302 20.2017 23.0402 20.3306 22.9482 20.458C22.7951 20.2805 22.6396 20.1049 22.4785 19.9346C20.0593 17.4449 17.0322 15.6292 13.6963 14.6689C13.0888 14.4985 12.0722 14.2665 11.4414 14.2188C12.3593 13.9826 12.9753 13.8779 13.9346 13.8447Z" fill="var(--fill-0, white)"/>
<path d="M13.8135 6.39258C14.8487 6.34197 15.7915 6.77599 15.8633 7.90918L14.8379 7.91016C14.7627 7.32634 14.1941 7.22365 13.7061 7.30664C13.6734 7.31208 13.6407 7.31803 13.6084 7.3252C13.5008 7.38817 13.3982 7.39812 13.2861 7.52148C13.188 7.62959 13.1582 7.75434 13.165 7.89648C13.1966 8.32161 13.8324 8.45205 14.1748 8.52246C14.9792 8.68784 15.8788 9.02103 15.9248 9.98047C15.9425 10.3519 15.8429 10.7379 15.5762 11.0166C14.8572 11.7673 13.1734 11.7617 12.4121 11.0781C12.0789 10.7778 11.9522 10.3599 11.9346 9.9248C12.2739 9.91868 12.6265 9.92315 12.9668 9.92285C13.0015 10.2951 13.2118 10.541 13.5752 10.6357C13.8911 10.718 14.2817 10.7003 14.5703 10.5371C14.6978 10.4648 14.8152 10.3152 14.8428 10.1709C14.9557 9.62126 14.2536 9.50269 13.8711 9.40039C13.637 9.33778 13.3918 9.28673 13.1611 9.20996C12.8303 9.09984 12.4683 8.90582 12.2656 8.6123C12.074 8.33455 12.0311 7.95145 12.0957 7.625C12.1639 7.28204 12.364 6.97959 12.6533 6.7832L12.6807 6.76074C12.9666 6.53438 13.4628 6.40976 13.8135 6.39258Z" fill="var(--fill-0, white)"/>
<path d="M8.10645 6.45605V8.95215C8.10643 9.19555 8.08816 9.71726 8.13867 9.93262C8.17762 10.0915 8.26044 10.2367 8.37695 10.3516C8.76204 10.7345 9.50049 10.7374 9.88281 10.3457C10.1574 10.0644 10.1639 9.72936 10.1523 9.36133C10.149 9.16421 10.1477 8.93257 10.1533 8.73633C10.1441 7.98021 10.1502 7.21209 10.1504 6.45508C10.5015 6.45274 10.8739 6.46292 11.2207 6.4541V8.80664C11.2228 9.58653 11.3377 10.3861 10.7285 10.9912C9.93622 11.7779 8.31683 11.7845 7.52734 10.9932C7.32201 10.7885 7.17481 10.5325 7.10156 10.252C7.00509 9.87923 7.03408 9.22799 7.03418 8.82227L7.03516 7.03809L7.03418 6.45801C7.36922 6.4471 7.76849 6.4513 8.10645 6.45605Z" fill="var(--fill-0, white)"/>
<path fill-rule="evenodd" clip-rule="evenodd" d="M17.874 6.45312C18.7549 6.45344 19.5125 6.42904 20.2188 7.09766C20.6243 7.48164 20.8392 8.05475 20.8887 8.60742L20.8926 8.66016L20.8984 8.7168C21.008 9.89847 20.4772 11.0978 19.2471 11.4062C18.7589 11.5287 18.3477 11.5055 17.8525 11.5059C17.4502 11.5077 17.0478 11.5073 16.6455 11.5039L16.6465 7.59766L16.6455 6.45508L17.874 6.45312ZM17.7148 7.61816L17.7158 7.98828C17.7178 8.85308 17.7242 9.73241 17.7148 10.5908C18.2817 10.5916 19.0075 10.6704 19.4453 10.2363C19.7986 9.88573 19.8748 9.25384 19.835 8.77832C19.8 8.26637 19.6583 7.77259 19.166 7.52832C18.7124 7.30324 18.2044 7.39819 17.7168 7.37305L17.7148 7.61816Z" fill="var(--fill-0, white)"/>
<path fill-rule="evenodd" clip-rule="evenodd" d="M14.0146 0C21.7546 0 28.029 6.27476 28.0293 14.0146C28.0293 21.7548 21.7548 28.0293 14.0146 28.0293C6.27456 28.0292 0 21.7547 0 14.0146C0.000280375 6.27479 6.27474 4.94775e-05 14.0146 0ZM14.0156 1.49512C7.10311 1.49525 1.49919 7.10069 1.49902 14.0146C1.49902 20.9287 7.10301 26.534 14.0156 26.5342C20.9282 26.534 26.5312 20.9287 26.5312 14.0146C26.5311 7.10073 20.9281 1.49532 14.0156 1.49512Z" fill="var(--fill-0, white)"/>
</g>
</g>
</svg>
