<svg width="32" height="32" viewBox="0 0 32 32" fill="none" xmlns="http://www.w3.org/2000/svg">
<path d="M8.77148 24.3213C9.66427 24.2335 10.5932 24.3156 11.4443 24.4863C13.4111 24.8809 15.3195 25.7751 16.9375 26.9756C16.6249 27.0023 16.3088 27.0195 15.9893 27.0195C13.2276 27.0195 10.7051 26.0008 8.77148 24.3213Z" fill="white"/>
<path d="M10.7217 20.9785C14.0981 21.1337 17.8429 23.0131 20.3125 25.291C20.513 25.4764 20.7082 25.6674 20.8984 25.8633C20.3619 26.131 19.8016 26.3578 19.2197 26.5361C19.2175 26.5341 19.2151 26.5323 19.2129 26.5303C17.9917 25.4228 16.5713 24.5006 15.0723 23.8096C12.8655 22.7922 10.2478 22.1993 7.82617 22.6553C7.64647 22.6891 7.47527 22.7317 7.30664 22.7793C7.16591 22.5992 7.02992 22.4154 6.90039 22.2266C6.97022 22.1319 7.06231 22.0327 7.19141 21.9141C8.07435 21.1035 9.57005 20.9257 10.7217 20.9785Z" fill="white"/>
<path d="M8.78125 19.0117C10.329 17.303 14.0107 17.9729 15.9014 18.6387C18.7659 19.6476 21.5451 21.406 23.4844 23.7686C23.529 23.8229 23.5739 23.8814 23.6211 23.9414C23.3311 24.2204 23.0261 24.4834 22.707 24.7295C21.7264 23.6682 20.62 22.7296 19.4102 21.9385C16.831 20.2247 13.5779 18.9118 10.4502 18.8809C9.93567 18.8757 9.28663 18.9098 8.78125 19.0117Z" fill="white"/>
<path d="M15.9082 15.8301C17.7115 15.7966 19.4895 16.2613 21.0459 17.1729C22.9931 18.3129 24.3917 20.0102 25.1904 22.0557C25.1038 22.1871 25.0139 22.316 24.9219 22.4434C24.7687 22.2658 24.6132 22.0902 24.4521 21.9199C22.033 19.4303 19.0058 17.6145 15.6699 16.6543C15.0624 16.4839 14.0458 16.2518 13.415 16.2041C14.333 15.968 14.9489 15.8633 15.9082 15.8301Z" fill="white"/>
<path d="M15.7871 8.37793C16.8223 8.32732 17.7652 8.76134 17.8369 9.89453L16.8115 9.89551C16.7364 9.31169 16.1677 9.209 15.6797 9.29199C15.6471 9.29743 15.6143 9.30339 15.582 9.31055C15.4745 9.37352 15.3718 9.38347 15.2598 9.50684C15.1616 9.61494 15.1318 9.73969 15.1387 9.88184C15.1702 10.307 15.806 10.4374 16.1484 10.5078C16.9529 10.6732 17.8525 11.0064 17.8984 11.9658C17.9162 12.3372 17.8165 12.7233 17.5498 13.002C16.8309 13.7527 15.147 13.7471 14.3857 13.0635C14.0525 12.7632 13.9258 12.3453 13.9082 11.9102C14.2475 11.904 14.6001 11.9085 14.9404 11.9082C14.9751 12.2804 15.1854 12.5264 15.5488 12.6211C15.8647 12.7033 16.2554 12.6857 16.5439 12.5225C16.6714 12.4502 16.7889 12.3005 16.8164 12.1562C16.9294 11.6066 16.2272 11.488 15.8447 11.3857C15.6107 11.3231 15.3654 11.2721 15.1348 11.1953C14.8039 11.0852 14.4419 10.8912 14.2393 10.5977C14.0477 10.3199 14.0047 9.93681 14.0693 9.61035C14.1375 9.26739 14.3376 8.96495 14.627 8.76855L14.6543 8.74609C14.9402 8.51973 15.4364 8.39511 15.7871 8.37793Z" fill="white"/>
<path d="M10.0801 8.44141V10.9375C10.0801 11.1809 10.0618 11.7026 10.1123 11.918C10.1513 12.0769 10.2341 12.222 10.3506 12.3369C10.7357 12.7199 11.4741 12.7227 11.8564 12.3311C12.131 12.0498 12.1375 11.7147 12.126 11.3467C12.1226 11.1496 12.1214 10.9179 12.127 10.7217C12.1177 9.96556 12.1238 9.19744 12.124 8.44043C12.4751 8.43809 12.8475 8.44828 13.1943 8.43945V10.792C13.1965 11.5719 13.3113 12.3715 12.7021 12.9766C11.9099 13.7632 10.2905 13.7699 9.50098 12.9785C9.29564 12.7738 9.14844 12.5178 9.0752 12.2373C8.97872 11.8646 9.00771 11.2133 9.00781 10.8076L9.00879 9.02344L9.00781 8.44336C9.34285 8.43245 9.74212 8.43665 10.0801 8.44141Z" fill="white"/>
<path fill-rule="evenodd" clip-rule="evenodd" d="M19.8477 8.43848C20.7285 8.4388 21.4862 8.41439 22.1924 9.08301C22.598 9.46699 22.8129 10.0401 22.8623 10.5928L22.8662 10.6455L22.8721 10.7021C22.9817 11.8838 22.4509 13.0831 21.2207 13.3916C20.7325 13.514 20.3213 13.4908 19.8262 13.4912C19.4238 13.4931 19.0214 13.4926 18.6191 13.4893L18.6201 9.58301L18.6191 8.44043L19.8477 8.43848ZM19.6885 9.60352L19.6895 9.97363C19.6914 10.8384 19.6978 11.7178 19.6885 12.5762C20.2553 12.577 20.9812 12.6557 21.4189 12.2217C21.7722 11.8711 21.8484 11.2392 21.8086 10.7637C21.7736 10.2517 21.6319 9.75794 21.1396 9.51367C20.686 9.2886 20.1781 9.38354 19.6904 9.3584L19.6885 9.60352Z" fill="white"/>
<path fill-rule="evenodd" clip-rule="evenodd" d="M15.9883 1.98535C23.7282 1.98535 30.0026 8.26011 30.0029 16C30.0029 23.7401 23.7284 30.0146 15.9883 30.0146C8.2482 30.0146 1.97363 23.7401 1.97363 16C1.97391 8.26014 8.24837 1.9854 15.9883 1.98535ZM15.9893 3.48047C9.07674 3.4806 3.47282 9.08604 3.47266 16C3.47266 22.9141 9.07664 28.5194 15.9893 28.5195C22.9018 28.5193 28.5049 22.9141 28.5049 16C28.5047 9.08608 22.9017 3.48067 15.9893 3.48047Z" fill="white"/>
</svg>
