<svg preserveAspectRatio="none" width="100%" height="100%" overflow="visible" style="display: block;" viewBox="0 0 32 32" fill="none" xmlns="http://www.w3.org/2000/svg">
<g id="Kamino white">
<g id="Union">
<path d="M22.0961 10.1227C22.5356 10.1278 23.716 10.0938 24.1064 10.1678C24.1187 10.2595 24.0651 10.4691 23.9966 10.5202C19.1877 14.1104 18.8228 22.0207 23.4017 26.1086C23.7325 26.3751 23.9664 26.5486 24.1946 26.9074C23.5299 26.9679 22.4583 26.9394 21.7648 26.9392L17.5768 26.9373C17.3276 26.5915 17.1557 26.2492 16.9588 25.8783C15.1261 22.4252 14.6878 18.3482 15.6685 14.5725C16.0968 12.9233 16.7405 11.589 17.5998 10.1193C19.0881 10.1465 20.6061 10.1053 22.0961 10.1227Z" fill="var(--fill-0, white)"/>
<path d="M12.8854 26.9441L7.85194 26.9392L7.84998 4.20078L12.8824 4.19882L12.8854 26.9441Z" fill="var(--fill-0, white)"/>
</g>
</g>
</svg>
