<svg width="32" height="32" viewBox="0 0 32 32" fill="none" xmlns="http://www.w3.org/2000/svg">
<path d="M22.0962 10.1226C22.5357 10.1277 23.7161 10.0937 24.1065 10.1677C24.1188 10.2594 24.0652 10.469 23.9967 10.5201C19.1878 14.1103 18.8229 22.0206 23.4018 26.1085C23.7327 26.375 23.9665 26.5485 24.1947 26.9073C23.53 26.9678 22.4584 26.9393 21.765 26.9392L17.5769 26.9372C17.3278 26.5915 17.1558 26.2491 16.9589 25.8782C15.1263 22.4252 14.688 18.3481 15.6686 14.5724C16.0969 12.9232 16.7406 11.589 17.5999 10.1192C19.0882 10.1464 20.6063 10.1053 22.0962 10.1226Z" fill="white"/>
<path d="M12.8855 26.9441L7.85206 26.9392L7.8501 4.20069L12.8826 4.19873L12.8855 26.9441Z" fill="white"/>
</svg>
