<svg width="32" height="32" viewBox="0 0 32 32" fill="none" xmlns="http://www.w3.org/2000/svg">
<path d="M15.6245 21.2524L15.1704 21.3091L15.5737 19.3159L15.689 19.3022L15.6245 21.2524Z" fill="white"/>
<path d="M20.4087 17.3794C20.4721 17.3946 20.5187 17.4236 20.5474 17.4663C20.5834 17.5081 20.6071 17.5681 20.6167 17.644C20.6261 17.7201 20.625 17.8058 20.6138 17.8999L20.1118 22.1147C20.1005 22.2091 20.0766 22.2975 20.0405 22.3794C20.012 22.4603 19.9739 22.5281 19.9263 22.5806C19.8864 22.6318 19.8335 22.6731 19.7681 22.7046C19.7024 22.7361 19.6272 22.7575 19.5435 22.7681L19.1431 22.8188L19.7974 17.4214L20.1978 17.3706C20.2815 17.36 20.3524 17.3633 20.4087 17.3794Z" fill="white"/>
<path d="M16.2964 11.8735L15.8433 11.9312L16.2466 9.93799L16.3608 9.92334L16.2964 11.8735Z" fill="white"/>
<path d="M21.0815 8.00049C21.1451 8.01566 21.1917 8.04482 21.2202 8.0874C21.2562 8.1293 21.2799 8.18914 21.2896 8.26514C21.2991 8.34123 21.2979 8.42688 21.2866 8.521L20.7847 12.7358C20.7733 12.8302 20.7495 12.9195 20.7134 13.0015C20.6849 13.0823 20.6466 13.1493 20.5991 13.2017C20.5592 13.253 20.5065 13.2952 20.4409 13.3267C20.3753 13.3582 20.2999 13.3785 20.2163 13.3892L19.8159 13.4399L20.4702 8.04346L20.8716 7.99268C20.9551 7.98217 21.0255 7.9844 21.0815 8.00049Z" fill="white"/>
<path fill-rule="evenodd" clip-rule="evenodd" d="M15.9995 2.00439C23.7289 2.00439 29.9954 8.27019 29.9956 15.9995C29.9956 23.729 23.729 29.9956 15.9995 29.9956C13.1976 29.9955 10.5884 29.1714 8.3999 27.7534L9.61182 17.3315L6.76514 17.6948L8.36182 4.271C10.5581 2.83783 13.1814 2.00447 15.9995 2.00439ZM10.7847 17.1538L9.80615 25.4185L12.7251 25.0493L12.8921 23.6089L11.5757 23.7759L12.3872 16.9517L10.7847 17.1538ZM14.7261 16.6558L12.855 25.0327L14.4575 24.8306L14.8774 22.7534L15.5776 22.6655L15.5103 24.6968L17.1128 24.4946L17.2329 16.3394L14.7261 16.6558ZM21.229 15.9614C20.982 15.9075 20.6944 15.9015 20.3667 15.9429L18.3521 16.1978L17.3735 24.4614L19.3882 24.2065C19.7083 24.166 20.0044 24.0859 20.2759 23.9663C20.5475 23.8467 20.7839 23.6884 20.9839 23.4927C21.1838 23.2969 21.3446 23.0673 21.4663 22.8042C21.5946 22.5322 21.6767 22.2268 21.7114 21.8892L22.2095 17.7329C22.2518 17.3947 22.2424 17.1048 22.1812 16.8647C22.1189 16.6171 22.0043 16.4176 21.8384 16.2681C21.68 16.1178 21.476 16.0155 21.229 15.9614ZM26.3579 15.6274C26.037 15.296 25.5479 15.1716 24.8921 15.2544C24.2359 15.3373 23.7082 15.5819 23.3101 15.9888C22.9184 16.3873 22.6831 16.9174 22.604 17.5786L22.5747 17.8032C22.5381 18.1255 22.5228 18.4067 22.5298 18.646C22.5434 18.8766 22.5849 19.0811 22.6538 19.2583C22.7217 19.4276 22.8171 19.571 22.9399 19.687C23.0697 19.7944 23.237 19.8865 23.4399 19.9614L23.855 20.1187C24.0504 20.1945 24.2074 20.2639 24.3237 20.3267C24.4397 20.3892 24.5262 20.4556 24.5815 20.5259C24.6357 20.5886 24.6696 20.6671 24.6812 20.7583C24.6916 20.8421 24.6926 20.9432 24.6841 21.0601L24.6089 21.6626C24.5862 21.8513 24.5242 22.0031 24.4224 22.1167C24.3283 22.2292 24.2044 22.2955 24.0522 22.3149C23.9075 22.3332 23.8008 22.2957 23.7349 22.2036C23.669 22.1114 23.647 21.9662 23.6685 21.77L23.7974 20.7651L22.1958 20.9673L22.0864 21.854C22.0047 22.5539 22.1157 23.0673 22.4204 23.3931C22.7253 23.7185 23.21 23.8393 23.8735 23.7554C24.537 23.6714 25.0754 23.4215 25.4878 23.0054C25.8992 22.5813 26.147 22.0222 26.23 21.3296L26.2524 21.1411C26.2882 20.8112 26.2992 20.5301 26.2856 20.2993C26.2795 20.0679 26.2431 19.8704 26.1763 19.7085C26.1085 19.5392 26.0089 19.4 25.8794 19.2925C25.7573 19.184 25.594 19.0921 25.3911 19.0171L25.0259 18.8882C24.8144 18.8067 24.6461 18.7351 24.522 18.6733C24.4048 18.603 24.3136 18.5327 24.2505 18.4634C24.1876 18.394 24.1508 18.3166 24.1401 18.2329C24.1286 18.1415 24.1309 18.0323 24.146 17.9067L24.2153 17.3511C24.238 17.1624 24.2959 17.0075 24.3892 16.8872C24.4823 16.7672 24.6051 16.6975 24.7573 16.6782C24.8945 16.6609 24.9971 16.7023 25.064 16.8022C25.1296 16.8946 25.1488 17.0399 25.1196 17.2368L25.0005 18.229L26.603 18.0269L26.7114 17.1401C26.7951 16.4557 26.6772 15.9512 26.3579 15.6274ZM12.1685 7.68604L11.0601 13.1753L10.9448 13.1899L11.1382 7.81592L9.04346 8.08057L8.06494 16.3452L9.5415 16.1577L9.98975 10.7866L10.105 10.7729L10.1362 16.0825L11.1899 15.9497L12.4966 10.4702L12.6108 10.4556L11.7964 15.8735L13.2612 15.688L14.2397 7.42432L12.1685 7.68604ZM15.3989 7.27686L13.5278 15.6538L15.1294 15.4517L15.5503 13.3745L16.2505 13.2866L16.1831 15.3179L17.7856 15.1157L17.9058 6.96045L15.3989 7.27686ZM21.9019 6.58252C21.655 6.52861 21.3672 6.52258 21.0396 6.56396L19.0249 6.81885L18.0464 15.0825L20.061 14.8276C20.3812 14.7872 20.6773 14.7069 20.9487 14.5874C21.2203 14.4678 21.4567 14.3104 21.6567 14.1147C21.8567 13.919 22.0175 13.6887 22.1392 13.4253C22.2676 13.1533 22.3494 12.8478 22.3843 12.5103L22.8823 8.354C22.9247 8.01574 22.9152 7.72594 22.854 7.48584C22.7916 7.23815 22.6771 7.03866 22.5112 6.88916C22.3527 6.73879 22.1488 6.63657 21.9019 6.58252Z" fill="white"/>
<path d="M5.31299 19.1577L8.16553 18.7925L7.62939 27.2173C4.21482 24.6652 2.00439 20.5903 2.00439 15.9995C2.00449 12.1101 3.59148 8.59153 6.15283 6.05518L5.31299 19.1577Z" fill="white"/>
</svg>
