<svg width="32" height="32" viewBox="0 0 32 32" fill="none" xmlns="http://www.w3.org/2000/svg">
<path d="M21.5263 12.033L23.102 13.885C23.2836 14.093 23.4419 14.2637 23.5087 14.3615C23.9806 14.8303 24.2445 15.4622 24.2445 16.1219C24.201 16.9012 23.6919 17.4305 23.2246 17.9987L22.1224 19.2934L21.5465 19.964C21.5263 19.9873 21.5124 20.0152 21.5077 20.0463C21.503 20.0773 21.5077 20.1084 21.5217 20.1363C21.5341 20.1642 21.5558 20.1875 21.5838 20.2046C21.6117 20.2217 21.6428 20.2279 21.6738 20.2263H27.4237C28.3008 20.2263 29.4077 20.9653 29.344 22.0845C29.344 22.5921 29.136 23.0811 28.7712 23.4413C28.4048 23.8014 27.9096 24.0048 27.3943 24.0063H18.3906C17.7976 24.0063 16.2049 24.07 15.7593 22.7117C15.6646 22.4276 15.6522 22.1233 15.7221 21.8315C15.8525 21.4015 16.0574 20.9979 16.3275 20.6377C16.7808 19.9671 17.2713 19.2949 17.7541 18.6445C18.3782 17.7922 19.0177 16.9679 19.6464 16.0986C19.6682 16.0707 19.6806 16.035 19.6806 15.9993C19.6806 15.9636 19.6682 15.9279 19.6464 15.8999L17.3583 13.2159C17.3443 13.1957 17.3241 13.1817 17.3008 13.1709C17.2791 13.16 17.2558 13.1538 17.2294 13.1538C17.203 13.1538 17.1797 13.16 17.158 13.1709C17.1363 13.1817 17.1161 13.1988 17.1006 13.2159C16.4874 14.0309 13.8049 17.6417 13.2336 18.3728C12.6624 19.104 11.2528 19.1443 10.472 18.3728L6.89381 14.8319C6.87208 14.8102 6.84258 14.7931 6.80998 14.7884C6.77893 14.7822 6.74633 14.7853 6.71529 14.7977C6.68579 14.8102 6.66095 14.8303 6.64233 14.8583C6.6237 14.8862 6.61438 14.9173 6.61438 14.9483V21.7539C6.6237 22.2366 6.47778 22.7101 6.1999 23.1091C5.92203 23.5065 5.52308 23.8092 5.06203 23.9722C4.76708 24.0731 4.4535 24.1041 4.14458 24.0607C3.83566 24.0172 3.54072 23.9023 3.28768 23.7238C3.03309 23.5468 2.82508 23.3109 2.68226 23.0377C2.53944 22.7644 2.46338 22.4617 2.46338 22.1544V9.91713C2.48356 9.47627 2.645 9.05247 2.92443 8.7063C3.20075 8.36012 3.58263 8.11019 4.01418 7.99221C4.38365 7.89597 4.77329 7.89597 5.14275 7.99532C5.51221 8.09467 5.84907 8.28716 6.11763 8.55727L11.6176 13.9843C11.6347 14.0014 11.6549 14.0138 11.6766 14.0216C11.6984 14.0293 11.7216 14.0324 11.7465 14.0309C11.7698 14.0293 11.7915 14.0216 11.8117 14.0107C11.8319 13.9998 11.8505 13.9828 11.8629 13.9657L15.7702 8.63178C15.9518 8.416 16.1785 8.24059 16.4346 8.1195C16.6907 7.99842 16.9702 7.93477 17.2558 7.93167H27.4206C27.6985 7.93167 27.9733 7.99221 28.2263 8.10553C28.4793 8.21886 28.706 8.38496 28.8876 8.59142C29.0708 8.79788 29.2074 9.0416 29.2881 9.3024C29.3688 9.5663 29.3906 9.84107 29.3533 10.1127C29.2819 10.5846 29.0382 11.0147 28.6687 11.322C28.2993 11.6309 27.8305 11.797 27.3461 11.7908H21.6536C21.6241 11.7908 21.5962 11.8001 21.5729 11.8141C21.5496 11.8281 21.5294 11.8514 21.5155 11.8747C21.503 11.8995 21.4953 11.9274 21.4968 11.9554C21.4968 11.9833 21.5077 12.0097 21.5248 12.0346H21.5232L21.5263 12.033Z" fill="white"/>
</svg>
