<svg width="32" height="32" viewBox="0 0 32 32" fill="none" xmlns="http://www.w3.org/2000/svg">
<path d="M16.9507 5.39795C16.9507 8.97386 16.9507 12.3689 16.9507 15.8285C20.5616 15.8285 24.1082 15.8285 27.7097 15.8285C27.7097 19.4421 27.7097 22.9913 27.7097 26.6018C24.1317 26.6018 20.5365 26.6018 16.8502 26.6018C16.8502 23.169 16.8502 19.7016 16.8502 15.9464C16.2254 16.2641 15.7277 16.4229 15.3462 16.7279C14.3022 17.5629 13.726 18.7203 13.3257 19.9705C12.8547 21.4439 12.3429 22.8718 11.3192 24.0983C10.2925 25.3296 9.03025 26.0813 7.49167 26.3282C6.45394 26.4948 5.3895 26.487 4.29053 26.5609C4.29053 22.9787 4.29053 19.5317 4.29053 16.0376C4.69244 15.9511 5.09121 15.8741 5.48527 15.7766C7.04738 15.3881 7.71146 14.1113 8.31748 12.8187C8.97686 11.4097 9.46983 9.91579 10.2046 8.55085C11.1905 6.71729 12.8719 5.83825 14.9145 5.62282C15.5487 5.55363 16.1846 5.48129 16.9507 5.39795Z" fill="white"/>
</svg>
