<svg width="32" height="32" viewBox="0 0 32 32" fill="none" xmlns="http://www.w3.org/2000/svg">
<path fill-rule="evenodd" clip-rule="evenodd" d="M23.8783 6.53474C27.1731 6.39805 30.7376 8.44736 29.8676 12.3267C29.473 14.0858 27.6042 15.6611 26.3246 16.8345C25.248 17.8218 26.2707 19.479 25.89 20.7428C25.6923 21.4004 25.145 21.9021 24.4349 22.0094C20.646 22.218 17.0175 23.058 13.4408 24.3013C12.8911 24.4883 12.3476 24.6937 11.8119 24.9176C10.4506 25.4733 9.44636 26.0165 8.51697 24.3834C8.26038 23.9269 8.04031 23.4034 7.82166 22.9254C7.64387 22.5368 7.45254 21.8258 7.19178 21.522C6.77863 21.1201 6.10699 20.9721 5.57459 20.7525C2.91958 19.6575 1.50501 17.8158 2.15858 14.8834C2.37825 13.9069 2.97505 13.0566 3.81873 12.5181C5.7988 11.2737 8.91944 11.4529 11.0639 12.1656C11.5464 12.326 12.0297 12.5301 12.5248 12.6441C13.0837 12.4205 14.0409 11.7467 14.5746 11.3883C15.4485 10.8029 16.3133 10.204 17.1683 9.59138C19.2966 8.0703 21.1401 6.68467 23.8783 6.53474ZM27.9232 9.57088C26.9325 8.27738 25.1391 7.98394 23.6107 8.12654C22.7614 8.18929 22.0869 8.35442 21.3178 8.73787C19.6552 9.56667 18.1269 10.7956 16.601 11.8531C14.8617 13.0371 13.0878 14.1694 11.2816 15.2486C10.6505 15.6266 9.63883 16.3047 8.98475 16.525C8.7046 16.45 8.44949 16.3833 8.29237 16.1148C8.20103 15.9586 8.15074 15.7865 8.20057 15.608C8.40532 14.8744 10.6834 14.214 10.3539 13.6724C10.2181 13.45 9.64159 13.3189 9.39393 13.272C8.02692 13.0135 5.78774 13.0193 4.61756 13.8248C4.0331 14.2272 3.69736 14.808 3.57264 15.5006C3.42433 16.3243 3.48779 17.0951 3.97694 17.7955C4.54623 18.6104 5.80751 19.391 6.78358 19.564C7.04003 19.6094 7.31285 19.6277 7.56776 19.567C8.49991 19.3448 11.6158 17.3568 12.3353 18.3961C12.4588 18.5747 12.4671 18.844 12.4222 19.0504C12.3865 19.2141 12.2725 19.3432 12.1332 19.4303C11.4494 19.8571 9.08098 20.0836 8.85194 20.9478C8.71652 21.4588 9.12688 22.1051 9.33045 22.5523C9.43017 22.7714 9.50298 23.0097 9.62733 23.2164C9.76783 23.4499 9.97224 23.62 10.2416 23.6803C10.7922 23.8033 12.5702 22.9636 13.1644 22.7379C15.0926 22.0389 17.0722 21.4911 19.0853 21.0992C20.2754 20.8585 21.4095 20.6521 22.6224 20.5797C23.0609 20.5535 24.1615 20.5872 24.3812 20.1207C24.5665 19.7271 24.383 18.5093 24.223 18.1031C24.1279 17.862 23.93 17.6848 23.6937 17.5855C22.7788 17.2013 19.7047 17.6523 18.6605 17.8736C18.1266 17.9868 17.4032 18.2795 16.8695 18.2125C16.6438 18.184 16.4607 17.9871 16.3724 17.7877C16.298 17.6194 16.2845 17.3918 16.351 17.2183C16.4386 16.9902 16.6704 16.8418 16.8861 16.7525C17.4775 16.5078 18.1418 16.4326 18.766 16.3072C18.999 15.5988 19.1949 14.8722 19.4017 14.1627C19.5004 13.8242 19.9513 13.5116 20.2963 13.651C20.6419 13.7662 20.7821 14.1368 20.8998 14.4429C20.7826 14.6415 20.7509 14.8745 20.6879 15.1119C20.6194 15.3933 20.5067 15.7803 20.8021 15.9742C20.8562 16.0097 20.9792 16.0235 21.0306 15.9937C21.958 15.4559 22.5175 13.0449 23.2045 12.4732C23.9278 12.3818 24.0998 12.4958 24.3422 13.1676C24.1678 13.7709 23.5511 15.0775 23.1947 15.6207C23.2914 15.7373 23.3946 15.8543 23.4721 15.984C24.2707 16.0877 24.8357 16.1035 25.4799 15.5386C27.0935 14.1238 29.6653 11.8455 27.9232 9.57088Z" fill="#FEFEFE"/>
</svg>
