<svg preserveAspectRatio="none" width="100%" height="100%" overflow="visible" style="display: block;" viewBox="0 0 28.0002 18.9434" fill="none" xmlns="http://www.w3.org/2000/svg">
<g id="Frame 1000002794">
<path id="Subtract" d="M21.8791 0.00640994C25.1737 -0.130155 28.7374 1.91914 27.8674 5.7984C27.4728 7.55753 25.604 9.13275 24.3244 10.3062C23.2478 11.2935 24.2705 12.9507 23.8898 14.2144C23.6921 14.8721 23.1448 15.3748 22.4347 15.482C18.6459 15.6907 15.0172 16.5297 11.4406 17.773C10.8911 17.9599 10.3482 18.1655 9.81267 18.3892C8.45121 18.945 7.44622 19.4885 6.51677 17.855C6.26014 17.3985 6.04014 16.8751 5.82146 16.397C5.64371 16.0086 5.45321 15.2976 5.19255 14.9937C4.77939 14.5917 4.1068 14.4438 3.57439 14.2242C0.919526 13.1292 -0.4952 11.2874 0.158371 8.35504C0.378032 7.37863 0.974908 6.52825 1.81853 5.98981C3.79852 4.7454 6.91923 4.9246 9.06364 5.63727C9.54634 5.79774 10.0303 6.00181 10.5256 6.11578C11.0845 5.89211 12.0408 5.21835 12.5744 4.85993C13.4483 4.27457 14.3131 3.67566 15.1681 3.06305C17.2965 1.5419 19.1407 0.156237 21.8791 0.00640994ZM25.923 3.04254C24.9323 1.74938 23.1397 1.45572 21.6115 1.59821C20.7621 1.66094 20.0876 1.82709 19.3185 2.21051C17.6559 3.03932 16.1267 4.26728 14.6008 5.32477C12.8615 6.5088 11.0876 7.64108 9.28142 8.72028C8.65026 9.09828 7.63862 9.77741 6.98454 9.99762C6.70447 9.92261 6.44928 9.85586 6.29216 9.58746C6.20068 9.43111 6.15049 9.25834 6.20036 9.07965C6.40519 8.34598 8.68405 7.68575 8.35368 7.14411C8.21788 6.92164 7.64128 6.79052 7.39372 6.74371C6.0267 6.48515 3.78749 6.49098 2.61736 7.29645C2.03299 7.69884 1.69812 8.27969 1.57341 8.97223C1.42505 9.79602 1.48754 10.5667 1.97673 11.2672C2.54604 12.0823 3.80812 12.8638 4.78435 13.0367C5.0408 13.0821 5.31364 13.0994 5.56853 13.0386C6.50131 12.8159 9.6173 10.8286 10.3361 11.8687C10.4593 12.0474 10.4669 12.3159 10.422 12.522C10.3863 12.6858 10.2724 12.8149 10.133 12.9019C9.44924 13.3288 7.08084 13.5553 6.85173 14.4195C6.71628 14.9306 7.12674 15.5777 7.33025 16.025C7.42989 16.2439 7.50289 16.4815 7.62712 16.6881C7.76758 16.9215 7.97215 17.0916 8.24138 17.1519C8.79187 17.275 10.5697 16.4354 11.1642 16.2095C13.0923 15.5106 15.0721 14.9628 17.0851 14.5709C18.2751 14.3302 19.4094 14.1238 20.6222 14.0513C21.0607 14.0252 22.1623 14.059 22.382 13.5923C22.567 13.1986 22.3827 11.9821 22.2228 11.5757C22.1277 11.3344 21.9301 11.1565 21.6935 11.0572C20.7787 10.673 17.7058 11.124 16.6613 11.3453C16.1275 11.4584 15.404 11.751 14.8703 11.6841C14.6444 11.6557 14.4605 11.4589 14.3722 11.2593C14.2978 11.0911 14.2843 10.8634 14.3508 10.69C14.4383 10.4619 14.6703 10.3135 14.8859 10.2242C15.4773 9.97942 16.1415 9.9043 16.7658 9.77887C16.9988 9.07045 17.1947 8.34389 17.4015 7.63434C17.5002 7.29576 17.952 6.98391 18.297 7.1236C18.6424 7.23908 18.7829 7.60858 18.9006 7.91461C18.7834 8.11314 18.7517 8.34624 18.6886 8.58356C18.6202 8.86487 18.5068 9.25186 18.8019 9.44586C18.856 9.48132 18.9789 9.49506 19.0304 9.46539C19.9578 8.92754 20.5173 6.51661 21.2043 5.94489C21.9278 5.85338 22.0996 5.96759 22.342 6.63922C22.1675 7.24253 21.5509 8.54913 21.1945 9.09235C21.2912 9.20903 21.3943 9.32594 21.4718 9.45563C22.2706 9.55935 22.8354 9.57521 23.4797 9.01032C25.0933 7.59548 27.6651 5.31727 25.923 3.04254Z" fill="var(--fill-0, #FEFEFE)"/>
</g>
</svg>
