<svg width="32" height="32" viewBox="0 0 32 32" fill="none" xmlns="http://www.w3.org/2000/svg">
<path d="M25.0615 8.58545C25.5241 8.12297 26.2409 8.15079 26.5371 8.64053C26.8574 9.16646 27.0995 9.73478 27.2718 10.3302C27.3684 10.6686 27.2564 11.0644 26.9756 11.3454L17.9153 20.4058C17.3681 20.953 16.6874 21.3313 15.9648 21.4855L15.2124 21.6455C14.4929 21.8027 13.8061 22.181 13.262 22.7251L6.3059 29.6812C6.00964 28.5385 5.87971 27.7672 6.80781 26.8391L25.0615 8.58545ZM27.0245 12.4895C27.3267 12.1874 27.7911 12.362 27.7612 12.7608C27.5737 15.2035 26.4101 17.777 24.3361 19.8509C22.7548 21.5831 18.2925 24.2312 15.1034 26.0057C14.4504 26.3681 13.9188 25.5941 14.4538 25.0591L27.0214 12.4927L27.0245 12.4895ZM22.8544 4.92245C23.1415 4.63533 23.5649 4.57452 23.8551 4.77385C24.4596 5.18494 25.0248 5.78053 25.3151 6.49988C25.4239 6.77797 25.3304 7.11939 25.0916 7.35822L15.333 17.1179C14.7859 17.6649 14.1058 18.0424 13.3835 18.1966L12.6302 18.3566C11.9107 18.5138 11.2248 18.8922 10.6807 19.4362L4.66093 25.455C4.3648 24.3125 4.50732 23.2696 5.4351 22.3417L22.8544 4.92245ZM18.7185 3.18707C19.2626 2.64305 20.0428 2.43116 20.6835 2.67269C21.0857 2.82688 21.4733 3.01522 21.8392 3.23592C22.3225 3.52628 22.3465 4.23322 21.8931 4.68657L12.9689 13.6108C12.458 14.1218 11.7625 14.3938 11.0974 14.3454C10.3991 14.2941 9.66414 14.5817 9.12304 15.1227L4.23487 20.011C3.93864 18.8681 4.32307 17.5836 5.25117 16.6555L6.83483 15.0708L18.7185 3.18707ZM17.2897 2.31938C17.7187 2.31363 17.885 2.82429 17.5589 3.1507L9.05445 11.6551L8.07142 12.6371L6.57504 14.1335L6.56672 14.1428C6.25232 14.4573 5.7866 14.173 5.96194 13.7739L7.42506 10.4487C7.50669 10.2461 7.59756 10.04 7.69732 9.8314L7.70564 9.81061C8.54909 8.02394 9.90687 6.1286 11.1826 4.85283C13.2293 2.80616 15.0677 2.34055 17.2897 2.31938Z" fill="white"/>
</svg>
