<svg preserveAspectRatio="none" width="100%" height="100%" overflow="visible" style="display: block;" viewBox="0 0 32 32" fill="none" xmlns="http://www.w3.org/2000/svg">
<g id="MoonPay white">
<g id="Union">
<path d="M12.1613 10.3309C16.904 9.80434 21.1703 13.2355 21.6734 17.9807C22.1765 22.7259 18.7244 26.9753 13.9767 27.455C9.2623 27.9311 5.04902 24.5084 4.54938 19.7964C4.04979 15.0843 7.45176 10.8538 12.1613 10.3309Z" fill="var(--fill-0, white)"/>
<path d="M23.3973 4.54831C24.65 4.34074 25.9176 4.82292 26.7157 5.8105C27.5139 6.79812 27.7195 8.13886 27.2536 9.32016C26.7878 10.5013 25.7226 11.3406 24.4652 11.5176C22.5537 11.7866 20.7811 10.4685 20.4888 8.56046C20.1965 6.65242 21.4929 4.86397 23.3973 4.54831Z" fill="var(--fill-0, white)"/>
</g>
</g>
</svg>
