<svg width="32" height="32" viewBox="0 0 32 32" fill="none" xmlns="http://www.w3.org/2000/svg">
<path d="M27.6874 15.9958C27.6874 15.9847 27.6874 15.9737 27.6874 15.961C27.6779 14.4606 27.1898 12.9633 26.228 11.7534C25.5567 10.9084 24.6643 10.2924 23.8478 9.60056C23.1386 9.0004 22.5889 8.2328 22.0014 7.51569C20.9384 6.26476 19.5374 5.44501 18.0069 5.06594C17.9863 5.06121 17.9658 5.05647 17.9469 5.05015C17.8837 5.03436 17.8205 5.01856 17.7558 5.00434C17.2282 4.88431 16.6865 4.81481 16.1478 4.79585C16.0847 4.79112 16.031 4.78954 15.9978 4.79112C15.9583 4.79112 15.8983 4.79112 15.8288 4.79585C15.3345 4.81481 14.8369 4.87483 14.3473 4.97592C13.2101 5.19704 12.1155 5.65509 11.1931 6.36268C10.3733 6.99131 9.75575 7.81737 9.10663 8.61024C7.83042 10.1676 5.97772 11.0394 5.03952 12.9048C4.72046 13.5414 4.5104 14.2189 4.40141 14.9091C4.38878 14.9866 4.37773 15.0655 4.36667 15.1445C4.36193 15.184 4.35561 15.225 4.35087 15.2646C4.33508 15.4051 4.3256 15.5457 4.31929 15.6862C4.31929 15.7005 4.3177 15.7162 4.3177 15.7305C4.31138 15.8742 4.31138 16.0179 4.31613 16.1617C4.31613 16.1822 4.31613 16.2027 4.31613 16.2233C4.32086 16.348 4.32876 16.4728 4.33981 16.596C4.34613 16.6639 4.35245 16.7318 4.36035 16.7998C4.36825 16.8677 4.37773 16.9356 4.3872 17.0035C4.55778 18.1723 5.02057 19.2985 5.77554 20.2462C6.40575 21.0374 7.23339 21.644 8.01047 22.2805C8.69439 22.8412 9.21719 23.5266 9.77471 24.2074C10.3623 24.9245 11.0336 25.5184 11.7743 25.9843C11.7775 25.9859 11.7791 25.9874 11.7822 25.9906C11.7854 25.9922 11.7885 25.9954 11.7933 25.997C11.8296 26.0206 11.8659 26.0427 11.9038 26.0649C14.0898 27.4579 17.1114 27.5748 19.4268 26.4376C19.6685 26.3192 19.9006 26.1834 20.1234 26.0349C20.9542 25.5199 21.7028 24.8471 22.3709 24.0321C22.9348 23.3434 23.4766 22.7022 24.1668 22.1367C24.9502 21.4955 25.7589 20.8826 26.3685 20.0614C27.2451 18.8799 27.6811 17.4552 27.6874 16.0306C27.6874 16.0179 27.6874 16.0053 27.6874 15.9926V15.9958ZM12.7773 25.3573C11.8897 24.626 11.2625 23.631 11.0162 22.5332C10.9783 22.3674 11.0936 22.2062 11.2626 22.1873C11.389 22.1731 11.5153 22.1573 11.6417 22.1352C13.6286 21.7893 15.1591 20.513 15.982 18.8262C16.0626 18.9952 16.1478 19.161 16.2426 19.3222C17.2014 20.9395 18.844 21.9204 20.6335 22.1683C20.6714 21.9282 20.6888 21.685 20.6872 21.4418C19.6101 21.167 18.6434 20.4041 17.9848 19.4217C16.7765 17.6195 16.6312 15.1682 17.6026 13.227C18.138 12.1578 19.0841 11.1485 20.2102 10.6825C20.643 10.504 21.0947 10.8894 21.0078 11.349C20.7977 12.4594 20.2055 13.4955 19.3178 14.2458C18.7445 14.7306 18.0938 15.075 17.413 15.2771C17.3862 15.5046 17.3735 15.7336 17.3735 15.9626C17.3735 15.9626 17.3719 15.9626 17.3704 15.9626C17.3704 15.9816 17.3704 16.0022 17.3719 16.0211C17.3719 16.0337 17.3719 16.0463 17.3719 16.0606C17.3719 16.0606 17.3719 16.0606 17.3735 16.0606C17.3767 16.2786 17.3894 16.4965 17.4146 16.7113C18.9562 17.1867 20.2671 18.3618 20.823 19.905C21.5133 21.8193 20.8578 23.98 19.3178 25.2814C19.2483 25.3399 19.1757 25.3952 19.103 25.4489C17.124 26.8435 14.6821 26.7614 12.7789 25.3589L12.7773 25.3573ZM12.7773 6.64382C14.9174 5.05647 17.5378 5.28707 19.4679 6.85547C20.065 7.40513 20.5403 8.08904 20.8199 8.86768C20.8909 9.06512 20.9462 9.26576 20.9889 9.46792C21.0221 9.62904 20.9099 9.78536 20.7473 9.80432C19.2373 9.986 17.8031 10.6888 16.7986 11.8861C16.4701 12.2762 16.1984 12.7042 15.982 13.1575C15.2934 11.7344 14.1009 10.5909 12.5104 10.0713C12.1313 9.94808 11.7427 9.86432 11.351 9.81224C11.3163 10.0476 11.3005 10.2845 11.3053 10.5182C11.3116 10.5198 11.3194 10.5214 11.3257 10.523C13.6981 11.18 14.9854 13.6819 15.0265 15.9942C14.9886 18.0807 13.995 20.2082 12.065 21.1765C11.9623 21.227 11.8612 21.2728 11.7586 21.3122C11.3321 21.4781 10.8882 21.1212 10.9657 20.671V20.6615C11.299 18.7741 12.7773 17.2736 14.5637 16.7129C14.5968 16.4665 14.6158 16.2248 14.6206 15.9926C14.6158 15.7589 14.5937 15.5172 14.5605 15.2756C14.1182 15.1429 13.6855 14.9486 13.2764 14.6849C11.588 13.5966 10.615 11.6302 10.9673 9.62584C11.1646 8.50128 11.768 7.51411 12.6004 6.78124C12.6589 6.73385 12.7157 6.68489 12.7758 6.64067L12.7773 6.64382ZM25.9421 16.6623C25.7778 18.3239 25.0939 19.6318 23.9646 20.6158C23.8888 20.6821 23.8146 20.7421 23.7419 20.7974C23.3186 21.1227 22.7106 20.8858 22.5874 20.3662C22.5874 20.363 22.5858 20.3598 22.5842 20.3567C21.995 17.9306 19.9181 16.4934 17.6199 16.01C18.2486 15.8821 18.8582 15.6815 19.4253 15.4035C20.9841 14.6374 22.1909 13.2349 22.5842 11.6018C22.7057 11.0932 23.3013 10.8752 23.7277 11.1785C23.8841 11.289 24.031 11.409 24.1715 11.537C25.4509 12.9206 26.1332 14.7133 25.9406 16.6608L25.9421 16.6623ZM7.83042 11.5386C7.971 11.4106 8.11943 11.2906 8.27423 11.18C8.70071 10.8768 9.29615 11.0963 9.41775 11.6034C9.81103 13.2349 11.0177 14.639 12.5767 15.4051C13.1437 15.683 13.7534 15.8837 14.382 16.0116C12.0839 16.495 10.0069 17.9306 9.41775 20.3583C9.41775 20.3614 9.41623 20.3646 9.41463 20.3678C9.28983 20.8858 8.68175 21.1227 8.26007 20.799C8.18735 20.7437 8.11311 20.6837 8.03735 20.6173C6.90801 19.6349 6.22411 18.3255 6.05985 16.6639C5.86715 14.7165 6.54948 12.9238 7.82885 11.5402L7.83042 11.5386Z" fill="white"/>
</svg>
