<svg preserveAspectRatio="none" width="100%" height="100%" overflow="visible" style="display: block;" viewBox="0 0 27.9922 27.5411" fill="none" xmlns="http://www.w3.org/2000/svg">
<g id="Frame 128">
<path id="Union" d="M15.1636 3.42632C20.5977 3.42632 25.0696 7.48301 25.6206 12.6861C27.0688 13.8709 27.9907 15.6569 27.9907 17.6548C27.9907 21.2221 25.0519 24.1146 21.4263 24.1148H8.41162C3.76685 24.1145 0.00160715 20.4093 0.00146484 15.8394C0.00146484 11.8775 2.83144 8.56599 6.61084 7.75444C8.51811 5.1342 11.6381 3.42645 15.1636 3.42632ZM14.7974 6.21343C12.5744 6.21366 10.7722 7.98624 10.772 10.1734V11.4537C9.62465 11.7992 8.75876 12.7928 8.59424 13.9947C8.48586 14.787 8.39307 15.6196 8.39307 16.4751C8.39308 17.3307 8.48585 18.1632 8.59424 18.9556C8.79301 20.4081 10.0166 21.5555 11.5229 21.6236C12.5682 21.6709 13.6297 21.6958 14.7974 21.6959C15.9653 21.6959 17.0273 21.6709 18.0728 21.6236C19.579 21.5555 20.8027 20.4081 21.0015 18.9556C21.1099 18.1633 21.2026 17.3307 21.2026 16.4751C21.2026 15.6196 21.1098 14.787 21.0015 13.9947C20.8369 12.7928 19.971 11.7992 18.8237 11.4537V10.1734C18.8235 7.9861 17.0205 6.21343 14.7974 6.21343ZM16.5249 15.3746C16.9292 15.3746 17.2573 15.6976 17.2573 16.0953V16.855C17.2573 17.2527 16.9292 17.5757 16.5249 17.5757C16.1208 17.5755 15.7935 17.2526 15.7935 16.855V16.0953C15.7935 15.6977 16.1208 15.3747 16.5249 15.3746ZM13.0698 15.3746C13.4741 15.3746 13.8022 15.6976 13.8022 16.0953V16.855C13.8022 17.2527 13.4741 17.5748 13.0698 17.5748C12.6657 17.5746 12.3384 17.2527 12.3384 16.855V16.0953C12.3384 15.6976 12.6657 15.3747 13.0698 15.3746ZM14.7974 7.65288C16.212 7.65288 17.3597 8.78152 17.3599 10.1734V11.2974C16.5418 11.2688 15.701 11.2544 14.7974 11.2544C13.8939 11.2544 13.0538 11.2688 12.2358 11.2974V10.1734C12.2361 8.78166 13.3828 7.65311 14.7974 7.65288Z" fill="var(--fill-0, white)"/>
</g>
</svg>
