<svg preserveAspectRatio="none" width="100%" height="100%" overflow="visible" style="display: block;" viewBox="0 0 32 32" fill="none" xmlns="http://www.w3.org/2000/svg">
<g id="Solana white">
<path id="Vector" d="M27.8763 22.0382L23.9098 26.1823C23.8236 26.2724 23.7192 26.3441 23.6033 26.3932C23.4874 26.4423 23.3623 26.4675 23.236 26.4675H4.43289C4.34317 26.4675 4.25541 26.4419 4.18038 26.394C4.10536 26.3461 4.04634 26.2778 4.01057 26.1977C3.97481 26.1175 3.96387 26.0289 3.97908 25.9428C3.9943 25.8566 4.03501 25.7767 4.09622 25.7128L8.06569 21.5687C8.15169 21.4789 8.25568 21.4073 8.37122 21.3582C8.48679 21.3092 8.61145 21.2838 8.73751 21.2836H27.5395C27.6292 21.2836 27.717 21.3091 27.7921 21.357C27.867 21.405 27.926 21.4732 27.9619 21.5534C27.9976 21.6335 28.0086 21.7221 27.9933 21.8083C27.9781 21.8944 27.9374 21.9743 27.8763 22.0382ZM23.9098 13.6932C23.8236 13.6031 23.7192 13.5314 23.6033 13.4823C23.4874 13.4333 23.3623 13.408 23.236 13.4081H4.43289C4.34317 13.4081 4.25541 13.4336 4.18038 13.4815C4.10536 13.5295 4.04634 13.5977 4.01057 13.6778C3.97481 13.758 3.96387 13.8466 3.97908 13.9327C3.9943 14.0189 4.03501 14.0988 4.09622 14.1627L8.06569 18.3068C8.15169 18.3966 8.25568 18.4682 8.37122 18.5173C8.48679 18.5663 8.61145 18.5917 8.73751 18.5919H27.5395C27.6292 18.5919 27.717 18.5664 27.7921 18.5185C27.867 18.4705 27.926 18.4023 27.9619 18.3222C27.9976 18.242 28.0086 18.1534 27.9933 18.0673C27.9781 17.9811 27.9374 17.9012 27.8763 17.8373L23.9098 13.6932ZM4.43289 10.7164H23.236C23.3623 10.7165 23.4874 10.6912 23.6033 10.6422C23.7192 10.5931 23.8236 10.5213 23.9098 10.4313L27.8763 6.28719C27.9374 6.22328 27.9781 6.14335 27.9933 6.05721C28.0086 5.97108 27.9976 5.88249 27.9619 5.80233C27.926 5.72217 27.867 5.65393 27.7921 5.606C27.717 5.55807 27.6292 5.53253 27.5395 5.53253H8.73751C8.61145 5.53274 8.48679 5.55815 8.37122 5.6072C8.25568 5.65624 8.15169 5.72787 8.06569 5.81765L4.09724 9.96177C4.03609 10.0256 3.9954 10.1055 3.98015 10.1915C3.9649 10.2775 3.97576 10.3661 4.01139 10.4462C4.04703 10.5263 4.10589 10.5945 4.18076 10.6425C4.25564 10.6905 4.34326 10.7162 4.43289 10.7164Z" fill="var(--fill-0, white)"/>
</g>
</svg>
