<svg width="32" height="32" viewBox="0 0 32 32" fill="none" xmlns="http://www.w3.org/2000/svg">
<path d="M15.8454 16.6851L17.6353 14.956L20.9721 16.048C23.1563 16.7762 24.2484 18.1109 24.2484 19.9917C24.2484 21.4175 23.7024 22.3579 22.6103 23.5714L22.2767 23.9354L22.3979 23.086C22.8833 19.9917 21.9733 18.657 18.97 17.6861L15.8454 16.6851ZM11.3557 6.09789L20.4565 9.13147L18.4846 11.0123L13.7522 9.43483C12.1141 8.88878 11.5681 8.00903 11.3557 6.15856V6.09789ZM10.8096 21.5085L12.8725 19.5366L16.7555 20.8108C18.7879 21.4782 19.4856 22.3579 19.2734 24.5724L10.8096 21.5085ZM8.20077 12.711C8.20077 12.1348 8.50412 11.5887 9.01983 11.1336C9.56588 11.9224 10.5063 12.6201 11.9927 13.1055L15.2084 14.1672L13.4185 15.8964L10.2636 14.8649C8.80748 14.3796 8.20077 13.6515 8.20077 12.711ZM17.7262 28.6374C24.4001 24.2084 27.9797 21.2051 27.9797 17.5042C27.9797 15.047 26.5236 13.6818 23.308 12.6201L20.8811 11.801L27.5248 5.43049L26.1899 4.00471L24.2181 5.73384L14.905 2.66992C12.023 3.61034 8.38279 6.3709 8.38279 9.13145C8.38279 9.43482 8.41312 9.73818 8.50413 10.0719C6.10759 11.437 5.13685 12.711 5.13685 14.2885C5.13685 15.775 5.92558 17.2615 8.44346 18.0806L10.4456 18.7479L3.52905 25.3914L4.86383 26.8173L7.01768 24.8455L17.7262 28.6374Z" fill="white"/>
</svg>
