<svg width="32" height="32" viewBox="0 0 32 32" fill="none" xmlns="http://www.w3.org/2000/svg">
<path fill-rule="evenodd" clip-rule="evenodd" d="M16 1.98926C23.7447 1.98926 30.0264 8.26063 29.9932 16.0166C29.9931 23.7395 23.7447 30.0107 16 30.0107C8.28852 30.0107 2.00586 23.7394 2.00586 15.9834C2.00593 8.26048 8.28856 1.98927 16 1.98926ZM16.1826 5.44043C16.1114 5.4417 16.0445 5.48135 16.0078 5.54492C15.0501 7.20748 14.5233 9.14668 14.501 11.0371C14.4837 12.505 14.8033 13.9437 15.3662 15.2666C14.5142 14.0522 13.3949 13.0273 12.1494 12.3066C10.6628 11.4465 8.97442 10.9815 7.25391 10.9561C7.18103 10.9551 7.11216 10.9946 7.07422 11.0596C7.03625 11.1246 7.03561 11.2043 7.07227 11.2676C7.95931 12.7999 9.26644 14.0939 10.7529 14.9541C12.0321 15.6943 13.4614 16.1419 14.9316 16.2686C13.4809 16.4424 12.0535 16.8923 10.7744 17.6631L10.7666 17.668C9.21796 18.603 7.90752 19.927 6.96777 21.5049C6.92963 21.5689 6.92786 21.6485 6.96289 21.7119C6.9979 21.7752 7.0645 21.8127 7.13672 21.8105C8.85265 21.7587 10.5562 21.2767 12.0771 20.4102C13.4678 19.6181 14.6322 18.4681 15.5537 17.1455C14.1812 20.1447 14.204 23.5697 15.6299 26.4805C15.6629 26.5475 15.7303 26.5889 15.8047 26.5879C15.8792 26.5868 15.9488 26.5437 15.9844 26.4756C17.5142 23.5389 17.6597 20.1261 16.4121 17.166C17.2383 18.3853 18.2905 19.4421 19.6006 20.2002C21.1422 21.0921 22.9549 21.5008 24.7295 21.4961C24.8021 21.4958 24.8702 21.4547 24.9072 21.3896C24.9441 21.3245 24.9441 21.2452 24.9072 21.1826C24.0288 19.6927 22.8446 18.3702 21.2969 17.4746C20.0175 16.7344 18.5675 16.3351 17.0967 16.2236C18.5447 16.04 19.9601 15.5519 21.2363 14.79C22.7788 13.8691 24.0877 12.563 25.0332 11.0039C25.0724 10.9393 25.0749 10.859 25.0391 10.7949C25.003 10.7309 24.9346 10.6934 24.8613 10.6973C23.1554 10.7889 21.4697 11.3058 19.9746 12.1982C18.6442 12.9926 17.4875 14.0738 16.5879 15.3564C17.2787 13.901 17.6978 12.3197 17.6963 10.7197C17.6947 8.89657 17.2176 7.10033 16.3535 5.53906C16.3189 5.47688 16.2537 5.43923 16.1826 5.44043Z" fill="white"/>
</svg>
