<svg preserveAspectRatio="none" width="100%" height="100%" overflow="visible" style="display: block;" viewBox="0 0 27.9874 28.0205" fill="none" xmlns="http://www.w3.org/2000/svg">
<g id="Frame 126">
<path id="Vector" d="M22.8983 19.3999C22.8612 19.4651 22.793 19.5057 22.7203 19.5059C20.9456 19.5107 19.133 19.1024 17.5913 18.2103C16.2812 17.4523 15.2291 16.3956 14.4029 15.1762C15.6505 18.1363 15.5054 21.5485 13.9755 24.4852C13.9399 24.5534 13.8708 24.597 13.7961 24.598C13.7215 24.5991 13.6539 24.5575 13.6209 24.4902C12.1951 21.5794 12.1728 18.1549 13.5453 15.1558C12.6238 16.4784 11.4593 17.6282 10.0687 18.4203C8.54772 19.2869 6.844 19.769 5.128 19.8209C5.05569 19.8231 4.98918 19.7851 4.95419 19.7217C4.91915 19.6583 4.92109 19.5794 4.95923 19.5153C5.89908 17.9372 7.20933 16.6128 8.75823 15.6777L8.76574 15.6729C10.0449 14.9021 11.4724 14.4529 12.9232 14.279C11.4528 14.1524 10.0237 13.7045 8.74443 12.9643C7.25783 12.1041 5.9503 10.8102 5.0632 9.27782C5.02653 9.2145 5.02737 9.1346 5.06536 9.06954C5.10335 9.00447 5.17244 8.96466 5.24543 8.96576C6.96594 8.99124 8.65415 9.45637 10.1407 10.3165C11.3862 11.0372 12.5056 12.0619 13.3576 13.2763C12.7947 11.9534 12.4751 10.5154 12.4924 9.04751C12.5147 7.15698 13.0417 5.21806 13.9995 3.5554C14.0362 3.4917 14.1027 3.45172 14.174 3.45052C14.2453 3.44932 14.3106 3.48708 14.3452 3.54959C15.2093 5.11094 15.6858 6.90684 15.6873 8.73011C15.6888 10.3301 15.2698 11.9108 14.579 13.3662C15.4787 12.0835 16.6355 11.0027 17.966 10.2083C19.461 9.31585 21.1463 8.7987 22.8523 8.70705C22.9257 8.70311 22.994 8.74065 23.03 8.80473C23.066 8.86885 23.064 8.94915 23.0248 9.01388C22.0793 10.5731 20.7701 11.8792 19.2276 12.8002C17.9513 13.562 16.5364 14.0504 15.0883 14.234C16.5592 14.3455 18.0091 14.744 19.2886 15.4843C20.8363 16.3799 22.02 17.7026 22.8984 19.1925C22.9353 19.2553 22.9353 19.3347 22.8983 19.3999Z" fill="var(--fill-0, white)"/>
</g>
</svg>
