<svg width="32" height="32" viewBox="0 0 32 32" fill="none" xmlns="http://www.w3.org/2000/svg">
<path d="M16.7897 10.5235C17.064 10.5833 17.3241 10.6712 17.5692 10.7864L17.6657 10.8308C18.1416 11.0556 18.5484 11.3491 18.884 11.7119C19.2407 12.0976 19.4986 12.5285 19.6541 13.0046L19.7003 13.1463L18.4384 13.6509L18.382 13.4972C18.1699 12.9138 17.8423 12.4805 17.4027 12.1875L17.4019 12.1866C17.1576 12.0205 16.8877 11.901 16.5925 11.8281C16.3632 11.7714 16.1171 11.7427 15.854 11.7427C15.7911 11.7427 15.7296 11.7442 15.6696 11.7478C15.3681 11.766 15.1011 11.8295 14.867 11.9356C14.5965 12.0625 14.3888 12.2422 14.2395 12.4744C14.0918 12.7041 14.015 12.979 14.015 13.3042C14.015 13.6931 14.1373 14.0422 14.3838 14.3569C14.6259 14.6567 15.0053 14.8917 15.539 15.0519L17.1756 15.5377C18.0068 15.7832 18.6507 16.142 19.0924 16.6228C19.5386 17.1087 19.7592 17.7177 19.7592 18.4371C19.7591 19.0206 19.607 19.5416 19.3015 19.9952C19.0064 20.4379 18.5902 20.784 18.0593 21.0351C17.677 21.2192 17.2532 21.3351 16.7897 21.3843V22.6326H15.5014V21.3545C15.1118 21.2932 14.7442 21.1825 14.4 21.0223C13.8452 20.764 13.374 20.4184 12.9887 19.985L12.987 19.9841C12.6035 19.5431 12.329 19.0562 12.1648 18.5251L12.1205 18.3825L13.4131 17.8975L13.466 18.0521C13.6976 18.7292 14.0543 19.2363 14.5315 19.5837C14.8693 19.8231 15.2536 19.9787 15.6858 20.0499C15.867 20.0798 16.0571 20.0951 16.2561 20.0951C16.3809 20.0951 16.501 20.0894 16.6156 20.0781C16.8935 20.0507 17.1416 19.991 17.3609 19.8996C17.6801 19.7612 17.9181 19.5741 18.0832 19.343C18.2473 19.1131 18.3308 18.8452 18.3308 18.5336C18.3307 18.0542 18.2005 17.7067 17.9611 17.4672C17.7086 17.2147 17.3378 17.0127 16.8367 16.8696L16.835 16.8687L14.9772 16.3146C14.2213 16.0945 13.6266 15.7225 13.2047 15.1928L13.2039 15.1911C12.7936 14.6634 12.5875 14.0601 12.5875 13.387C12.5875 12.8141 12.7288 12.3023 13.0152 11.8579C13.2989 11.4086 13.6854 11.057 14.1712 10.8044H14.1729C14.5762 10.5988 15.0198 10.478 15.5014 10.4398V9.20526H16.7897V10.5235Z" fill="white"/>
<path fill-rule="evenodd" clip-rule="evenodd" d="M16.1597 5.03714C16.6952 5.05592 17.2339 5.12367 17.7588 5.24119C17.8246 5.25544 17.8886 5.27132 17.95 5.28644L17.962 5.28986C17.9721 5.29317 17.9849 5.29608 18.0064 5.30096L18.0072 5.30181H18.0089C19.5372 5.67462 20.9389 6.48157 22.0029 7.71457L22.0037 7.71543L22.0046 7.71713C22.1265 7.86371 22.247 8.01246 22.3666 8.16024C22.8168 8.71698 23.2582 9.26213 23.7924 9.70728C23.9918 9.87359 24.1967 10.0356 24.4028 10.1991C25.013 10.6827 25.6406 11.1793 26.1454 11.805C27.111 13.0012 27.6 14.4805 27.6096 15.9612V16.0303C27.6032 17.4362 27.1665 18.8441 26.2863 20.0123C25.7451 20.7302 25.0493 21.2847 24.3721 21.8257C24.2822 21.8975 24.1924 21.9697 24.1032 22.0417C23.4409 22.576 22.9186 23.1827 22.3666 23.8466L22.3043 23.9218C21.6564 24.6857 20.9313 25.3205 20.128 25.8112C19.9055 25.957 19.673 26.091 19.4305 26.2082C18.3826 26.7148 17.1929 26.9682 16.0034 26.968C15.9634 26.969 15.9099 26.967 15.8532 26.9629C15.3176 26.9441 14.7789 26.8754 14.254 26.758C14.221 26.7508 14.1879 26.7433 14.1558 26.7358L14.0619 26.7127L14.056 26.7119L14.0508 26.7093C14.0407 26.7061 14.0279 26.7031 14.0064 26.6982H14.0039C12.5232 26.337 11.1609 25.5686 10.1098 24.3999L10.0091 24.2846L10.0074 24.2829C9.88541 24.1364 9.76489 23.9875 9.64537 23.8398C9.19509 23.283 8.7537 22.738 8.21956 22.2928C8.02027 22.1265 7.81608 21.9644 7.60997 21.801C6.99987 21.3174 6.37226 20.8207 5.86742 20.195C4.90162 18.9988 4.41184 17.5188 4.40234 16.038V15.9697C4.40869 14.5638 4.84628 13.156 5.72655 11.9877C6.26785 11.2697 6.96343 10.7145 7.64071 10.1734C7.73054 10.1017 7.8205 10.0301 7.90964 9.95829C8.5719 9.424 9.09335 8.81645 9.64537 8.15256C10.309 7.35545 11.0547 6.69531 11.884 6.18888C12.1063 6.04304 12.339 5.90897 12.5815 5.79188C13.6294 5.28512 14.8191 5.03177 16.0085 5.03202C16.0485 5.03096 16.1023 5.03297 16.1597 5.03714ZM16.0026 6.07874C14.9919 6.07663 13.9743 6.38344 13.0588 7.01875C12.9897 7.06911 12.9224 7.11993 12.859 7.17243C12.6397 7.35499 12.4387 7.55559 12.2588 7.77092L12.2545 7.7769L12.2485 7.78202L8.32287 11.6582C7.22861 12.9211 6.58478 13.8276 6.4292 15.3772L6.42066 15.4626C6.26571 17.2552 6.91315 18.9071 8.1154 20.1899C8.2473 20.3078 8.38507 20.4174 8.53034 20.5186L8.53546 20.522L8.89063 20.8123C9.59789 21.3903 10.2266 22.0668 10.8406 22.7435C11.4561 23.422 12.0554 24.0996 12.7138 24.697C13.6879 25.4751 14.8418 25.9121 16.0094 25.9213C17.0201 25.9234 18.0384 25.6167 18.9541 24.9813C19.0231 24.931 19.0897 24.88 19.153 24.8276C19.3723 24.645 19.5732 24.4445 19.7532 24.2291L19.7583 24.2231L19.7634 24.218L23.6891 20.3419C24.7834 19.0788 25.428 18.1726 25.5836 16.6228C25.767 14.7973 25.1179 13.1134 23.8965 11.8101C23.7814 11.7072 23.6622 11.6101 23.5371 11.5198L23.4825 11.4806L23.4773 11.4772L23.1222 11.1869C22.4151 10.609 21.7861 9.93318 21.1722 9.25649C20.5566 8.5781 19.9566 7.9005 19.2981 7.30305C18.324 6.52487 17.1702 6.08784 16.0026 6.07874Z" fill="white"/>
</svg>
