<svg width="32" height="32" viewBox="0 0 32 32" fill="none" xmlns="http://www.w3.org/2000/svg">
<path d="M19.3555 2.42725C25.4601 3.91848 29.9804 9.42889 29.9805 15.9995C29.9805 22.5703 25.4602 28.0815 19.3555 29.5728V27.1724C24.1437 25.7277 27.6504 21.2771 27.6504 15.9995C27.6503 10.7221 24.1436 6.2723 19.3555 4.82764V2.42725Z" fill="white"/>
<path d="M12.6445 4.82666C7.85633 6.27128 4.34967 10.722 4.34961 15.9995C4.34961 21.2771 7.85629 25.7394 12.6445 27.1724V29.5718C6.53986 28.0805 2.01953 22.5702 2.01953 15.9995C2.0196 9.42885 6.53987 3.91849 12.6445 2.42725V4.82666Z" fill="white"/>
<path d="M17.165 7.84521V9.71826C19.1958 10.1172 20.413 11.4559 20.625 13.5767H18.248C18.0616 12.4467 17.468 11.6081 15.7441 11.6079C14.2995 11.6079 13.542 12.214 13.542 13.1577C13.5428 15.79 21.0098 13.8335 21.0098 18.5981C21.0097 20.6438 19.5545 22.0336 17.165 22.3423V24.1548H14.835V22.3179C12.3866 21.955 10.9539 20.5012 10.8037 18.1782H13.1221C13.3784 19.4481 14.066 20.3686 16.1514 20.3687C17.7474 20.3687 18.6914 19.7164 18.6914 18.7378C18.6914 16.1515 11.2124 17.9454 11.2119 13.1577C11.2119 11.2304 12.6101 9.93422 14.835 9.65088V7.84521H17.165Z" fill="white"/>
</svg>
