<svg preserveAspectRatio="none" width="100%" height="100%" overflow="visible" style="display: block;" viewBox="0 0 27.9609 27.1455" fill="none" xmlns="http://www.w3.org/2000/svg">
<g id="Frame 131">
<g id="Union">
<path d="M17.3359 0C23.4406 1.49124 27.9608 7.00164 27.9609 13.5723C27.9609 20.143 23.4407 25.6543 17.3359 27.1455V24.7451C22.1242 23.3005 25.6309 18.8498 25.6309 13.5723C25.6308 8.29485 22.1241 3.84506 17.3359 2.40039V0Z" fill="var(--fill-0, white)"/>
<path d="M10.625 2.39941C5.8368 3.84403 2.33014 8.29475 2.33008 13.5723C2.33008 18.8498 5.83676 23.3121 10.625 24.7451V27.1445C4.52033 25.6533 0 20.143 0 13.5723C6.51039e-05 7.00161 4.52034 1.49124 10.625 0V2.39941Z" fill="var(--fill-0, white)"/>
<path d="M15.1455 5.41797V7.29102C17.1763 7.68994 18.3934 9.02866 18.6055 11.1494H16.2285C16.0421 10.0195 15.4485 9.18081 13.7246 9.18066C12.28 9.18066 11.5225 9.78679 11.5225 10.7305C11.5233 13.3628 18.9902 11.4062 18.9902 16.1709C18.9901 18.2166 17.535 19.6063 15.1455 19.915V21.7275H12.8154V19.8906C10.367 19.5278 8.93437 18.0739 8.78418 15.751H11.1025C11.3589 17.0208 12.0465 17.9414 14.1318 17.9414C15.7279 17.9414 16.6718 17.2891 16.6719 16.3105C16.6719 13.7243 9.19285 15.5182 9.19238 10.7305C9.19238 8.80317 10.5906 7.50697 12.8154 7.22363V5.41797H15.1455Z" fill="var(--fill-0, white)"/>
</g>
</g>
</svg>
