<svg preserveAspectRatio="none" width="100%" height="100%" overflow="visible" style="display: block;" viewBox="0 0 32 32" fill="none" xmlns="http://www.w3.org/2000/svg">
<g id="USDT">
<path id="Vector" fill-rule="evenodd" clip-rule="evenodd" d="M8.6475 6.78342H23.6202C23.9774 6.78342 24.3074 6.97379 24.4856 7.28266L28.8478 14.8445C29.074 15.2367 29.0068 15.7316 28.6841 16.0496L16.6772 27.883C16.2882 28.2663 15.6625 28.2663 15.2736 27.883L3.2829 16.0656C2.95274 15.7402 2.89091 15.2308 3.1337 14.8362L7.79651 7.2584C7.97808 6.96329 8.30033 6.78342 8.6475 6.78342ZM21.6869 10.1595V12.2813H17.4218V13.7523C20.4173 13.9095 22.6648 14.5552 22.6814 15.3291L22.6813 16.9424C22.6647 17.7164 20.4173 18.362 17.4218 18.5192V22.1294H14.5897V18.5192C11.5942 18.362 9.34678 17.7163 9.33008 16.9424L9.33019 15.3291C9.34685 14.5552 11.5942 13.9095 14.5897 13.7523V12.2813H10.3246V10.1595H21.6869ZM16.0058 17.4108C19.2025 17.4108 21.8745 16.8649 22.5284 16.1358C21.9739 15.5175 19.9682 15.0309 17.4218 14.8973V16.4375C16.9654 16.4614 16.4917 16.474 16.0058 16.474C15.5199 16.474 15.0461 16.4614 14.5897 16.4375V14.8973C12.0434 15.0309 10.0377 15.5175 9.48315 16.1358C10.1371 16.8649 12.809 17.4108 16.0058 17.4108Z" fill="var(--fill-0, white)"/>
</g>
</svg>
