<svg width="32" height="32" viewBox="0 0 32 32" fill="none" xmlns="http://www.w3.org/2000/svg">
<path d="M14.5213 19.1613C15.4837 18.4971 16.5183 18.2698 17.6237 18.4801C18.731 18.6891 19.6114 19.267 20.2652 20.2142L21.2372 21.6235L19.842 22.5873L18.8688 21.178C18.4818 20.6172 17.9656 20.2768 17.3176 20.1591C16.6716 20.04 16.0629 20.1779 15.4956 20.5695L13.0334 22.2789C12.2511 22.822 11.1768 22.6266 10.6357 21.8428L14.5213 19.1613Z" fill="white"/>
<path d="M12.7216 14.5992C13.3871 15.5635 13.6157 16.6004 13.4074 17.7063C13.2004 18.8137 12.6244 19.6931 11.6792 20.3455L10.2723 21.3163L9.30732 19.9176L10.7143 18.9468C11.2736 18.5606 11.6119 18.0445 11.7285 17.3968C11.8463 16.7504 11.708 16.1407 11.3158 15.5724L9.59927 13.1008C9.0569 12.3198 9.25174 11.2467 10.0343 10.7066L12.7216 14.5992Z" fill="white"/>
<path d="M22.636 11.9495L21.229 12.9203C20.6695 13.3065 20.3313 13.8234 20.2148 14.4714C20.0971 15.1175 20.2354 15.7264 20.6275 16.2946L22.344 18.7662C22.8863 19.5471 22.6914 20.6202 21.909 21.1604L19.2217 17.2678C18.5562 16.3036 18.3277 15.2676 18.5358 14.1619C18.7428 13.0542 19.3186 12.174 20.2641 11.5215L21.671 10.5507L22.636 11.9495Z" fill="white"/>
<path d="M18.8254 9.46617C19.6077 8.92324 20.6821 9.11874 21.2231 9.90232L17.3376 12.5849C16.3754 13.2489 15.3404 13.4764 14.2352 13.2661C13.128 13.0572 12.2486 12.4779 11.5948 11.5309L10.6217 10.1216L12.0169 9.15898L12.9901 10.5683C13.377 11.1288 13.8935 11.4683 14.5412 11.586C15.1872 11.7051 15.796 11.5682 16.3632 11.1768L18.8254 9.46617Z" fill="white"/>
<path fill-rule="evenodd" clip-rule="evenodd" d="M15.9974 1.85449C23.7309 1.85449 30 8.124 30.0002 15.8573C30.0001 23.5906 23.7309 29.8601 15.9974 29.8601C8.26435 29.8598 1.99479 23.5904 1.99463 15.8573C1.99483 8.12421 8.26438 1.85483 15.9974 1.85449ZM15.9974 3.02227C8.90884 3.02261 3.16261 8.76867 3.16241 15.8573C3.16257 22.946 8.90881 28.6932 15.9974 28.6935C23.0864 28.6935 28.8335 22.9462 28.8336 15.8573C28.8334 8.76846 23.0864 3.02227 15.9974 3.02227Z" fill="white"/>
</svg>
