<svg preserveAspectRatio="none" width="100%" height="100%" overflow="visible" style="display: block;" viewBox="0 0 28.0056 28.1452" fill="none" xmlns="http://www.w3.org/2000/svg">
<g id="Frame 132">
<g id="Union">
<path d="M12.5267 17.3068C13.4891 16.6426 14.5236 16.4153 15.629 16.6256C16.7364 16.8347 17.6168 17.4125 18.2706 18.3597L19.2426 19.769L17.8473 20.7328L16.8742 19.3235C16.4871 18.7627 15.971 18.4223 15.323 18.3046C14.677 18.1855 14.0682 18.3234 13.501 18.715L11.0388 20.4244C10.2564 20.9675 9.18219 20.7721 8.6411 19.9883L12.5267 17.3068Z" fill="var(--fill-0, white)"/>
<path d="M10.7269 12.7447C11.3925 13.709 11.621 14.7459 11.4128 15.8518C11.2058 16.9592 10.6298 17.8386 9.6846 18.491L8.27764 19.4618L7.31269 18.0631L8.71966 17.0923C9.27895 16.7061 9.61731 16.19 9.73384 15.5423C9.85171 14.8959 9.71338 14.2862 9.32114 13.7179L7.60464 11.2463C7.06227 10.4653 7.25711 9.39224 8.03963 8.85215L10.7269 12.7447Z" fill="var(--fill-0, white)"/>
<path d="M20.6413 10.095L19.2344 11.0658C18.6749 11.452 18.3367 11.9689 18.2202 12.6169C18.1025 13.263 18.2407 13.872 18.6329 14.4401L20.3494 16.9117C20.8917 17.6926 20.6967 18.7657 19.9144 19.3059L17.2271 15.4133C16.5616 14.4491 16.3331 13.4131 16.5412 12.3074C16.7481 11.1997 17.324 10.3195 18.2694 9.66701L19.6764 8.69621L20.6413 10.095Z" fill="var(--fill-0, white)"/>
<path d="M16.8308 7.61167C17.6131 7.06874 18.6875 7.26424 19.2285 8.04783L15.3429 10.7304C14.3807 11.3944 13.3458 11.6219 12.2406 11.4116C11.1333 11.2027 10.2539 10.6234 9.60018 9.67639L8.62703 8.26708L10.0223 7.30449L10.9954 8.7138C11.3824 9.2743 11.8989 9.6138 12.5466 9.7315C13.1926 9.85056 13.8014 9.71372 14.3686 9.32231L16.8308 7.61167Z" fill="var(--fill-0, white)"/>
<path fill-rule="evenodd" clip-rule="evenodd" d="M14.0028 0C21.7362 0 28.0054 6.26951 28.0056 14.0028C28.0055 21.7361 21.7362 28.0056 14.0028 28.0056C6.26972 28.0053 0.000158418 21.7359 0 14.0028C0.000201718 6.26972 6.26975 0.00034158 14.0028 0ZM14.0028 1.16778C6.91421 1.16812 1.16798 6.91417 1.16778 14.0028C1.16794 21.0915 6.91418 26.8387 14.0028 26.839C21.0918 26.839 26.8388 21.0917 26.839 14.0028C26.8388 6.91396 21.0918 1.16778 14.0028 1.16778Z" fill="var(--fill-0, white)"/>
</g>
</g>
</svg>
