<svg width="32" height="32" viewBox="0 0 32 32" fill="none" xmlns="http://www.w3.org/2000/svg">
<rect width="32" height="32" rx="8" fill="url(#paint0_linear_89_2310)"/>
<path d="M14.9853 7.59408C14.9893 7.46654 15.0895 7.36262 15.2169 7.35713C15.7102 7.33589 16.2349 7.34623 16.7074 7.35088C16.8448 7.35223 16.9555 7.46426 16.956 7.60169C16.9593 8.66592 17.0338 9.92026 17.0691 10.9576L17.2697 17.7675C17.2878 18.5057 17.3324 19.215 17.3414 19.9558C17.3423 20.0235 17.3737 20.0857 17.4262 20.1285C17.5173 20.203 17.6526 20.1953 17.7189 20.098C17.8965 19.8371 18.0161 19.539 18.1312 19.2384C19.175 16.5119 20.386 13.8482 21.4111 11.1185C21.5046 10.8697 21.5976 10.65 21.701 10.4275C21.7732 10.2719 21.9794 10.2402 22.0995 10.3627C22.5878 10.8601 22.8934 11.1623 23.2916 11.9003C23.3241 11.9605 23.3292 12.0318 23.307 12.0966C23.0378 12.8837 22.8184 13.6511 22.5716 14.4435C22.1962 15.6489 21.8247 16.856 21.4489 18.0612C21.3304 18.4412 21.2506 18.888 21.1367 19.2789C20.9613 19.8804 20.7412 20.4482 20.5936 21.0553C20.5742 21.1351 20.6034 21.2186 20.667 21.2705C20.7547 21.342 20.8826 21.3343 20.9609 21.2527L24.1277 17.9558C24.3436 17.7276 24.6022 17.5185 24.8271 17.2968C24.8974 17.2275 24.9656 17.156 25.0324 17.0831C25.1835 16.9182 25.4949 17.0067 25.5503 17.2234C25.6093 17.454 25.6774 17.6872 25.7188 17.8885C25.7935 18.2523 25.8532 18.6101 25.9199 18.9725C25.9349 19.0541 25.8953 19.1304 25.8451 19.1965C25.1038 20.173 24.3661 21.1514 23.7065 22.1862C23.5183 22.4816 23.2695 22.7519 23.1053 23.0629C23.0647 23.1398 23.0385 23.2092 23.0348 23.29C23.0328 23.3318 23.0503 23.3714 23.0874 23.3909C23.419 23.5649 25.1563 23.9477 25.8023 24.0912C25.9148 24.1162 25.9934 24.2155 25.9937 24.3308L25.9939 24.3972C25.9942 24.5343 25.8833 24.6456 25.7462 24.6458L21.9747 24.6498C21.904 24.6499 21.8363 24.6199 21.7902 24.5661C21.3567 24.0605 21.0644 23.5494 20.5345 23.0996C19.397 22.1342 18.2849 21.54 16.8215 21.2602C16.1676 21.1688 15.5031 21.1857 14.8547 21.31C13.9966 21.4744 12.7391 22.0706 12.0208 22.6063C11.5291 22.973 10.6228 23.9735 10.2132 24.5382C10.1649 24.6048 10.0883 24.6458 10.006 24.646C8.77993 24.6483 7.47825 24.6698 6.25379 24.6409C6.11855 24.6377 6.01136 24.5259 6.00748 24.3907C6.00702 24.3747 6.00652 24.3587 6.006 24.3427C6.00188 24.2173 6.09058 24.1081 6.21382 24.0843C6.85982 23.9591 8.24614 23.6301 8.83446 23.4009C8.94975 23.3559 8.99381 23.2269 8.9316 23.1199C8.64816 22.6326 7.97017 21.7792 7.70105 21.3959C7.25136 20.7554 6.63848 19.7498 6.13896 19.1431C6.08744 19.0805 6.06777 18.9977 6.08547 18.9186C6.15463 18.6096 6.20419 18.2694 6.27566 17.9635C6.34481 17.6677 6.41765 17.3735 6.49014 17.079C6.53505 16.8966 6.75202 16.8347 6.87502 16.9768C6.99255 17.1125 7.10966 17.2529 7.23342 17.3704C8.0531 18.1265 8.78846 18.9204 9.52403 19.7567C9.95386 20.2454 10.5781 20.7372 11.0173 21.2361C11.0816 21.3091 11.1274 21.3374 11.2105 21.3437C11.2446 21.3462 11.2787 21.3383 11.3101 21.3246C11.345 21.3095 11.3813 21.2909 11.3921 21.2675C11.4935 21.0461 11.2771 20.5799 11.2142 20.3789L10.7632 18.924L9.15444 13.5286C9.01891 13.058 8.80445 12.5006 8.68984 12.0289C8.67387 11.9632 8.68768 11.8939 8.72554 11.8379C9.1237 11.2484 9.37937 10.8644 9.8132 10.3637C9.93175 10.2269 10.1512 10.2655 10.2206 10.4327L13.4444 18.1921C13.6839 18.7629 13.923 19.3338 14.1427 19.9127C14.1658 19.9735 14.2401 20.2013 14.3143 20.198C14.5037 20.1896 14.5951 20.0619 14.6059 19.8778C14.6313 19.4485 14.6312 19.016 14.6429 18.5851L14.9853 7.59408Z" fill="url(#paint1_linear_89_2310)"/>
<defs>
<linearGradient id="paint0_linear_89_2310" x1="16.5411" y1="5.53191" x2="16" y2="32" gradientUnits="userSpaceOnUse">
<stop stop-color="#010E1A"/>
<stop offset="0.5" stop-color="#121C4F"/>
<stop offset="0.69935" stop-color="#1B447A"/>
<stop offset="1" stop-color="#87C9FB"/>
</linearGradient>
<linearGradient id="paint1_linear_89_2310" x1="15.9999" y1="20.1724" x2="24.3765" y2="12.0078" gradientUnits="userSpaceOnUse">
<stop stop-color="#FEFEFE"/>
<stop offset="1" stop-color="#627484"/>
</linearGradient>
</defs>
</svg>
