<svg preserveAspectRatio="none" width="100%" height="100%" overflow="visible" style="display: block;" viewBox="0 0 32 32" fill="none" xmlns="http://www.w3.org/2000/svg">
<g id="Asgard">
<rect width="32" height="32" rx="8" fill="url(#paint0_linear_100_2648)"/>
<path id="Vector" d="M14.9855 7.59405C14.9895 7.46651 15.0896 7.36259 15.2171 7.35711C15.7104 7.33586 16.235 7.3462 16.7075 7.35085C16.845 7.3522 16.9557 7.46423 16.9561 7.60166C16.9595 8.66589 17.034 9.92023 17.0693 10.9576L17.2698 17.7675C17.2879 18.5057 17.3325 19.215 17.3416 19.9558C17.3424 20.0235 17.3738 20.0856 17.4263 20.1285C17.5175 20.2029 17.6527 20.1952 17.719 20.098C17.8967 19.8371 18.0162 19.539 18.1313 19.2384C19.1752 16.5119 20.3861 13.8482 21.4113 11.1185C21.5047 10.8697 21.5977 10.65 21.7011 10.4274C21.7733 10.2719 21.9795 10.2402 22.0997 10.3626C22.5879 10.8601 22.8935 11.1622 23.2917 11.9003C23.3242 11.9605 23.3293 12.0318 23.3072 12.0966C23.0379 12.8836 22.8185 13.6511 22.5717 14.4435C22.1963 15.6489 21.8248 16.856 21.449 18.0612C21.3305 18.4412 21.2507 18.888 21.1368 19.2789C20.9614 19.8804 20.7414 20.4481 20.5937 21.0552C20.5743 21.1351 20.6035 21.2186 20.6672 21.2705C20.7548 21.342 20.8827 21.3342 20.9611 21.2526L24.1278 17.9558C24.3438 17.7276 24.6023 17.5184 24.8272 17.2968C24.8975 17.2274 24.9657 17.1559 25.0325 17.0831C25.1836 16.9182 25.495 17.0067 25.5504 17.2233C25.6094 17.454 25.6775 17.6871 25.7189 17.8885C25.7936 18.2522 25.8533 18.6101 25.92 18.9725C25.935 19.054 25.8954 19.1304 25.8452 19.1964C25.1039 20.173 24.3662 21.1514 23.7067 22.1862C23.5184 22.4816 23.2697 22.7518 23.1054 23.0629C23.0648 23.1397 23.0386 23.2092 23.0349 23.2899C23.033 23.3318 23.0504 23.3714 23.0875 23.3908C23.4191 23.5648 25.1564 23.9477 25.8024 24.0911C25.9149 24.1161 25.9936 24.2155 25.9938 24.3308L25.994 24.3972C25.9944 24.5343 25.8834 24.6456 25.7464 24.6458L21.9748 24.6498C21.9041 24.6499 21.8364 24.6198 21.7903 24.5661C21.3568 24.0604 21.0646 23.5494 20.5346 23.0995C19.3971 22.1341 18.285 21.54 16.8216 21.2601C16.1677 21.1688 15.5032 21.1856 14.8548 21.3099C13.9967 21.4743 12.7392 22.0705 12.0209 22.6062C11.5292 22.973 10.6229 23.9735 10.2133 24.5381C10.165 24.6047 10.0884 24.6458 10.0061 24.646C8.78005 24.6482 7.47838 24.6698 6.25391 24.6409C6.11867 24.6377 6.01148 24.5259 6.0076 24.3907C6.00714 24.3747 6.00664 24.3587 6.00612 24.3427C6.00201 24.2172 6.0907 24.1081 6.21394 24.0842C6.85995 23.959 8.24626 23.6301 8.83458 23.4008C8.94988 23.3559 8.99393 23.2268 8.93172 23.1199C8.64829 22.6326 7.9703 21.7792 7.70117 21.3958C7.25149 20.7554 6.6386 19.7498 6.13908 19.1431C6.08756 19.0805 6.06789 18.9977 6.08559 18.9186C6.15475 18.6095 6.20432 18.2693 6.27579 17.9635C6.34493 17.6677 6.41777 17.3735 6.49027 17.079C6.53518 16.8965 6.75215 16.8347 6.87514 16.9767C6.99268 17.1125 7.10978 17.2529 7.23354 17.3704C8.05323 18.1265 8.78858 18.9203 9.52415 19.7567C9.95398 20.2454 10.5782 20.7371 11.0174 21.2361C11.0817 21.3091 11.1275 21.3374 11.2106 21.3436C11.2447 21.3462 11.2788 21.3382 11.3102 21.3246C11.3451 21.3095 11.3815 21.2909 11.3922 21.2674C11.4936 21.0461 11.2772 20.5799 11.2143 20.3789L10.7634 18.924L9.15456 13.5286C9.01903 13.058 8.80458 12.5006 8.68996 12.0289C8.67399 11.9632 8.6878 11.8939 8.72566 11.8379C9.12382 11.2483 9.37949 10.8644 9.81332 10.3637C9.93187 10.2269 10.1513 10.2655 10.2208 10.4327L13.4445 18.1921C13.6841 18.7629 13.9231 19.3337 14.1428 19.9126C14.1659 19.9735 14.2402 20.2013 14.3145 20.198C14.5038 20.1896 14.5952 20.0619 14.6061 19.8778C14.6314 19.4485 14.6313 19.016 14.6431 18.5851L14.9855 7.59405Z" fill="url(#paint1_linear_100_2648)"/>
</g>
<defs>
<linearGradient id="paint0_linear_100_2648" x1="16.5411" y1="5.53191" x2="16" y2="32" gradientUnits="userSpaceOnUse">
<stop stop-color="#010E1A"/>
<stop offset="0.5" stop-color="#121C4F"/>
<stop offset="0.69935" stop-color="#1B447A"/>
<stop offset="1" stop-color="#87C9FB"/>
</linearGradient>
<linearGradient id="paint1_linear_100_2648" x1="16" y1="20.1724" x2="24.3766" y2="12.0077" gradientUnits="userSpaceOnUse">
<stop stop-color="#FEFEFE"/>
<stop offset="1" stop-color="#627484"/>
</linearGradient>
</defs>
</svg>
