<svg preserveAspectRatio="none" width="100%" height="100%" overflow="visible" style="display: block;" viewBox="0 0 19.9587 19.6793" fill="none" xmlns="http://www.w3.org/2000/svg">
<g id="Fuse Logomark White 1" clip-path="url(#clip0_100_2521)">
<path id="Vector" d="M16.961 18.5642C18.6167 18.5642 19.9588 17.2235 19.9588 15.5696C19.9588 13.9156 18.6167 12.5749 16.961 12.5749C15.3054 12.5749 13.9632 13.9156 13.9632 15.5696C13.9632 17.2235 15.3054 18.5642 16.961 18.5642Z" fill="var(--fill-0, #1A1A1A)"/>
<path id="Vector_2" d="M16.9287 0.520999C16.1867 0.520708 15.4707 0.794174 14.9182 1.28891C10.5335 4.527 7.4031 1.84381 6.70965 1.14571C6.66666 1.09738 6.56451 0.989978 6.56451 0.989978C6.06873 0.509838 5.44235 0.186255 4.76359 0.0596415C4.08484 -0.0669711 3.38375 0.00899959 2.74795 0.278066C2.11215 0.547133 1.56979 0.997366 1.18863 1.57253C0.807463 2.1477 0.604387 2.82231 0.604758 3.51209C0.610179 3.98897 0.708783 4.46022 0.895042 4.89935C1.12082 5.45425 1.65479 5.97333 1.94149 6.41366C2.47905 7.22455 2.76754 7.94414 2.76754 8.97337C2.75831 10.2789 2.25445 11.5324 1.35734 12.4818C1.26058 12.5963 0.837704 13.0778 0.832327 13.0814C0.370426 13.6925 0.0882703 14.4202 0.0175702 15.1826C-0.0531298 15.945 0.090427 16.7121 0.432107 17.3975C0.773784 18.0829 1.30005 18.6596 1.95176 19.0627C2.60346 19.4658 3.35479 19.6793 4.12132 19.6793C4.88782 19.6793 5.63914 19.4658 6.29083 19.0627C6.94257 18.6596 7.4688 18.0829 7.81049 17.3975C8.15219 16.7121 8.29573 15.945 8.22504 15.1826C8.15434 14.4202 7.87217 13.6925 7.41028 13.0814L7.03757 12.6572C6.11811 11.7615 5.56066 10.5592 5.47145 9.27942C5.38223 7.99958 5.76748 6.73172 6.55377 5.71738C6.73124 5.48758 6.92852 5.27378 7.14327 5.07834C7.15078 5.06968 7.15916 5.06186 7.16838 5.05507C8.17255 4.142 9.49326 3.65559 10.8504 3.69903C12.2076 3.74248 13.4944 4.31237 14.438 5.28775C14.5348 5.38982 14.8286 5.70305 14.8752 5.74241C15.5561 6.33135 16.117 6.58195 16.9251 6.58195C17.7297 6.58195 18.5013 6.26265 19.0702 5.69435C19.6391 5.126 19.9587 4.3552 19.9587 3.55147C19.9587 2.74774 19.6391 1.97693 19.0702 1.4086C18.5013 0.840279 17.7297 0.520999 16.9251 0.520999H16.9287Z" fill="var(--fill-0, #1A1A1A)"/>
</g>
<defs>
<clipPath id="clip0_100_2521">
<rect width="19.9587" height="19.6793" fill="white"/>
</clipPath>
</defs>
</svg>
