<svg preserveAspectRatio="none" width="100%" height="100%" overflow="visible" style="display: block;" viewBox="0 0 32 32" fill="none" xmlns="http://www.w3.org/2000/svg">
<g id="Jupiter Lend">
<rect width="32" height="32" rx="8" fill="var(--fill-0, #111727)"/>
<g id="Union">
<path d="M10.7681 15.1127C11.9883 15.0524 13.9791 15.5156 15.0073 16.1756C14.2857 16.1925 13.5638 16.1959 12.842 16.1859L8.62793 16.1885C8.6277 16.0491 8.62803 15.9311 8.63775 15.7921C9.04024 15.3409 10.1915 15.1435 10.7681 15.1127Z" fill="url(#paint0_linear_100_2579)"/>
<path d="M11.3085 12.5442C11.8508 12.5206 12.3409 12.5478 12.8763 12.6381C15.2361 13.0359 17.9801 14.4382 19.6143 16.1901C19.4488 16.1752 19.2715 16.1849 19.1038 16.186L18.3213 16.1876C17.62 16.1907 17.7105 16.2162 17.1455 15.7931C16.7768 15.5432 16.3965 15.3107 16.006 15.0964C14.8779 14.4699 13.6499 14.043 12.3763 13.8347C12.1846 13.8034 11.9044 13.7429 11.7142 13.7404C11.2466 13.7342 10.7115 13.7039 10.2499 13.7532C9.76155 13.8054 9.2564 13.9564 8.78993 14.0941C8.84577 13.8078 8.91765 13.6039 9.11711 13.3836C9.64164 12.8042 10.5535 12.5778 11.3085 12.5442Z" fill="url(#paint1_linear_100_2579)"/>
<path d="M12.6312 10.1836C13.9141 10.1163 15.322 10.4594 16.514 10.9444C18.6235 11.8027 20.7564 13.2594 22.0856 15.13C22.3324 15.4773 22.5306 15.7924 22.698 16.1803C22.3699 16.1804 22.1311 16.2026 21.7951 16.1706C21.6216 16.0087 21.3606 15.6586 21.1765 15.4564C20.6675 14.9061 20.1161 14.3966 19.5272 13.9327C17.7243 12.5112 15.3525 11.3734 13.0684 11.0157C12.4942 10.9259 11.8062 10.9128 11.2238 10.9259C11.0521 10.9298 10.6506 10.9879 10.4627 11.0101C11.069 10.3922 11.7941 10.2308 12.6312 10.1836Z" fill="url(#paint2_linear_100_2579)"/>
<path d="M15.8027 8.5453C16.0317 8.52239 16.381 8.5404 16.6082 8.55962C17.616 8.638 18.5982 8.91565 19.498 9.37638C21.0655 10.1782 22.3006 11.5064 22.9864 13.1277C23.1733 13.5657 23.2386 13.84 23.3796 14.2774C23.1243 14.0018 22.87 13.6607 22.6004 13.3653C20.6709 11.2477 17.5628 9.4652 14.7401 8.95099C14.5196 8.91081 14.2935 8.85433 14.0715 8.82847C14.5541 8.67369 15.299 8.57522 15.8027 8.5453Z" fill="url(#paint3_linear_100_2579)"/>
<path fill-rule="evenodd" clip-rule="evenodd" d="M7.83142 10.2331C10.2161 6.85697 14.4331 5.29598 18.4421 6.3053C22.9345 7.43636 26.0617 11.5042 25.9991 16.1353C25.9364 20.7664 22.7002 24.7481 18.1788 25.7573C14.144 26.6577 9.97079 24.9832 7.67832 21.5438C5.38584 18.1044 5.44669 13.6092 7.83142 10.2331ZM16.0711 7.00654C15.7269 7.00345 15.341 7.00111 14.9989 7.02563C14.8397 7.03703 14.596 7.08778 14.4326 7.11696C13.1773 7.33309 11.9834 7.81763 10.9326 8.53744C8.94836 9.8879 7.58064 11.9699 7.12935 14.3269C7.03439 14.8436 6.98631 15.364 7.00013 15.8878C7.00806 16.1886 6.98872 16.4958 7.01293 16.7961C7.14952 18.3367 7.68079 19.8161 8.55551 21.0917C9.92747 23.0969 12.0513 24.4634 14.4452 24.8812C15.2925 25.0347 16.1733 25.0023 17.0328 24.9626C17.327 24.949 17.65 24.8334 17.9407 24.814C18.3214 24.7027 18.607 24.6498 18.9988 24.5067C20.1155 24.0986 21.1386 23.5178 22.0195 22.7139C22.1659 22.5803 22.3628 22.3954 22.4856 22.2417C21.9936 22.19 21.4883 22.2244 20.9934 22.2164C20.7747 22.2101 20.5436 22.2312 20.3277 22.1939C18.4685 21.8723 17.7216 19.5887 19.0625 18.2401C19.9171 17.3806 20.9047 17.5375 22.007 17.5377L24.8715 17.5363C25.001 17.0206 24.974 16.6859 24.9922 16.1717C25.0443 14.7036 24.7513 13.3413 24.092 12.0122C23.139 10.0905 21.5366 8.56781 19.5685 7.71368C19.2883 7.59287 18.9741 7.47471 18.6827 7.38175C18.494 7.32156 18.2973 7.28268 18.1057 7.21828C17.7793 7.15823 17.4 7.07582 17.0775 7.03279C16.7907 6.99455 16.3669 7.00919 16.0711 7.00654ZM20.7062 18.5793C19.9847 18.6033 19.4198 19.2081 19.4452 19.9294C19.4706 20.6506 20.0768 21.2143 20.7982 21.1874C21.5174 21.1606 22.0792 20.5566 22.0538 19.8375C22.0286 19.1183 21.4256 18.5555 20.7062 18.5793Z" fill="url(#paint4_linear_100_2579)"/>
</g>
</g>
<defs>
<linearGradient id="paint0_linear_100_2579" x1="25.6134" y1="13.4907" x2="6.00016" y2="16.0013" gradientUnits="userSpaceOnUse">
<stop stop-color="#B4D88E"/>
<stop offset="1" stop-color="#46C5CE"/>
</linearGradient>
<linearGradient id="paint1_linear_100_2579" x1="25.6134" y1="13.4907" x2="6.00016" y2="16.0013" gradientUnits="userSpaceOnUse">
<stop stop-color="#B4D88E"/>
<stop offset="1" stop-color="#46C5CE"/>
</linearGradient>
<linearGradient id="paint2_linear_100_2579" x1="25.6134" y1="13.4907" x2="6.00016" y2="16.0013" gradientUnits="userSpaceOnUse">
<stop stop-color="#B4D88E"/>
<stop offset="1" stop-color="#46C5CE"/>
</linearGradient>
<linearGradient id="paint3_linear_100_2579" x1="25.6134" y1="13.4907" x2="6.00016" y2="16.0013" gradientUnits="userSpaceOnUse">
<stop stop-color="#B4D88E"/>
<stop offset="1" stop-color="#46C5CE"/>
</linearGradient>
<linearGradient id="paint4_linear_100_2579" x1="25.6134" y1="13.4907" x2="6.00016" y2="16.0013" gradientUnits="userSpaceOnUse">
<stop stop-color="#B4D88E"/>
<stop offset="1" stop-color="#46C5CE"/>
</linearGradient>
</defs>
</svg>
