<svg preserveAspectRatio="none" width="100%" height="100%" overflow="visible" style="display: block;" viewBox="0 0 32 32" fill="none" xmlns="http://www.w3.org/2000/svg">
<g id="Kamino">
<rect width="32" height="32" rx="8" fill="var(--fill-0, #04162E)"/>
<g id="Union">
<path d="M20.2771 12.1624C20.5865 12.166 21.4177 12.142 21.6927 12.1941C21.7013 12.2587 21.6636 12.4063 21.6154 12.4423C18.229 14.9704 17.9721 20.5407 21.1964 23.4194C21.4294 23.607 21.5941 23.7292 21.7548 23.9819C21.2867 24.0244 20.5321 24.0044 20.0438 24.0043L17.0946 24.0029C16.9192 23.7595 16.7981 23.5184 16.6595 23.2572C15.369 20.8256 15.0603 17.9546 15.7508 15.2959C16.0524 14.1345 16.5057 13.195 17.1109 12.16C18.1589 12.1792 19.2279 12.1502 20.2771 12.1624Z" fill="var(--fill-0, #C9F2FA)"/>
<path d="M13.791 24.0077L10.2466 24.0043L10.2452 7.99229L13.789 7.99091L13.791 24.0077Z" fill="var(--fill-0, #C9F2FA)"/>
</g>
</g>
</svg>
