<svg preserveAspectRatio="none" width="100%" height="100%" overflow="visible" style="display: block;" viewBox="0 0 19.9965 13.528" fill="none" xmlns="http://www.w3.org/2000/svg">
<g id="Frame 1000002794">
<path id="Subtract" d="M15.6243 0.00458672C17.9771 -0.0930302 20.5227 1.37015 19.9017 4.14033C19.6199 5.39657 18.2852 6.52203 17.3714 7.36006C16.6025 8.06513 17.3327 9.24856 17.0609 10.1511C16.9196 10.6207 16.5288 10.9798 16.0218 11.0563C13.316 11.2053 10.7245 11.8042 8.17023 12.6921C7.77769 12.8256 7.38969 12.9727 7.00714 13.1325C6.03489 13.5294 5.31738 13.9172 4.65363 12.7507C4.47043 12.4247 4.31365 12.0509 4.15753 11.7097C4.03056 11.4322 3.89356 10.9246 3.70734 10.7077C3.41235 10.4208 2.93318 10.3146 2.55304 10.1579C0.656916 9.37589 -0.353257 8.06076 0.113587 5.9665C0.270464 5.26917 0.69662 4.66157 1.29913 4.27705C2.71322 3.38867 4.94171 3.51713 6.47296 4.02607C6.81758 4.14066 7.16334 4.28552 7.51691 4.36689C7.91613 4.20699 8.59886 3.72628 8.9798 3.47041C9.60397 3.05235 10.2216 2.62473 10.8323 2.1872C12.3522 1.10091 13.6688 0.111629 15.6243 0.00458672ZM18.513 2.17256C17.8055 1.2489 16.5244 1.03947 15.4329 1.14131C14.8266 1.18612 14.3452 1.30418 13.7962 1.57783C12.6089 2.16972 11.5168 3.04724 10.4271 3.80244C9.18497 4.64801 7.91809 5.45654 6.62824 6.22724C6.17761 6.49713 5.45571 6.98196 4.98859 7.13935C4.78846 7.08576 4.60571 7.03819 4.49347 6.84638C4.42819 6.73476 4.39243 6.61164 4.42804 6.48408C4.57434 5.96011 6.20223 5.48808 5.96613 5.10127C5.8691 4.94258 5.45756 4.8496 5.28058 4.81611C4.30434 4.63144 2.70513 4.63541 1.86945 5.21064C1.45207 5.49796 1.21247 5.91239 1.12335 6.40693C1.01738 6.99527 1.06206 7.54632 1.41144 8.04658C1.81803 8.62859 2.71925 9.18578 3.41632 9.30927C3.59939 9.34168 3.79391 9.35453 3.97589 9.31123C4.64163 9.15253 6.86754 7.73278 7.38116 8.47529C7.46932 8.60287 7.47473 8.79473 7.44269 8.94209C7.41725 9.05909 7.33613 9.15135 7.23663 9.21357C6.74833 9.51842 5.05645 9.68037 4.89288 10.2976C4.79621 10.6625 5.08935 11.1247 5.23468 11.444C5.30584 11.6004 5.35787 11.7702 5.44659 11.9177C5.54693 12.0845 5.69369 12.2057 5.88605 12.2487C6.27966 12.3362 7.54868 11.737 7.97296 11.5759C9.35001 11.0767 10.7637 10.6849 12.2015 10.405C13.0514 10.2331 13.8616 10.0866 14.7278 10.0349C15.0412 10.0162 15.8269 10.0398 15.9837 9.70674C16.1159 9.42552 15.9846 8.55637 15.8704 8.26631C15.8025 8.09399 15.6613 7.96713 15.4925 7.89619C14.8393 7.62185 12.6448 7.9442 11.8987 8.10224C11.5175 8.18301 11.0006 8.39125 10.6194 8.34345C10.4582 8.32318 10.3271 8.1832 10.264 8.04072C10.2108 7.92049 10.2008 7.75739 10.2484 7.63349C10.311 7.47071 10.4772 7.36521 10.6312 7.30146C11.0534 7.12678 11.5273 7.07265 11.973 6.9831C12.1393 6.47722 12.2794 5.95854 12.4271 5.45185C12.4976 5.21006 12.8203 4.98686 13.0667 5.08662C13.3134 5.16904 13.4133 5.43348 13.4974 5.65205C13.4137 5.7938 13.391 5.96013 13.346 6.12959C13.2971 6.33048 13.2163 6.60725 13.4271 6.7458C13.4657 6.77115 13.5544 6.78077 13.5911 6.75947C14.2531 6.37495 14.6525 4.65427 15.1429 4.2458C15.6595 4.18046 15.7823 4.26149 15.9554 4.74091C15.8308 5.17176 15.3906 6.10492 15.136 6.49287C15.2051 6.5762 15.2789 6.66001 15.3343 6.75263C15.9045 6.82666 16.308 6.83837 16.7679 6.43525C17.9202 5.42486 19.7571 3.79706 18.513 2.17256Z" fill="var(--fill-0, #FEFEFE)"/>
</g>
</svg>
