<svg preserveAspectRatio="none" width="100%" height="100%" overflow="visible" style="display: block;" viewBox="0 0 32 32" fill="none" xmlns="http://www.w3.org/2000/svg">
<g id="xStock">
<rect width="32" height="32" rx="8" fill="var(--fill-0, #181C1B)"/>
<path id="Vector" d="M8.00391 7.99887H13.3288C13.507 8.16722 13.6857 8.34973 13.8582 8.52524C14.5655 9.24512 15.2971 9.94631 16.0016 10.6685C16.1444 10.5027 16.3825 10.2801 16.5415 10.1208L17.5861 9.0763L18.3015 8.36131C18.3849 8.27765 18.5929 8.05928 18.671 7.99887H23.9961V13.3342L22.2265 15.1049C21.9423 15.3895 21.6199 15.7282 21.3286 16.0001C21.5611 16.2203 21.8 16.4675 22.0282 16.6956L23.2407 17.9067L23.7415 18.4077C23.8111 18.4771 23.9259 18.5997 23.9961 18.6589V23.9973C23.9961 23.9973 23.4251 23.9973 23.2106 23.9973H21.8133L19.705 23.9974C19.3693 23.9974 19.002 24.0055 18.6689 23.9978C18.605 23.9459 18.4307 23.762 18.3655 23.6967L17.7312 23.0614L16.6144 21.9442C16.4145 21.7442 16.1934 21.5309 16.0004 21.3267C15.8563 21.4845 15.65 21.6798 15.4957 21.8342L14.5227 22.808L13.7444 23.5882C13.6263 23.7066 13.4485 23.8956 13.3293 23.9999C12.8685 23.9914 12.3919 23.9974 11.9302 23.9974L9.39364 23.9974L8.47451 23.9978C8.36203 23.9981 8.00391 23.9978 8.00391 23.9978V18.6657C8.08099 18.5699 8.26072 18.4008 8.35446 18.3072L9.03914 17.6232L10.0772 16.5853C10.2613 16.4013 10.4767 16.1751 10.667 16.0021C10.5802 15.9035 10.4506 15.7815 10.3548 15.6855L9.76879 15.0991L8.00391 13.3342V7.99887Z" fill="url(#paint0_linear_100_2416)"/>
</g>
<defs>
<linearGradient id="paint0_linear_100_2416" x1="23.9961" y1="7.99886" x2="8.0039" y2="24.0011" gradientUnits="userSpaceOnUse">
<stop stop-color="#5FCEF0"/>
<stop offset="1" stop-color="#1FD59A"/>
</linearGradient>
</defs>
</svg>
