<svg preserveAspectRatio="none" width="100%" height="100%" overflow="visible" style="display: block;" viewBox="0 0 19.8335 10.6669" fill="none" xmlns="http://www.w3.org/2000/svg">
<path id="Vector" d="M3.80556 6.86112H2.27778C1.43401 6.86112 0.75 7.54513 0.75 8.3889C0.75 9.23266 1.43401 9.91667 2.27778 9.91667C3.12155 9.91667 3.80556 9.23266 3.80556 8.3889V6.86112ZM3.80556 6.86112H6.86111M3.80556 6.86112V3.80556M6.86111 6.86112H8.38889C9.23266 6.86112 9.91667 7.54513 9.91667 8.3889C9.91667 9.23266 9.23266 9.91667 8.38889 9.91667C7.54512 9.91667 6.86111 9.23266 6.86111 8.3889V6.86112ZM6.86111 6.86112V3.80556M6.86111 3.80556V2.27778C6.86111 1.43402 7.54512 0.750007 8.38889 0.750007C9.23266 0.750007 9.91667 1.43402 9.91667 2.27779C9.91667 3.12155 9.23266 3.80556 8.38889 3.80556H6.86111ZM6.86111 3.80556H3.80556M3.80556 3.80556H2.27778C1.43401 3.80556 0.75 3.12155 0.75 2.27779C0.75 1.43402 1.43401 0.750007 2.27778 0.750007C3.12155 0.750007 3.80556 1.43402 3.80556 2.27778V3.80556ZM13.25 0.750007V7.00001M13.25 7.00001V9.91667M13.25 7.00001L14.9511 5.29892M14.9511 5.29892L19.0185 0.750007M14.9511 5.29892C16.8415 6.11768 18.3037 7.68923 18.9843 9.63368L19.0833 9.91667" stroke="var(--stroke-0, white)" stroke-width="1.5" stroke-linecap="round" stroke-linejoin="round"/>
</svg>
