<svg overflow="visible" preserveAspectRatio="xMidYMid meet" viewBox="0 0 16 16" fill="none" xmlns="http://www.w3.org/2000/svg">
<path id="Vector" d="M11.84447 11.84447C12.02941 11.81708 12.19402 11.77991 12.34903 11.72956C13.5429 11.3417 14.47889 10.40571 14.86684 9.21181C15.05874 8.62109 15.05874 7.89119 15.05874 6.43138C15.05874 4.97157 15.05874 4.24166 14.86684 3.65096C14.47889 2.45709 13.5429 1.52109 12.34903 1.13318C11.75836 0.94125 11.02839 0.94125 9.56864 0.94125C8.10879 0.94125 7.37888 0.94125 6.78817 1.13318C5.59432 1.52109 4.65831 2.45709 4.2704 3.65096C4.22003 3.80598 4.18288 3.9706 4.15548 4.15548M11.84447 11.84447C11.92155 11.32495 11.92155 10.64533 11.92155 9.56864C11.92155 8.10879 11.92155 7.37888 11.72956 6.78817C11.3417 5.59432 10.40571 4.65831 9.21181 4.2704C8.62109 4.07846 7.89119 4.07846 6.43138 4.07846C5.35469 4.07846 4.67505 4.07846 4.15548 4.15548M11.84447 11.84447C11.81708 12.02941 11.77991 12.19402 11.72956 12.34903C11.3417 13.5429 10.40571 14.47889 9.21181 14.86684C8.62109 15.05874 7.89119 15.05874 6.43138 15.05874C4.97157 15.05874 4.24166 15.05874 3.65096 14.86684C2.45709 14.47889 1.52109 13.5429 1.13318 12.34903C0.94125 11.75836 0.94125 11.02839 0.94125 9.56864C0.94125 8.10879 0.94125 7.37888 1.13318 6.78817C1.52109 5.59432 2.45709 4.65831 3.65096 4.2704C3.80598 4.22003 3.9706 4.18288 4.15548 4.15548" stroke="var(--stroke-0, white)" stroke-width="1.5" stroke-linecap="round" stroke-linejoin="round"/>
</svg>
