<svg overflow="visible" preserveAspectRatio="xMidYMid meet" viewBox="0 0 13.498 14.4037" fill="none" xmlns="http://www.w3.org/2000/svg">
<path id="Vector" d="M6.749 13.6537C6.96357 13.6537 7.17815 13.6313 7.38919 13.5864C7.7762 13.5041 8.14456 13.3181 8.74899 12.9742M6.749 13.6537C6.53441 13.6537 6.31983 13.6313 6.10879 13.5864C5.72178 13.5041 5.35342 13.3181 4.74899 12.9742M6.749 13.6537V11.8685M6.749 0.75C6.96357 0.75 7.17815 0.77243 7.38919 0.817288C7.7762 0.899549 8.14456 1.08558 8.74899 1.42952M6.749 0.75C6.53441 0.75 6.31983 0.772429 6.10879 0.817288C5.72178 0.899549 5.35342 1.08558 4.74899 1.42952M6.749 0.75L6.74898 2.53516M1.16152 3.97592C1.05423 4.16175 0.966367 4.3588 0.899694 4.564C0.77743 4.94029 0.754355 5.35232 0.75 6.04774M1.16152 3.97592C1.26881 3.79009 1.39553 3.61548 1.5399 3.45514C1.80464 3.16111 2.14993 2.93511 2.75 2.58363M1.16152 3.97592L2.70756 4.86853M1.16153 10.4278C1.26881 10.6136 1.39553 10.7882 1.5399 10.9486C1.80464 11.2426 2.14993 11.4686 2.75 11.8201M1.16153 10.4278C1.05423 10.2419 0.966368 10.0449 0.899694 9.8397C0.77743 9.46341 0.754355 9.05138 0.75 8.35596M1.16153 10.4278L2.70758 9.53515M12.3365 3.97593C12.2292 3.7901 12.1025 3.61548 11.9581 3.45514C11.6933 3.16111 11.348 2.93511 10.748 2.58363M12.3365 3.97593C12.4437 4.16176 12.5316 4.3588 12.5983 4.564C12.7205 4.94029 12.7436 5.35231 12.748 6.04773M12.3365 3.97593L10.7905 4.86849M12.3365 10.4278C12.4437 10.2419 12.5316 10.0449 12.5983 9.8397C12.7205 9.46341 12.7436 9.05139 12.748 8.35597M12.3365 10.4278C12.2292 10.6136 12.1024 10.7882 11.9581 10.9486C11.6933 11.2426 11.348 11.4686 10.748 11.8201M12.3365 10.4278L10.7485 9.51096M6.74899 9.20185L6.749 7.20185M8.48133 6.20169L6.749 7.20185M5.01665 6.20168L6.749 7.20185" stroke="var(--stroke-0, white)" stroke-width="1.5" stroke-linecap="round" stroke-linejoin="round"/>
</svg>
