<svg width="16" height="16" viewBox="0 0 16 16" fill="none" xmlns="http://www.w3.org/2000/svg">
<g clip-path="url(#clip0_438_319)">
<path d="M6.86855 2.29528C7.26457 1.89927 7.46258 1.70126 7.6909 1.62707C7.89175 1.56181 8.1081 1.56181 8.30894 1.62707C8.53727 1.70126 8.73528 1.89927 9.13129 2.29528L9.46128 2.62527C9.85729 3.02128 10.0553 3.21929 10.1295 3.44762C10.1947 3.64846 10.1947 3.86481 10.1295 4.06565C10.0553 4.29398 9.85729 4.49199 9.46128 4.88801L9.13129 5.21799C8.73528 5.61401 8.53727 5.81202 8.30894 5.8862C8.1081 5.95146 7.89175 5.95146 7.6909 5.8862C7.46258 5.81202 7.26457 5.61401 6.86855 5.21799L6.53857 4.88801C6.14255 4.49199 5.94454 4.29398 5.87035 4.06565C5.8051 3.86481 5.8051 3.64846 5.87035 3.44762C5.94454 3.21929 6.14255 3.02128 6.53857 2.62527L6.86855 2.29528Z" stroke="#7478FF" stroke-width="1.5" stroke-linecap="round" stroke-linejoin="round"/>
<path d="M2.62588 6.5378C3.02189 6.14178 3.2199 5.94377 3.44823 5.86958C3.64907 5.80432 3.86542 5.80432 4.06626 5.86958C4.29459 5.94377 4.4926 6.14178 4.88862 6.5378L5.2186 6.86778C5.61462 7.2638 5.81263 7.4618 5.88681 7.69013C5.95207 7.89098 5.95207 8.10732 5.88681 8.30817C5.81263 8.53649 5.61462 8.7345 5.2186 9.13052L4.88862 9.4605C4.4926 9.85652 4.29459 10.0545 4.06626 10.1287C3.86542 10.194 3.64907 10.194 3.44823 10.1287C3.2199 10.0545 3.02189 9.85652 2.62588 9.4605L2.29589 9.13052C1.89988 8.7345 1.70187 8.53649 1.62768 8.30817C1.56242 8.10732 1.56242 7.89098 1.62768 7.69013C1.70187 7.4618 1.89988 7.2638 2.29589 6.86778L2.62588 6.5378Z" stroke="#7478FF" stroke-width="1.5" stroke-linecap="round" stroke-linejoin="round"/>
<path d="M11.1112 6.5378C11.5072 6.14178 11.7053 5.94377 11.9336 5.86958C12.1344 5.80432 12.3508 5.80432 12.5516 5.86958C12.7799 5.94377 12.978 6.14178 13.374 6.5378L13.704 6.86778C14.1 7.2638 14.298 7.4618 14.3722 7.69013C14.4374 7.89098 14.4374 8.10732 14.3722 8.30817C14.298 8.53649 14.1 8.7345 13.704 9.13052L13.374 9.4605C12.978 9.85652 12.7799 10.0545 12.5516 10.1287C12.3508 10.194 12.1344 10.194 11.9336 10.1287C11.7053 10.0545 11.5072 9.85652 11.1112 9.4605L10.7812 9.13052C10.3852 8.7345 10.1872 8.53649 10.113 8.30817C10.0478 8.10732 10.0478 7.89098 10.113 7.69013C10.1872 7.4618 10.3852 7.2638 10.7812 6.86778L11.1112 6.5378Z" stroke="#7478FF" stroke-width="1.5" stroke-linecap="round" stroke-linejoin="round"/>
<path d="M6.86855 10.7806C7.26457 10.3846 7.46258 10.1866 7.6909 10.1124C7.89175 10.0472 8.1081 10.0472 8.30894 10.1124C8.53727 10.1866 8.73528 10.3846 9.13129 10.7806L9.46128 11.1106C9.85729 11.5066 10.0553 11.7046 10.1295 11.933C10.1947 12.1338 10.1947 12.3502 10.1295 12.551C10.0553 12.7793 9.85729 12.9773 9.46128 13.3734L9.13129 13.7033C8.73528 14.0994 8.53727 14.2974 8.30894 14.3716C8.1081 14.4368 7.89175 14.4368 7.6909 14.3716C7.46258 14.2974 7.26457 14.0994 6.86855 13.7033L6.53857 13.3734C6.14255 12.9773 5.94454 12.7793 5.87035 12.551C5.8051 12.3502 5.8051 12.1338 5.87035 11.933C5.94454 11.7046 6.14255 11.5066 6.53857 11.1106L6.86855 10.7806Z" stroke="#7478FF" stroke-width="1.5" stroke-linecap="round" stroke-linejoin="round"/>
</g>
<defs>
<clipPath id="clip0_438_319">
<rect width="16" height="16" fill="white"/>
</clipPath>
</defs>
</svg>
