<svg width="20" height="20" viewBox="0 0 20 20" fill="none" xmlns="http://www.w3.org/2000/svg">
<path d="M17.708 12.5C17.3323 11.9845 16.8177 11.6667 16.25 11.6667C15.0994 11.6667 14.1667 12.9725 14.1667 14.5833C14.1667 16.1942 15.0994 17.5 16.25 17.5C16.8177 17.5 17.3323 17.1822 17.708 16.6667V15H17.0833M5.83333 11.6667H3.95833C3.15292 11.6667 2.5 12.3196 2.5 13.125C2.5 13.9304 3.15292 14.5833 3.95833 14.5833H5.20833C6.01375 14.5833 6.66667 15.2363 6.66667 16.0417C6.66667 16.8471 6.01375 17.5 5.20833 17.5H2.5M8.33333 11.6667L9.62565 17.5H10.918L12.2103 11.6667M9.16667 1.66667H10C13.6819 1.66667 16.6667 4.65144 16.6667 8.33333H16.5244C16.1812 7.36234 15.2552 6.66667 14.1667 6.66667L13.6667 6.66667C13.357 6.66667 13.2022 6.66667 13.0726 6.64615C12.3595 6.53319 11.8001 5.97388 11.6872 5.26072C11.6667 5.13117 11.6667 4.97634 11.6667 4.66667V4.16667C11.6667 2.78595 10.5474 1.66667 9.16667 1.66667ZM9.16667 1.66667H6.66667C4.82572 1.66667 3.33333 3.15905 3.33333 5V8.33333" stroke="white" stroke-width="1.5" stroke-linecap="round" stroke-linejoin="round"/>
</svg>
