<svg overflow="visible" preserveAspectRatio="xMidYMid meet" viewBox="0 0 16 16" fill="none" xmlns="http://www.w3.org/2000/svg">
<path id="Vector" d="M7.191 10.42404C6.66356 10.9893 6.37416 11.73589 6.38288 12.50896V15.2727M10.42344 10.42404C10.9509 10.9893 11.24026 11.73589 11.23154 12.50896V15.2727M6.38288 13.69689C5.66003 13.9848 4.87602 14.08488 4.10401 13.98781C2.87569 13.56762 3.19893 12.45243 2.56861 11.99181C2.26571 11.77526 1.90625 11.65162 1.53423 11.6362M14.46394 6.18146C14.46394 8.60579 12.88813 10.42404 8.80721 10.42404C4.72626 10.42404 3.15045 8.60579 3.15045 6.18146C3.13048 5.34036 3.31929 4.50742 3.69996 3.75713C3.4252 2.56921 3.53026 1.10653 4.12018 0.81561C4.7101 0.52469 5.95459 1.05805 6.98089 1.74494C7.58371 1.63736 8.19487 1.58328 8.80721 1.58331C9.41909 1.57794 10.03024 1.62662 10.6335 1.72877C11.65987 1.04188 12.96086 0.53277 13.49421 0.79945C14.02756 1.06612 14.18922 2.55304 13.91449 3.74097C14.29773 4.49611 14.48664 5.33492 14.46394 6.18146Z" stroke="var(--stroke-0, white)" stroke-width="1.5" stroke-linecap="round" stroke-linejoin="round"/>
</svg>
