<svg overflow="visible" preserveAspectRatio="xMidYMid meet" viewBox="0 0 16 16" fill="none" xmlns="http://www.w3.org/2000/svg">
<g id="grid/grid-dashboard-02">
<g id="Vector">
<path d="M2 4.13334C2 3.3866 2 3.01323 2.14533 2.72802C2.27315 2.47713 2.47713 2.27315 2.72802 2.14533C3.01323 2 3.3866 2 4.13334 2H4.53334C5.28007 2 5.65344 2 5.93866 2.14533C6.18954 2.27315 6.39351 2.47713 6.52134 2.72802C6.66666 3.01323 6.66666 3.3866 6.66666 4.13334V4.53334C6.66666 5.28007 6.66666 5.65344 6.52134 5.93866C6.39351 6.18954 6.18954 6.39351 5.93866 6.52134C5.65344 6.66666 5.28007 6.66666 4.53334 6.66666H4.13334C3.3866 6.66666 3.01323 6.66666 2.72802 6.52134C2.47713 6.39351 2.27315 6.18954 2.14533 5.93866C2 5.65344 2 5.28007 2 4.53334V4.13334Z" stroke="var(--stroke-0, white)" stroke-width="1.5" stroke-linecap="round" stroke-linejoin="round"/>
<path d="M2 11.46664C2 10.71992 2 10.34656 2.14533 10.06136C2.27315 9.81048 2.47713 9.60648 2.72802 9.47864C3.01323 9.33336 3.3866 9.33336 4.13334 9.33336H4.53334C5.28007 9.33336 5.65344 9.33336 5.93866 9.47864C6.18954 9.60648 6.39351 9.81048 6.52134 10.06136C6.66666 10.34656 6.66666 10.71992 6.66666 11.46664V11.86664C6.66666 12.61344 6.66666 12.9868 6.52134 13.272C6.39351 13.52288 6.18954 13.72688 5.93866 13.85464C5.65344 14 5.28007 14 4.53334 14H4.13334C3.3866 14 3.01323 14 2.72802 13.85464C2.47713 13.72688 2.27315 13.52288 2.14533 13.272C2 12.9868 2 12.61344 2 11.86664V11.46664Z" stroke="var(--stroke-0, white)" stroke-width="1.5" stroke-linecap="round" stroke-linejoin="round"/>
<path d="M9.33336 4.13334C9.33336 3.3866 9.33336 3.01323 9.47864 2.72802C9.60648 2.47713 9.81048 2.27315 10.06136 2.14533C10.34656 2 10.71992 2 11.46664 2H11.86664C12.61344 2 12.9868 2 13.272 2.14533C13.52288 2.27315 13.72688 2.47713 13.85464 2.72802C14 3.01323 14 3.3866 14 4.13334V4.53334C14 5.28007 14 5.65344 13.85464 5.93866C13.72688 6.18954 13.52288 6.39351 13.272 6.52134C12.9868 6.66666 12.61344 6.66666 11.86664 6.66666H11.46664C10.71992 6.66666 10.34656 6.66666 10.06136 6.52134C9.81048 6.39351 9.60648 6.18954 9.47864 5.93866C9.33336 5.65344 9.33336 5.28007 9.33336 4.53334V4.13334Z" stroke="var(--stroke-0, white)" stroke-width="1.5" stroke-linecap="round" stroke-linejoin="round"/>
<path d="M9.33336 11.46664C9.33336 10.71992 9.33336 10.34656 9.47864 10.06136C9.60648 9.81048 9.81048 9.60648 10.06136 9.47864C10.34656 9.33336 10.71992 9.33336 11.46664 9.33336H11.86664C12.61344 9.33336 12.9868 9.33336 13.272 9.47864C13.52288 9.60648 13.72688 9.81048 13.85464 10.06136C14 10.34656 14 10.71992 14 11.46664V11.86664C14 12.61344 14 12.9868 13.85464 13.272C13.72688 13.52288 13.52288 13.72688 13.272 13.85464C12.9868 14 12.61344 14 11.86664 14H11.46664C10.71992 14 10.34656 14 10.06136 13.85464C9.81048 13.72688 9.60648 13.52288 9.47864 13.272C9.33336 12.9868 9.33336 12.61344 9.33336 11.86664V11.46664Z" stroke="var(--stroke-0, white)" stroke-width="1.5" stroke-linecap="round" stroke-linejoin="round"/>
</g>
</g>
</svg>
