<svg width="240" height="240" viewBox="0 0 240 240" fill="none" xmlns="http://www.w3.org/2000/svg">
<path d="M60.0448 0.500122H0.500023V60.0449M60.0448 0.500122V60.0449M60.0448 0.500122L119.59 0.5M60.0448 60.0449H0.500023M60.0448 60.0449V119.589M60.0448 60.0449L119.59 60.0448M0.500023 60.0449V119.589M60.0448 119.589H0.500023M60.0448 119.589V179.134M60.0448 119.589H119.59M60.0448 119.589C60.0448 152.475 86.7039 179.134 119.59 179.134M60.0448 119.589C60.0448 86.7037 86.7039 60.0448 119.59 60.0448M0.500023 119.589V179.134M0.500023 119.589C0.500023 185.361 53.8183 238.679 119.59 238.679M0.500023 119.589C0.500023 53.818 53.8183 0.5 119.59 0.5M60.0448 179.134H0.500023M60.0448 179.134V238.679M60.0448 179.134H119.59M0.500023 179.134V238.679H60.0448M60.0448 238.679H119.59M119.59 0.5V60.0448M119.59 0.5H179.134M119.59 0.5C185.361 0.5 238.679 53.818 238.679 119.589M119.59 60.0448V119.589M119.59 60.0448H179.134M119.59 60.0448C152.475 60.0448 179.134 86.7037 179.134 119.589M119.59 119.589V179.134M119.59 119.589H179.134M119.59 179.134V238.679M119.59 179.134H179.134M119.59 179.134C152.475 179.134 179.134 152.475 179.134 119.589M119.59 238.679H179.134M119.59 238.679C185.361 238.679 238.679 185.361 238.679 119.589M179.134 0.5V60.0448M179.134 0.5H238.679V60.0448M179.134 60.0448V119.589M179.134 60.0448H238.679M179.134 119.589V179.134M179.134 119.589H238.679M179.134 179.134V238.679M179.134 179.134H238.679M179.134 238.679H238.679V179.134M238.679 60.0448V119.589M238.679 119.589V179.134" stroke="#1F2124"/>
</svg>
