<svg width="484" height="130" viewBox="0 0 484 130" fill="none" xmlns="http://www.w3.org/2000/svg">
<path fill-rule="evenodd" clip-rule="evenodd" d="M8.67086 27.0241C10.6221 26.4203 13.0383 26.4898 17.8707 26.6288C24.3334 26.8146 27.5647 26.9075 30.6527 26.4816C36.5631 25.6665 42.1939 23.4534 47.0776 20.0261C49.6292 18.2354 51.9325 15.9672 56.5392 11.4308L59.866 8.15467C64.3504 3.73862 66.5926 1.53055 69.3089 0.628005C70.8176 0.126706 72.4091 -0.0776096 73.9954 0.0263466C76.8516 0.213512 79.5789 1.78358 85.0333 4.9237L109.494 19.0054C115.513 22.4707 118.523 24.2034 120.176 27.062C121.829 29.9206 121.829 33.3934 121.83 40.3391L121.835 82.2315C121.836 89.1694 121.836 92.6384 120.187 95.4953C118.538 98.3523 115.533 100.087 109.525 103.556L73.2282 124.512C67.2206 127.98 64.2167 129.715 60.9183 129.715C57.6199 129.715 54.6161 127.98 48.6084 124.512L12.3099 103.555C6.30224 100.086 3.29842 98.352 1.64921 95.4955C0 92.6389 0 89.1704 0 82.2334V43.993C0 39.1586 0 36.7414 0.659629 34.8083C1.93133 31.0816 4.90914 28.1882 8.67086 27.0241ZM12.603 48.0291V77.2826C12.603 81.9539 12.603 84.2896 13.2758 86.3862C13.8711 88.2415 14.8453 89.9529 16.1367 91.4119C17.596 93.0607 19.6044 94.2531 23.6211 96.6379L45.8212 109.818C51.3967 113.128 54.1847 114.784 56.9496 114.951C59.3813 115.097 61.7962 114.463 63.8423 113.141C66.1688 111.638 67.7842 108.827 71.015 103.205L102.703 48.0629C105.746 42.7689 107.267 40.1219 107.418 37.494C107.551 35.1817 106.96 32.8855 105.726 30.9249C104.325 28.6968 101.715 27.1136 96.4937 23.9473L85.1284 17.0543C80.5401 14.2715 78.2459 12.8801 75.964 12.7274C73.9575 12.5931 71.9609 13.1073 70.2688 14.1942C68.3446 15.4302 67.008 17.7567 64.3348 22.4097L50.3579 46.7379C49.0857 48.9521 48.4497 50.0592 47.5988 50.4606C46.8556 50.8112 46.0012 50.8411 45.2353 50.5434C44.3584 50.2026 43.6464 49.1427 42.2224 47.023L40.3804 44.281C39.3386 42.7301 38.8177 41.9547 38.1314 41.3934C37.5238 40.8966 36.8246 40.5239 36.0733 40.2967C35.2248 40.0399 34.2906 40.0399 32.4223 40.0399H20.5922C17.7957 40.0399 16.3975 40.0399 15.3294 40.5842C14.3898 41.0629 13.6259 41.8268 13.1472 42.7663C12.603 43.8344 12.603 45.2326 12.603 48.0291Z" fill="white"/>
<path d="M180.211 101.762C165.24 101.762 160.758 93.3705 163.332 78.3033L164.477 71.7233H180.784L178.972 81.7364C178.209 85.8369 178.781 87.3627 180.974 87.3627C183.168 87.3627 184.121 86.123 184.884 81.9271L193.658 32.0527H209.869L201.477 79.9245C198.807 95.2778 193.085 101.762 180.211 101.762Z" fill="white"/>
<path d="M227.443 94.0381C225.155 98.8062 221.531 101.572 216.286 101.572C207.608 101.572 204.27 96.1361 206.178 84.9787L213.234 44.9266H228.874L222.294 82.2132C221.817 85.6462 221.626 87.9349 224.392 87.9349C226.394 87.9349 227.729 85.8369 228.492 81.641L234.977 44.9266H250.521L240.699 100.713H228.016L227.443 94.0381Z" fill="white"/>
<path d="M264.562 43.4008C257.887 43.4008 255.98 41.3028 257.029 35.6764C258.078 29.5732 260.366 27.9521 266.66 27.9521C272.954 27.9521 275.243 29.764 274.194 35.6764C273.145 41.6842 270.665 43.4008 264.562 43.4008ZM255.884 45.308C257.124 46.357 259.794 46.9292 263.799 46.9292C267.9 46.9292 270.379 46.2616 271.905 45.2126L262.178 100.713H246.157L255.884 45.308Z" fill="white"/>
<path d="M287.41 101.762C282.642 101.762 278.923 100.809 276.252 99.1876C271.007 95.7546 269.482 89.3653 270.912 81.0688L274.44 60.7567C276.252 50.5529 283.595 44.1637 294.467 44.1637C308.485 44.1637 313.444 51.9833 311.25 65.2387L310.487 69.7207H294.848L295.897 63.8083C296.755 58.6587 296.278 57.3236 293.704 57.3236C291.034 57.3236 290.08 58.5633 289.222 63.7129L285.979 82.3085C285.216 86.7906 285.884 88.221 288.459 88.221C291.033 88.221 291.892 86.6952 292.559 82.5946L293.894 74.7749H309.534L307.722 85.1694C305.91 95.6592 298.949 101.762 287.41 101.762Z" fill="white"/>
<path d="M349.531 85.4555C347.147 97.4711 341.33 101.762 329.601 101.762C324.737 101.762 321.018 100.809 318.348 99.1876C313.008 95.7546 311.482 89.3653 312.912 81.1642C312.912 81.1642 313.008 80.4013 313.294 79.1616C313.675 76.3961 314.438 72.1048 315.106 68.2903C315.869 64.2851 316.345 61.2335 316.345 61.2335C318.157 50.6483 325.596 44.0683 336.467 44.0683C350.39 44.0683 355.73 51.9834 353.441 64.4758L351.248 76.7775H328.647L327.598 82.4993C326.74 87.3627 327.694 88.6978 330.459 88.6978C333.225 88.6978 334.083 86.6952 334.846 82.69L335.227 80.6874H350.485L349.531 85.4555ZM330.268 67.5274H338.088L338.756 63.5222C339.805 58.6587 338.756 56.9422 335.799 56.9422C332.843 56.9422 331.794 58.9448 330.936 63.8083L330.268 67.5274Z" fill="white"/>
<path d="M377.316 101.476C371.022 101.476 368.352 98.4247 367.971 92.8937L365.11 100.713H351.95L364.728 28.0474H380.082L375.886 51.6973C378.27 46.5477 381.703 44.1637 386.471 44.1637C394.386 44.1637 398.391 50.839 395.816 63.9036L392.479 83.1668C389.904 97.0897 384.85 101.476 377.316 101.476ZM373.12 88.5071C375.123 88.5071 376.458 86.9813 377.316 82.5946L380.558 64.0944C381.417 59.3262 380.749 57.419 378.174 57.419C375.886 57.419 374.551 58.6587 373.692 63.5222L370.45 82.0224C369.592 86.4091 370.45 88.5071 373.12 88.5071Z" fill="white"/>
<path d="M414.34 101.762C409.572 101.762 406.043 100.904 403.373 99.0923C398.033 95.4685 396.412 89.0792 397.842 81.0688L401.275 61.3288C403.087 50.7436 410.43 44.1637 421.301 44.1637C435.129 44.1637 440.278 52.3648 438.085 65.2387L434.557 85.1694C432.745 95.6592 425.688 101.762 414.34 101.762ZM415.484 88.221C417.677 88.221 419.108 86.7906 419.775 82.7853L423.208 63.0454C423.971 58.6587 422.922 57.3236 420.538 57.3236C418.536 57.3236 417.01 58.6587 416.342 62.4732L412.814 82.7853C412.146 86.8859 413.481 88.221 415.484 88.221Z" fill="white"/>
<path d="M447.904 100.713H431.597L449.335 71.3419L442.564 44.9266H458.585L460.206 57.6097L460.111 59.8984L460.683 57.7051L466.977 44.9266H483.093L467.072 71.2465L474.415 100.713H458.585L456.01 87.6488L456.105 83.9297L454.961 87.6488L447.904 100.713Z" fill="white"/>
</svg>
