<svg overflow="visible" preserveAspectRatio="xMidYMid meet" viewBox="0 0 4.83334 9.50001" fill="none" xmlns="http://www.w3.org/2000/svg">
<path id="Vector" d="M3.01667 0.750004H1.81667C1.4433 0.750004 1.25662 0.750004 1.11401 0.822664C0.988571 0.886584 0.886584 0.988571 0.822664 1.11401C0.750004 1.25662 0.750004 1.44327 0.750004 1.81667V7.68334C0.750004 8.05674 0.750004 8.24341 0.822664 8.38601C0.886584 8.51147 0.988571 8.61341 1.11401 8.67734C1.25662 8.75001 1.4433 8.75 1.81667 8.75H3.01667C3.39004 8.75 3.57672 8.75001 3.71933 8.67734C3.84477 8.61341 3.94676 8.51147 4.01068 8.38601C4.08334 8.24341 4.08334 8.05674 4.08334 7.68334V1.81667C4.08334 1.44327 4.08334 1.25662 4.01068 1.11401C3.94676 0.988571 3.84477 0.886584 3.71933 0.822664C3.57672 0.750004 3.39004 0.750004 3.01667 0.750004Z" stroke="var(--stroke-0, #7478FF)" stroke-width="1.5" stroke-linecap="round" stroke-linejoin="round"/>
</svg>
