<svg overflow="visible" preserveAspectRatio="xMidYMid meet" viewBox="0 0 4.83334 13.5" fill="none" xmlns="http://www.w3.org/2000/svg">
<path id="Vector" d="M3.01667 0.750004H1.81667C1.4433 0.750004 1.25662 0.750004 1.11401 0.822664C0.988571 0.886584 0.886584 0.988571 0.822664 1.11401C0.750004 1.25662 0.750004 1.4433 0.750004 1.81667V11.6833C0.750004 12.0567 0.750004 12.2434 0.822664 12.386C0.886584 12.5115 0.988571 12.6134 1.11401 12.6773C1.25662 12.75 1.4433 12.75 1.81667 12.75H3.01667C3.39007 12.75 3.57674 12.75 3.71934 12.6773C3.8448 12.6134 3.94674 12.5115 4.01067 12.386C4.08334 12.2434 4.08334 12.0567 4.08334 11.6833V1.81667C4.08334 1.4433 4.08334 1.25662 4.01067 1.11401C3.94674 0.988571 3.8448 0.886584 3.71934 0.822664C3.57674 0.750004 3.39007 0.750004 3.01667 0.750004Z" stroke="var(--stroke-0, #7478FF)" stroke-width="1.5" stroke-linecap="round" stroke-linejoin="round"/>
</svg>
