<svg overflow="visible" preserveAspectRatio="xMidYMid meet" viewBox="0 0 7.37262 11.4481" fill="none" xmlns="http://www.w3.org/2000/svg">
<path id="Vector" d="M2.72383 0.90718L1.58463 1.28429C1.23016 1.40163 1.05289 1.46029 0.940359 1.57409C0.841359 1.67419 0.776626 1.80306 0.755359 1.94223C0.731159 2.10045 0.789826 2.27767 0.907159 2.63213L3.30096 9.86349C3.41829 10.218 3.47696 10.3952 3.59076 10.5078C3.69089 10.6068 3.81976 10.6715 3.95896 10.6928C4.11716 10.717 4.29436 10.6583 4.64883 10.541L5.78803 10.1638C6.14249 10.0465 6.31969 9.98783 6.43223 9.87403C6.53123 9.77389 6.59602 9.64503 6.61729 9.50589C6.64142 9.34769 6.58276 9.17043 6.46543 8.81596L4.07163 1.5846C3.95429 1.23015 3.89563 1.05292 3.78183 0.940373C3.68176 0.841373 3.55289 0.776599 3.41369 0.755346C3.25549 0.731179 3.07823 0.789846 2.72383 0.90718Z" stroke="var(--stroke-0, #7478FF)" stroke-width="1.5" stroke-linecap="round" stroke-linejoin="round"/>
</svg>
