<svg preserveAspectRatio="none" width="100%" height="100%" overflow="visible" style="display: block;" viewBox="0 0 20 20" fill="none" xmlns="http://www.w3.org/2000/svg">
<g id="annotation/annotation-star" opacity="0.4">
<g id="Vector">
<path d="M2.08333 7.56627C2.08333 5.79291 2.08333 4.90623 2.42845 4.22889C2.73202 3.63309 3.21643 3.14869 3.81223 2.84512C4.48957 2.5 5.37624 2.5 7.14961 2.5H12.8492C14.6225 2.5 15.5092 2.5 16.1865 2.84512C16.7823 3.14869 17.2667 3.63309 17.5703 4.22889C17.9154 4.90623 17.9154 5.79291 17.9154 7.56627V11.3662C17.9154 11.9543 17.9154 12.2483 17.8765 12.4944C17.6619 13.8494 16.5992 14.9122 15.2442 15.1267C14.7694 15.2019 14.2869 15.1283 13.8111 15.1725C13.4166 15.2092 13.0502 15.3924 12.7843 15.6861C12.5055 15.9937 12.2749 16.3541 12.0263 16.6858C11.3387 17.603 10.9949 18.0617 10.5734 18.2256C10.2042 18.3693 9.79458 18.3693 9.42542 18.2256C9.00383 18.0617 8.66008 17.603 7.9725 16.6858C7.72386 16.3541 7.49327 15.9937 7.21455 15.6861C6.94858 15.3924 6.58219 15.2092 6.18771 15.1725C5.71189 15.1283 5.22931 15.2019 4.75459 15.1267C3.39957 14.9122 2.33682 13.8494 2.12229 12.4944C2.08333 12.2483 2.08333 11.9543 2.08333 11.3662V7.56627Z" stroke="var(--stroke-0, white)" stroke-width="1.5" stroke-linecap="round" stroke-linejoin="round"/>
<path d="M9.99308 6.66667C9.99617 6.75079 9.99767 6.79285 10.0001 6.82904C10.0823 8.08055 11.0792 9.07742 12.3308 9.15967C12.3669 9.16208 12.409 9.16358 12.4931 9.16667C12.409 9.16975 12.3669 9.17125 12.3308 9.17367C11.0792 9.25592 10.0823 10.2527 10.0001 11.5043C9.99767 11.5405 9.99617 11.5826 9.99308 11.6667C9.99 11.5826 9.9885 11.5405 9.98608 11.5043C9.90383 10.2527 8.907 9.25592 7.65546 9.17367C7.61927 9.17125 7.57721 9.16975 7.49308 9.16667C7.57721 9.16358 7.61927 9.16208 7.65546 9.15967C8.907 9.07742 9.90383 8.08055 9.98608 6.82904C9.9885 6.79285 9.99 6.75079 9.99308 6.66667Z" stroke="var(--stroke-0, white)" stroke-width="1.5" stroke-linecap="round" stroke-linejoin="round"/>
</g>
</g>
</svg>
