<svg overflow="visible" preserveAspectRatio="xMidYMid meet" viewBox="0 0 14.1667 13.5001" fill="none" xmlns="http://www.w3.org/2000/svg">
<path id="Vector" d="M13.323 6.0834H11.7748C11.1514 6.0834 10.8398 6.08341 10.577 6.10624C7.65636 6.36001 5.34076 8.65979 5.08524 11.5605C5.06254 11.8181 5.06225 12.123 5.06225 12.7264M13.323 6.0834C13.2221 5.73745 13.0177 5.37201 12.6529 4.71988L11.6599 2.94466C11.2131 2.14593 10.9897 1.74657 10.672 1.45576C10.3909 1.19849 10.0577 1.0038 9.69476 0.884697C9.28449 0.750071 8.82449 0.750071 7.90449 0.750071L6.24754 0.750071C5.32753 0.750071 4.86753 0.750071 4.45727 0.884698C4.09432 1.0038 3.76115 1.19849 3.48006 1.45576C3.16232 1.74657 2.93893 2.14593 2.49213 2.94466L1.52254 4.678C1.0995 5.43427 0.887974 5.81241 0.805047 6.21287C0.731651 6.5673 0.731651 6.93285 0.805047 7.28728C0.887975 7.68773 1.0995 8.06587 1.52254 8.82215L2.49213 10.5555C2.93893 11.3542 3.16232 11.7536 3.48006 12.0444C3.76115 12.3017 4.09432 12.4963 4.45727 12.6154C4.63768 12.6746 4.82771 12.7078 5.06225 12.7264M13.323 6.0834C13.3368 6.13092 13.3487 6.17807 13.3588 6.22554C13.4327 6.57352 13.4359 6.93269 13.368 7.28189C13.2912 7.67638 13.0903 8.05072 12.6883 8.79941L12.3569 9.41674L11.6703 10.6059C11.2194 11.3869 10.9939 11.7774 10.6776 12.0615C10.3977 12.3128 10.0676 12.5027 9.70879 12.6188C9.3033 12.7501 8.85005 12.7501 7.94355 12.7501H6.24754C5.7321 12.7501 5.36106 12.7501 5.06225 12.7264M5.06225 5.41674C4.69153 5.41674 4.391 5.11826 4.391 4.75007C4.391 4.38188 4.69153 4.0834 5.06225 4.0834C5.43297 4.0834 5.7335 4.38188 5.7335 4.75007C5.7335 5.11826 5.43297 5.41674 5.06225 5.41674Z" stroke="var(--stroke-0, white)" stroke-width="1.5" stroke-linecap="round" stroke-linejoin="round"/>
</svg>
