<svg viewBox="0 0 16 16" fill="none" xmlns="http://www.w3.org/2000/svg">
<path d="M5.87563 3.00282C6.21761 2.6952 6.38859 2.5414 6.55572 2.43168C7.43249 1.85611 8.56734 1.85611 9.44412 2.43168C9.61124 2.5414 9.78223 2.6952 10.1242 3.00282C10.2097 3.0797 10.2524 3.11814 10.2963 3.15435C10.5212 3.33966 10.7753 3.48635 11.0482 3.58842C11.1015 3.60836 11.1561 3.62615 11.2655 3.66172C11.7029 3.80407 11.9215 3.87525 12.1001 3.96513C13.037 4.43665 13.6044 5.41945 13.5443 6.46656C13.5329 6.66615 13.4852 6.89113 13.3897 7.34109C13.3659 7.45356 13.354 7.50979 13.3446 7.56593C13.2965 7.85331 13.2965 8.14668 13.3446 8.43407C13.354 8.49021 13.3659 8.54644 13.3897 8.65891C13.4852 9.10887 13.5329 9.33385 13.5443 9.53344C13.6044 10.5805 13.037 11.5634 12.1001 12.0349C11.9215 12.1248 11.7029 12.1959 11.2655 12.3383C11.1561 12.3739 11.1015 12.3916 11.0482 12.4116C10.7753 12.5137 10.5212 12.6603 10.2963 12.8457C10.2524 12.8819 10.2097 12.9203 10.1242 12.9972C9.78223 13.3048 9.61124 13.4586 9.44412 13.5683C8.56734 14.1439 7.43249 14.1439 6.55572 13.5683C6.38859 13.4586 6.21761 13.3048 5.87563 12.9972C5.79016 12.9203 5.74743 12.8819 5.7035 12.8457C5.47865 12.6603 5.22458 12.5137 4.95167 12.4116C4.89835 12.3916 4.84369 12.3739 4.73437 12.3383C4.29699 12.1959 4.07829 12.1248 3.89972 12.0349C2.96286 11.5634 2.39544 10.5805 2.45551 9.53344C2.46697 9.33385 2.51467 9.10887 2.61009 8.65891C2.63394 8.54645 2.64586 8.49021 2.65525 8.43407C2.70331 8.14669 2.70331 7.85331 2.65525 7.56593C2.64586 7.50979 2.63394 7.45355 2.61009 7.34109C2.51467 6.89113 2.46697 6.66615 2.45551 6.46656C2.39544 5.41946 2.96286 4.43665 3.89972 3.96513C4.07829 3.87525 4.29699 3.80407 4.73437 3.66172C4.84369 3.62615 4.89835 3.60836 4.95167 3.58842C5.22458 3.48635 5.47865 3.33966 5.7035 3.15435C5.74743 3.11814 5.79016 3.0797 5.87563 3.00282Z" stroke="var(--stroke-0, white)" stroke-width="1.5" stroke-linecap="round" stroke-linejoin="round"/>
<path d="M6.98208 6.23093C7.30761 5.72841 7.47038 5.47715 7.68281 5.39086C7.86822 5.31555 8.07973 5.31412 8.26634 5.38693C8.48015 5.47035 8.64698 5.71939 8.98064 6.21746L9.62966 7.1863C9.83336 7.49037 9.93521 7.64241 9.97444 7.80491C10.0091 7.94862 10.0084 8.09754 9.97227 8.24095C9.93142 8.40313 9.82806 8.55431 9.62135 8.85669L8.97501 9.80213C8.64232 10.2888 8.47598 10.5321 8.26383 10.614C8.0786 10.6856 7.86914 10.6841 7.68511 10.6101C7.47432 10.5253 7.31199 10.2797 6.98732 9.78862L6.35796 8.83663C6.16252 8.541 6.0648 8.39319 6.02612 8.23525C5.9919 8.09553 5.99119 7.95074 6.02404 7.81075C6.06117 7.6525 6.15744 7.5039 6.34997 7.2067L6.98208 6.23093Z" stroke="var(--stroke-0, white)" stroke-width="1.5" stroke-linecap="round" stroke-linejoin="round"/>
</svg>
