<svg width="16" height="16" viewBox="0 0 16 16" fill="none" xmlns="http://www.w3.org/2000/svg">
<g>
<path d="M5.99992 6.66732C6.36811 6.66732 6.66659 6.36884 6.66659 6.00065C6.66659 5.63246 6.36811 5.33398 5.99992 5.33398C5.63173 5.33398 5.33325 5.63246 5.33325 6.00065C5.33325 6.36884 5.63173 6.66732 5.99992 6.66732Z" stroke="white" stroke-width="1.5" stroke-linecap="round" stroke-linejoin="round"/>
<path d="M6 2.66602H6.00667" stroke="white" stroke-width="1.5" stroke-linecap="round"/>
<path d="M6 13.334H6.00667" stroke="white" stroke-width="1.5" stroke-linecap="round"/>
<path d="M10 2.66602H10.0067" stroke="white" stroke-width="1.5" stroke-linecap="round"/>
<path d="M10 13.334H10.0067" stroke="white" stroke-width="1.5" stroke-linecap="round"/>
<path d="M13.3333 10H13.3399" stroke="white" stroke-width="1.5" stroke-linecap="round"/>
<path d="M13.3333 6H13.3399" stroke="white" stroke-width="1.5" stroke-linecap="round"/>
<path d="M2.66675 6H2.67341" stroke="white" stroke-width="1.5" stroke-linecap="round"/>
<path d="M2.66675 10H2.67341" stroke="white" stroke-width="1.5" stroke-linecap="round"/>
<path d="M5.99992 10.6673C6.36811 10.6673 6.66659 10.3689 6.66659 10.0007C6.66659 9.63245 6.36811 9.33398 5.99992 9.33398C5.63173 9.33398 5.33325 9.63245 5.33325 10.0007C5.33325 10.3689 5.63173 10.6673 5.99992 10.6673Z" stroke="white" stroke-width="1.5" stroke-linecap="round" stroke-linejoin="round"/>
<path d="M9.99992 6.66732C10.3681 6.66732 10.6666 6.36884 10.6666 6.00065C10.6666 5.63246 10.3681 5.33398 9.99992 5.33398C9.63172 5.33398 9.33325 5.63246 9.33325 6.00065C9.33325 6.36884 9.63172 6.66732 9.99992 6.66732Z" stroke="white" stroke-width="1.5" stroke-linecap="round" stroke-linejoin="round"/>
<path d="M9.99992 10.6673C10.3681 10.6673 10.6666 10.3689 10.6666 10.0007C10.6666 9.63245 10.3681 9.33398 9.99992 9.33398C9.63172 9.33398 9.33325 9.63245 9.33325 10.0007C9.33325 10.3689 9.63172 10.6673 9.99992 10.6673Z" stroke="white" stroke-width="1.5" stroke-linecap="round" stroke-linejoin="round"/>
</g>
</svg>
