<svg overflow="visible" preserveAspectRatio="xMidYMid meet" viewBox="0 0 13.5 13.5" fill="none" xmlns="http://www.w3.org/2000/svg">
<g id="Vector">
<path d="M6.75 12.75C10.0637 12.75 12.75 10.0637 12.75 6.75C12.75 3.43629 10.0637 0.75 6.75 0.75C3.43629 0.75 0.75 3.43629 0.75 6.75C0.75 10.0637 3.43629 12.75 6.75 12.75Z" stroke="var(--stroke-0, white)" stroke-width="1.5" stroke-linecap="round" stroke-linejoin="round"/>
<path d="M5.61848 5.21472C6.0145 4.8187 6.2125 4.62069 6.44083 4.5465C6.64168 4.48124 6.85802 4.48124 7.05887 4.5465C7.28719 4.62069 7.4852 4.8187 7.88122 5.21472L8.28515 5.61864C8.68116 6.01466 8.87917 6.21267 8.95336 6.44099C9.01862 6.64184 9.01862 6.85819 8.95336 7.05903C8.87917 7.28736 8.68116 7.48537 8.28515 7.88138L7.88122 8.28531C7.4852 8.68132 7.28719 8.87933 7.05887 8.95352C6.85802 9.01878 6.64168 9.01878 6.44083 8.95352C6.2125 8.87933 6.0145 8.68132 5.61848 8.28531L5.21455 7.88138C4.81854 7.48537 4.62053 7.28736 4.54634 7.05903C4.48108 6.85819 4.48108 6.64184 4.54634 6.44099C4.62053 6.21267 4.81854 6.01466 5.21455 5.61864L5.61848 5.21472Z" stroke="var(--stroke-0, white)" stroke-width="1.5" stroke-linecap="round" stroke-linejoin="round"/>
</g>
</svg>
