<svg overflow="visible" preserveAspectRatio="xMidYMid meet" viewBox="0 0 14.8335 13.5" fill="none" xmlns="http://www.w3.org/2000/svg">
<path id="Vector" d="M0.75006 8.41667V6.08333C0.75006 4.21649 0.75006 3.28307 1.11337 2.57003C1.43295 1.94283 1.94288 1.43289 2.57009 1.11331C3.28313 0.750001 4.21655 0.750001 6.08339 0.750001H8.41673C9.34861 0.750001 9.81455 0.750001 10.1821 0.902241C10.6721 1.10523 11.0615 1.49458 11.2645 1.98463C11.4027 2.31834 11.4154 2.73316 11.4166 3.5042M0.75006 8.41667C0.75006 9.30314 0.75006 10.0797 1.00379 10.6923C1.34211 11.509 1.99102 12.158 2.80778 12.4963C3.42035 12.75 4.19692 12.75 5.75006 12.75H9.08339C10.6365 12.75 11.4131 12.75 12.0257 12.4963C12.8424 12.158 13.4913 11.509 13.8297 10.6923C14.0834 10.0797 14.0834 9.30314 14.0834 8.41667C14.0834 6.86353 14.0834 6.08696 13.8297 5.47439C13.4913 4.65763 12.8424 4.00872 12.0257 3.6704C11.8427 3.59462 11.6451 3.54147 11.4166 3.5042M0.75006 8.41667C0.75006 6.86353 0.75006 6.08696 1.00379 5.47439C1.34211 4.65763 1.99102 4.00872 2.80778 3.6704C3.42035 3.41667 4.19692 3.41667 5.75006 3.41667H9.08339C10.1727 3.41667 10.88 3.41667 11.4166 3.5042M8.75006 6.75H10.7501" stroke="var(--stroke-0, white)" stroke-width="1.5" stroke-linecap="round" stroke-linejoin="round"/>
</svg>
