<svg overflow="visible" preserveAspectRatio="xMidYMid meet" viewBox="0 0 13.7954 14.8336" fill="none" xmlns="http://www.w3.org/2000/svg">
<path id="Vector" d="M12.4533 0.750157L7.848 6.01331M0.786594 14.0835L5.69887 8.46946M7.848 6.01331L4.65131 1.50035C4.45674 1.22566 4.35946 1.08832 4.23372 0.98908C4.12238 0.901206 3.99525 0.835463 3.85919 0.7954C3.70553 0.750157 3.53722 0.750157 3.2006 0.750157H1.94996C1.39417 0.750157 1.11627 0.750157 0.966446 0.865512C0.835991 0.965952 0.756806 1.11908 0.75025 1.28359C0.74272 1.47253 0.903348 1.6993 1.2246 2.15284L5.69887 8.46946M7.848 6.01331L12.5708 12.6808C12.8921 13.1343 13.0527 13.3611 13.0452 13.5501C13.0386 13.7146 12.9594 13.8677 12.829 13.9681C12.6791 14.0835 12.4012 14.0835 11.8455 14.0835H10.5948C10.2582 14.0835 10.0899 14.0835 9.93622 14.0382C9.80016 13.9982 9.67303 13.9324 9.56169 13.8446C9.43595 13.7453 9.33867 13.608 9.1441 13.3333L5.69887 8.46946" stroke="var(--stroke-0, white)" stroke-width="1.5" stroke-linecap="round" stroke-linejoin="round"/>
</svg>
