<svg preserveAspectRatio="none" width="100%" height="100%" overflow="visible" style="display: block;" viewBox="0 0 32 32" fill="none" xmlns="http://www.w3.org/2000/svg">
<g id="Crossmint">
<rect width="32" height="32" rx="8" fill="var(--fill-0, #0E171B)"/>
<path id="Vector" fill-rule="evenodd" clip-rule="evenodd" d="M22.2889 17.2439C20.6114 16.3854 18.3731 16.0969 17.0586 15.9991C18.8478 15.8665 22.3494 15.3802 23.8152 13.5841C26.1093 11.867 25.9999 6.05735 25.9999 6.05735C25.9999 6.05735 20.4951 5.45009 18.0916 8.19089C16.5979 9.67762 16.1349 12.2602 16 14.0587C15.865 12.2625 15.402 9.67762 13.9083 8.19089C11.5049 5.44776 6.00001 6.05735 6.00001 6.05735C6.00001 6.05735 5.93254 9.67994 7.03305 12.0508C7.57515 13.2188 8.56631 14.1704 9.71102 14.7567C11.3885 15.6152 13.6268 15.9037 14.9413 16.0015C13.6268 16.0992 11.3885 16.3877 9.71102 17.2462C8.56631 17.8325 7.57515 18.7841 7.03305 19.9521C5.93254 22.3206 6.00001 25.9432 6.00001 25.9432C6.00001 25.9432 11.5049 26.5505 13.9083 23.8097C15.402 22.323 15.865 19.7381 16 17.9419C16.1349 19.7381 16.5979 22.323 18.0916 23.8097C20.4951 26.5505 25.9999 25.9432 25.9999 25.9432C25.9999 25.9432 26.0697 22.3206 24.9669 19.9498C24.4248 18.7818 23.4336 17.8302 22.2889 17.2439ZM22.4727 22.3253C22.4448 22.3183 19.5714 21.4993 15.8836 16.5738C14.8017 17.4184 12.0842 19.652 9.49697 22.7022L9.38064 22.8395L9.42717 22.665C9.43415 22.6347 10.2764 19.6752 15.4067 15.9061C14.9111 15.1708 13.7454 13.4794 9.24569 9.49381L9.14565 9.4054L9.27826 9.42401C9.37366 9.43797 11.6863 9.80093 15.9115 15.2453C15.9115 15.2453 15.9651 15.3197 16.0628 15.45C16.6584 15.0382 18.3825 13.8144 22.2587 9.43565L22.3471 9.3356L22.3285 9.46822C22.3145 9.56361 21.9515 11.8647 16.5421 16.0736C17.5635 17.3625 19.6761 19.8521 22.5099 22.2532L22.6495 22.3718L22.475 22.3253H22.4727Z" fill="url(#paint0_linear_0_4)"/>
</g>
<defs>
<linearGradient id="paint0_linear_0_4" x1="5.99921" y1="5.99963" x2="26.0008" y2="26.0005" gradientUnits="userSpaceOnUse">
<stop stop-color="#01FF85"/>
<stop offset="1" stop-color="#00E1FD"/>
</linearGradient>
</defs>
</svg>
