<svg preserveAspectRatio="none" width="100%" height="100%" overflow="visible" style="display: block;" viewBox="0 0 32 32" fill="none" xmlns="http://www.w3.org/2000/svg">
<g id="Metaplex">
<rect width="32" height="32" rx="8" fill="var(--fill-0, #1A1A1A)"/>
<g id="Vector">
<path fill-rule="evenodd" clip-rule="evenodd" d="M16.0433 18.9136C16.1355 18.7773 16.1464 18.5973 16.0596 18.4556L10.7918 9.54165C10.7158 9.4108 10.5802 9.33447 10.4283 9.33447H6.72837C6.40286 9.33447 6.19671 9.68885 6.36488 9.97235L13.2873 21.8468C13.4392 22.1139 13.8244 22.1302 13.998 21.874L16.0433 18.9136ZM9.64708 21.6614C9.81526 21.9448 9.60911 22.3047 9.28359 22.3047H6.74464C6.51136 22.3047 6.32148 22.1139 6.32148 21.8794V17.5833C6.32148 17.1471 6.89112 16.9945 7.10812 17.3652L9.64708 21.6614Z" fill="var(--fill-0, white)"/>
<path d="M25.9604 21.7813C26.1231 22.0648 25.9223 22.4192 25.5969 22.4192H21.9186C21.7667 22.4192 21.6311 22.3374 21.5551 22.2065L14.4211 9.97235C14.2584 9.68885 14.4591 9.33447 14.7846 9.33447H18.4791C18.631 9.33447 18.7666 9.41625 18.8426 9.5471L25.9604 21.7813Z" fill="var(--fill-0, white)"/>
</g>
</g>
</svg>
