<svg preserveAspectRatio="none" width="100%" height="100%" overflow="visible" style="display: block;" viewBox="0 0 32 32" fill="none" xmlns="http://www.w3.org/2000/svg">
<g id="Magic Eden">
<rect width="32" height="32" rx="8" fill="var(--fill-0, #1A1A1A)"/>
<path id="Vector" d="M19.3345 13.6416L20.2712 14.7426C20.3792 14.8662 20.4733 14.9678 20.513 15.0259C20.7936 15.3046 20.9505 15.6802 20.9505 16.0724C20.9246 16.5357 20.6219 16.8504 20.3441 17.1881L19.6889 17.9578L19.3465 18.3565C19.3345 18.3703 19.3262 18.3869 19.3235 18.4054C19.3207 18.4238 19.3235 18.4423 19.3318 18.4589C19.3392 18.4755 19.3521 18.4893 19.3687 18.4995C19.3853 18.5097 19.4038 18.5133 19.4222 18.5124H22.8405C23.3619 18.5124 24.0199 18.9517 23.982 19.6171C23.982 19.9188 23.8584 20.2095 23.6415 20.4236C23.4237 20.6377 23.1293 20.7586 22.8229 20.7596H17.4704C17.1179 20.7596 16.171 20.7974 15.9062 19.9899C15.8499 19.821 15.8425 19.6401 15.884 19.4666C15.9615 19.211 16.0833 18.9711 16.2439 18.757C16.5134 18.3583 16.805 17.9587 17.092 17.572C17.463 17.0654 17.8432 16.5754 18.217 16.0586C18.2299 16.042 18.2373 16.0207 18.2373 15.9995C18.2373 15.9783 18.2299 15.957 18.217 15.9404L16.8567 14.3448C16.8484 14.3328 16.8364 14.3245 16.8225 14.3181C16.8096 14.3116 16.7958 14.3079 16.7801 14.3079C16.7644 14.3079 16.7506 14.3116 16.7376 14.3181C16.7247 14.3245 16.7127 14.3347 16.7035 14.3448C16.339 14.8293 14.7443 16.9759 14.4047 17.4105C14.0651 17.8452 13.2271 17.8692 12.7629 17.4105L10.6358 15.3055C10.6228 15.2926 10.6053 15.2824 10.5859 15.2797C10.5675 15.276 10.5481 15.2778 10.5296 15.2852C10.5121 15.2926 10.4973 15.3046 10.4863 15.3212C10.4752 15.3378 10.4697 15.3563 10.4697 15.3747V19.4205C10.4752 19.7075 10.3884 19.989 10.2233 20.2262C10.0581 20.4624 9.82089 20.6424 9.5468 20.7393C9.37146 20.7992 9.18505 20.8177 9.0014 20.7919C8.81775 20.766 8.64241 20.6977 8.49199 20.5916C8.34064 20.4864 8.21698 20.3461 8.13207 20.1837C8.04717 20.0213 8.00195 19.8413 8.00195 19.6586V12.3838C8.01395 12.1217 8.10993 11.8697 8.27604 11.664C8.44031 11.4582 8.66733 11.3096 8.92388 11.2394C9.14352 11.1822 9.37515 11.1822 9.59479 11.2413C9.81443 11.3004 10.0147 11.4148 10.1743 11.5754L13.444 14.8016C13.4541 14.8118 13.4661 14.8192 13.4791 14.8238C13.492 14.8284 13.5058 14.8303 13.5206 14.8293C13.5344 14.8284 13.5474 14.8238 13.5594 14.8173C13.5714 14.8109 13.5824 14.8007 13.5898 14.7906L15.9126 11.6197C16.0206 11.4914 16.1553 11.3871 16.3076 11.3151C16.4599 11.2431 16.626 11.2053 16.7958 11.2035H22.8386C23.0038 11.2035 23.1671 11.2394 23.3176 11.3068C23.468 11.3742 23.6027 11.4729 23.7107 11.5957C23.8196 11.7184 23.9008 11.8633 23.9488 12.0183C23.9968 12.1752 24.0097 12.3386 23.9876 12.5001C23.9451 12.7806 23.8002 13.0362 23.5806 13.219C23.3609 13.4026 23.0822 13.5013 22.7943 13.4977H19.4102C19.3927 13.4977 19.3761 13.5032 19.3622 13.5115C19.3484 13.5198 19.3364 13.5336 19.3281 13.5475C19.3207 13.5623 19.3161 13.5789 19.317 13.5955C19.317 13.6121 19.3235 13.6278 19.3336 13.6425H19.3327L19.3345 13.6416Z" fill="url(#paint0_linear_0_4)"/>
</g>
<defs>
<linearGradient id="paint0_linear_0_4" x1="8.00195" y1="11.687" x2="23.0079" y2="20.8032" gradientUnits="userSpaceOnUse">
<stop stop-color="#8003DF"/>
<stop offset="0.495192" stop-color="#D72183"/>
<stop offset="1" stop-color="#F54E39"/>
</linearGradient>
</defs>
</svg>
