<svg preserveAspectRatio="none" width="100%" height="100%" overflow="visible" style="display: block;" viewBox="0 0 32 32" fill="none" xmlns="http://www.w3.org/2000/svg">
<g id="bags white">
<g id="Subtract">
<path fill-rule="evenodd" clip-rule="evenodd" d="M20.5416 11.2783C20.9011 11.2461 21.1835 11.5247 21.4462 11.7333C22.5129 12.5768 23.4227 13.602 24.1335 14.7614C24.8569 15.9488 25.4374 17.4613 25.725 18.8177C25.7606 18.986 25.7819 19.1569 25.8105 19.3264C25.8457 19.5351 25.8877 19.7443 25.9101 19.9549C26.0102 20.8978 25.9571 21.9518 25.7296 22.8709C25.3224 24.5152 24.263 25.8537 22.8214 26.7195C21.8989 27.2735 20.7664 27.6664 19.7132 27.88C19.5379 27.9156 19.3598 27.9414 19.1835 27.9718C18.9736 28.0081 18.7635 28.0495 18.5519 28.0753C17.6661 28.1828 16.7724 28.2081 15.8809 28.2059C15.0328 28.204 14.1645 28.1792 13.3242 28.0574C12.6909 27.9642 12.0628 27.8361 11.4435 27.6739C11.2865 27.6337 11.1372 27.565 10.9737 27.5253L10.9534 27.5207C10.0512 27.2203 9.22366 26.8149 8.47144 26.2365C7.07952 25.1931 6.24983 23.5383 6.08043 21.8115C5.81377 19.093 6.95019 15.7862 8.62156 13.6615C8.87676 13.3335 9.15019 13.0201 9.4406 12.7227C9.82833 12.3235 10.2923 11.9303 10.7318 11.5871C10.9049 11.4519 11.0579 11.3177 11.2848 11.29C11.4106 11.2738 11.5384 11.2873 11.6582 11.3289C11.8438 11.3946 12.1217 11.5865 12.3271 11.6898C12.8434 11.9439 13.3856 12.1417 13.9442 12.2801C14.102 12.3203 14.2584 12.3378 14.4163 12.3704C15.1169 12.5149 15.8517 12.54 16.5677 12.5003C17.5046 12.4452 18.4249 12.2241 19.2846 11.8477C19.4285 11.7834 19.6179 11.6995 19.7552 11.6276C20.0768 11.459 20.1741 11.3223 20.5416 11.2783ZM15.3442 15.4676C14.9775 15.5473 15.2053 15.9456 14.9048 16.0261C14.7653 16.0635 14.4522 16.0453 14.2623 16.0424C13.4086 16.0296 11.7925 16.0681 11.5951 17.1524C11.5373 17.4703 11.5735 18.1271 11.6224 18.4552C11.8375 19.2585 13.1089 19.4495 13.787 19.6671C14.3443 19.8395 14.8989 19.9877 15.4586 20.1548C15.7286 20.2302 15.9571 20.2882 16.2115 20.4075C16.5181 20.5515 16.491 21.0131 16.3779 21.2655C16.2561 21.5369 15.543 21.5452 15.5255 21.1605C15.5152 20.932 15.4716 20.6554 15.2594 20.5234C15.0859 20.4285 14.6295 20.4574 14.4248 20.4573H13.3849L12.6289 20.4581C12.4728 20.4582 12.2483 20.4512 12.0992 20.4775C11.9568 20.5026 11.7538 20.6615 11.6768 20.7879C11.6355 20.8561 11.6069 20.9319 11.5928 21.0104C11.5526 21.2247 11.5911 21.451 11.5765 21.6544C11.5442 22.1036 11.7618 22.5017 12.1482 22.7099C13.0023 23.1703 13.9753 23.0353 14.9001 23.0863C14.9613 23.0898 15.0398 23.1743 15.0813 23.2225C15.1049 23.3342 15.1085 23.5186 15.205 23.5686C15.3973 23.6683 15.9146 23.6306 16.1399 23.6293C16.3239 23.6323 16.5682 23.6645 16.7038 23.5367C16.7218 23.5197 16.7394 23.5016 16.756 23.483C16.7799 23.3739 16.7872 23.1816 16.8796 23.1283C17.0634 23.0412 17.3325 23.0693 17.5346 23.0692C18.4719 23.0694 20.0139 23.0991 20.2911 21.9468C20.3409 21.74 20.3362 21.4576 20.3347 21.2414C20.3315 20.8071 20.3693 20.2832 20.1255 19.902C19.8163 19.419 19.0879 19.2877 18.5706 19.1304L17.6014 18.8309C17.1572 18.6979 16.7044 18.5739 16.2628 18.4272C16.0254 18.3484 15.7649 18.3088 15.5612 18.1488C15.5045 18.1041 15.4855 18.0253 15.4632 17.9574C15.4984 17.8412 15.5164 17.7704 15.6359 17.7054C15.7734 17.6306 16.0054 17.6258 16.1532 17.6759C16.2748 17.717 16.3215 17.7656 16.3811 17.8695C16.4283 17.9523 16.4237 18.1787 16.4705 18.1853C16.6599 18.2111 16.9441 18.2009 17.1371 18.2009H19.1967C19.452 18.2009 19.7654 18.2341 19.9917 18.1044C20.1194 18.031 20.2867 17.8297 20.3114 17.686C20.5821 16.103 18.6572 16.0111 17.5649 16.044C17.3941 16.0491 17.1657 16.0483 16.9932 16.0323C16.5908 15.896 17.001 15.4307 16.3352 15.4599C16.0301 15.4733 15.657 15.4453 15.3442 15.4676Z" fill="var(--fill-0, white)"/>
<path d="M14.0593 3.95051C14.8237 3.85523 15.4657 4.16144 16.1609 4.4032C16.3348 4.46365 16.701 4.53291 16.8874 4.55565C17.6503 4.64854 18.3995 4.23557 19.1322 4.66843C19.6497 4.95144 19.9681 5.42829 20.4218 5.80094C20.6422 5.99913 20.9072 6.1277 21.1242 6.32829C21.4936 6.66992 21.3409 7.24337 21.1265 7.6288C20.723 8.3455 20.1537 8.92295 19.5561 9.47456C18.9783 10.0078 18.6669 10.2801 17.9102 10.5153C17.3959 10.6811 16.6524 10.7817 16.1049 10.7828C15.1644 10.7849 13.7726 10.6266 13.0256 9.98792C12.1614 9.22512 10.9785 8.28491 10.7473 7.09367C10.6292 6.48358 11.2605 6.14621 11.6667 5.83205C11.8486 5.68979 12.0247 5.53951 12.1933 5.38169C12.5086 5.09168 12.807 4.73005 13.1033 4.41876C13.3937 4.11377 13.6446 3.99339 14.0593 3.95051Z" fill="var(--fill-0, white)"/>
</g>
</g>
</svg>
