<svg width="32" height="32" viewBox="0 0 32 32" fill="none" xmlns="http://www.w3.org/2000/svg">
<path fill-rule="evenodd" clip-rule="evenodd" d="M20.5417 11.2783C20.9012 11.246 21.1836 11.5247 21.4463 11.7333C22.5131 12.5767 23.4228 13.6019 24.1337 14.7613C24.857 15.9488 25.4375 17.4613 25.7251 18.8176C25.7607 18.9859 25.782 19.1568 25.8106 19.3263C25.8458 19.535 25.8878 19.7443 25.9102 19.9548C26.0103 20.8977 25.9572 21.9517 25.7297 22.8708C25.3225 24.5151 24.2631 25.8537 22.8215 26.7195C21.899 27.2735 20.7665 27.6663 19.7133 27.88C19.538 27.9155 19.3599 27.9414 19.1836 27.9717C18.9737 28.008 18.7636 28.0495 18.552 28.0752C17.6662 28.1827 16.7725 28.208 15.881 28.2059C15.0329 28.204 14.1646 28.1792 13.3243 28.0573C12.691 27.9642 12.0629 27.8361 11.4436 27.6738C11.2866 27.6336 11.1374 27.5649 10.9738 27.5253L10.9536 27.5206C10.0513 27.2202 9.22377 26.8149 8.47154 26.2364C7.07963 25.193 6.24994 23.5382 6.08054 21.8114C5.81388 19.0929 6.9503 15.7862 8.62166 13.6615C8.87686 13.3334 9.1503 13.02 9.4407 12.7227C9.82843 12.3234 10.2924 11.9302 10.7319 11.587C10.905 11.4519 11.0581 11.3176 11.2849 11.2899C11.4107 11.2737 11.5385 11.2872 11.6583 11.3288C11.8439 11.3946 12.1219 11.5865 12.3272 11.6897C12.8435 11.9438 13.3857 12.1416 13.9443 12.2801C14.1021 12.3203 14.2585 12.3378 14.4164 12.3703C15.1171 12.5148 15.8518 12.5399 16.5678 12.5002C17.5048 12.4451 18.4251 12.2241 19.2847 11.8476C19.4286 11.7833 19.618 11.6994 19.7553 11.6275C20.077 11.459 20.1742 11.3222 20.5417 11.2783ZM15.3443 15.4676C14.9776 15.5472 15.2054 15.9455 14.9049 16.026C14.7654 16.0634 14.4523 16.0453 14.2624 16.0424C13.4087 16.0296 11.7926 16.0681 11.5953 17.1523C11.5374 17.4703 11.5736 18.127 11.6225 18.4552C11.8376 19.2585 13.109 19.4495 13.7871 19.667C14.3444 19.8394 14.899 19.9877 15.4587 20.1547C15.7287 20.2301 15.9572 20.2881 16.2116 20.4075C16.5182 20.5514 16.4911 21.013 16.378 21.2654C16.2562 21.5368 15.5431 21.5451 15.5256 21.1604C15.5153 20.932 15.4717 20.6553 15.2595 20.5234C15.086 20.4284 14.6296 20.4574 14.425 20.4573H13.385L12.629 20.458C12.4729 20.4582 12.2484 20.4512 12.0993 20.4775C11.957 20.5025 11.7539 20.6614 11.6769 20.7878C11.6356 20.8561 11.607 20.9319 11.5929 21.0103C11.5527 21.2246 11.5912 21.4509 11.5766 21.6543C11.5443 22.1036 11.762 22.5016 12.1483 22.7098C13.0024 23.1702 13.9754 23.0353 14.9002 23.0863C14.9614 23.0898 15.0399 23.1743 15.0814 23.2224C15.105 23.3341 15.1087 23.5185 15.2051 23.5685C15.3974 23.6683 15.9147 23.6305 16.14 23.6292C16.324 23.6322 16.5683 23.6644 16.704 23.5366C16.7219 23.5196 16.7395 23.5016 16.7561 23.483C16.78 23.3739 16.7873 23.1816 16.8797 23.1283C17.0635 23.0411 17.3326 23.0693 17.5347 23.0692C18.472 23.0693 20.014 23.099 20.2912 21.9468C20.341 21.7399 20.3364 21.4576 20.3348 21.2413C20.3316 20.8071 20.3694 20.2831 20.1256 19.9019C19.8164 19.4189 19.088 19.2876 18.5707 19.1303L17.6016 18.8309C17.1573 18.6979 16.7045 18.5738 16.2629 18.4272C16.0255 18.3484 15.765 18.3087 15.5613 18.1487C15.5046 18.104 15.4856 18.0253 15.4633 17.9574C15.4985 17.8411 15.5166 17.7704 15.636 17.7054C15.7735 17.6305 16.0055 17.6257 16.1533 17.6758C16.2749 17.717 16.3216 17.7655 16.3812 17.8695C16.4284 17.9522 16.4238 18.1786 16.4706 18.1853C16.66 18.211 16.9442 18.2008 17.1372 18.2008H19.1969C19.4521 18.2008 19.7655 18.2341 19.9918 18.1044C20.1195 18.031 20.2868 17.8296 20.3115 17.6859C20.5822 16.1029 18.6573 16.011 17.565 16.0439C17.3942 16.0491 17.1658 16.0482 16.9933 16.0323C16.5909 15.896 17.0011 15.4306 16.3353 15.4598C16.0302 15.4732 15.6572 15.4453 15.3443 15.4676Z" fill="white"/>
<path d="M14.0594 3.95045C14.8238 3.85516 15.4658 4.16137 16.161 4.40314C16.3349 4.46359 16.7011 4.53285 16.8875 4.55559C17.6504 4.64848 18.3996 4.23551 19.1323 4.66837C19.6498 4.95138 19.9682 5.42823 20.4219 5.80087C20.6423 5.99907 20.9073 6.12764 21.1243 6.32823C21.4937 6.66986 21.341 7.24331 21.1266 7.62874C20.7231 8.34544 20.1538 8.92288 19.5562 9.4745C18.9784 10.0078 18.667 10.2801 17.9103 10.5152C17.396 10.681 16.6525 10.7816 16.105 10.7828C15.1645 10.7848 13.7727 10.6266 13.0257 9.98786C12.1616 9.22506 10.9787 8.28485 10.7474 7.0936C10.6293 6.48352 11.2606 6.14615 11.6668 5.83199C11.8487 5.68973 12.0248 5.53945 12.1934 5.38163C12.5087 5.09162 12.8071 4.72999 13.1034 4.41869C13.3938 4.11371 13.6447 3.99333 14.0594 3.95045Z" fill="white"/>
</svg>
