<svg preserveAspectRatio="none" width="100%" height="100%" overflow="visible" style="display: block;" viewBox="0 0 27.9764 27.9764" fill="none" xmlns="http://www.w3.org/2000/svg">
<g id="Frame 125">
<path id="Vector" fill-rule="evenodd" clip-rule="evenodd" d="M13.9884 27.3407C6.58772 27.3407 0.63604 21.3889 0.63604 13.9882C0.636042 6.58755 6.58772 0.63587 13.9884 0.63587C21.3891 0.63587 27.3408 6.58755 27.3408 13.9882C27.3408 21.3889 21.3891 27.3407 13.9884 27.3407Z" fill="var(--fill-0, #29165F)"/>
<path id="Vector_2" d="M27.9764 13.9882C27.9764 21.7401 21.7401 27.9764 13.9882 27.9764C6.23636 27.9764 0 21.7401 0 13.9882C0 6.23636 6.23636 0 13.9882 0C21.7401 0 27.9764 6.23636 27.9764 13.9882ZM0.635848 13.9882C0.635848 21.3889 6.58752 27.3406 13.9882 27.3406C21.3889 27.3406 27.3406 21.3889 27.3406 13.9882C27.3406 6.58752 21.3889 0.635848 13.9882 0.635848C6.58752 0.635848 0.635848 6.58752 0.635848 13.9882Z" fill="url(#paint0_linear_0_4)"/>
<g id="Union">
<path d="M14.772 8.51186C15.0463 8.57171 15.3063 8.65956 15.5515 8.77482L15.6479 8.81922C16.1238 9.04397 16.5306 9.33746 16.8663 9.70031C17.223 10.086 17.4809 10.5169 17.6364 10.9929L17.6825 11.1347L16.4206 11.6392L16.3643 11.4856C16.1521 10.9021 15.8245 10.4689 15.385 10.1759L15.3841 10.175C15.1399 10.0089 14.8699 9.88937 14.5748 9.81642C14.3455 9.75978 14.0994 9.73105 13.8362 9.73105C13.7734 9.73105 13.7119 9.73256 13.6518 9.73617C13.3503 9.75433 13.0834 9.81786 12.8493 9.924C12.5787 10.0508 12.371 10.2305 12.2218 10.4627C12.0741 10.6925 11.9972 10.9673 11.9972 11.2926C11.9973 11.6814 12.1196 12.0305 12.366 12.3453C12.6081 12.645 12.9875 12.8801 13.5212 13.0403L15.1579 13.5261C15.989 13.7716 16.6329 14.1304 17.0746 14.6112C17.5208 15.0971 17.7414 15.7061 17.7414 16.4255C17.7414 17.009 17.5893 17.5299 17.2838 17.9836C16.9886 18.4263 16.5724 18.7724 16.0415 19.0235C15.6593 19.2075 15.2354 19.3234 14.772 19.3727V20.6209H13.4836V19.3428C13.0941 19.2815 12.7265 19.1709 12.3823 19.0107C11.8274 18.7524 11.3562 18.4068 10.971 17.9734L10.9693 17.9725C10.5857 17.5315 10.3112 17.0445 10.1471 16.5134L10.1027 16.3708L11.3953 15.8859L11.4482 16.0404C11.6799 16.7176 12.0366 17.2247 12.5137 17.5721C12.8515 17.8114 13.2358 17.9671 13.668 18.0383C13.8492 18.0682 14.0393 18.0835 14.2384 18.0835C14.3632 18.0835 14.4833 18.0778 14.5978 18.0664C14.8758 18.0391 15.1239 17.9793 15.3432 17.888C15.6623 17.7495 15.9003 17.5624 16.0654 17.3313C16.2296 17.1015 16.313 16.8335 16.313 16.522C16.313 16.0426 16.1827 15.6951 15.9434 15.4556C15.6908 15.2031 15.32 15.0011 14.8189 14.858L14.8172 14.8571L12.9594 14.303C12.2036 14.0829 11.6088 13.7109 11.187 13.1811L11.1861 13.1794C10.7758 12.6518 10.5697 12.0485 10.5697 11.3754C10.5697 10.8025 10.711 10.2907 10.9974 9.84631C11.2811 9.39695 11.6676 9.04542 12.1535 8.79275H12.1552C12.5584 8.58713 13.002 8.46635 13.4836 8.42819V7.19363H14.772V8.51186Z" fill="var(--fill-0, white)"/>
<path fill-rule="evenodd" clip-rule="evenodd" d="M14.1419 3.02551C14.6774 3.04429 15.2162 3.11204 15.741 3.22956C15.8069 3.24381 15.8709 3.25969 15.9323 3.27481L15.9442 3.27823C15.9543 3.28155 15.9671 3.28446 15.9886 3.28933L15.9895 3.29018H15.9912C17.5194 3.663 18.9211 4.46994 19.9851 5.70295L19.986 5.7038L19.9868 5.70551C20.1088 5.85208 20.2293 6.00083 20.3488 6.14861C20.7991 6.70535 21.2405 7.2505 21.7746 7.69565C21.974 7.86196 22.1789 8.02399 22.3851 8.18743C22.9952 8.67108 23.6228 9.16762 24.1276 9.79337C25.0933 10.9895 25.5823 12.4689 25.5918 13.9495V14.0187C25.5855 15.4246 25.1487 16.8325 24.2685 18.0007C23.7273 18.7186 23.0315 19.2731 22.3543 19.8141C22.2644 19.8859 22.1747 19.9581 22.0854 20.0301C21.4231 20.5643 20.9009 21.1711 20.3488 21.835L20.2865 21.9101C19.6386 22.6741 18.9135 23.3089 18.1102 23.7995C17.8878 23.9454 17.6553 24.0794 17.4127 24.1965C16.3648 24.7032 15.1751 24.9566 13.9857 24.9564C13.9456 24.9574 13.8922 24.9554 13.8354 24.9513C13.2999 24.9325 12.7611 24.8638 12.2363 24.7464C12.2033 24.7391 12.1701 24.7317 12.1381 24.7242L12.0442 24.7011L12.0382 24.7003L12.0331 24.6977C12.023 24.6944 12.0102 24.6915 11.9887 24.6866H11.9861C10.5054 24.3254 9.14315 23.557 8.09206 22.3882L7.99131 22.273L7.9896 22.2713C7.86764 22.1247 7.74713 21.9759 7.6276 21.8282C7.17733 21.2714 6.73593 20.7263 6.2018 20.2811C6.00251 20.1149 5.79832 19.9528 5.59221 19.7894C4.98211 19.3058 4.3545 18.8091 3.84966 18.1834C2.88386 16.9872 2.39408 15.5072 2.38458 14.0264V13.9581C2.39093 12.5522 2.82852 11.1444 3.70878 9.97608C4.25009 9.25809 4.94567 8.70285 5.62294 8.16181C5.71278 8.09005 5.80274 8.01852 5.89188 7.94666C6.55414 7.41237 7.07559 6.80482 7.6276 6.14093C8.29119 5.34382 9.03697 4.68368 9.8662 4.17725C10.0886 4.03141 10.3212 3.89734 10.5637 3.78025C11.6116 3.27349 12.8013 3.02014 13.9908 3.02039C14.0308 3.01933 14.0845 3.02134 14.1419 3.02551ZM13.9848 4.06712C12.9742 4.065 11.9566 4.37181 11.041 5.00712C10.9719 5.05749 10.9046 5.1083 10.8412 5.1608C10.6219 5.34336 10.421 5.54396 10.241 5.75929L10.2367 5.76527L10.2308 5.77039L6.30511 9.64652C5.21085 10.9095 4.56702 11.816 4.41144 13.3656L4.4029 13.4509C4.24794 15.2436 4.89539 16.8954 6.09764 18.1783C6.22954 18.2962 6.36731 18.4058 6.51258 18.507L6.5177 18.5104L6.87287 18.8007C7.58013 19.3786 8.20888 20.0552 8.82289 20.7319C9.43832 21.4104 10.0376 22.088 10.6961 22.6853C11.6701 23.4635 12.824 23.9005 13.9916 23.9097C15.0024 23.9117 16.0206 23.605 16.9363 22.9697C17.0053 22.9193 17.0719 22.8684 17.1352 22.816C17.3545 22.6334 17.5555 22.4328 17.7354 22.2175L17.7405 22.2115L17.7457 22.2064L21.6713 18.3303C22.7657 17.0672 23.4102 16.161 23.5658 14.6112C23.7492 12.7857 23.1001 11.1017 21.8788 9.7985C21.7636 9.69554 21.6444 9.5985 21.5193 9.50821L21.4647 9.46894L21.4596 9.46552L21.1044 9.17524C20.3973 8.59737 19.7683 7.92155 19.1544 7.24486C18.5388 6.56648 17.9389 5.88887 17.2804 5.29143C16.3062 4.51324 15.1525 4.07621 13.9848 4.06712Z" fill="var(--fill-0, white)"/>
</g>
</g>
<defs>
<linearGradient id="paint0_linear_0_4" x1="13.9882" y1="0" x2="13.9882" y2="27.9764" gradientUnits="userSpaceOnUse">
<stop stop-color="#A17FFF"/>
<stop offset="0.110577" stop-color="#6B40E0"/>
<stop offset="1" stop-color="#29165F"/>
</linearGradient>
</defs>
</svg>
