<svg preserveAspectRatio="none" width="100%" height="100%" overflow="visible" style="display: block;" viewBox="0 0 32 32" fill="none" xmlns="http://www.w3.org/2000/svg">
<g id="Rectangle [Vectorized]">
<path id="Union" d="M8.41776 19.7119C8.67404 19.7406 9.25621 19.7295 9.52909 19.7305L11.5603 19.7383C12.027 22.1959 14.0337 23.2923 16.3797 23.2666C17.3695 23.2558 18.8144 23.0062 19.5271 22.2783L19.5291 25.0654L19.5232 25.4697C18.5187 25.7458 17.8178 25.9467 16.7469 25.9873C14.4895 26.0728 12.1276 25.5485 10.4178 23.9951C9.24969 22.934 8.47379 21.2941 8.41776 19.7119ZM12.5154 9.98438C12.1243 10.624 11.857 11.6912 12.1844 12.3916C13.0476 14.2383 16.32 14.2753 18.0506 14.7305C19.0378 14.9901 19.8717 15.1564 20.7889 15.5771C21.9255 16.11 22.8447 16.9805 23.282 18.1611C23.6858 19.2511 23.702 20.9717 23.2088 22.0195C23.0607 22.0108 22.8872 22.0107 22.7381 22.0146C21.7641 22.0406 20.7474 21.9689 19.7791 22.0166C20.5009 21.146 20.5515 19.5681 19.6912 18.7715C18.9535 18.0753 18.0035 17.9056 17.0555 17.6758C14.2928 17.0042 10.5252 16.937 9.18827 13.9033C8.69136 12.7757 8.73823 11.1446 9.10721 9.98633C9.93848 10.0065 10.7823 9.97572 11.615 9.99219C11.8931 9.9977 12.2425 10.0083 12.5154 9.98438ZM15.2947 6.01953C19.0062 5.80752 22.8044 7.76188 23.1639 11.7344C22.8181 11.7357 20.1458 11.7733 19.9978 11.7227L19.9646 11.6348C19.8288 11.1545 19.6879 10.7917 19.3894 10.3867C18.7692 9.56113 17.8491 9.01265 16.8279 8.85938C15.9005 8.72291 14.4551 8.76114 13.614 9.16895C13.2871 9.32755 13.0866 9.46944 12.8006 9.68262C12.8324 8.66156 12.7993 7.50587 12.8055 6.46777C13.1356 6.40971 13.462 6.29477 13.7889 6.22363C14.2818 6.11635 14.785 6.05161 15.2879 6.02051C15.29 6.02028 15.2926 6.01976 15.2947 6.01953Z" fill="var(--fill-0, #FEFEFE)"/>
</g>
</svg>
