<svg width="32" height="32" viewBox="0 0 32 32" fill="none" xmlns="http://www.w3.org/2000/svg">
<path d="M23.9137 19.2038C24.1513 19.2041 24.2698 19.4915 24.1017 19.6595L21.5212 22.2378C21.4211 22.3376 21.2854 22.3939 21.144 22.3939H8.08626C7.8488 22.3935 7.72925 22.1062 7.89714 21.9382L10.4777 19.3599C10.5776 19.2601 10.7137 19.204 10.8548 19.2038H23.9137Z" fill="white"/>
<path d="M21.144 14.3571C21.2851 14.3571 21.4211 14.4136 21.5212 14.5132L24.1017 17.0915C24.2699 17.2595 24.1513 17.5469 23.9137 17.5472H10.8548C10.7136 17.547 10.5776 17.491 10.4777 17.3911L7.89714 14.8128C7.72984 14.6448 7.84899 14.3575 8.08626 14.3571H21.144Z" fill="white"/>
<path d="M23.9137 9.57194C24.1515 9.57203 24.27 9.85962 24.1017 10.0277L21.5223 12.606C21.4222 12.7058 21.2855 12.762 21.144 12.762H8.08626C7.84889 12.7616 7.72949 12.4744 7.89714 12.3063L10.4777 9.72803C10.5776 9.62816 10.7137 9.57219 10.8548 9.57194H23.9137Z" fill="white"/>
<path fill-rule="evenodd" clip-rule="evenodd" d="M16 2C23.732 2.00003 30 8.26807 30 16C29.9999 23.732 23.732 30 16 30C8.26811 30 2.00006 23.732 2 16C2 8.26806 8.26807 2 16 2ZM16 3.16667C8.9124 3.16667 3.16667 8.91239 3.16667 16C3.16673 23.0876 8.91244 28.8333 16 28.8333C23.0876 28.8333 28.8333 23.0876 28.8333 16C28.8333 8.91241 23.0877 3.1667 16 3.16667Z" fill="white"/>
</svg>
