<svg preserveAspectRatio="none" width="100%" height="100%" overflow="visible" style="display: block;" viewBox="0 0 19.9966 19.9967" fill="none" xmlns="http://www.w3.org/2000/svg">
<g id="Frame 124">
<path id="Fill-1" fill-rule="evenodd" clip-rule="evenodd" d="M17.5376 4.15988L16.5431 5.15164C16.3926 5.30176 16.3711 5.53582 16.4877 5.7134C16.852 6.26855 17.1423 6.86614 17.3532 7.49165L17.3559 7.48908C17.6253 8.28732 17.7647 9.12955 17.7647 9.97993C17.7647 14.2758 14.2603 17.7707 9.95288 17.7707C8.65658 17.7707 7.41139 17.4602 6.29169 16.8643L7.97717 15.1834C8.60606 15.4212 9.27627 15.5448 9.95288 15.5448C13.0297 15.5448 15.5328 13.0484 15.5328 9.97993C15.5328 9.78825 15.5212 9.59598 15.501 9.40422C15.4339 8.75918 15.2552 8.13382 14.9746 7.55495C14.8405 7.27859 14.4734 7.21573 14.2557 7.43289L13.2462 8.43971C13.1371 8.54848 13.092 8.70586 13.1272 8.85576L13.2118 9.21724C13.2709 9.46929 13.3008 9.72597 13.3008 9.97993C13.3008 11.821 11.799 13.3188 9.95288 13.3188C9.37185 13.3188 8.79871 13.1669 8.29537 12.8794L7.85125 12.6257C7.67635 12.5258 7.45624 12.555 7.31374 12.6971L3.19819 16.8014C3.00746 16.9915 3.02823 17.3057 3.24223 17.4695L3.84844 17.933C5.6139 19.2831 7.72495 19.9967 9.95288 19.9967C15.491 19.9967 19.9966 15.5031 19.9966 9.97993C19.9966 8.2362 19.5399 6.51832 18.6758 5.01203L18.2407 4.25359C18.1567 4.10708 18.0055 4.02945 17.8526 4.02945C17.7397 4.02945 17.6259 4.07175 17.5376 4.15988Z" fill="url(#paint0_linear_0_4)"/>
<path id="Fill-4" fill-rule="evenodd" clip-rule="evenodd" d="M10.0875 0C4.52522 0 0 4.49347 0 10.0167C0 11.7606 0.458631 13.4786 1.32649 14.9846L1.76359 15.7431C1.91033 15.9978 2.26076 16.0443 2.4697 15.8368L3.46839 14.8452C3.61949 14.6951 3.64101 14.4611 3.52408 14.2835C3.15857 13.7287 2.86665 13.1307 2.65475 12.5052L2.65231 12.5076C2.38168 11.7094 2.2416 10.8672 2.2416 10.0167C2.2416 5.7209 5.76132 2.22588 10.0875 2.22588C11.3893 2.22588 12.6399 2.53639 13.7645 3.13237L12.0718 4.81323C11.4402 4.57543 10.767 4.45183 10.0875 4.45183C6.99728 4.45183 4.48335 6.94826 4.48335 10.0167C4.48335 10.1096 4.48676 10.2025 4.49149 10.2955C4.49304 10.3257 4.49504 10.3557 4.49711 10.3859C4.50199 10.4584 4.50828 10.531 4.51612 10.6035C4.58468 11.2431 4.76403 11.8654 5.04427 12.4413C5.17873 12.7178 5.54765 12.7805 5.7662 12.5633L6.77976 11.557C6.8893 11.4482 6.93449 11.2908 6.89928 11.141L6.81423 10.7794C6.75506 10.5276 6.72503 10.2711 6.72503 10.0167C6.72503 8.17562 8.23339 6.67778 10.0875 6.67778C10.671 6.67778 11.2465 6.82973 11.7519 7.11718L12.1982 7.37107C12.3738 7.47102 12.5949 7.44165 12.7381 7.29961L16.8714 3.19531C17.063 3.00502 17.0422 2.69091 16.8273 2.52721L16.2183 2.06372C14.4451 0.713635 12.325 0 10.0875 0Z" fill="url(#paint1_linear_0_4)"/>
</g>
<defs>
<linearGradient id="paint0_linear_0_4" x1="1359.93" y1="332.473" x2="76.2879" y2="1587.49" gradientUnits="userSpaceOnUse">
<stop stop-color="#5FBFFF"/>
<stop offset="1" stop-color="#B090F5"/>
</linearGradient>
<linearGradient id="paint1_linear_0_4" x1="1.96711e-05" y1="1502.44" x2="1795.59" y2="-254.774" gradientUnits="userSpaceOnUse">
<stop stop-color="#68D7FA"/>
<stop offset="1" stop-color="#7EF1B3"/>
</linearGradient>
</defs>
</svg>
