<svg preserveAspectRatio="none" width="100%" height="100%" overflow="visible" style="display: block;" viewBox="0 0 32 32" fill="none" xmlns="http://www.w3.org/2000/svg">
<g id="Magic Eden white">
<path id="Vector" d="M21.5262 12.0329L23.1019 13.8848C23.2835 14.0928 23.4418 14.2636 23.5086 14.3614C23.9805 14.8302 24.2444 15.462 24.2444 16.1218C24.2009 16.901 23.6918 17.4304 23.2245 17.9986L22.1223 19.2932L21.5464 19.9638C21.5262 19.9871 21.5122 20.0151 21.5076 20.0461C21.5029 20.0772 21.5076 20.1082 21.5216 20.1362C21.534 20.1641 21.5557 20.1874 21.5836 20.2045C21.6116 20.2215 21.6426 20.2277 21.6737 20.2262H27.4236C28.3007 20.2262 29.4075 20.9651 29.3439 22.0844C29.3439 22.592 29.1359 23.081 28.7711 23.4411C28.4047 23.8013 27.9095 24.0046 27.3941 24.0062H18.3904C17.7974 24.0062 16.2047 24.0698 15.7592 22.7115C15.6645 22.4274 15.6521 22.1232 15.7219 21.8313C15.8523 21.4013 16.0573 20.9977 16.3274 20.6376C16.7807 19.967 17.2712 19.2948 17.754 18.6443C18.378 17.7921 19.0176 16.9678 19.6463 16.0985C19.668 16.0705 19.6805 16.0348 19.6805 15.9991C19.6805 15.9634 19.668 15.9277 19.6463 15.8998L17.3581 13.2157C17.3442 13.1956 17.324 13.1816 17.3007 13.1707C17.279 13.1599 17.2557 13.1537 17.2293 13.1537C17.2029 13.1537 17.1796 13.1599 17.1579 13.1707C17.1361 13.1816 17.116 13.1987 17.1004 13.2157C16.4873 14.0307 13.8048 17.6415 13.2335 18.3727C12.6622 19.1038 11.2527 19.1442 10.4719 18.3727L6.89369 14.8318C6.87195 14.81 6.84246 14.7929 6.80986 14.7883C6.77881 14.7821 6.74621 14.7852 6.71517 14.7976C6.68567 14.81 6.66083 14.8302 6.6422 14.8581C6.62358 14.8861 6.61426 14.9171 6.61426 14.9482V21.7537C6.62358 22.2365 6.47765 22.71 6.19978 23.1089C5.92191 23.5063 5.52295 23.809 5.0619 23.972C4.76696 24.0729 4.45338 24.104 4.14446 24.0605C3.83554 24.0171 3.54059 23.9022 3.28756 23.7237C3.03297 23.5467 2.82496 23.3107 2.68214 23.0375C2.53932 22.7643 2.46326 22.4616 2.46326 22.1542V9.91699C2.48344 9.47612 2.64488 9.05233 2.92431 8.70615C3.20063 8.35998 3.58251 8.11005 4.01406 7.99207C4.38352 7.89582 4.77317 7.89582 5.14263 7.99517C5.51209 8.09452 5.84895 8.28701 6.11751 8.55712L11.6175 13.9842C11.6346 14.0012 11.6548 14.0137 11.6765 14.0214C11.6982 14.0292 11.7215 14.0323 11.7464 14.0307C11.7696 14.0292 11.7914 14.0214 11.8116 14.0106C11.8317 13.9997 11.8504 13.9826 11.8628 13.9655L15.7701 8.63164C15.9517 8.41586 16.1783 8.24044 16.4345 8.11936C16.6906 7.99828 16.97 7.93463 17.2557 7.93152H27.4205C27.6984 7.93152 27.9732 7.99207 28.2262 8.10539C28.4792 8.21871 28.7059 8.38481 28.8875 8.59128C29.0707 8.79774 29.2073 9.04146 29.288 9.30226C29.3687 9.56616 29.3905 9.84092 29.3532 10.1126C29.2818 10.5845 29.0381 11.0145 28.6686 11.3219C28.2992 11.6308 27.8303 11.7969 27.346 11.7907H21.6535C21.624 11.7907 21.5961 11.8 21.5728 11.814C21.5495 11.8279 21.5293 11.8512 21.5153 11.8745C21.5029 11.8994 21.4952 11.9273 21.4967 11.9552C21.4967 11.9832 21.5076 12.0096 21.5247 12.0344H21.5231L21.5262 12.0329Z" fill="var(--fill-0, white)"/>
</g>
</svg>
