<svg preserveAspectRatio="none" width="100%" height="100%" overflow="visible" style="display: block;" viewBox="0 0 32 32" fill="none" xmlns="http://www.w3.org/2000/svg">
<g id="Helius Orb ">
<rect width="32" height="32" rx="8" fill="var(--fill-0, #1A1A1A)"/>
<path id="Vector" d="M18.4961 25.7402L17.3304 25.8954L17.1699 25.9153C16.7943 25.9591 16.4127 25.9821 16.0265 25.9831C15.6402 25.9842 15.2586 25.9631 14.8829 25.9213L14.7221 25.9023L13.5556 25.7533L13.8537 23.4201L15.0202 23.5691L15.1432 23.5837C15.4306 23.6158 15.7232 23.6319 16.0202 23.6311C16.3596 23.6302 16.6934 23.6073 17.0199 23.5638L18.1856 23.4086L18.4961 25.7402ZM9.94708 20.6561L10.0245 20.7547C10.3894 21.2114 10.8056 21.6254 11.2643 21.9879L11.363 22.0648L12.2976 22.7789L10.8694 24.6477L9.93502 23.9336L9.80574 23.8332C9.20682 23.3598 8.66355 22.8192 8.18699 22.2228L8.08573 22.0942L7.36668 21.1637L9.22804 19.7256L9.94708 20.6561ZM24.6606 21.1179L23.9465 22.0523C23.4165 22.7457 22.7978 23.3677 22.1072 23.9013L21.1766 24.6204L19.7385 22.7593L20.6691 22.0402C21.198 21.6315 21.6719 21.1551 22.0778 20.6241L22.7919 19.6897L24.6606 21.1179ZM6.00394 16.0135C6.00277 15.5721 6.03037 15.1366 6.08498 14.7091L6.23403 13.5427L8.56697 13.8408L8.41792 15.0072C8.37617 15.3341 8.35506 15.6679 8.35596 16.0073C8.35685 16.3467 8.37973 16.6804 8.42322 17.007L8.57844 18.1727L6.24711 18.4831L6.09189 17.3174L6.0718 17.1569C6.02796 16.7814 6.00496 16.3998 6.00394 16.0135ZM23.6441 15.9669C23.6433 15.6698 23.6255 15.3773 23.592 15.09L23.5768 14.9671L23.4216 13.8014L25.7531 13.491L25.9083 14.6567L25.9282 14.8174C25.972 15.1929 25.995 15.5744 25.9961 15.9606C25.9972 16.402 25.9698 16.8375 25.9152 17.265L25.7662 18.4314L23.433 18.1333L23.5821 16.9669L23.5966 16.8441C23.6287 16.5566 23.6448 16.2639 23.6441 15.9669ZM12.2617 9.2151L11.3309 9.93414L11.2326 10.0116C10.7432 10.4026 10.3027 10.8522 9.92223 11.3501L9.20834 12.2846L7.3394 10.8564L8.05351 9.92208L8.15409 9.7928C8.66128 9.15113 9.24557 8.57308 9.89303 8.07279L10.8236 7.35374L12.2617 9.2151ZM22.0652 8.04057L22.1943 8.14115C22.7932 8.61454 23.3367 9.15494 23.8132 9.75135L23.9143 9.88009L24.6333 10.8107L22.7722 12.2487L22.0531 11.318L21.9757 11.2196C21.6108 10.7629 21.1946 10.3489 20.7359 9.9864L20.637 9.90929L19.7026 9.1954L21.1308 7.32646L22.0652 8.04057ZM15.9735 5.991C16.3598 5.98998 16.7415 6.01096 17.1173 6.0528L17.2779 6.07204L18.4444 6.22109L18.1463 8.55403L16.9798 8.40498C16.653 8.36323 16.3192 8.34211 15.9798 8.34302C15.6404 8.34391 15.3066 8.36679 14.9801 8.41028L13.8144 8.5655L13.5039 6.23417L14.6696 6.07895C15.0968 6.02208 15.5321 5.99217 15.9735 5.991Z" fill="var(--fill-0, #E84125)"/>
</g>
</svg>
