<svg width="32" height="32" viewBox="0 0 32 32" fill="none" xmlns="http://www.w3.org/2000/svg">
<path fill-rule="evenodd" clip-rule="evenodd" d="M3.62856 11.7755C5.9136 8.22652 11.0682 5.70189 14.9583 8.24646C15.6905 8.72554 16.5094 9.58986 16.9052 10.3731C16.9237 10.3524 16.9428 10.3317 16.9622 10.3118C18.7543 8.47148 20.9577 7.26657 23.5586 7.22402C26.0967 7.24203 28.1533 8.45123 29.2649 10.7692C30.2807 12.8873 30.149 15.3091 29.4177 17.4925C27.9175 21.9711 22.9386 26.0148 18.0557 24.4247C16.7639 24.0033 15.3545 22.8488 14.7602 21.6006C14.6162 21.7611 14.4658 21.916 14.3093 22.0645C11.3288 24.9116 6.5603 26.0909 3.43914 22.7952C2.70629 21.9379 2.35994 21.293 2.00342 20.2176H5.93604C6.57609 20.2181 7.22953 20.2236 7.87006 20.2133C7.95407 20.2119 8.15583 20.1851 8.22092 20.1315C8.31354 20.0546 8.38008 19.9641 8.41572 19.8484C8.60416 19.2373 8.77689 18.6133 8.9517 17.9984L9.87942 14.7642L10.3799 13.0293C10.4765 12.6938 10.592 12.346 10.6403 12.0037C10.6698 11.7952 10.3939 11.7796 10.2529 11.7755C9.95597 11.7668 9.6316 11.7709 9.33699 11.7712L7.65374 11.7723C6.34813 11.7719 4.9202 11.7428 3.62856 11.7755ZM15.7956 11.7572C14.1053 14.2469 13.3377 17.2621 14.1597 20.2079C14.5341 20.2333 15.0337 20.2176 15.4221 20.2176L19.6582 20.2165C20.0385 20.217 20.4224 20.2237 20.8023 20.2068C21.0196 20.1972 21.113 20.1181 21.2113 19.9292C21.3199 19.6521 21.4407 19.1821 21.5277 18.8777L22.9602 13.8817C23.1153 13.3416 23.2739 12.7933 23.4262 12.2512C23.523 11.9069 23.4824 11.7813 23.0883 11.7755C22.4157 11.7656 21.7376 11.7706 21.0628 11.7712L17.1409 11.7733C16.9579 11.7733 15.9275 11.7843 15.7956 11.7572Z" fill="white"/>
</svg>
