<svg width="32" height="32" viewBox="0 0 32 32" fill="none" xmlns="http://www.w3.org/2000/svg">
<rect width="32" height="32" rx="8" fill="white" fill-opacity="0.05"/>
<path fill-rule="evenodd" clip-rule="evenodd" d="M19.744 12.05C20.0404 12.0234 20.2732 12.2531 20.4898 12.4251C21.3692 13.1204 22.1192 13.9656 22.7052 14.9215C23.3016 15.9004 23.7801 17.1473 24.0172 18.2655C24.0466 18.4043 24.0642 18.5452 24.0878 18.6849C24.1168 18.857 24.1514 19.0295 24.1698 19.203C24.2524 19.9804 24.2086 20.8493 24.0211 21.6071C23.6853 22.9626 22.8119 24.0661 21.6235 24.7799C20.863 25.2367 19.9293 25.5605 19.0611 25.7367C18.9166 25.7659 18.7697 25.7873 18.6244 25.8123C18.4513 25.8422 18.2781 25.8764 18.1037 25.8976C17.3734 25.9862 16.6366 26.0071 15.9017 26.0053C15.2024 26.0038 14.4866 25.9833 13.7939 25.8829C13.2717 25.8061 12.7539 25.7005 12.2434 25.5667C12.1139 25.5336 11.9909 25.4769 11.8561 25.4442L11.8394 25.4404C11.0956 25.1927 10.4133 24.8586 9.7932 24.3817C8.64568 23.5215 7.96167 22.1572 7.82202 20.7337C7.60218 18.4925 8.53906 15.7664 9.91696 14.0147C10.1273 13.7443 10.3528 13.4859 10.5922 13.2408C10.9118 12.9116 11.2943 12.5875 11.6566 12.3046C11.7994 12.1931 11.9255 12.0824 12.1126 12.0596C12.2162 12.0463 12.3216 12.0574 12.4204 12.0917C12.5734 12.1459 12.8026 12.3041 12.9718 12.3892C13.3975 12.5987 13.8445 12.7617 14.305 12.8759C14.4351 12.909 14.564 12.9234 14.6942 12.9503C15.2718 13.0694 15.8775 13.0901 16.4679 13.0574C17.2403 13.012 17.999 12.8297 18.7077 12.5194C18.8263 12.4664 18.9825 12.3972 19.0957 12.3379C19.3608 12.199 19.441 12.0862 19.744 12.05ZM15.4592 15.5037C15.1569 15.5694 15.3447 15.8978 15.0969 15.9641C14.982 15.9949 14.7238 15.98 14.5672 15.9776C13.8634 15.967 12.5311 15.9988 12.3684 16.8926C12.3208 17.1548 12.3506 17.6962 12.3909 17.9667C12.5682 18.629 13.6164 18.7864 14.1754 18.9658C14.6348 19.1079 15.0921 19.2301 15.5535 19.3678C15.7761 19.43 15.9644 19.4778 16.1742 19.5762C16.427 19.6949 16.4046 20.0754 16.3114 20.2835C16.211 20.5073 15.6231 20.5141 15.6086 20.197C15.6002 20.0086 15.5642 19.7806 15.3893 19.6718C15.2462 19.5935 14.87 19.6174 14.7013 19.6173H13.8439L13.2206 19.6179C13.092 19.618 12.9069 19.6122 12.7839 19.634C12.6666 19.6546 12.4992 19.7856 12.4358 19.8898C12.4017 19.9461 12.3781 20.0085 12.3665 20.0732C12.3333 20.2499 12.3651 20.4364 12.353 20.6041C12.3264 20.9745 12.5059 21.3026 12.8243 21.4743C13.5285 21.8539 14.3307 21.7426 15.0931 21.7847C15.1436 21.7875 15.2082 21.8572 15.2425 21.8969C15.2619 21.989 15.2649 22.141 15.3444 22.1822C15.5029 22.2645 15.9294 22.2333 16.1152 22.2323C16.2669 22.2347 16.4683 22.2613 16.5801 22.156C16.5949 22.1419 16.6094 22.127 16.6231 22.1117C16.6428 22.0218 16.6488 21.8632 16.725 21.8193C16.8766 21.7474 17.0984 21.7706 17.2649 21.7706C18.0377 21.7707 19.309 21.7952 19.5375 20.8453C19.5785 20.6747 19.5747 20.4419 19.5734 20.2636C19.5708 19.9057 19.6019 19.4737 19.4009 19.1594C19.1461 18.7612 18.5455 18.653 18.1191 18.5233L17.3201 18.2764C16.9539 18.1668 16.5806 18.0645 16.2165 17.9436C16.0208 17.8787 15.8061 17.846 15.6381 17.7141C15.5913 17.6773 15.5757 17.6123 15.5573 17.5563C15.5863 17.4605 15.6012 17.4022 15.6997 17.3486C15.813 17.2869 16.0043 17.2829 16.1261 17.3242C16.2264 17.3582 16.2649 17.3982 16.314 17.4839C16.3529 17.5521 16.3491 17.7387 16.3877 17.7442C16.5439 17.7654 16.7781 17.757 16.9373 17.757H18.6353C18.8457 17.757 19.1041 17.7844 19.2906 17.6775C19.396 17.617 19.5338 17.451 19.5542 17.3325C19.7774 16.0275 18.1905 15.9517 17.29 15.9789C17.1492 15.9831 16.9609 15.9824 16.8186 15.9693C16.4869 15.8569 16.8251 15.4733 16.2762 15.4973C16.0247 15.5084 15.7171 15.4853 15.4592 15.5037Z" fill="#00D82B"/>
<path d="M14.3999 6.00884C15.0301 5.93029 15.5593 6.18273 16.1325 6.38204C16.2759 6.43188 16.5778 6.48898 16.7314 6.50773C17.3603 6.58431 17.978 6.24385 18.5821 6.60071C19.0087 6.83402 19.2712 7.22715 19.6452 7.53436C19.8269 7.69775 20.0454 7.80374 20.2243 7.96912C20.5288 8.25076 20.4029 8.72352 20.2262 9.04128C19.8935 9.63213 19.4242 10.1082 18.9315 10.5629C18.4552 11.0026 18.1985 11.2271 17.5747 11.4209C17.1506 11.5576 16.5377 11.6405 16.0863 11.6415C15.311 11.6432 14.1635 11.5127 13.5477 10.9862C12.8353 10.3573 11.8601 9.58218 11.6695 8.6001C11.5721 8.09714 12.0926 7.819 12.4274 7.56001C12.5774 7.44273 12.7226 7.31883 12.8615 7.18873C13.1215 6.94963 13.3675 6.65151 13.6118 6.39487C13.8512 6.14344 14.058 6.0442 14.3999 6.00884Z" fill="#00D82B"/>
</svg>
