<svg width="32" height="32" viewBox="0 0 32 32" fill="none" xmlns="http://www.w3.org/2000/svg">
<path d="M19.4648 29.6366L17.8333 29.8538L17.6087 29.8816C17.0831 29.943 16.5491 29.9751 16.0085 29.9766C15.468 29.978 14.9339 29.9486 14.4081 29.8901L14.1829 29.8635L12.5505 29.6549L12.9677 26.3896L14.6002 26.5981L14.7723 26.6185C15.1746 26.6634 15.5841 26.686 15.9997 26.6849C16.4748 26.6836 16.9418 26.6516 17.3989 26.5907L19.0303 26.3735L19.4648 29.6366ZM7.50026 22.5213L7.6086 22.6592C8.11935 23.2984 8.70182 23.8779 9.34371 24.3852L9.4819 24.4928L10.7898 25.4923L8.79103 28.1076L7.48337 27.1082L7.30244 26.9677C6.46424 26.3052 5.70392 25.5486 5.03697 24.7139L4.89526 24.534L3.88893 23.2316L6.49394 21.219L7.50026 22.5213ZM28.0922 23.1676L27.0928 24.4753C26.3511 25.4458 25.4851 26.3162 24.5186 27.063L23.2162 28.0694L21.2036 25.4647L22.5059 24.4584C23.2462 23.8864 23.9094 23.2196 24.4775 22.4764L25.4769 21.1687L28.0922 23.1676ZM1.98174 16.0239C1.98011 15.4061 2.01873 14.7966 2.09516 14.1983L2.30375 12.5659L5.56876 12.9831L5.36016 14.6155C5.30173 15.0729 5.27219 15.5401 5.27344 16.0151C5.27469 16.4902 5.30672 16.9572 5.36757 17.4143L5.58481 19.0457L2.32206 19.4801L2.10482 17.8487L2.07671 17.6241C2.01536 17.0985 1.98317 16.5645 1.98174 16.0239ZM26.6695 15.9586C26.6684 15.5429 26.6436 15.1335 26.5966 14.7314L26.5753 14.5594L26.3581 12.928L29.6212 12.4935L29.8384 14.125L29.8662 14.3499C29.9276 14.8754 29.9597 15.4093 29.9612 15.9498C29.9628 16.5676 29.9245 17.177 29.8481 17.7754L29.6395 19.4078L26.3742 18.9906L26.5827 17.3581L26.6031 17.1863C26.648 16.7839 26.6706 16.3742 26.6695 15.9586ZM10.7396 6.50932L9.43697 7.51564L9.29935 7.62398C8.6145 8.17121 7.99799 8.80054 7.46548 9.49729L6.46637 10.8052L3.85075 8.80641L4.85016 7.49875L4.99092 7.31782C5.70075 6.41979 6.51847 5.6108 7.42461 4.91064L8.72697 3.90431L10.7396 6.50932ZM24.4599 4.86555L24.6405 5.0063C25.4787 5.66883 26.2393 6.42513 26.9062 7.25982L27.0476 7.44L28.054 8.74235L25.4493 10.755L24.443 9.45235L24.3347 9.31473C23.8239 8.67553 23.2414 8.09614 22.5995 7.58877L22.4611 7.48086L21.1533 6.48176L23.1522 3.86613L24.4599 4.86555ZM15.9344 1.99712C16.475 1.99569 17.0092 2.02505 17.5351 2.08361L17.76 2.11054L19.3924 2.31914L18.9752 5.58414L17.3428 5.37554C16.8854 5.31711 16.4182 5.28756 15.9432 5.28882C15.4681 5.29008 15.0011 5.3221 14.544 5.38295L12.9126 5.60019L12.4782 2.33744L14.1096 2.1202C14.7074 2.04061 15.3166 1.99876 15.9344 1.99712Z" fill="white"/>
</svg>
