<svg preserveAspectRatio="none" width="100%" height="100%" overflow="visible" style="display: block;" viewBox="0 0 32 32" fill="none" xmlns="http://www.w3.org/2000/svg">
<g id="Helius Orb white">
<path id="Vector" d="M19.4647 29.6368L17.8332 29.8541L17.6086 29.8819C17.083 29.9432 16.549 29.9754 16.0084 29.9768C15.4679 29.9783 14.9338 29.9488 14.408 29.8903L14.1829 29.8637L12.5504 29.6551L12.9676 26.3898L14.6001 26.5984L14.7722 26.6188C15.1745 26.6636 15.584 26.6862 15.9996 26.6851C16.4747 26.6838 16.9417 26.6519 17.3988 26.5909L19.0302 26.3738L19.4647 29.6368ZM7.50017 22.5215L7.6085 22.6595C8.11926 23.2987 8.70173 23.8781 9.34362 24.3854L9.48181 24.4931L10.7897 25.4925L8.79094 28.1078L7.48328 27.1084L7.30235 26.9679C6.46415 26.3054 5.70383 25.5488 5.03688 24.7141L4.89516 24.5342L3.88884 23.2319L6.49384 21.2192L7.50017 22.5215ZM28.0921 23.1678L27.0927 24.4755C26.351 25.446 25.4851 26.3164 24.5185 27.0633L23.2162 28.0696L21.2035 25.4649L22.5058 24.4586C23.2461 23.8867 23.9093 23.2198 24.4774 22.4767L25.4768 21.169L28.0921 23.1678ZM1.98165 16.0241C1.98001 15.4063 2.01864 14.7969 2.09507 14.1986L2.30366 12.5661L5.56867 12.9833L5.36007 14.6158C5.30163 15.0732 5.27209 15.5404 5.27335 16.0154C5.2746 16.4904 5.30663 16.9575 5.36748 17.4145L5.58471 19.0459L2.32196 19.4804L2.10473 17.849L2.07661 17.6244C2.01527 17.0987 1.98308 16.5647 1.98165 16.0241ZM26.6694 15.9588C26.6683 15.5431 26.6435 15.1338 26.5966 14.7316L26.5752 14.5597L26.358 12.9282L29.6211 12.4938L29.8383 14.1252L29.8662 14.3502C29.9275 14.8756 29.9596 15.4095 29.9611 15.95C29.9627 16.5679 29.9244 17.1773 29.848 17.7756L29.6394 19.4081L26.3741 18.9908L26.5827 17.3584L26.603 17.1865C26.6479 16.7841 26.6705 16.3745 26.6694 15.9588ZM10.7395 6.50956L9.43687 7.51589L9.29925 7.62422C8.61441 8.17145 7.9979 8.80078 7.46539 9.49753L6.46628 10.8055L3.85066 8.80666L4.85007 7.499L4.99083 7.31807C5.70066 6.42004 6.51838 5.61104 7.42452 4.91088L8.72688 3.90456L10.7395 6.50956ZM24.4598 4.86579L24.6404 5.00655C25.4786 5.66908 26.2392 6.42538 26.9061 7.26006L27.0476 7.44024L28.0539 8.74259L25.4492 10.7552L24.4429 9.45259L24.3346 9.31497C23.8238 8.67578 23.2413 8.09639 22.5994 7.58902L22.461 7.48111L21.1533 6.482L23.1521 3.86637L24.4598 4.86579ZM15.9343 1.99736C16.475 1.99593 17.0091 2.02529 17.535 2.08386L17.7599 2.11079L19.3923 2.31938L18.9751 5.58439L17.3427 5.37578C16.8853 5.31735 16.4181 5.2878 15.9431 5.28907C15.468 5.29032 15.001 5.32234 14.5439 5.3832L12.9125 5.60043L12.4781 2.33768L14.1095 2.12045C14.7073 2.04085 15.3165 1.999 15.9343 1.99736Z" fill="var(--fill-0, white)"/>
</g>
</svg>
