<svg preserveAspectRatio="none" width="100%" height="100%" overflow="visible" style="display: block;" viewBox="0 0 28.133 11.622" fill="none" xmlns="http://www.w3.org/2000/svg">
<g id="Frame 1000002790">
<path id="Vector" d="M26.6125 0.0686184H1.521C0.718904 0.0686184 0.0686809 0.718842 0.0686809 1.52093V10.1014C0.0686809 10.9035 0.718904 11.5537 1.521 11.5537H26.6125C27.4145 11.5537 28.0648 10.9035 28.0648 10.1014V1.52093C28.0648 0.718842 27.4145 0.0686184 26.6125 0.0686184Z" fill="var(--fill-0, #181728)"/>
<path id="Vector_2" d="M26.6122 0.25H1.52078C0.818946 0.25 0.25 0.818946 0.25 1.52078V10.1012C0.25 10.8031 0.818946 11.372 1.52078 11.372H26.6122C27.3141 11.372 27.883 10.8031 27.883 10.1012V1.52078C27.883 0.818946 27.3141 0.25 26.6122 0.25Z" stroke="var(--stroke-0, white)" stroke-opacity="0.52" stroke-width="0.5"/>
<g id="Union">
<path d="M6.2054 8.5237C6.21761 8.53151 6.22778 8.54277 6.23372 8.55592C6.23961 8.56923 6.24202 8.58458 6.23958 8.59889C6.23708 8.61329 6.23013 8.62733 6.22005 8.63796L5.57161 9.32839C5.55767 9.34327 5.53959 9.35538 5.52083 9.36354C5.50221 9.37152 5.48155 9.37521 5.46126 9.37526H2.38704C2.37261 9.37523 2.35815 9.37131 2.34602 9.36354C2.33382 9.35568 2.32358 9.3436 2.3177 9.33034C2.31203 9.31714 2.3104 9.3025 2.31282 9.28835C2.31528 9.27403 2.3224 9.26096 2.33235 9.25026L2.97981 8.55983C2.99378 8.54496 3.01086 8.53283 3.02962 8.52467C3.04831 8.51663 3.06882 8.51204 3.08919 8.51198H6.16341C6.17803 8.51176 6.19306 8.51591 6.2054 8.5237Z" fill="var(--fill-0, white)"/>
<path d="M10.3939 6.82448H8.32259V7.36257H9.96712C10.0378 7.36229 10.1086 7.37507 10.1741 7.40163C10.2397 7.42829 10.2996 7.46831 10.3499 7.51784C10.4002 7.56742 10.4407 7.62677 10.4681 7.69167C10.4955 7.75658 10.5098 7.82639 10.5101 7.89675V8.44167C10.5097 8.51199 10.4955 8.58191 10.4681 8.64675C10.4267 8.74442 10.3569 8.82849 10.2679 8.88698C10.179 8.94531 10.0737 8.97626 9.96712 8.97585H7.81282V8.43776H9.96321V7.89967H8.31673C8.24597 7.90006 8.17526 7.88707 8.1097 7.86061C8.04403 7.834 7.98336 7.79393 7.93294 7.7444C7.88267 7.69487 7.84316 7.6354 7.81575 7.57057C7.78832 7.50557 7.77404 7.43598 7.77376 7.3655V6.82057C7.77413 6.75012 7.78826 6.68044 7.81575 6.6155C7.84326 6.55057 7.88349 6.49121 7.93392 6.44167C7.98429 6.39229 8.04415 6.35297 8.1097 6.32643C8.1753 6.29993 8.24591 6.286 8.31673 6.28639H10.3939V6.82448Z" fill="var(--fill-0, white)"/>
<path fill-rule="evenodd" clip-rule="evenodd" d="M13.1527 6.28639C13.2234 6.28609 13.2942 6.2999 13.3597 6.32643C13.4251 6.35304 13.4852 6.39228 13.5355 6.44167C13.5858 6.49117 13.6262 6.55063 13.6536 6.6155C13.6811 6.68035 13.6953 6.75024 13.6956 6.82057V8.44167C13.6953 8.51203 13.6811 8.58187 13.6536 8.64675C13.6261 8.71163 13.5858 8.77105 13.5355 8.82057C13.4852 8.86997 13.4253 8.90921 13.3597 8.93581C13.2942 8.96234 13.2234 8.97615 13.1527 8.97585H11.5013C11.3946 8.97663 11.2898 8.94519 11.2005 8.88698C11.1113 8.82865 11.0409 8.74546 10.9993 8.64772C10.9718 8.58265 10.9577 8.51225 10.9574 8.44167V6.82057C10.9577 6.74997 10.9718 6.67957 10.9993 6.61452C11.0409 6.51676 11.1113 6.4336 11.2005 6.37526C11.2898 6.31704 11.3946 6.28563 11.5013 6.28639H13.1527ZM11.5062 8.43776H13.1488L13.1478 6.82448H11.5062V8.43776Z" fill="var(--fill-0, white)"/>
<path d="M14.7298 8.43776H16.3724V8.97585H14.7259C14.655 8.97645 14.5837 8.96319 14.5179 8.93678C14.4524 8.91039 14.3926 8.87075 14.3421 8.82155C14.2916 8.77207 14.2506 8.71264 14.223 8.64772C14.1953 8.58265 14.1814 8.51228 14.181 8.44167V6.28639H14.7298V8.43776Z" fill="var(--fill-0, white)"/>
<path fill-rule="evenodd" clip-rule="evenodd" d="M18.9339 6.28639C19.0049 6.28558 19.0761 6.2992 19.1419 6.32546C19.2079 6.35185 19.2689 6.39118 19.3197 6.44069C19.3703 6.49024 19.4111 6.54947 19.4388 6.61452C19.4664 6.67965 19.4804 6.7499 19.4808 6.82057V8.97585H18.932V8.09206H17.3294V8.97585H16.7806V6.82057C16.781 6.7502 16.7952 6.68039 16.8226 6.6155C16.8501 6.55059 16.8903 6.49119 16.9408 6.44167C16.9911 6.39229 17.0511 6.35301 17.1165 6.32643C17.182 6.29998 17.2529 6.28607 17.3236 6.28639H18.9339ZM17.3275 7.55397H18.93V6.82448H17.3275V7.55397Z" fill="var(--fill-0, white)"/>
<path d="M20.8148 6.28639C20.8867 6.28661 20.9573 6.30886 21.0169 6.34889C21.0764 6.38901 21.1229 6.44574 21.1497 6.51198L21.9349 8.43776H22.1546V6.28639H22.7044V8.61842C22.7039 8.71309 22.6648 8.80371 22.597 8.87038C22.5635 8.90329 22.5234 8.92978 22.4798 8.94753C22.4362 8.96514 22.3892 8.97408 22.3421 8.97389H21.8548C21.7829 8.97401 21.7125 8.95289 21.6527 8.91335C21.5929 8.87354 21.5462 8.81645 21.5189 8.75026L20.7337 6.82448H20.514V8.97585H19.9652V6.64284C19.9654 6.59589 19.9752 6.54941 19.9935 6.50612C20.0211 6.44089 20.0678 6.38497 20.1273 6.34596C20.1866 6.30713 20.2564 6.28604 20.3275 6.28639H20.8148Z" fill="var(--fill-0, white)"/>
<path fill-rule="evenodd" clip-rule="evenodd" d="M25.3431 6.28639C25.4863 6.28575 25.6251 6.34167 25.7269 6.44167C25.7772 6.49114 25.8176 6.55068 25.845 6.6155C25.8725 6.68031 25.8867 6.75029 25.887 6.82057V8.97585H25.3382V8.09206H23.7386V8.97585H23.1898V6.82057C23.1901 6.75022 23.2043 6.68037 23.2318 6.6155C23.2592 6.55063 23.2996 6.49118 23.3499 6.44167C23.4004 6.39219 23.4611 6.35301 23.5267 6.32643C23.5922 6.3 23.663 6.286 23.7337 6.28639H25.3431ZM23.7357 7.55397H25.3382V6.82448H23.7357V7.55397Z" fill="var(--fill-0, white)"/>
<path d="M5.52083 7.21217C5.53956 7.22036 5.55763 7.2325 5.57161 7.24733L6.21907 7.93776C6.22873 7.9483 6.23517 7.9618 6.23763 7.97585C6.24005 7.99008 6.2385 8.00556 6.23274 8.01882C6.22696 8.03193 6.21642 8.0431 6.20442 8.05104C6.1924 8.05885 6.17777 8.06356 6.16341 8.06374H3.08919C3.06885 8.06359 3.04829 8.05908 3.02962 8.05104C3.01088 8.04291 2.99384 8.03067 2.97981 8.01589L2.33235 7.32546C2.32241 7.3148 2.31529 7.3007 2.31282 7.28639C2.31046 7.27224 2.31199 7.25758 2.3177 7.2444C2.32358 7.23111 2.3338 7.21915 2.34602 7.2112C2.35813 7.20347 2.37264 7.19952 2.38704 7.19948H5.46126C5.48162 7.19965 5.50216 7.20412 5.52083 7.21217Z" fill="var(--fill-0, white)"/>
<path d="M6.2054 5.8987C6.21458 5.90459 6.22301 5.91295 6.22884 5.92214C6.23452 5.93127 6.23826 5.94174 6.23958 5.95241C6.2409 5.96318 6.24002 5.97431 6.23665 5.98464C6.23323 5.99496 6.22754 6.00502 6.22005 6.01296L5.57161 6.70339C5.55768 6.71829 5.53959 6.73036 5.52083 6.73854C5.50221 6.74654 5.48156 6.75115 5.46126 6.75124H2.38704C2.37259 6.7512 2.35816 6.74634 2.34602 6.73854C2.33388 6.73064 2.32359 6.71949 2.3177 6.70632C2.31184 6.69297 2.31037 6.6777 2.31282 6.66335C2.31529 6.64903 2.32241 6.63591 2.33235 6.62526L2.97981 5.93483C2.99378 5.91995 3.01085 5.90783 3.02962 5.89967C3.04831 5.89162 3.06882 5.88705 3.08919 5.88698H6.16341C6.17802 5.88677 6.19306 5.89092 6.2054 5.8987Z" fill="var(--fill-0, white)"/>
<path d="M7.24934 3.64479C7.24934 3.96243 7.36338 4.08913 7.6429 4.08913C7.92231 4.08908 8.03645 3.96237 8.03645 3.64479V2.8821H8.35384V4.97878H7.14681V4.69264H8.03645V4.18483C7.94116 4.28962 7.78559 4.37526 7.59505 4.37526C7.11227 4.37524 6.93099 4.04818 6.93099 3.64479V2.8821H7.24934V3.64479Z" fill="var(--fill-0, white)"/>
<path fill-rule="evenodd" clip-rule="evenodd" d="M10.5433 2.85085C11.0578 2.85089 11.2386 3.21012 11.2386 3.67702C11.2385 4.14371 11.0576 4.50217 10.5433 4.50221C10.321 4.50221 10.165 4.41702 10.0697 4.28053V4.97878H9.75227V2.8821H10.0697V3.0735C10.1649 2.93692 10.3209 2.85085 10.5433 2.85085ZM10.4954 3.13698C10.1842 3.13702 10.0697 3.2959 10.0697 3.67702C10.0697 4.05783 10.1844 4.21702 10.4954 4.21706C10.8066 4.21706 10.9211 4.05788 10.9212 3.67702C10.9212 3.29585 10.8067 3.13698 10.4954 3.13698Z" fill="var(--fill-0, white)"/>
<path fill-rule="evenodd" clip-rule="evenodd" d="M3.30208 2.27858C3.96255 2.27876 4.35579 2.75572 4.35579 3.39089C4.35566 4.02589 3.96244 4.50204 3.30208 4.50221C2.6415 4.50221 2.24752 4.02601 2.24739 3.39089C2.24739 2.75561 2.64139 2.27858 3.30208 2.27858ZM3.30208 2.56471C2.87644 2.56471 2.56477 2.78419 2.56477 3.39089C2.56488 3.99733 2.87652 4.21608 3.30208 4.21608C3.72428 4.21595 4.0383 3.99716 4.03841 3.39089C4.03841 2.78437 3.72436 2.56484 3.30208 2.56471Z" fill="var(--fill-0, white)"/>
<path fill-rule="evenodd" clip-rule="evenodd" d="M12.1898 2.85085C12.6724 2.85085 12.9484 3.17766 12.9486 3.67604C12.9486 4.17467 12.6725 4.50221 12.1898 4.50221C11.7071 4.50215 11.431 4.17462 11.431 3.67604C11.4311 3.17771 11.7073 2.85091 12.1898 2.85085ZM12.1898 3.13698C11.8629 3.13702 11.7484 3.26358 11.7484 3.67604C11.7484 4.08886 11.8628 4.21604 12.1898 4.21608C12.5169 4.21608 12.6312 4.08892 12.6312 3.67604C12.6311 3.26351 12.5168 3.13698 12.1898 3.13698Z" fill="var(--fill-0, white)"/>
<path d="M13.7386 2.85085C13.9513 2.85085 14.1611 2.90799 14.3167 3.01589V3.30202C14.085 3.18775 13.882 3.137 13.7074 3.13698C13.5457 3.13698 13.4917 3.20619 13.4915 3.28542C13.4915 3.3743 13.5325 3.43508 13.8021 3.50807C14.272 3.63509 14.4436 3.73361 14.4437 4.02565C14.4437 4.2956 14.2186 4.5022 13.847 4.50221C13.5994 4.50221 13.4058 4.4545 13.1741 4.29909V3.9778C13.4631 4.15875 13.612 4.21608 13.847 4.21608C14.0534 4.21607 14.1263 4.12703 14.1263 4.02858C14.1261 3.9177 14.0431 3.85764 13.7513 3.79421C13.2974 3.69575 13.1741 3.54602 13.1741 3.29518C13.1743 3.03177 13.3991 2.85098 13.7386 2.85085Z" fill="var(--fill-0, white)"/>
<path d="M15.2298 2.85085C15.4426 2.85085 15.6523 2.90791 15.8079 3.01589V3.30202C15.5763 3.18776 15.3732 3.13705 15.1986 3.13698C15.0369 3.13698 14.982 3.20619 14.9818 3.28542C14.9818 3.37432 15.0235 3.43505 15.2933 3.50807C15.7632 3.63509 15.9348 3.73361 15.9349 4.02565C15.9349 4.29554 15.7096 4.50211 15.3382 4.50221C15.0905 4.50221 14.8962 4.45471 14.6644 4.29909V3.9778C14.9534 4.15883 15.1032 4.21608 15.3382 4.21608C15.5444 4.216 15.6175 4.12699 15.6175 4.02858C15.6173 3.9177 15.5343 3.85764 15.2425 3.79421C14.7884 3.69575 14.6644 3.54607 14.6644 3.29518C14.6645 3.03171 14.8901 2.8509 15.2298 2.85085Z" fill="var(--fill-0, white)"/>
<path fill-rule="evenodd" clip-rule="evenodd" d="M17.1761 3.07253C17.2714 2.93603 17.4275 2.85085 17.6497 2.85085C18.1641 2.85085 18.3449 3.20935 18.345 3.67604C18.345 4.14297 18.1643 4.50221 17.6497 4.50221C17.4274 4.50221 17.2714 4.41614 17.1761 4.27956V4.47096H16.8587V2.24733H17.1761V3.07253ZM17.6019 3.13698C17.2909 3.13706 17.1762 3.29532 17.1761 3.67604C17.1761 4.05711 17.2908 4.216 17.6019 4.21608C17.9132 4.21608 18.0277 4.05721 18.0277 3.67604C18.0276 3.29523 17.913 3.13698 17.6019 3.13698Z" fill="var(--fill-0, white)"/>
<path fill-rule="evenodd" clip-rule="evenodd" d="M19.8265 2.85085C20.3156 2.85085 20.513 3.14616 20.513 3.64479V3.8196H19.4652C19.4874 4.0418 19.5762 4.21606 19.9476 4.21608C20.0745 4.21608 20.1984 4.2165 20.4046 4.15944V4.43874C20.1572 4.50217 20.0682 4.50221 19.9476 4.50221C19.2299 4.50219 19.1409 3.99046 19.1409 3.67604C19.1411 3.17782 19.3379 2.85105 19.8265 2.85085ZM19.8265 3.13698C19.5823 3.13716 19.4742 3.27643 19.4583 3.53346H20.1956C20.1893 3.25722 20.0837 3.13698 19.8265 3.13698Z" fill="var(--fill-0, white)"/>
<path fill-rule="evenodd" clip-rule="evenodd" d="M22.5745 2.85085C23.0571 2.85089 23.3332 3.17769 23.3333 3.67604C23.3333 4.17464 23.0572 4.50217 22.5745 4.50221C22.0918 4.50221 21.8158 4.17467 21.8158 3.67604C21.8159 3.17766 22.0919 2.85085 22.5745 2.85085ZM22.5745 3.13698C22.2475 3.13698 22.1332 3.26351 22.1331 3.67604C22.1331 4.08892 22.2474 4.21608 22.5745 4.21608C22.9016 4.21606 23.0159 4.08888 23.0159 3.67604C23.0159 3.26355 22.9015 3.137 22.5745 3.13698Z" fill="var(--fill-0, white)"/>
<path d="M5.94466 4.47096H5.6263V3.16823H4.92806V4.47096H4.61067V2.8821H5.94466V4.47096Z" fill="var(--fill-0, white)"/>
<path d="M6.61263 4.47096H6.29427V2.24733H6.61263V4.47096Z" fill="var(--fill-0, white)"/>
<path d="M16.5384 4.47096H16.221V2.8821H16.5384V4.47096Z" fill="var(--fill-0, white)"/>
<path d="M18.8841 4.47096H18.5667V2.24733H18.8841V4.47096Z" fill="var(--fill-0, white)"/>
<path d="M24.8919 4.47096H24.5745V3.16823H23.8763V4.47096H23.5579V2.8821H24.8919V4.47096Z" fill="var(--fill-0, white)"/>
<path d="M16.5384 2.56471H16.221V2.24733H16.5384V2.56471Z" fill="var(--fill-0, white)"/>
</g>
</g>
</svg>
