<svg preserveAspectRatio="none" width="100%" height="100%" overflow="visible" style="display: block;" viewBox="0 0 19.9922 18.7427" fill="none" xmlns="http://www.w3.org/2000/svg">
<g id="Claynosaurz Symbol 1" clip-path="url(#clip0_0_4)">
<g id="Union">
<path fill-rule="evenodd" clip-rule="evenodd" d="M6.06943 3.74791C7.08315 3.70572 8.03959 3.91471 9.11826 4.25084C9.29901 4.31052 9.47671 4.41969 9.6085 4.56236C9.80907 4.40792 10.0579 4.31496 10.3272 4.31236C10.3807 4.31187 17.3531 4.2484 17.4093 4.24791C17.739 4.24791 18.059 4.3874 18.2862 4.63072C18.6626 5.08302 19.0316 5.54269 19.4054 5.99693C19.4798 6.08768 19.5536 6.17866 19.628 6.26939C19.8062 6.50169 19.8999 6.79516 19.8858 7.09166L19.7843 9.23131C19.764 9.66154 19.6017 10.0794 19.3272 10.4071L18.0343 11.9501C18.2627 12.052 18.4312 12.246 18.5821 12.4432C18.684 12.5677 18.786 12.6928 18.8878 12.8172C19.1722 13.1649 19.4558 13.5126 19.7403 13.8602C19.9191 14.0976 20.0096 14.3959 19.9894 14.6962L19.8282 17.0614C19.785 17.7018 19.2581 18.2064 18.629 18.2108H11.5108C11.2217 18.2108 10.956 18.1057 10.7472 17.9325C10.1544 18.5204 8.31452 18.734 7.55869 18.743C5.42379 18.7228 3.56039 17.6989 2.39072 16.0682C1.96601 15.5303 1.50154 15.0283 1.11631 14.4579C-1.54657 10.2218 0.73228 3.86873 6.06943 3.74791ZM7.97471 10.0868C6.56752 9.93109 6.15091 11.3437 6.15537 11.7831L6.15439 11.7821C6.13593 11.9968 6.14202 12.2053 6.17002 12.4032C6.61426 12.4874 7.03926 12.4333 7.49814 12.3212C8.11761 12.157 8.58448 11.7951 9.21982 12.1893C9.36373 11.8272 10.4449 10.7417 10.6983 10.4276C10.6551 10.3894 10.6138 10.3476 10.5782 10.3016C10.2758 10.5261 9.83965 10.5915 9.47861 10.454C9.04626 10.2963 8.42483 10.1173 7.97471 10.0868Z" fill="var(--fill-0, #031256)"/>
<path d="M10.796 1.0233C11.4402 0.0112245 13.2347 0.694977 13.8663 1.744C14.1838 2.27085 14.2835 2.79764 14.2872 3.20494L14.2833 3.37193C14.2796 3.43812 14.261 3.59305 14.1827 3.61705C14.1362 3.6318 14.0721 3.62401 13.9991 3.4901C13.6692 2.88561 12.8114 2.57025 12.3468 2.40807C11.842 2.23162 11.3581 2.09854 11.0118 1.92662C10.7076 1.77612 10.5269 1.44621 10.796 1.0233Z" fill="var(--fill-0, #031256)"/>
<path d="M6.03623 0.877793C7.02621 -0.184203 9.07508 -0.426252 9.49717 0.960801C9.67351 1.54078 9.28304 1.81158 8.89854 1.87389C8.46053 1.94461 7.95901 1.81656 7.35166 1.8983C6.75667 1.97877 6.29776 2.15546 5.52842 2.88365C5.40125 3.00419 5.2848 3.02686 5.21982 2.98619C5.10402 2.91356 5.15287 2.66886 5.17197 2.56432C5.28148 1.96224 5.58359 1.36309 6.03623 0.877793Z" fill="var(--fill-0, #031256)"/>
</g>
<g id="Union_2">
<path d="M6.16224 4.59001C6.4136 4.5842 6.67262 4.59272 6.93861 4.61735C7.4219 4.66213 8.28172 4.86115 8.86244 5.05388C8.88209 5.06034 8.90132 5.06828 8.91908 5.07732C8.93626 5.0864 8.95263 5.09688 8.9679 5.10857C8.97545 5.11368 8.98246 5.1201 8.98939 5.12712C9.01295 5.14658 9.0344 5.16919 9.05287 5.1945C9.0535 5.19516 9.05452 5.19613 9.05579 5.19743C9.10546 5.26752 9.13218 5.35594 9.12708 5.44743L9.00013 7.76384C8.98539 8.0231 8.73084 8.19765 8.49036 8.11052C8.02044 7.93921 7.32254 7.73377 6.76283 7.69548C5.17301 7.58657 4.1929 8.70523 4.06361 10.1574C3.956 11.3662 4.45047 12.4074 5.26478 12.9279C5.45705 13.0512 5.66763 13.1455 5.89173 13.2052C6.01264 13.2383 6.13819 13.2609 6.26673 13.2726C6.77167 13.3193 7.25953 13.2524 7.67786 13.1467C7.68345 13.1448 7.68888 13.143 7.69447 13.1418C7.98471 13.0665 8.24211 12.9735 8.44837 12.8859C8.47447 12.8749 8.50137 12.8667 8.52747 12.8615C8.56314 12.855 8.5989 12.8534 8.63392 12.8566C8.64599 12.8579 8.65894 12.8599 8.67103 12.8625C8.6786 12.8638 8.68689 12.8658 8.69447 12.8683C8.69676 12.8684 8.69859 12.8692 8.70033 12.8703C8.70861 12.8729 8.71744 12.8758 8.72572 12.8791C8.78359 12.8999 8.83671 12.9349 8.87806 12.9816C8.88181 12.9854 8.88568 12.9892 8.8888 12.9924C8.94418 13.0592 8.97863 13.1464 8.97865 13.2443L8.98841 15.5275C8.98905 15.6928 8.888 15.8414 8.73548 15.8967C7.93388 16.1854 6.79758 16.4159 5.89661 16.3322C4.04494 16.1609 2.65263 15.2811 1.80384 13.9884C1.44414 13.4428 1.1821 12.8231 1.02357 12.1515C1.01276 12.1075 1.00283 12.0625 0.993294 12.0177C0.986941 11.9873 0.981095 11.956 0.97474 11.925C0.87669 11.4338 0.83276 10.9173 0.844857 10.384C0.84613 10.3262 0.847192 10.2689 0.84974 10.2111C0.852284 10.1554 0.85569 10.0985 0.859505 10.0422C0.863321 9.98261 0.869073 9.92267 0.874154 9.86247C0.985008 8.61802 1.40325 7.48803 2.08704 6.59587C2.09394 6.58631 2.1014 6.57612 2.10951 6.56657C3.01432 5.40116 4.37638 4.64911 6.09681 4.59196C6.11847 4.59131 6.14058 4.59001 6.16224 4.59001Z" fill="url(#paint0_linear_0_4)"/>
<path d="M17.4054 5.09099C17.6257 5.08904 17.802 5.27662 17.7911 5.50114L17.6896 7.64079C17.6782 7.88672 17.5864 8.1222 17.4298 8.30974L13.797 12.6457C13.7044 12.7566 13.7883 12.9258 13.9308 12.9162L17.4874 12.673C17.7191 12.6569 17.9116 12.8532 17.8956 13.09L17.7355 15.4543C17.7215 15.6579 17.5555 15.8163 17.3556 15.8175H10.2462C10.0348 15.8188 9.86176 15.6453 9.86048 15.4299L9.84779 13.0685C9.84587 12.789 9.94749 12.52 10.132 12.3136L13.6945 8.33122C13.7932 8.22093 13.7081 8.04353 13.5617 8.05583L10.2648 8.34294C10.0344 8.36305 9.83981 8.1714 9.84974 7.93669L9.95521 5.52946C9.96412 5.32262 10.1306 5.1586 10.3341 5.15642L17.4054 5.09099Z" fill="url(#paint1_linear_0_4)"/>
</g>
<g id="Union_3">
<path d="M16.8404 14.5856C16.9801 14.5856 17.0932 14.7321 17.0933 14.9128C17.0933 15.0936 16.9801 15.2399 16.8404 15.2399C16.7009 15.2398 16.5874 15.0935 16.5874 14.9128C16.5875 14.7322 16.7009 14.5857 16.8404 14.5856Z" fill="var(--fill-0, #10AD8C)"/>
<path d="M15.8316 13.2712C16.0721 13.2712 16.2671 13.4684 16.2671 13.7116C16.2671 13.9547 16.0721 14.152 15.8316 14.152C15.5913 14.1518 15.3961 13.9546 15.396 13.7116C15.396 13.4685 15.5912 13.2713 15.8316 13.2712Z" fill="var(--fill-0, #10AD8C)"/>
<path d="M3.33061 6.18814C3.64203 5.95224 4.00414 5.90505 4.13725 6.08365C4.27198 6.26221 4.04921 6.44037 3.73784 6.67642C3.42628 6.91261 3.14315 7.11961 3.00835 6.94107C2.87356 6.76243 3.01901 6.42436 3.33061 6.18814Z" fill="var(--fill-0, #10AD8C)"/>
</g>
</g>
<defs>
<linearGradient id="paint0_linear_0_4" x1="13.8748" y1="4.22958" x2="13.8748" y2="16.2131" gradientUnits="userSpaceOnUse">
<stop stop-color="#60E052"/>
<stop offset="1" stop-color="#1DBDCA"/>
</linearGradient>
<linearGradient id="paint1_linear_0_4" x1="13.8748" y1="4.22958" x2="13.8748" y2="16.2131" gradientUnits="userSpaceOnUse">
<stop stop-color="#60E052"/>
<stop offset="1" stop-color="#1DBDCA"/>
</linearGradient>
<clipPath id="clip0_0_4">
<rect width="19.9922" height="18.7427" fill="white"/>
</clipPath>
</defs>
</svg>
