<svg preserveAspectRatio="none" width="100%" height="100%" overflow="visible" style="display: block;" viewBox="0 0 32 32" fill="none" xmlns="http://www.w3.org/2000/svg">
<g id="Metaplex white">
<g id="Vector">
<path fill-rule="evenodd" clip-rule="evenodd" d="M16.058 19.9165C16.182 19.7333 16.1966 19.4914 16.0799 19.3009L8.99911 7.31901C8.89702 7.14312 8.71471 7.04053 8.51053 7.04053H3.53719C3.09965 7.04053 2.82254 7.51687 3.04861 7.89795L12.3536 23.8592C12.5578 24.2182 13.0755 24.2402 13.3089 23.8958L16.058 19.9165ZM7.46044 23.61C7.68651 23.991 7.4094 24.4747 6.97185 24.4747H3.55907C3.2455 24.4747 2.99027 24.2182 2.99027 23.9031V18.1284C2.99027 17.5421 3.75596 17.3369 4.04765 17.8352L7.46044 23.61Z" fill="var(--fill-0, white)"/>
<path d="M29.3884 23.7713C29.6072 24.1523 29.3373 24.6287 28.8998 24.6287H23.9556C23.7515 24.6287 23.5691 24.5187 23.4671 24.3428L13.8777 7.89798C13.6589 7.5169 13.9287 7.04056 14.3663 7.04056H19.3323C19.5365 7.04056 19.7188 7.15048 19.8209 7.32636L29.3884 23.7713Z" fill="var(--fill-0, white)"/>
</g>
</g>
</svg>
