<svg preserveAspectRatio="none" width="100%" height="100%" overflow="visible" style="display: block;" viewBox="0 0 20.0027 20.0025" fill="none" xmlns="http://www.w3.org/2000/svg">
<g id="Frame 139">
<path id="Vector" d="M17.5021 2.50032H20.0027V5.00092H17.5021V2.50032Z" fill="var(--fill-0, #3D783D)"/>
<path id="Vector_2" d="M0 17.5022H2.50025V20.0025H0V17.5022ZM2.50025 15.0018H5.00049V17.5021H2.50025V15.0018ZM2.50025 12.5015H5.00049V15.0018H2.50025V12.5015ZM5.00063 12.5015H7.50088V15.0017H5.00063V12.5015ZM5.00063 10.0012H7.50088V12.5015H5.00063V10.0012ZM7.50088 10.0012H10.0011V12.5015H7.50088V10.0012ZM7.50088 7.50096H10.0011V10.0012H7.50088V7.50096ZM10.0013 7.50096H12.5015V10.0012H10.0013V7.50096Z" fill="var(--fill-0, #F98635)"/>
<path id="Vector_3" d="M5.00076 15.0018H7.50101V17.502H5.00076V15.0018ZM7.50101 12.5014H10.0013V15.0017L7.50101 15.0018V12.5014ZM10.0014 10.0012H12.5016V12.5014H10.0014V10.0012Z" fill="var(--fill-0, #EA7928)"/>
<path id="Vector_4" d="M7.50096 2.50032H10.0016V5.00092H7.50096V2.50032Z" fill="var(--fill-0, #498448)"/>
<path id="Vector_5" d="M10.0012 2.50032H12.5018V5.00092H10.0012V2.50032Z" fill="var(--fill-0, #3D783D)"/>
<path id="Vector_6" d="M10.0012 6.10685e-05H12.5014V2.50031H10.0012V6.10685e-05ZM15.0017 6.10685e-05H17.5019V2.50031H15.0017V6.10685e-05ZM12.5014 5.00056H15.0017V7.50081H12.5014V5.00056ZM15.0017 2.50031H17.5019V5.00056H15.0017V2.50031ZM15.0017 7.50081L17.5019 7.50094V10.0012H15.0017V7.50081ZM17.502 7.50094H20.0023V10.0012H17.502V7.50094Z" fill="var(--fill-0, #498448)"/>
<path id="Vector_7" d="M17.5021 10.0012H20.0027V12.5018H17.5021V10.0012Z" fill="var(--fill-0, #3D783D)"/>
</g>
</svg>
