<svg width="32" height="32" viewBox="0 0 32 32" fill="none" xmlns="http://www.w3.org/2000/svg">
<path d="M9.4477 16.887C9.4477 18.3102 8.96118 19.5041 7.98813 20.4659C7.01512 21.4305 5.82959 21.9115 4.43158 21.9115H2.35132V19.848H4.43158C5.25921 19.848 5.95542 19.5656 6.5202 18.998C7.08503 18.4332 7.36742 17.7286 7.36742 16.8898L7.35066 11.1411H9.4477V16.887Z" fill="white"/>
<path d="M10.9435 11.2392H13.0238L12.9902 13.2691H10.9267L10.9435 11.2392ZM10.9435 14.0911H13.0238V21.9089H10.9267L10.9435 14.0911Z" fill="white"/>
<path d="M16.6535 13.3695H20.2268V15.4497H16.6199V18.3296C16.6199 18.7574 16.7541 19.1154 17.0254 19.4061C17.2966 19.6969 17.6349 19.8451 18.0403 19.8451H20.2073V21.9086H18.0599C17.0757 21.9086 16.2453 21.5591 15.5686 20.8573C14.892 20.1555 14.5537 19.3027 14.5537 18.2933V11.169H16.6171L16.6507 13.3667L16.6535 13.3695Z" fill="white"/>
<path d="M28.4029 20.6841C27.5752 21.5034 26.5631 21.9116 25.3664 21.9116C24.1697 21.9116 23.1435 21.5006 22.3215 20.6757C21.4994 19.8509 21.0884 18.8415 21.0884 17.642C21.0884 16.4425 21.5022 15.4303 22.3299 14.5999C23.1575 13.7695 24.1697 13.3557 25.3664 13.3557C26.5631 13.3557 27.5752 13.7695 28.4029 14.5999C29.2305 15.4303 29.6443 16.4425 29.6443 17.642C29.6443 18.8415 29.2305 19.8677 28.4029 20.6841ZM26.9014 16.0511C26.4932 15.6401 25.9815 15.4359 25.3664 15.4359C24.7513 15.4359 24.2312 15.6484 23.8062 16.0762C23.3812 16.504 23.1687 17.0241 23.1687 17.642C23.1687 18.2599 23.3812 18.7828 23.8062 19.2078C24.2312 19.6356 24.7513 19.8481 25.3664 19.8481C25.9815 19.8481 26.5156 19.6384 26.935 19.2162C27.3544 18.794 27.5641 18.2711 27.5641 17.642C27.5641 17.0465 27.3096 16.4621 26.9014 16.0511Z" fill="white"/>
</svg>
