<svg preserveAspectRatio="none" width="100%" height="100%" overflow="visible" style="display: block;" viewBox="0 0 32 32" fill="none" xmlns="http://www.w3.org/2000/svg">
<g id="Squads">
<rect width="32" height="32" rx="8" fill="var(--fill-0, white)"/>
<path id="Vector" d="M25.4863 11.3605L22.7798 8.65385L20.6442 6.5148C20.6037 6.47434 20.5611 6.43608 20.5173 6.4C20.2087 6.1476 19.8225 6.00933 19.4238 6.00848H12.5773C12.1786 6.00915 11.7923 6.14745 11.4838 6.4C11.44 6.43608 11.3973 6.47434 11.3569 6.5148L9.22235 8.64947L6.51588 11.3561C6.35515 11.5166 6.2276 11.7071 6.14054 11.9169C6.05348 12.1267 6.00861 12.3516 6.00848 12.5787V19.4257C6.00843 19.6528 6.05322 19.8777 6.14029 20.0876C6.22736 20.2974 6.355 20.4879 6.51588 20.6483L11.3569 25.4907C11.3973 25.5311 11.44 25.5694 11.4838 25.6C11.7923 25.8526 12.1786 25.9908 12.5773 25.9915H19.4238C19.8225 25.9907 20.2087 25.8524 20.5173 25.6C20.5611 25.5639 20.6037 25.5256 20.6442 25.4907L25.4852 20.6483C25.6458 20.4877 25.7731 20.2971 25.8599 20.0873C25.9468 19.8775 25.9915 19.6527 25.9915 19.4257V12.5787C25.9902 12.1219 25.8086 11.6841 25.4863 11.3605ZM23.3518 16.0104V21.7506C23.3513 21.962 23.3092 22.1713 23.2278 22.3665C23.1465 22.5616 23.0274 22.7388 22.8775 22.8879C22.7276 23.037 22.5498 23.1551 22.3542 23.2354C22.1586 23.3157 21.9491 23.3567 21.7377 23.356H10.2557C10.0445 23.3561 9.8352 23.3146 9.63998 23.2338C9.44475 23.153 9.26737 23.0345 9.11798 22.8851C8.96858 22.7357 8.8501 22.5584 8.76931 22.3631C8.68852 22.1678 8.64701 21.9586 8.64716 21.7473V10.2647C8.64701 10.0534 8.68851 9.84406 8.76928 9.64876C8.85006 9.45346 8.96853 9.27597 9.11791 9.12648C9.26729 8.97698 9.44466 8.85843 9.6399 8.77752C9.83513 8.69661 10.0444 8.65492 10.2557 8.65492H21.7377C22.1646 8.65492 22.5741 8.82454 22.8759 9.12642C23.1778 9.42831 23.3474 9.83776 23.3474 10.2647V16.0115L23.3518 16.0104Z" fill="var(--fill-0, #1A1A1A)"/>
</g>
</svg>
