<svg preserveAspectRatio="none" width="100%" height="100%" overflow="visible" style="display: block;" viewBox="0 0 27.9919 27.9921" fill="none" xmlns="http://www.w3.org/2000/svg">
<g id="Frame 136">
<circle id="Ellipse 4" cx="13.996" cy="13.9961" r="13.996" fill="var(--fill-0, #111727)"/>
<path id="Union" d="M4.71706 22.8366C6.4658 22.4875 8.40074 22.7822 10.0823 23.3239C12.2954 24.0395 14.3313 25.2181 16.053 26.7819C16.3184 27.0262 16.7259 27.3984 16.9378 27.6823C16.5644 27.7922 16.0493 27.8436 15.6604 27.903C15.4794 27.9308 15.2477 27.9373 15.0774 27.9919H14.0081C13.974 27.9631 13.9394 27.9347 13.9046 27.9069C11.9358 26.3351 9.43827 25.2102 6.93776 24.8952C6.44952 24.8338 5.62227 24.779 5.13307 24.8337C4.69129 24.5289 3.8151 23.6455 3.47975 23.236C3.84151 23.0509 4.31981 22.9159 4.71706 22.8366ZM3.13014 20.6608C4.11788 18.6754 7.51547 18.7642 9.18483 19.0602C12.8493 19.7103 16.5678 21.712 19.1721 24.3044C19.7673 24.9032 20.3128 25.5496 20.803 26.237C20.3775 26.508 19.557 26.8537 19.0882 27.0436C18.9979 26.8788 18.5347 26.366 18.3753 26.196C16.8167 24.5354 14.8091 23.1254 12.7415 22.1725C9.74913 20.7934 6.16199 20.0543 2.98464 21.2194C3.01614 21.0888 3.07813 20.7656 3.13014 20.6608ZM6.00417 16.1823C7.46603 15.2156 9.75865 15.3199 11.4046 15.6345C15.3421 16.3871 19.6299 18.8835 22.1975 21.9597C22.5665 22.3985 22.9039 22.8631 23.2063 23.3503C23.3602 23.5994 23.5075 23.8944 23.6673 24.1296C23.4039 24.3866 23.0768 24.6594 22.7923 24.8923C21.5281 23.1317 19.9696 21.6019 18.1858 20.3708C14.7565 17.9574 9.72233 15.9048 5.46511 16.6452C5.63435 16.4746 5.80274 16.3155 6.00417 16.1823ZM13.6516 13.0134C15.6807 12.9766 17.6817 13.4922 19.4407 14.5046C22.1603 16.0719 23.909 18.5068 24.719 21.5134C24.5474 21.3106 24.375 21.0756 24.2024 20.8659C23.9496 20.5597 23.6864 20.2627 23.4114 19.9763C22.9869 19.5018 22.304 18.883 21.8137 18.4714C19.4365 16.4746 16.6827 14.9745 13.7161 14.0593C13.1225 13.8809 12.5206 13.7313 11.9124 13.612C11.6715 13.5666 11.021 13.48 10.8264 13.4216L10.8069 13.4157C11.9031 13.1722 12.5211 13.0453 13.6516 13.0134Z" fill="url(#paint0_linear_0_4)"/>
<path id="Union_2" d="M8.48127 4.77187C9.36956 4.74904 10.2751 5.012 10.6688 5.89101C10.7649 6.10567 10.7854 6.30932 10.8133 6.53848C10.4398 6.5551 9.99126 6.54483 9.61213 6.54629C9.53517 5.72567 8.36456 5.61354 7.83674 6.05508C7.73643 6.13903 7.65288 6.311 7.65607 6.4418C7.67605 7.23098 8.95557 7.19656 9.50275 7.42812C9.8696 7.54719 10.225 7.72498 10.493 8.00918C11.061 8.61169 10.9921 9.71166 10.3748 10.2553C9.81689 10.7463 9.06416 10.8363 8.35334 10.8051C7.50513 10.7694 6.60619 10.4001 6.33674 9.52383C6.26758 9.29868 6.24484 9.1165 6.21955 8.88418L7.4256 8.88125C7.55091 9.60601 8.02045 9.78381 8.72541 9.76894C9.12334 9.76042 9.69904 9.46328 9.6258 8.99258C9.51911 8.31004 8.24774 8.29339 7.72834 8.07656C7.38981 7.93862 7.13304 7.86865 6.85041 7.61758C6.22532 7.10938 6.25131 6.05469 6.77814 5.48086C7.22712 4.99186 7.83522 4.80659 8.48127 4.77187ZM14.2117 4.77187C15.8689 4.70446 17.001 5.81853 17.1112 7.43887C17.1718 8.33055 17.0216 9.23108 16.4188 9.9291C15.9075 10.521 15.2779 10.7393 14.5252 10.8041C12.834 10.8609 11.7538 9.77057 11.6268 8.13027C11.492 6.38644 12.3418 4.89846 14.2117 4.77187ZM19.2947 4.85586L19.2967 9.70547H21.8104L21.8094 10.7299L18.0467 10.7309L18.0487 6.65859L18.0447 5.52578C18.0437 5.33914 18.0341 5.02698 18.0516 4.85098C18.4417 4.84452 18.9098 4.83897 19.2947 4.85586ZM14.1971 5.87539C13.0047 6.03459 12.7779 7.26635 12.907 8.26113C13.0295 9.20325 13.5991 9.77503 14.5643 9.69668C15.7666 9.5215 15.9675 8.25232 15.8211 7.25332C15.6906 6.36365 15.1065 5.80604 14.1971 5.87539Z" fill="url(#paint1_linear_0_4)"/>
</g>
<defs>
<linearGradient id="paint0_linear_0_4" x1="19.3937" y1="13.8279" x2="2.98437" y2="28.3399" gradientUnits="userSpaceOnUse">
<stop stop-color="#C8F484"/>
<stop offset="1" stop-color="#4CD2C7"/>
</linearGradient>
<linearGradient id="paint1_linear_0_4" x1="19.7281" y1="4.76894" x2="6.22042" y2="10.8125" gradientUnits="userSpaceOnUse">
<stop stop-color="#BEF089"/>
<stop offset="1" stop-color="#16C4E3"/>
</linearGradient>
</defs>
</svg>
