<svg width="32" height="32" viewBox="0 0 32 32" fill="none" xmlns="http://www.w3.org/2000/svg">
<path d="M18.5288 17.604C18.9331 17.604 19.2612 17.927 19.2612 18.3247V19.0845C19.2612 19.4822 18.9331 19.8052 18.5288 19.8052C18.1247 19.805 17.7974 19.4821 17.7974 19.0845V18.3247C17.7974 17.9271 18.1247 17.6042 18.5288 17.604Z" fill="white"/>
<path d="M15.0737 17.604C15.478 17.604 15.8062 17.927 15.8062 18.3247V19.0845C15.8062 19.4822 15.478 19.8042 15.0737 19.8042C14.6696 19.8041 14.3423 19.4821 14.3423 19.0845V18.3247C14.3423 17.9271 14.6696 17.6041 15.0737 17.604Z" fill="white"/>
<path d="M16.8013 9.88232C18.2159 9.88232 19.3636 11.011 19.3638 12.4028V13.5269C18.5457 13.4983 17.7049 13.4839 16.8013 13.4839C15.8978 13.4839 15.0577 13.4983 14.2397 13.5269V12.4028C14.24 11.0111 15.3867 9.88255 16.8013 9.88232Z" fill="white"/>
<path fill-rule="evenodd" clip-rule="evenodd" d="M17.1675 5.65576C22.6016 5.65576 27.0735 9.71245 27.6245 14.9155C29.0727 16.1004 29.9946 17.8863 29.9946 19.8843C29.9946 23.4516 27.0559 26.3441 23.4302 26.3442H10.4155C5.77076 26.3439 2.00551 22.6388 2.00537 18.0688C2.00537 14.107 4.83535 10.7954 8.61475 9.98389C10.522 7.36364 13.642 5.65589 17.1675 5.65576ZM16.8013 8.44287C14.5783 8.4431 12.7761 10.2157 12.7759 12.4028V13.6831C11.6286 14.0286 10.7627 15.0222 10.5981 16.2241C10.4898 17.0164 10.397 17.8491 10.397 18.7046C10.397 19.5602 10.4898 20.3927 10.5981 21.1851C10.7969 22.6376 12.0205 23.785 13.5269 23.853C14.5721 23.9004 15.6336 23.9253 16.8013 23.9253C17.9692 23.9253 19.0312 23.9004 20.0767 23.853C21.5829 23.785 22.8066 22.6376 23.0054 21.1851C23.1138 20.3927 23.2065 19.5602 23.2065 18.7046C23.2065 17.8491 23.1137 17.0164 23.0054 16.2241C22.8409 15.0223 21.9749 14.0287 20.8276 13.6831V12.4028C20.8274 10.2155 19.0244 8.44287 16.8013 8.44287Z" fill="white"/>
</svg>
