<svg preserveAspectRatio="none" width="100%" height="100%" overflow="visible" style="display: block;" viewBox="0 0 28 28" fill="none" xmlns="http://www.w3.org/2000/svg">
<g id="Frame 129">
<path id="Vector" d="M14 28C21.732 28 28 21.732 28 14C28 6.268 21.732 0 14 0C6.268 0 0 6.268 0 14C0 21.732 6.268 28 14 28Z" fill="var(--fill-0, #0B53BF)"/>
<g id="Union">
<path d="M11.4843 5.62294L11.4814 5.61317C7.88721 6.69769 5.2547 10.0382 5.25453 13.9997C5.25453 17.9614 7.88706 21.3114 11.4814 22.3872L11.4961 22.3911H11.4843V24.1755L11.4804 24.1941L11.4794 24.198C6.89252 23.0775 3.4965 18.9368 3.4965 13.9997C3.49669 9.06811 6.88545 4.93199 11.4648 3.80628H11.4843V5.62294Z" fill="var(--fill-0, white)"/>
<path d="M16.5209 24.198C16.5258 24.1968 16.5307 24.1953 16.5356 24.1941H16.5385L16.5209 24.198Z" fill="var(--fill-0, white)"/>
<path d="M16.5209 3.80237C21.1077 4.92282 24.5037 9.06282 24.5039 13.9997C24.5039 18.9315 21.1151 23.0684 16.5356 24.1941H16.516V22.3765L16.52 22.3911L16.519 22.3872C20.1133 21.3027 22.7458 17.9614 22.7458 13.9997C22.7457 10.0382 20.1132 6.69769 16.519 5.61317L16.5053 5.60926H16.516V3.82387L16.52 3.80628L16.5209 3.80237Z" fill="var(--fill-0, white)"/>
<path d="M15.0844 8.74614C15.9336 8.74614 16.7832 8.93858 17.5363 9.33248L17.5832 9.35691L17.5392 9.33834L16.9783 10.6683L16.8845 10.8921L16.9724 10.6693C16.3607 10.4248 15.6958 10.2853 15.058 10.2853C13.7965 10.2855 12.6074 10.8223 12.0374 12.1146H16.3519L16.3626 12.1185L16.3665 12.1205L15.8242 13.4329L15.8193 13.4427V13.4358H11.711C11.6941 13.6151 11.6856 13.803 11.6856 13.9997C11.6856 14.1967 11.6941 14.3851 11.711 14.5645H15.3453L15.3561 14.5684L15.36 14.5704L14.8176 15.8828L14.8137 15.8926V15.8857H12.0374C12.6074 17.1779 13.7965 17.7139 15.058 17.7141C15.6961 17.7141 16.3614 17.5748 16.9734 17.3301L17.1981 17.2392L16.9783 17.332L17.5392 18.662L17.5587 18.7099L17.5363 18.6679C16.7832 19.0618 15.9336 19.2542 15.0844 19.2542C13.0355 19.254 10.9641 18.109 10.213 15.8857H8.87221V15.8808H8.8683V14.5684H8.87221V14.5645H9.94227C9.92642 14.3816 9.91784 14.193 9.91784 13.9997C9.91785 13.8066 9.92653 13.6186 9.94227 13.4358H8.87221V13.431H8.8683V12.1185H8.87221V12.1146H10.213C10.964 9.89118 13.0354 8.74635 15.0844 8.74614Z" fill="var(--fill-0, white)"/>
<path d="M11.4648 3.80628H11.4618L11.4794 3.80237C11.4746 3.80355 11.4696 3.80509 11.4648 3.80628Z" fill="var(--fill-0, white)"/>
</g>
</g>
</svg>
