<svg width="32" height="32" viewBox="0 0 32 32" fill="none" xmlns="http://www.w3.org/2000/svg">
<path d="M29.9961 16.0001C29.9961 8.39479 23.7298 2.22949 16 2.22949C8.27017 2.22949 2.00391 8.39479 2.00391 16.0001C2.00391 23.6053 8.27017 29.7706 16 29.7706C23.7298 29.7706 29.9961 23.6053 29.9961 16.0001Z" fill="url(#paint0_linear_24_724)"/>
<path d="M16.0001 28.7378C23.1502 28.7378 28.9465 23.0349 28.9465 16C28.9465 8.9651 23.1502 3.26221 16.0001 3.26221C8.85001 3.26221 3.05371 8.9651 3.05371 16C3.05371 23.0349 8.85001 28.7378 16.0001 28.7378Z" fill="url(#paint1_linear_24_724)" stroke="url(#paint2_linear_24_724)" stroke-width="2.09941"/>
<path fill-rule="evenodd" clip-rule="evenodd" d="M12.5125 22.4328C9.4145 22.4327 6.90308 19.9617 6.90308 16.9136C6.90308 14.2712 8.79041 12.0625 11.3111 11.5212C12.5832 9.77359 14.6643 8.63477 17.0158 8.63477C20.6402 8.63477 23.6222 11.3401 23.9898 14.8103C24.9559 15.6006 25.5709 16.792 25.5709 18.1247C25.5709 20.504 23.6106 22.4328 21.1923 22.4328L21.1919 22.4328H17.0366L17.0158 22.4329L16.9951 22.4328H12.5125ZM17.9237 16.6038C18.1934 16.6038 18.4119 16.8189 18.4119 17.0841V17.5913C18.4119 17.8565 18.1934 18.0716 17.9237 18.0716C17.6541 18.0716 17.4356 17.8565 17.4356 17.5913V17.0841C17.4356 16.8189 17.6541 16.6038 17.9237 16.6038ZM15.063 13.135C15.063 12.2066 15.8279 11.454 16.7716 11.454C17.7152 11.454 18.4802 12.2066 18.4802 13.135V13.8844C17.9345 13.8653 17.3743 13.8555 16.7716 13.8555C16.1689 13.8555 15.6086 13.8653 15.063 13.8844V13.135ZM14.0867 13.9886V13.135C14.0867 11.6761 15.2887 10.4934 16.7716 10.4934C18.2544 10.4934 19.4565 11.6761 19.4565 13.135V13.9886C20.2218 14.219 20.7993 14.8814 20.909 15.6831C20.9813 16.2116 21.043 16.7669 21.043 17.3376C21.043 17.9083 20.9813 18.4636 20.909 18.9922C20.7764 19.9609 19.9606 20.7264 18.956 20.7718C18.2587 20.8034 17.5506 20.8198 16.7716 20.8198C15.9926 20.8198 15.2845 20.8034 14.5872 20.7718C13.5825 20.7264 12.7667 19.9609 12.6341 18.9922C12.5618 18.4636 12.5001 17.9083 12.5001 17.3376C12.5001 16.7669 12.5618 16.2116 12.6341 15.6831C12.7439 14.8814 13.3214 14.219 14.0867 13.9886ZM15.6193 16.6038C15.8889 16.6038 16.1074 16.8188 16.1074 17.0841V17.5912C16.1074 17.8564 15.8889 18.0715 15.6193 18.0715C15.3497 18.0715 15.1311 17.8564 15.1311 17.5912V17.0841C15.1311 16.8188 15.3497 16.6038 15.6193 16.6038Z" fill="url(#paint3_linear_24_724)"/>
<defs>
<linearGradient id="paint0_linear_24_724" x1="16" y1="2.22949" x2="16" y2="29.7706" gradientUnits="userSpaceOnUse">
<stop stop-color="#363636"/>
<stop offset="1" stop-color="#1B1B1C"/>
</linearGradient>
<linearGradient id="paint1_linear_24_724" x1="16.0001" y1="2.22941" x2="16.0001" y2="29.7706" gradientUnits="userSpaceOnUse">
<stop stop-color="#363636"/>
<stop offset="1" stop-color="#1B1B1C"/>
</linearGradient>
<linearGradient id="paint2_linear_24_724" x1="16.0001" y1="2.22941" x2="16.0001" y2="29.7706" gradientUnits="userSpaceOnUse">
<stop stop-color="#060606"/>
<stop offset="1" stop-color="#414141"/>
</linearGradient>
<linearGradient id="paint3_linear_24_724" x1="12.3166" y1="8.63477" x2="12.3166" y2="22.4329" gradientUnits="userSpaceOnUse">
<stop offset="0.47541" stop-color="#F7F9FB"/>
<stop offset="1" stop-color="#E3E3E3"/>
</linearGradient>
</defs>
</svg>
