<svg width="32" height="32" viewBox="0 0 32 32" fill="none" xmlns="http://www.w3.org/2000/svg">
<path d="M16.0025 30.0103C23.7472 30.0103 29.9961 23.7395 29.9961 16.0165C30.0293 8.26055 23.7472 1.98975 16.0025 1.98975C8.29097 1.98975 2.00879 8.26055 2.00879 15.9835C2.00879 23.7395 8.29097 30.0103 16.0025 30.0103Z" fill="#6B40E0"/>
<path d="M24.907 21.3898C24.87 21.4551 24.8018 21.4957 24.7291 21.4959C22.9544 21.5006 21.1418 21.0924 19.6001 20.2003C18.29 19.4422 17.2379 18.3855 16.4117 17.1661C17.6592 20.1262 17.5142 23.5384 15.9843 26.4751C15.9487 26.5434 15.8795 26.5869 15.8049 26.588C15.7303 26.589 15.6626 26.5474 15.6297 26.4802C14.2038 23.5694 14.1816 20.1448 15.5541 17.1457C14.6326 18.4683 13.4681 19.6182 12.0775 20.4103C10.5565 21.2769 8.85278 21.7589 7.13678 21.8108C7.06447 21.813 6.99797 21.7751 6.96297 21.7116C6.92794 21.6483 6.92987 21.5693 6.96801 21.5053C7.90786 19.9271 9.21811 18.6027 10.767 17.6676L10.7745 17.6628C12.0537 16.892 13.4811 16.4428 14.932 16.269C13.4616 16.1423 12.0325 15.6945 10.7532 14.9543C9.26661 14.0941 7.95908 12.8002 7.07198 11.2678C7.03532 11.2044 7.03615 11.1245 7.07414 11.0595C7.11214 10.9944 7.18122 10.9546 7.25421 10.9557C8.97473 10.9812 10.6629 11.4463 12.1495 12.3065C13.395 13.0272 14.5144 14.0519 15.3664 15.2662C14.8035 13.9434 14.4839 12.5054 14.5012 11.0374C14.5235 9.14692 15.0505 7.208 16.0083 5.54534C16.045 5.48164 16.1115 5.44166 16.1828 5.44046C16.2541 5.43926 16.3194 5.47702 16.3539 5.53953C17.218 7.10089 17.6945 8.89678 17.6961 10.72C17.6976 12.32 17.2786 13.9007 16.5878 15.3561C17.4874 14.0735 18.6443 12.9926 19.9747 12.1982C21.4698 11.3058 23.1551 10.7886 24.8611 10.697C24.9345 10.6931 25.0027 10.7306 25.0388 10.7947C25.0748 10.8588 25.0728 10.9391 25.0336 11.0038C24.088 12.5631 22.7789 13.8692 21.2363 14.7902C19.9601 15.552 18.5452 16.0403 17.0971 16.2239C18.568 16.3354 20.0179 16.734 21.2974 17.4743C22.845 18.3698 24.0287 19.6926 24.9072 21.1825C24.9441 21.2452 24.9441 21.3246 24.907 21.3898Z" fill="white"/>
</svg>
