<svg width="32" height="32" viewBox="0 0 32 32" fill="none" xmlns="http://www.w3.org/2000/svg">
<path d="M16 30C23.732 30 30 23.732 30 16C30 8.26801 23.732 2 16 2C8.26801 2 2 8.26801 2 16C2 23.732 8.26801 30 16 30Z" fill="#0B53BF"/>
<path d="M13.4807 7.60889C9.88459 8.69385 7.25042 12.0359 7.25024 15.9995C7.25024 19.9633 9.88447 23.3149 13.4807 24.3911V26.1938C8.89571 25.0738 5.50024 20.9345 5.50024 15.9995C5.50042 11.0647 8.89583 6.92612 13.4807 5.80615V7.60889Z" fill="white"/>
<path d="M18.5208 5.80615C23.1055 6.92617 26.5 11.0648 26.5002 15.9995C26.5002 20.9345 23.1057 25.0738 18.5208 26.1938V24.3911C22.1169 23.306 24.7502 19.9632 24.7502 15.9995C24.75 12.036 22.1168 8.69391 18.5208 7.60889V5.80615Z" fill="white"/>
<path d="M16.8752 9.87549V11.2817C18.4005 11.5813 19.3146 12.5873 19.4739 14.1802H17.6887C17.5487 13.3314 17.1029 12.7017 15.8079 12.7017C14.7231 12.7017 14.1547 13.1562 14.1545 13.8647C14.1545 15.8423 19.7629 14.3729 19.7629 17.9517C19.7628 19.488 18.6698 20.5323 16.8752 20.7642V22.1255H15.1252V20.7456C13.2864 20.4731 12.2107 19.3808 12.0979 17.6362H13.8391C14.0316 18.59 14.5483 19.2817 16.1145 19.2817C17.3131 19.2816 18.0217 18.7911 18.0217 18.0562C18.0213 16.114 12.4045 17.4609 12.4045 13.8647C12.4047 12.4175 13.4545 11.4448 15.1252 11.2319V9.87549H16.8752Z" fill="white"/>
</svg>
