<svg preserveAspectRatio="none" width="100%" height="100%" overflow="visible" style="display: block;" viewBox="0 0 32 32" fill="none" xmlns="http://www.w3.org/2000/svg">
<g id="Rectangle [Vectorized]">
<path id="Union" d="M8.41776 19.7119C8.67404 19.7405 9.25621 19.7294 9.52909 19.7304L11.5603 19.7382C12.027 22.1958 14.0337 23.2922 16.3797 23.2666C17.3695 23.2557 18.8144 23.0062 19.5271 22.2783L19.5291 25.0654L19.5232 25.4697C18.5187 25.7458 17.8178 25.9467 16.7469 25.9873C14.4895 26.0728 12.1276 25.5485 10.4178 23.9951C9.24969 22.9339 8.47379 21.2941 8.41776 19.7119ZM12.5154 9.98433C12.1243 10.6239 11.857 11.6911 12.1844 12.3916C13.0476 14.2383 16.32 14.2753 18.0506 14.7304C19.0378 14.9901 19.8717 15.1564 20.7889 15.5771C21.9255 16.11 22.8447 16.9805 23.282 18.1611C23.6858 19.2511 23.702 20.9717 23.2088 22.0195C23.0607 22.0107 22.8872 22.0106 22.7381 22.0146C21.7641 22.0406 20.7474 21.9689 19.7791 22.0166C20.5009 21.1459 20.5515 19.5681 19.6912 18.7714C18.9535 18.0752 18.0035 17.9055 17.0555 17.6757C14.2928 17.0042 10.5252 16.9369 9.18827 13.9033C8.69136 12.7756 8.73823 11.1445 9.10721 9.98628C9.93848 10.0065 10.7823 9.97567 11.615 9.99214C11.8931 9.99765 12.2425 10.0082 12.5154 9.98433ZM15.2947 6.01948C19.0062 5.80748 22.8044 7.76184 23.1639 11.7343C22.8181 11.7356 20.1458 11.7733 19.9978 11.7226L19.9646 11.6347C19.8288 11.1544 19.6879 10.7917 19.3894 10.3867C18.7692 9.56108 17.8491 9.0126 16.8279 8.85933C15.9005 8.72287 14.4551 8.76109 13.614 9.1689C13.2871 9.32751 13.0866 9.46939 12.8006 9.68257C12.8324 8.66152 12.7993 7.50582 12.8055 6.46773C13.1356 6.40966 13.462 6.29473 13.7889 6.22359C14.2818 6.1163 14.785 6.05156 15.2879 6.02046C15.29 6.02023 15.2926 6.01971 15.2947 6.01948Z" fill="var(--fill-0, #FEFEFE)"/>
</g>
</svg>
