<svg preserveAspectRatio="none" width="100%" height="100%" overflow="visible" style="display: block;" viewBox="0 0 32 32" fill="none" xmlns="http://www.w3.org/2000/svg">
<g id="MoonPay">
<rect width="32" height="32" rx="8" fill="var(--fill-0, #7E00FE)"/>
<g id="Union">
<path d="M13.3301 12.057C16.6287 11.6908 19.596 14.0772 19.9459 17.3776C20.2959 20.678 17.8948 23.6336 14.5927 23.9672C11.3137 24.2984 8.38329 21.9178 8.03578 18.6405C7.68831 15.3631 10.0545 12.4207 13.3301 12.057Z" fill="var(--fill-0, white)"/>
<path d="M21.1449 8.03508C22.0162 7.89071 22.8979 8.22608 23.453 8.91297C24.0081 9.59988 24.1511 10.5324 23.8271 11.354C23.5031 12.1756 22.7622 12.7593 21.8877 12.8824C20.5582 13.0695 19.3253 12.1527 19.122 10.8256C18.9187 9.49854 19.8204 8.25463 21.1449 8.03508Z" fill="var(--fill-0, white)"/>
</g>
</g>
</svg>
