<svg preserveAspectRatio="none" width="100%" height="100%" overflow="visible" style="display: block;" viewBox="0 0 32 32" fill="none" xmlns="http://www.w3.org/2000/svg">
<g id="Moonshot">
<rect width="32" height="32" rx="8" fill="var(--fill-0, #1A1A1A)"/>
<g id="Subtract">
<path fill-rule="evenodd" clip-rule="evenodd" d="M24.0347 4.56063C24.3641 4.68021 25.5644 5.77927 25.8515 6.06683C27.8056 7.99221 29.145 10.4539 29.7003 13.1405C30.4632 16.7683 29.7525 20.5508 27.7252 23.6544C25.6937 26.7644 22.509 28.9393 18.8728 29.6994C17.9563 29.8927 17.0302 29.9917 16.1077 29.9993C16.1662 29.9989 16.2247 29.9982 16.283 29.997C16.1931 29.9987 16.1029 30 16.0125 30C14.3557 30 12.7662 29.7121 11.291 29.1843C11.836 29.3793 12.3967 29.5414 12.9705 29.6684C11.2843 29.2943 9.66551 28.6068 8.20372 27.6231C7.49926 27.1365 6.6533 26.4887 5.72373 25.4997C6.05534 25.8583 6.40545 26.1994 6.77255 26.5217C6.03311 25.8726 5.35426 25.1357 4.76506 24.3458C5.14399 24.5122 5.51553 24.6519 5.89126 24.7828C7.25979 25.2677 8.67998 25.5924 10.1233 25.7502C17.6133 26.5334 23.2041 22.4531 24.7198 15.114C24.9145 14.1709 25.0154 13.3033 25.1131 12.3463C25.6668 12.3682 26.2806 12.5447 26.8365 12.6014C27.1428 12.6327 27.3346 12.5423 27.1991 12.213C26.3616 10.1782 25.5123 8.14742 24.6773 6.11117C24.4645 5.59259 24.2297 5.0871 24.0347 4.56063ZM15.9749 29.9997C15.9875 29.9997 16 30 16.0125 30C16.0297 30 16.047 29.9996 16.0642 29.9996C16.0345 29.9997 16.0047 29.9997 15.9749 29.9997Z" fill="white"/>
<path d="M15.4711 2.01604C16.3405 1.96403 17.2143 2.04486 18.0731 2.1674C20.2911 2.48385 21.9354 3.2139 23.8111 4.37188C23.5216 4.71742 23.2135 5.12921 22.9317 5.48817L20.9685 8.00572C20.2915 8.87105 19.1238 10.3193 18.4568 11.2545C18.2345 11.5663 19.1534 11.643 19.3736 11.673C19.7704 11.7248 20.1663 11.7831 20.5612 11.8475C20.3452 14.0492 19.8257 16.1581 18.4351 17.9414C17.2954 19.4193 15.6952 20.4746 13.8879 20.9402C13.3811 21.0688 12.9337 21.1236 12.4178 21.1874C11.3705 21.2627 10.5174 21.2373 9.47206 21.0466C6.43894 20.463 3.75797 18.7076 2.01017 16.1609C2.0085 16.1387 2.00713 16.1164 2.006 16.0943C2.0029 16.0337 2.00132 15.9695 2.00069 15.9026C2.00155 15.7578 2.00443 15.6135 2.00965 15.4698C2.03259 14.9743 2.09354 14.4225 2.15118 14.0289C2.53533 11.2666 3.74286 8.68421 5.61636 6.61836C8.19464 3.76173 11.6504 2.21592 15.4711 2.01604Z" fill="var(--fill-0, white)"/>
</g>
</g>
</svg>
