<svg width="32" height="32" viewBox="0 0 32 32" fill="none" xmlns="http://www.w3.org/2000/svg">
<rect width="32" height="32" rx="8" fill="#231C51"/>
<path fill-rule="evenodd" clip-rule="evenodd" d="M21.7379 7.83058C21.9731 7.91598 22.8303 8.70086 23.0354 8.90621C24.4308 10.2812 25.3873 12.0392 25.7839 13.9578C26.3287 16.5485 25.8212 19.2497 24.3734 21.4661C22.9226 23.6871 20.6484 25.2402 18.0516 25.783C17.3971 25.9211 16.7357 25.9918 16.077 25.9972C16.1188 25.9969 16.1605 25.9964 16.2022 25.9956C16.1379 25.9968 16.0735 25.9977 16.009 25.9977C14.8258 25.9977 13.6907 25.7921 12.6372 25.4151C13.0264 25.5544 13.4268 25.6702 13.8366 25.7609C12.6324 25.4937 11.4764 25.0027 10.4325 24.3003C9.9294 23.9527 9.32527 23.4902 8.66143 22.7839C8.89825 23.0399 9.14827 23.2836 9.41043 23.5137C8.88237 23.0502 8.39758 22.524 7.97681 21.9598C8.24742 22.0787 8.51275 22.1784 8.78107 22.2719C9.75838 22.6182 10.7726 22.8501 11.8033 22.9628C17.1522 23.5221 21.1448 20.6082 22.2271 15.3671C22.3662 14.6936 22.4383 14.074 22.508 13.3906C22.9035 13.4062 23.3418 13.5323 23.7388 13.5728C23.9575 13.5951 24.0945 13.5306 23.9977 13.2954C23.3996 11.8423 22.7931 10.392 22.1968 8.93787C22.0448 8.56754 21.8771 8.20655 21.7379 7.83058ZM15.9822 25.9974C15.9911 25.9975 16 25.9977 16.009 25.9977C16.0213 25.9977 16.0336 25.9974 16.0459 25.9974C16.0247 25.9975 16.0034 25.9975 15.9822 25.9974Z" fill="url(#paint0_linear_73_1942)"/>
<path d="M15.6224 6.0134C16.2433 5.97626 16.8673 6.03399 17.4805 6.12149C19.0644 6.34749 20.2387 6.86884 21.5782 7.69579C21.3715 7.94255 21.1514 8.23662 20.9502 8.49297L19.5482 10.2908C19.0648 10.9088 18.2309 11.943 17.7546 12.6109C17.5958 12.8336 18.252 12.8884 18.4093 12.9098C18.6926 12.9468 18.9754 12.9884 19.2574 13.0344C19.1031 14.6067 18.7322 16.1128 17.7391 17.3863C16.9252 18.4416 15.7824 19.1953 14.4917 19.5278C14.1298 19.6196 13.8103 19.6587 13.4419 19.7043C12.694 19.7581 12.0847 19.74 11.3382 19.6038C9.17219 19.187 7.25761 17.9334 6.00945 16.1147C6.00826 16.0989 6.00728 16.083 6.00647 16.0671C6.00426 16.0239 6.00313 15.978 6.00269 15.9302C6.0033 15.8268 6.00535 15.7238 6.00908 15.6212C6.02547 15.2673 6.06899 14.8733 6.11016 14.5922C6.38449 12.6196 7.24683 10.7754 8.58475 9.30008C10.426 7.26007 12.8939 6.15615 15.6224 6.0134Z" fill="url(#paint1_linear_73_1942)"/>
<defs>
<linearGradient id="paint0_linear_73_1942" x1="16.0001" y1="6.00195" x2="16.0001" y2="25.9977" gradientUnits="userSpaceOnUse">
<stop stop-color="white"/>
<stop offset="1" stop-color="#C7C3DD"/>
</linearGradient>
<linearGradient id="paint1_linear_73_1942" x1="16.0001" y1="6.00195" x2="16.0001" y2="25.9977" gradientUnits="userSpaceOnUse">
<stop stop-color="#FD85FD"/>
<stop offset="1" stop-color="#F869F7"/>
</linearGradient>
</defs>
</svg>
