<svg preserveAspectRatio="none" width="100%" height="100%" overflow="visible" style="display: block;" viewBox="0 0 28.133 11.622" fill="none" xmlns="http://www.w3.org/2000/svg">
<g id="Frame 1000002790">
<path id="Vector" d="M26.6125 0.0686184H1.521C0.718904 0.0686184 0.0686809 0.718842 0.0686809 1.52093V10.1014C0.0686809 10.9035 0.718904 11.5537 1.521 11.5537H26.6125C27.4145 11.5537 28.0648 10.9035 28.0648 10.1014V1.52093C28.0648 0.718842 27.4145 0.0686184 26.6125 0.0686184Z" fill="var(--fill-0, #181728)"/>
<path id="Vector_2" d="M26.6122 0.25H1.52078C0.818946 0.25 0.25 0.818946 0.25 1.52078V10.1012C0.25 10.8031 0.818946 11.372 1.52078 11.372H26.6122C27.3141 11.372 27.883 10.8031 27.883 10.1012V1.52078C27.883 0.818946 27.3141 0.25 26.6122 0.25Z" stroke="url(#paint0_radial_100_2582)" stroke-opacity="0.52" stroke-width="0.5"/>
<g id="Union">
<path d="M7.24934 3.64479C7.24934 3.96243 7.36338 4.08913 7.6429 4.08913C7.92231 4.08908 8.03645 3.96237 8.03645 3.64479V2.8821H8.35384V4.97878H7.14681V4.69264H8.03645V4.18483C7.94116 4.28962 7.78559 4.37526 7.59505 4.37526C7.11227 4.37524 6.93099 4.04818 6.93099 3.64479V2.8821H7.24934V3.64479Z" fill="var(--fill-0, white)"/>
<path fill-rule="evenodd" clip-rule="evenodd" d="M10.5433 2.85085C11.0578 2.85089 11.2386 3.21012 11.2386 3.67702C11.2385 4.14371 11.0576 4.50217 10.5433 4.50221C10.321 4.50221 10.165 4.41702 10.0697 4.28053V4.97878H9.75227V2.8821H10.0697V3.0735C10.1649 2.93692 10.3209 2.85085 10.5433 2.85085ZM10.4954 3.13698C10.1842 3.13702 10.0697 3.2959 10.0697 3.67702C10.0697 4.05783 10.1844 4.21702 10.4954 4.21706C10.8066 4.21706 10.9211 4.05788 10.9212 3.67702C10.9212 3.29585 10.8067 3.13698 10.4954 3.13698Z" fill="var(--fill-0, white)"/>
<path fill-rule="evenodd" clip-rule="evenodd" d="M3.30208 2.27858C3.96255 2.27876 4.35579 2.75572 4.35579 3.39089C4.35566 4.02589 3.96244 4.50204 3.30208 4.50221C2.6415 4.50221 2.24752 4.02601 2.24739 3.39089C2.24739 2.75561 2.64139 2.27858 3.30208 2.27858ZM3.30208 2.56471C2.87644 2.56471 2.56477 2.78419 2.56477 3.39089C2.56488 3.99733 2.87652 4.21608 3.30208 4.21608C3.72428 4.21595 4.0383 3.99716 4.03841 3.39089C4.03841 2.78437 3.72436 2.56484 3.30208 2.56471Z" fill="var(--fill-0, white)"/>
<path fill-rule="evenodd" clip-rule="evenodd" d="M12.1898 2.85085C12.6724 2.85085 12.9484 3.17766 12.9486 3.67604C12.9486 4.17467 12.6725 4.50221 12.1898 4.50221C11.7071 4.50215 11.431 4.17462 11.431 3.67604C11.4311 3.17771 11.7073 2.85091 12.1898 2.85085ZM12.1898 3.13698C11.8629 3.13702 11.7484 3.26358 11.7484 3.67604C11.7484 4.08886 11.8628 4.21604 12.1898 4.21608C12.5169 4.21608 12.6312 4.08892 12.6312 3.67604C12.6311 3.26351 12.5168 3.13698 12.1898 3.13698Z" fill="var(--fill-0, white)"/>
<path d="M13.7386 2.85085C13.9513 2.85085 14.1611 2.90799 14.3167 3.01589V3.30202C14.085 3.18775 13.882 3.137 13.7074 3.13698C13.5457 3.13698 13.4917 3.20619 13.4915 3.28542C13.4915 3.3743 13.5325 3.43508 13.8021 3.50807C14.272 3.63509 14.4436 3.73361 14.4437 4.02565C14.4437 4.2956 14.2186 4.5022 13.847 4.50221C13.5994 4.50221 13.4058 4.4545 13.1741 4.29909V3.9778C13.4631 4.15875 13.612 4.21608 13.847 4.21608C14.0534 4.21607 14.1263 4.12703 14.1263 4.02858C14.1261 3.9177 14.0431 3.85764 13.7513 3.79421C13.2974 3.69575 13.1741 3.54602 13.1741 3.29518C13.1743 3.03177 13.3991 2.85098 13.7386 2.85085Z" fill="var(--fill-0, white)"/>
<path d="M15.2298 2.85085C15.4426 2.85085 15.6523 2.90791 15.8079 3.01589V3.30202C15.5763 3.18776 15.3732 3.13705 15.1986 3.13698C15.0369 3.13698 14.982 3.20619 14.9818 3.28542C14.9818 3.37432 15.0235 3.43505 15.2933 3.50807C15.7632 3.63509 15.9348 3.73361 15.9349 4.02565C15.9349 4.29554 15.7096 4.50211 15.3382 4.50221C15.0905 4.50221 14.8962 4.45471 14.6644 4.29909V3.9778C14.9534 4.15883 15.1032 4.21608 15.3382 4.21608C15.5444 4.216 15.6175 4.12699 15.6175 4.02858C15.6173 3.9177 15.5343 3.85764 15.2425 3.79421C14.7884 3.69575 14.6644 3.54607 14.6644 3.29518C14.6645 3.03171 14.8901 2.8509 15.2298 2.85085Z" fill="var(--fill-0, white)"/>
<path fill-rule="evenodd" clip-rule="evenodd" d="M17.1761 3.07253C17.2714 2.93603 17.4275 2.85085 17.6497 2.85085C18.1641 2.85085 18.3449 3.20935 18.345 3.67604C18.345 4.14297 18.1643 4.50221 17.6497 4.50221C17.4274 4.50221 17.2714 4.41614 17.1761 4.27956V4.47096H16.8587V2.24733H17.1761V3.07253ZM17.6019 3.13698C17.2909 3.13706 17.1762 3.29532 17.1761 3.67604C17.1761 4.05711 17.2908 4.216 17.6019 4.21608C17.9132 4.21608 18.0277 4.05721 18.0277 3.67604C18.0276 3.29523 17.913 3.13698 17.6019 3.13698Z" fill="var(--fill-0, white)"/>
<path fill-rule="evenodd" clip-rule="evenodd" d="M19.8265 2.85085C20.3156 2.85085 20.513 3.14616 20.513 3.64479V3.8196H19.4652C19.4874 4.0418 19.5762 4.21606 19.9476 4.21608C20.0745 4.21608 20.1984 4.2165 20.4046 4.15944V4.43874C20.1572 4.50217 20.0682 4.50221 19.9476 4.50221C19.2299 4.50219 19.1409 3.99046 19.1409 3.67604C19.1411 3.17782 19.3379 2.85105 19.8265 2.85085ZM19.8265 3.13698C19.5823 3.13716 19.4742 3.27643 19.4583 3.53346H20.1956C20.1893 3.25722 20.0837 3.13698 19.8265 3.13698Z" fill="var(--fill-0, white)"/>
<path fill-rule="evenodd" clip-rule="evenodd" d="M22.5745 2.85085C23.0571 2.85089 23.3332 3.17769 23.3333 3.67604C23.3333 4.17464 23.0572 4.50217 22.5745 4.50221C22.0918 4.50221 21.8158 4.17467 21.8158 3.67604C21.8159 3.17766 22.0919 2.85085 22.5745 2.85085ZM22.5745 3.13698C22.2475 3.13698 22.1332 3.26351 22.1331 3.67604C22.1331 4.08892 22.2474 4.21608 22.5745 4.21608C22.9016 4.21606 23.0159 4.08888 23.0159 3.67604C23.0159 3.26355 22.9015 3.137 22.5745 3.13698Z" fill="var(--fill-0, white)"/>
<path d="M5.94466 4.47096H5.6263V3.16823H4.92806V4.47096H4.61067V2.8821H5.94466V4.47096Z" fill="var(--fill-0, white)"/>
<path d="M6.61263 4.47096H6.29427V2.24733H6.61263V4.47096Z" fill="var(--fill-0, white)"/>
<path d="M16.5384 4.47096H16.221V2.8821H16.5384V4.47096Z" fill="var(--fill-0, white)"/>
<path d="M18.8841 4.47096H18.5667V2.24733H18.8841V4.47096Z" fill="var(--fill-0, white)"/>
<path d="M24.8919 4.47096H24.5745V3.16823H23.8763V4.47096H23.5579V2.8821H24.8919V4.47096Z" fill="var(--fill-0, white)"/>
<path d="M16.5384 2.56471H16.221V2.24733H16.5384V2.56471Z" fill="var(--fill-0, white)"/>
</g>
<g id="Frame 1000002791">
<path id="Vector_3" d="M6.21911 8.63759L5.5706 9.3281C5.55657 9.34307 5.53959 9.35506 5.52069 9.36323C5.5018 9.3714 5.48142 9.37567 5.46081 9.37567H2.38658C2.37192 9.37567 2.35758 9.3714 2.34531 9.36341C2.33305 9.35551 2.3234 9.34407 2.31753 9.33073C2.31167 9.31738 2.30984 9.30268 2.31229 9.28833C2.31475 9.27399 2.32135 9.26065 2.33132 9.24993L2.9791 8.55947C2.99313 8.54447 3.01012 8.5325 3.02901 8.52431C3.0479 8.51612 3.06829 8.51188 3.08889 8.51186H6.16312C6.17792 8.51155 6.19248 8.5156 6.20496 8.5235C6.21744 8.53139 6.2273 8.54277 6.23328 8.55621C6.23928 8.56965 6.24112 8.58455 6.23859 8.59903C6.23608 8.61352 6.2293 8.62694 6.21911 8.63759ZM5.5706 7.24682C5.55652 7.23189 5.53952 7.21997 5.52064 7.21178C5.50177 7.2036 5.4814 7.19932 5.46081 7.19922H2.38658C2.37192 7.19922 2.35758 7.20347 2.34531 7.21145C2.33305 7.21943 2.3234 7.23079 2.31753 7.24413C2.31167 7.25748 2.30984 7.27223 2.31229 7.28658C2.31475 7.30094 2.32135 7.31427 2.33132 7.32496L2.9791 8.0158C2.99318 8.03073 3.01019 8.04265 3.02906 8.05084C3.04794 8.05903 3.0683 8.0633 3.08889 8.06341H6.16312C6.17775 8.06333 6.19204 8.05903 6.20425 8.05102C6.21646 8.04301 6.22607 8.03165 6.23189 8.01832C6.23771 8.00499 6.23949 7.99027 6.23703 7.97595C6.23456 7.96163 6.22796 7.94833 6.21801 7.93767L5.5706 7.24682ZM2.38658 6.75076H5.46081C5.48142 6.75075 5.50181 6.74651 5.52069 6.73832C5.53959 6.73013 5.55658 6.71816 5.5706 6.70316L6.21911 6.01267C6.22672 6.00469 6.23245 5.99514 6.23591 5.98471C6.23936 5.97427 6.24045 5.96321 6.23909 5.9523C6.23774 5.9414 6.23397 5.93093 6.22807 5.92165C6.22217 5.91235 6.21427 5.90447 6.20495 5.89856C6.19247 5.89067 6.17792 5.88663 6.16312 5.88693H3.08889C3.06829 5.88696 3.0479 5.89119 3.02901 5.89939C3.01012 5.90758 2.99313 5.91954 2.9791 5.93454L2.33132 6.62502C2.32135 6.63571 2.31475 6.64903 2.31229 6.6634C2.30984 6.67775 2.31167 6.6925 2.31753 6.70584C2.3234 6.71919 2.33305 6.73055 2.34531 6.73853C2.35758 6.74651 2.37192 6.75075 2.38658 6.75076Z" fill="url(#paint1_linear_100_2582)"/>
<path id="Vector_4" d="M9.96608 7.36217H8.32155V6.8244H10.3934V6.28662H8.31606C8.24509 6.28623 8.17472 6.29972 8.109 6.32634C8.04327 6.35295 7.98347 6.39216 7.93301 6.44173C7.88255 6.4913 7.84241 6.55025 7.8149 6.61522C7.78738 6.68019 7.77303 6.74991 7.77266 6.8204V7.36544C7.77293 7.43599 7.78722 7.50579 7.81469 7.57084C7.84216 7.6359 7.88227 7.69494 7.93275 7.74459C7.98322 7.79423 8.04305 7.8335 8.10883 7.86016C8.17461 7.88682 8.24503 7.90035 8.31606 7.89996H9.96272V8.43773H7.81181V8.97551H9.96608C10.0729 8.9761 10.1777 8.9452 10.2668 8.88671C10.356 8.8282 10.4257 8.74475 10.4672 8.64688C10.4947 8.58193 10.5091 8.51221 10.5094 8.44173V7.89668C10.5092 7.82614 10.4949 7.75635 10.4674 7.6913C10.4399 7.62624 10.3998 7.5672 10.3493 7.51755C10.2988 7.46791 10.239 7.42864 10.1733 7.40198C10.1075 7.37531 10.0371 7.36178 9.96608 7.36217ZM13.1518 6.28662H11.5011C11.3941 6.28577 11.2891 6.31652 11.1996 6.37497C11.1102 6.43342 11.0403 6.51693 10.9987 6.61491C10.9711 6.67997 10.9567 6.7498 10.9563 6.8204V8.44173C10.9567 8.51233 10.9711 8.58217 10.9987 8.64725C11.0403 8.74524 11.1102 8.82875 11.1996 8.8872C11.2891 8.94564 11.3941 8.97638 11.5011 8.97551H13.1518C13.2228 8.9759 13.2932 8.96241 13.3589 8.93579C13.4247 8.90918 13.4844 8.86997 13.5349 8.8204C13.5853 8.77083 13.6255 8.71187 13.6531 8.6469C13.6806 8.58193 13.6949 8.51222 13.6953 8.44173V6.8204C13.6949 6.74992 13.6806 6.6802 13.653 6.61524C13.6255 6.55027 13.5853 6.49132 13.5349 6.44177C13.4844 6.39219 13.4246 6.35296 13.3589 6.32634C13.2932 6.29971 13.2228 6.28622 13.1518 6.28662ZM13.1478 8.43773H11.5052V6.8244H13.1471L13.1478 8.43773ZM18.9336 6.28662H17.3234C17.2524 6.28623 17.1821 6.29972 17.1164 6.32634C17.0507 6.35295 16.9908 6.39216 16.9404 6.44173C16.8899 6.4913 16.8498 6.55025 16.8223 6.61522C16.7948 6.68019 16.7804 6.74991 16.7801 6.8204V8.97551H17.329V8.09217H18.9318V8.97551H19.4807V6.8204C19.4803 6.74961 19.4658 6.67959 19.4381 6.61437C19.4103 6.54915 19.3698 6.49003 19.319 6.44041C19.2682 6.39079 19.2079 6.35166 19.1417 6.32527C19.0756 6.29887 19.0048 6.28574 18.9336 6.28662ZM18.9295 7.5544H17.3268V6.8244H18.9295V7.5544ZM25.3428 6.28662H23.7328C23.6618 6.28623 23.5914 6.29972 23.5257 6.32634C23.46 6.35295 23.4002 6.39216 23.3497 6.44173C23.2992 6.4913 23.2591 6.55025 23.2316 6.61522C23.204 6.68019 23.1897 6.74991 23.1893 6.8204V8.97551H23.7382V8.09217H25.3374V8.97551H25.8863V6.8204C25.8859 6.74992 25.8716 6.6802 25.844 6.61524C25.8165 6.55027 25.7763 6.49132 25.7259 6.44177C25.6239 6.34167 25.4862 6.28585 25.3428 6.28662ZM25.3374 7.5544H23.7346V6.8244H25.3374V7.5544ZM22.1537 8.43773H21.9342L21.1493 6.5119C21.1224 6.44545 21.0761 6.38851 21.0164 6.34836C20.9567 6.30822 20.8862 6.28672 20.8141 6.28662H20.327C20.2557 6.28624 20.1859 6.30687 20.1265 6.34591C20.0669 6.38494 20.0205 6.44063 19.9929 6.50591C19.9745 6.54923 19.965 6.59572 19.9647 6.64271V8.97551H20.5136V6.8244H20.7332L21.5178 8.75022C21.5451 8.81656 21.5918 8.87328 21.6517 8.91316C21.7117 8.95302 21.7822 8.97423 21.8545 8.97406H22.3414C22.3888 8.97432 22.4358 8.96529 22.4796 8.94753C22.5234 8.92976 22.5633 8.90358 22.5969 8.8705C22.6649 8.80371 22.7032 8.71288 22.7037 8.61796V6.28662H22.1537V8.43773ZM14.729 6.28662H14.1802V8.44173C14.1805 8.51236 14.1949 8.58223 14.2225 8.64732C14.2501 8.7124 14.2904 8.77143 14.3411 8.82101C14.3917 8.87059 14.4518 8.90977 14.5177 8.93628C14.5836 8.9628 14.6542 8.97612 14.7253 8.97551H16.3721V8.43773H14.729V6.28662Z" fill="var(--fill-0, white)"/>
</g>
</g>
<defs>
<radialGradient id="paint0_radial_100_2582" cx="0" cy="0" r="1" gradientUnits="userSpaceOnUse" gradientTransform="translate(18.6119 -0.730176) rotate(144.237) scale(21.0183 47.6542)">
<stop stop-color="#9945FF"/>
<stop offset="0.245" stop-color="#8752F3"/>
<stop offset="0.385" stop-color="#5497D5"/>
<stop offset="0.54" stop-color="#4CA6D0"/>
<stop offset="0.735" stop-color="#28E0B9"/>
<stop offset="1" stop-color="#19FB9B"/>
</radialGradient>
<linearGradient id="paint1_linear_100_2582" x1="2.64277" y1="9.45891" x2="5.84093" y2="5.82788" gradientUnits="userSpaceOnUse">
<stop offset="0.08" stop-color="#9945FF"/>
<stop offset="0.3" stop-color="#8752F3"/>
<stop offset="0.5" stop-color="#5497D5"/>
<stop offset="0.6" stop-color="#43B4CA"/>
<stop offset="0.72" stop-color="#28E0B9"/>
<stop offset="0.97" stop-color="#19FB9B"/>
</linearGradient>
</defs>
</svg>
