<svg width="32" height="32" viewBox="0 0 32 32" fill="none" xmlns="http://www.w3.org/2000/svg">
<rect width="32" height="32" rx="8" fill="#3F3ECA"/>
<path d="M14.4912 8.27881V16.145H10.8492C13.0612 16.704 14.4911 18.1566 14.4912 20.2347C14.4912 21.9331 14.0219 23.7209 9.9995 23.7209H5.99951V15.8555H10.1561C7.96596 15.5201 5.99951 14.5138 5.99951 11.765C5.99958 10.0667 6.46911 8.27881 10.4912 8.27881H14.4912Z" fill="#FFB443"/>
<path d="M21.7768 10.6478H26.0002V12.2796C26.0002 14.4918 24.212 16.2796 21.9995 16.2796H21.7768V23.6761H21.0616C16.7039 23.6761 15.8327 20.6373 15.8327 17.9334L15.765 8.27881H21.7768V10.6478Z" fill="#FFB443"/>
</svg>
