<svg width="32" height="32" viewBox="0 0 32 32" fill="none" xmlns="http://www.w3.org/2000/svg">
<path fill-rule="evenodd" clip-rule="evenodd" d="M24.0347 4.56062C24.3641 4.6802 25.5644 5.77927 25.8516 6.06683C27.8056 7.99221 29.145 10.4539 29.7003 13.1405C30.4633 16.7683 29.7526 20.5508 27.7253 23.6544C25.6937 26.7644 22.5091 28.9393 18.8728 29.6994C17.9564 29.8927 17.0302 29.9917 16.1077 29.9993C16.1663 29.9989 16.2247 29.9981 16.2831 29.997C16.1931 29.9987 16.1029 30 16.0125 30C14.3558 30 12.7663 29.7121 11.291 29.1843C11.836 29.3793 12.3967 29.5414 12.9706 29.6684C11.2843 29.2943 9.66555 28.6068 8.20376 27.6231C7.4993 27.1365 6.65334 26.4887 5.72377 25.4997C6.05538 25.8583 6.40549 26.1994 6.77259 26.5217C6.03315 25.8726 5.3543 25.1357 4.7651 24.3458C5.14402 24.5122 5.51557 24.6519 5.8913 24.7828C7.25983 25.2677 8.68002 25.5924 10.1234 25.7502C17.6133 26.5334 23.2042 22.4531 24.7198 15.114C24.9145 14.1709 25.0154 13.3033 25.1131 12.3463C25.6668 12.3682 26.2806 12.5447 26.8366 12.6014C27.1428 12.6327 27.3347 12.5423 27.1991 12.213C26.3616 10.1782 25.5123 8.14742 24.6773 6.11116C24.4645 5.59259 24.2297 5.0871 24.0347 4.56062ZM15.975 29.9997C15.9875 29.9997 16 30 16.0125 30C16.0298 30 16.047 29.9996 16.0643 29.9996C16.0345 29.9997 16.0047 29.9997 15.975 29.9997Z" fill="white"/>
<path d="M15.4712 2.01604C16.3406 1.96403 17.2144 2.04486 18.0731 2.16739C20.2911 2.48385 21.9354 3.2139 23.8111 4.37188C23.5216 4.71742 23.2135 5.1292 22.9318 5.48817L20.9685 8.00572C20.2915 8.87105 19.1239 10.3193 18.4569 11.2545C18.2345 11.5663 19.1534 11.643 19.3736 11.673C19.7704 11.7248 20.1664 11.7831 20.5612 11.8475C20.3452 14.0492 19.8258 16.1581 18.4352 17.9414C17.2955 19.4193 15.6952 20.4746 13.8879 20.9402C13.3811 21.0688 12.9337 21.1236 12.4178 21.1874C11.3705 21.2627 10.5174 21.2373 9.4721 21.0466C6.43898 20.463 3.758 18.7076 2.01021 16.1609C2.00854 16.1387 2.00717 16.1164 2.00604 16.0943C2.00294 16.0337 2.00136 15.9695 2.00073 15.9026C2.00159 15.7578 2.00447 15.6135 2.00969 15.4698C2.03263 14.9743 2.09358 14.4225 2.15122 14.0289C2.53537 11.2666 3.7429 8.6842 5.6164 6.61836C8.19468 3.76173 11.6504 2.21592 15.4712 2.01604Z" fill="white"/>
</svg>
