<svg preserveAspectRatio="none" width="100%" height="100%" overflow="visible" style="display: block;" viewBox="0 0 27.9906 26.2412" fill="none" xmlns="http://www.w3.org/2000/svg">
<g id="Claynosaurz Symbol 1" clip-path="url(#clip0_0_4)">
<g id="Union">
<path d="M4.66321 8.66406C5.09922 8.33377 5.60672 8.26751 5.79309 8.51757C5.98145 8.76751 5.66937 9.01723 5.23352 9.34765C4.79735 9.6783 4.40076 9.96771 4.21204 9.71777C4.02367 9.46763 4.22723 8.99466 4.66321 8.66406Z" fill="var(--fill-0, white)"/>
<path d="M23.5782 20.4209C23.7737 20.421 23.9316 20.6261 23.9318 20.8789C23.9318 21.1321 23.7738 21.3368 23.5782 21.3369C23.3829 21.3367 23.2238 21.132 23.2238 20.8789C23.2239 20.6262 23.383 20.4211 23.5782 20.4209Z" fill="var(--fill-0, white)"/>
<path d="M22.1661 18.581C22.5027 18.5813 22.7755 18.8569 22.7755 19.1973C22.7754 19.5375 22.5026 19.8132 22.1661 19.8135C21.8297 19.8132 21.5559 19.5375 21.5558 19.1973C21.5558 18.8569 21.8296 18.5813 22.1661 18.581Z" fill="var(--fill-0, white)"/>
<path fill-rule="evenodd" clip-rule="evenodd" d="M8.49817 5.24706C9.9172 5.18811 11.2567 5.48063 12.7667 5.95116C13.0196 6.03473 13.2679 6.1881 13.4523 6.38769C13.733 6.17161 14.0821 6.04074 14.4591 6.0371C14.5582 6.0362 24.2761 5.94812 24.3741 5.94726C24.8357 5.94733 25.2845 6.14282 25.6027 6.48339C26.1294 7.1164 26.646 7.75978 27.1691 8.3955C27.2733 8.52249 27.3764 8.65036 27.4806 8.77734C27.73 9.10247 27.8615 9.51371 27.8419 9.9287L27.6993 12.9238C27.671 13.526 27.4438 14.1116 27.0597 14.5703L25.2491 16.7305C25.5689 16.8731 25.8055 17.1448 26.0167 17.4209C26.1592 17.5951 26.302 17.7702 26.4445 17.9443C26.8427 18.431 27.2394 18.9186 27.6378 19.4053C27.8879 19.7375 28.0147 20.155 27.9865 20.5752L27.7609 23.8867C27.7004 24.7833 26.9628 25.4897 26.0822 25.4961H16.1163C15.7116 25.4961 15.3394 25.349 15.047 25.1064C14.2172 25.9295 11.6417 26.2285 10.5831 26.2412C7.5941 26.2129 4.98442 24.7791 3.3468 22.4961C2.75231 21.7431 2.10183 21.0406 1.56262 20.2422C-2.16547 14.3114 1.02581 5.41621 8.49817 5.24706ZM8.62805 6.42577C8.59781 6.42577 8.5665 6.42779 8.53625 6.4287C6.12778 6.50872 4.22102 7.56197 2.95422 9.19335C2.94298 9.2066 2.93159 9.22109 2.922 9.23437C1.96484 10.4833 1.37901 12.0656 1.22375 13.8076C1.21665 13.8918 1.20859 13.9763 1.20325 14.0596C1.19792 14.1383 1.19313 14.2181 1.18958 14.2959C1.18602 14.3766 1.18452 14.4574 1.18274 14.5381C1.16583 15.2847 1.22814 16.0077 1.36536 16.6953C1.37422 16.7387 1.38189 16.7827 1.39075 16.8252C1.40408 16.8877 1.41861 16.9511 1.43372 17.0127C1.65562 17.9526 2.02213 18.8202 2.52551 19.584C3.71389 21.3938 5.66349 22.6263 8.25598 22.8662C9.51737 22.9833 11.1083 22.6601 12.2306 22.2559C12.4439 22.1784 12.586 21.9705 12.5851 21.7393L12.5714 18.543C12.5713 18.406 12.5229 18.2829 12.4454 18.1894C12.4411 18.185 12.435 18.1801 12.4298 18.1748C12.372 18.1096 12.2978 18.0603 12.2169 18.0312C12.2055 18.0267 12.1933 18.0222 12.1818 18.0185C12.1794 18.017 12.1761 18.0166 12.173 18.0166C12.1625 18.0131 12.1512 18.0096 12.1407 18.0078C12.1239 18.0042 12.1049 18.0018 12.088 18C12.0392 17.9955 11.9892 17.9978 11.9396 18.0068C11.9031 18.0141 11.8647 18.0256 11.8282 18.041C11.5397 18.1635 11.1795 18.2941 10.7736 18.3994C10.7659 18.4011 10.7578 18.4037 10.7501 18.4062C10.1646 18.5543 9.48131 18.6473 8.77454 18.582C8.59464 18.5657 8.41837 18.5345 8.24915 18.4883C7.93539 18.4047 7.64042 18.2722 7.37122 18.0996C6.2312 17.3709 5.53896 15.9131 5.68958 14.2207C5.87074 12.1877 7.24314 10.621 9.46887 10.7734C10.2525 10.8271 11.23 11.1147 11.8878 11.3545C12.2244 11.4762 12.5801 11.232 12.6007 10.8691L12.7794 7.62597C12.7864 7.49814 12.7482 7.37429 12.6788 7.27636C12.6772 7.27468 12.6749 7.27245 12.6749 7.27245C12.6491 7.23707 12.619 7.20495 12.5861 7.17773C12.5764 7.16797 12.5663 7.15945 12.5558 7.15234C12.5344 7.13599 12.5115 7.12109 12.4874 7.10839C12.4626 7.09578 12.4358 7.08421 12.4083 7.07519C11.5954 6.80539 10.3916 6.52659 9.71497 6.46386C9.3427 6.42938 8.97985 6.41765 8.62805 6.42577ZM14.4689 7.21874C14.184 7.2218 13.9513 7.45178 13.9386 7.7412L13.7911 11.1113C13.7772 11.4399 14.0497 11.7088 14.3722 11.6807L18.9874 11.2783C19.1921 11.2614 19.3115 11.5097 19.174 11.6641L14.1857 17.2393C13.9275 17.528 13.7856 17.9056 13.7882 18.2969L13.8058 21.6025C13.8076 21.9042 14.0499 22.1473 14.3458 22.1455H24.2999C24.5795 22.1434 24.8115 21.9216 24.8312 21.6367L25.0558 18.3262C25.0777 17.9952 24.8083 17.721 24.4845 17.7432L19.504 18.083C19.3049 18.096 19.188 17.8593 19.3175 17.7041L24.4034 11.6338C24.6225 11.3713 24.7508 11.0414 24.7667 10.6973L24.9093 7.70116C24.924 7.38723 24.6774 7.1244 24.3693 7.12695L14.4689 7.21874ZM11.1652 14.1221C9.19547 13.9042 8.61228 15.8816 8.61829 16.4971L8.61633 16.4951C8.5905 16.7956 8.59963 17.0883 8.63879 17.3652C9.26062 17.4831 9.85583 17.407 10.4982 17.25C11.3652 17.0201 12.0191 16.5138 12.9083 17.0654C13.1106 16.558 14.6239 15.0382 14.9786 14.5986C14.9183 14.5452 14.8604 14.487 14.8107 14.4228C14.3872 14.7372 13.7761 14.8283 13.2706 14.6357C12.6654 14.415 11.7952 14.1648 11.1652 14.1221Z" fill="var(--fill-0, white)"/>
<path d="M15.1154 1.43261C16.0175 0.0162143 18.5299 0.972899 19.4142 2.4414C19.8586 3.17883 19.9977 3.91711 20.0031 4.4873L19.9982 4.7207C19.9929 4.8133 19.9659 5.02954 19.8566 5.06347C19.7915 5.084 19.7017 5.07296 19.5997 4.88573C19.1377 4.03978 17.9367 3.59812 17.2863 3.37109C16.5796 3.1241 15.9019 2.93791 15.4171 2.69726C14.9913 2.48652 14.7388 2.02453 15.1154 1.43261Z" fill="var(--fill-0, white)"/>
<path d="M8.45129 1.22851C9.83741 -0.257946 12.7059 -0.596705 13.297 1.34472C13.5438 2.15638 12.9972 2.53559 12.4591 2.62304C11.846 2.72204 11.1432 2.54289 10.2931 2.65722C9.46014 2.76987 8.81731 3.01782 7.74036 4.0371C7.56258 4.2056 7.39976 4.23725 7.30872 4.18066C7.14658 4.07897 7.21458 3.73621 7.24133 3.58984C7.39472 2.74704 7.81768 1.90783 8.45129 1.22851Z" fill="var(--fill-0, white)"/>
</g>
</g>
<defs>
<clipPath id="clip0_0_4">
<rect width="27.9906" height="26.2412" fill="white"/>
</clipPath>
</defs>
</svg>
