<svg width="32" height="32" viewBox="0 0 32 32" fill="none" xmlns="http://www.w3.org/2000/svg">
<path d="M6.66847 11.5436C7.10449 11.2134 7.61198 11.1471 7.79835 11.3972C7.98672 11.6471 7.67463 11.8968 7.23878 12.2272C6.80261 12.5579 6.40603 12.8473 6.2173 12.5974C6.02893 12.3472 6.23249 11.8742 6.66847 11.5436Z" fill="white"/>
<path d="M25.5835 23.3005C25.779 23.3006 25.9369 23.5057 25.937 23.7585C25.937 24.0117 25.7791 24.2164 25.5835 24.2165C25.3882 24.2163 25.229 24.0116 25.229 23.7585C25.2292 23.5057 25.3883 23.3007 25.5835 23.3005Z" fill="white"/>
<path d="M24.1714 21.4606C24.5079 21.4609 24.7808 21.7365 24.7808 22.0768C24.7807 22.4171 24.5079 22.6928 24.1714 22.6931C23.8349 22.6928 23.5611 22.4171 23.5611 22.0768C23.5611 21.7365 23.8349 21.4609 24.1714 21.4606Z" fill="white"/>
<path fill-rule="evenodd" clip-rule="evenodd" d="M10.5034 8.12665C11.9225 8.0677 13.262 8.36021 14.772 8.83075C15.0249 8.91432 15.2731 9.06769 15.4575 9.26727C15.7383 9.0512 16.0874 8.92032 16.4644 8.91669C16.5635 8.91578 26.2813 8.82771 26.3794 8.82684C26.8409 8.82691 27.2898 9.0224 27.6079 9.36298C28.1347 9.99598 28.6513 10.6394 29.1743 11.2751C29.2785 11.4021 29.3816 11.5299 29.4859 11.6569C29.7353 11.9821 29.8667 12.3933 29.8472 12.8083L29.7046 15.8034C29.6762 16.4056 29.4491 16.9912 29.065 17.4499L27.2544 19.61C27.5742 19.7527 27.8108 20.0244 28.022 20.3005C28.1644 20.4746 28.3073 20.6497 28.4497 20.8239C28.8479 21.3106 29.2447 21.7982 29.6431 22.2849C29.8932 22.6171 30.02 23.0346 29.9917 23.4548L29.7661 26.7663C29.7057 27.6629 28.968 28.3693 28.0874 28.3757H18.1216C17.7168 28.3757 17.3447 28.2286 17.0523 27.986C16.2224 28.8091 13.647 29.1081 12.5884 29.1208C9.59937 29.0925 6.98968 27.6587 5.35207 25.3757C4.75758 24.6227 4.10709 23.9202 3.56789 23.1218C-0.160204 17.191 3.03107 8.2958 10.5034 8.12665ZM10.6333 9.30536C10.6031 9.30536 10.5718 9.30737 10.5415 9.30829C8.13304 9.38831 6.22628 10.4416 4.95949 12.0729C4.94824 12.0862 4.93685 12.1007 4.92726 12.114C3.9701 13.3629 3.38427 14.9452 3.22902 16.6872C3.22192 16.7713 3.21385 16.8559 3.20851 16.9391C3.20319 17.0179 3.19839 17.0977 3.19484 17.1755C3.19128 17.2562 3.18978 17.337 3.188 17.4177C3.17109 18.1642 3.2334 18.8873 3.37062 19.5749C3.37949 19.6183 3.38715 19.6623 3.39601 19.7048C3.40935 19.7673 3.42387 19.8307 3.43898 19.8923C3.66088 20.8322 4.0274 21.6998 4.53078 22.4636C5.71915 24.2734 7.66876 25.5059 10.2612 25.7458C11.5226 25.8629 13.1136 25.5397 14.2359 25.1354C14.4492 25.058 14.5912 24.8501 14.5903 24.6188L14.5767 21.4225C14.5766 21.2855 14.5282 21.1625 14.4507 21.069C14.4463 21.0646 14.4403 21.0597 14.4351 21.0544C14.3772 20.9892 14.303 20.9399 14.2222 20.9108C14.2107 20.9063 14.1985 20.9017 14.187 20.8981C14.1847 20.8966 14.1814 20.8962 14.1782 20.8962C14.1678 20.8926 14.1565 20.8892 14.146 20.8874C14.1292 20.8838 14.1101 20.8814 14.0933 20.8796C14.0445 20.8751 13.9945 20.8774 13.9448 20.8864C13.9084 20.8937 13.87 20.9052 13.8335 20.9206C13.5449 21.0431 13.1847 21.1737 12.7788 21.279C12.7711 21.2807 12.7631 21.2833 12.7554 21.2858C12.1698 21.4339 11.4866 21.5269 10.7798 21.4616C10.5999 21.4452 10.4236 21.4141 10.2544 21.3679C9.94065 21.2843 9.64568 21.1518 9.37648 20.9792C8.23647 20.2505 7.54422 18.7927 7.69484 17.1003C7.876 15.0673 9.24841 13.5005 11.4741 13.653C12.2577 13.7067 13.2352 13.9943 13.8931 14.2341C14.2297 14.3558 14.5853 14.1116 14.606 13.7487L14.7847 10.5056C14.7916 10.3777 14.7535 10.2539 14.6841 10.1559C14.6825 10.1543 14.6802 10.152 14.6802 10.152C14.6544 10.1167 14.6243 10.0845 14.5913 10.0573C14.5817 10.0476 14.5715 10.039 14.561 10.0319C14.5397 10.0156 14.5167 10.0007 14.4927 9.98798C14.4679 9.97537 14.441 9.9638 14.4136 9.95477C13.6006 9.68498 12.3969 9.40617 11.7202 9.34344C11.348 9.30897 10.9851 9.29723 10.6333 9.30536ZM16.4741 10.0983C16.1893 10.1014 15.9565 10.3314 15.9439 10.6208L15.7964 13.9909C15.7825 14.3195 16.0549 14.5884 16.3775 14.5602L20.9927 14.1579C21.1974 14.1409 21.3168 14.3893 21.1792 14.5436L16.1909 20.1188C15.9327 20.4076 15.7909 20.7852 15.7935 21.1765L15.811 24.4821C15.8129 24.7838 16.0551 25.0268 16.3511 25.0251H26.3052C26.5848 25.023 26.8168 24.8012 26.8364 24.5163L27.0611 21.2057C27.0829 20.8748 26.8135 20.6006 26.4898 20.6227L21.5093 20.9626C21.3101 20.9756 21.1933 20.7389 21.3228 20.5837L26.4087 14.5134C26.6278 14.2509 26.756 13.921 26.772 13.5768L26.9146 10.5807C26.9293 10.2668 26.6826 10.004 26.3745 10.0065L16.4741 10.0983ZM13.1704 17.0016C11.2007 16.7838 10.6175 18.7612 10.6235 19.3766L10.6216 19.3747C10.5958 19.6752 10.6049 19.9679 10.6441 20.2448C11.2659 20.3627 11.8611 20.2866 12.5034 20.1296C13.3704 19.8997 14.0244 19.3934 14.9136 19.945C15.1159 19.4375 16.6292 17.9178 16.9839 17.4782C16.9235 17.4248 16.8657 17.3666 16.8159 17.3024C16.3925 17.6168 15.7814 17.7079 15.2759 17.5153C14.6707 17.2946 13.8005 17.0444 13.1704 17.0016Z" fill="white"/>
<path d="M17.1206 4.31219C18.0228 2.8958 20.5351 3.85248 21.4194 5.32098C21.8638 6.05842 22.003 6.7967 22.0083 7.36688L22.0034 7.60028C21.9982 7.69288 21.9711 7.90913 21.8618 7.94305C21.7968 7.96359 21.707 7.95254 21.605 7.76532C21.143 6.91937 19.942 6.47771 19.2915 6.25067C18.5848 6.00368 17.9072 5.8175 17.4224 5.57684C16.9966 5.3661 16.7441 4.90411 17.1206 4.31219Z" fill="white"/>
<path d="M10.4566 4.10809C11.8427 2.62164 14.7111 2.28288 15.3023 4.2243C15.549 5.03596 15.0025 5.41518 14.4644 5.50262C13.8512 5.60162 13.1485 5.42247 12.2984 5.5368C11.4654 5.64945 10.8226 5.8974 9.74562 6.91669C9.56785 7.08518 9.40503 7.11684 9.31398 7.06024C9.15185 6.95856 9.21984 6.61579 9.2466 6.46942C9.39998 5.62662 9.82295 4.78742 10.4566 4.10809Z" fill="white"/>
</svg>
