<svg preserveAspectRatio="none" width="100%" height="100%" overflow="visible" style="display: block;" viewBox="0 0 22.4234 22.4234" fill="none" xmlns="http://www.w3.org/2000/svg">
<g id="Group">
<path id="Vector" d="M0.508085 0.000616137C0.219186 0.0278435 -0.00119493 0.271016 5.63003e-05 0.561186V4.48517C-0.00280284 4.68734 0.103414 4.87537 0.278035 4.97729C0.452655 5.07921 0.668627 5.07921 0.843248 4.97729C1.01787 4.87537 1.12409 4.68734 1.12122 4.48517V1.91006L4.33582 5.12457C4.5863 4.84572 4.85388 4.58657 5.1329 4.33627L1.9183 1.12175H4.48472C4.68689 1.12462 4.87494 1.0184 4.97685 0.843786C5.07877 0.669165 5.07877 0.453203 4.97685 0.278588C4.87494 0.103972 4.68689 -0.00224293 4.48472 0.000616137H0.56064C0.543131 -0.000205379 0.525594 -0.000205379 0.508085 0.000616137ZM5.1329 4.33627L10.4847 9.68793C10.7001 9.89276 10.7025 10.2825 10.4935 10.4938C10.2845 10.7051 9.90358 10.6981 9.69639 10.485L4.33582 5.12457C2.68629 6.96093 1.68181 9.39009 1.68181 12.0528C1.68181 17.7803 6.32497 22.4234 12.0526 22.4234C17.7802 22.4234 22.4234 17.7803 22.4234 12.0528C22.4234 6.32537 17.7802 1.68233 12.0526 1.68233C9.39214 1.68233 6.96874 2.68935 5.1329 4.33627Z" fill="var(--fill-0, white)"/>
</g>
</svg>
