<svg width="32" height="32" viewBox="0 0 32 32" fill="none" xmlns="http://www.w3.org/2000/svg">
<path d="M5.29642 4.7887C5.00752 4.81593 4.78714 5.0591 4.78839 5.34927V9.27326C4.78553 9.47542 4.89174 9.66346 5.06636 9.76538C5.24098 9.86729 5.45696 9.86729 5.63158 9.76538C5.8062 9.66346 5.91242 9.47542 5.90955 9.27326V6.69814L9.12415 9.91266C9.37463 9.63381 9.64221 9.37466 9.92123 9.12436L6.70663 5.90984H9.27306C9.47522 5.9127 9.66327 5.80649 9.76518 5.63187C9.8671 5.45725 9.8671 5.24129 9.76518 5.06667C9.66327 4.89206 9.47522 4.78584 9.27306 4.7887H5.34897C5.33146 4.78788 5.31392 4.78788 5.29642 4.7887ZM9.92123 9.12436L15.2731 14.476C15.4884 14.6808 15.4908 15.0706 15.2818 15.2819C15.0728 15.4931 14.6919 15.4862 14.4847 15.2731L9.12415 9.91266C7.47462 11.749 6.47014 14.1782 6.47014 16.8409C6.47014 22.5684 11.1133 27.2115 16.8409 27.2115C22.5685 27.2115 27.2117 22.5684 27.2117 16.8409C27.2117 11.1135 22.5685 6.47041 16.8409 6.47041C14.1805 6.47041 11.7571 7.47744 9.92123 9.12436Z" fill="white"/>
</svg>
