<svg width="32" height="32" viewBox="0 0 32 32" fill="none" xmlns="http://www.w3.org/2000/svg">
<rect width="32" height="32" rx="8" fill="#181C1B"/>
<path d="M8.00391 7.99902H13.3288C13.507 8.16738 13.6857 8.34988 13.8582 8.5254C14.5655 9.24528 15.2971 9.94647 16.0016 10.6686C16.1444 10.5029 16.3825 10.2803 16.5415 10.1209L17.5861 9.07646L18.3015 8.36147C18.3849 8.27781 18.5929 8.05944 18.671 7.99902H23.9961V13.3343L22.2265 15.1051C21.9423 15.3897 21.6199 15.7284 21.3286 16.0003C21.5611 16.2204 21.8 16.4677 22.0282 16.6957L23.2407 17.9069L23.7415 18.4079C23.8111 18.4773 23.9259 18.5998 23.9961 18.6591V23.9974C23.9961 23.9974 23.4251 23.9974 23.2106 23.9974H21.8133L19.705 23.9975C19.3693 23.9975 19.002 24.0056 18.6689 23.9979C18.605 23.9461 18.4307 23.7622 18.3655 23.6968L17.7312 23.0616L16.6144 21.9443C16.4145 21.7443 16.1934 21.531 16.0004 21.3268C15.8563 21.4847 15.65 21.68 15.4957 21.8344L14.5227 22.8082L13.7443 23.5884C13.6263 23.7067 13.4485 23.8958 13.3293 24C12.8685 23.9916 12.3919 23.9975 11.9302 23.9975L9.39364 23.9976L8.47451 23.9979C8.36203 23.9983 8.00391 23.9979 8.00391 23.9979V18.6659C8.08099 18.57 8.26072 18.401 8.35446 18.3073L9.03914 17.6234L10.0772 16.5855C10.2613 16.4014 10.4767 16.1752 10.667 16.0023C10.5802 15.9037 10.4506 15.7817 10.3548 15.6857L9.76879 15.0992L8.00391 13.3344V7.99902Z" fill="url(#paint0_linear_44_283)"/>
<defs>
<linearGradient id="paint0_linear_44_283" x1="23.9961" y1="7.99902" x2="8.0039" y2="24.0012" gradientUnits="userSpaceOnUse">
<stop stop-color="#5FCEF0"/>
<stop offset="1" stop-color="#1FD59A"/>
</linearGradient>
</defs>
</svg>
