<svg preserveAspectRatio="none" width="100%" height="100%" overflow="visible" style="display: block;" viewBox="0 0 32 32" fill="none" xmlns="http://www.w3.org/2000/svg">
<g id="Dflow">
<rect width="32" height="32" rx="8" fill="var(--fill-0, #1A1A1A)"/>
<path id="Union" d="M11.3803 16.7906C11.6281 16.7906 11.8667 16.8833 12.0502 17.0494L12.0863 17.0835L14.9135 19.9097C15.091 20.0872 15.196 20.3243 15.2084 20.5747L15.2094 20.6246V25.0347C15.2093 25.6321 14.6944 26.1024 14.1137 25.98C10.0662 25.1241 6.87847 21.9394 6.02089 17.8951C5.89892 17.3194 6.35035 16.8074 6.93105 16.7915L6.95839 16.7906H11.3803ZM25.0697 16.7915C25.6504 16.8076 26.1008 17.3195 25.9789 17.8951C25.1213 21.9393 21.9345 25.124 17.8871 25.98C17.3061 26.1028 16.7905 25.6324 16.7904 25.0347V20.6246L16.7924 20.5747C16.8048 20.3243 16.9087 20.0862 17.0863 19.9087L19.9144 17.0835L19.9496 17.0494C20.121 16.8943 20.3406 16.804 20.5707 16.7925L20.6195 16.7906H25.0414L25.0697 16.7915ZM7.67616 18.3042C8.54361 21.1782 10.8189 23.452 13.7064 24.3169V21.2525C13.7064 20.9853 13.6005 20.7285 13.4115 20.5396L11.4691 18.5982C11.2803 18.4095 11.0241 18.3043 10.7572 18.3042H7.67616ZM21.2435 18.3042C20.9766 18.3042 20.7205 18.4097 20.5316 18.5982L18.5893 20.5396C18.4002 20.7285 18.2934 20.9853 18.2934 21.2525V24.3169C21.1809 23.452 23.4562 21.178 24.3236 18.3042H21.2435ZM14.1137 6.02104C14.6945 5.89846 15.2094 6.36886 15.2094 6.96635V11.3755L15.2084 11.4253C15.196 11.6758 15.0911 11.9138 14.9135 12.0914L12.0863 14.9165L12.0502 14.9507C11.8667 15.1169 11.6282 15.2095 11.3803 15.2095H6.93105C6.35031 15.1936 5.89882 14.6807 6.02089 14.105C6.87855 10.0608 10.0663 6.87684 14.1137 6.02104ZM16.7904 6.96635C16.7905 6.36867 17.3056 5.89755 17.8861 6.02006C21.9323 6.87395 25.1193 10.0587 25.9789 14.104C26.1032 14.6892 25.6362 15.2093 25.0424 15.2095H20.6185C20.3543 15.2095 20.1 15.1042 19.9125 14.9165L17.0863 12.0894C16.9091 11.9119 16.8049 11.6746 16.7924 11.4244L16.7904 11.3736V6.96635ZM13.7064 7.68412C10.8188 8.54905 8.54353 10.8228 7.67616 13.6968H10.7572C11.0241 13.6967 11.2803 13.5906 11.4691 13.4019L13.4115 11.4605C13.6004 11.2717 13.7063 11.0156 13.7064 10.7486V7.68412ZM18.2934 10.7466C18.2934 11.0135 18.3987 11.2697 18.5873 11.4585L20.5297 13.4009C20.7187 13.5897 20.9745 13.6958 21.2416 13.6958H24.3236C23.4549 10.8214 21.1802 8.54767 18.2934 7.68412V10.7466Z" fill="var(--fill-0, #90D2F2)"/>
</g>
</svg>
