<svg preserveAspectRatio="none" width="100%" height="100%" overflow="visible" style="display: block;" viewBox="0 0 32 32" fill="none" xmlns="http://www.w3.org/2000/svg">
<g id="Dflow">
<rect width="32" height="32" rx="8" fill="var(--fill-0, #1A1A1A)"/>
<path id="Union" d="M25.0693 16.7916C25.65 16.8075 26.1013 17.3194 25.9794 17.8951C25.1218 21.9393 21.9341 25.124 17.8866 25.9801C17.3059 26.1025 16.791 25.6323 16.7909 25.0347V20.6246L16.7919 20.5748C16.8043 20.3243 16.9092 20.0863 17.0868 19.9088L19.914 17.0836L19.9501 17.0494C20.1214 16.8945 20.3403 16.8041 20.5702 16.7926L20.62 16.7906H25.0419L25.0693 16.7916ZM11.3798 16.7906C11.6278 16.7906 11.8672 16.8833 12.0507 17.0494L12.0859 17.0836L14.913 19.9097C15.0906 20.0872 15.1955 20.3243 15.2079 20.5748L15.2099 20.6246V25.0347C15.2098 25.6323 14.6941 26.1028 14.1132 25.9801C10.0658 25.1241 6.87801 21.9395 6.02044 17.8951C5.89852 17.3195 6.34998 16.8075 6.93059 16.7916L6.95891 16.7906H11.3798ZM7.67669 18.3043C8.54418 21.1782 10.8194 23.4521 13.707 24.317V21.2525C13.707 20.9853 13.6001 20.7285 13.4111 20.5396L11.4687 18.5982C11.2798 18.4096 11.0236 18.3043 10.7568 18.3043H7.67669ZM21.2431 18.3043C20.9762 18.3043 20.72 18.4096 20.5312 18.5982L18.5888 20.5396C18.3998 20.7285 18.2939 20.9853 18.2939 21.2525V24.317C21.1814 23.452 23.4568 21.1781 24.3241 18.3043H21.2431ZM14.1132 6.0201C14.6941 5.89734 15.2099 6.36881 15.2099 6.96639V11.3756L15.2079 11.4254C15.1955 11.6758 15.0906 11.9139 14.913 12.0914L12.0859 14.9166L12.0507 14.9508C11.8672 15.1169 11.6278 15.2096 11.3798 15.2096H6.93059C6.34991 15.1936 5.89838 14.6807 6.02044 14.1051C6.87806 10.0607 10.0658 6.87591 14.1132 6.0201ZM16.7909 6.96639C16.791 6.36886 17.3053 5.89791 17.8857 6.0201C21.9319 6.874 25.1198 10.0586 25.9794 14.1041C26.1037 14.6893 25.6359 15.2096 25.0419 15.2096H20.6181C20.3539 15.2096 20.1005 15.1041 19.913 14.9166L17.0868 12.0894C16.9094 11.9119 16.8044 11.6748 16.7919 11.4244L16.7909 11.3736V6.96639ZM13.707 7.68319C10.8192 8.54804 8.54408 10.8228 7.67669 13.6969H10.7568C11.0237 13.6969 11.2798 13.5906 11.4687 13.4019L13.4111 11.4605C13.5999 11.2718 13.7068 11.0156 13.707 10.7486V7.68319ZM18.2929 10.7467C18.2929 11.0137 18.399 11.2697 18.5878 11.4586L20.5292 13.401C20.7182 13.5899 20.9749 13.6959 21.2421 13.6959H24.3241C23.4554 10.8212 21.18 8.54764 18.2929 7.68416V10.7467Z" fill="var(--fill-0, #90D2F2)"/>
</g>
</svg>
