<svg width="32" height="32" viewBox="0 0 32 32" fill="none" xmlns="http://www.w3.org/2000/svg">
<rect width="32" height="32" rx="8" fill="white"/>
<path d="M22.9815 24.7244C24.6372 24.7244 25.9793 23.3836 25.9793 21.7297C25.9793 20.0758 24.6372 18.735 22.9815 18.735C21.3259 18.735 19.9837 20.0758 19.9837 21.7297C19.9837 23.3836 21.3259 24.7244 22.9815 24.7244Z" fill="black"/>
<path d="M22.9492 6.68116C22.2072 6.68086 21.4912 6.95433 20.9387 7.44907C16.554 10.6872 13.4236 8.00396 12.7302 7.30586C12.6872 7.25754 12.585 7.15013 12.585 7.15013C12.0892 6.66999 11.4629 6.34641 10.7841 6.2198C10.1053 6.09319 9.40426 6.16916 8.76846 6.43822C8.13265 6.70729 7.5903 7.15752 7.20913 7.73269C6.82797 8.30786 6.62489 8.98246 6.62527 9.67224C6.63069 10.1491 6.72929 10.6204 6.91555 11.0595C7.14132 11.6144 7.6753 12.1335 7.962 12.5738C8.49956 13.3847 8.78805 14.1043 8.78805 15.1335C8.77882 16.439 8.27496 17.6926 7.37785 18.6419C7.28109 18.7565 6.85821 19.238 6.85284 19.2416C6.39093 19.8527 6.10878 20.5803 6.03808 21.3427C5.96738 22.1052 6.11093 22.8722 6.45261 23.5577C6.79429 24.2431 7.32056 24.8197 7.97227 25.2228C8.62397 25.6259 9.3753 25.8395 10.1418 25.8395C10.9083 25.8395 11.6596 25.6259 12.3113 25.2228C12.9631 24.8197 13.4893 24.2431 13.831 23.5577C14.1727 22.8722 14.3162 22.1052 14.2455 21.3427C14.1749 20.5803 13.8927 19.8527 13.4308 19.2416L13.0581 18.8174C12.1386 17.9217 11.5812 16.7194 11.492 15.4396C11.4027 14.1597 11.788 12.8919 12.5743 11.8775C12.7518 11.6477 12.949 11.4339 13.1638 11.2385C13.1713 11.2298 13.1797 11.222 13.1889 11.2152C14.1931 10.3022 15.5138 9.81575 16.8709 9.85919C18.2281 9.90264 19.5149 10.4725 20.4585 11.4479C20.5553 11.55 20.8491 11.8632 20.8957 11.9026C21.5766 12.4915 22.1375 12.7421 22.9456 12.7421C23.7502 12.7421 24.5218 12.4228 25.0907 11.8545C25.6596 11.2862 25.9792 10.5154 25.9792 9.71162C25.9792 8.90789 25.6596 8.13708 25.0907 7.56876C24.5218 7.00044 23.7502 6.68116 22.9456 6.68116H22.9492Z" fill="black"/>
</svg>
