<svg width="32" height="32" viewBox="0 0 32 32" fill="none" xmlns="http://www.w3.org/2000/svg">
<rect width="32" height="32" rx="8" fill="white" fill-opacity="0.05"/>
<path d="M22.5477 10.6421C22.882 10.308 23.3999 10.3281 23.614 10.6819C23.8454 11.062 24.0203 11.4726 24.1448 11.9029C24.2146 12.1474 24.1338 12.4334 23.9308 12.6365L17.3839 19.1835C16.9884 19.5789 16.4966 19.8523 15.9745 19.9637L15.4308 20.0793C14.9108 20.1929 14.4146 20.4662 14.0214 20.8594L8.99494 25.8859C8.78086 25.0602 8.68698 24.5028 9.35762 23.8322L22.5477 10.6421ZM23.9661 13.4632C24.1845 13.2449 24.5201 13.3711 24.4985 13.6592C24.363 15.4243 23.5222 17.2839 22.0236 18.7825C20.8809 20.0343 17.6565 21.9478 15.352 23.23C14.8802 23.4919 14.496 22.9326 14.8826 22.546L23.9639 13.4655L23.9661 13.4632ZM20.9529 7.99527C21.1603 7.78779 21.4663 7.74385 21.6759 7.88789C22.1128 8.18494 22.5212 8.61531 22.731 9.13511C22.8095 9.33606 22.742 9.58277 22.5695 9.75535L15.5179 16.8077C15.1226 17.2029 14.6311 17.4757 14.1092 17.5871L13.5648 17.7028C13.045 17.8163 12.5493 18.0898 12.1562 18.4829L7.80628 22.8321C7.5923 22.0065 7.69528 21.2529 8.36569 20.5824L20.9529 7.99527ZM17.9643 6.74128C18.3574 6.34818 18.9212 6.19506 19.3842 6.36959C19.6748 6.48101 19.9549 6.6171 20.2192 6.77658C20.5685 6.9864 20.5859 7.49723 20.2582 7.82482L13.8096 14.2734C13.4404 14.6427 12.9379 14.8393 12.4573 14.8043C11.9527 14.7672 11.4216 14.975 11.0306 15.366L7.49842 18.8982C7.28436 18.0724 7.56215 17.1442 8.23279 16.4735L9.37714 15.3285L17.9643 6.74128ZM16.9318 6.11429C17.2418 6.11014 17.362 6.47913 17.1263 6.715L10.981 12.8603L10.2707 13.5699L9.18942 14.6511L9.18341 14.6579C8.95622 14.8851 8.61969 14.6797 8.74639 14.3913L9.80364 11.9885C9.86262 11.8421 9.92829 11.6932 10.0004 11.5425L10.0064 11.5274C10.6159 10.2364 11.597 8.86683 12.5189 7.94496C13.9978 6.46603 15.3262 6.12958 16.9318 6.11429Z" fill="url(#paint0_linear_21_288)"/>
<defs>
<linearGradient id="paint0_linear_21_288" x1="27.6828" y1="6.13783" x2="10.6461" y2="25.8365" gradientUnits="userSpaceOnUse">
<stop stop-color="#F5BD00"/>
<stop offset="0.364891" stop-color="#F54B00"/>
<stop offset="1" stop-color="#6E45FF"/>
</linearGradient>
</defs>
</svg>
