<svg preserveAspectRatio="none" width="100%" height="100%" overflow="visible" style="display: block;" viewBox="0 0 32 32" fill="none" xmlns="http://www.w3.org/2000/svg">
<g id="Perena">
<g clip-path="url(#clip0_100_2442)">
<rect width="32" height="32" rx="8" fill="var(--fill-0, #291368)"/>
<g id="Vector">
</g>
<path id="Vector_2" d="M25.998 15.9967C25.998 15.9872 25.998 15.9778 25.998 15.967C25.9899 14.6834 25.5724 13.4025 24.7496 12.3675C24.1753 11.6446 23.4119 11.1177 22.7134 10.5258C22.1067 10.0124 21.6364 9.35578 21.1338 8.74231C20.2245 7.6722 19.026 6.97094 17.7167 6.64666C17.6991 6.64261 17.6816 6.63856 17.6654 6.63315C17.6113 6.61964 17.5573 6.60612 17.5019 6.59396C17.0506 6.49128 16.5872 6.43183 16.1264 6.41561C16.0724 6.41156 16.0264 6.41021 15.9981 6.41156C15.9643 6.41156 15.9129 6.41156 15.8535 6.41561C15.4306 6.43183 15.0049 6.48317 14.5861 6.56965C13.6133 6.75881 12.6769 7.15065 11.8878 7.75596C11.1866 8.29373 10.6582 9.00039 10.1029 9.67866C9.01118 11.0109 7.42627 11.7567 6.62368 13.3525C6.35074 13.897 6.17104 14.4766 6.07781 15.0671C6.067 15.1333 6.05754 15.2009 6.04808 15.2684C6.04403 15.3022 6.03862 15.3374 6.03457 15.3712C6.02106 15.4914 6.01295 15.6116 6.00755 15.7319C6.00755 15.7441 6.00619 15.7576 6.00619 15.7697C6.00079 15.8926 6.00079 16.0156 6.00485 16.1386C6.00485 16.1561 6.00485 16.1737 6.00485 16.1913C6.0089 16.298 6.01565 16.4048 6.02511 16.5102C6.03052 16.5683 6.03592 16.6264 6.04268 16.6845C6.04943 16.7426 6.05754 16.8007 6.06565 16.8588C6.21157 17.8586 6.60747 18.822 7.25332 19.6327C7.79243 20.3096 8.50045 20.8285 9.16521 21.373C9.75027 21.8527 10.1975 22.439 10.6744 23.0214C11.1771 23.6348 11.7514 24.1429 12.385 24.5415C12.3878 24.5428 12.3891 24.5441 12.3918 24.5469C12.3945 24.5483 12.3972 24.5509 12.4012 24.5523C12.4323 24.5725 12.4634 24.5914 12.4958 24.6104C14.3659 25.8021 16.9506 25.9021 18.9314 24.9292C19.1382 24.828 19.3368 24.7117 19.5273 24.5847C20.238 24.1442 20.8784 23.5686 21.45 22.8714C21.9324 22.2823 22.3958 21.7338 22.9863 21.25C23.6564 20.7015 24.3482 20.1772 24.8698 19.4746C25.6197 18.464 25.9926 17.2452 25.998 16.0264C25.998 16.0156 25.998 16.0048 25.998 15.994V15.9967ZM13.243 24.0051C12.4837 23.3795 11.9472 22.5283 11.7365 21.5892C11.7041 21.4473 11.8027 21.3095 11.9472 21.2933C12.0554 21.2812 12.1634 21.2676 12.2716 21.2487C13.9713 20.9528 15.2806 19.861 15.9845 18.418C16.0534 18.5626 16.1264 18.7044 16.2075 18.8423C17.0276 20.2259 18.4328 21.065 19.9637 21.277C19.9961 21.0717 20.011 20.8636 20.0096 20.6555C19.0882 20.4204 18.2613 19.7678 17.6978 18.9274C16.6642 17.3857 16.5399 15.2887 17.3708 13.6281C17.8289 12.7134 18.6382 11.85 19.6016 11.4514C19.9718 11.2987 20.3582 11.6284 20.2839 12.0216C20.1042 12.9714 19.5976 13.8578 18.8382 14.4996C18.3477 14.9144 17.791 15.209 17.2087 15.3819C17.1857 15.5765 17.1749 15.7724 17.1749 15.9683C17.1749 15.9683 17.1735 15.9683 17.1722 15.9683C17.1722 15.9846 17.1722 16.0021 17.1735 16.0184C17.1735 16.0291 17.1735 16.0399 17.1735 16.0521C17.1735 16.0521 17.1735 16.0521 17.1749 16.0521C17.1776 16.2386 17.1885 16.425 17.21 16.6088C18.5288 17.0155 19.6503 18.0208 20.1258 19.3408C20.7163 20.9785 20.1556 22.8269 18.8382 23.9402C18.7787 23.9902 18.7166 24.0375 18.6544 24.0834C16.9615 25.2765 14.8726 25.2063 13.2444 24.0064L13.243 24.0051ZM13.243 7.99647C15.0738 6.63856 17.3154 6.83583 18.9666 8.17753C19.4773 8.64774 19.884 9.23279 20.1232 9.89889C20.1839 10.0678 20.2312 10.2394 20.2677 10.4124C20.2961 10.5502 20.2002 10.6839 20.061 10.7001C18.7693 10.8556 17.5424 11.4568 16.6831 12.481C16.4021 12.8147 16.1696 13.1809 15.9845 13.5687C15.3954 12.3513 14.3753 11.373 13.0147 10.9285C12.6904 10.8231 12.358 10.7515 12.0229 10.7069C11.9932 10.9083 11.9797 11.1109 11.9838 11.3109C11.9892 11.3122 11.9959 11.3136 12.0013 11.3149C14.0308 11.877 15.1319 14.0173 15.1671 15.9954C15.1347 17.7803 14.2848 19.6003 12.6336 20.4286C12.5458 20.4718 12.4593 20.511 12.3715 20.5447C12.0067 20.6866 11.627 20.3813 11.6933 19.9962V19.988C11.9784 18.3734 13.243 17.0898 14.7712 16.6101C14.7995 16.3994 14.8158 16.1926 14.8199 15.994C14.8158 15.794 14.7969 15.5873 14.7685 15.3806C14.3901 15.2671 14.02 15.1009 13.67 14.8753C12.2256 13.9443 11.3933 12.2621 11.6946 10.5475C11.8635 9.58545 12.3796 8.74097 13.0917 8.11402C13.1417 8.07349 13.1903 8.03161 13.2417 7.99377L13.243 7.99647ZM24.505 16.5669C24.3645 17.9883 23.7794 19.1071 22.8133 19.9489C22.7485 20.0056 22.685 20.057 22.6228 20.1042C22.2607 20.3826 21.7405 20.1799 21.6351 19.7354C21.6351 19.7327 21.6338 19.73 21.6324 19.7273C21.1284 17.6519 19.3517 16.4223 17.3857 16.0089C17.9235 15.8994 18.445 15.7279 18.9301 15.49C20.2637 14.8347 21.296 13.6349 21.6324 12.2378C21.7364 11.8027 22.2459 11.6162 22.6106 11.8757C22.7444 11.9703 22.8701 12.0729 22.9903 12.1823C24.0848 13.366 24.6685 14.8996 24.5037 16.5656L24.505 16.5669ZM9.01118 12.1837C9.13144 12.0743 9.25842 11.9716 9.39084 11.877C9.75568 11.6176 10.2651 11.8054 10.3691 12.2392C10.7055 13.6349 11.7378 14.8361 13.0714 15.4914C13.5565 15.7292 14.0781 15.9008 14.6158 16.0102C12.6499 16.4237 10.8731 17.6519 10.3691 19.7287C10.3691 19.7313 10.3678 19.734 10.3664 19.7367C10.2596 20.1799 9.73946 20.3826 9.37873 20.1056C9.31652 20.0583 9.25301 20.007 9.1882 19.9502C8.2221 19.1098 7.63705 17.9897 7.49653 16.5683C7.33168 14.9023 7.91539 13.3687 9.00984 12.1851L9.01118 12.1837Z" fill="var(--fill-0, #FFFEF7)"/>
</g>
</g>
<defs>
<clipPath id="clip0_100_2442">
<rect width="32" height="32" rx="8" fill="white"/>
</clipPath>
</defs>
</svg>
