<svg width="32" height="32" viewBox="0 0 32 32" fill="none" xmlns="http://www.w3.org/2000/svg">
<path fill-rule="evenodd" clip-rule="evenodd" d="M15.1621 5.125C18.0008 5.125 20.4248 6.90011 21.3857 9.40039C23.196 8.64632 25.3572 8.94292 26.9121 10.3418C29.0647 12.2785 29.2393 15.5934 27.3027 17.7461C26.8793 18.2167 26.3901 18.593 25.8613 18.873C26.1249 19.4999 26.2705 20.1886 26.2705 20.9111C26.2705 23.8173 23.915 26.1738 21.0088 26.1738C19.7133 26.1738 18.5272 25.7051 17.6104 24.9287C16.6457 26.1159 15.1744 26.8749 13.5254 26.875C10.9638 26.875 8.82941 25.0445 8.35938 22.6201C5.53576 22.2652 3.35162 19.8554 3.35156 16.9355C3.35159 13.9606 5.61881 11.5158 8.51953 11.2334C8.80269 7.81304 11.6686 5.125 15.1621 5.125ZM13.7812 13.3125C13.0219 13.3125 12.4063 13.9281 12.4062 14.6875V17.3125C12.4062 18.0719 13.0218 18.6875 13.7812 18.6875C14.5406 18.6875 15.1562 18.0719 15.1562 17.3125V14.6875C15.1562 13.9281 14.5406 13.3125 13.7812 13.3125ZM18.4062 13.3125C17.6469 13.3125 17.0313 13.9281 17.0312 14.6875V17.3125C17.0312 18.0719 17.6468 18.6875 18.4062 18.6875C19.1657 18.6875 19.7812 18.0719 19.7812 17.3125V14.6875C19.7812 13.9281 19.1656 13.3125 18.4062 13.3125Z" fill="white"/>
</svg>
