<svg preserveAspectRatio="none" width="100%" height="100%" overflow="visible" style="display: block;" viewBox="0 0 32 32" fill="none" xmlns="http://www.w3.org/2000/svg">
<g id="Umbra white">
<path id="Subtract" fill-rule="evenodd" clip-rule="evenodd" d="M15.1621 5.12494C18.0008 5.12494 20.4248 6.90005 21.3857 9.40033C23.196 8.64626 25.3572 8.94286 26.9121 10.3417C29.0647 12.2784 29.2393 15.5934 27.3027 17.746C26.8793 18.2167 26.3901 18.5929 25.8613 18.873C26.1249 19.4999 26.2705 20.1885 26.2705 20.9111C26.2705 23.8173 23.915 26.1738 21.0088 26.1738C19.7133 26.1737 18.5272 25.705 17.6104 24.9286C16.6457 26.1158 15.1744 26.8748 13.5254 26.8749C10.9638 26.8749 8.82941 25.0445 8.35938 22.6201C5.53576 22.2652 3.35162 19.8553 3.35156 16.9355C3.35159 13.9606 5.61881 11.5157 8.51953 11.2333C8.80269 7.81298 11.6686 5.12494 15.1621 5.12494ZM13.7812 13.3124C13.0219 13.3124 12.4063 13.9281 12.4062 14.6874V17.3124C12.4062 18.0718 13.0218 18.6874 13.7812 18.6874C14.5406 18.6874 15.1562 18.0718 15.1562 17.3124V14.6874C15.1562 13.9281 14.5406 13.3124 13.7812 13.3124ZM18.4062 13.3124C17.6469 13.3124 17.0313 13.9281 17.0312 14.6874V17.3124C17.0312 18.0718 17.6468 18.6874 18.4062 18.6874C19.1657 18.6874 19.7812 18.0718 19.7812 17.3124V14.6874C19.7812 13.9281 19.1656 13.3124 18.4062 13.3124Z" fill="var(--fill-0, white)"/>
</g>
</svg>
