<svg preserveAspectRatio="none" width="100%" height="100%" overflow="visible" style="display: block;" viewBox="0 0 32 32" fill="none" xmlns="http://www.w3.org/2000/svg">
<g id="Rectangle [Vectorized]">
<path id="Union" d="M5.39727 21.1914C5.75595 21.2315 6.5711 21.2163 6.95294 21.2177L9.79473 21.2295C10.4478 24.6688 13.2568 26.2029 16.5399 26.167C17.9253 26.1518 19.9477 25.8022 20.9451 24.7832L20.9471 28.6845L20.9383 29.25C19.5326 29.6363 18.5523 29.9168 17.0535 29.9736C13.8944 30.0932 10.59 29.3594 8.19708 27.1855C6.56226 25.7003 5.47555 23.4058 5.39727 21.1914ZM11.1316 7.57809C10.5842 8.47319 10.2106 9.96697 10.6688 10.9472C11.8769 13.5318 16.4568 13.5836 18.8787 14.2207C20.2603 14.5841 21.4272 14.8164 22.7108 15.4052C24.3014 16.1509 25.5879 17.3692 26.2 19.0214C26.7651 20.5468 26.7876 22.9545 26.0975 24.4209C25.8903 24.4086 25.6479 24.4094 25.4393 24.415C24.0761 24.4514 22.6529 24.3512 21.2977 24.4179C22.308 23.1995 22.3777 20.9908 21.1736 19.8759C20.1414 18.9019 18.8128 18.6633 17.4861 18.3418C13.6199 17.4019 8.34657 17.3088 6.4754 13.0634C5.78 11.4854 5.84577 9.20295 6.36212 7.58199C7.52549 7.61029 8.70643 7.56578 9.87188 7.58883C10.2609 7.59654 10.7498 7.61152 11.1316 7.57809ZM15.0213 2.02926C20.2156 1.73248 25.5311 4.46852 26.034 10.0283C25.5488 10.0301 21.8084 10.0817 21.6033 10.0107L21.5565 9.88766C21.3664 9.21548 21.1694 8.70832 20.7518 8.14156C19.8837 6.98611 18.596 6.21831 17.1668 6.00387C15.8687 5.81289 13.8457 5.86655 12.6688 6.43746C12.2111 6.6595 11.9307 6.85767 11.5301 7.15621C11.5746 5.72709 11.5293 4.10917 11.5379 2.65621C12 2.57492 12.4574 2.41493 12.9149 2.31539C13.6046 2.16531 14.3079 2.07375 15.0115 2.03024C15.0146 2.02991 15.0182 2.02959 15.0213 2.02926Z" fill="var(--fill-0, #FEFEFE)"/>
</g>
</svg>
