<svg width="32" height="32" viewBox="0 0 32 32" fill="none" xmlns="http://www.w3.org/2000/svg">
<path d="M5.39722 21.1912C5.75589 21.2314 6.57105 21.2162 6.95288 21.2176L9.79468 21.2293C10.4477 24.6687 13.2567 26.2027 16.5398 26.1668C17.9251 26.1516 19.9475 25.8027 20.9451 24.784L20.947 28.6844L20.9382 29.2498C19.5325 29.6362 18.5523 29.9177 17.0535 29.9744C13.8945 30.0941 10.5899 29.36 8.19702 27.1864C6.56221 25.7012 5.47549 23.4057 5.39722 21.1912Z" fill="#FEFEFE"/>
<path d="M11.1316 7.57796C10.5841 8.473 10.2106 9.96677 10.6687 10.9471C11.8768 13.5318 16.4567 13.5835 18.8787 14.2205C20.2602 14.5839 21.4272 14.8163 22.7107 15.4051C24.3013 16.1508 25.5878 17.3692 26.2 19.0213C26.765 20.5466 26.7874 22.9543 26.0974 24.4207C25.8903 24.4085 25.6478 24.4093 25.4392 24.4149C24.076 24.4513 22.6529 24.3511 21.2976 24.4178C22.3079 23.1994 22.3776 20.9917 21.1736 19.8768C20.1413 18.9025 18.8129 18.6632 17.4861 18.3416C13.6197 17.4018 8.3464 17.3089 6.47534 13.0633C5.77992 11.4852 5.84567 9.20283 6.36206 7.58186C7.52544 7.61016 8.70637 7.56565 9.87183 7.5887C10.2609 7.59641 10.7497 7.6114 11.1316 7.57796Z" fill="#FEFEFE"/>
<path d="M15.0212 2.02913C20.2156 1.73236 25.531 4.46839 26.0339 10.0282C25.5488 10.03 21.8083 10.0815 21.6033 10.0106L21.5564 9.88753C21.3663 9.21551 21.1693 8.70907 20.7517 8.14241C19.8837 6.98674 18.5961 6.21821 17.1667 6.00374C15.8686 5.81276 13.8456 5.86643 12.6687 6.43733C12.2109 6.6594 11.9306 6.85849 11.53 7.15706C11.5746 5.72795 11.5292 4.11007 11.5378 2.65706C12 2.57577 12.4573 2.41579 12.9148 2.31624C13.6046 2.16614 14.3078 2.0746 15.0115 2.03108C15.0146 2.03075 15.0181 2.02946 15.0212 2.02913Z" fill="#FEFEFE"/>
</svg>
